<svg width="352" height="198" viewBox="0 0 352 198" fill="none" xmlns="http://www.w3.org/2000/svg">
<g clip-path="url(#clip0_15038_54815)">
<mask id="mask0_15038_54815" style="mask-type:luminance" maskUnits="userSpaceOnUse" x="21" y="0" width="310" height="198">
<path d="M331 0H21V198H331V0Z" fill="white"/>
</mask>
<g mask="url(#mask0_15038_54815)">
<path d="M38.4562 24.3337C43.4757 17.2579 47.7754 12.1661 70.1378 8.70411C105.562 3.21757 258.068 3.46052 286.477 10.3541C302.888 14.3425 318.571 14.9296 320.241 43.8706C321.556 66.5861 323.993 128.274 318.158 142.345C312.323 156.416 307.735 170.476 280.641 171.721C253.547 172.966 101.407 175.861 76.3954 174.616C51.3841 173.371 38.4658 162.621 33.4655 150.2C28.4651 137.79 30.5478 71.1717 30.5478 71.1717C30.5478 71.1717 30.5958 35.4282 38.4658 24.3236L38.4562 24.3337Z" fill="#EBEBF2"/>
<mask id="mask1_15038_54815" style="mask-type:luminance" maskUnits="userSpaceOnUse" x="30" y="4" width="292" height="171">
<path d="M38.4562 24.3337C43.4757 17.2579 47.7754 12.1661 70.1378 8.70411C105.562 3.21757 258.068 3.46052 286.477 10.3541C302.888 14.3425 318.571 14.9296 320.241 43.8706C321.556 66.5861 323.993 128.274 318.158 142.345C312.323 156.416 307.735 170.476 280.641 171.721C253.547 172.966 101.407 175.861 76.3954 174.616C51.3841 173.371 38.4658 162.621 33.4655 150.2C28.4651 137.79 30.5478 71.1717 30.5478 71.1717C30.5478 71.1717 30.5958 35.4282 38.4658 24.3236L38.4562 24.3337Z" fill="white"/>
</mask>
<g mask="url(#mask1_15038_54815)">
<path d="M30.1174 -6.69336H248.942V126.926H30.1174V-6.69336Z" stroke="white" stroke-width="1.33277" stroke-miterlimit="10" stroke-linecap="round" stroke-linejoin="round"/>
<path d="M30.1177 19.8477H248.942" stroke="white" stroke-width="1.33277" stroke-miterlimit="10" stroke-linecap="round" stroke-linejoin="round"/>
<path d="M30.1177 42.2793H248.942" stroke="white" stroke-width="1.33277" stroke-miterlimit="10" stroke-linecap="round" stroke-linejoin="round"/>
<path d="M30.1177 64.7109H248.942" stroke="white" stroke-width="1.33277" stroke-miterlimit="10" stroke-linecap="round" stroke-linejoin="round"/>
<path d="M30.1177 87.1445H248.942" stroke="white" stroke-width="1.33277" stroke-miterlimit="10" stroke-linecap="round" stroke-linejoin="round"/>
<path d="M30.1177 109.576H248.942" stroke="white" stroke-width="1.33277" stroke-miterlimit="10" stroke-linecap="round" stroke-linejoin="round"/>
<path d="M72.7534 20.1953V109.676" stroke="white" stroke-width="1.33277" stroke-miterlimit="10" stroke-linecap="round" stroke-linejoin="round"/>
<path d="M102.523 20.1953V109.676" stroke="white" stroke-width="1.33277" stroke-miterlimit="10" stroke-linecap="round" stroke-linejoin="round"/>
<path d="M132.292 20.1953V109.676" stroke="white" stroke-width="1.33277" stroke-miterlimit="10" stroke-linecap="round" stroke-linejoin="round"/>
<path d="M162.062 20.1953V109.676" stroke="white" stroke-width="1.33277" stroke-miterlimit="10" stroke-linecap="round" stroke-linejoin="round"/>
<path d="M191.831 20.1953V109.676" stroke="white" stroke-width="1.33277" stroke-miterlimit="10" stroke-linecap="round" stroke-linejoin="round"/>
<path fill-rule="evenodd" clip-rule="evenodd" d="M78.3701 126.785C78.3701 128.054 79.4009 129.084 80.6705 129.084H198.389C199.658 129.084 200.689 128.054 200.689 126.785C200.689 125.516 199.658 124.486 198.389 124.486H80.6705C79.4009 124.486 78.3701 125.516 78.3701 126.785Z" fill="white"/>
<path d="M38.3482 94.7945C38.3482 93.4006 39.4793 92.2706 40.8746 92.2706C42.2698 92.2706 43.4009 93.4006 43.4009 94.7945C43.4009 96.1884 42.2698 97.3184 40.8746 97.3184C39.4793 97.3184 38.3482 96.1884 38.3482 94.7945Z" stroke="white" stroke-width="0.53394" stroke-miterlimit="10"/>
<path d="M46.896 93.6367H54.3486" stroke="white" stroke-width="0.53394" stroke-miterlimit="10" stroke-linecap="round" stroke-linejoin="round"/>
<path d="M46.896 96.7305H58.9944" stroke="white" stroke-width="0.53163" stroke-miterlimit="10" stroke-linecap="round" stroke-linejoin="round"/>
<path d="M38.3482 103.39C38.3482 101.996 39.4793 100.866 40.8746 100.866C42.2698 100.866 43.4009 101.996 43.4009 103.39C43.4009 104.784 42.2698 105.914 40.8746 105.914C39.4793 105.914 38.3482 104.784 38.3482 103.39Z" stroke="white" stroke-width="0.53394" stroke-miterlimit="10"/>
<path d="M45.3477 102.232H52.8003" stroke="white" stroke-width="0.53394" stroke-miterlimit="10" stroke-linecap="round" stroke-linejoin="round"/>
<path d="M45.3477 105.326H58.9947" stroke="white" stroke-width="0.534497" stroke-miterlimit="10" stroke-linecap="round" stroke-linejoin="round"/>
<path d="M205.797 48.3887H242.538" stroke="white" stroke-width="1.16614" stroke-miterlimit="10" stroke-linecap="round"/>
<path d="M205.797 53.1934H242.538" stroke="white" stroke-width="1.16614" stroke-miterlimit="10" stroke-linecap="round"/>
<path d="M205.797 57.998H242.538" stroke="white" stroke-width="1.16614" stroke-miterlimit="10" stroke-linecap="round"/>
<path d="M201.305 48.3887H196.877" stroke="white" stroke-width="1.16614" stroke-miterlimit="10" stroke-linecap="round"/>
<path d="M201.305 53.1934H196.877" stroke="white" stroke-width="1.16614" stroke-miterlimit="10" stroke-linecap="round"/>
<path d="M201.305 57.998H196.877" stroke="white" stroke-width="1.16614" stroke-miterlimit="10" stroke-linecap="round"/>
<path d="M259.319 45.4479C259.319 58.9708 270.29 69.9328 283.823 69.9328C297.357 69.9328 308.33 58.9708 308.33 45.4479C308.33 31.9249 297.357 20.9629 283.823 20.9629C270.29 20.9629 259.319 31.9249 259.319 45.4479Z" fill="white"/>
<path d="M283.824 65.3523C294.809 65.3523 303.746 56.4226 303.746 45.4467C303.746 34.4707 294.809 25.541 283.824 25.541C272.84 25.541 263.903 34.4707 263.903 45.4467C263.903 56.4226 272.84 65.3523 283.824 65.3523Z" fill="#EBEBF2"/>
<path d="M283.597 49.1183C283.745 49.1599 283.91 49.1311 284.037 49.0321L296.983 38.985C297.199 38.8164 297.239 38.5039 297.071 38.2859C296.902 38.0692 296.588 38.0294 296.371 38.198L283.739 48.0015L274.577 40.5168C274.364 40.3426 274.05 40.3742 273.875 40.5881C273.701 40.8007 273.733 41.1138 273.945 41.288L283.416 49.0237C283.471 49.0694 283.532 49.1006 283.597 49.1183Z" fill="white" stroke="white" stroke-width="1.33261" stroke-miterlimit="2" stroke-linejoin="round"/>
<path d="M43.1112 148.054L56.6598 148.069L57.0614 148.07L55.1891 148.068L43.1112 148.054ZM59.8434 194.066C59.8653 194.645 59.8928 195.203 59.9256 195.745L59.9153 195.746C59.8804 195.205 59.852 194.645 59.8291 194.066L59.8434 194.066ZM60.0498 197.464C60.0267 197.221 60.0063 196.97 59.9869 196.719L59.992 196.72C60.0104 196.969 60.0287 197.222 60.0498 197.464ZM74.4011 227.395C74.9662 227.397 75.4277 226.931 75.4232 226.366C75.3127 209.834 71.9967 206.708 71.4136 194.677L71.4149 194.311L71.3985 194.312C71.3645 193.522 71.3402 192.698 71.3306 191.827C71.3246 191.268 70.8768 190.811 70.3167 190.811C68.1367 190.809 63.0032 190.803 60.808 190.8C60.2428 190.799 59.7827 191.261 59.7892 191.826C59.7946 192.213 59.8016 192.59 59.8101 192.962L59.7937 192.963C59.7842 192.591 59.7761 192.214 59.7718 191.827C59.7643 191.262 60.2265 190.799 60.7926 190.801L66.9543 190.807C67.5174 190.807 67.974 190.352 67.9745 189.79L67.9801 185.928L68.3443 185.937L68.3466 184.792L67.981 184.801L68.0018 169.516C68.0023 168.953 68.4589 168.497 69.022 168.498L70.6991 168.5C71.2622 168.501 71.7199 168.045 71.7203 167.482L71.7306 159.312C71.7321 158.749 71.276 158.293 70.7129 158.293L67.5652 158.288C67.003 158.288 66.547 157.832 66.5474 157.269L66.5578 149.376C66.5592 148.661 67.1404 148.081 67.8559 148.081C68.5723 148.083 69.1535 147.503 69.1539 146.787L69.1644 138.894C69.1657 138.332 68.7098 137.875 68.1466 137.874L60.3886 137.866L29.1224 137.831C28.5593 137.831 28.1027 138.287 28.1013 138.848L28.0908 146.715C28.0903 147.278 27.6337 147.734 27.0706 147.734L25.4833 147.733L25.4956 148.303L25.4844 157.224C25.4839 157.786 25.939 158.243 26.5021 158.243L34.1334 158.252L28.076 158.245L28.076 158.259L28.0616 158.259L28.075 158.829L28.0693 163.081L28.0689 163.922L28.0634 167.434C28.0629 167.997 28.519 168.453 29.0822 168.454L30.0694 168.455C30.6325 168.456 31.0876 168.912 31.0871 169.475L31.0607 189.748C31.0593 190.311 31.5153 190.767 32.0784 190.769L48.1985 190.786L28.5065 190.765C27.9404 190.763 27.4778 191.231 27.4843 191.796C27.5217 195.518 27.79 198.475 28.1726 201.086L28.1717 201.656L28.2566 201.654C29.4189 209.139 31.4854 213.916 31.5773 226.329C31.5812 226.889 32.033 227.348 32.593 227.35L62.8412 227.383C63.4064 227.384 63.8668 226.918 63.8633 226.354C63.8501 224.362 63.7899 222.565 63.6938 220.923C63.7988 222.569 63.8661 224.366 63.8808 226.365C63.8857 226.925 64.3374 227.384 64.8975 227.385L74.4011 227.395Z" fill="white"/>
<path d="M34.2144 147.609L60.7989 147.513" stroke="#EBEBF2" stroke-width="1.06506" stroke-miterlimit="10" stroke-linecap="round"/>
<path d="M17.5732 151.498L44.1578 151.402" stroke="#EBEBF2" stroke-width="1.06506" stroke-miterlimit="10" stroke-linecap="round"/>
<path d="M30.9839 157.59L64.5925 158.518" stroke="#EBEBF2" stroke-width="1.06506" stroke-miterlimit="10" stroke-linecap="round"/>
<path d="M30.6909 161.588L47.5085 161.863" stroke="#EBEBF2" stroke-width="1.06506" stroke-miterlimit="10" stroke-linecap="round"/>
<path d="M55.2178 160.895L73.5946 161.219" stroke="#EBEBF2" stroke-width="1.06506" stroke-miterlimit="10" stroke-linecap="round"/>
<path d="M32.6484 168.951L66.8231 169.917" stroke="#EBEBF2" stroke-width="1.06506" stroke-miterlimit="10" stroke-linecap="round"/>
<path d="M42.6436 165.08L66.1044 165.777" stroke="#EBEBF2" stroke-width="1.06506" stroke-miterlimit="10" stroke-linecap="round"/>
<path d="M48.1045 153.734L69.9215 154.311" stroke="#EBEBF2" stroke-width="1.06506" stroke-miterlimit="10" stroke-linecap="round"/>
<path d="M38.1997 173.991L68.4082 174.941" stroke="#EBEBF2" stroke-width="1.06506" stroke-miterlimit="10" stroke-linecap="round"/>
<path d="M276.882 135.87C276.882 135.87 260.973 132.728 256.534 121.637C252.094 110.548 268.326 102.229 276.882 108.186C286.034 114.557 276.882 135.87 276.882 135.87Z" fill="white"/>
<path d="M276.497 135.604C276.497 135.604 285.612 153.4 289.87 163.41" stroke="white" stroke-width="1.07" stroke-miterlimit="1.5" stroke-linecap="round" stroke-linejoin="round"/>
<path d="M263.125 107.797C263.125 107.797 272.24 125.594 276.497 135.603" stroke="#EBEBF2" stroke-width="1.07" stroke-miterlimit="1.5" stroke-linecap="round" stroke-linejoin="round"/>
<path d="M256.105 114.363C256.105 114.363 266.921 120.686 276.887 135.869" stroke="#EBEBF2" stroke-width="1.07" stroke-miterlimit="1.5" stroke-linecap="round" stroke-linejoin="round"/>
<path d="M255.151 121.891C259.792 123.818 268.024 127.971 276.887 135.874" stroke="#EBEBF2" stroke-width="1.07" stroke-miterlimit="1.5" stroke-linecap="round" stroke-linejoin="round"/>
<path d="M272.383 106.236C272.383 106.236 270.926 118.672 277.062 135.761" stroke="#EBEBF2" stroke-width="1.07" stroke-miterlimit="1.5" stroke-linecap="round" stroke-linejoin="round"/>
<path d="M278.969 110.004C277.717 114.867 276.082 123.934 277.064 135.762" stroke="#EBEBF2" stroke-width="1.07" stroke-miterlimit="1.5" stroke-linecap="round" stroke-linejoin="round"/>
<path d="M296.817 136.986C296.817 136.986 312.725 133.843 317.165 122.752C321.604 111.663 305.373 103.345 296.817 109.301C287.664 115.672 296.817 136.986 296.817 136.986Z" fill="white"/>
<path d="M297.201 136.719C297.201 136.719 288.086 154.516 283.829 164.525" stroke="white" stroke-width="1.07" stroke-miterlimit="1.5" stroke-linecap="round" stroke-linejoin="round"/>
<path d="M310.574 108.912C310.574 108.912 301.459 126.709 297.201 136.718" stroke="#EBEBF2" stroke-width="1.07" stroke-miterlimit="1.5" stroke-linecap="round" stroke-linejoin="round"/>
<path d="M317.593 115.479C317.593 115.479 306.777 121.801 296.811 136.984" stroke="#EBEBF2" stroke-width="1.07" stroke-miterlimit="1.5" stroke-linecap="round" stroke-linejoin="round"/>
<path d="M318.547 123.006C313.907 124.933 305.675 129.086 296.811 136.989" stroke="#EBEBF2" stroke-width="1.07" stroke-miterlimit="1.5" stroke-linecap="round" stroke-linejoin="round"/>
<path d="M301.315 107.352C301.315 107.352 302.772 119.787 296.636 136.877" stroke="#EBEBF2" stroke-width="1.07" stroke-miterlimit="1.5" stroke-linecap="round" stroke-linejoin="round"/>
<path d="M294.729 111.12C295.982 115.982 297.616 125.049 296.634 136.877" stroke="#EBEBF2" stroke-width="1.07" stroke-miterlimit="1.5" stroke-linecap="round" stroke-linejoin="round"/>
<path d="M287.515 113.341C287.515 113.341 274.479 103.71 275.212 91.7861C275.943 79.8636 294.174 79.2693 299.359 88.3068C304.906 97.9743 287.515 113.341 287.515 113.341Z" fill="white"/>
<path d="M287.289 112.936C287.289 112.936 287.914 132.918 287.48 143.785" stroke="white" stroke-width="1.07" stroke-miterlimit="1.5" stroke-linecap="round" stroke-linejoin="round"/>
<path d="M287.09 82.0859C287.09 82.0859 287.716 102.068 287.282 112.935" stroke="#EBEBF2" stroke-width="1.07" stroke-miterlimit="1.5" stroke-linecap="round" stroke-linejoin="round"/>
<path d="M277.935 85.0273C277.935 85.0273 285.007 95.3599 287.52 113.342" stroke="#EBEBF2" stroke-width="1.07" stroke-miterlimit="1.5" stroke-linecap="round" stroke-linejoin="round"/>
<path d="M273.854 91.4258C277.224 95.1484 282.889 102.416 287.521 113.344" stroke="#EBEBF2" stroke-width="1.07" stroke-miterlimit="1.5" stroke-linecap="round" stroke-linejoin="round"/>
<path d="M296.125 84.6284C296.125 84.6284 289.49 95.2495 287.728 113.321" stroke="#EBEBF2" stroke-width="1.07" stroke-miterlimit="1.5" stroke-linecap="round" stroke-linejoin="round"/>
<path d="M300.472 90.8472C297.259 94.7082 291.9 102.208 287.727 113.319" stroke="#EBEBF2" stroke-width="1.07" stroke-miterlimit="1.5" stroke-linecap="round" stroke-linejoin="round"/>
<path fill-rule="evenodd" clip-rule="evenodd" d="M301.178 143.285C301.89 143.285 302.566 143.597 303.028 144.139C303.49 144.68 303.691 145.396 303.578 146.1C301.783 157.286 295.249 198.001 295.249 198.001H279.717C279.717 198.001 272.497 157.383 270.498 146.14C270.372 145.432 270.567 144.705 271.028 144.154C271.491 143.603 272.173 143.285 272.892 143.285H301.178Z" fill="white"/>
<mask id="mask2_15038_54815" style="mask-type:luminance" maskUnits="userSpaceOnUse" x="270" y="143" width="34" height="56">
<path d="M301.178 143.285C301.89 143.285 302.566 143.597 303.028 144.139C303.49 144.68 303.691 145.396 303.578 146.1C301.783 157.286 295.249 198.001 295.249 198.001H279.717C279.717 198.001 272.497 157.383 270.498 146.14C270.372 145.432 270.567 144.705 271.028 144.154C271.491 143.603 272.173 143.285 272.892 143.285H301.178Z" fill="white"/>
</mask>
<g mask="url(#mask2_15038_54815)">
<path fill-rule="evenodd" clip-rule="evenodd" d="M301.178 143.285C301.89 143.285 302.566 143.597 303.028 144.139C303.49 144.68 303.691 145.396 303.578 146.1C301.783 157.286 295.249 198.001 295.249 198.001H279.717C279.717 198.001 272.497 157.383 270.498 146.14C270.372 145.432 270.567 144.705 271.028 144.154C271.491 143.603 272.173 143.285 272.892 143.285H301.178Z" fill="white"/>
<path d="M305.245 157.861H268.775V160.291H305.245V157.861Z" fill="#EBEBF2"/>
<path d="M305.245 153.004H268.775V155.433H305.245V153.004Z" fill="#EBEBF2"/>
<path d="M305.245 148.145H268.775V150.574H305.245V148.145Z" fill="#EBEBF2"/>
</g>
</g>
<path d="M220.741 93.0165C218.16 91.6202 200.344 82.8633 200.344 82.8633H188.054C188.054 82.8633 173.243 89.7056 170.662 91.1005C168.081 92.4968 172.921 160.738 172.921 160.738L189.308 159.11L196.049 157.746L215.583 152.612C215.583 152.612 221.316 96.9146 218.735 95.5183" fill="#FFC7A1"/>
<path fill-rule="evenodd" clip-rule="evenodd" d="M220.486 166.016L226.041 198.002H167.954V166.016H220.486Z" fill="#21B531"/>
<path d="M187.453 198.002V191.59L183.492 189.447" stroke="#115B19" stroke-width="2.09241" stroke-miterlimit="1.5" stroke-linecap="round" stroke-linejoin="round"/>
<path d="M196.456 90.883L190.45 90.9107C188.165 90.9201 186.304 89.0771 186.295 86.7932L186.24 73.0457C186.23 70.7615 188.075 68.9019 190.36 68.8912L196.367 68.8635C198.652 68.8542 200.512 70.6971 200.521 72.981L200.577 86.7288C200.586 89.0127 198.741 90.8723 196.456 90.883Z" fill="#FFC7A1"/>
<path d="M200.52 72.9802C200.511 70.6958 198.651 68.8531 196.366 68.8625L190.359 68.8902C188.074 68.9009 186.228 70.7603 186.237 73.0446L186.272 81.5203C191.245 83.1025 196.665 82.2166 200.551 80.4986L200.52 72.9802Z" fill="#EA989D"/>
<path d="M171.073 119.425C167.83 110.039 161.308 116.22 160.771 116.819C157.912 120.006 154.692 132.009 151.881 147.666C151.881 147.666 149.957 156.67 164.399 149.986C164.399 149.986 172.455 123.426 171.073 119.425Z" fill="#FFC7A1"/>
<path d="M172.892 91.6991C172.892 91.6991 166.229 92.705 164.319 94.2318C157.572 99.6311 150.323 130.278 150.323 130.278C150.323 130.278 160.035 137.054 169.618 135.503L177.151 112.342C177.151 112.342 179.697 94.9422 172.892 91.6991Z" fill="#0049CD"/>
<path d="M185.795 83.0957C185.795 83.0957 190.372 88.8684 191.119 95.5494L189.509 135.581L186.87 181.211C186.87 181.211 163.91 180.101 164.744 172.414C166.274 158.323 168.476 150.865 167.629 138.523C165.747 111.096 166.38 93.1703 166.38 93.1703C166.38 93.1703 169.026 89.6789 183.803 84.4451" fill="#0049CD"/>
<path d="M166.38 159.968C166.772 151.558 168.331 144.351 168.012 138.559C167.576 130.63 167.445 117.908 168.879 108.943" stroke="#00338F" stroke-width="1.99713" stroke-miterlimit="2" stroke-linecap="round" stroke-linejoin="bevel"/>
<path d="M201.55 81.7676C201.55 81.7676 190.957 95.2427 191.119 95.1614L186.406 154.178C186.406 154.178 186.217 181.102 186.869 181.21C206.659 184.451 226.041 177.607 226.041 177.607C226.041 177.607 221.676 151.415 221.25 142.633C219.917 115.233 223.14 88.4969 223.14 88.4969C223.14 88.4969 216.219 83.2879 206.268 82.4485" fill="#0049CD"/>
<path d="M191.12 95.9707C191.12 95.9707 188.102 114.486 187.874 123.175C187.585 134.214 186.39 177.656 186.39 177.656" stroke="#00338F" stroke-width="1.99943" stroke-miterlimit="1.5" stroke-linecap="round" stroke-linejoin="round"/>
<path d="M184.76 83.0957C184.76 83.0957 179.683 87.3688 180.883 99.6693C180.883 99.6693 185.079 92.9478 186.785 92.4265C188.491 91.905 190.042 94.1369 191.119 96.5409" stroke="#00338F" stroke-width="1.99944" stroke-miterlimit="1.5" stroke-linecap="round" stroke-linejoin="round"/>
<path d="M242.258 138.646C241.27 128.519 230.256 109.928 230.256 109.928C230.256 109.928 215.009 101.575 218.164 119.382L229.482 142.648C229.482 142.648 238.772 145.398 242.258 138.646Z" fill="#FFC7A1"/>
<path d="M221.447 86.5784C225.929 88.5548 227.945 90.3861 229.094 92.1477C230.244 93.9092 241.986 117.314 242.965 119.653C243.944 121.992 232.62 133.765 220.851 129.084L212.376 106.331C212.376 106.331 209.958 81.5134 221.447 86.5784Z" fill="#0049CD"/>
<path d="M241.541 122.819C238.19 126.894 229.645 132.582 220.851 129.085L212.912 111.236" stroke="#00338F" stroke-width="1.99772" stroke-miterlimit="2" stroke-linecap="round" stroke-linejoin="round"/>
<path d="M201.935 81.7676C201.935 81.7676 206.199 87.368 203.291 99.6688C203.291 99.6688 198.076 94.2058 195.865 93.2579C193.783 92.3654 192.266 94.495 191.119 96.6348" stroke="#00338F" stroke-width="1.99944" stroke-miterlimit="1.5" stroke-linecap="round" stroke-linejoin="round"/>
<path fill-rule="evenodd" clip-rule="evenodd" d="M193.438 99.6684L194.007 136.356L187.674 143.466L182.963 136.356L187.842 99.0996L193.438 99.6684Z" fill="#21B531"/>
<path d="M193.438 99.6699L194.007 136.357L187.745 143.467" stroke="white" stroke-width="1.33218" stroke-miterlimit="1.5" stroke-linecap="round" stroke-linejoin="round"/>
<path fill-rule="evenodd" clip-rule="evenodd" d="M193.437 99.6692C192.582 100.694 188.568 100.288 187.842 99.3848C186.896 98.2071 186.816 92.9159 186.891 93.4124C186.891 93.4124 190.846 91.8937 195.714 94.2656C195.714 94.2656 195.123 97.6494 193.437 99.6692Z" fill="#21B531"/>
<path d="M195.43 95.1191C195.43 95.1191 195.123 97.6497 193.437 99.6695C193.041 100.144 191.967 100.312 190.856 100.266" stroke="white" stroke-width="1.33218" stroke-miterlimit="1.5" stroke-linecap="round" stroke-linejoin="round"/>
<path d="M216.351 49.316C216.351 49.316 215.544 44.1941 213.654 40.8421C216.077 41.3453 218.302 41.0888 218.302 41.0888C213.446 39.1598 210.315 36.8941 208.313 35.2161C207.696 34.6312 204.294 32.1065 204.294 32.1065L204.3 32.1161C202.273 30.5488 201.984 29.4438 199.101 28.4054C193.327 26.3249 187.536 30.4509 187.536 30.4509C187.536 30.4509 182.62 29.1749 181.587 29.6162C181.092 29.8268 177.531 31.8704 174.922 35.0795L174.923 35.0771C174.923 35.0771 170.33 40.2925 167.959 41.1787C167.959 41.1787 169.497 41.4372 171.135 41.3381C169.633 44.6648 169.718 49.1493 168.94 54.6727C168.15 60.2835 175.814 68.0908 175.814 68.0908L204.558 71.4932C204.558 71.4932 217.745 62.5101 216.351 49.316Z" fill="#12161C"/>
<path d="M204.894 44.4753L180.331 41.8114L174.732 46.8541C171.91 51.5319 172.133 57.4667 172.871 62.9704C173.459 67.3497 172.608 72.5112 176.187 74.9149C184.995 80.8327 194.509 80.1905 199.261 76.2366C200.746 75.0014 202.733 73.342 203.825 71.7064C205.768 69.2162 206.963 64.8498 207.407 62.9827C208.973 56.709 208.428 49.7525 204.894 44.4753Z" fill="#FFC7A1"/>
<path d="M203.219 63.1732C203.785 59.1483 208.094 57.7014 209.688 58.4149C213.281 60.0226 214.485 63.2754 213.177 66.383C211.805 69.6364 207.896 71.1285 204.716 69.602C203.908 69.2149 202.977 64.8887 203.219 63.1732Z" fill="#FFC7A1"/>
<path d="M203.142 63.6979C202.854 63.6575 202.653 63.3908 202.694 63.1028C203.068 60.4413 204.867 59.0805 205.905 58.5068C207.315 57.7278 208.92 57.4998 209.901 57.9386C210.165 58.0573 210.285 58.3691 210.166 58.6336C210.047 58.8993 209.736 59.0189 209.469 58.8999C208.894 58.6422 207.659 58.7402 206.416 59.4282C205.549 59.9067 204.049 61.0408 203.738 63.2492C203.697 63.5373 203.43 63.7384 203.142 63.6979Z" fill="#EA989D" stroke="#EA989D" stroke-width="0.399029" stroke-miterlimit="2" stroke-linejoin="round"/>
<path d="M206.582 63.0883C207.991 61.4967 210.048 60.7946 212.139 61.1258C213.338 61.3151 212.938 63.1565 211.74 62.9671C210.309 62.741 208.94 63.2666 207.987 64.3441C207.181 65.253 205.776 63.9984 206.582 63.0883Z" fill="#EA989D"/>
<path d="M191.275 43.3202C192.016 45.0862 195.717 50.3077 195.717 50.3077C195.717 50.3077 198.783 55.6007 203.911 57.9569L204.412 54.4018C204.541 53.4835 204.411 57.0842 206.98 59.8297C206.98 59.8297 210.81 48.8795 209.053 45.107C206.617 39.8746 196.41 35.5056 192.022 37.244C190.376 37.8955 190.673 41.8864 191.275 43.3202Z" fill="#12161C"/>
<path d="M175.015 46.3736C175.015 46.3736 173.186 52.7516 174.503 57.8302C174.503 57.8302 171.327 56.5073 172.249 50.7487C172.249 50.7487 173.161 42.9832 175.015 46.3736Z" fill="#12161C"/>
<path d="M183.035 42.4471C183.035 42.4471 183.41 34.8952 186.602 34.532C190.657 34.0702 191.828 45.06 196.078 52.5024C196.078 52.5024 190.172 51.5008 189.143 47.3383C189.143 47.3383 190.152 51.0939 190.422 52.3568C190.422 52.3568 185.057 51.6697 184.804 42.8672L183.035 42.4471Z" fill="#12161C"/>
<path d="M180.042 42.0273L184.342 38.6951L184.801 42.867L180.042 42.0273Z" fill="#595C60"/>
<path d="M186.511 65.2199C186.511 65.2199 184.694 60.878 188.774 62.8852" stroke="#12161C" stroke-width="1.33647" stroke-miterlimit="10" stroke-linecap="round"/>
<path d="M194.518 58.4175C194.455 60.3059 195.131 61.9537 195.905 62.9191C196.687 63.9055 197.566 64.2086 198.072 63.9135C199.089 63.2293 198.804 60.8987 198.921 58.5189L198.921 58.5137C198.92 58.21 198.732 57.9375 198.447 57.8328L197.079 57.3348L198.636 56.4189C198.853 56.2914 198.989 56.0587 198.992 55.8062C199.011 54.547 198.92 53.5316 198.327 53.0921C197.835 52.773 196.943 53.0352 196.116 53.9846C195.297 54.9133 194.544 56.5292 194.518 58.4175Z" fill="#12161C"/>
<path d="M178.842 59.4858C178.778 61.3743 179.455 63.022 180.229 63.9875C181.011 64.9739 181.89 65.277 182.395 64.9818C183.412 64.2977 183.128 61.9671 183.245 59.5873L183.245 59.582C183.244 59.2783 183.056 59.0058 182.77 58.9011L181.402 58.4031L182.96 57.4873C183.177 57.3597 183.313 57.127 183.316 56.8745C183.335 55.6154 183.243 54.5999 182.65 54.1605C182.159 53.8413 181.267 54.1036 180.44 55.053C179.62 55.9817 178.867 57.5975 178.842 59.4858Z" fill="#12161C"/>
<path d="M183.329 52.1658C183.329 52.1658 179.894 47.9062 176.94 53.3188" stroke="#12161C" stroke-width="1.33647" stroke-miterlimit="10" stroke-linecap="round"/>
<path d="M196.314 67.6888C196.63 68.1603 196.691 69.2749 196.157 70.4038C195.639 71.5076 194.422 72.9915 191.537 73.8506C188.704 74.6926 187.012 74.0648 186.03 73.4566C183.769 72.0554 184.582 69.8142 185.514 69.3147C186.506 68.7845 188.017 69.8417 190.006 69.2659C191.441 68.8506 192.832 67.1782 193.385 66.9424C194.611 66.4363 195.652 66.6931 196.314 67.6888Z" fill="#12161C"/>
<mask id="mask3_15038_54815" style="mask-type:luminance" maskUnits="userSpaceOnUse" x="184" y="66" width="13" height="9">
<path d="M193.384 66.9423C192.832 67.1781 191.441 68.8505 190.006 69.2658C189.077 69.5351 188.251 69.4473 187.535 69.3313C186.719 69.2002 186.042 69.0319 185.514 69.3146C184.582 69.8128 183.769 72.0553 186.031 73.4564C187.012 74.0648 188.705 74.6924 191.537 73.8507C194.422 72.9916 195.639 71.5076 196.157 70.4028C196.692 69.2736 196.63 68.1602 196.313 67.6877C195.74 66.8261 194.883 66.5183 193.867 66.7801C193.711 66.8204 193.549 66.8741 193.384 66.9423Z" fill="white"/>
</mask>
<g mask="url(#mask3_15038_54815)">
<path d="M196.505 74.6956C196.738 76.5559 195.123 78.2893 192.897 78.569C190.671 78.8467 188.678 77.5651 188.444 75.7049C188.212 73.8445 189.826 72.1101 192.052 71.8314C194.279 71.5526 196.271 72.8343 196.505 74.6956Z" fill="#EB5757"/>
<path d="M183.361 69.6481C183.361 69.6481 186.575 71.9224 190.652 70.6331C194.729 69.3425 197.68 65.3379 197.68 65.3379C197.68 65.3379 188.988 64.842 183.361 69.6481Z" fill="white"/>
</g>
<path d="M193.385 66.9422C192.832 67.1781 191.441 68.8504 190.006 69.2658C189.077 69.535 188.251 69.4473 187.536 69.3313C186.719 69.2001 186.042 69.0319 185.514 69.3146C184.582 69.8128 183.769 72.0552 186.031 73.4562C187.012 74.0647 188.705 74.6922 191.537 73.8505C194.422 72.9914 195.639 71.5075 196.157 70.4027C196.692 69.2734 196.63 68.1601 196.313 67.6876C195.74 66.8261 194.883 66.5183 193.867 66.78C193.711 66.8204 193.55 66.8741 193.385 66.9422Z" stroke="#12161C" stroke-width="1.00241" stroke-miterlimit="2" stroke-linejoin="round"/>
<path d="M192.297 51.4218C192.493 50.9642 192.886 50.464 193.417 50.0062C195.625 48.1046 200.209 46.9351 202.834 52.5514" stroke="#12161C" stroke-width="1.33647" stroke-miterlimit="10" stroke-linecap="round"/>
<path fill-rule="evenodd" clip-rule="evenodd" d="M166.216 80.6796L176.866 148.592C177.385 151.9 175.12 155.004 171.811 155.522L123.851 163.017C120.543 163.534 117.435 161.269 116.917 157.962L106.266 90.0489C105.748 86.7418 108.013 83.6368 111.322 83.1197L159.281 75.6242C162.59 75.1071 165.697 77.3724 166.216 80.6796Z" fill="#FFB35C"/>
<path fill-rule="evenodd" clip-rule="evenodd" d="M161.823 85.3051L171.244 145.377C171.676 148.133 169.788 150.721 167.031 151.152L127.065 157.398C124.308 157.829 121.719 155.941 121.286 153.185L111.866 93.1129C111.433 90.3566 113.321 87.7693 116.078 87.3384L156.044 81.0921C158.801 80.6612 161.391 82.5488 161.823 85.3051Z" fill="white"/>
<path fill-rule="evenodd" clip-rule="evenodd" d="M157.034 88.5801L158.834 100.049C159.047 101.405 158.118 102.679 156.761 102.891L122.074 108.312C120.717 108.524 119.443 107.595 119.23 106.239L117.431 94.7697C117.218 93.4136 118.146 92.1399 119.503 91.9278L154.191 86.5065C155.547 86.2945 156.821 87.2239 157.034 88.5801Z" fill="#E9F8EA"/>
<path fill-rule="evenodd" clip-rule="evenodd" d="M157.675 88.481L159.475 99.95C159.743 101.66 158.572 103.265 156.862 103.532L122.174 108.953C120.464 109.221 118.858 108.049 118.589 106.34L116.79 94.8708C116.522 93.1612 117.692 91.5559 119.403 91.2886L154.09 85.8674C155.801 85.6001 157.407 86.7713 157.675 88.481ZM157.034 88.5811C156.821 87.225 155.547 86.2956 154.191 86.5077L119.503 91.9289C118.146 92.1409 117.218 93.4146 117.431 94.7707L119.23 106.24C119.443 107.596 120.717 108.525 122.074 108.313L156.761 102.892C158.118 102.68 159.047 101.406 158.834 100.05L157.034 88.5811Z" fill="#21B531"/>
<path d="M126.59 104.111C123.951 104.523 121.475 102.718 121.061 100.079C120.647 97.4407 122.451 94.9672 125.09 94.5548C127.73 94.1424 130.205 95.9472 130.619 98.586C131.033 101.225 129.229 103.698 126.59 104.111Z" fill="#21B531"/>
<path d="M123.743 100.061L125.502 101.687C125.502 101.687 127.672 97.8433 127.86 97.5118" stroke="white" stroke-width="1.04947" stroke-miterlimit="1.5" stroke-linecap="round" stroke-linejoin="round"/>
<path fill-rule="evenodd" clip-rule="evenodd" d="M154.645 91.0497C154.728 91.5772 154.366 92.073 153.839 92.1555L133.899 95.2741C133.371 95.3566 132.875 94.995 132.793 94.4674C132.71 93.9395 133.071 93.4442 133.599 93.3617L153.539 90.243C154.067 90.1605 154.562 90.5218 154.645 91.0497Z" fill="#21B531"/>
<path fill-rule="evenodd" clip-rule="evenodd" d="M150.185 95.5255C150.267 96.053 149.906 96.5486 149.378 96.6312L134.476 98.9616C133.948 99.0441 133.453 98.6824 133.37 98.1549C133.287 97.627 133.649 97.1317 134.176 97.0493L149.078 94.7188C149.606 94.6363 150.102 94.9976 150.185 95.5255Z" fill="#21B531"/>
<path fill-rule="evenodd" clip-rule="evenodd" d="M150.762 99.211C150.845 99.7385 150.484 100.234 149.956 100.317L135.053 102.647C134.526 102.73 134.031 102.368 133.948 101.84C133.865 101.313 134.226 100.817 134.754 100.735L149.656 98.4044C150.184 98.3218 150.679 98.6831 150.762 99.211Z" fill="#21B531"/>
<path fill-rule="evenodd" clip-rule="evenodd" d="M160.457 110.416L162.256 121.885C162.469 123.241 161.54 124.515 160.184 124.727L125.496 130.148C124.139 130.36 122.865 129.431 122.652 128.075L120.853 116.606C120.64 115.249 121.569 113.976 122.925 113.764L157.613 108.342C158.97 108.13 160.244 109.06 160.457 110.416Z" fill="#E9F8EA"/>
<path fill-rule="evenodd" clip-rule="evenodd" d="M161.097 110.317L162.897 121.786C163.165 123.496 161.995 125.101 160.284 125.368L125.597 130.789C123.886 131.057 122.28 129.885 122.012 128.176L120.212 116.707C119.944 114.997 121.115 113.392 122.825 113.125L157.512 107.703C159.223 107.436 160.829 108.607 161.097 110.317ZM160.457 110.417C160.244 109.061 158.97 108.132 157.613 108.344L122.925 113.765C121.569 113.977 120.64 115.251 120.853 116.607L122.653 128.076C122.865 129.432 124.14 130.361 125.496 130.149L160.184 124.728C161.54 124.516 162.469 123.242 162.256 121.886L160.457 110.417Z" fill="#21B531"/>
<path d="M130.012 125.947C127.373 126.359 124.898 124.554 124.483 121.915C124.069 119.277 125.873 116.803 128.513 116.391C131.152 115.978 133.627 117.783 134.041 120.422C134.455 123.061 132.652 125.534 130.012 125.947Z" fill="#21B531"/>
<path d="M127.165 121.897L128.925 123.523L131.282 119.348" stroke="white" stroke-width="1.04947" stroke-miterlimit="1.5" stroke-linecap="round" stroke-linejoin="round"/>
<path fill-rule="evenodd" clip-rule="evenodd" d="M158.068 112.886C158.15 113.413 157.789 113.909 157.261 113.991L137.321 117.11C136.793 117.193 136.298 116.831 136.215 116.303C136.132 115.775 136.494 115.28 137.021 115.198L156.961 112.079C157.489 111.996 157.985 112.358 158.068 112.886Z" fill="#21B531"/>
<path fill-rule="evenodd" clip-rule="evenodd" d="M153.607 117.361C153.69 117.889 153.329 118.385 152.8 118.467L137.898 120.798C137.371 120.88 136.875 120.518 136.793 119.991C136.71 119.463 137.071 118.968 137.598 118.885L152.501 116.555C153.029 116.472 153.524 116.834 153.607 117.361Z" fill="#21B531"/>
<path fill-rule="evenodd" clip-rule="evenodd" d="M154.185 121.047C154.267 121.574 153.906 122.07 153.378 122.153L138.476 124.483C137.948 124.566 137.453 124.204 137.37 123.676C137.287 123.149 137.649 122.653 138.176 122.571L153.078 120.24C153.606 120.158 154.102 120.519 154.185 121.047Z" fill="#21B531"/>
<path fill-rule="evenodd" clip-rule="evenodd" d="M163.878 132.252L165.678 143.721C165.891 145.077 164.962 146.351 163.606 146.563L128.918 151.984C127.561 152.196 126.287 151.267 126.074 149.911L124.275 138.442C124.062 137.085 124.991 135.812 126.347 135.6L161.035 130.178C162.391 129.966 163.666 130.896 163.878 132.252Z" fill="#E9F8EA"/>
<path fill-rule="evenodd" clip-rule="evenodd" d="M164.519 132.153L166.319 143.622C166.587 145.332 165.416 146.937 163.706 147.204L129.019 152.625C127.308 152.893 125.702 151.721 125.434 150.012L123.634 138.543C123.366 136.833 124.536 135.228 126.247 134.96L160.934 129.539C162.645 129.272 164.251 130.443 164.519 132.153ZM163.878 132.253C163.666 130.897 162.391 129.968 161.035 130.18L126.347 135.601C124.991 135.813 124.062 137.086 124.275 138.443L126.074 149.912C126.287 151.268 127.561 152.197 128.918 151.985L163.606 146.564C164.962 146.352 165.891 145.078 165.678 143.722L163.878 132.253Z" fill="#21B531"/>
<path d="M133.434 147.782C130.795 148.195 128.319 146.39 127.905 143.751C127.491 141.113 129.295 138.639 131.934 138.227C134.574 137.814 137.049 139.619 137.463 142.258C137.877 144.897 136.073 147.37 133.434 147.782Z" fill="#21B531"/>
<path d="M130.587 143.733L132.347 145.359L134.704 141.184" stroke="white" stroke-width="1.04947" stroke-miterlimit="1.5" stroke-linecap="round" stroke-linejoin="round"/>
<path fill-rule="evenodd" clip-rule="evenodd" d="M161.489 134.722C161.572 135.249 161.211 135.745 160.683 135.827L140.743 138.946C140.215 139.028 139.719 138.667 139.637 138.139C139.554 137.611 139.915 137.116 140.443 137.034L160.383 133.915C160.911 133.832 161.407 134.194 161.489 134.722Z" fill="#21B531"/>
<path fill-rule="evenodd" clip-rule="evenodd" d="M157.029 139.197C157.112 139.725 156.75 140.221 156.222 140.303L141.32 142.634C140.793 142.716 140.297 142.354 140.214 141.827C140.132 141.299 140.493 140.804 141.02 140.721L155.922 138.391C156.451 138.308 156.946 138.669 157.029 139.197Z" fill="#21B531"/>
<path fill-rule="evenodd" clip-rule="evenodd" d="M157.606 142.883C157.689 143.41 157.328 143.906 156.8 143.989L141.898 146.319C141.37 146.402 140.875 146.04 140.792 145.512C140.709 144.984 141.07 144.489 141.598 144.407L156.5 142.076C157.028 141.994 157.524 142.355 157.606 142.883Z" fill="#21B531"/>
<path d="M154.982 74.253L115.007 80.5039L115.634 84.5007L155.608 78.2499L154.982 74.253Z" fill="#FF9246"/>
<path d="M112.969 120.201C113.248 121.402 111.966 122.727 110.106 123.159C108.244 123.592 106.509 122.968 106.228 121.769C105.95 120.566 107.232 119.242 109.093 118.808C110.953 118.377 112.689 118.999 112.969 120.201Z" fill="#FFC7A1"/>
<path d="M106.228 121.767C105.948 120.566 107.23 119.241 109.092 118.808C110.953 118.375 112.689 118.998 112.969 120.2C113.249 121.401 111.967 122.726 110.106 123.159C108.244 123.592 106.508 122.969 106.228 121.767Z" stroke="#EA989D" stroke-width="1.32979" stroke-miterlimit="10"/>
<path d="M113.844 125.803C114.123 127.004 112.841 128.329 110.98 128.76C109.119 129.193 107.384 128.569 107.103 127.37C106.824 126.168 108.106 124.844 109.967 124.41C111.828 123.978 113.564 124.6 113.844 125.803Z" fill="#FFC7A1"/>
<path d="M107.103 127.369C106.823 126.168 108.105 124.843 109.966 124.41C111.828 123.977 113.564 124.6 113.844 125.801C114.124 127.003 112.842 128.327 110.98 128.76C109.119 129.193 107.383 128.57 107.103 127.369Z" stroke="#EA989D" stroke-width="1.32979" stroke-miterlimit="10"/>
<path d="M115.622 129.922C115.901 131.123 114.619 132.448 112.758 132.879C110.897 133.312 109.162 132.689 108.881 131.489C108.602 130.287 109.884 128.963 111.746 128.529C113.606 128.097 115.342 128.72 115.622 129.922Z" fill="#FFC7A1"/>
<path d="M108.881 131.488C108.601 130.287 109.883 128.962 111.744 128.529C113.606 128.096 115.342 128.719 115.622 129.921C115.902 131.122 114.62 132.447 112.758 132.879C110.897 133.312 109.161 132.689 108.881 131.488Z" stroke="#EA989D" stroke-width="1.32979" stroke-miterlimit="10"/>
<path d="M116.623 135.659C116.902 136.86 115.62 138.185 113.759 138.618C111.898 139.049 110.163 138.426 109.882 137.226C109.603 136.024 110.885 134.7 112.746 134.266C114.607 133.834 116.343 134.457 116.623 135.659Z" fill="#FFC7A1"/>
<path d="M109.882 137.226C109.602 136.025 110.884 134.7 112.745 134.267C114.607 133.834 116.343 134.457 116.623 135.659C116.903 136.86 115.621 138.185 113.759 138.618C111.898 139.051 110.162 138.428 109.882 137.226Z" stroke="#EA989D" stroke-width="1.32979" stroke-miterlimit="10"/>
<path d="M228.727 137.033C228.727 137.033 228.734 141.541 229.493 142.175C229.607 142.266 230.944 144.79 231.068 144.891C231.161 144.963 231.254 145.035 231.353 145.107C231.526 145.244 231.715 145.385 231.915 145.536C233.803 146.949 235.439 147.762 237.753 147.302C239.888 146.88 241.744 145.515 243.145 143.853C245.963 140.507 247.456 136.462 248.292 132.236C249.343 126.918 249.916 121.516 250.438 116.123C250.9 111.364 251.603 105.706 251.989 100.941C252.248 97.7387 253.897 93.7898 250.722 91.7068C250.418 91.5109 250.082 91.3403 249.723 91.3288C249.332 91.3158 248.963 91.4823 248.619 91.6651C247.244 92.394 246.184 93.5017 245.152 94.6436C244.273 95.61 242.616 96.6744 241.973 97.7387C241.109 99.1818 241.297 101.178 241.024 102.778C240.306 106.983 239.073 110.952 237.522 114.84C236.706 116.89 235.804 118.921 234.842 120.948C233.195 124.412 231.507 127.872 230.238 131.497C229.702 133.034 229.24 134.597 228.897 136.187C228.838 136.467 228.78 136.749 228.727 137.033Z" fill="#FFC7A1"/>
<path d="M229.995 131.731C229.995 131.731 239.974 111.705 240.795 103.93" stroke="#EA989D" stroke-width="2.00143" stroke-miterlimit="1.5" stroke-linecap="round" stroke-linejoin="round"/>
<path d="M249.859 83.3305C250.303 81.3031 250.104 79.2939 249.381 77.3833C248.671 75.5075 248.698 73.3815 248.031 71.4535C247.49 69.8894 246.734 67.4398 245.124 66.6656C243.218 65.7502 243.251 68.0175 243.499 69.1878C243.95 71.3099 244.694 73.5448 244.794 75.7C244.868 77.3107 244.842 78.9254 244.715 80.5329C244.606 81.9139 244.096 83.3991 244.252 84.7747C244.353 85.6577 244.836 86.5519 245.656 86.892C246.437 87.2156 247.364 86.9701 248.045 86.4698C249.041 85.7375 249.594 84.5371 249.859 83.3305Z" fill="#FFC7A1"/>
<path d="M249.475 82.5922C250.729 82.2891 251.673 81.1598 252.94 80.9168C253.206 80.8663 253.494 80.8592 253.736 80.9815C254.778 81.5102 254.103 85.3756 254.059 86.3676C253.969 88.406 253.82 90.442 253.612 92.4726C253.306 95.4611 253.328 100.731 249.999 102.122C249.08 102.506 248.013 102.396 247.084 102.037C245.709 101.508 244.077 100.426 243.375 99.085C243.126 98.6099 243.014 98.0772 242.905 97.5524C242.414 95.1983 242.375 92.9255 241.413 90.7364C241.355 90.6062 241.298 90.472 241.291 90.3292C241.281 90.1043 241.4 89.8967 241.512 89.701C243.071 86.9736 243.223 84.0876 244.21 81.2088C244.816 79.441 247.302 78.0908 248.456 80.025C248.894 80.7582 249.163 81.5907 249.239 82.4414L249.475 82.5922Z" fill="#FFC7A1"/>
<path d="M243.153 86.8552C243.154 86.942 242.743 87.0336 242.788 87.1077C242.942 87.3587 243.33 87.1969 243.551 87.0028C245.459 85.3242 246.166 82.9843 246.812 80.6247C246.898 80.3122 246.984 79.9792 246.89 79.6683C246.816 79.4205 246.636 79.22 246.456 79.033C245.353 77.8832 244.087 76.9133 242.656 76.2441C242.314 76.0839 241.962 75.9402 241.601 75.8163C241.042 75.6238 240.205 75.4352 239.615 75.4738C238.324 75.5575 236.57 77.5486 235.344 78.9675C234.774 79.6264 233.975 80.3525 233.705 81.2056C233.569 81.6325 233.643 82.1597 233.997 82.4335C234.228 82.6119 234.535 82.656 234.826 82.6521C235.612 82.641 236.371 82.3222 237.007 81.8629C237.781 81.3058 238.28 80.3722 239.136 79.9516C239.958 79.5467 240.763 80.1733 241.42 80.6263C241.869 80.9364 242.293 81.2813 242.689 81.657C242.877 81.8361 243.702 82.5148 243.661 82.7413C243.276 84.8744 243.144 85.3921 243.153 86.8552Z" fill="#FFC7A1"/>
<path d="M242.475 87.1271C241.272 88.1325 239.24 88.5042 238.277 87.0434C237.867 86.4192 237.596 85.7413 237.346 85.0421C236.991 84.0462 236.499 83.0668 235.527 82.5199C235.072 82.2642 233.619 81.913 233.537 82.7543C233.511 83.0258 233.637 83.2854 233.757 83.53C234.599 85.2418 234.846 87.3693 234.763 89.2602C234.667 91.4699 235.497 93.1642 236.989 94.7504C237.893 95.7124 238.919 96.5466 239.897 97.4312C240.381 97.8684 240.858 98.3206 241.314 98.7847C241.698 99.1753 241.85 99.6938 242.201 100.122C242.516 100.506 242.971 100.806 243.469 100.818C243.951 100.831 244.405 100.574 244.755 100.241C245.634 99.4026 245.941 98.1423 246.162 96.9483C246.544 94.8901 246.794 92.7901 246.618 90.7044C246.519 89.5269 246.344 88.1522 245.781 87.0939C245.389 86.3584 244.649 85.0263 243.668 85.6284C243.078 85.9907 243.008 86.6828 242.475 87.1271Z" fill="#FFC7A1"/>
<path d="M248.784 88.235C248.923 88.5215 249.111 88.8 249.389 88.9547C249.848 89.2096 250.431 89.066 250.89 88.8095C253.876 87.1404 255.119 81.8569 255.359 78.7626C255.464 77.4179 255.466 75.9974 255.194 74.6731C255.067 74.0544 254.897 73.3458 254.433 72.8841C253.522 71.9766 252.874 72.6111 252.855 73.7238C252.81 76.3667 252.162 78.9646 250.994 81.3345C249.95 83.4503 247.552 85.6757 248.784 88.235Z" fill="#FFC7A1"/>
<path d="M250.876 74.5221C250.57 73.0077 250.13 71.5201 249.541 70.0909C249.171 69.1921 248.526 66.9548 247.33 66.8853C245.216 66.7638 246.433 71.0529 246.692 72.0465C247.199 73.9973 247.434 76.0168 247.387 78.0315C247.342 79.9634 246.78 81.8551 246.861 83.783C246.902 84.7845 247.159 85.898 248.006 86.4362C248.274 86.6059 248.582 86.7037 248.89 86.7795C249.228 86.8623 249.598 86.9184 249.918 86.7771C250.167 86.6674 250.352 86.452 250.509 86.2302C251.629 84.6574 251.444 82.6742 251.453 80.8394C251.464 78.7221 251.296 76.5992 250.876 74.5221Z" fill="#FFC7A1"/>
<path d="M251.302 82.9208C251.302 82.9208 251.489 81.8096 251.932 79.3817C252.222 77.794 252.4 75.5066 252.488 74.1133" stroke="#EA989D" stroke-width="1.3318" stroke-miterlimit="1.5" stroke-linecap="round" stroke-linejoin="round"/>
<path d="M247.375 81.2146C247.556 80.124 247.67 79.0192 247.712 77.9333C247.798 75.7575 247.664 74.0285 247.289 72.4912C247.225 72.2268 247.156 71.9632 247.088 71.7004C246.953 71.1812 246.814 70.6453 246.71 70.1142C246.588 69.4821 246.468 68.6566 246.636 67.8809" stroke="#EA989D" stroke-width="1.33182" stroke-miterlimit="2" stroke-linecap="round" stroke-linejoin="round"/>
<path d="M245.027 80.4125V77.9043" stroke="#EA989D" stroke-width="1.3318" stroke-miterlimit="1.5" stroke-linecap="round" stroke-linejoin="round"/>
<path d="M235.672 82.0799C235.55 82.0089 235.413 81.9931 235.286 82.0317C235.083 82.0949 234.925 82.1091 234.717 82.0862C234.55 82.0657 234.355 81.997 234.209 81.9079C233.966 81.7611 233.66 81.8281 233.505 82.0578C233.429 82.173 233.401 82.319 233.432 82.4579C233.463 82.5944 233.543 82.7089 233.658 82.7783C233.991 82.9827 234.373 83.0987 234.756 83.1208C235.027 83.1358 235.297 83.105 235.553 83.0253C235.825 82.9409 235.98 82.6868 235.923 82.4216C235.894 82.2827 235.8 82.1541 235.672 82.0799Z" fill="#EA989D"/>
<path d="M90.1578 93.2434L78.3701 90.6793L83.0655 79.9627L93.3693 85.5924L90.1578 93.2434Z" fill="#21B531"/>
<path d="M99.6349 76.4625L82.926 56.9471L100.889 46.8124L110.533 69.3067L99.6349 76.4625Z" fill="#21B531"/>
<path d="M120.518 67.9012L125.1 56.7031L134.281 59.8259L127.69 71.6731L120.518 67.9012Z" fill="#21B531"/>
</g>
</g>
<defs>
<clipPath id="clip0_15038_54815">
<rect width="310" height="198" fill="white" transform="translate(21)"/>
</clipPath>
</defs>
</svg>
