<svg width="352" height="198" viewBox="0 0 352 198" fill="none" xmlns="http://www.w3.org/2000/svg">
<g clip-path="url(#clip0_16663_177626)">
<mask id="mask0_16663_177626" style="mask-type:luminance" maskUnits="userSpaceOnUse" x="21" y="0" width="309" height="198">
<path d="M330 0H21V198H330V0Z" fill="white"/>
</mask>
<g mask="url(#mask0_16663_177626)">
<path d="M38.4005 24.3337C43.4038 17.2579 47.6897 12.1661 69.9799 8.70411C105.29 3.21757 257.304 3.46052 285.621 10.3541C301.98 14.3425 317.612 14.9296 319.276 43.8706C320.587 66.5861 323.017 128.274 317.2 142.345C311.384 156.416 306.811 170.476 279.804 171.721C252.798 172.966 101.148 175.861 76.2173 174.616C51.2867 173.371 38.4101 162.621 33.4259 150.2C28.4416 137.79 30.5176 71.1717 30.5176 71.1717C30.5176 71.1717 30.5654 35.4282 38.4101 24.3236L38.4005 24.3337Z" fill="#EBEBF2"/>
<mask id="mask1_16663_177626" style="mask-type:luminance" maskUnits="userSpaceOnUse" x="30" y="5" width="291" height="171">
<path d="M38.3116 24.4743C43.315 17.3985 47.6008 12.3067 69.891 8.84473C105.201 3.35819 257.215 3.60114 285.532 10.4948C301.891 14.4831 317.523 15.0702 319.187 44.0112C320.498 66.7267 322.928 128.415 317.111 142.486C311.295 156.556 306.722 170.617 279.715 171.862C252.709 173.107 101.059 176.002 76.1284 174.757C51.1978 173.512 38.3212 162.761 33.337 150.341C28.3528 137.93 30.4287 71.3124 30.4287 71.3124C30.4287 71.3124 30.4766 35.5689 38.3212 24.4642L38.3116 24.4743Z" fill="white"/>
</mask>
<g mask="url(#mask1_16663_177626)">
<path d="M29.9996 -6.55273H248.118V127.067H29.9996V-6.55273Z" stroke="white" stroke-width="1.33277" stroke-miterlimit="10" stroke-linecap="round" stroke-linejoin="round"/>
<path d="M30 19.9883H248.119" stroke="white" stroke-width="1.33277" stroke-miterlimit="10" stroke-linecap="round" stroke-linejoin="round"/>
<path d="M30 42.4199H248.119" stroke="white" stroke-width="1.33277" stroke-miterlimit="10" stroke-linecap="round" stroke-linejoin="round"/>
<path d="M30 64.8516H248.119" stroke="white" stroke-width="1.33277" stroke-miterlimit="10" stroke-linecap="round" stroke-linejoin="round"/>
<path d="M30 87.2852H248.119" stroke="white" stroke-width="1.33277" stroke-miterlimit="10" stroke-linecap="round" stroke-linejoin="round"/>
<path d="M30 109.717H248.119" stroke="white" stroke-width="1.33277" stroke-miterlimit="10" stroke-linecap="round" stroke-linejoin="round"/>
<path d="M72.498 20.3359V109.816" stroke="white" stroke-width="1.33277" stroke-miterlimit="10" stroke-linecap="round" stroke-linejoin="round"/>
<path d="M102.171 20.3359V109.816" stroke="white" stroke-width="1.33277" stroke-miterlimit="10" stroke-linecap="round" stroke-linejoin="round"/>
<path d="M131.845 20.3359V109.816" stroke="white" stroke-width="1.33277" stroke-miterlimit="10" stroke-linecap="round" stroke-linejoin="round"/>
<path d="M161.518 20.3359V109.816" stroke="white" stroke-width="1.33277" stroke-miterlimit="10" stroke-linecap="round" stroke-linejoin="round"/>
<path d="M191.191 20.3359V109.816" stroke="white" stroke-width="1.33277" stroke-miterlimit="10" stroke-linecap="round" stroke-linejoin="round"/>
<path fill-rule="evenodd" clip-rule="evenodd" d="M78.0962 126.926C78.0962 128.194 79.1237 129.224 80.3892 129.224H197.727C198.993 129.224 200.021 128.194 200.021 126.926C200.021 125.657 198.993 124.627 197.727 124.627H80.3892C79.1237 124.627 78.0962 125.657 78.0962 126.926Z" fill="white"/>
<path d="M38.2049 94.9371C38.2049 93.5432 39.3323 92.4132 40.723 92.4132C42.1138 92.4132 43.2412 93.5432 43.2412 94.9371C43.2412 96.331 42.1138 97.4609 40.723 97.4609C39.3323 97.4609 38.2049 96.331 38.2049 94.9371Z" stroke="white" stroke-width="0.53394" stroke-miterlimit="10"/>
<path d="M46.7256 93.7773H54.1541" stroke="white" stroke-width="0.53394" stroke-miterlimit="10" stroke-linecap="round" stroke-linejoin="round"/>
<path d="M46.7256 96.873H58.785" stroke="white" stroke-width="0.53163" stroke-miterlimit="10" stroke-linecap="round" stroke-linejoin="round"/>
<path d="M38.2049 103.531C38.2049 102.137 39.3323 101.007 40.723 101.007C42.1138 101.007 43.2412 102.137 43.2412 103.531C43.2412 104.925 42.1138 106.055 40.723 106.055C39.3323 106.055 38.2049 104.925 38.2049 103.531Z" stroke="white" stroke-width="0.53394" stroke-miterlimit="10"/>
<path d="M45.1816 102.373H52.6102" stroke="white" stroke-width="0.53394" stroke-miterlimit="10" stroke-linecap="round" stroke-linejoin="round"/>
<path d="M45.1816 105.467H58.7846" stroke="white" stroke-width="0.534497" stroke-miterlimit="10" stroke-linecap="round" stroke-linejoin="round"/>
<path d="M205.111 48.5293H241.734" stroke="white" stroke-width="1.16614" stroke-miterlimit="10" stroke-linecap="round"/>
<path d="M205.111 53.334H241.734" stroke="white" stroke-width="1.16614" stroke-miterlimit="10" stroke-linecap="round"/>
<path d="M205.111 58.1387H241.734" stroke="white" stroke-width="1.16614" stroke-miterlimit="10" stroke-linecap="round"/>
<path d="M200.635 48.5293H196.221" stroke="white" stroke-width="1.16614" stroke-miterlimit="10" stroke-linecap="round"/>
<path d="M200.635 53.334H196.221" stroke="white" stroke-width="1.16614" stroke-miterlimit="10" stroke-linecap="round"/>
<path d="M200.635 58.1387H196.221" stroke="white" stroke-width="1.16614" stroke-miterlimit="10" stroke-linecap="round"/>
<path d="M42.907 148.162L56.4201 148.183L56.8207 148.184L54.9533 148.181L42.907 148.162ZM59.6151 194.171C59.6371 194.75 59.6648 195.307 59.6977 195.849L59.6875 195.85C59.6524 195.31 59.6239 194.75 59.6008 194.171L59.6151 194.171ZM59.8223 197.568C59.7992 197.325 59.7787 197.074 59.7593 196.824L59.7643 196.824C59.7829 197.074 59.8012 197.326 59.8223 197.568ZM74.1488 227.499C74.7124 227.501 75.1724 227.035 75.1677 226.47C75.0505 209.942 71.7418 206.815 71.1551 194.786L71.1563 194.421L71.1399 194.422C71.1057 193.632 71.0811 192.808 71.0711 191.937C71.0649 191.378 70.618 190.921 70.0594 190.921C67.8852 190.918 62.7651 190.91 60.5757 190.906C60.012 190.905 59.5533 191.366 59.56 191.932C59.5655 192.318 59.5727 192.695 59.5813 193.067L59.5649 193.068C59.5553 192.696 59.5471 192.319 59.5426 191.932C59.5349 191.367 59.9957 190.905 60.5603 190.907L66.7059 190.916C67.2675 190.916 67.7227 190.462 67.7229 189.899L67.7269 186.038L68.0901 186.047L68.0919 184.903L67.7274 184.911L67.7416 169.63C67.7418 169.067 68.197 168.611 68.7586 168.613L70.4313 168.615C70.9929 168.616 71.4492 168.161 71.4494 167.598L71.4562 159.43C71.4574 158.867 71.0023 158.411 70.4407 158.41L67.3012 158.404C66.7406 158.404 66.2855 157.947 66.2857 157.385L66.2927 149.493C66.2938 148.778 66.8733 148.199 67.5868 148.2C68.3013 148.201 68.8808 147.622 68.8809 146.906L68.8879 139.015C68.8891 138.453 68.4341 137.996 67.8724 137.995L60.1348 137.983L28.9507 137.935C28.389 137.934 27.9338 138.39 27.9326 138.952L27.9255 146.817C27.9253 147.379 27.47 147.835 26.9084 147.834L25.3253 147.833L25.3378 148.403L25.3304 157.322C25.3302 157.885 25.7842 158.341 26.3459 158.341L33.9572 158.353L27.9157 158.344L27.9156 158.358L27.9014 158.358L27.9149 158.928L27.9111 163.179L27.911 164.02L27.907 167.531C27.9068 168.094 28.3619 168.55 28.9236 168.551L29.9082 168.553C30.4698 168.554 30.9239 169.01 30.9237 169.573L30.906 189.842C30.9048 190.405 31.3599 190.861 31.9215 190.863L47.9993 190.887L28.3589 190.857C27.7943 190.855 27.3331 191.323 27.3399 191.888C27.3787 195.609 27.6476 198.565 28.0304 201.176L28.0296 201.746L28.1144 201.744C29.2768 209.228 31.3399 214.004 31.4369 226.415C31.441 226.975 31.8918 227.434 32.4503 227.435L62.6192 227.482C63.1829 227.483 63.6419 227.017 63.6381 226.453C63.6241 224.462 63.5634 222.665 63.4668 221.024C63.5722 222.67 63.6401 224.466 63.6556 226.465C63.6607 227.025 64.1115 227.484 64.67 227.485L74.1488 227.499Z" fill="white"/>
<path d="M34.0586 147.713L60.5574 147.617" stroke="#EBEBF2" stroke-width="1.06506" stroke-miterlimit="10" stroke-linecap="round"/>
<path d="M17.4707 151.6L43.9695 151.504" stroke="#EBEBF2" stroke-width="1.06506" stroke-miterlimit="10" stroke-linecap="round"/>
<path d="M30.8379 157.691L64.3381 158.62" stroke="#EBEBF2" stroke-width="1.06506" stroke-miterlimit="10" stroke-linecap="round"/>
<path d="M30.5459 161.689L47.3093 161.965" stroke="#EBEBF2" stroke-width="1.06506" stroke-miterlimit="10" stroke-linecap="round"/>
<path d="M54.9941 160.996L73.3117 161.32" stroke="#EBEBF2" stroke-width="1.06506" stroke-miterlimit="10" stroke-linecap="round"/>
<path d="M32.4971 169.053L66.5614 170.018" stroke="#EBEBF2" stroke-width="1.06506" stroke-miterlimit="10" stroke-linecap="round"/>
<path d="M42.46 165.184L65.8451 165.88" stroke="#EBEBF2" stroke-width="1.06506" stroke-miterlimit="10" stroke-linecap="round"/>
<path d="M47.9033 153.836L69.65 154.412" stroke="#EBEBF2" stroke-width="1.06506" stroke-miterlimit="10" stroke-linecap="round"/>
<path d="M38.0303 174.095L68.1413 175.044" stroke="#EBEBF2" stroke-width="1.06506" stroke-miterlimit="10" stroke-linecap="round"/>
<path d="M258.462 45.5885C258.462 59.1114 269.397 70.0735 282.887 70.0735C296.377 70.0735 307.315 59.1114 307.315 45.5885C307.315 32.0655 296.377 21.1035 282.887 21.1035C269.397 21.1035 258.462 32.0655 258.462 45.5885Z" fill="white"/>
<path d="M282.888 65.493C293.838 65.493 302.746 56.5632 302.746 45.5873C302.746 34.6114 293.838 25.6816 282.888 25.6816C271.939 25.6816 263.031 34.6114 263.031 45.5873C263.031 56.5632 271.939 65.493 282.888 65.493Z" fill="#EBEBF2"/>
<path d="M282.664 49.2544C282.811 49.2961 282.975 49.2673 283.102 49.1684L296.004 39.1322C296.22 38.9638 296.259 38.6516 296.091 38.4336C295.923 38.2169 295.61 38.177 295.394 38.3454L282.805 48.1383L273.668 40.654C273.456 40.4798 273.142 40.5112 272.968 40.7249C272.794 40.9373 272.826 41.2503 273.038 41.4245L282.483 49.1597C282.538 49.2055 282.599 49.2367 282.664 49.2544Z" fill="white" stroke="white" stroke-width="1.33261" stroke-miterlimit="2" stroke-linejoin="round"/>
<path fill-rule="evenodd" clip-rule="evenodd" d="M300.186 143.428C300.896 143.428 301.57 143.74 302.029 144.282C302.49 144.822 302.69 145.539 302.578 146.242C300.789 157.429 294.276 198.144 294.276 198.144H278.794C278.794 198.144 271.597 157.526 269.605 146.282C269.479 145.574 269.674 144.848 270.133 144.296C270.594 143.746 271.274 143.428 271.991 143.428H300.186Z" fill="white"/>
<mask id="mask2_16663_177626" style="mask-type:luminance" maskUnits="userSpaceOnUse" x="269" y="143" width="34" height="56">
<path d="M300.186 143.428C300.896 143.428 301.57 143.74 302.029 144.282C302.49 144.822 302.69 145.539 302.578 146.242C300.789 157.429 294.276 198.144 294.276 198.144H278.794C278.794 198.144 271.597 157.526 269.605 146.282C269.479 145.574 269.674 144.848 270.133 144.296C270.594 143.746 271.274 143.428 271.991 143.428H300.186Z" fill="white"/>
</mask>
<g mask="url(#mask2_16663_177626)">
<path fill-rule="evenodd" clip-rule="evenodd" d="M300.186 143.428C300.896 143.428 301.57 143.74 302.029 144.282C302.49 144.822 302.69 145.539 302.578 146.242C300.789 157.429 294.276 198.144 294.276 198.144H278.794C278.794 198.144 271.597 157.526 269.605 146.282C269.479 145.574 269.674 144.848 270.133 144.296C270.594 143.746 271.274 143.428 271.991 143.428H300.186Z" fill="white"/>
<path d="M304.241 158.004H267.888V160.433H304.241V158.004Z" fill="#EBEBF2"/>
<path d="M304.241 153.146H267.888V155.576H304.241V153.146Z" fill="#EBEBF2"/>
<path d="M304.241 148.287H267.888V150.717H304.241V148.287Z" fill="#EBEBF2"/>
</g>
<path d="M275.967 136.013C275.967 136.013 260.11 132.871 255.685 121.78C251.26 110.69 267.439 102.372 275.967 108.328C285.09 114.699 275.967 136.013 275.967 136.013Z" fill="white"/>
<path d="M275.584 135.746C275.584 135.746 284.67 153.543 288.913 163.552" stroke="white" stroke-width="1.07" stroke-miterlimit="1.5" stroke-linecap="round" stroke-linejoin="round"/>
<path d="M262.255 107.939C262.255 107.939 271.341 125.736 275.584 135.746" stroke="#EBEBF2" stroke-width="1.07" stroke-miterlimit="1.5" stroke-linecap="round" stroke-linejoin="round"/>
<path d="M255.259 114.512C255.259 114.512 266.04 120.831 275.973 136.009" stroke="#EBEBF2" stroke-width="1.07" stroke-miterlimit="1.5" stroke-linecap="round" stroke-linejoin="round"/>
<path d="M254.308 122.043C258.934 123.966 267.14 128.112 275.973 136.005" stroke="#EBEBF2" stroke-width="1.07" stroke-miterlimit="1.5" stroke-linecap="round" stroke-linejoin="round"/>
<path d="M271.48 106.379C271.48 106.379 270.031 118.814 276.151 135.904" stroke="#EBEBF2" stroke-width="1.07" stroke-miterlimit="1.5" stroke-linecap="round" stroke-linejoin="round"/>
<path d="M278.057 110.146C276.805 115.009 275.17 124.077 276.143 135.904" stroke="#EBEBF2" stroke-width="1.07" stroke-miterlimit="1.5" stroke-linecap="round" stroke-linejoin="round"/>
<path d="M295.839 137.128C295.839 137.128 311.697 133.986 316.122 122.895C320.547 111.806 304.368 103.487 295.839 109.444C286.716 115.815 295.839 137.128 295.839 137.128Z" fill="white"/>
<path d="M296.223 136.862C296.223 136.862 287.137 154.659 282.893 164.668" stroke="white" stroke-width="1.07" stroke-miterlimit="1.5" stroke-linecap="round" stroke-linejoin="round"/>
<path d="M309.552 109.055C309.552 109.055 300.466 126.852 296.222 136.861" stroke="#EBEBF2" stroke-width="1.07" stroke-miterlimit="1.5" stroke-linecap="round" stroke-linejoin="round"/>
<path d="M316.548 115.627C316.548 115.627 305.766 121.946 295.833 137.125" stroke="#EBEBF2" stroke-width="1.07" stroke-miterlimit="1.5" stroke-linecap="round" stroke-linejoin="round"/>
<path d="M317.499 123.158C312.873 125.081 304.667 129.227 295.833 137.12" stroke="#EBEBF2" stroke-width="1.07" stroke-miterlimit="1.5" stroke-linecap="round" stroke-linejoin="round"/>
<path d="M300.326 107.494C300.326 107.494 301.776 119.929 295.656 137.02" stroke="#EBEBF2" stroke-width="1.07" stroke-miterlimit="1.5" stroke-linecap="round" stroke-linejoin="round"/>
<path d="M293.75 111.262C295.001 116.125 296.636 125.193 295.664 137.019" stroke="#EBEBF2" stroke-width="1.07" stroke-miterlimit="1.5" stroke-linecap="round" stroke-linejoin="round"/>
<path d="M286.582 113.48C286.582 113.48 273.573 103.839 274.292 91.9192C275.01 80.0005 293.189 79.424 298.369 88.4643C303.91 98.1346 286.582 113.48 286.582 113.48Z" fill="white"/>
<path d="M286.325 113.078C286.325 113.078 286.968 133.061 286.545 143.927" stroke="white" stroke-width="1.07" stroke-miterlimit="1.5" stroke-linecap="round" stroke-linejoin="round"/>
<path d="M286.127 82.2288C286.127 82.2288 286.77 102.211 286.347 113.078" stroke="#EBEBF2" stroke-width="1.07" stroke-miterlimit="1.5" stroke-linecap="round" stroke-linejoin="round"/>
<path d="M277.001 85.1702C277.001 85.1702 284.063 95.5061 286.586 113.485" stroke="#EBEBF2" stroke-width="1.07" stroke-miterlimit="1.5" stroke-linecap="round" stroke-linejoin="round"/>
<path d="M272.935 91.5684C276.3 95.2918 281.956 102.561 286.585 113.486" stroke="#EBEBF2" stroke-width="1.07" stroke-miterlimit="1.5" stroke-linecap="round" stroke-linejoin="round"/>
<path d="M295.144 84.7712C295.144 84.7712 288.533 95.3913 286.783 113.463" stroke="#EBEBF2" stroke-width="1.07" stroke-miterlimit="1.5" stroke-linecap="round" stroke-linejoin="round"/>
<path d="M299.474 90.9922C296.274 94.8527 290.938 102.352 286.785 113.464" stroke="#EBEBF2" stroke-width="1.07" stroke-miterlimit="1.5" stroke-linecap="round" stroke-linejoin="round"/>
<path d="M202.459 118.76C200.196 117.533 184.58 109.832 184.58 109.832H173.808C173.808 109.832 160.825 115.849 158.563 117.076C156.3 118.303 160.543 178.313 160.543 178.313L174.907 176.881L180.816 175.681L197.938 171.167C197.938 171.167 202.963 122.188 200.701 120.96" fill="#FFC7A1"/>
<path d="M182.403 115.663L177.299 116.963C175.357 117.456 173.383 116.279 172.89 114.333L169.923 102.616C169.43 100.67 170.604 98.6915 172.546 98.1969L177.65 96.8975C179.592 96.4042 181.566 97.5812 182.058 99.5278L185.027 111.244C185.519 113.191 184.345 115.169 182.403 115.663Z" fill="#FFC7A1"/>
<path d="M182.058 99.5278C181.565 97.5812 179.592 96.4042 177.65 96.8975L172.546 98.1969C170.604 98.6915 169.429 100.67 169.922 102.616L171.752 109.839C176.319 110.133 180.74 108.226 183.681 105.935L182.058 99.5278Z" fill="#EA989D"/>
<path d="M158.924 141.985C156.08 133.731 150.363 139.166 149.893 139.693C147.387 142.495 144.564 153.05 142.101 166.818C142.101 166.818 140.414 174.736 153.074 168.859C153.074 168.859 160.135 145.503 158.924 141.985Z" fill="#FFC7A1"/>
<path d="M160.541 117.604C160.541 117.604 154.695 118.493 153.019 119.837C147.096 124.587 140.715 151.531 140.715 151.531C140.715 151.531 149.231 157.481 157.638 156.111L164.263 135.747C164.263 135.747 166.509 120.45 160.541 117.604Z" fill="#0049CD"/>
<path d="M171.828 110.035C171.828 110.035 175.84 115.111 176.494 120.987L175.083 156.189L172.77 196.315C172.77 196.315 152.644 195.339 153.376 188.579C154.717 176.187 156.647 169.63 155.904 158.777C154.255 134.658 154.81 118.894 154.81 118.894C154.81 118.894 157.129 115.824 170.082 111.222" fill="#0049CD"/>
<path d="M154.81 177.634C155.153 170.237 156.519 163.9 156.24 158.807C155.858 151.834 155.743 140.647 156.999 132.764" stroke="#00338F" stroke-width="1.9957" stroke-miterlimit="2" stroke-linecap="round" stroke-linejoin="bevel"/>
<path d="M185.637 108.869C185.637 108.869 176.352 120.719 176.495 120.647L172.363 172.545C172.363 172.545 172.197 196.221 172.769 196.316C190.116 199.166 214.375 188.289 214.375 188.289C214.375 188.289 203.279 170.115 202.905 162.392C201.737 138.298 204.562 114.787 204.562 114.787C204.562 114.787 198.495 110.206 189.773 109.468" fill="#0049CD"/>
<path d="M176.494 121.359C176.494 121.359 173.849 137.641 173.65 145.282C173.396 154.99 172.348 193.191 172.348 193.191" stroke="#00338F" stroke-width="1.99913" stroke-miterlimit="1.5" stroke-linecap="round" stroke-linejoin="round"/>
<path d="M170.92 110.035C170.92 110.035 166.47 113.793 167.522 124.61C167.522 124.61 171.2 118.699 172.696 118.24C174.191 117.782 175.551 119.744 176.495 121.859" stroke="#00338F" stroke-width="1.99913" stroke-miterlimit="1.5" stroke-linecap="round" stroke-linejoin="round"/>
<path d="M222.384 163.153C221.523 154.247 211.875 133.631 211.875 133.631C211.875 133.631 198.508 126.294 201.265 141.952L207.98 162.408C207.98 162.408 219.32 175.501 222.384 163.153Z" fill="#FFC7A1"/>
<path d="M203.069 113.101C207 114.84 208.769 116.451 209.777 118C210.785 119.549 221.09 140.129 221.95 142.187C222.809 144.244 212.882 154.59 202.56 150.471L195.121 130.465C195.121 130.465 192.993 108.645 203.069 113.101Z" fill="#0049CD"/>
<path d="M220.695 144.968C217.759 148.55 210.269 153.545 202.558 150.469L195.592 134.779" stroke="#00338F" stroke-width="2.0023" stroke-miterlimit="2" stroke-linecap="round" stroke-linejoin="round"/>
<path d="M185.974 108.869C185.974 108.869 189.712 113.794 187.163 124.611C187.163 124.611 182.592 119.807 180.654 118.973C178.829 118.189 177.499 120.061 176.494 121.943" stroke="#00338F" stroke-width="1.99913" stroke-miterlimit="1.5" stroke-linecap="round" stroke-linejoin="round"/>
<path fill-rule="evenodd" clip-rule="evenodd" d="M178.526 124.612L179.025 156.873L173.474 163.126L169.345 156.873L173.622 124.111L178.526 124.612Z" fill="#21B531"/>
<path d="M178.526 124.611L179.025 156.873L173.537 163.126" stroke="white" stroke-width="1.33413" stroke-miterlimit="1.5" stroke-linecap="round" stroke-linejoin="round"/>
<path fill-rule="evenodd" clip-rule="evenodd" d="M178.527 124.611C177.777 125.512 174.258 125.155 173.622 124.361C172.793 123.325 172.722 118.672 172.789 119.109C172.789 119.109 176.255 117.773 180.522 119.859C180.522 119.859 180.004 122.834 178.527 124.611Z" fill="#21B531"/>
<path d="M180.273 120.609C180.273 120.609 180.004 122.835 178.527 124.611C178.18 125.029 177.238 125.176 176.264 125.135" stroke="white" stroke-width="1.33413" stroke-miterlimit="1.5" stroke-linecap="round" stroke-linejoin="round"/>
<path d="M235.814 124.498C233.976 131.861 232.384 139.295 230.296 146.59C226.017 161.541 222.787 163.934 221.546 166.389C220.297 168.86 214.22 168.589 212.757 166.108C207.945 157.955 219.672 137.845 227.762 123.47C231.688 120.318 236.042 123.588 235.814 124.498Z" fill="#FFC7A1"/>
<path d="M225.181 126.609C225.301 126.428 225.486 126.305 225.7 126.262C225.914 126.221 226.132 126.265 226.312 126.388C226.494 126.508 226.617 126.694 226.658 126.908C226.701 127.123 226.656 127.34 226.535 127.521C224.106 131.144 216.327 145.335 214.094 156.595C214.008 157.025 213.59 157.313 213.158 157.239L213.148 157.237L213.094 157.224C212.897 157.175 212.729 157.056 212.616 156.887C212.495 156.705 212.451 156.486 212.493 156.274C213.544 150.974 215.732 145.15 218.048 140.013C220.82 133.866 223.775 128.703 225.181 126.609Z" fill="#EA989D"/>
<path d="M202.363 128.746C202.291 129.553 202.624 130.342 203.252 130.85C203.88 131.359 204.72 131.521 205.492 131.282C212.031 129.256 225.986 124.932 230.65 123.487C231.59 123.196 232.261 122.364 232.349 121.382C232.946 114.731 235.212 89.4644 236.061 80.0027C236.133 79.1964 235.8 78.4074 235.172 77.8984C234.544 77.3895 233.704 77.2276 232.932 77.4668C226.393 79.493 212.438 83.817 207.774 85.262C206.834 85.5533 206.163 86.3849 206.075 87.3665C205.478 94.0184 203.212 119.285 202.363 128.746Z" fill="#FFB35C"/>
<path d="M205.794 124.447C205.722 125.253 206.055 126.042 206.683 126.551C207.311 127.06 208.151 127.222 208.923 126.983C214.325 125.309 224.561 122.138 228.452 120.932C229.392 120.641 230.063 119.809 230.151 118.827C230.66 113.158 232.364 94.1531 233.082 86.1453C233.155 85.3391 232.821 84.55 232.194 84.041C231.565 83.532 230.725 83.37 229.954 83.6091C224.552 85.283 214.316 88.4544 210.425 89.6597C209.485 89.951 208.813 90.7828 208.725 91.7648C208.216 97.4337 206.512 116.439 205.794 124.447Z" stroke="#FF8E43" stroke-width="1.33232" stroke-miterlimit="10" stroke-linecap="round" stroke-linejoin="round"/>
<path d="M212.726 78.4954L241.632 69.7957C239.633 71.2071 239.204 75.5817 239.204 75.5817L208.63 84.988C208.73 79.3761 212.726 78.4954 212.726 78.4954Z" fill="white"/>
<path d="M231.215 76.3578L230.96 79.2241L211.591 85.2115L211.846 82.3451L231.215 76.3578Z" fill="#FF8E43"/>
<path d="M235.449 125.916C233.076 128.127 229.079 126.635 227.624 124.485C225.927 121.98 226.86 118.929 228.172 116.233C227.74 115.993 227.31 115.751 226.88 115.515C225.763 114.905 224.64 114.296 223.523 113.687C222.645 113.206 221.693 112.432 222.114 111.246C222.496 110.174 223.638 109.696 224.656 109.675C225.782 109.655 226.935 109.948 227.982 110.25C228.091 110.282 230.534 111.498 230.641 111.532C230.606 111.4 229.269 107.433 227.731 105.33C227.014 104.349 226.586 103.086 227.381 101.948C228.114 100.894 229.357 100.417 230.449 100.905C230.319 100.388 230.214 99.8519 230.325 99.3081C230.477 98.5598 230.999 97.978 231.723 97.7206C232.572 97.417 233.316 97.6017 233.938 98.0153C233.944 97.8872 233.955 97.7576 233.976 97.6248C234.109 96.8143 234.541 96.0279 235.304 95.6163C235.93 95.2806 236.654 95.279 237.266 95.5174C238.614 96.0474 239.565 97.2495 240.176 98.5016C242.749 103.777 243.383 110.859 240.402 117.087C239.391 119.197 238.222 121.238 237.168 123.33C236.66 124.337 236.159 125.254 235.449 125.916Z" fill="#FFC7A1"/>
<path d="M234.549 114.031C232.83 112.755 230.986 111.641 229.036 110.714C228.116 110.276 227.175 109.841 226.196 109.526C225.316 109.243 224.326 109.108 223.39 109.467C222.44 109.833 221.613 110.684 221.538 111.713C221.492 112.367 222.503 112.387 222.55 111.731C222.599 111.055 223.209 110.531 223.843 110.352C224.639 110.127 225.445 110.357 226.16 110.615C227.946 111.263 229.651 112.132 231.262 113.101C232.191 113.658 233.089 114.262 233.956 114.906C234.459 115.279 235.051 114.404 234.549 114.031Z" fill="#EA989D" stroke="#EA989D" stroke-width="0.59871" stroke-miterlimit="2" stroke-linejoin="round"/>
<path d="M236.765 113.788C236.771 111.349 236.291 108.977 235.355 106.805C234.887 105.718 234.305 104.691 233.632 103.731C232.957 102.768 232.186 101.829 231.275 101.084C230.283 100.274 228.836 99.9312 227.646 100.842C227.105 101.257 227.748 101.987 228.286 101.576C229.142 100.918 230.215 101.529 230.823 102.084C231.596 102.789 232.271 103.619 232.869 104.479C234.049 106.173 234.903 108.127 235.359 110.185C235.617 111.35 235.755 112.553 235.753 113.768C235.751 114.042 235.912 114.281 236.206 114.287C236.456 114.292 236.764 114.063 236.765 113.788Z" fill="#EA989D" stroke="#EA989D" stroke-width="0.59871" stroke-miterlimit="2" stroke-linejoin="round"/>
<path d="M240.909 112.471C241.083 109.254 240.309 106.128 238.852 103.405C238.08 101.961 237.13 100.619 236.05 99.4002C235.044 98.2626 233.764 97.0487 232.033 97.301C231.224 97.4194 230.416 97.9165 230.018 98.6691C229.622 99.4172 229.673 100.34 230.22 100.918C230.65 101.371 231.444 100.667 231.012 100.211C230.671 99.8533 230.708 99.2699 231.053 98.8608C231.441 98.4013 232.07 98.2385 232.615 98.2946C234.002 98.4359 234.973 99.7345 235.774 100.709C237.511 102.819 238.861 105.296 239.498 108.026C239.833 109.46 239.979 110.946 239.897 112.452C239.861 113.106 240.873 113.127 240.909 112.471Z" fill="#EA989D" stroke="#EA989D" stroke-width="0.59871" stroke-miterlimit="2" stroke-linejoin="round"/>
<path d="M231.302 111.706C231.106 109.759 230.466 107.908 229.435 106.312C228.645 105.088 226.846 103.276 228.107 101.617C228.519 101.075 227.691 100.556 227.28 101.098C226.702 101.857 226.577 102.837 226.761 103.696C226.984 104.728 227.616 105.554 228.206 106.378C229.37 108.004 230.089 109.894 230.295 111.946C230.36 112.591 231.367 112.347 231.302 111.706Z" fill="#EA989D" stroke="#EA989D" stroke-width="0.59871" stroke-miterlimit="2" stroke-linejoin="round"/>
<path d="M241.927 114.792C243.159 111.448 243.017 107.915 242.426 104.61C242.106 102.817 241.702 101.01 240.986 99.3602C240.29 97.7569 239.187 95.9685 237.461 95.3553C236.653 95.0687 235.629 95.1001 234.842 95.6121C234.034 96.1364 233.524 97.0496 233.642 97.9705C233.725 98.6125 234.732 98.3692 234.65 97.7297C234.574 97.1392 235.019 96.5578 235.575 96.3296C236.207 96.0689 236.915 96.1972 237.457 96.4987C238.837 97.2629 239.678 98.8664 240.238 100.299C240.817 101.778 241.158 103.366 241.436 104.949C241.695 106.421 241.872 107.923 241.854 109.444C241.836 111.15 241.584 112.864 240.975 114.516C240.743 115.145 241.694 115.424 241.927 114.792Z" fill="#EA989D" stroke="#EA989D" stroke-width="0.59871" stroke-miterlimit="2" stroke-linejoin="round"/>
<path d="M216.041 80.199C215.288 79.1353 214.022 78.381 212.726 78.4869L241.63 69.7913C242.02 69.5844 242.443 69.4492 242.889 69.4128C244.185 69.3065 245.451 70.0612 246.204 71.1249C246.956 72.1882 247.253 73.5163 247.314 74.8186L246.916 78.8648L245.295 100.656L215.14 109.993C215.14 109.993 217.273 86.5159 217.151 83.8927C217.091 82.5904 216.793 81.2623 216.041 80.199Z" fill="#B2C8F0"/>
<path d="M238.402 97.6992L223.487 102.318" stroke="white" stroke-width="1.33195" stroke-miterlimit="10" stroke-linecap="round"/>
<path d="M244.025 90.9379L220.729 98.1509" stroke="white" stroke-width="1.33195" stroke-miterlimit="10" stroke-linecap="round"/>
<path d="M244.025 90.9379L220.729 98.1509" stroke="white" stroke-width="1.33195" stroke-miterlimit="10" stroke-linecap="round"/>
<path d="M244.336 85.3187L221.039 92.5317" stroke="white" stroke-width="1.33195" stroke-miterlimit="10" stroke-linecap="round"/>
<path d="M244.647 79.7015L221.35 86.9146" stroke="white" stroke-width="1.33195" stroke-miterlimit="10" stroke-linecap="round"/>
<path d="M242.59 74.6429L219.293 81.856" stroke="white" stroke-width="1.33195" stroke-miterlimit="10" stroke-linecap="round"/>
<path d="M192.304 76.299C192.304 76.299 190.815 71.9709 188.657 69.3468C190.841 69.4134 192.736 68.8501 192.736 68.8501C188.218 67.9163 185.148 66.4261 183.151 65.2739C182.524 64.86 179.179 63.1861 179.179 63.1861L179.186 63.1936C177.182 62.1415 176.761 61.2253 174.096 60.7638C168.756 59.839 164.356 64.3108 164.356 64.3108C164.356 64.3108 159.886 63.9539 159.055 64.4955C158.658 64.7541 155.875 67.0751 154.101 70.2632L154.101 70.261C154.101 70.261 150.909 75.4965 148.984 76.6295C148.984 76.6295 150.361 76.6188 151.769 76.2821C150.974 79.4032 151.737 83.2879 151.909 88.2074C152.084 93.2048 159.946 98.818 159.946 98.818L185.457 97.378C185.457 97.378 195.542 87.5532 192.304 76.299Z" fill="#12161C"/>
<path d="M181.598 73.8557L159.835 75.2979L155.742 80.5372C154.007 85.0347 155.112 90.1588 156.599 94.8294C157.783 98.5456 157.836 103.162 161.316 104.704C169.882 108.5 178.055 106.486 181.58 102.322C182.681 101.022 184.153 99.2756 184.851 97.687C186.158 95.2254 186.526 91.2475 186.625 89.5569C187.024 83.8645 185.481 77.9016 181.598 73.8557Z" fill="#FFC7A1"/>
<path d="M183.01 90.3701C182.885 86.7854 186.409 84.8687 187.904 85.245C191.276 86.0925 192.822 88.7353 192.161 91.6364C191.469 94.6738 188.299 96.5687 185.3 95.7284C184.538 95.5155 183.063 91.8981 183.01 90.3701Z" fill="#FFC7A1"/>
<path d="M183.025 90.8209C182.768 90.8298 182.552 90.6288 182.543 90.3722C182.46 88.0017 183.815 86.5439 184.629 85.8865C185.735 84.994 187.096 84.5503 188.016 84.7817C188.264 84.8444 188.416 85.0971 188.353 85.3451C188.29 85.5943 188.039 85.7458 187.788 85.6832C187.248 85.5472 186.19 85.8212 185.215 86.6093C184.534 87.1578 183.405 88.3728 183.474 90.3398C183.483 90.5963 183.281 90.8119 183.025 90.8209Z" fill="#EA989D" stroke="#EA989D" stroke-width="0.399029" stroke-miterlimit="2" stroke-linejoin="round"/>
<path d="M185.921 89.7639C186.901 88.1644 188.581 87.2394 190.45 87.2077C191.521 87.1891 191.456 88.8516 190.386 88.87C189.107 88.8921 187.998 89.5585 187.336 90.6413C186.774 91.5549 185.36 90.6787 185.921 89.7639Z" fill="#EA989D"/>
<path d="M169.583 74.9308C170.499 76.3524 174.519 80.3245 174.519 80.3245C174.519 80.3245 177.997 84.4561 182.818 85.7197L182.707 82.5532C182.678 81.7353 183.118 84.8848 185.774 86.878C185.774 86.878 187.422 76.7752 185.315 73.765C182.393 69.5899 172.847 67.3536 169.3 69.5354C167.969 70.3535 168.84 73.7766 169.583 74.9308Z" fill="#12161C"/>
<path d="M155.918 80.0776C155.918 80.0776 155.307 85.9013 157.233 90.1141C157.233 90.1141 154.268 89.4501 154.185 84.3038C154.185 84.3038 153.785 77.4143 155.918 80.0776Z" fill="#12161C"/>
<path d="M162.288 75.4355C162.288 75.4355 161.454 68.8145 164.173 68.0107C167.629 66.9891 170.335 76.3617 175.173 82.1803C175.173 82.1803 169.884 82.213 168.35 78.7526C168.35 78.7526 169.805 81.8623 170.233 82.9188C170.233 82.9188 165.463 83.1419 163.891 75.5301L162.288 75.4355Z" fill="#12161C"/>
<path d="M159.622 75.531L162.849 71.9771L163.889 75.5328L159.622 75.531Z" fill="#595C60"/>
<path d="M166.657 95.7593C166.657 95.7593 164.41 92.2634 168.265 93.3834" stroke="#12161C" stroke-width="1.33647" stroke-miterlimit="10" stroke-linecap="round"/>
<path d="M171.498 88.6161C171.733 90.2671 172.574 91.5958 173.396 92.3163C174.228 93.0541 175.039 93.183 175.433 92.8491C176.213 92.0989 175.608 90.1168 175.343 88.0306L175.343 88.0261C175.295 87.7623 175.09 87.5541 174.825 87.5069L173.559 87.2833L174.773 86.249C174.942 86.1049 175.025 85.8819 174.989 85.662C174.812 84.5647 174.576 83.6962 173.993 83.405C173.516 83.2028 172.781 83.5672 172.207 84.5189C171.637 85.4514 171.23 86.971 171.498 88.6161Z" fill="#12161C"/>
<path d="M159.108 91.9501C159.343 93.6011 160.185 94.9297 161.007 95.6503C161.838 96.3881 162.649 96.517 163.044 96.1831C163.823 95.4329 163.218 93.4508 162.954 91.3646L162.953 91.36C162.905 91.0963 162.7 90.8881 162.436 90.8408L161.169 90.6173L162.384 89.583C162.553 89.4389 162.635 89.2159 162.599 88.996C162.422 87.8987 162.186 87.0302 161.603 86.739C161.127 86.5368 160.391 86.9012 159.817 87.8529C159.247 88.7854 158.841 90.305 159.108 91.9501Z" fill="#12161C"/>
<path d="M174.405 102.083C172.767 102.477 171.169 101.672 170.835 100.286C170.501 98.8996 171.557 97.4566 173.195 97.0627C174.833 96.6689 176.431 97.4734 176.765 98.8596C177.099 100.246 176.042 101.689 174.405 102.083Z" fill="white" stroke="#12161C" stroke-width="1.21353" stroke-miterlimit="1.5" stroke-linecap="round" stroke-linejoin="round"/>
<path d="M169.57 82.8813C169.67 82.4539 169.935 81.9591 170.327 81.4802C171.954 79.4906 175.76 77.7737 178.904 82.251" stroke="#12161C" stroke-width="1.33647" stroke-miterlimit="10" stroke-linecap="round"/>
<path d="M154.532 86.6595C154.532 86.6595 158.737 86.5386 161.939 83.4392" stroke="#12161C" stroke-width="1.29856" stroke-miterlimit="1.5" stroke-linecap="round" stroke-linejoin="round"/>
</g>
<path fill-rule="evenodd" clip-rule="evenodd" d="M120.821 96.8026V113.691C120.821 115.688 119.198 117.311 117.199 117.311H66.0905C64.0916 117.311 62.4688 115.688 62.4688 113.691V96.8026C62.4688 94.8057 64.0916 93.1836 66.0905 93.1836H117.199C119.198 93.1836 120.821 94.8057 120.821 96.8026Z" fill="#F9EBEB"/>
<path fill-rule="evenodd" clip-rule="evenodd" d="M121.47 96.8019V113.691C121.47 116.046 119.557 117.958 117.2 117.958H66.0912C63.7346 117.958 61.8203 116.046 61.8203 113.691V96.8019C61.8203 94.4468 63.7346 92.5352 66.0912 92.5352H117.2C119.557 92.5352 121.47 94.4468 121.47 96.8019ZM120.822 96.8019C120.822 94.8049 119.199 93.1829 117.2 93.1829H66.0912C64.0923 93.1829 62.4694 94.8049 62.4694 96.8019V113.691C62.4694 115.688 64.0923 117.31 66.0912 117.31H117.2C119.199 117.31 120.822 115.688 120.822 113.691V96.8019Z" fill="#EB5757"/>
<path d="M73.5451 112.284C77.4392 112.284 80.596 109.13 80.596 105.239C80.596 101.348 77.4392 98.1934 73.5451 98.1934C69.651 98.1934 66.4941 101.348 66.4941 105.239C66.4941 109.13 69.651 112.284 73.5451 112.284Z" fill="#EB5757"/>
<path d="M75.8423 102.42C75.9878 102.42 76.1158 102.468 76.2162 102.568C76.3169 102.669 76.3654 102.797 76.3654 102.943C76.3654 103.088 76.3169 103.216 76.2162 103.316L74.2931 105.238L76.2162 107.16C76.3169 107.26 76.3654 107.388 76.3654 107.534C76.3654 107.679 76.3169 107.807 76.2162 107.907C76.1158 108.008 75.9878 108.056 75.8423 108.056C75.6969 108.056 75.5686 108.008 75.468 107.907L73.5449 105.986L71.622 107.907C71.5214 108.008 71.3931 108.056 71.2477 108.056C71.1022 108.056 70.9739 108.008 70.8733 107.907C70.7729 107.807 70.7246 107.679 70.7246 107.534C70.7246 107.388 70.7729 107.26 70.8733 107.16L72.7964 105.238L70.8733 103.316C70.7729 103.216 70.7246 103.088 70.7246 102.943C70.7246 102.797 70.7729 102.669 70.8733 102.568C70.9739 102.468 71.1022 102.42 71.2477 102.42C71.3931 102.42 71.5214 102.468 71.622 102.568L73.5449 104.49L75.468 102.568C75.5686 102.468 75.6969 102.42 75.8423 102.42Z" fill="white" stroke="white" stroke-width="0.20247"/>
<path fill-rule="evenodd" clip-rule="evenodd" d="M116.826 99.8196C116.826 100.596 116.194 101.227 115.417 101.227H86.0395C85.2623 101.227 84.6309 100.596 84.6309 99.8196C84.6309 99.0426 85.2623 98.4121 86.0395 98.4121H115.417C116.194 98.4121 116.826 99.0426 116.826 99.8196Z" fill="#EB5757"/>
<path fill-rule="evenodd" clip-rule="evenodd" d="M109.403 105.247C109.403 106.024 108.772 106.655 107.994 106.655H86.039C85.2619 106.655 84.6309 106.024 84.6309 105.247C84.6309 104.47 85.2619 103.84 86.039 103.84H107.994C108.772 103.84 109.403 104.47 109.403 105.247Z" fill="#EB5757"/>
<path fill-rule="evenodd" clip-rule="evenodd" d="M109.403 110.677C109.403 111.454 108.772 112.085 107.994 112.085H86.039C85.2619 112.085 84.6309 111.454 84.6309 110.677C84.6309 109.9 85.2619 109.27 86.039 109.27H107.994C108.772 109.27 109.403 109.9 109.403 110.677Z" fill="#EB5757"/>
<path fill-rule="evenodd" clip-rule="evenodd" d="M159.724 31.6562V48.545C159.724 50.542 158.101 52.1641 156.103 52.1641H66.0909C64.0926 52.1641 62.4697 50.542 62.4697 48.545V31.6562C62.4697 29.6592 64.0926 28.0371 66.0909 28.0371H156.103C158.101 28.0371 159.724 29.6592 159.724 31.6562Z" fill="#F9EBEB"/>
<path fill-rule="evenodd" clip-rule="evenodd" d="M160.372 31.6554V48.5443C160.372 50.8994 158.459 52.811 156.102 52.811H66.0906C63.7338 52.811 61.8213 50.8994 61.8213 48.5443V31.6554C61.8213 29.3003 63.7338 27.3887 66.0906 27.3887H156.102C158.459 27.3887 160.372 29.3003 160.372 31.6554ZM159.724 31.6554C159.724 29.6585 158.101 28.0364 156.102 28.0364H66.0906C64.0924 28.0364 62.4695 29.6585 62.4695 31.6554V48.5443C62.4695 50.5413 64.0924 52.1633 66.0906 52.1633H156.102C158.101 52.1633 159.724 50.5413 159.724 48.5443V31.6554Z" fill="#EB5757"/>
<path d="M73.5306 47.1376C77.42 47.1376 80.5729 43.9833 80.5729 40.0922C80.5729 36.2012 77.42 33.0469 73.5306 33.0469C69.6412 33.0469 66.4883 36.2012 66.4883 40.0922C66.4883 43.9833 69.6412 47.1376 73.5306 47.1376Z" fill="#EB5757"/>
<path d="M75.8253 37.2734C75.9706 37.2734 76.0985 37.3216 76.1988 37.422C76.2993 37.5226 76.3477 37.6507 76.3477 37.7961C76.3477 37.9414 76.2993 38.0696 76.1988 38.1699L74.278 40.0915L76.1988 42.013C76.2993 42.1136 76.3477 42.2415 76.3477 42.3871C76.3477 42.5325 76.2993 42.6604 76.1988 42.7607C76.0985 42.8613 75.9706 42.9098 75.8253 42.9098C75.68 42.9098 75.552 42.8613 75.4514 42.7607L73.5307 40.8391L71.6102 42.7607C71.5096 42.8613 71.3816 42.9098 71.2363 42.9098C71.091 42.9098 70.9629 42.8613 70.8624 42.7607C70.7621 42.6604 70.7139 42.5325 70.7139 42.3871C70.7139 42.2415 70.7621 42.1136 70.8624 42.013L72.7831 40.0915L70.8624 38.1699C70.7621 38.0696 70.7139 37.9414 70.7139 37.7961C70.7139 37.6507 70.7621 37.5226 70.8624 37.422C70.9629 37.3216 71.091 37.2734 71.2363 37.2734C71.3816 37.2734 71.5096 37.3216 71.6102 37.422L73.5307 39.3436L75.4514 37.422C75.552 37.3216 75.68 37.2734 75.8253 37.2734Z" fill="white" stroke="white" stroke-width="0.202346"/>
<path fill-rule="evenodd" clip-rule="evenodd" d="M155.643 34.6731C155.643 35.4497 155.013 36.0807 154.235 36.0807H86.0119C85.2342 36.0807 84.6035 35.4497 84.6035 34.6731C84.6035 33.8961 85.2342 33.2656 86.0119 33.2656H154.235C155.013 33.2656 155.643 33.8961 155.643 34.6731Z" fill="#EB5757"/>
<path fill-rule="evenodd" clip-rule="evenodd" d="M139.265 40.1009C139.265 40.8774 138.634 41.5084 137.855 41.5084H86.0113C85.2345 41.5084 84.6035 40.8774 84.6035 40.1009C84.6035 39.3238 85.2345 38.6934 86.0113 38.6934H137.855C138.634 38.6934 139.265 39.3238 139.265 40.1009Z" fill="#EB5757"/>
<path fill-rule="evenodd" clip-rule="evenodd" d="M139.265 45.5306C139.265 46.3071 138.634 46.9381 137.855 46.9381H86.0113C85.2345 46.9381 84.6035 46.3071 84.6035 45.5306C84.6035 44.7535 85.2345 44.123 86.0113 44.123H137.855C138.634 44.123 139.265 44.7535 139.265 45.5306Z" fill="#EB5757"/>
<path fill-rule="evenodd" clip-rule="evenodd" d="M135.41 64.455V81.3438C135.41 83.3408 133.787 84.9629 131.789 84.9629H66.0912C64.0926 84.9629 62.4697 83.3408 62.4697 81.3438V64.455C62.4697 62.458 64.0926 60.8359 66.0912 60.8359H131.789C133.787 60.8359 135.41 62.458 135.41 64.455Z" fill="#F9EBEB"/>
<path fill-rule="evenodd" clip-rule="evenodd" d="M136.058 64.4543V81.3431C136.058 83.6983 134.146 85.6099 131.788 85.6099H66.091C63.7338 85.6099 61.8213 83.6983 61.8213 81.3431V64.4543C61.8213 62.0991 63.7338 60.1875 66.091 60.1875H131.788C134.146 60.1875 136.058 62.0991 136.058 64.4543ZM135.41 64.4543C135.41 62.4573 133.787 60.8352 131.788 60.8352H66.091C64.0923 60.8352 62.4695 62.4573 62.4695 64.4543V81.3431C62.4695 83.3401 64.0923 84.9622 66.091 84.9622H131.788C133.787 84.9622 135.41 83.3401 135.41 81.3431V64.4543Z" fill="#EB5757"/>
<path d="M73.5451 79.9364C77.4392 79.9364 80.596 76.7821 80.596 72.8911C80.596 69 77.4392 65.8457 73.5451 65.8457C69.651 65.8457 66.4941 69 66.4941 72.8911C66.4941 76.7821 69.651 79.9364 73.5451 79.9364Z" fill="#EB5757"/>
<path d="M75.8423 70.0723C75.9878 70.0723 76.1158 70.1205 76.2162 70.2208C76.3169 70.3214 76.3654 70.4495 76.3654 70.5949C76.3654 70.7403 76.3169 70.8684 76.2162 70.9687L74.2931 72.8903L76.2162 74.8119C76.3169 74.9125 76.3654 75.0404 76.3654 75.186C76.3654 75.3313 76.3169 75.4592 76.2162 75.5595C76.1158 75.6601 75.9878 75.7086 75.8423 75.7086C75.6969 75.7086 75.5686 75.6601 75.468 75.5595L73.5449 73.638L71.622 75.5595C71.5214 75.6601 71.3931 75.7086 71.2477 75.7086C71.1022 75.7086 70.9739 75.6601 70.8733 75.5595C70.7729 75.4592 70.7246 75.3313 70.7246 75.186C70.7246 75.0404 70.7729 74.9125 70.8733 74.8119L72.7964 72.8903L70.8733 70.9687C70.7729 70.8684 70.7246 70.7403 70.7246 70.5949C70.7246 70.4495 70.7729 70.3214 70.8733 70.2208C70.9739 70.1205 71.1022 70.0723 71.2477 70.0723C71.3931 70.0723 71.5214 70.1205 71.622 70.2208L73.5449 72.1424L75.468 70.2208C75.5686 70.1205 75.6969 70.0723 75.8423 70.0723Z" fill="white" stroke="white" stroke-width="0.20247"/>
<path fill-rule="evenodd" clip-rule="evenodd" d="M131.414 67.472C131.414 68.2485 130.782 68.8795 130.006 68.8795H86.0393C85.2612 68.8795 84.6309 68.2485 84.6309 67.472C84.6309 66.6949 85.2612 66.0645 86.0393 66.0645H130.006C130.782 66.0645 131.414 66.6949 131.414 67.472Z" fill="#EB5757"/>
<path fill-rule="evenodd" clip-rule="evenodd" d="M120.628 72.8997C120.628 73.6762 119.997 74.3072 119.22 74.3072H86.0392C85.2624 74.3072 84.6309 73.6762 84.6309 72.8997C84.6309 72.1227 85.2624 71.4922 86.0392 71.4922H119.22C119.997 71.4922 120.628 72.1227 120.628 72.8997Z" fill="#EB5757"/>
<path fill-rule="evenodd" clip-rule="evenodd" d="M120.628 78.3294C120.628 79.1059 119.997 79.7369 119.22 79.7369H86.0392C85.2624 79.7369 84.6309 79.1059 84.6309 78.3294C84.6309 77.5523 85.2624 76.9219 86.0392 76.9219H119.22C119.997 76.9219 120.628 77.5523 120.628 78.3294Z" fill="#EB5757"/>
<path d="M207.674 177.103C207.999 177.623 214.102 182.182 214.561 182.546C215.627 183.39 216.724 184.191 217.631 185.222C218.578 186.302 218.416 186.905 217.02 187.254C216.565 187.369 179.924 188.511 179.075 188.418C178.152 188.319 177.42 187.838 177.29 186.784C178.257 184.96 184.254 182.793 187.288 181.24C187.789 180.984 193.421 177.317 193.946 177.103C195.134 177.03 206.553 177.093 207.674 177.103Z" fill="#B2C8F0"/>
<path d="M183.516 185.919L212.232 185.088" stroke="white" stroke-miterlimit="10" stroke-linecap="round" stroke-linejoin="round"/>
<path d="M188.393 182.917L209.56 182.303" stroke="white" stroke-miterlimit="10" stroke-linecap="round" stroke-linejoin="round"/>
<path d="M189.043 178.085C188.26 178.788 183.045 181.666 182.121 182.118C179.198 183.545 176.311 185.038 173.49 186.662C173.443 186.689 173.409 186.744 173.367 186.785C170.149 188.437 170.988 188.221 167.355 187.997C164.462 187.821 161.573 187.56 158.682 187.338C157.295 187.231 155.908 187.14 154.52 187.07C152.747 186.981 150.984 186.797 149.221 186.597C147.869 186.442 146.509 186.357 145.155 186.23C144.359 186.154 143.571 186.029 142.802 185.812C142.659 185.773 142.516 185.731 142.38 185.675C141.144 185.158 141.018 184.416 142.076 183.579C143.358 182.565 144.819 181.829 146.24 181.031C146.755 180.742 147.271 180.449 147.79 180.163C147.951 180.074 151.781 178.085 153.743 178.085C155.704 177.104 188.489 177.598 189.043 178.085Z" fill="#B2C8F0"/>
<path d="M148.449 182.883L169.836 185.089" stroke="white" stroke-miterlimit="10" stroke-linecap="round" stroke-linejoin="round"/>
<path d="M152.371 179.936L173.758 182.143" stroke="white" stroke-miterlimit="10" stroke-linecap="round" stroke-linejoin="round"/>
<path d="M185.543 175.032L148.215 174.899C148.215 174.899 141.262 173.206 142.186 166.67C142.945 161.307 148.326 160.758 148.326 160.758L187.499 167.498L185.543 175.032Z" fill="#FFC7A1"/>
<path d="M184.688 168.126C183.742 168.517 182.894 169.24 183.06 170.374C183.096 170.622 183.169 170.869 183.256 171.111C183.099 171.564 183.286 172.187 183.427 172.589C183.887 173.89 184.931 174.946 186.245 175.381C187.049 175.644 187.918 175.645 188.753 175.65C189.722 175.65 190.688 175.647 191.657 175.648H196.778C197.489 175.913 198.18 176.226 198.855 176.577C199.72 177.033 200.696 177.866 201.722 177.832C202.572 177.804 203.039 177.054 202.977 176.268C203.135 176.394 203.298 176.524 203.448 176.662C204.108 177.256 204.782 177.975 205.709 178.072C206.245 178.132 206.836 177.97 207.219 177.582C207.64 177.643 208.068 177.613 208.435 177.402C208.955 177.118 209.074 176.657 209.014 176.185C209.71 176.693 210.561 177.272 211.363 176.875C212.347 176.38 212.231 175.102 211.668 174.328C210.326 172.489 207.916 171.42 205.834 170.749C200.236 168.947 194.054 166.353 188.15 167.259C186.989 167.441 185.781 167.681 184.688 168.126Z" fill="#FFC89E"/>
<path d="M198.444 171.845C199.611 172.246 200.579 172.995 201.484 173.818C202.386 174.636 203.507 175.574 203.504 176.903C203.502 177.447 202.66 177.47 202.662 176.925C202.665 175.83 201.562 175.021 200.823 174.356C200.057 173.665 199.229 173.003 198.241 172.664C197.733 172.49 197.931 171.669 198.444 171.845Z" fill="#EA989D" stroke="#EA989D" stroke-width="0.532806" stroke-miterlimit="2" stroke-linejoin="round"/>
<path d="M201.813 170.996C204.687 171.881 206.988 174.262 207.742 177.188C207.878 177.713 207.069 177.952 206.935 177.425C206.256 174.795 204.207 172.615 201.61 171.815C201.094 171.657 201.294 170.836 201.813 170.996Z" fill="#EA989D" stroke="#EA989D" stroke-width="0.532806" stroke-miterlimit="2" stroke-linejoin="round"/>
<path d="M204.364 170.355C206.108 170.812 207.633 171.927 208.625 173.434C209.092 174.144 209.511 175.008 209.617 175.86C209.75 176.924 208.929 177.415 208.005 177.587C207.477 177.686 207.236 176.876 207.768 176.777C208.064 176.722 208.519 176.671 208.71 176.403C208.908 176.124 208.734 175.686 208.642 175.397C208.424 174.716 208.082 174.08 207.65 173.511C206.786 172.371 205.542 171.536 204.162 171.175C203.638 171.037 203.839 170.218 204.364 170.355Z" fill="#EA989D" stroke="#EA989D" stroke-width="0.532806" stroke-miterlimit="2" stroke-linejoin="round"/>
<path d="M197.563 55.6535C205.804 55.6535 212.485 48.9563 212.485 40.6949C212.485 32.4335 205.804 25.7363 197.563 25.7363C189.321 25.7363 182.641 32.4335 182.641 40.6949C182.641 48.9563 189.321 55.6535 197.563 55.6535Z" fill="#0049CD"/>
<path fill-rule="evenodd" clip-rule="evenodd" d="M199.298 54.1348L189.707 62.0317L194.136 52.8502L199.298 54.1348Z" fill="#0049CD"/>
<path d="M192.127 34.1115C192.125 39.5051 192.735 44.0951 189.869 48.5003L201.77 48.495C204.635 44.0903 204.025 39.5001 204.027 34.1064L192.127 34.1115Z" fill="white"/>
<path d="M193.666 38.0937C194.132 37.8839 194.598 37.6745 195.064 37.4647C195.431 37.3002 195.916 37.1563 196.187 37.4533C196.315 37.5945 196.351 37.8001 196.472 37.9474C196.694 38.2172 197.121 38.1982 197.44 38.0564C197.759 37.9146 198.034 37.6783 198.365 37.5679C198.79 37.4261 199.252 37.5092 199.698 37.5493C200.763 37.6452 202.678 37.6207 202.678 37.6207" stroke="#B2C8F0" stroke-width="0.667466" stroke-miterlimit="10" stroke-linecap="round" stroke-linejoin="round"/>
<path d="M202.283 39.875H193.795" stroke="#B2C8F0" stroke-width="0.667466" stroke-miterlimit="10" stroke-linecap="round" stroke-linejoin="round"/>
<path d="M201.945 42.2205H193.458" stroke="#B2C8F0" stroke-width="0.667466" stroke-miterlimit="10" stroke-linecap="round" stroke-linejoin="round"/>
<path d="M201.22 44.9336H196.976" stroke="#B2C8F0" stroke-width="0.667466" stroke-miterlimit="10" stroke-linecap="round" stroke-linejoin="round"/>
<path d="M206.698 36.2824C211.223 37.4994 215.872 34.8118 217.082 30.2796C218.292 25.7473 215.605 21.0866 211.079 19.8696C206.554 18.6526 201.905 21.3401 200.695 25.8724C199.485 30.4047 202.172 35.0654 206.698 36.2824Z" fill="#EB5757"/>
<path d="M208.174 33.6638C207.878 33.616 207.634 33.4782 207.444 33.2506C207.254 33.023 207.186 32.7364 207.241 32.391C207.29 32.0845 207.438 31.8438 207.685 31.669C207.932 31.4943 208.211 31.4317 208.522 31.4818C208.828 31.5311 209.068 31.6771 209.244 31.9197C209.419 32.1627 209.483 32.4372 209.434 32.7438C209.38 33.0844 209.228 33.3342 208.978 33.4937C208.729 33.6531 208.461 33.7099 208.174 33.6638ZM205.892 25.0938C205.966 24.6317 206.189 24.1873 206.56 23.7606C206.932 23.3339 207.427 23.0106 208.045 22.7906C208.663 22.5708 209.351 22.5217 210.108 22.6435C210.813 22.7568 211.414 22.987 211.911 23.3339C212.409 23.6809 212.769 24.1018 212.992 24.5966C213.214 25.0915 213.284 25.6016 213.2 26.127C213.134 26.5406 212.993 26.8896 212.776 27.1739C212.558 27.4584 212.316 27.6951 212.05 27.8842C211.783 28.0733 211.308 28.3874 210.626 28.8265C210.436 28.9507 210.283 29.0621 210.165 29.1603C210.047 29.2587 209.957 29.3513 209.893 29.4383C209.829 29.5254 209.777 29.6142 209.735 29.7048C209.693 29.7954 209.626 29.9556 209.535 30.1854C209.362 30.6765 209.033 30.8829 208.547 30.8048C208.294 30.7642 208.095 30.6474 207.949 30.4542C207.803 30.2611 207.756 30.0015 207.808 29.6755C207.873 29.2669 207.992 28.9231 208.166 28.6442C208.34 28.3653 208.55 28.1295 208.795 27.937C209.039 27.7443 209.364 27.5209 209.768 27.2665C210.122 27.0441 210.38 26.8747 210.54 26.7583C210.701 26.6419 210.842 26.5063 210.964 26.3511C211.086 26.1961 211.162 26.0189 211.194 25.8194C211.256 25.4302 211.164 25.0786 210.918 24.7645C210.671 24.4506 210.32 24.2567 209.863 24.1833C209.329 24.0973 208.914 24.169 208.618 24.3984C208.323 24.6278 208.046 24.9911 207.787 25.4885C207.535 26.0117 207.177 26.2361 206.716 26.1619C206.444 26.1181 206.23 25.9852 206.074 25.7629C205.917 25.5407 205.857 25.3177 205.892 25.0938Z" fill="white"/>
</g>
</g>
<defs>
<clipPath id="clip0_16663_177626">
<rect width="309" height="198" fill="white" transform="translate(21)"/>
</clipPath>
</defs>
</svg>
