<svg width="16" height="16" viewBox="0 0 16 16" fill="none" xmlns="http://www.w3.org/2000/svg">
<path d="M13.156 7.63158L12.1015 6.20383C12.1015 6.20383 12.0896 6.18606 12.0837 6.18014C11.9712 6.02018 11.8527 5.86615 11.7223 5.71804C11.592 5.56993 11.4498 5.42775 11.3017 5.29742H11.2899C11.1773 5.20263 11.0588 5.10192 10.9403 5.00713C10.8219 4.91826 10.6974 4.83532 10.573 4.75238C10.2294 4.54503 9.86212 4.37323 9.48297 4.24882C9.1986 4.15996 8.90239 4.08886 8.60025 4.04739C8.49954 4.03555 8.39882 4.0237 8.29811 4.01777C8.1974 4.00592 8.09076 4 7.99005 4C7.88933 4 7.7827 4 7.68198 4.01777C7.58127 4.0237 7.48056 4.03555 7.37985 4.04739C7.17842 4.07702 6.977 4.11849 6.78149 4.16588C6.68671 4.18958 6.59192 4.2192 6.4912 4.24882C6.28978 4.30806 6.1002 4.38508 5.91062 4.47987C5.84546 4.50949 5.78622 4.53911 5.72697 4.57466C5.63218 4.62205 5.5374 4.67537 5.44853 4.72869C5.17601 4.89457 4.67837 5.29149 4.67837 5.29149C4.53027 5.42183 4.38216 5.56993 4.25183 5.71804C4.12149 5.86615 4.00301 6.02018 3.89044 6.18014C3.88452 6.18014 3.8786 6.19791 3.87267 6.20383L3.10252 7.24651L3.87267 6.19791C3.87267 6.19791 3.88452 6.18014 3.89044 6.17421H3.88452C3.88452 6.17421 3.87267 6.19198 3.86675 6.19791L2.83 7.60789L2.81223 7.63158C2.59303 7.93965 2.59303 8.35435 2.81223 8.66241L3.29209 9.31408L3.86082 10.0902C3.97931 10.262 4.10964 10.4219 4.2459 10.576C4.37624 10.7359 4.51842 10.8722 4.67245 11.0084C4.82648 11.1447 4.99236 11.2691 5.16417 11.3817C5.22933 11.429 5.2945 11.4705 5.35967 11.512C5.49593 11.6009 5.63811 11.6897 5.78621 11.7608C5.83953 11.7904 5.89285 11.8141 5.94617 11.8378C5.95802 11.8437 5.96987 11.8497 5.98172 11.8497C6.32532 12.0037 6.69263 12.1222 7.06586 12.1992C7.1488 12.217 7.23766 12.2288 7.3206 12.2466C7.33245 12.2466 7.3443 12.2525 7.35615 12.2525H7.38577C7.48056 12.2644 7.57535 12.2762 7.67014 12.2821C7.77085 12.294 7.87749 12.2999 7.9782 12.2999C8.08484 12.2999 8.18555 12.294 8.29219 12.2821C8.38697 12.2762 8.48176 12.2644 8.57655 12.2525H8.60617C8.70096 12.2347 8.80167 12.217 8.89646 12.1992C8.99718 12.1814 9.09196 12.1577 9.19268 12.134C9.34078 12.0926 9.48297 12.0511 9.62515 11.9978C9.76733 11.9445 9.90359 11.8911 10.0398 11.826C10.0872 11.8082 10.1346 11.7845 10.1761 11.7608C10.182 11.7549 10.1939 11.7549 10.1998 11.749C10.3064 11.6956 10.4072 11.6364 10.5079 11.5772C10.5671 11.5357 10.6264 11.5001 10.6856 11.4587C10.7211 11.435 10.7626 11.4113 10.7982 11.3817C10.97 11.275 11.1418 11.1447 11.2958 11.0025C11.4439 10.8722 11.5802 10.73 11.7164 10.5819H11.7046C11.8468 10.4219 11.9712 10.262 12.0956 10.0961L13.1501 8.66833C13.3693 8.36027 13.3693 7.94557 13.1501 7.63751L13.156 7.63158ZM7.99005 10.5167C6.68078 10.5167 5.62034 9.45626 5.62034 8.147C5.62034 6.83773 6.68078 5.77728 7.99005 5.77728C9.29931 5.77728 10.3598 6.83773 10.3598 8.147C10.3598 9.45626 9.29339 10.5167 7.99005 10.5167Z" fill="#3A7BF6"/>
<path d="M9.26966 6.90304C9.26966 6.90304 9.24597 6.87935 9.22819 6.87342C9.11563 6.76086 8.97937 6.66015 8.83719 6.58313C8.73648 6.52981 8.62984 6.48242 8.51135 6.44687C8.45211 6.4291 8.38694 6.41133 8.33955 6.4054C8.27438 6.39355 8.21514 6.38171 8.14997 6.37578C7.99002 6.36393 7.84783 6.48834 7.83599 6.6483C7.82414 6.80825 7.94855 6.95044 8.1085 6.96821C8.14405 6.96821 8.17367 6.97413 8.22699 6.98598C8.25661 6.98598 8.28623 6.99783 8.3277 7.00968C8.41064 7.03338 8.48173 7.063 8.5469 7.09854C8.65946 7.15779 8.75425 7.2348 8.83719 7.32367C8.84904 7.33551 8.86681 7.35329 8.87866 7.35921C8.93198 7.41845 8.97937 7.48362 9.02677 7.56064C9.08009 7.65543 9.1808 7.70874 9.28151 7.70874C9.33483 7.70874 9.38222 7.6969 9.42962 7.66727C9.5718 7.58433 9.61919 7.40068 9.53625 7.26442C9.45924 7.12816 9.36445 7.00968 9.26374 6.90897L9.26966 6.90304Z" fill="#3A7BF6"/>
</svg>
