<svg width="24" height="24" viewBox="0 0 24 24" fill="none" xmlns="http://www.w3.org/2000/svg">
<g clip-path="url(#clip0_16906_3647)">
<mask id="mask0_16906_3647" style="mask-type:luminance" maskUnits="userSpaceOnUse" x="0" y="0" width="24" height="24">
<path d="M24 0H0V24H24V0Z" fill="white"/>
</mask>
<g mask="url(#mask0_16906_3647)">
<path d="M12 24C18.6274 24 24 18.6274 24 12C24 5.37258 18.6274 0 12 0C5.37258 0 0 5.37258 0 12C0 18.6274 5.37258 24 12 24Z" fill="#EB5757"/>
<mask id="mask1_16906_3647" style="mask-type:luminance" maskUnits="userSpaceOnUse" x="6" y="6" width="12" height="12">
<path d="M18 6H6V18H18V6Z" fill="white"/>
</mask>
<g mask="url(#mask1_16906_3647)">
<path d="M13.5899 11.9999L16.1699 9.41992C16.6124 8.97742 16.6124 8.26492 16.1699 7.82992C15.7274 7.39492 15.0149 7.38742 14.5799 7.82992L11.9999 10.4099L9.41992 7.82992C8.97742 7.38742 8.26492 7.38742 7.82992 7.82992C7.39492 8.27242 7.38742 8.98492 7.82992 9.41992L10.4099 11.9999L7.82992 14.5799C7.38742 15.0224 7.38742 15.7349 7.82992 16.1699C8.04742 16.3874 8.33992 16.4999 8.62492 16.4999C8.90992 16.4999 9.20242 16.3874 9.41992 16.1699L11.9999 13.5899L14.5799 16.1699C14.7974 16.3874 15.0899 16.4999 15.3749 16.4999C15.6599 16.4999 15.9524 16.3874 16.1699 16.1699C16.6124 15.7274 16.6124 15.0149 16.1699 14.5799L13.5899 11.9999Z" fill="white"/>
</g>
</g>
</g>
<defs>
<clipPath id="clip0_16906_3647">
<rect width="24" height="24" fill="white"/>
</clipPath>
</defs>
</svg>
