<svg width="48" height="48" viewBox="0 0 48 48" fill="none" xmlns="http://www.w3.org/2000/svg">
<g clip-path="url(#clip0_17347_21954)">
<mask id="mask0_17347_21954" style="mask-type:luminance" maskUnits="userSpaceOnUse" x="0" y="0" width="48" height="48">
<path d="M48 24C48 24.22 48 24.44 47.98 24.66C47.64 37.6 37.03 48 24 48C10.97 48 0.36 37.6 0.02 24.66C0 24.44 0 24.22 0 24C0 10.74 10.74 0 24 0C37.26 0 48 10.74 48 24Z" fill="white"/>
</mask>
<g mask="url(#mask0_17347_21954)">
<path d="M48 24C48 24.22 48 24.44 47.98 24.66C47.64 37.6 37.03 48 24 48C10.97 48 0.36 37.6 0.02 24.66C0 24.44 0 24.22 0 24C0 10.74 10.74 0 24 0C37.26 0 48 10.74 48 24Z" fill="#B6C7ED"/>
<path d="M0 24.75H48" stroke="white" stroke-width="0.87" stroke-miterlimit="10"/>
<path opacity="0.2" d="M0 19.3789H48" stroke="white" stroke-width="0.87" stroke-miterlimit="10"/>
<path opacity="0.2" d="M0 14.0117H48" stroke="white" stroke-width="0.87" stroke-miterlimit="10"/>
<path opacity="0.2" d="M0 8.64062H48" stroke="white" stroke-width="0.87" stroke-miterlimit="10"/>
<path opacity="0.2" d="M0 3.26953H48" stroke="white" stroke-width="0.87" stroke-miterlimit="10"/>
<path opacity="0.2" d="M4.19 0V45.92" stroke="white" stroke-width="0.85" stroke-miterlimit="10"/>
<path opacity="0.2" d="M19.56 0V45.92" stroke="white" stroke-width="0.85" stroke-miterlimit="10"/>
<path opacity="0.2" d="M34.93 0V45.92" stroke="white" stroke-width="0.85" stroke-miterlimit="10"/>
<path d="M47.98 24.6609C47.64 37.6009 37.03 48.0009 24 48.0009C10.97 48.0009 0.36002 37.6009 0.0200195 24.6609C5.98002 21.7709 14.52 19.9609 24 19.9609C33.48 19.9609 42.02 21.7709 47.98 24.6609Z" fill="#EBEBF1"/>
<path d="M13.22 42.8906V45.4006C13.22 46.8606 10.26 48.0406 6.61 48.0406C2.96 48.0406 0 46.8606 0 45.4006V42.8906H13.22Z" fill="#FFB533"/>
<path d="M6.61 45.5183C10.2606 45.5183 13.22 44.3363 13.22 42.8783C13.22 41.4202 10.2606 40.2383 6.61 40.2383C2.9594 40.2383 0 41.4202 0 42.8783C0 44.3363 2.9594 45.5183 6.61 45.5183Z" fill="#FFD56C"/>
<path d="M6.60994 44.7513C3.67994 44.7513 1.84994 43.9313 1.08994 43.2913C0.889941 43.1213 0.889941 42.6513 1.08994 42.4913C1.84994 41.8513 3.68994 41.0312 6.60994 41.0312C9.52994 41.0312 11.3699 41.8513 12.1299 42.4913C12.3299 42.6613 12.3299 43.1313 12.1299 43.2913C11.3699 43.9313 9.52994 44.7513 6.60994 44.7513Z" fill="#FFC34A"/>
<path d="M13.22 39.9805V42.4905C13.22 43.9505 10.26 45.1305 6.61 45.1305C2.96 45.1305 0 43.9505 0 42.4905V39.9805H13.22Z" fill="#FFB533"/>
<path d="M6.61 42.62C10.2606 42.62 13.22 41.4381 13.22 39.98C13.22 38.522 10.2606 37.34 6.61 37.34C2.9594 37.34 0 38.522 0 39.98C0 41.4381 2.9594 42.62 6.61 42.62Z" fill="#FFD56C"/>
<path d="M6.60994 41.8411C3.67994 41.8411 1.84994 41.0211 1.08994 40.3811C0.889941 40.2111 0.889941 39.7411 1.08994 39.5811C1.84994 38.9411 3.68994 38.1211 6.60994 38.1211C9.52994 38.1211 11.3699 38.9411 12.1299 39.5811C12.3299 39.7511 12.3299 40.2211 12.1299 40.3811C11.3699 41.0211 9.52994 41.8411 6.60994 41.8411Z" fill="#FFC34A"/>
<path d="M13.22 37.0391V39.5491C13.22 41.0091 10.26 42.1891 6.61 42.1891C2.96 42.1891 0 41.0091 0 39.5491V37.0391H13.22Z" fill="#FFB533"/>
<path d="M6.61 39.6784C10.2606 39.6784 13.22 38.4965 13.22 37.0384C13.22 35.5804 10.2606 34.3984 6.61 34.3984C2.9594 34.3984 0 35.5804 0 37.0384C0 38.4965 2.9594 39.6784 6.61 39.6784Z" fill="#FFD56C"/>
<path d="M6.60994 38.8997C3.67994 38.8997 1.84994 38.0797 1.08994 37.4397C0.889941 37.2697 0.889941 36.7997 1.08994 36.6397C1.84994 35.9997 3.68994 35.1797 6.60994 35.1797C9.52994 35.1797 11.3699 35.9997 12.1299 36.6397C12.3299 36.8097 12.3299 37.2797 12.1299 37.4397C11.3699 38.0797 9.52994 38.8997 6.60994 38.8997Z" fill="#FFC34A"/>
<path d="M13.22 34.1289V36.6389C13.22 38.0989 10.26 39.2789 6.61 39.2789C2.96 39.2789 0 38.0989 0 36.6389V34.1289H13.22Z" fill="#FFB533"/>
<path d="M13.22 34.1283C13.22 35.2183 11.54 36.1683 9.15 36.5583C8.36 36.6983 7.5 36.7683 6.61 36.7683C2.96 36.7683 0 35.5783 0 34.1283C0 32.6783 2.96 31.4883 6.61 31.4883C7.58 31.4883 8.5 31.5683 9.32 31.7283C11.62 32.1283 13.22 33.0583 13.22 34.1283Z" fill="#FFD56C"/>
<path d="M6.60994 35.9895C3.67994 35.9895 1.84994 35.1695 1.08994 34.5295C0.889941 34.3595 0.889941 33.8895 1.08994 33.7295C1.84994 33.0895 3.68994 32.2695 6.60994 32.2695C9.52994 32.2695 11.3699 33.0895 12.1299 33.7295C12.3299 33.8995 12.3299 34.3695 12.1299 34.5295C11.3699 35.1695 9.52994 35.9895 6.60994 35.9895Z" fill="#FFC34A"/>
<path d="M13.22 31.1016V33.6116C13.22 35.0716 10.26 36.2516 6.61 36.2516C2.96 36.2516 0 35.0716 0 33.6116V31.1016H13.22Z" fill="#FFB533"/>
<path d="M13.22 31.1009C13.22 32.1909 11.54 33.1409 9.15 33.5309C8.36 33.6709 7.5 33.7409 6.61 33.7409C2.96 33.7409 0 32.5509 0 31.1009C0 29.6509 2.96 28.4609 6.61 28.4609C7.58 28.4609 8.5 28.5409 9.32 28.7009C11.62 29.1009 13.22 30.0309 13.22 31.1009Z" fill="#FFD56C"/>
<path d="M6.61 32.97C3.68 32.97 1.85 32.15 1.09 31.51C0.890002 31.34 0.890002 30.87 1.09 30.71C1.85 30.07 3.69 29.25 6.61 29.25C9.53 29.25 11.37 30.07 12.13 30.71C12.33 30.88 12.33 31.35 12.13 31.51C11.37 32.15 9.53 32.97 6.61 32.97Z" fill="#FFC34A"/>
<path d="M13.22 28V30.51C13.22 31.97 10.26 33.15 6.61 33.15C2.96 33.15 0 31.97 0 30.51V28H13.22Z" fill="#FFB533"/>
<path d="M13.22 28.0111C13.22 29.1011 11.54 30.0511 9.15 30.4411C8.36 30.5811 7.5 30.6511 6.61 30.6511C2.96 30.6511 0 29.4611 0 28.0111C0 26.5611 2.96 25.3711 6.61 25.3711C7.58 25.3711 8.5 25.4511 9.32 25.6111C11.62 26.0111 13.22 26.9411 13.22 28.0111Z" fill="#FFD56C"/>
<path d="M6.60994 29.8684C3.67994 29.8684 1.84994 29.0484 1.08994 28.4084C0.889941 28.2384 0.889941 27.7684 1.08994 27.6084C1.84994 26.9684 3.68994 26.1484 6.60994 26.1484C9.52994 26.1484 11.3699 26.9684 12.1299 27.6084C12.3299 27.7784 12.3299 28.2484 12.1299 28.4084C11.3699 29.0484 9.52994 29.8684 6.60994 29.8684Z" fill="#FFC34A"/>
<path d="M39.63 47.7603C30.81 49.2803 21.94 51.0703 13.03 53.1503C11.35 53.5503 9.88999 52.5603 9.78999 50.9303C9.00999 38.5303 8.35999 25.9203 7.82999 13.0903C7.76999 11.4003 8.92999 9.95031 10.43 9.86031C18.36 9.41031 26.22 9.22031 33.98 9.28031C35.45 9.30031 36.8 10.5103 37.01 11.9703C37.51 15.4903 38.03 18.9803 38.56 22.4603C39.04 25.6203 39.54 28.7603 40.05 31.8803C40.74 36.1903 41.46 40.4603 42.21 44.7003C42.46 46.1103 41.31 47.4703 39.63 47.7603Z" fill="#597FD5"/>
<path d="M11.74 49.5C10.95 37.85 10.27 26.01 9.7 13.97C9.65 12.85 10.42 11.89 11.43 11.83C18.79 11.36 26.09 11.11 33.32 11.09C34.3 11.09 35.21 11.89 35.35 12.87C36.8 23.49 38.37 33.92 40.07 44.17C40.23 45.12 39.46 46.03 38.35 46.22C30.24 47.58 22.09 49.17 13.9 51C12.78 51.25 11.81 50.59 11.74 49.51V49.5Z" fill="#EBEBF1"/>
<path d="M28.1199 11.1403C24.3399 11.2103 19.9999 11.3703 16.1699 11.5603C16.1499 11.2103 16.1299 10.9803 16.1099 10.6303C16.0299 9.46031 16.8399 8.49031 17.8999 8.46031C20.3899 8.39031 22.8799 8.34031 25.3499 8.32031C26.4099 8.32031 27.3599 9.21031 27.4799 10.3103C27.5199 10.6503 28.0799 10.8203 28.1199 11.1503V11.1403Z" fill="#0B2463"/>
<path d="M28.12 11.14C24.34 11.21 20.53 11.34 16.71 11.53C16.69 11.18 16.66 10.82 16.64 10.47C16.56 9.3 17.37 8.33 18.43 8.3C20.92 8.23 23.41 8.18 25.88 8.16C26.94 8.16 27.89 9.05 28.01 10.15C28.05 10.49 28.08 10.82 28.12 11.16V11.14Z" fill="#1941B1"/>
<path d="M33.48 19.5405C26.74 19.8705 19.95 20.3805 13.11 21.0705C12.59 21.1205 12.15 20.7205 12.12 20.1705C12.03 18.5105 11.93 16.8505 11.84 15.1905C11.81 14.6405 12.2 14.1605 12.7 14.1205C19.41 13.6405 26.07 13.3505 32.67 13.2305C33.17 13.2305 33.62 13.6205 33.69 14.1105C33.88 15.6105 34.08 17.1005 34.28 18.5905C34.35 19.0805 33.99 19.5005 33.48 19.5305V19.5405Z" fill="#C5E8C4"/>
<path d="M13.01 21.1894C12.78 21.1894 12.55 21.1094 12.37 20.9494C12.15 20.7594 12.01 20.4794 12 20.1794C11.91 18.5194 11.81 16.8594 11.72 15.1894C11.69 14.5694 12.12 14.0394 12.69 13.9994C19.36 13.5194 26.08 13.2294 32.66 13.1094H32.68C33.23 13.1094 33.73 13.5494 33.8 14.0994C33.99 15.5994 34.19 17.0894 34.39 18.5794C34.43 18.8494 34.35 19.1094 34.19 19.3094C34.02 19.5194 33.77 19.6394 33.49 19.6494C26.76 19.9694 19.91 20.4894 13.12 21.1794C13.09 21.1794 13.05 21.1794 13.02 21.1794L13.01 21.1894ZM32.69 13.3594H32.68C26.1 13.4694 19.39 13.7694 12.72 14.2494C12.28 14.2794 11.94 14.6994 11.97 15.1894C12.06 16.8594 12.15 18.5194 12.25 20.1694C12.26 20.4194 12.37 20.6294 12.54 20.7794C12.7 20.9194 12.9 20.9694 13.11 20.9594C19.9 20.2694 26.76 19.7494 33.49 19.4294C33.71 19.4294 33.9 19.3294 34.03 19.1694C34.15 19.0194 34.21 18.8294 34.18 18.6194C33.98 17.1294 33.78 15.6394 33.59 14.1394C33.53 13.7094 33.14 13.3594 32.7 13.3594H32.69Z" fill="#57B246"/>
<path d="M14.12 16.9609C13.88 16.9609 13.68 16.7809 13.66 16.5309C13.64 16.2809 13.83 16.0509 14.09 16.0309C16.88 15.8109 19.73 15.6209 22.56 15.4609C22.84 15.4709 23.04 15.6409 23.05 15.9009C23.06 16.1609 22.87 16.3809 22.61 16.3909C19.79 16.5509 16.94 16.7409 14.16 16.9609C14.15 16.9609 14.14 16.9609 14.12 16.9609Z" fill="#57B246"/>
<path d="M14.24 18.9617C14 18.9617 13.8 18.7817 13.78 18.5417C13.76 18.2817 13.95 18.0617 14.2 18.0417C15.5 17.9317 16.81 17.8217 18.11 17.7217C18.36 17.6917 18.59 17.8917 18.61 18.1517C18.63 18.4117 18.44 18.6317 18.18 18.6517C16.88 18.7517 15.58 18.8617 14.28 18.9717C14.27 18.9717 14.25 18.9717 14.24 18.9717V18.9617Z" fill="#57B246"/>
<path d="M31.9701 16.4288C32.0901 17.4288 31.3801 18.2688 30.3601 18.3288C29.3501 18.3788 28.4301 17.5988 28.3201 16.5788C28.2101 15.5588 28.9301 14.6988 29.9301 14.6688C30.9301 14.6388 31.8401 15.4288 31.9601 16.4288H31.9701Z" fill="#57B246"/>
<path d="M29.85 17.3483C29.79 17.3483 29.74 17.3283 29.7 17.2883L29.17 16.8283C29.07 16.7483 29.06 16.5983 29.15 16.4983C29.23 16.3983 29.38 16.3883 29.48 16.4683L29.84 16.7783L30.74 15.7083C30.82 15.6083 30.97 15.5983 31.07 15.6783C31.17 15.7583 31.18 15.9083 31.1 16.0083L30.04 17.2583C30.04 17.2583 29.9399 17.3383 29.8799 17.3383C29.8799 17.3383 29.87 17.3383 29.86 17.3383L29.85 17.3483Z" fill="white"/>
<g style="mix-blend-mode:multiply">
<path opacity="0.1" d="M40.05 31.8809C31.13 32.6709 22.1 33.7609 13.14 35.1609C13.05 35.1809 12.97 35.1809 12.89 35.1809C12.54 35.1809 12.22 35.0709 11.95 34.8609C11.62 34.5909 11.42 34.2009 11.39 33.7509C11.24 31.2909 11.09 28.8309 10.94 26.3509C10.89 25.4309 11.55 24.6109 12.42 24.5209C21.15 23.5309 29.92 22.8409 38.56 22.4609C39.04 25.6209 39.54 28.7609 40.05 31.8809Z" fill="black"/>
<path d="M14.63 28.8095C14.28 28.8095 13.98 28.5495 13.94 28.1995C13.89 27.8195 14.16 27.4695 14.55 27.4195C18.89 26.8795 23.3 26.4195 27.63 26.0295C28.01 25.9995 28.35 26.2795 28.39 26.6595C28.42 27.0395 28.14 27.3795 27.76 27.4195C23.44 27.8095 19.06 28.2795 14.73 28.8095C14.7 28.8095 14.67 28.8095 14.64 28.8095H14.63Z" fill="black"/>
<path d="M14.84 31.7809C14.5 31.7809 14.2 31.5309 14.15 31.1809C14.1 30.8009 14.37 30.4509 14.75 30.4009C16.77 30.1309 18.79 29.8709 20.8 29.6309C21.19 29.5809 21.53 29.8609 21.57 30.2409C21.62 30.6209 21.34 30.9709 20.96 31.0109C18.95 31.2509 16.94 31.5109 14.93 31.7809C14.9 31.7809 14.87 31.7809 14.84 31.7809Z" fill="black"/>
<path d="M42.19 27.0023C42.44 28.4123 41.37 29.6423 39.8 29.7623C38.23 29.8923 36.78 28.8323 36.57 27.3723C36.36 25.9123 37.43 24.6623 38.97 24.5823C40.51 24.5023 41.94 25.5923 42.19 27.0023Z" fill="black"/>
<path d="M38.9701 28.4127C38.9001 28.4127 38.8201 28.3927 38.7601 28.3427L37.9101 27.7127C37.7601 27.5927 37.7201 27.3827 37.8401 27.2227C37.9501 27.0727 38.1701 27.0327 38.3301 27.1527L38.9101 27.5827L40.2701 26.0127C40.4001 25.8627 40.6201 25.8527 40.7601 25.9727C40.9101 26.1027 40.9201 26.3227 40.8001 26.4627L39.2301 28.2827C39.1601 28.3627 39.0601 28.4027 38.9701 28.4027V28.4127Z" fill="black"/>
</g>
<path d="M45.71 30.3198C35.28 31.1198 24.74 32.3498 14.11 33.9998C13.31 34.1298 12.62 33.5698 12.57 32.7498C12.41 30.2898 12.26 27.8198 12.12 25.3398C12.07 24.5198 12.66 23.7798 13.44 23.6898C23.77 22.5298 34 21.7798 44.11 21.4498C44.87 21.4298 45.59 21.9698 45.72 22.6698C46.11 24.7698 46.5 26.8698 46.9 28.9498C47.03 29.6398 46.5 30.2498 45.72 30.3098L45.71 30.3198Z" fill="#C5E8C4"/>
<path d="M13.88 34.1891C13.54 34.1891 13.21 34.0791 12.95 33.8691C12.62 33.5991 12.42 33.2091 12.39 32.7691C12.23 30.3091 12.08 27.8391 11.94 25.3591C11.89 24.4491 12.55 23.6191 13.42 23.5291C23.68 22.3691 34 21.6191 44.1 21.2891C44.12 21.2891 44.13 21.2891 44.15 21.2891C44.97 21.2891 45.74 21.8891 45.88 22.6491C46.27 24.7491 46.66 26.8491 47.06 28.9291C47.13 29.2891 47.05 29.6391 46.83 29.9291C46.58 30.2591 46.18 30.4591 45.72 30.4991C35.29 31.2991 24.66 32.5391 14.13 34.1791C14.05 34.1891 13.96 34.1991 13.88 34.1991V34.1891ZM44.15 21.6291H44.11C34.02 21.9591 23.71 22.7091 13.46 23.8591C12.77 23.9391 12.25 24.5891 12.29 25.3291C12.44 27.8091 12.59 30.2791 12.74 32.7391C12.76 33.0891 12.91 33.3891 13.17 33.5891C13.42 33.7891 13.75 33.8691 14.09 33.8191C24.63 32.1791 35.27 30.9391 45.71 30.1391C46.07 30.1091 46.38 29.9591 46.57 29.7091C46.73 29.4991 46.79 29.2491 46.74 28.9891C46.34 26.8991 45.95 24.8091 45.56 22.6991C45.45 22.0991 44.83 21.6191 44.17 21.6191L44.15 21.6291Z" fill="#57B246"/>
<path d="M15.63 27.8106C15.28 27.8106 14.98 27.5506 14.94 27.2006C14.89 26.8206 15.16 26.4706 15.55 26.4206C19.89 25.8806 27.83 25.2906 32.16 24.9006C32.54 24.8706 32.88 25.1506 32.92 25.5306C32.95 25.9106 32.67 26.2506 32.29 26.2906C27.97 26.6806 20.05 27.2706 15.72 27.8106C15.69 27.8106 15.66 27.8106 15.63 27.8106Z" fill="#57B246"/>
<path d="M15.84 30.7803C15.5 30.7803 15.2 30.5303 15.15 30.1803C15.1 29.8003 15.37 29.4503 15.75 29.4003C17.77 29.1303 25.15 28.3903 27.16 28.1503C27.55 28.1003 27.89 28.3803 27.93 28.7603C27.98 29.1403 27.7 29.4903 27.32 29.5303C25.31 29.7703 17.94 30.5103 15.93 30.7803C15.9 30.7803 15.87 30.7803 15.84 30.7803Z" fill="#57B246"/>
<path d="M43.19 25.9984C43.44 27.4084 42.37 28.6384 40.8 28.7584C39.23 28.8884 37.78 27.8284 37.57 26.3684C37.36 24.9084 38.43 23.6584 39.97 23.5784C41.51 23.4984 42.94 24.5884 43.19 25.9984Z" fill="#57B246"/>
<path d="M39.9701 27.4088C39.9001 27.4088 39.8201 27.3888 39.7601 27.3388L38.9101 26.7088C38.7601 26.5888 38.7201 26.3788 38.8401 26.2188C38.9501 26.0688 39.1701 26.0288 39.3301 26.1488L39.9101 26.5788L41.2701 25.0088C41.4001 24.8588 41.6201 24.8488 41.7601 24.9688C41.9101 25.0988 41.9201 25.3188 41.8001 25.4588L40.2301 27.2788C40.1601 27.3588 40.0601 27.3988 39.9701 27.3988V27.4088Z" fill="white"/>
<path d="M37.53 40.17C29.9 41.25 22.23 42.54 14.52 44.05C13.94 44.16 13.44 43.8 13.4 43.23C13.28 41.51 13.16 39.79 13.04 38.06C13 37.49 13.43 36.94 14 36.85C21.56 35.58 29.08 34.53 36.55 33.69C37.11 33.63 37.63 33.99 37.71 34.5C37.95 36.04 38.18 37.58 38.43 39.11C38.51 39.62 38.11 40.09 37.53 40.17Z" fill="#C5E8C4"/>
<path d="M14.3 44.1906C14.06 44.1906 13.84 44.1206 13.66 43.9806C13.43 43.8006 13.29 43.5406 13.27 43.2306C13.15 41.5106 13.03 39.7906 12.91 38.0606C12.87 37.4306 13.34 36.8206 13.97 36.7206C21.48 35.4606 29.07 34.4006 36.53 33.5606C37.15 33.4806 37.74 33.9006 37.82 34.4706C38.06 36.0106 38.29 37.5506 38.54 39.0806C38.58 39.3406 38.51 39.6006 38.35 39.8206C38.16 40.0706 37.87 40.2406 37.54 40.2906C29.92 41.3706 22.18 42.6706 14.53 44.1706C14.45 44.1906 14.37 44.1906 14.29 44.1906H14.3ZM36.67 33.8106C36.67 33.8106 36.59 33.8106 36.56 33.8106C29.1 34.6506 21.52 35.7106 14.01 36.9706C13.5 37.0506 13.12 37.5406 13.15 38.0506C13.27 39.7806 13.38 41.5006 13.51 43.2206C13.53 43.4506 13.63 43.6506 13.81 43.7906C14 43.9306 14.24 43.9806 14.49 43.9306C22.14 42.4306 29.88 41.1306 37.51 40.0506C37.78 40.0106 38.01 39.8806 38.16 39.6806C38.28 39.5206 38.33 39.3206 38.3 39.1306C38.06 37.6006 37.82 36.0606 37.58 34.5206C37.52 34.1106 37.12 33.8106 36.67 33.8106Z" fill="#57B246"/>
<path d="M15.61 39.651C15.38 39.651 15.17 39.481 15.13 39.241C15.08 38.971 15.26 38.721 15.53 38.671C18.69 38.121 21.91 37.601 25.09 37.111C25.36 37.071 25.61 37.251 25.65 37.521C25.69 37.791 25.51 38.041 25.24 38.081C22.07 38.561 18.86 39.081 15.7 39.631C15.67 39.631 15.64 39.631 15.62 39.631L15.61 39.651Z" fill="#57B246"/>
<path d="M15.77 41.731C15.54 41.731 15.33 41.561 15.29 41.331C15.24 41.061 15.42 40.811 15.69 40.761C17.16 40.491 18.63 40.231 20.1 39.981C20.37 39.931 20.62 40.111 20.67 40.381C20.72 40.651 20.54 40.901 20.27 40.951C18.81 41.201 17.34 41.461 15.87 41.731C15.84 41.731 15.81 41.731 15.78 41.731H15.77Z" fill="#57B246"/>
<path d="M35.78 37.0983C35.93 38.1283 35.13 39.0883 33.98 39.2483C32.83 39.4183 31.79 38.7083 31.65 37.6483C31.51 36.5983 32.32 35.6183 33.46 35.4783C34.59 35.3383 35.63 36.0583 35.78 37.0883V37.0983Z" fill="#57B246"/>
<path d="M33.4 38.2881C33.4 38.2881 33.3 38.2781 33.26 38.2481L32.65 37.8281C32.54 37.7481 32.51 37.5981 32.59 37.4881C32.67 37.3781 32.82 37.3481 32.93 37.4281L33.35 37.7181L34.39 36.4781C34.48 36.3781 34.63 36.3581 34.74 36.4481C34.84 36.5381 34.86 36.6881 34.77 36.7981L33.59 38.2081C33.54 38.2681 33.47 38.2981 33.4 38.2981V38.2881Z" fill="white"/>
</g>
</g>
<defs>
<clipPath id="clip0_17347_21954">
<rect width="48" height="48" fill="white"/>
</clipPath>
</defs>
</svg>
