<svg width="352" height="198" viewBox="0 0 352 198" fill="none" xmlns="http://www.w3.org/2000/svg">
<g clip-path="url(#clip0_15522_158694)">
<mask id="mask0_15522_158694" style="mask-type:luminance" maskUnits="userSpaceOnUse" x="21" y="0" width="309" height="198">
<path d="M330 0H21V198H330V0Z" fill="white"/>
</mask>
<g mask="url(#mask0_15522_158694)">
<path d="M38.3998 24.3337C43.4031 17.2579 47.6889 12.1661 69.9791 8.70411C105.289 3.21757 257.303 3.46052 285.62 10.3541C301.979 14.3425 317.611 14.9296 319.275 43.8706C320.586 66.5861 323.016 128.274 317.199 142.345C311.383 156.416 306.81 170.476 279.804 171.721C252.797 172.966 101.147 175.861 76.2166 174.616C51.286 173.371 38.4093 162.621 33.4251 150.2C28.4409 137.79 30.5169 71.1717 30.5169 71.1717C30.5169 71.1717 30.5647 35.4282 38.4093 24.3236L38.3998 24.3337Z" fill="#EBEBF2"/>
<mask id="mask1_15522_158694" style="mask-type:luminance" maskUnits="userSpaceOnUse" x="30" y="4" width="291" height="171">
<path d="M38.3998 24.3337C43.4031 17.2579 47.6889 12.1661 69.9791 8.70411C105.289 3.21757 257.303 3.46052 285.62 10.3541C301.979 14.3425 317.611 14.9296 319.275 43.8706C320.586 66.5861 323.016 128.274 317.199 142.345C311.383 156.416 306.81 170.476 279.804 171.721C252.797 172.966 101.147 175.861 76.2166 174.616C51.286 173.371 38.4093 162.621 33.4251 150.2C28.4409 137.79 30.5169 71.1717 30.5169 71.1717C30.5169 71.1717 30.5647 35.4282 38.4093 24.3236L38.3998 24.3337Z" fill="white"/>
</mask>
<g mask="url(#mask1_15522_158694)">
<path d="M30.0877 -6.69336H248.206V126.926H30.0877V-6.69336Z" stroke="white" stroke-width="1.33277" stroke-miterlimit="10" stroke-linecap="round" stroke-linejoin="round"/>
<path d="M30.0881 19.8477H248.207" stroke="white" stroke-width="1.33277" stroke-miterlimit="10" stroke-linecap="round" stroke-linejoin="round"/>
<path d="M30.0881 42.2793H248.207" stroke="white" stroke-width="1.33277" stroke-miterlimit="10" stroke-linecap="round" stroke-linejoin="round"/>
<path d="M30.0881 64.7109H248.207" stroke="white" stroke-width="1.33277" stroke-miterlimit="10" stroke-linecap="round" stroke-linejoin="round"/>
<path d="M30.0881 87.1445H248.207" stroke="white" stroke-width="1.33277" stroke-miterlimit="10" stroke-linecap="round" stroke-linejoin="round"/>
<path d="M30.0881 109.576H248.207" stroke="white" stroke-width="1.33277" stroke-miterlimit="10" stroke-linecap="round" stroke-linejoin="round"/>
<path d="M72.5862 20.1953V109.676" stroke="white" stroke-width="1.33277" stroke-miterlimit="10" stroke-linecap="round" stroke-linejoin="round"/>
<path d="M102.26 20.1953V109.676" stroke="white" stroke-width="1.33277" stroke-miterlimit="10" stroke-linecap="round" stroke-linejoin="round"/>
<path d="M131.933 20.1953V109.676" stroke="white" stroke-width="1.33277" stroke-miterlimit="10" stroke-linecap="round" stroke-linejoin="round"/>
<path d="M161.606 20.1953V109.676" stroke="white" stroke-width="1.33277" stroke-miterlimit="10" stroke-linecap="round" stroke-linejoin="round"/>
<path d="M191.28 20.1953V109.676" stroke="white" stroke-width="1.33277" stroke-miterlimit="10" stroke-linecap="round" stroke-linejoin="round"/>
<path fill-rule="evenodd" clip-rule="evenodd" d="M78.1849 126.785C78.1849 128.054 79.2123 129.084 80.4779 129.084H197.816C199.082 129.084 200.109 128.054 200.109 126.785C200.109 125.516 199.082 124.486 197.816 124.486H80.4779C79.2123 124.486 78.1849 125.516 78.1849 126.785Z" fill="white"/>
<path d="M38.2925 94.7945C38.2925 93.4006 39.4199 92.2706 40.8107 92.2706C42.2014 92.2706 43.3289 93.4006 43.3289 94.7945C43.3289 96.1884 42.2014 97.3184 40.8107 97.3184C39.4199 97.3184 38.2925 96.1884 38.2925 94.7945Z" stroke="white" stroke-width="0.53394" stroke-miterlimit="10"/>
<path d="M46.8127 93.6367H54.2413" stroke="white" stroke-width="0.53394" stroke-miterlimit="10" stroke-linecap="round" stroke-linejoin="round"/>
<path d="M46.8127 96.7305H58.8721" stroke="white" stroke-width="0.53163" stroke-miterlimit="10" stroke-linecap="round" stroke-linejoin="round"/>
<path d="M38.2925 103.39C38.2925 101.996 39.4199 100.866 40.8107 100.866C42.2014 100.866 43.3289 101.996 43.3289 103.39C43.3289 104.784 42.2014 105.914 40.8107 105.914C39.4199 105.914 38.2925 104.784 38.2925 103.39Z" stroke="white" stroke-width="0.53394" stroke-miterlimit="10"/>
<path d="M45.2693 102.232H52.6978" stroke="white" stroke-width="0.53394" stroke-miterlimit="10" stroke-linecap="round" stroke-linejoin="round"/>
<path d="M45.2693 105.326H58.8723" stroke="white" stroke-width="0.534497" stroke-miterlimit="10" stroke-linecap="round" stroke-linejoin="round"/>
<path d="M205.2 48.3887H241.823" stroke="white" stroke-width="1.16614" stroke-miterlimit="10" stroke-linecap="round"/>
<path d="M205.2 53.1934H241.823" stroke="white" stroke-width="1.16614" stroke-miterlimit="10" stroke-linecap="round"/>
<path d="M205.2 57.998H241.823" stroke="white" stroke-width="1.16614" stroke-miterlimit="10" stroke-linecap="round"/>
<path d="M200.723 48.3887H196.309" stroke="white" stroke-width="1.16614" stroke-miterlimit="10" stroke-linecap="round"/>
<path d="M200.723 53.1934H196.309" stroke="white" stroke-width="1.16614" stroke-miterlimit="10" stroke-linecap="round"/>
<path d="M200.723 57.998H196.309" stroke="white" stroke-width="1.16614" stroke-miterlimit="10" stroke-linecap="round"/>
<path d="M42.9949 148.023L56.508 148.044L56.9086 148.045L55.0412 148.042L42.9949 148.023ZM59.7029 194.033C59.725 194.611 59.7527 195.169 59.7856 195.71L59.7753 195.712C59.7403 195.171 59.7118 194.611 59.6887 194.033L59.7029 194.033ZM59.9102 197.429C59.8871 197.186 59.8666 196.936 59.8472 196.685L59.8522 196.686C59.8708 196.935 59.8891 197.188 59.9102 197.429ZM74.2367 227.36C74.8003 227.362 75.2603 226.897 75.2556 226.332C75.1384 209.803 71.8297 206.676 71.243 194.648L71.2441 194.282L71.2278 194.283C71.1936 193.493 71.169 192.669 71.159 191.798C71.1528 191.239 70.7059 190.783 70.1473 190.782C67.9731 190.779 62.853 190.771 60.6636 190.767C60.0999 190.766 59.6412 191.228 59.6479 191.793C59.6534 192.179 59.6606 192.557 59.6692 192.928L59.6528 192.929C59.6432 192.558 59.635 192.18 59.6305 191.794C59.6228 191.228 60.0836 190.766 60.6482 190.768L66.7938 190.777C67.3554 190.777 67.8106 190.323 67.8108 189.76L67.8147 185.899L68.178 185.909L68.1798 184.764L67.8152 184.773L67.8294 169.491C67.8297 168.928 68.2849 168.473 68.8465 168.474L70.5192 168.476C71.0808 168.478 71.5371 168.022 71.5373 167.459L71.5441 159.291C71.5453 158.728 71.0902 158.272 70.5286 158.271L67.3891 158.266C66.8285 158.265 66.3734 157.809 66.3736 157.246L66.3806 149.354C66.3817 148.64 66.9612 148.06 67.6747 148.061C68.3892 148.063 68.9687 147.483 68.9688 146.768L68.9758 138.876C68.977 138.314 68.522 137.857 67.9603 137.856L60.2227 137.844L29.0385 137.796C28.4769 137.796 28.0216 138.251 28.0205 138.813L28.0134 146.678C28.0132 147.241 27.5579 147.696 26.9963 147.696L25.4132 147.694L25.4257 148.264L25.4183 157.183C25.4181 157.746 25.8721 158.202 26.4338 158.203L34.0451 158.215L28.0036 158.205L28.0035 158.219L27.9893 158.219L28.0028 158.789L27.999 163.04L27.9989 163.881L27.9949 167.393C27.9947 167.955 28.4498 168.412 29.0114 168.412L29.9961 168.414C30.5577 168.415 31.0118 168.871 31.0116 169.434L30.9939 189.703C30.9927 190.266 31.4478 190.722 32.0094 190.724L48.0871 190.748L28.4468 190.718C27.8822 190.717 27.421 191.184 27.4277 191.749C27.4666 195.471 27.7355 198.426 28.1183 201.037L28.1175 201.607L28.2023 201.605C29.3647 209.089 31.4278 213.865 31.5248 226.276C31.5289 226.836 31.9797 227.295 32.5382 227.297L62.7071 227.343C63.2708 227.344 63.7298 226.879 63.726 226.315C63.712 224.323 63.6513 222.526 63.5547 220.885C63.6601 222.531 63.728 224.327 63.7435 226.326C63.7486 226.886 64.1994 227.345 64.7579 227.347L74.2367 227.36Z" fill="white"/>
<path d="M34.146 147.572L60.6448 147.476" stroke="#EBEBF2" stroke-width="1.06506" stroke-miterlimit="10" stroke-linecap="round"/>
<path d="M17.5586 151.461L44.0574 151.365" stroke="#EBEBF2" stroke-width="1.06506" stroke-miterlimit="10" stroke-linecap="round"/>
<path d="M30.9258 157.553L64.426 158.481" stroke="#EBEBF2" stroke-width="1.06506" stroke-miterlimit="10" stroke-linecap="round"/>
<path d="M30.6338 161.551L47.3972 161.826" stroke="#EBEBF2" stroke-width="1.06506" stroke-miterlimit="10" stroke-linecap="round"/>
<path d="M55.0815 160.857L73.3991 161.182" stroke="#EBEBF2" stroke-width="1.06506" stroke-miterlimit="10" stroke-linecap="round"/>
<path d="M32.5854 168.914L66.6498 169.88" stroke="#EBEBF2" stroke-width="1.06506" stroke-miterlimit="10" stroke-linecap="round"/>
<path d="M42.5483 165.043L65.9335 165.74" stroke="#EBEBF2" stroke-width="1.06506" stroke-miterlimit="10" stroke-linecap="round"/>
<path d="M47.9917 153.697L69.7384 154.274" stroke="#EBEBF2" stroke-width="1.06506" stroke-miterlimit="10" stroke-linecap="round"/>
<path d="M38.1187 173.954L68.2297 174.904" stroke="#EBEBF2" stroke-width="1.06506" stroke-miterlimit="10" stroke-linecap="round"/>
<path d="M258.55 45.4479C258.55 58.9708 269.485 69.9328 282.975 69.9328C296.465 69.9328 307.403 58.9708 307.403 45.4479C307.403 31.9249 296.465 20.9629 282.975 20.9629C269.485 20.9629 258.55 31.9249 258.55 45.4479Z" fill="white"/>
<path d="M282.977 65.3523C293.926 65.3523 302.834 56.4226 302.834 45.4467C302.834 34.4707 293.926 25.541 282.977 25.541C272.027 25.541 263.119 34.4707 263.119 45.4467C263.119 56.4226 272.027 65.3523 282.977 65.3523Z" fill="#EBEBF2"/>
<path d="M282.752 49.1143C282.899 49.1559 283.064 49.1272 283.19 49.0283L296.092 38.9921C296.309 38.8237 296.348 38.5114 296.18 38.2935C296.012 38.0768 295.699 38.0369 295.483 38.2053L282.893 47.9982L273.756 40.5138C273.544 40.3396 273.231 40.3711 273.057 40.5848C272.883 40.7972 272.915 41.1102 273.127 41.2843L282.571 49.0196C282.626 49.0653 282.687 49.0965 282.752 49.1143Z" fill="white" stroke="white" stroke-width="1.33261" stroke-miterlimit="2" stroke-linejoin="round"/>
<path fill-rule="evenodd" clip-rule="evenodd" d="M300.274 143.287C300.984 143.287 301.658 143.599 302.118 144.141C302.579 144.682 302.779 145.398 302.667 146.102C300.878 157.288 294.364 198.003 294.364 198.003H278.882C278.882 198.003 271.685 157.385 269.693 146.142C269.568 145.434 269.762 144.707 270.222 144.156C270.683 143.605 271.363 143.287 272.08 143.287H300.274Z" fill="white"/>
<mask id="mask2_15522_158694" style="mask-type:luminance" maskUnits="userSpaceOnUse" x="269" y="143" width="34" height="56">
<path d="M300.274 143.287C300.984 143.287 301.658 143.599 302.118 144.141C302.579 144.682 302.779 145.398 302.667 146.102C300.878 157.288 294.364 198.003 294.364 198.003H278.882C278.882 198.003 271.685 157.385 269.693 146.142C269.568 145.434 269.762 144.707 270.222 144.156C270.683 143.605 271.363 143.287 272.08 143.287H300.274Z" fill="white"/>
</mask>
<g mask="url(#mask2_15522_158694)">
<path fill-rule="evenodd" clip-rule="evenodd" d="M300.274 143.287C300.984 143.287 301.658 143.599 302.118 144.141C302.579 144.682 302.779 145.398 302.667 146.102C300.878 157.288 294.364 198.003 294.364 198.003H278.882C278.882 198.003 271.685 157.385 269.693 146.142C269.568 145.434 269.762 144.707 270.222 144.156C270.683 143.605 271.363 143.287 272.08 143.287H300.274Z" fill="white"/>
<path d="M304.329 157.863H267.976V160.293H304.329V157.863Z" fill="#EBEBF2"/>
<path d="M304.329 153.006H267.976V155.435H304.329V153.006Z" fill="#EBEBF2"/>
<path d="M304.329 148.146H267.976V150.576H304.329V148.146Z" fill="#EBEBF2"/>
</g>
<path d="M276.056 135.872C276.056 135.872 260.199 132.73 255.774 121.639C251.349 110.55 267.528 102.231 276.056 108.187C285.179 114.559 276.056 135.872 276.056 135.872Z" fill="white"/>
<path d="M275.672 135.605C275.672 135.605 284.758 153.402 289.002 163.412" stroke="white" stroke-width="1.07" stroke-miterlimit="1.5" stroke-linecap="round" stroke-linejoin="round"/>
<path d="M262.343 107.799C262.343 107.799 271.429 125.596 275.672 135.605" stroke="#EBEBF2" stroke-width="1.07" stroke-miterlimit="1.5" stroke-linecap="round" stroke-linejoin="round"/>
<path d="M255.347 114.371C255.347 114.371 266.128 120.69 276.061 135.869" stroke="#EBEBF2" stroke-width="1.07" stroke-miterlimit="1.5" stroke-linecap="round" stroke-linejoin="round"/>
<path d="M254.396 121.902C259.022 123.825 267.228 127.971 276.061 135.864" stroke="#EBEBF2" stroke-width="1.07" stroke-miterlimit="1.5" stroke-linecap="round" stroke-linejoin="round"/>
<path d="M271.569 106.238C271.569 106.238 270.119 118.673 276.239 135.763" stroke="#EBEBF2" stroke-width="1.07" stroke-miterlimit="1.5" stroke-linecap="round" stroke-linejoin="round"/>
<path d="M278.145 110.006C276.893 114.869 275.258 123.937 276.231 135.763" stroke="#EBEBF2" stroke-width="1.07" stroke-miterlimit="1.5" stroke-linecap="round" stroke-linejoin="round"/>
<path d="M295.927 136.987C295.927 136.987 311.784 133.845 316.209 122.754C320.634 111.665 304.455 103.347 295.927 109.303C286.804 115.674 295.927 136.987 295.927 136.987Z" fill="white"/>
<path d="M296.311 136.721C296.311 136.721 287.225 154.518 282.981 164.527" stroke="white" stroke-width="1.07" stroke-miterlimit="1.5" stroke-linecap="round" stroke-linejoin="round"/>
<path d="M309.64 108.914C309.64 108.914 300.554 126.711 296.31 136.72" stroke="#EBEBF2" stroke-width="1.07" stroke-miterlimit="1.5" stroke-linecap="round" stroke-linejoin="round"/>
<path d="M316.636 115.486C316.636 115.486 305.854 121.805 295.921 136.984" stroke="#EBEBF2" stroke-width="1.07" stroke-miterlimit="1.5" stroke-linecap="round" stroke-linejoin="round"/>
<path d="M317.587 123.018C312.961 124.941 304.755 129.086 295.921 136.98" stroke="#EBEBF2" stroke-width="1.07" stroke-miterlimit="1.5" stroke-linecap="round" stroke-linejoin="round"/>
<path d="M300.414 107.354C300.414 107.354 301.864 119.788 295.744 136.879" stroke="#EBEBF2" stroke-width="1.07" stroke-miterlimit="1.5" stroke-linecap="round" stroke-linejoin="round"/>
<path d="M293.838 111.121C295.089 115.984 296.724 125.052 295.752 136.878" stroke="#EBEBF2" stroke-width="1.07" stroke-miterlimit="1.5" stroke-linecap="round" stroke-linejoin="round"/>
<path d="M286.671 113.34C286.671 113.34 273.662 103.699 274.381 91.7786C275.099 79.8599 293.278 79.2834 298.458 88.3237C303.999 97.994 286.671 113.34 286.671 113.34Z" fill="white"/>
<path d="M286.414 112.938C286.414 112.938 287.056 132.92 286.634 143.787" stroke="white" stroke-width="1.07" stroke-miterlimit="1.5" stroke-linecap="round" stroke-linejoin="round"/>
<path d="M286.216 82.0879C286.216 82.0879 286.859 102.071 286.436 112.937" stroke="#EBEBF2" stroke-width="1.07" stroke-miterlimit="1.5" stroke-linecap="round" stroke-linejoin="round"/>
<path d="M277.09 85.0293C277.09 85.0293 284.152 95.3652 286.675 113.344" stroke="#EBEBF2" stroke-width="1.07" stroke-miterlimit="1.5" stroke-linecap="round" stroke-linejoin="round"/>
<path d="M273.023 91.4277C276.388 95.1512 282.045 102.42 286.673 113.346" stroke="#EBEBF2" stroke-width="1.07" stroke-miterlimit="1.5" stroke-linecap="round" stroke-linejoin="round"/>
<path d="M295.232 84.6309C295.232 84.6309 288.622 95.2509 286.872 113.323" stroke="#EBEBF2" stroke-width="1.07" stroke-miterlimit="1.5" stroke-linecap="round" stroke-linejoin="round"/>
<path d="M299.562 90.8516C296.362 94.7121 291.026 102.211 286.873 113.324" stroke="#EBEBF2" stroke-width="1.07" stroke-miterlimit="1.5" stroke-linecap="round" stroke-linejoin="round"/>
<rect width="87.4893" height="157" transform="matrix(-1 0 0 1 159.501 19)" fill="white"/>
<path d="M159.501 19L98.2582 28.8125V166.188L159.501 176V19Z" fill="#EBEBF2"/>
<path d="M149.002 33.7188L108.757 41.6914V153.309L149.002 161.281V33.7188Z" fill="#D2D2E3"/>
<path d="M108.756 41.6924V153.31L111.44 153.841V41.1602L108.756 41.6924Z" fill="#BFBFD3"/>
<rect width="3.49957" height="157" transform="matrix(-1 0 0 1 163 19)" fill="#BFBFD3"/>
<rect width="3.49957" height="157" transform="matrix(-1 0 0 1 74.4998 19)" fill="#D2D2E3"/>
</g>
<path d="M65.2343 38.2285H40.7242C40.7242 38.2285 42.5971 57.8755 37.1717 70.3288H61.6818C67.1076 57.8755 65.2343 38.2285 65.2343 38.2285Z" fill="#B2C8F0"/>
<path d="M40.0458 38.236C40.0405 48.8245 38.5202 57.8362 32.4541 66.4838L57.6504 66.4714C63.7167 57.8242 65.2367 48.8122 65.2417 38.2238L40.0458 38.236Z" fill="white"/>
<path d="M42.5645 44.6332C44.543 44.3175 47.2501 45.0318 48.2879 46.9166C48.9 48.0287 48.2927 49.6052 47.2436 50.2266C45.9151 51.0135 44.4775 50.3351 44.1876 48.8689C43.9629 47.7317 44.2769 46.3286 44.961 45.3933C45.9082 44.0987 47.3812 43.3049 48.8482 42.6602" stroke="#B2C8F0" stroke-width="0.53394" stroke-miterlimit="10" stroke-linecap="round" stroke-linejoin="round"/>
<path d="M51.9734 45.5918H61.5147" stroke="#B2C8F0" stroke-width="0.53394" stroke-miterlimit="10" stroke-linecap="round" stroke-linejoin="round"/>
<path d="M51.3594 48.9707H60.9006" stroke="#B2C8F0" stroke-width="0.53394" stroke-miterlimit="10" stroke-linecap="round" stroke-linejoin="round"/>
<path d="M42.1812 53.5977H59.4926" stroke="#B2C8F0" stroke-width="0.53394" stroke-miterlimit="10" stroke-linecap="round" stroke-linejoin="round"/>
<path d="M40.7529 56.0391H58.0644" stroke="#B2C8F0" stroke-width="0.53394" stroke-miterlimit="10" stroke-linecap="round" stroke-linejoin="round"/>
<path d="M38.2119 62.1211H55.5234" stroke="#B2C8F0" stroke-width="0.53394" stroke-miterlimit="10" stroke-linecap="round" stroke-linejoin="round"/>
</g>
<path d="M149.432 76.6497C156.298 76.6497 161.864 71.07 161.864 64.1871C161.864 57.3043 156.298 51.7246 149.432 51.7246C142.566 51.7246 137 57.3043 137 64.1871C137 71.07 142.566 76.6497 149.432 76.6497Z" fill="#0049CD"/>
<path d="M157.043 60.51C160.813 61.5239 164.687 59.2848 165.695 55.5088C166.703 51.7328 164.464 47.8498 160.694 46.8359C156.924 45.822 153.05 48.061 152.042 51.837C151.034 55.613 153.273 59.496 157.043 60.51Z" fill="#EB5757"/>
<path fill-rule="evenodd" clip-rule="evenodd" d="M160.237 68.2344L167.251 73.063L156.852 71.2704L160.237 68.2344Z" fill="#0049CD"/>
<path fill-rule="evenodd" clip-rule="evenodd" d="M145.621 71.2692C145.233 71.2692 144.867 71.083 144.639 70.7672C144.411 70.4515 144.348 70.0455 144.47 69.6742C145.158 67.5842 147.119 66.0645 149.432 66.0645C151.746 66.0645 153.707 67.5842 154.377 69.68C154.497 70.0455 154.435 70.4457 154.21 70.7568C153.986 71.0668 153.626 71.2518 153.243 71.2518C151.255 71.2692 147.609 71.2692 145.621 71.2692Z" fill="white"/>
<path d="M149.432 65.1978C151.663 65.1978 153.471 63.3854 153.471 61.1497C153.471 58.914 151.663 57.1016 149.432 57.1016C147.202 57.1016 145.394 58.914 145.394 61.1497C145.394 63.3854 147.202 65.1978 149.432 65.1978Z" fill="white"/>
<path d="M158.272 58.3288C158.025 58.289 157.823 58.1742 157.664 57.9846C157.505 57.7949 157.449 57.5561 157.495 57.2683C157.536 57.013 157.659 56.8125 157.864 56.6668C158.07 56.5213 158.303 56.4692 158.562 56.5109C158.817 56.5519 159.017 56.6736 159.164 56.8757C159.31 57.0782 159.363 57.3069 159.322 57.5623C159.277 57.846 159.15 58.0542 158.942 58.1871C158.734 58.3199 158.511 58.3672 158.272 58.3288ZM156.371 51.1889C156.432 50.8038 156.618 50.4336 156.928 50.0781C157.238 49.7226 157.65 49.4532 158.165 49.27C158.679 49.0868 159.252 49.0459 159.884 49.1474C160.47 49.2418 160.971 49.4336 161.386 49.7226C161.8 50.0117 162.1 50.3624 162.286 50.7746C162.471 51.1869 162.529 51.6119 162.46 52.0497C162.405 52.3942 162.287 52.685 162.106 52.9219C161.925 53.1588 161.723 53.356 161.501 53.5136C161.279 53.6712 160.883 53.9329 160.315 54.2986C160.157 54.4022 160.029 54.4949 159.931 54.5768C159.833 54.6587 159.757 54.7359 159.704 54.8084C159.651 54.8809 159.607 54.9549 159.573 55.0304C159.538 55.1059 159.482 55.2394 159.406 55.4308C159.262 55.84 158.988 56.0119 158.583 55.9469C158.373 55.913 158.207 55.8157 158.085 55.6548C157.963 55.4939 157.924 55.2776 157.967 55.006C158.021 54.6656 158.121 54.3791 158.266 54.1468C158.411 53.9144 158.585 53.718 158.789 53.5576C158.993 53.397 159.264 53.2109 159.6 52.999C159.895 52.8137 160.11 52.6725 160.244 52.5756C160.377 52.4786 160.495 52.3656 160.596 52.2363C160.698 52.1072 160.762 51.9596 160.788 51.7933C160.84 51.4691 160.763 51.1762 160.558 50.9145C160.353 50.6529 160.06 50.4914 159.679 50.4302C159.234 50.3586 158.889 50.4184 158.642 50.6095C158.396 50.8006 158.165 51.1033 157.95 51.5176C157.739 51.9536 157.442 52.1405 157.057 52.0787C156.831 52.0423 156.652 51.9315 156.522 51.7463C156.392 51.5611 156.342 51.3753 156.371 51.1889Z" fill="white"/>
<path d="M227.216 92.1696C224.736 90.8234 207.615 82.3809 207.615 82.3809H195.805C195.805 82.3809 181.571 88.9776 179.091 90.3224C176.611 91.6686 181.262 157.46 181.262 157.46L197.01 155.891L203.488 154.575L222.26 149.626C222.26 149.626 227.769 95.9278 225.289 94.5816" fill="#FFC7A1"/>
<path fill-rule="evenodd" clip-rule="evenodd" d="M226.971 162.545L229.485 193.383H171.173L176.488 162.545H226.971Z" fill="#21B531"/>
<path d="M205.226 88.7716L199.631 90.1962C197.502 90.7371 195.337 89.4467 194.797 87.3125L191.544 74.4672C191.003 72.333 192.291 70.1642 194.42 69.622L200.015 68.1974C202.144 67.6565 204.309 68.9469 204.849 71.0812L208.103 83.9264C208.643 86.0606 207.355 88.2294 205.226 88.7716Z" fill="#FFC7A1"/>
<path d="M204.849 71.0812C204.308 68.9469 202.145 67.6565 200.016 68.1974L194.42 69.622C192.291 70.1642 191.003 72.333 191.544 74.4672L193.549 82.3862C198.556 82.7078 203.404 80.6174 206.628 78.1058L204.849 71.0812Z" fill="#EA989D"/>
<path d="M179.486 117.626C176.369 108.577 170.101 114.535 169.585 115.113C166.838 118.186 163.743 129.757 161.042 144.852C161.042 144.852 159.193 153.533 173.073 147.09C173.073 147.09 180.814 121.483 179.486 117.626Z" fill="#FFC7A1"/>
<path d="M181.259 90.9007C181.259 90.9007 174.849 91.8753 173.012 93.3483C166.518 98.5568 159.523 128.097 159.523 128.097C159.523 128.097 168.859 134.62 178.076 133.117L185.339 110.791C185.339 110.791 187.801 94.0208 181.259 90.9007Z" fill="#0049CD"/>
<path d="M193.633 82.6035C193.633 82.6035 198.031 88.169 198.748 94.6102L197.201 133.204L194.665 177.197C194.665 177.197 172.601 176.127 173.403 168.716C174.873 155.13 176.989 147.941 176.175 136.042C174.367 109.599 174.975 92.3165 174.975 92.3165C174.975 92.3165 177.518 88.9504 191.718 83.9045" fill="#0049CD"/>
<path d="M174.975 156.713C175.352 148.604 176.85 141.657 176.543 136.073C176.124 128.427 175.999 116.163 177.376 107.52" stroke="#00338F" stroke-width="1.9957" stroke-miterlimit="2" stroke-linecap="round" stroke-linejoin="bevel"/>
<path d="M208.774 81.3242C208.774 81.3242 198.594 94.3157 198.75 94.2372L194.221 151.136C194.221 151.136 194.039 177.094 194.666 177.197C213.684 180.321 240.281 168.397 240.281 168.397C240.281 168.397 228.115 148.471 227.705 140.005C226.425 113.589 229.522 87.812 229.522 87.812C229.522 87.812 222.871 82.79 213.308 81.9807" fill="#0049CD"/>
<path d="M198.75 95.0176C198.75 95.0176 195.85 112.868 195.631 121.245C195.353 131.888 194.205 173.77 194.205 173.77" stroke="#00338F" stroke-width="1.99913" stroke-miterlimit="1.5" stroke-linecap="round" stroke-linejoin="round"/>
<path d="M192.638 82.6035C192.638 82.6035 187.76 86.7232 188.913 98.5823C188.913 98.5823 192.945 92.102 194.585 91.5994C196.224 91.0966 197.715 93.2484 198.75 95.5662" stroke="#00338F" stroke-width="1.99913" stroke-miterlimit="1.5" stroke-linecap="round" stroke-linejoin="round"/>
<path d="M249.062 140.842C248.117 131.077 237.54 108.475 237.54 108.475C237.54 108.475 222.885 100.431 225.907 117.598L233.27 140.025C233.27 140.025 245.702 154.38 249.062 140.842Z" fill="#FFC7A1"/>
<path d="M227.884 85.962C232.194 87.8687 234.133 89.6346 235.238 91.3329C236.343 93.0312 247.641 115.594 248.583 117.85C249.525 120.105 238.642 131.448 227.326 126.932L219.17 104.998C219.17 104.998 216.836 81.076 227.884 85.962Z" fill="#0049CD"/>
<path d="M235.933 98.7666C236.627 98.1912 237.656 98.2867 238.231 98.9798C238.807 99.6725 238.712 100.7 238.018 101.276C237.325 101.851 236.296 101.756 235.72 101.063C235.144 100.37 235.24 99.3415 235.933 98.7666ZM277.615 66.7706C277.379 65.6809 276.884 64.6317 276.122 63.7145L275.084 62.465L251.031 82.4169L250.817 82.1597C250.246 81.4724 249.216 81.3763 248.528 81.9468C248.234 82.1913 248.055 82.5227 247.984 82.8728C243.411 80.8322 237.881 81.4052 233.767 84.8176C227.998 89.6028 227.204 98.155 231.994 103.92C236.783 109.685 245.343 110.479 251.112 105.694C255.225 102.282 256.806 96.9551 255.641 92.0889C255.998 92.0838 256.357 91.9685 256.651 91.7241C257.339 91.1535 257.434 90.1241 256.863 89.4368L256.65 89.1801L264.37 82.7763L264.096 80.6443L266.79 80.7687L270.993 77.2821L271.979 73.9809L274.848 74.085L275.187 73.8039C277.316 72.0377 278.162 69.2991 277.615 66.7706Z" fill="#FFBB59"/>
<path d="M276.75 64.21L255.106 82.1646C254.559 82.6177 254.484 83.4349 254.937 83.9808C255.391 84.5267 256.208 84.6026 256.755 84.1495L277.793 66.6982" stroke="white" stroke-width="2.00216" stroke-miterlimit="10" stroke-linecap="round" stroke-linejoin="round"/>
<path d="M251.031 82.4209L256.782 89.3428" stroke="#FB9243" stroke-width="2.00216" stroke-miterlimit="10" stroke-linecap="round" stroke-linejoin="round"/>
<path d="M247.984 82.876L255.426 91.8325" stroke="white" stroke-width="2.00216" stroke-miterlimit="10" stroke-linecap="round" stroke-linejoin="round"/>
<path d="M235.349 88.9383C239.403 85.5753 245.419 86.1335 248.785 90.1852C252.151 94.2369 251.594 100.248 247.539 103.611C243.485 106.974 237.469 106.416 234.103 102.364C230.737 98.3123 231.295 92.3014 235.349 88.9383Z" stroke="#FB9243" stroke-width="2.00255" stroke-miterlimit="10"/>
<path d="M247.208 120.901C243.989 124.828 235.777 130.305 227.324 126.932L219.686 109.73" stroke="#00338F" stroke-width="2.0023" stroke-miterlimit="2" stroke-linecap="round" stroke-linejoin="round"/>
<path d="M209.144 81.3242C209.144 81.3242 213.242 86.7236 210.448 98.5829C210.448 98.5829 205.437 93.3159 203.311 92.4021C201.311 91.5417 199.853 93.5948 198.751 95.6578" stroke="#00338F" stroke-width="1.99913" stroke-miterlimit="1.5" stroke-linecap="round" stroke-linejoin="round"/>
<path fill-rule="evenodd" clip-rule="evenodd" d="M200.978 98.5855L201.525 133.956L195.44 140.811L190.913 133.956L195.602 98.0371L200.978 98.5855Z" fill="#21B531"/>
<path d="M200.978 98.584L201.525 133.955L195.508 140.809" stroke="white" stroke-width="1.33413" stroke-miterlimit="1.5" stroke-linecap="round" stroke-linejoin="round"/>
<path fill-rule="evenodd" clip-rule="evenodd" d="M200.978 98.5817C200.156 99.5699 196.299 99.1786 195.602 98.3075C194.692 97.1721 194.615 92.0708 194.687 92.5495C194.687 92.5495 198.488 91.0854 203.167 93.3721C203.167 93.3721 202.598 96.6344 200.978 98.5817Z" fill="#21B531"/>
<path d="M202.893 94.1953C202.893 94.1953 202.598 96.6351 200.978 98.5824C200.598 99.0403 199.565 99.2018 198.497 99.1571" stroke="white" stroke-width="1.33413" stroke-miterlimit="1.5" stroke-linecap="round" stroke-linejoin="round"/>
<path d="M219.236 46.8846C219.236 46.8846 217.781 42.1037 215.533 39.1572C217.907 39.313 219.99 38.7702 219.99 38.7702C215.11 37.5791 211.826 35.8357 209.696 34.502C209.031 34.0263 205.454 32.072 205.454 32.072L205.461 32.0804C203.322 30.8558 202.899 29.8397 200.016 29.2346C194.241 28.022 189.283 32.7358 189.283 32.7358C189.283 32.7358 184.432 32.1762 183.509 32.7358C183.066 33.003 179.95 35.4307 177.898 38.8432V38.8409C177.898 38.8409 174.226 44.4342 172.087 45.5977C172.087 45.5977 173.586 45.6385 175.132 45.3245C174.148 48.7012 174.829 52.9705 174.829 58.347C174.829 63.8086 183.17 70.2347 183.17 70.2347L210.984 69.6332C210.984 69.6332 222.331 59.2924 219.236 46.8846Z" fill="#12161C"/>
<path d="M207.682 43.8047L183.947 44.5512L179.294 50.1146C177.234 54.9579 178.242 60.5932 179.682 65.748C180.828 69.8496 180.71 74.8906 184.438 76.7059C193.614 81.1754 202.584 79.2881 206.578 74.8774C207.825 73.4994 209.494 71.6494 210.314 69.9419C211.83 67.3045 212.382 62.9765 212.554 61.1348C213.204 54.9363 211.753 48.3688 207.682 43.8047Z" fill="#FFC7A1"/>
<path d="M208.587 61.872C208.585 57.9551 212.493 55.9992 214.106 56.4676C217.744 57.5226 219.328 60.4663 218.5 63.6069C217.632 66.8949 214.11 68.8405 210.878 67.8078C210.057 67.5461 208.588 63.5415 208.587 61.872Z" fill="#FFC7A1"/>
<path d="M208.588 62.3827C208.309 62.3827 208.082 62.1551 208.082 61.8747C208.082 59.2841 209.612 57.7444 210.522 57.0578C211.759 56.1255 213.257 55.693 214.249 55.9805C214.517 56.0584 214.672 56.34 214.595 56.6084C214.517 56.878 214.237 57.0338 213.967 56.9559C213.385 56.787 212.223 57.0458 211.132 57.869C210.371 58.4417 209.095 59.725 209.095 61.8747C209.095 62.1551 208.868 62.3827 208.588 62.3827Z" fill="#EA989D" stroke="#EA989D" stroke-width="0.395882" stroke-miterlimit="2" stroke-linejoin="round"/>
<path d="M211.779 61.3395C212.907 59.6313 214.77 58.6853 216.806 58.7207C217.972 58.7405 217.837 60.5517 216.672 60.5317C215.28 60.5079 214.047 61.1932 213.284 62.3495C212.638 63.3252 211.133 62.3163 211.779 61.3395Z" fill="#EA989D"/>
<path d="M194.564 44.523C195.506 46.1095 199.729 50.5981 199.729 50.5981C199.729 50.5981 203.357 55.2401 208.554 56.8026V53.3421C208.554 52.4482 208.912 55.9027 211.726 58.1794C211.726 58.1794 213.904 47.2143 211.726 43.8484C208.706 39.1801 198.405 36.3762 194.461 38.6229C192.981 39.4653 193.799 43.2349 194.564 44.523Z" fill="#12161C"/>
<path d="M179.502 49.6169C179.502 49.6169 178.615 55.9507 180.551 60.6227C180.551 60.6227 177.35 59.7851 177.455 54.1642C177.455 54.1642 177.283 46.6284 179.502 49.6169Z" fill="#12161C"/>
<path d="M186.607 44.7937C186.607 44.7937 185.952 37.5348 188.942 36.7607C192.74 35.777 195.328 46.1106 200.371 52.6458C200.371 52.6458 194.615 52.4804 193.077 48.6449C193.077 48.6449 194.542 52.0946 194.967 53.2641C194.967 53.2641 189.769 53.3264 188.348 44.9579L186.607 44.7937Z" fill="#12161C"/>
<path d="M183.705 44.7955L187.352 41.0391L188.347 44.9597L183.705 44.7955Z" fill="#595C60"/>
<path d="M192.248 65.9202C192.248 65.9202 190.45 61.7514 194.395 63.6466" stroke="#12161C" stroke-width="1.32967" stroke-miterlimit="10" stroke-linecap="round"/>
<path d="M198.534 59.2905C198.495 61.1112 199.165 62.6924 199.922 63.6152C200.686 64.5581 201.536 64.8414 202.019 64.5519C202.991 63.8825 202.69 61.6393 202.775 59.3446L202.775 59.3396C202.77 59.0469 202.586 58.7861 202.31 58.688L200.987 58.2217L202.477 57.3236C202.684 57.1985 202.812 56.9729 202.812 56.7295C202.816 55.5158 202.716 54.5381 202.14 54.1205C201.663 53.8178 200.807 54.0794 200.021 55.0026C199.243 55.9057 198.537 57.4705 198.534 59.2905Z" fill="#12161C"/>
<path d="M183.483 60.4859C183.444 62.3065 184.114 63.8878 184.871 64.8105C185.635 65.7534 186.485 66.0367 186.968 65.7473C187.94 65.0779 187.639 62.8346 187.724 60.5399L187.724 60.5349C187.719 60.2422 187.535 59.9814 187.259 59.8834L185.936 59.417L187.425 58.5189C187.633 58.3938 187.761 58.1682 187.761 57.9248C187.765 56.7111 187.664 55.7334 187.088 55.3158C186.612 55.0131 185.756 55.2747 184.97 56.1979C184.192 57.101 183.486 58.6658 183.483 60.4859Z" fill="#12161C"/>
<path d="M189.047 53.3694C189.047 53.3694 185.7 49.2936 182.922 54.5478" stroke="#12161C" stroke-width="1.32967" stroke-miterlimit="10" stroke-linecap="round"/>
<path d="M203.02 68.1752C203.33 68.6265 203.401 69.7008 202.9 70.7951C202.414 71.8649 201.261 73.3087 198.498 74.1675C195.786 75.0092 194.153 74.4216 193.203 73.8455C191.014 72.5179 191.771 70.3482 192.661 69.8567C193.608 69.335 195.072 70.3385 196.977 69.7624C198.351 69.3468 199.669 67.7195 200.198 67.4862C201.37 66.9853 202.374 67.222 203.02 68.1752Z" fill="#12161C"/>
<mask id="mask3_15522_158694" style="mask-type:luminance" maskUnits="userSpaceOnUse" x="191" y="67" width="13" height="8">
<path d="M200.198 67.4877C199.67 67.721 198.352 69.3482 196.977 69.7639C196.088 70.0333 195.294 69.9575 194.604 69.8532C193.818 69.7354 193.166 69.5803 192.662 69.8585C191.772 70.3487 191.014 72.5196 193.204 73.8466C194.153 74.4229 195.787 75.0101 198.498 74.1686C201.262 73.3097 202.414 71.8659 202.9 70.7952C203.402 69.7007 203.33 68.6278 203.021 68.1755C202.461 67.3508 201.634 67.0631 200.661 67.3262C200.51 67.3668 200.356 67.4203 200.198 67.4877Z" fill="white"/>
</mask>
<g mask="url(#mask3_15522_158694)">
<path d="M203.28 74.9301C203.525 76.7213 201.991 78.4097 199.856 78.703C197.72 78.9943 195.791 77.7797 195.546 75.9886C195.303 74.1972 196.835 72.5079 198.97 72.2156C201.107 71.9232 203.035 73.1379 203.28 74.9301Z" fill="#EB5757"/>
<path d="M190.597 70.2031C190.597 70.2031 193.71 72.362 197.613 71.0755C201.517 69.7878 204.309 65.8949 204.309 65.8949C204.309 65.8949 195.951 65.5089 190.597 70.2031Z" fill="white"/>
</g>
<path d="M200.197 67.4861C199.669 67.7194 198.351 69.3466 196.976 69.7623C196.087 70.0317 195.292 69.9558 194.603 69.8515C193.817 69.7335 193.165 69.5784 192.661 69.8566C191.771 70.3468 191.014 72.5178 193.203 73.8451C194.152 74.4215 195.786 75.0088 198.497 74.1673C201.261 73.3085 202.413 71.8648 202.899 70.7939C203.401 69.6994 203.329 68.6264 203.019 68.1741C202.459 67.3493 201.633 67.0615 200.659 67.3246C200.509 67.3652 200.355 67.4187 200.197 67.4861Z" stroke="#12161C" stroke-width="0.998509" stroke-miterlimit="2" stroke-linejoin="round"/>
<path d="M196.329 52.5645C196.512 52.1224 196.885 51.6372 197.39 51.1915C199.49 49.3399 203.882 48.1693 206.47 53.5469" stroke="#12161C" stroke-width="1.32967" stroke-miterlimit="10" stroke-linecap="round"/>
<path d="M261.273 102.277C259.447 109.592 257.865 116.979 255.79 124.227C251.539 139.082 248.33 141.459 247.096 143.899C245.856 146.354 239.818 146.085 238.364 143.62C233.583 135.519 245.234 115.538 253.273 101.255C257.173 98.1234 261.5 101.373 261.273 102.277Z" fill="#FFC7A1"/>
<path d="M250.708 104.375C250.827 104.195 251.011 104.073 251.223 104.031C251.437 103.99 251.653 104.033 251.832 104.156C252.012 104.275 252.135 104.46 252.176 104.672C252.218 104.886 252.174 105.102 252.053 105.282C249.64 108.882 241.911 122.981 239.693 134.169C239.607 134.596 239.191 134.882 238.762 134.809L238.753 134.807L238.699 134.794C238.503 134.745 238.336 134.627 238.224 134.459C238.103 134.279 238.06 134.061 238.101 133.85C239.146 128.584 241.32 122.797 243.621 117.694C246.375 111.586 249.311 106.456 250.708 104.375Z" fill="#EA989D"/>
<path d="M260.91 103.688C258.553 105.885 254.581 104.402 253.135 102.266C251.45 99.7768 252.376 96.7457 253.68 94.0672C253.25 93.8278 252.824 93.5877 252.396 93.3535C251.286 92.7476 250.171 92.142 249.06 91.5373C248.188 91.0587 247.242 90.2903 247.661 89.1115C248.041 88.0469 249.175 87.5714 250.187 87.5513C251.305 87.5311 252.45 87.8218 253.491 88.1217C253.6 88.1536 256.027 89.3617 256.133 89.3957C256.098 89.2652 254.77 85.3229 253.242 83.2341C252.529 82.259 252.104 81.0045 252.894 79.8731C253.622 78.8265 254.858 78.3524 255.942 78.8367C255.813 78.3238 255.709 77.7908 255.819 77.2505C255.97 76.507 256.489 75.9289 257.208 75.6731C258.052 75.3716 258.79 75.5551 259.409 75.966C259.415 75.8387 259.425 75.7099 259.446 75.578C259.579 74.7727 260.008 73.9913 260.766 73.5823C261.388 73.2488 262.107 73.2472 262.715 73.4841C264.055 74.0107 265 75.2051 265.607 76.4492C268.163 81.6904 268.793 88.7271 265.831 94.9149C264.827 97.0121 263.665 99.0396 262.618 101.118C262.113 102.119 261.616 103.03 260.91 103.688Z" fill="#FFC7A1"/>
<path d="M260.016 91.8752C258.308 90.6069 256.475 89.5003 254.538 88.5794C253.624 88.1442 252.689 87.7115 251.717 87.3992C250.842 87.1181 249.859 86.9832 248.928 87.3402C247.985 87.7034 247.163 88.5496 247.089 89.5722C247.043 90.2216 248.047 90.2418 248.094 89.5901C248.143 88.9181 248.749 88.3972 249.378 88.2193C250.169 87.9959 250.971 88.2241 251.681 88.4806C253.455 89.1249 255.15 89.9885 256.75 90.9506C257.673 91.5045 258.565 92.1043 259.427 92.7441C259.926 93.1146 260.514 92.2456 260.016 91.8752Z" fill="#EA989D" stroke="#EA989D" stroke-width="0.59871" stroke-miterlimit="2" stroke-linejoin="round"/>
<path d="M262.218 91.6324C262.225 89.2092 261.748 86.8523 260.818 84.694C260.352 83.6147 259.774 82.5943 259.106 81.6403C258.435 80.6834 257.669 79.7506 256.764 79.0099C255.779 78.2056 254.341 77.8647 253.159 78.7699C252.621 79.1821 253.26 79.9077 253.794 79.4986C254.645 78.8456 255.711 79.4525 256.314 80.0036C257.083 80.7038 257.754 81.5288 258.347 82.3835C259.52 84.0669 260.368 86.0075 260.822 88.0528C261.078 89.2098 261.216 90.4051 261.213 91.6131C261.211 91.885 261.371 92.1223 261.663 92.1282C261.912 92.133 262.217 91.9056 262.218 91.6324Z" fill="#EA989D" stroke="#EA989D" stroke-width="0.59871" stroke-miterlimit="2" stroke-linejoin="round"/>
<path d="M266.334 90.3276C266.507 87.1311 265.738 84.025 264.291 81.3193C263.523 79.8844 262.579 78.5514 261.507 77.3403C260.507 76.21 259.235 75.0039 257.515 75.2546C256.711 75.3723 255.908 75.8662 255.513 76.6139C255.119 77.3572 255.171 78.2741 255.714 78.8479C256.141 79.298 256.929 78.5991 256.501 78.1462C256.162 77.7905 256.199 77.2109 256.542 76.8044C256.927 76.3479 257.552 76.1861 258.093 76.2419C259.472 76.3823 260.436 77.6724 261.232 78.641C262.958 80.7376 264.299 83.1981 264.932 85.9111C265.265 87.3351 265.41 88.8124 265.328 90.3084C265.293 90.9579 266.298 90.9795 266.334 90.3276Z" fill="#EA989D" stroke="#EA989D" stroke-width="0.59871" stroke-miterlimit="2" stroke-linejoin="round"/>
<path d="M256.789 89.5649C256.594 87.6306 255.959 85.7919 254.934 84.2054C254.149 82.9894 252.361 81.1896 253.614 79.5404C254.024 79.0022 253.202 78.487 252.792 79.0251C252.219 79.7793 252.094 80.7533 252.278 81.6063C252.499 82.6318 253.126 83.4521 253.713 84.2715C254.869 85.8866 255.583 87.7643 255.788 89.803C255.854 90.4442 256.853 90.2023 256.789 89.5649Z" fill="#EA989D" stroke="#EA989D" stroke-width="0.59871" stroke-miterlimit="2" stroke-linejoin="round"/>
<path d="M267.345 92.6311C268.57 89.3093 268.429 85.7982 267.841 82.5147C267.523 80.7327 267.122 78.9378 266.41 77.2985C265.719 75.7055 264.623 73.9286 262.908 73.3194C262.105 73.0346 261.087 73.0658 260.306 73.5745C259.503 74.0955 258.996 75.0027 259.114 75.9178C259.196 76.5556 260.196 76.314 260.115 75.6785C260.039 75.0918 260.482 74.5142 261.034 74.2874C261.662 74.0284 262.365 74.1558 262.904 74.4554C264.275 75.2147 265.11 76.8079 265.667 78.2314C266.243 79.7008 266.581 81.2788 266.858 82.851C267.115 84.3137 267.29 85.8063 267.273 87.3174C267.254 89.0126 267.005 90.7159 266.4 92.3573C266.169 92.982 267.114 93.2594 267.345 92.6311Z" fill="#EA989D" stroke="#EA989D" stroke-width="0.59871" stroke-miterlimit="2" stroke-linejoin="round"/>
<path d="M183.671 123.622C183.602 124.912 190.455 128.235 193.183 117.958C193.664 116.145 194.952 110.899 195.172 110.093C195.46 109.059 196.127 107.818 195.853 106.722C195.625 105.816 194.712 105.487 193.884 105.735C193.983 105.537 194.084 105.331 194.197 105.139C194.681 104.293 195.295 103.402 195.184 102.384C195.124 101.793 194.813 101.196 194.309 100.874C194.276 100.408 194.145 99.9547 193.833 99.6091C193.407 99.1161 192.886 99.0952 192.394 99.2688C192.777 98.4036 193.2 97.3547 192.588 96.5855C191.829 95.6421 190.485 96.0619 189.787 96.8458C188.126 98.7122 187.54 101.549 187.304 103.94C186.671 110.372 183.992 117.571 183.671 123.622Z" fill="#FFC89E"/>
<path d="M190.196 111.626C190.355 110.279 190.934 109.067 191.606 107.904C192.274 106.746 193.02 105.324 194.445 105.021C195.029 104.897 195.249 105.797 194.665 105.921C193.49 106.171 192.878 107.543 192.336 108.49C191.774 109.473 191.256 110.516 191.122 111.655C191.053 112.242 190.126 112.218 190.196 111.626Z" fill="#EA989D" stroke="#EA989D" stroke-width="0.532806" stroke-miterlimit="2" stroke-linejoin="round"/>
<path d="M188.502 108.205C188.786 104.912 190.806 101.89 193.769 100.403C194.301 100.136 194.744 100.949 194.21 101.216C191.547 102.553 189.684 105.259 189.428 108.234C189.378 108.824 188.451 108.8 188.502 108.205Z" fill="#EA989D" stroke="#EA989D" stroke-width="0.532806" stroke-miterlimit="2" stroke-linejoin="round"/>
<path d="M187.226 105.608C187.311 103.629 188.152 101.732 189.537 100.319C190.191 99.6529 191.02 99.0028 191.909 98.6919C193.019 98.3027 193.737 99.0721 194.135 100.025C194.364 100.569 193.552 101.016 193.322 100.466C193.194 100.162 193.033 99.6842 192.702 99.5407C192.357 99.3931 191.927 99.6807 191.639 99.8461C190.96 100.238 190.357 100.753 189.846 101.348C188.824 102.54 188.218 104.069 188.151 105.636C188.125 106.231 187.2 106.204 187.226 105.608Z" fill="#EA989D" stroke="#EA989D" stroke-width="0.532806" stroke-miterlimit="2" stroke-linejoin="round"/>
<path d="M189.793 123.103L174.594 152.695C174.594 152.695 169.261 158.478 163.483 154.115C158.741 150.534 161.085 145.07 161.085 145.07L185.775 112.334L189.793 123.103Z" fill="#FFC7A1"/>
<path d="M182.156 118.336L166.168 139.396" stroke="#EA989D" stroke-width="1.33" stroke-miterlimit="1.5" stroke-linecap="round" stroke-linejoin="round"/>
<path d="M103 98C104.105 98 105 98.8954 105 100C105 100.74 104.597 101.384 104 101.729V104C104 104.552 103.552 105 103 105C102.448 105 102 104.552 102 104V101.729C101.403 101.384 101 100.74 101 100C101 98.8954 101.895 98 103 98Z" fill="#BFBFD3"/>
<path d="M106 79H106.063V79.9082L106.127 80.8223L106.063 80.8262V92.1719L106.128 92.1768L106.063 93.0967V94H106L105.988 94.1719L101 93.8232L101.14 91.8281L104.063 92.0322V80.9658L101.14 81.1709L101 79.1758L105.988 78.8271L106 79Z" fill="#D2D2E3"/>
</g>
<defs>
<clipPath id="clip0_15522_158694">
<rect width="309" height="198" fill="white" transform="translate(21)"/>
</clipPath>
</defs>
</svg>
