<svg width="309" height="198" viewBox="0 0 309 198" fill="none" xmlns="http://www.w3.org/2000/svg">
<g clip-path="url(#clip0_17384_31355)">
<path d="M17.4 24.3337C22.4033 17.2579 26.6892 12.1661 48.9794 8.70411C84.2897 3.21757 236.303 3.46052 264.62 10.3541C280.979 14.3425 296.611 14.9296 298.276 43.8706C299.586 66.5861 302.016 128.274 296.2 142.345C290.383 156.416 285.81 170.476 258.804 171.721C231.797 172.966 80.1474 175.861 55.2168 174.616C30.2862 173.371 17.4096 162.621 12.4254 150.2C7.44116 137.79 9.51712 71.1717 9.51712 71.1717C9.51712 71.1717 9.56495 35.4282 17.4096 24.3236L17.4 24.3337Z" fill="#EBEBF2"/>
<mask id="mask0_17384_31355" style="mask-type:luminance" maskUnits="userSpaceOnUse" x="9" y="4" width="291" height="171">
<path d="M17.4 24.3337C22.4033 17.2579 26.6892 12.1661 48.9794 8.70411C84.2897 3.21757 236.303 3.46052 264.62 10.3541C280.979 14.3425 296.611 14.9296 298.276 43.8706C299.586 66.5861 302.016 128.274 296.2 142.345C290.383 156.416 285.81 170.476 258.804 171.721C231.797 172.966 80.1474 175.861 55.2168 174.616C30.2862 173.371 17.4096 162.621 12.4254 150.2C7.44116 137.79 9.51712 71.1717 9.51712 71.1717C9.51712 71.1717 9.56495 35.4282 17.4096 24.3236L17.4 24.3337Z" fill="white"/>
</mask>
<g mask="url(#mask0_17384_31355)">
<path d="M9.08795 -6.69336H227.207V126.926H9.08795V-6.69336Z" stroke="white" stroke-width="1.33277" stroke-miterlimit="10" stroke-linecap="round" stroke-linejoin="round"/>
<path d="M9.08844 19.8477H227.207" stroke="white" stroke-width="1.33277" stroke-miterlimit="10" stroke-linecap="round" stroke-linejoin="round"/>
<path d="M9.08844 42.2793H227.207" stroke="white" stroke-width="1.33277" stroke-miterlimit="10" stroke-linecap="round" stroke-linejoin="round"/>
<path d="M9.08844 64.7109H227.207" stroke="white" stroke-width="1.33277" stroke-miterlimit="10" stroke-linecap="round" stroke-linejoin="round"/>
<path d="M9.08844 87.1445H227.207" stroke="white" stroke-width="1.33277" stroke-miterlimit="10" stroke-linecap="round" stroke-linejoin="round"/>
<path d="M9.08844 109.576H227.207" stroke="white" stroke-width="1.33277" stroke-miterlimit="10" stroke-linecap="round" stroke-linejoin="round"/>
<path d="M51.5865 20.1953V109.676" stroke="white" stroke-width="1.33277" stroke-miterlimit="10" stroke-linecap="round" stroke-linejoin="round"/>
<path d="M81.2598 20.1953V109.676" stroke="white" stroke-width="1.33277" stroke-miterlimit="10" stroke-linecap="round" stroke-linejoin="round"/>
<path d="M110.933 20.1953V109.676" stroke="white" stroke-width="1.33277" stroke-miterlimit="10" stroke-linecap="round" stroke-linejoin="round"/>
<path d="M140.607 20.1953V109.676" stroke="white" stroke-width="1.33277" stroke-miterlimit="10" stroke-linecap="round" stroke-linejoin="round"/>
<path d="M170.28 20.1953V109.676" stroke="white" stroke-width="1.33277" stroke-miterlimit="10" stroke-linecap="round" stroke-linejoin="round"/>
<path fill-rule="evenodd" clip-rule="evenodd" d="M57.1851 126.785C57.1851 128.054 58.2126 129.084 59.4781 129.084H176.816C178.082 129.084 179.109 128.054 179.109 126.785C179.109 125.516 178.082 124.486 176.816 124.486H59.4781C58.2126 124.486 57.1851 125.516 57.1851 126.785Z" fill="white"/>
<path d="M72.9648 78.9817C71.9795 86.5004 71.9937 93.0101 67.1982 98.6257L83.7851 100.8C88.5811 95.1844 88.5664 88.6744 89.5522 81.1559L72.9648 78.9817Z" fill="white"/>
<path d="M73.8545 85.9938C75.1714 85.5494 81.5869 83.2696 81.5869 83.2696C81.5869 83.2696 80.6418 89.3773 80.3656 90.6243" stroke="#B2C8F0" stroke-width="0.532935" stroke-miterlimit="10" stroke-linecap="round" stroke-linejoin="round"/>
<path d="M81.5674 83.4198C80.5747 84.4315 79.582 85.4431 78.5897 86.4548C77.3007 87.7683 76.0099 89.0842 74.8483 90.5104" stroke="#B2C8F0" stroke-width="0.532935" stroke-miterlimit="10" stroke-linecap="round" stroke-linejoin="round"/>
<path d="M74.5893 86.2349C76.4834 87.7398 78.4078 89.2039 80.3612 90.6249" stroke="#B2C8F0" stroke-width="0.532935" stroke-miterlimit="10" stroke-linecap="round" stroke-linejoin="round"/>
<path d="M78.3387 90.576C78.4823 89.4731 79.4918 88.6968 80.5935 88.8422C81.6951 88.9876 82.4718 89.9995 82.3282 91.1025C82.1846 92.2055 81.1751 92.9818 80.0734 92.8364C78.9718 92.691 78.1951 91.679 78.3387 90.576Z" stroke="#B2C8F0" stroke-width="0.532935" stroke-miterlimit="10" stroke-linecap="round"/>
<path d="M72.4869 93.9531L84.0086 95.467" stroke="#B2C8F0" stroke-width="0.532935" stroke-miterlimit="10" stroke-linecap="round" stroke-linejoin="round"/>
<path d="M71.1886 95.8301L82.7102 97.344" stroke="#B2C8F0" stroke-width="0.532935" stroke-miterlimit="10" stroke-linecap="round" stroke-linejoin="round"/>
<path d="M41.3138 60.9483C41.3109 67.7079 42.0755 73.4603 38.4844 78.9811L53.3986 78.9745C56.9895 73.4543 56.2247 67.7016 56.2276 60.942L41.3138 60.9483Z" fill="white"/>
<path d="M43.2425 65.9381C43.8265 65.6752 44.4106 65.4128 44.995 65.1499C45.454 64.9436 46.0622 64.7633 46.4016 65.1356C46.5625 65.3124 46.6074 65.5701 46.7597 65.7548C47.0379 66.0929 47.5723 66.0691 47.9726 65.8914C48.3724 65.7137 48.7162 65.4175 49.1312 65.2791C49.6639 65.1014 50.2427 65.2056 50.8018 65.2558C52.1368 65.376 54.5367 65.3453 54.5367 65.3453" stroke="#B2C8F0" stroke-width="0.665645" stroke-miterlimit="10" stroke-linecap="round" stroke-linejoin="round"/>
<path d="M54.0419 68.1697H43.4046" stroke="#B2C8F0" stroke-width="0.665645" stroke-miterlimit="10" stroke-linecap="round" stroke-linejoin="round"/>
<path d="M53.6177 71.1094H42.9804" stroke="#B2C8F0" stroke-width="0.665645" stroke-miterlimit="10" stroke-linecap="round" stroke-linejoin="round"/>
<path d="M52.709 74.5117H47.3902" stroke="#B2C8F0" stroke-width="0.665645" stroke-miterlimit="10" stroke-linecap="round" stroke-linejoin="round"/>
<path d="M54.421 58.7279C54.0979 60.1354 53.7067 61.5268 53.249 62.8962C53.1916 63.0674 53.1235 63.2512 52.9721 63.3493C52.7042 63.5232 52.3225 63.3074 52.2095 63.0082C52.096 62.709 52.1702 62.3747 52.2509 62.0651C52.539 60.9608 52.8992 59.8751 53.3284 58.8174C53.4746 58.4564 53.6376 58.0863 53.9275 57.8264C54.2174 57.5661 54.669 57.4468 55.002 57.6483C55.3449 57.8558 55.4419 58.3064 55.4618 58.7072C55.5131 59.7639 55.2526 60.8077 54.9942 61.8329C54.8445 62.4253 54.6953 63.0173 54.546 63.6092" stroke="#80A4E6" stroke-width="0.53394" stroke-miterlimit="10" stroke-linecap="round" stroke-linejoin="round"/>
<path d="M97.2349 26.2285H72.7248C72.7248 26.2285 74.5976 45.8755 69.1722 58.3288H93.6823C99.1082 45.8755 97.2349 26.2285 97.2349 26.2285Z" fill="#B2C8F0"/>
<path d="M72.0458 26.236C72.0405 36.8245 70.5202 45.8362 64.4541 54.4838L89.6504 54.4714C95.7167 45.8242 97.2368 36.8122 97.2417 26.2238L72.0458 26.236Z" fill="white"/>
<path d="M74.5646 32.6332C76.5431 32.3175 79.2502 33.0318 80.288 34.9166C80.9001 36.0287 80.2928 37.6052 79.2438 38.2266C77.9152 39.0135 76.4776 38.3351 76.1877 36.8689C75.963 35.7317 76.277 34.3286 76.9611 33.3933C77.9083 32.0987 79.3814 31.3049 80.8484 30.6602" stroke="#B2C8F0" stroke-width="0.53394" stroke-miterlimit="10" stroke-linecap="round" stroke-linejoin="round"/>
<path d="M83.9734 33.5916H93.5147" stroke="#B2C8F0" stroke-width="0.53394" stroke-miterlimit="10" stroke-linecap="round" stroke-linejoin="round"/>
<path d="M83.3594 36.9707H92.9007" stroke="#B2C8F0" stroke-width="0.53394" stroke-miterlimit="10" stroke-linecap="round" stroke-linejoin="round"/>
<path d="M74.1812 41.5977H91.4927" stroke="#B2C8F0" stroke-width="0.53394" stroke-miterlimit="10" stroke-linecap="round" stroke-linejoin="round"/>
<path d="M72.753 44.0391H90.0644" stroke="#B2C8F0" stroke-width="0.53394" stroke-miterlimit="10" stroke-linecap="round" stroke-linejoin="round"/>
<path d="M70.212 50.1211H87.5234" stroke="#B2C8F0" stroke-width="0.53394" stroke-miterlimit="10" stroke-linecap="round" stroke-linejoin="round"/>
<path d="M17.293 94.7945C17.293 93.4006 18.4204 92.2706 19.8112 92.2706C21.2019 92.2706 22.3293 93.4006 22.3293 94.7945C22.3293 96.1884 21.2019 97.3184 19.8112 97.3184C18.4204 97.3184 17.293 96.1884 17.293 94.7945Z" stroke="white" stroke-width="0.53394" stroke-miterlimit="10"/>
<path d="M18.5911 94.0371L19.8114 95.8203L23.3091 92.0879" stroke="#80A4E6" stroke-width="0.53394" stroke-miterlimit="10" stroke-linecap="round" stroke-linejoin="round"/>
<path d="M25.813 93.6367H33.2416" stroke="white" stroke-width="0.53394" stroke-miterlimit="10" stroke-linecap="round" stroke-linejoin="round"/>
<path d="M25.8132 96.7305H37.8726" stroke="white" stroke-width="0.53163" stroke-miterlimit="10" stroke-linecap="round" stroke-linejoin="round"/>
<path d="M17.2928 103.39C17.2928 101.996 18.4202 100.866 19.811 100.866C21.2017 100.866 22.3292 101.996 22.3292 103.39C22.3292 104.784 21.2017 105.914 19.811 105.914C18.4202 105.914 17.2928 104.784 17.2928 103.39Z" stroke="white" stroke-width="0.53394" stroke-miterlimit="10"/>
<path d="M24.2696 102.23H31.6982" stroke="white" stroke-width="0.53394" stroke-miterlimit="10" stroke-linecap="round" stroke-linejoin="round"/>
<path d="M24.2696 105.326H37.8726" stroke="white" stroke-width="0.534497" stroke-miterlimit="10" stroke-linecap="round" stroke-linejoin="round"/>
<path d="M184.201 48.3887H220.823" stroke="white" stroke-width="1.16614" stroke-miterlimit="10" stroke-linecap="round"/>
<path d="M184.201 53.1934H220.823" stroke="white" stroke-width="1.16614" stroke-miterlimit="10" stroke-linecap="round"/>
<path d="M184.201 57.998H220.823" stroke="white" stroke-width="1.16614" stroke-miterlimit="10" stroke-linecap="round"/>
<path d="M179.723 48.3887H175.31" stroke="white" stroke-width="1.16614" stroke-miterlimit="10" stroke-linecap="round"/>
<path d="M179.723 53.1934H175.31" stroke="white" stroke-width="1.16614" stroke-miterlimit="10" stroke-linecap="round"/>
<path d="M179.723 57.998H175.31" stroke="white" stroke-width="1.16614" stroke-miterlimit="10" stroke-linecap="round"/>
<path d="M115.325 123.148C117.28 121.468 130.941 110.63 130.941 110.63L141.48 108.344C141.48 108.344 155.445 111.467 157.915 112.185C160.387 112.905 168.839 172.437 168.839 172.437L154.486 174.087L148.453 174.169L130.755 173.393C130.755 173.393 115.552 126.605 117.507 124.925" fill="#FFC7A1"/>
<path d="M134.272 115.851L139.538 116.036C141.542 116.106 143.226 114.537 143.299 112.53L143.744 100.455C143.818 98.4484 142.254 96.7653 140.25 96.6946L134.984 96.5093C132.98 96.4398 131.295 98.0089 131.222 100.015L130.777 112.091C130.704 114.097 132.268 115.78 134.272 115.851Z" fill="#FFC7A1"/>
<path d="M131.22 100.015C131.295 98.0091 132.978 96.4403 134.981 96.5097L140.247 96.6948C142.25 96.7654 143.815 98.4479 143.741 100.454L143.466 108.887C140.178 112.359 133.76 108.897 130.977 106.618L131.22 100.015Z" fill="#EA989D"/>
<path d="M163.176 137.076C163.922 128.375 170.796 132.233 171.381 132.628C174.496 134.727 177.952 142.228 186.053 154.368C186.053 154.368 191.478 163.661 177.758 161.085C177.758 161.085 162.858 140.785 163.176 137.076Z" fill="#FFC7A1"/>
<path d="M156.078 113.132C156.078 113.132 161.979 112.758 163.899 113.715C170.685 117.1 182.571 142.079 182.571 142.079C182.571 142.079 175.494 149.704 166.988 150.152L156.243 131.656C156.243 131.656 150.841 117.182 156.078 113.132Z" fill="#0049CD"/>
<path d="M143.441 108.125C143.441 108.125 140.58 113.938 141.174 119.819L149.953 153.921L160.65 192.644C160.65 192.644 180.149 187.417 178.012 180.966C174.095 169.141 170.828 163.142 169.274 152.378C165.82 128.457 161.964 113.17 161.964 113.17C161.964 113.17 159.049 110.662 145.4 108.914" fill="#0049CD"/>
<path d="M174.303 170.586C172.41 163.43 169.737 157.526 168.939 152.488C167.846 145.591 165.604 134.632 162.714 127.193" stroke="#00338F" stroke-width="1.9957" stroke-miterlimit="2" stroke-linecap="round" stroke-linejoin="bevel"/>
<path d="M129.725 109.905C129.725 109.905 141.301 119.511 141.146 119.472L156.088 169.304C156.088 169.304 161.221 192.402 160.682 192.616C144.303 199.085 118.276 193.61 118.276 193.61C118.276 193.61 125.32 173.495 124.064 165.87C120.148 142.08 114.983 114.188 114.983 114.188C114.983 114.188 121.655 110.538 125.549 110.182" fill="#0049CD"/>
<path d="M141.256 120.17C141.256 120.17 147.274 135.523 149.078 142.949C151.369 152.384 160.435 189.5 160.435 189.5" stroke="#00338F" stroke-width="1.99913" stroke-miterlimit="1.5" stroke-linecap="round" stroke-linejoin="round"/>
<path d="M144.326 107.921C144.326 107.921 149.469 110.648 150.712 121.44C150.712 121.44 145.872 116.446 144.313 116.315C142.753 116.185 141.836 118.391 141.356 120.657" stroke="#00338F" stroke-width="1.99913" stroke-miterlimit="1.5" stroke-linecap="round" stroke-linejoin="round"/>
<path d="M98.7096 160.336C99.9949 151.482 110.613 131.345 110.613 131.345C110.613 131.345 124.31 124.647 120.81 140.156L113.128 160.272C113.128 160.272 101.18 172.815 98.7096 160.336Z" fill="#FFC7A1"/>
<path d="M120.38 111.256C116.369 112.807 114.526 114.332 113.445 115.831C112.363 117.331 101.088 137.397 100.131 139.411C99.1749 141.425 108.601 152.228 119.11 148.603L127.495 128.973C127.495 128.973 130.66 107.282 120.38 111.256Z" fill="#0049CD"/>
<path d="M101.257 142.251C104.02 145.966 111.265 151.309 119.114 148.602L126.819 133.265" stroke="#00338F" stroke-width="2.0023" stroke-miterlimit="2" stroke-linecap="round" stroke-linejoin="round"/>
<path d="M129.362 109.971C129.362 109.971 126.739 115.576 131.504 125.603C131.504 125.603 134.967 119.94 136.688 118.714C138.309 117.56 140.002 119.107 141.381 120.732" stroke="#00338F" stroke-width="1.99913" stroke-miterlimit="1.5" stroke-linecap="round" stroke-linejoin="round"/>
<path fill-rule="evenodd" clip-rule="evenodd" d="M139.956 123.784L146.247 155.419L152.996 160.35L155.725 153.363L144.652 122.253L139.956 123.784Z" fill="#21B531"/>
<path d="M139.956 123.779L146.252 155.417L152.943 160.362" stroke="white" stroke-width="1.33413" stroke-miterlimit="1.5" stroke-linecap="round" stroke-linejoin="round"/>
<path fill-rule="evenodd" clip-rule="evenodd" d="M139.952 123.771C140.874 124.492 144.241 123.396 144.696 122.485C145.29 121.298 144.383 116.739 144.41 117.179C144.41 117.179 140.739 116.611 137.003 119.554C137.003 119.554 138.134 122.35 139.952 123.771Z" fill="#21B531"/>
<path d="M137.404 120.239C137.404 120.239 138.134 122.355 139.952 123.776C140.379 124.111 141.331 124.055 142.276 123.808" stroke="white" stroke-width="1.33413" stroke-miterlimit="1.5" stroke-linecap="round" stroke-linejoin="round"/>
<path d="M160.681 70.3821C160.681 70.3821 159.444 68.282 156.916 65.8858C159.147 65.6715 160.043 65.009 160.043 65.009C156.338 63.8089 152.824 62.3994 150.646 61.4828C149.957 61.1407 149.227 60.8254 148.464 60.5383C148.437 60.526 148.413 60.5147 148.413 60.5147L148.421 60.5222C146.25 59.7068 143.789 59.138 141.02 59.011C135.471 58.7559 132.675 64.6863 132.675 64.6863C132.675 64.6863 128.082 64.8983 127.307 65.5582C126.935 65.8739 125.204 67.481 123.803 70.9615L123.803 70.9582C123.803 70.9582 121.219 76.7067 119.404 78.1103C119.404 78.1103 120.804 77.9212 122.195 77.397C121.781 80.6808 121.784 84.7483 122.581 89.7407C123.392 94.8124 133.365 99.317 133.365 99.317L158.7 94.9579C158.7 94.9579 167.882 78.2274 160.681 70.3821Z" fill="#12161C"/>
<path fill-rule="evenodd" clip-rule="evenodd" d="M127.711 98.2539L129.902 103.506L135.08 99.1081L128.825 98.6665" fill="#12161C"/>
<path d="M152.416 72.1964L132.873 75.3683L126.961 82.3396C125.766 87.1493 126.274 92.4358 128.378 97.0065C130.053 100.643 132.904 104.477 135.691 106.261C141.857 110.206 153.235 107.739 156.294 103.039C157.248 101.572 157.617 99.7489 158.126 98.0405C159.143 95.3618 159.631 89.293 159.518 87.5569C159.203 81.7021 156.879 75.8206 152.416 72.1964Z" fill="#FFC7A1"/>
<path d="M125.444 85.6785C121.11 85.9996 120.107 91.025 121.526 94.4679C123.01 98.0736 127.311 99.7494 130.832 98.0792C130.91 98.0421 130.944 97.9258 130.962 97.7748C131.279 96.9108 131.903 94.2376 129.637 90.213C129.637 90.213 128.459 85.2383 125.444 85.6785Z" fill="#FFC7A1"/>
<path d="M128.825 90.8608C127.283 89.0888 125.025 88.298 122.717 88.6519C121.395 88.8546 121.819 90.8965 123.142 90.6952C124.72 90.4533 126.225 91.0448 127.265 92.2438C128.146 93.257 129.704 91.8738 128.825 90.8608Z" fill="#EA989D"/>
<path d="M145.597 95.4784C145.597 95.4784 147.237 91.6753 143.638 93.4051" stroke="#12161C" stroke-width="1.32967" stroke-miterlimit="10" stroke-linecap="round"/>
<path d="M139.864 89.429C139.9 91.0894 139.287 92.5317 138.596 93.3735C137.899 94.2336 137.123 94.4923 136.681 94.2284C135.795 93.6182 136.07 91.5722 135.994 89.4795L135.993 89.4749C135.998 89.208 136.166 88.9701 136.418 88.8806L137.626 88.4549L136.266 87.6362C136.077 87.5222 135.96 87.3165 135.96 87.0945C135.957 85.9876 136.049 85.0959 136.575 84.7149C137.01 84.4387 137.791 84.677 138.508 85.5187C139.218 86.3422 139.862 87.769 139.864 89.429Z" fill="#12161C"/>
<path d="M153.593 90.5227C153.629 92.1831 153.016 93.6255 152.325 94.4672C151.628 95.3274 150.852 95.586 150.411 95.3222C149.524 94.7119 149.799 92.666 149.723 90.5732L149.722 90.5686C149.727 90.3017 149.895 90.0638 150.147 89.9743L151.355 89.5486L149.995 88.73C149.806 88.616 149.689 88.4102 149.689 88.1883C149.686 87.0814 149.778 86.1897 150.304 85.8086C150.739 85.5324 151.52 85.7708 152.237 86.6125C152.947 87.4359 153.591 88.8628 153.593 90.5227Z" fill="#12161C"/>
<path d="M154.382 84.9126C154.382 84.9126 152.636 80.4286 148.739 84.1941" stroke="#12161C" stroke-width="1.32967" stroke-miterlimit="10" stroke-linecap="round"/>
<path d="M135.772 97.5357C135.49 97.9476 135.425 98.9278 135.881 99.9262C136.324 100.902 137.375 102.219 139.895 103.002C142.368 103.769 143.858 103.233 144.724 102.706C146.721 101.494 146.031 99.5149 145.219 99.0667C144.356 98.5909 143.021 99.5071 141.284 98.9821C140.03 98.6032 138.829 97.1188 138.347 96.9061C137.277 96.4494 136.362 96.6657 135.772 97.5357Z" fill="#12161C"/>
<mask id="mask1_17384_31355" style="mask-type:luminance" maskUnits="userSpaceOnUse" x="135" y="96" width="12" height="8">
<path d="M138.346 96.9053C138.828 97.118 140.03 98.6024 141.284 98.9813C142.095 99.2269 142.819 99.1575 143.448 99.0622C144.165 98.9544 144.76 98.8127 145.219 99.0664C146.031 99.5135 146.721 101.494 144.724 102.705C143.858 103.232 142.368 103.768 139.895 103.001C137.375 102.218 136.324 100.901 135.881 99.9238C135.424 98.9253 135.489 97.9464 135.772 97.5337C136.283 96.781 137.037 96.5183 137.925 96.7581C138.062 96.7951 138.202 96.8438 138.346 96.9053Z" fill="white"/>
</mask>
<g mask="url(#mask1_17384_31355)">
<path d="M135.534 103.697C135.311 105.331 136.709 106.871 138.656 107.138C140.604 107.403 142.363 106.294 142.587 104.66C142.81 103.026 141.413 101.485 139.466 101.219C137.517 100.953 135.759 102.062 135.534 103.697Z" fill="#EB5757"/>
<path d="M147.103 99.3816C147.103 99.3816 144.263 101.353 140.703 100.18C137.143 99.0055 134.597 95.4538 134.597 95.4538C134.597 95.4538 142.221 95.0994 147.103 99.3816Z" fill="white"/>
</g>
<path d="M138.347 96.906C138.829 97.1187 140.03 98.6031 141.284 98.9819C142.095 99.2274 142.819 99.1579 143.448 99.0625C144.165 98.9547 144.76 98.8129 145.219 99.0666C146.031 99.5136 146.721 101.494 144.724 102.706C143.858 103.232 142.367 103.769 139.895 103.002C137.375 102.219 136.324 100.902 135.881 99.9252C135.424 98.9266 135.49 97.9475 135.772 97.5347C136.283 96.7819 137.037 96.519 137.925 96.7588C138.062 96.7958 138.203 96.8445 138.347 96.906Z" stroke="#12161C" stroke-width="0.998507" stroke-miterlimit="2" stroke-linejoin="round"/>
<path d="M141.875 83.2942C141.708 82.8911 141.368 82.4489 140.907 82.0427C138.992 80.3552 134.986 79.2889 132.624 84.1917" stroke="#12161C" stroke-width="1.32967" stroke-miterlimit="10" stroke-linecap="round"/>
<path d="M141.947 73.4379C143.059 74.7694 146.743 78.4491 146.743 78.4491C146.743 78.4491 150.806 82.2139 155.87 82.88C155.87 82.88 155.489 80.4963 155.356 79.6661C155.223 78.8355 156.07 81.9911 159.024 83.6812C159.024 83.6812 159.42 73.166 156.896 70.3694C153.394 66.4881 143.4 65.4384 140.067 68.1194C138.816 69.1262 141.043 72.3564 141.947 73.4379Z" fill="#12161C"/>
<path d="M127.767 79.3648C128.347 81.4827 128.283 86.5672 129.514 90.7824C129.514 90.7824 126.019 88.0299 125.282 82.7916C125.282 82.7916 125.258 76.9227 127.767 79.3648Z" fill="#12161C"/>
<path d="M132.86 75.3607C132.86 75.3607 133.178 68.054 136.085 68.0416C143.441 68.0083 142.796 76.4083 147.34 82.7029C147.34 82.7029 141.257 82.3385 139.928 78.6858C139.928 78.6858 140.857 82.5832 141.221 83.6967C141.221 83.6967 138.363 82.6958 137.284 74.7833L132.86 75.3607Z" fill="#12161C"/>
<path d="M132.86 75.3561L137.069 70.3854L137.282 74.7789L132.86 75.3561Z" fill="#595C60"/>
<path d="M200.587 118.455C198.748 125.819 197.154 133.255 195.065 140.551C190.784 155.504 187.555 157.898 186.314 160.354C185.065 162.826 178.992 162.556 177.529 160.076C172.723 151.924 184.45 131.808 192.541 117.429C196.465 114.276 200.816 117.545 200.587 118.455Z" fill="#FFC7A1"/>
<path d="M189.955 120.567C190.075 120.386 190.26 120.262 190.473 120.22C190.688 120.179 190.905 120.222 191.086 120.345C191.267 120.466 191.39 120.651 191.431 120.865C191.473 121.08 191.429 121.297 191.308 121.478C188.879 125.103 181.101 139.296 178.867 150.557C178.78 150.987 178.362 151.275 177.93 151.201L177.921 151.2L177.866 151.187C177.67 151.137 177.502 151.019 177.389 150.85C177.268 150.668 177.224 150.449 177.266 150.236C178.318 144.936 180.506 139.111 182.822 133.974C185.594 127.825 188.549 122.662 189.955 120.567Z" fill="#EA989D"/>
<path d="M167.132 122.708C167.06 123.514 167.393 124.303 168.021 124.812C168.649 125.321 169.489 125.482 170.261 125.243C176.801 123.216 190.758 118.89 195.422 117.445C196.362 117.153 197.034 116.322 197.122 115.34C197.719 108.689 199.989 83.4244 200.839 73.9635C200.912 73.1572 200.579 72.3684 199.951 71.8596C199.323 71.3508 198.483 71.189 197.711 71.4283C191.171 73.4553 177.214 77.7811 172.55 79.2267C171.61 79.5181 170.938 80.3497 170.85 81.3313C170.252 87.9826 167.982 113.247 167.132 122.708Z" fill="#FFB35C"/>
<path d="M170.563 118.411C170.49 119.217 170.824 120.006 171.451 120.515C172.079 121.024 172.919 121.185 173.691 120.946C179.094 119.272 189.331 116.099 193.223 114.893C194.163 114.601 194.835 113.769 194.923 112.788C195.432 107.119 197.139 88.1153 197.859 80.1081C197.931 79.3019 197.598 78.513 196.97 78.004C196.342 77.4952 195.502 77.3334 194.73 77.5726C189.328 79.2471 179.091 82.4199 175.199 83.6257C174.259 83.9171 173.587 84.7489 173.499 85.7308C172.989 91.3993 171.282 110.403 170.563 118.411Z" stroke="#FF8E43" stroke-width="1.33232" stroke-miterlimit="10" stroke-linecap="round" stroke-linejoin="round"/>
<path d="M177.498 72.4574L206.405 63.7565C204.405 65.1678 203.976 69.5417 203.976 69.5417L173.401 78.9492C173.502 73.3383 177.498 72.4574 177.498 72.4574Z" fill="white"/>
<path d="M195.988 70.3134L195.732 73.1812L176.363 79.1778L176.619 76.31L195.988 70.3134Z" fill="#FF8E43"/>
<path d="M200.216 119.881C197.843 122.093 193.848 120.602 192.394 118.453C190.7 115.948 191.633 112.896 192.945 110.2C192.514 109.959 192.085 109.717 191.654 109.482C190.538 108.872 189.416 108.263 188.299 107.655C187.422 107.173 186.47 106.4 186.892 105.213C187.274 104.142 188.416 103.663 189.434 103.642C190.559 103.621 191.711 103.914 192.758 104.215C192.867 104.247 195.308 105.462 195.416 105.496C195.38 105.365 194.046 101.397 192.509 99.2952C191.792 98.3138 191.365 97.0512 192.16 95.9121C192.893 94.8583 194.136 94.3806 195.227 94.8677C195.097 94.3515 194.993 93.815 195.104 93.271C195.256 92.5226 195.778 91.9405 196.502 91.6828C197.351 91.3789 198.094 91.5633 198.716 91.9767C198.722 91.8486 198.733 91.7189 198.754 91.5861C198.887 90.7755 199.32 89.9888 200.083 89.5768C200.708 89.2409 201.432 89.239 202.043 89.4772C203.391 90.0068 204.341 91.2087 204.951 92.4608C207.521 97.7357 208.152 104.819 205.17 111.049C204.159 113.16 202.989 115.201 201.935 117.294C201.427 118.302 200.926 119.219 200.216 119.881Z" fill="#FFC7A1"/>
<path d="M199.321 107.997C197.603 106.72 195.759 105.606 193.809 104.679C192.89 104.241 191.949 103.806 190.97 103.491C190.089 103.209 189.1 103.073 188.164 103.433C187.214 103.799 186.386 104.652 186.312 105.681C186.265 106.335 187.276 106.356 187.323 105.699C187.372 105.022 187.983 104.497 188.616 104.318C189.413 104.093 190.219 104.322 190.933 104.581C192.719 105.229 194.424 106.098 196.034 107.066C196.963 107.624 197.861 108.228 198.728 108.872C199.231 109.245 199.823 108.369 199.321 107.997Z" fill="#EA989D" stroke="#EA989D" stroke-width="0.598711" stroke-miterlimit="2" stroke-linejoin="round"/>
<path d="M201.535 107.749C201.542 105.309 201.063 102.937 200.128 100.764C199.66 99.6779 199.079 98.6509 198.407 97.6907C197.733 96.7278 196.962 95.7889 196.051 95.0436C195.06 94.2343 193.614 93.8917 192.424 94.8033C191.883 95.2185 192.525 95.9487 193.063 95.5367C193.919 94.879 194.992 95.4896 195.599 96.0442C196.372 96.7488 197.046 97.5791 197.643 98.4392C198.822 100.133 199.675 102.087 200.131 104.146C200.389 105.31 200.526 106.513 200.523 107.73C200.521 108.003 200.682 108.242 200.976 108.248C201.227 108.253 201.534 108.024 201.535 107.749Z" fill="#EA989D" stroke="#EA989D" stroke-width="0.598711" stroke-miterlimit="2" stroke-linejoin="round"/>
<path d="M205.678 106.431C205.853 103.213 205.081 100.086 203.626 97.3628C202.854 95.9186 201.905 94.577 200.826 93.3582C199.82 92.2207 198.541 91.007 196.811 91.2599C196.001 91.3788 195.193 91.8762 194.795 92.6292C194.399 93.3775 194.45 94.3006 194.997 94.8781C195.426 95.331 196.22 94.6271 195.789 94.1714C195.448 93.8134 195.485 93.2299 195.83 92.8205C196.218 92.3608 196.847 92.1977 197.391 92.2536C198.779 92.3945 199.748 93.693 200.549 94.6677C202.285 96.7777 203.634 99.2542 204.269 101.985C204.604 103.419 204.749 104.906 204.666 106.412C204.631 107.066 205.642 107.087 205.678 106.431Z" fill="#EA989D" stroke="#EA989D" stroke-width="0.598711" stroke-miterlimit="2" stroke-linejoin="round"/>
<path d="M196.073 105.669C195.878 103.722 195.239 101.871 194.209 100.275C193.419 99.0511 191.622 97.24 192.883 95.5795C193.295 95.0377 192.468 94.5193 192.056 95.0611C191.479 95.8205 191.353 96.8009 191.537 97.6595C191.759 98.6917 192.391 99.5172 192.98 100.342C194.143 101.967 194.861 103.857 195.067 105.909C195.132 106.554 196.138 106.31 196.073 105.669Z" fill="#EA989D" stroke="#EA989D" stroke-width="0.598711" stroke-miterlimit="2" stroke-linejoin="round"/>
<path d="M206.691 108.753C207.924 105.409 207.785 101.875 207.195 98.5699C206.876 96.7763 206.474 94.9698 205.759 93.3202C205.065 91.717 203.963 89.929 202.238 89.3168C201.431 89.0306 200.407 89.0627 199.621 89.5753C198.813 90.1001 198.303 91.0137 198.42 91.9347C198.502 92.5767 199.509 92.3328 199.427 91.6932C199.352 91.1027 199.797 90.521 200.353 90.2923C200.985 90.0313 201.692 90.1591 202.234 90.4604C203.613 91.2239 204.452 92.8271 205.011 94.2596C205.589 95.7384 205.929 97.3266 206.206 98.909C206.464 100.381 206.64 101.884 206.622 103.405C206.602 105.111 206.35 106.826 205.74 108.478C205.507 109.107 206.458 109.386 206.691 108.753Z" fill="#EA989D" stroke="#EA989D" stroke-width="0.598711" stroke-miterlimit="2" stroke-linejoin="round"/>
<path d="M180.811 74.1652C180.059 73.102 178.792 72.3481 177.496 72.4543L206.409 63.7529C206.799 63.546 207.222 63.4107 207.668 63.3742C208.965 63.2676 210.231 64.0218 210.984 65.0851C211.736 66.1479 212.033 67.4757 212.093 68.7777L211.694 72.8232L210.067 94.6101L179.902 103.953C179.902 103.953 182.042 80.4805 181.921 77.8579C181.86 76.5558 181.563 75.2281 180.811 74.1652Z" fill="#B2C8F0"/>
<path d="M203.174 91.6582L188.259 96.2766" stroke="white" stroke-width="1.33195" stroke-miterlimit="10" stroke-linecap="round"/>
<path d="M208.798 84.8949L185.501 92.1079" stroke="white" stroke-width="1.33195" stroke-miterlimit="10" stroke-linecap="round"/>
<path d="M208.798 84.8949L185.501 92.1079" stroke="white" stroke-width="1.33195" stroke-miterlimit="10" stroke-linecap="round"/>
<path d="M209.109 79.2777L185.812 86.4907" stroke="white" stroke-width="1.33195" stroke-miterlimit="10" stroke-linecap="round"/>
<path d="M209.419 73.6605L186.122 80.8735" stroke="white" stroke-width="1.33195" stroke-miterlimit="10" stroke-linecap="round"/>
<path d="M207.363 68.6019L184.066 75.8149" stroke="white" stroke-width="1.33195" stroke-miterlimit="10" stroke-linecap="round"/>
<path d="M237.551 45.4479C237.551 58.9708 248.486 69.9328 261.976 69.9328C275.466 69.9328 286.404 58.9708 286.404 45.4479C286.404 31.9249 275.466 20.9629 261.976 20.9629C248.486 20.9629 237.551 31.9249 237.551 45.4479Z" fill="white"/>
<path d="M261.977 65.3523C272.926 65.3523 281.834 56.4226 281.834 45.4467C281.834 34.4707 272.926 25.541 261.977 25.541C251.028 25.541 242.12 34.4707 242.12 45.4467C242.12 56.4226 251.028 65.3523 261.977 65.3523Z" fill="#EBEBF2"/>
<path d="M261.753 49.1135C261.9 49.1552 262.065 49.1264 262.191 49.0275L275.093 38.9914C275.309 38.823 275.349 38.5107 275.181 38.2928C275.013 38.0761 274.7 38.0362 274.483 38.2046L261.894 47.9975L252.757 40.5131C252.545 40.3389 252.231 40.3704 252.057 40.584C251.884 40.7964 251.916 41.1094 252.128 41.2836L261.572 49.0189C261.627 49.0646 261.688 49.0958 261.753 49.1135Z" fill="white" stroke="white" stroke-width="1.33261" stroke-miterlimit="2" stroke-linejoin="round"/>
<path d="M22.0208 148.058L35.5339 148.079L35.9345 148.08L34.0671 148.077L22.0208 148.058ZM38.7288 194.068C38.7509 194.646 38.7786 195.204 38.8115 195.746L38.8012 195.747C38.7662 195.206 38.7376 194.646 38.7145 194.068L38.7288 194.068ZM38.9361 197.464C38.913 197.222 38.8925 196.971 38.873 196.72L38.8781 196.721C38.8966 196.97 38.9149 197.223 38.9361 197.464ZM53.2625 227.396C53.8262 227.397 54.2862 226.932 54.2815 226.367C54.1642 209.838 50.8556 206.711 50.2689 194.683L50.27 194.317L50.2536 194.318C50.2194 193.528 50.1948 192.704 50.1849 191.834C50.1787 191.274 49.7318 190.818 49.1732 190.817C46.999 190.814 41.8789 190.806 39.6895 190.802C39.1258 190.801 38.6671 191.263 38.6738 191.828C38.6793 192.215 38.6865 192.592 38.6951 192.963L38.6787 192.964C38.6691 192.593 38.6609 192.215 38.6564 191.829C38.6487 191.264 39.1095 190.801 39.6741 190.803L45.8196 190.812C46.3813 190.813 46.8365 190.358 46.8367 189.795L46.8406 185.934L47.2039 185.944L47.2057 184.799L46.8411 184.808L46.8553 169.526C46.8555 168.963 47.3108 168.508 47.8724 168.509L49.5451 168.511C50.1067 168.513 50.563 168.057 50.5632 167.495L50.57 159.326C50.5712 158.764 50.1161 158.307 49.5544 158.307L46.415 158.301C45.8544 158.3 45.3993 157.844 45.3995 157.281L45.4065 149.39C45.4076 148.675 45.987 148.096 46.7006 148.096C47.4151 148.098 47.9945 147.519 47.9947 146.803L48.0017 138.911C48.0029 138.349 47.5479 137.892 46.9862 137.891L39.2485 137.879L8.06443 137.832C7.50276 137.831 7.04753 138.287 7.04638 138.848L7.03926 146.713C7.03905 147.276 6.58381 147.732 6.02215 147.731L4.43906 147.73L4.45159 148.299L4.44416 157.218C4.44395 157.781 4.89801 158.237 5.45967 158.238L13.0709 158.25L7.02943 158.24L7.02941 158.255L7.01514 158.255L7.02868 158.824L7.02485 163.076L7.02479 163.916L7.02079 167.428C7.02059 167.99 7.47565 168.447 8.03732 168.447L9.02194 168.45C9.58361 168.45 10.0377 168.906 10.0375 169.469L10.0198 189.738C10.0186 190.301 10.4737 190.757 11.0353 190.759L27.113 190.784L7.47271 190.754C6.90808 190.752 6.44689 191.219 6.45363 191.784C6.49248 195.506 6.7614 198.462 7.14413 201.073L7.14341 201.642L7.22816 201.64C8.3906 209.124 10.4536 213.9 10.5507 226.312C10.5548 226.872 11.0055 227.331 11.5641 227.332L41.7329 227.379C42.2966 227.379 42.7557 226.914 42.7519 226.35C42.7379 224.358 42.6771 222.562 42.5806 220.92C42.686 222.566 42.7539 224.363 42.7694 226.361C42.7745 226.921 43.2253 227.38 43.7838 227.382L53.2625 227.396Z" fill="white"/>
<path d="M13.1719 147.609L39.6707 147.513" stroke="#EBEBF2" stroke-width="1.06506" stroke-miterlimit="10" stroke-linecap="round"/>
<path d="M-3.41553 151.498L23.0833 151.402" stroke="#EBEBF2" stroke-width="1.06506" stroke-miterlimit="10" stroke-linecap="round"/>
<path d="M9.95166 157.588L43.4518 158.516" stroke="#EBEBF2" stroke-width="1.06506" stroke-miterlimit="10" stroke-linecap="round"/>
<path d="M9.65967 161.586L26.423 161.862" stroke="#EBEBF2" stroke-width="1.06506" stroke-miterlimit="10" stroke-linecap="round"/>
<path d="M34.1074 160.895L52.425 161.219" stroke="#EBEBF2" stroke-width="1.06506" stroke-miterlimit="10" stroke-linecap="round"/>
<path d="M11.6113 168.951L45.6757 169.917" stroke="#EBEBF2" stroke-width="1.06506" stroke-miterlimit="10" stroke-linecap="round"/>
<path d="M21.5742 165.08L44.9594 165.777" stroke="#EBEBF2" stroke-width="1.06506" stroke-miterlimit="10" stroke-linecap="round"/>
<path d="M27.0176 153.734L48.7642 154.311" stroke="#EBEBF2" stroke-width="1.06506" stroke-miterlimit="10" stroke-linecap="round"/>
<path d="M17.1446 173.991L47.2556 174.941" stroke="#EBEBF2" stroke-width="1.06506" stroke-miterlimit="10" stroke-linecap="round"/>
<path d="M254.474 130.234C254.474 130.234 240.278 127.421 236.316 117.492C232.355 107.565 246.839 100.118 254.474 105.45C262.641 111.154 254.474 130.234 254.474 130.234Z" fill="white"/>
<path d="M254.13 129.996C254.13 129.996 262.264 145.928 266.063 154.889" stroke="white" stroke-width="1.07" stroke-miterlimit="1.5" stroke-linecap="round" stroke-linejoin="round"/>
<path d="M242.197 105.104C242.197 105.104 250.331 121.036 254.13 129.996" stroke="#EBEBF2" stroke-width="1.07" stroke-miterlimit="1.5" stroke-linecap="round" stroke-linejoin="round"/>
<path d="M235.934 110.986C235.934 110.986 245.586 116.643 254.478 130.232" stroke="#EBEBF2" stroke-width="1.07" stroke-miterlimit="1.5" stroke-linecap="round" stroke-linejoin="round"/>
<path d="M235.082 117.729C239.224 119.45 246.57 123.162 254.478 130.228" stroke="#EBEBF2" stroke-width="1.07" stroke-miterlimit="1.5" stroke-linecap="round" stroke-linejoin="round"/>
<path d="M250.456 103.705C250.456 103.705 249.158 114.837 254.637 130.137" stroke="#EBEBF2" stroke-width="1.07" stroke-miterlimit="1.5" stroke-linecap="round" stroke-linejoin="round"/>
<path d="M256.343 107.078C255.223 111.431 253.759 119.549 254.63 130.137" stroke="#EBEBF2" stroke-width="1.07" stroke-miterlimit="1.5" stroke-linecap="round" stroke-linejoin="round"/>
<path d="M272.262 131.232C272.262 131.232 286.458 128.42 290.419 118.491C294.381 108.563 279.897 101.116 272.262 106.448C264.095 112.152 272.262 131.232 272.262 131.232Z" fill="white"/>
<path d="M272.605 130.992C272.605 130.992 264.471 146.924 260.672 155.885" stroke="white" stroke-width="1.07" stroke-miterlimit="1.5" stroke-linecap="round" stroke-linejoin="round"/>
<path d="M284.538 106.1C284.538 106.1 276.404 122.032 272.605 130.993" stroke="#EBEBF2" stroke-width="1.07" stroke-miterlimit="1.5" stroke-linecap="round" stroke-linejoin="round"/>
<path d="M290.802 111.982C290.802 111.982 281.15 117.639 272.257 131.228" stroke="#EBEBF2" stroke-width="1.07" stroke-miterlimit="1.5" stroke-linecap="round" stroke-linejoin="round"/>
<path d="M291.653 118.724C287.511 120.446 280.165 124.157 272.257 131.224" stroke="#EBEBF2" stroke-width="1.07" stroke-miterlimit="1.5" stroke-linecap="round" stroke-linejoin="round"/>
<path d="M276.279 104.703C276.279 104.703 277.577 115.835 272.098 131.135" stroke="#EBEBF2" stroke-width="1.07" stroke-miterlimit="1.5" stroke-linecap="round" stroke-linejoin="round"/>
<path d="M270.391 108.076C271.512 112.429 272.975 120.547 272.105 131.135" stroke="#EBEBF2" stroke-width="1.07" stroke-miterlimit="1.5" stroke-linecap="round" stroke-linejoin="round"/>
<path d="M263.976 110.062C263.976 110.062 252.33 101.431 252.974 90.76C253.617 80.09 269.891 79.5739 274.528 87.667C279.489 96.3241 263.976 110.062 263.976 110.062Z" fill="white"/>
<path d="M263.746 109.701C263.746 109.701 264.321 127.59 263.943 137.318" stroke="white" stroke-width="1.07" stroke-miterlimit="1.5" stroke-linecap="round" stroke-linejoin="round"/>
<path d="M263.569 82.084C263.569 82.084 264.144 99.973 263.766 109.701" stroke="#EBEBF2" stroke-width="1.07" stroke-miterlimit="1.5" stroke-linecap="round" stroke-linejoin="round"/>
<path d="M255.399 84.7168C255.399 84.7168 261.721 93.9698 263.98 110.065" stroke="#EBEBF2" stroke-width="1.07" stroke-miterlimit="1.5" stroke-linecap="round" stroke-linejoin="round"/>
<path d="M251.758 90.4436C254.771 93.7769 259.835 100.284 263.979 110.065" stroke="#EBEBF2" stroke-width="1.07" stroke-miterlimit="1.5" stroke-linecap="round" stroke-linejoin="round"/>
<path d="M271.64 84.3574C271.64 84.3574 265.722 93.8648 264.156 110.043" stroke="#EBEBF2" stroke-width="1.07" stroke-miterlimit="1.5" stroke-linecap="round" stroke-linejoin="round"/>
<path d="M275.516 89.9277C272.652 93.3838 267.875 100.097 264.157 110.045" stroke="#EBEBF2" stroke-width="1.07" stroke-miterlimit="1.5" stroke-linecap="round" stroke-linejoin="round"/>
<path fill-rule="evenodd" clip-rule="evenodd" d="M276.154 136.869C276.79 136.869 277.393 137.149 277.805 137.634C278.217 138.118 278.396 138.759 278.296 139.389C276.694 149.403 270.863 185.852 270.863 185.852H257.003C257.003 185.852 250.561 149.49 248.777 139.425C248.665 138.791 248.839 138.14 249.25 137.647C249.663 137.154 250.272 136.869 250.914 136.869H276.154Z" fill="white"/>
<mask id="mask2_17384_31355" style="mask-type:luminance" maskUnits="userSpaceOnUse" x="248" y="136" width="31" height="50">
<path d="M276.153 136.869C276.789 136.869 277.392 137.149 277.804 137.634C278.217 138.118 278.396 138.759 278.295 139.389C276.694 149.403 270.863 185.852 270.863 185.852H257.003C257.003 185.852 250.56 149.49 248.776 139.425C248.664 138.791 248.838 138.14 249.25 137.647C249.663 137.154 250.271 136.869 250.913 136.869H276.153Z" fill="white"/>
</mask>
<g mask="url(#mask2_17384_31355)">
<path fill-rule="evenodd" clip-rule="evenodd" d="M276.154 136.869C276.79 136.869 277.393 137.149 277.805 137.634C278.217 138.118 278.396 138.759 278.296 139.389C276.694 149.403 270.863 185.852 270.863 185.852H257.003C257.003 185.852 250.561 149.49 248.777 139.425C248.665 138.791 248.839 138.14 249.25 137.647C249.663 137.154 250.272 136.869 250.914 136.869H276.154Z" fill="white"/>
<path d="M279.784 149.92H247.24V152.095H279.784V149.92Z" fill="#EBEBF2"/>
<path d="M279.784 145.57H247.24V147.745H279.784V145.57Z" fill="#EBEBF2"/>
<path d="M279.784 141.221H247.24V143.396H279.784V141.221Z" fill="#EBEBF2"/>
</g>
</g>
<path d="M77.6367 185.117C71.9474 185.117 67.3354 180.499 67.3354 174.8V164.342C67.3354 162.499 68.8271 161.004 70.669 161.004H84.6055C86.4462 161.004 87.9379 162.499 87.9379 164.342V174.8C87.9379 180.499 83.3259 185.117 77.6367 185.117Z" fill="#21B531"/>
<path d="M84.5837 173.822C84.5837 176.343 82.5443 178.387 80.0274 178.387C77.5106 178.387 75.4712 176.343 75.4712 173.822C75.4712 171.303 77.5106 169.26 80.0274 169.26C82.5443 169.26 84.5837 171.303 84.5837 173.822Z" fill="#BCE9C1"/>
<path d="M67.7694 175.851C65.6827 175.851 63.9875 174.156 63.9875 172.063C63.9875 169.974 65.6827 168.277 67.7694 168.277C69.8572 168.277 71.5501 169.974 71.5501 172.063C71.5501 174.156 69.8572 175.851 67.7694 175.851ZM67.7694 165.215C63.9923 165.215 60.9302 168.282 60.9302 172.063C60.9302 175.85 63.9923 178.913 67.7694 178.913C71.5477 178.913 74.6074 175.85 74.6074 172.063C74.6074 168.282 71.5477 165.215 67.7694 165.215Z" fill="#21B531"/>
<path d="M77.5314 153.468C78.0779 151.993 79.3708 150.768 80.7947 150.581C83.3648 150.239 84.8686 149.654 84.2227 148.561C83.9355 148.073 83.5951 147.557 83.3854 147.194C82.6656 145.947 82.6329 145.224 82.6329 145.224C82.6196 145.114 82.6087 145.001 82.6087 144.888C82.6087 143.552 83.6896 142.469 85.0249 142.469C86.25 142.469 87.2606 143.386 87.4157 144.57C87.4303 144.678 87.44 144.782 87.44 144.888C87.44 145.173 87.3879 145.444 87.2982 145.697C87.2582 146.368 87.2618 147.237 87.44 148.014C87.686 149.093 88.327 149.971 88.6687 150.707C88.8238 150.88 88.922 151.105 88.922 151.356C88.922 151.444 88.905 151.529 88.882 151.612C88.596 154.001 85.8344 152.968 85.0673 155.574C84.7947 157.491 83.154 158.967 81.1655 158.967C78.9855 158.967 77.2175 157.197 77.2175 155.014C77.2175 154.465 77.3302 153.942 77.5314 153.468Z" fill="#B2C8F0"/>
<path d="M70.7007 163.486H85.5654" stroke="white" stroke-width="1.5" stroke-miterlimit="10" stroke-linecap="round" stroke-linejoin="round"/>
<path d="M62.2971 172.064C62.2971 173.578 62.9102 174.948 63.899 175.939" stroke="white" stroke-miterlimit="10" stroke-linecap="round" stroke-linejoin="round"/>
<path d="M260.671 187.903L194.128 188.336L202.778 145.383C203.035 144.111 204.151 143.195 205.446 143.194L268.972 143.141C269.918 143.141 270.632 144.001 270.456 144.932L262.701 186.206C262.517 187.185 261.666 187.897 260.671 187.903Z" fill="#21B531"/>
<path d="M194.13 188.334L176.8 185.948C176.298 185.878 175.932 185.437 175.958 184.929L176.092 182.288C176.108 181.981 176.355 181.738 176.661 181.726L195.607 180.998L194.13 188.334Z" fill="#21B531"/>
<path d="M194.259 188.011C194.239 188.013 194.217 188.011 194.195 188.006C194.048 187.977 193.953 187.833 193.982 187.686L195.307 181.103C195.338 180.956 195.481 180.86 195.628 180.891C195.775 180.92 195.871 181.064 195.842 181.211L194.516 187.794C194.491 187.919 194.383 188.006 194.259 188.011Z" stroke="white" stroke-miterlimit="10"/>
<path d="M176.781 182.607L194.845 184.208" stroke="white" stroke-width="1.5" stroke-miterlimit="2" stroke-linecap="round" stroke-linejoin="round"/>
<path d="M267.576 146.619C267.726 146.618 207.671 146.623 207.671 146.623C206.925 146.622 206.255 147.167 206.098 147.909L198.413 184.209" stroke="white" stroke-width="1.5" stroke-miterlimit="10" stroke-linecap="round" stroke-linejoin="round"/>
<path d="M233.896 170.933C235.481 171.538 237.366 170.451 238.107 168.504C238.848 166.558 238.165 164.489 236.58 163.884C234.995 163.279 233.11 164.367 232.369 166.313C231.628 168.261 232.312 170.328 233.896 170.933Z" fill="white"/>
<path d="M194.259 188.011C194.239 188.013 194.217 188.011 194.195 188.006C194.048 187.977 193.953 187.833 193.982 187.686L195.307 181.103C195.338 180.956 195.481 180.86 195.628 180.891C195.775 180.92 195.871 181.064 195.842 181.211L194.516 187.794C194.491 187.919 194.383 188.006 194.259 188.011Z" fill="white"/>
<path d="M162.07 179.392C162.394 179.912 168.498 184.471 168.957 184.835C170.023 185.68 171.12 186.48 172.027 187.511C172.974 188.591 172.812 189.194 171.416 189.544C170.96 189.658 134.32 190.8 133.471 190.707C132.547 190.608 131.816 190.127 131.686 189.073C132.653 187.249 138.65 185.082 141.684 183.529C142.185 183.273 147.817 179.606 148.342 179.392C149.53 179.319 160.949 179.382 162.07 179.392Z" fill="#B2C8F0"/>
<path d="M137.912 188.208L166.628 187.377" stroke="white" stroke-miterlimit="10" stroke-linecap="round" stroke-linejoin="round"/>
<path d="M142.788 185.206L163.955 184.592" stroke="white" stroke-miterlimit="10" stroke-linecap="round" stroke-linejoin="round"/>
<path d="M143.439 180.374C142.656 181.077 137.441 183.955 136.517 184.407C133.594 185.834 130.707 187.327 127.886 188.951C127.839 188.978 127.805 189.033 127.763 189.074C124.545 190.726 125.384 190.51 121.751 190.286C118.858 190.11 115.969 189.849 113.078 189.627C111.691 189.52 110.304 189.429 108.916 189.359C107.143 189.27 105.38 189.086 103.617 188.886C102.265 188.731 100.905 188.646 99.5511 188.519C98.755 188.444 97.9673 188.318 97.1979 188.101C97.0549 188.062 96.9119 188.02 96.7762 187.964C95.5402 187.447 95.4142 186.705 96.472 185.868C97.7541 184.854 99.2155 184.118 100.636 183.32C101.151 183.031 101.667 182.738 102.186 182.453C102.347 182.363 106.177 180.374 108.139 180.374C110.1 179.393 142.885 179.887 143.439 180.374Z" fill="#B2C8F0"/>
<path d="M102.845 185.172L124.231 187.378" stroke="white" stroke-miterlimit="10" stroke-linecap="round" stroke-linejoin="round"/>
<path d="M106.767 182.225L128.154 184.432" stroke="white" stroke-miterlimit="10" stroke-linecap="round" stroke-linejoin="round"/>
<path d="M139.11 148.421C139.11 148.421 140.054 143.938 142.117 137.779C143.642 134.911 142.976 136.315 143.541 135.11C143.701 134.77 144.37 130.144 145.656 131.075C147.395 132.334 146.607 132.717 146.689 136.668C146.736 138.973 146.686 140.891 148.775 140.113C148.474 140.196 139.11 148.421 139.11 148.421Z" fill="#FFC7A1"/>
<path d="M145.867 139.734L155.722 133.055C155.722 133.055 159.354 129.991 160.943 131.262C162.467 132.481 159.035 134.553 156.999 136.131C156.125 136.79 148.894 142.554 148.559 142.509C146.273 142.198 145.867 139.734 145.867 139.734Z" fill="#FFC7A1"/>
<path d="M154.675 137.56C154.675 137.56 157.545 138.669 156.227 141.169C157.047 141.17 158.906 142.859 157.611 144.972C157.827 144.985 160.285 147.032 157.379 149.328C152.594 153.109 149.586 154.72 143.285 155.181C143.419 155.009 138.787 148.052 138.787 148.052C138.787 148.052 148.731 137.388 154.675 137.56Z" fill="#FFC7A1"/>
<path d="M155.105 137.554L149.048 141.407" stroke="#EA989D" stroke-width="1.32998" stroke-miterlimit="1.5" stroke-linecap="round" stroke-linejoin="round"/>
<path d="M156.057 141.41L151.211 145.051" stroke="#EA989D" stroke-width="1.32998" stroke-miterlimit="1.5" stroke-linecap="round" stroke-linejoin="round"/>
<path d="M157.269 145.054L153.635 147.578" stroke="#EA989D" stroke-width="1.32998" stroke-miterlimit="1.5" stroke-linecap="round" stroke-linejoin="round"/>
<path d="M144.369 146.519C136.855 147.463 129.299 148.153 121.822 149.353C106.497 151.813 103.738 154.738 101.156 155.678C98.5574 156.623 98.093 162.699 100.373 164.452C107.868 170.217 129.202 160.97 144.417 154.65C148.011 151.125 145.298 146.401 144.369 146.519Z" fill="#FFC7A1"/>
<path d="M138.182 147.356C138.399 147.352 138.605 147.434 138.761 147.586C138.917 147.739 139.005 147.943 139.007 148.161C139.011 148.379 138.928 148.586 138.777 148.741C138.624 148.898 138.421 148.986 138.203 148.989C133.847 149.049 117.775 150.714 107.263 155.276C106.861 155.45 106.387 155.269 106.202 154.872L106.197 154.863L106.177 154.811C106.106 154.621 106.108 154.415 106.182 154.226C106.263 154.023 106.417 153.862 106.616 153.776C111.564 151.629 117.589 150.119 123.122 149.105C129.745 147.892 135.663 147.39 138.182 147.356Z" fill="#EA989D"/>
</g>
<defs>
<clipPath id="clip0_17384_31355">
<rect width="309" height="198" fill="white"/>
</clipPath>
</defs>
</svg>
