<svg width="48" height="48" viewBox="0 0 48 48" fill="none" xmlns="http://www.w3.org/2000/svg">
<rect width="48" height="48" rx="8" fill="#EBF2FE"/>
<path d="M35.1288 11H12.8712C12.39 11 12 11.4236 12 11.9461V18.054C12 18.5765 12.39 19 12.8712 19H35.1288C35.6099 19 36 18.5765 36 18.054V11.9461C36 11.4236 35.6099 11 35.1288 11Z" fill="#FFB533"/>
<path d="M34 14H22V16H34V14Z" fill="white"/>
<path d="M15 16C15.5523 16 16 15.5523 16 15C16 14.4477 15.5523 14 15 14C14.4477 14 14 14.4477 14 15C14 15.5523 14.4477 16 15 16Z" fill="white"/>
<path d="M19 16C19.5523 16 20 15.5523 20 15C20 14.4477 19.5523 14 19 14C18.4477 14 18 14.4477 18 15C18 15.5523 18.4477 16 19 16Z" fill="#3A7BF6"/>
<path d="M35.1288 20H12.8712C12.39 20 12 20.4236 12 20.9461V27.054C12 27.5765 12.39 28 12.8712 28H35.1288C35.6099 28 36 27.5765 36 27.054V20.9461C36 20.4236 35.6099 20 35.1288 20Z" fill="#FFB533"/>
<path d="M34 23H22V25H34V23Z" fill="white"/>
<path d="M15 25C15.5523 25 16 24.5523 16 24C16 23.4477 15.5523 23 15 23C14.4477 23 14 23.4477 14 24C14 24.5523 14.4477 25 15 25Z" fill="white"/>
<path d="M19 25C19.5523 25 20 24.5523 20 24C20 23.4477 19.5523 23 19 23C18.4477 23 18 23.4477 18 24C18 24.5523 18.4477 25 19 25Z" fill="#3A7BF6"/>
<path d="M35.1288 29H12.8712C12.39 29 12 29.4236 12 29.9461V36.054C12 36.5765 12.39 37 12.8712 37H35.1288C35.6099 37 36 36.5765 36 36.054V29.9461C36 29.4236 35.6099 29 35.1288 29Z" fill="#FFB533"/>
<path d="M34 32H22V34H34V32Z" fill="white"/>
<path d="M15 34C15.5523 34 16 33.5523 16 33C16 32.4477 15.5523 32 15 32C14.4477 32 14 32.4477 14 33C14 33.5523 14.4477 34 15 34Z" fill="white"/>
<path d="M19 34C19.5523 34 20 33.5523 20 33C20 32.4477 19.5523 32 19 32C18.4477 32 18 32.4477 18 33C18 33.5523 18.4477 34 19 34Z" fill="#3A7BF6"/>
</svg>
