<svg width="48" height="48" viewBox="0 0 48 48" fill="none" xmlns="http://www.w3.org/2000/svg">
<g clip-path="url(#clip0_17347_21792)">
<mask id="mask0_17347_21792" style="mask-type:luminance" maskUnits="userSpaceOnUse" x="0" y="0" width="48" height="48">
<path d="M48 24C48 24.22 48 24.44 47.98 24.66C47.64 37.6 37.03 48 24 48C10.97 48 0.36 37.6 0.02 24.66C0 24.44 0 24.22 0 24C0 10.74 10.74 0 24 0C37.26 0 48 10.74 48 24Z" fill="white"/>
</mask>
<g mask="url(#mask0_17347_21792)">
<path d="M48 24C48 24.22 48 24.44 47.98 24.66C47.64 37.6 37.03 48 24 48C10.97 48 0.36 37.6 0.02 24.66C0 24.44 0 24.22 0 24C0 10.74 10.74 0 24 0C37.26 0 48 10.74 48 24Z" fill="#B6C7ED"/>
<path d="M0 24.75H48" stroke="white" stroke-width="0.87" stroke-miterlimit="10"/>
<path opacity="0.2" d="M0 19.3789H48" stroke="white" stroke-width="0.87" stroke-miterlimit="10"/>
<path opacity="0.2" d="M0 14.0117H48" stroke="white" stroke-width="0.87" stroke-miterlimit="10"/>
<path opacity="0.2" d="M0 8.64062H48" stroke="white" stroke-width="0.87" stroke-miterlimit="10"/>
<path opacity="0.2" d="M0 3.26953H48" stroke="white" stroke-width="0.87" stroke-miterlimit="10"/>
<path opacity="0.2" d="M4.19 0V45.92" stroke="white" stroke-width="0.85" stroke-miterlimit="10"/>
<path opacity="0.2" d="M19.56 0V45.92" stroke="white" stroke-width="0.85" stroke-miterlimit="10"/>
<path opacity="0.2" d="M34.9301 0V45.92" stroke="white" stroke-width="0.85" stroke-miterlimit="10"/>
<path d="M47.98 24.6609C47.64 37.6009 37.03 48.0009 24 48.0009C10.97 48.0009 0.36002 37.6009 0.0200195 24.6609C5.98002 21.7709 14.52 19.9609 24 19.9609C33.48 19.9609 42.02 21.7709 47.98 24.6609Z" fill="#EBEBF1"/>
<path d="M49.8899 32.5319C42.0999 36.2619 34.2999 28.6319 26.5099 32.3719C25.7899 32.7119 25.3099 32.5219 25.4499 31.8019C26.0799 28.3419 26.7099 24.8719 27.3399 21.4119C27.4699 20.6919 28.0499 19.8419 28.6399 19.6219C35.0199 17.2019 41.3999 24.0819 47.7699 21.6719C48.3499 21.4519 48.9399 21.6619 49.0699 22.2419C49.6999 25.0719 50.3299 27.9119 50.9599 30.7419C51.0899 31.3219 50.6199 32.1919 49.8999 32.5319H49.8899Z" fill="#4EA13F"/>
<path d="M48.1899 23.8413C48.6199 26.0113 49.0399 28.1913 49.4699 30.3613C48.7799 30.6813 48.3099 31.3413 48.4099 31.9513C41.6099 34.1113 34.7999 28.4413 27.9999 30.6013C28.0999 29.9113 27.6199 29.5113 26.9399 29.8313C27.3699 27.2813 27.7899 24.7313 28.2199 22.1813C28.8299 21.9313 29.4199 21.2613 29.5199 20.5713C35.3199 19.1913 41.1099 24.4913 46.9099 23.1113C47.0099 23.7213 47.5899 24.1113 48.2099 23.8613L48.1899 23.8413Z" fill="#57B246"/>
<path d="M40.0499 27.0807C39.9799 25.3007 39.1599 23.6107 38.1999 23.3007C37.2499 22.9807 36.4199 24.2107 36.3499 26.0207C36.2799 27.8307 37.1099 29.5107 38.1999 29.8007C39.2899 30.0907 40.1099 28.8607 40.0499 27.0807Z" fill="#4EA13F"/>
<path d="M45.83 27.8411C45.74 27.2211 45.16 26.7511 44.52 26.7311C43.88 26.7111 43.41 27.1511 43.47 27.7911C43.53 28.4311 44.11 29.0111 44.78 29.0211C45.45 29.0311 45.92 28.4711 45.83 27.8511V27.8411Z" fill="#4EA13F"/>
<path d="M32.93 25.3089C32.99 24.6389 32.51 24.0289 31.88 24.0089C31.24 23.9789 30.66 24.5789 30.57 25.2589C30.48 25.9389 30.95 26.4389 31.62 26.4489C32.29 26.4589 32.87 25.9889 32.93 25.3189V25.3089Z" fill="#4EA13F"/>
<path d="M49.3899 38.2985C41.5999 37.0185 33.7999 41.4185 26.0099 40.1385C25.2899 40.0185 24.8099 39.2885 24.9499 38.5685C25.5799 35.1085 26.2099 31.6385 26.8399 28.1785C26.9699 27.4585 27.5499 27.0485 28.1399 27.2085C34.5199 28.8985 40.8999 25.9285 47.2699 27.6185C47.8499 27.7685 48.4399 28.4185 48.5699 29.0085C49.1999 31.8385 49.8299 34.6785 50.4599 37.5085C50.5899 38.0985 50.1199 38.4185 49.3999 38.2985H49.3899Z" fill="#4EA13F"/>
<path opacity="0.2" d="M50.34 36.9893C49.74 34.3293 49.15 31.6593 48.56 28.9993C48.42 28.4093 47.84 27.7593 47.26 27.6093C40.88 25.9193 34.5 28.8793 28.12 27.1993C27.54 27.0393 26.96 27.4493 26.83 28.1693C26.2 31.6393 25.57 35.0993 24.94 38.5593C24.92 38.6293 24.92 38.7093 24.92 38.7793C24.88 38.7693 24.83 38.7693 24.79 38.7593C24.02 38.6493 23.51 37.9393 23.65 37.2393C24.33 33.8893 25 30.5293 25.67 27.1793C25.82 26.4793 26.44 26.0893 27.06 26.2393C33.89 27.8693 40.71 24.9993 47.54 26.6393C48.16 26.7793 48.79 27.4093 48.93 27.9793C49.6 30.7193 50.28 33.4693 50.95 36.2093C51.05 36.6293 50.8 36.9193 50.34 36.9893Z" fill="#232323"/>
<path d="M47.6899 29.7491C48.1199 31.8891 48.5399 34.0191 48.9699 36.1591C48.2799 36.0291 47.8099 36.4691 47.9099 37.0591C41.1099 36.3991 34.2999 39.6691 27.4999 39.0091C27.5999 38.2991 27.1199 37.6691 26.4399 37.5491C26.8699 34.9591 27.2899 32.3791 27.7199 29.7891C28.3299 29.9391 28.9199 29.4291 29.0199 28.7291C34.8199 29.7491 40.6099 27.4291 46.4099 28.4491C46.5099 29.0391 47.0899 29.5991 47.7099 29.7491H47.6899Z" fill="#57B246"/>
<path d="M39.5401 33.0283C39.4701 31.2783 38.6501 29.9383 37.6901 30.0583C36.7401 30.1783 35.9101 31.7483 35.8401 33.5883C35.7701 35.4283 36.6001 36.7683 37.6901 36.5583C38.7801 36.3583 39.6001 34.7783 39.5401 33.0283Z" fill="#4EA13F"/>
<path d="M45.32 32.5984C45.23 31.9984 44.65 31.4784 44.01 31.4884C43.37 31.4884 42.9 32.0284 42.96 32.6384C43.02 33.2584 43.6 33.7084 44.27 33.6884C44.94 33.6684 45.41 33.1984 45.32 32.5884V32.5984Z" fill="#4EA13F"/>
<path d="M32.43 33.9717C32.49 33.2817 32.01 32.7617 31.38 32.7617C30.74 32.7617 30.16 33.3117 30.07 34.0117C29.98 34.7117 30.45 35.3017 31.12 35.2817C31.79 35.2617 32.37 34.6517 32.43 33.9717Z" fill="#4EA13F"/>
<path d="M30.84 37.9611V38.1011C31.3 44.4311 25.35 45.8711 19.02 46.3711L14.79 46.7111C8.46004 47.2211 1.70004 46.6311 1.14004 40.3211V40.1812C0.670042 34.4512 4.20004 23.2411 8.30004 20.3411C8.71004 20.0511 9.13004 19.7911 9.56004 19.5511C11.14 18.6711 12.9 18.1211 14.78 17.9711C22.43 17.3611 30.17 29.6111 30.84 37.9611Z" fill="#1C48C5"/>
<path d="M20.9199 10.6782L20.2799 16.5382L19.9399 19.6282L10.5799 20.3782C10.3299 20.3982 10.0899 20.3482 9.86994 20.2582L9.22994 17.9382L7.52994 11.7482C7.25994 10.7782 7.94994 9.78817 8.95994 9.70817L19.1699 8.88817C19.9199 8.82817 20.5599 9.27817 20.7999 9.91817C20.8999 10.1382 20.9399 10.4082 20.8999 10.6782H20.9199Z" fill="#12328A"/>
<path d="M20.92 10.6819L20.28 16.5419L19.94 19.6319L11.33 20.3219L10.5 17.3119L9.25003 12.7719C8.98003 11.8019 9.67003 10.8119 10.68 10.7319L20.81 9.92188C20.91 10.1419 20.95 10.4119 20.91 10.6819H20.92Z" fill="#1C48C5"/>
<path d="M19.01 46.3786L14.78 46.7186C8.45003 47.2286 1.69003 46.6386 1.13003 40.3286V40.1886C0.660033 34.4586 4.19003 23.2486 8.29003 20.3486C8.70003 20.0586 9.12003 19.7986 9.55003 19.5586C8.05003 23.0886 1.85003 42.0386 19.01 46.3786Z" fill="#12328A"/>
<path d="M10.59 20.3803L9.44999 20.4703C8.59999 20.5403 7.86999 19.9103 7.79999 19.0603C7.72999 18.2103 8.35999 17.4803 9.20999 17.4103L10.35 17.3203C9.50999 17.3903 8.88999 18.1203 8.95999 18.9703C9.02999 19.8203 9.75999 20.4403 10.6 20.3803H10.59Z" fill="#763350"/>
<path d="M21.8301 17.9417C21.9001 18.7917 21.2701 19.5217 20.4201 19.5917L10.5801 20.3817C10.3301 20.4017 10.0901 20.3517 9.87005 20.2617C9.36005 20.0617 8.98005 19.5717 8.94005 18.9717C8.91005 18.5917 9.02005 18.2217 9.23005 17.9417C9.48005 17.6017 9.87005 17.3617 10.3301 17.3217L20.1701 16.5317C20.1701 16.5317 20.2401 16.5317 20.2701 16.5317C21.0801 16.5117 21.7601 17.1217 21.8201 17.9317L21.8301 17.9417Z" fill="#EC679F"/>
<path d="M12.2 30.979C11.79 29.179 11.35 27.389 10.88 25.599C11.36 25.489 11.85 25.389 12.34 25.299C12.74 27.099 13.11 28.909 13.45 30.719C13.03 30.799 12.61 30.879 12.2 30.979ZM12.76 29.059C12.69 28.739 12.63 28.429 12.56 28.109C13.06 28.009 13.56 27.929 14.06 27.849C14.26 27.819 14.43 27.759 14.57 27.669C14.71 27.579 14.81 27.459 14.87 27.319C14.93 27.179 14.95 27.019 14.93 26.849C14.9 26.679 14.84 26.529 14.73 26.409C14.63 26.289 14.49 26.199 14.32 26.149C14.15 26.099 13.96 26.089 13.75 26.119C13.22 26.199 12.7 26.289 12.18 26.389C12.1 26.049 12.03 25.709 11.95 25.369C12.45 25.269 12.95 25.179 13.45 25.099C14 25.009 14.48 25.019 14.91 25.099C15.33 25.189 15.67 25.359 15.92 25.609C16.17 25.859 16.31 26.189 16.36 26.599C16.36 26.639 16.36 26.679 16.37 26.719C16.41 27.119 16.34 27.469 16.17 27.749C16 28.039 15.73 28.259 15.39 28.439C15.04 28.609 14.62 28.739 14.13 28.809C13.68 28.879 13.23 28.959 12.78 29.049L12.76 29.059ZM15.61 30.399C14.96 29.679 14.26 28.989 13.53 28.309C14.03 28.229 14.52 28.149 15.02 28.089C15.75 28.789 16.45 29.509 17.09 30.259C16.59 30.299 16.1 30.339 15.6 30.399H15.61Z" fill="#B6C7ED"/>
<path d="M17.88 31.7084C17.78 29.8384 17.66 27.9684 17.51 26.0984C17.88 26.0784 18.26 26.0684 18.63 26.0584C18.66 26.6484 18.69 27.2484 18.71 27.8384C18.66 27.8384 18.61 27.8384 18.57 27.8384C18.57 27.4284 18.65 27.0784 18.81 26.7884C18.97 26.4984 19.2 26.2884 19.5 26.1384C19.8 25.9984 20.14 25.9284 20.52 25.9384C20.86 25.9384 21.17 26.0084 21.44 26.1284C21.71 26.2484 21.94 26.4084 22.13 26.6084C22.32 26.8084 22.46 27.0384 22.54 27.2984C22.63 27.5584 22.66 27.8384 22.64 28.1384C22.64 28.1984 22.64 28.2484 22.63 28.3084C22.61 28.5984 22.54 28.8784 22.43 29.1284C22.32 29.3784 22.17 29.5884 21.98 29.7684C21.79 29.9484 21.57 30.0784 21.32 30.1784C21.07 30.2684 20.79 30.3184 20.47 30.3084C20.14 30.3084 19.85 30.2284 19.59 30.1084C19.33 29.9784 19.11 29.7884 18.94 29.5284C18.77 29.2684 18.67 28.9384 18.64 28.5284C18.77 28.6784 18.89 28.8284 19.02 28.9684C19.05 29.8684 19.07 30.7684 19.08 31.6684C18.68 31.6684 18.27 31.6884 17.87 31.7084H17.88ZM20.13 29.2984C20.35 29.2984 20.55 29.2584 20.71 29.1584C20.88 29.0584 21.01 28.9284 21.11 28.7484C21.21 28.5684 21.26 28.3684 21.27 28.1284C21.27 27.8984 21.23 27.6884 21.14 27.5084C21.05 27.3284 20.91 27.1884 20.74 27.0784C20.57 26.9784 20.36 26.9184 20.12 26.9184C19.91 26.9184 19.72 26.9584 19.53 27.0384C19.35 27.1284 19.2 27.2484 19.1 27.4084C18.99 27.5684 18.95 27.7584 18.95 27.9884C18.95 28.0784 18.95 28.1684 18.95 28.2684C18.95 28.4884 19.02 28.6684 19.14 28.8184C19.26 28.9684 19.4 29.0884 19.58 29.1684C19.75 29.2484 19.93 29.2884 20.12 29.2984H20.13Z" fill="#B6C7ED"/>
<path d="M28.57 45.1094V47.6194C28.57 49.0794 25.61 50.2594 21.96 50.2594C18.31 50.2594 15.35 49.0794 15.35 47.6194V45.1094H28.57Z" fill="#FFB533"/>
<path d="M21.96 47.7487C25.6106 47.7487 28.57 46.5668 28.57 45.1087C28.57 43.6507 25.6106 42.4688 21.96 42.4688C18.3094 42.4688 15.35 43.6507 15.35 45.1087C15.35 46.5668 18.3094 47.7487 21.96 47.7487Z" fill="#FFD56C"/>
<path d="M21.96 46.97C19.03 46.97 17.2 46.15 16.44 45.51C16.24 45.34 16.24 44.87 16.44 44.71C17.2 44.07 19.04 43.25 21.96 43.25C24.88 43.25 26.72 44.07 27.48 44.71C27.68 44.88 27.68 45.35 27.48 45.51C26.72 46.15 24.88 46.97 21.96 46.97Z" fill="#FFC34A"/>
<path d="M28.57 42.1992V44.7092C28.57 46.1692 25.61 47.3492 21.96 47.3492C18.31 47.3492 15.35 46.1692 15.35 44.7092V42.1992H28.57Z" fill="#FFB533"/>
<path d="M21.96 44.8386C25.6106 44.8386 28.57 43.6566 28.57 42.1986C28.57 40.7406 25.6106 39.5586 21.96 39.5586C18.3094 39.5586 15.35 40.7406 15.35 42.1986C15.35 43.6566 18.3094 44.8386 21.96 44.8386Z" fill="#FFD56C"/>
<path d="M21.96 44.06C19.03 44.06 17.2 43.24 16.44 42.6C16.24 42.43 16.24 41.96 16.44 41.8C17.2 41.16 19.04 40.34 21.96 40.34C24.88 40.34 26.72 41.16 27.48 41.8C27.68 41.97 27.68 42.44 27.48 42.6C26.72 43.24 24.88 44.06 21.96 44.06Z" fill="#FFC34A"/>
<path d="M28.57 39.2617V41.7717C28.57 43.2317 25.61 44.4117 21.96 44.4117C18.31 44.4117 15.35 43.2317 15.35 41.7717V39.2617H28.57Z" fill="#FFB533"/>
<path d="M21.96 41.9011C25.6106 41.9011 28.57 40.7191 28.57 39.2611C28.57 37.8031 25.6106 36.6211 21.96 36.6211C18.3094 36.6211 15.35 37.8031 15.35 39.2611C15.35 40.7191 18.3094 41.9011 21.96 41.9011Z" fill="#FFD56C"/>
<path d="M21.96 41.1184C19.03 41.1184 17.2 40.2984 16.44 39.6584C16.24 39.4884 16.24 39.0184 16.44 38.8584C17.2 38.2184 19.04 37.3984 21.96 37.3984C24.88 37.3984 26.72 38.2184 27.48 38.8584C27.68 39.0284 27.68 39.4984 27.48 39.6584C26.72 40.2984 24.88 41.1184 21.96 41.1184Z" fill="#FFC34A"/>
<path d="M28.57 36.3516V38.8616C28.57 40.3216 25.61 41.5016 21.96 41.5016C18.31 41.5016 15.35 40.3216 15.35 38.8616V36.3516H28.57Z" fill="#FFB533"/>
<path d="M28.57 36.3509C28.57 37.4409 26.89 38.3909 24.5 38.7809C23.71 38.9209 22.85 38.9909 21.96 38.9909C18.31 38.9909 15.35 37.8009 15.35 36.3509C15.35 34.9009 18.31 33.7109 21.96 33.7109C22.93 33.7109 23.85 33.7909 24.67 33.9509C26.97 34.3509 28.57 35.2809 28.57 36.3509Z" fill="#FFD56C"/>
<path d="M21.96 38.2083C19.03 38.2083 17.2 37.3883 16.44 36.7483C16.24 36.5783 16.24 36.1083 16.44 35.9483C17.2 35.3083 19.04 34.4883 21.96 34.4883C24.88 34.4883 26.72 35.3083 27.48 35.9483C27.68 36.1183 27.68 36.5883 27.48 36.7483C26.72 37.3883 24.88 38.2083 21.96 38.2083Z" fill="#FFC34A"/>
<path opacity="0.2" d="M30.05 50.7991L23.39 50.3291L23.86 33.7891L24.63 33.9391V34.9691C24.63 35.0591 24.65 35.1391 24.67 35.2291C24.64 35.3091 24.63 35.3991 24.63 35.4891V37.9991C24.63 38.0691 24.65 38.1291 24.66 38.1991C24.65 38.2591 24.63 38.3291 24.63 38.3991V40.9091C24.63 40.9791 24.65 41.0491 24.66 41.1191C24.65 41.1891 24.63 41.2591 24.63 41.3391V43.8491C24.63 43.9091 24.65 43.9791 24.66 44.0491C24.65 44.1091 24.63 44.1791 24.63 44.2391V46.7591C24.63 48.0191 26.84 49.0691 29.8 49.3391L30.05 50.7991Z" fill="#232323"/>
<path d="M44.56 44.9688V47.4787C44.56 48.9387 41.6 50.1187 37.95 50.1187C34.3 50.1187 31.34 48.9387 31.34 47.4787V44.9688H44.56Z" fill="#FFB533"/>
<path d="M37.96 47.6081C41.6106 47.6081 44.57 46.4262 44.57 44.9681C44.57 43.5101 41.6106 42.3281 37.96 42.3281C34.3094 42.3281 31.35 43.5101 31.35 44.9681C31.35 46.4262 34.3094 47.6081 37.96 47.6081Z" fill="#FFD56C"/>
<path d="M37.96 46.8294C35.03 46.8294 33.2 46.0094 32.44 45.3694C32.24 45.1994 32.24 44.7294 32.44 44.5694C33.2 43.9294 35.04 43.1094 37.96 43.1094C40.88 43.1094 42.72 43.9294 43.48 44.5694C43.68 44.7394 43.68 45.2094 43.48 45.3694C42.72 46.0094 40.88 46.8294 37.96 46.8294Z" fill="#FFC34A"/>
<path d="M44.56 42.0586V44.5686C44.56 46.0286 41.6 47.2086 37.95 47.2086C34.3 47.2086 31.34 46.0286 31.34 44.5686V42.0586H44.56Z" fill="#FFB533"/>
<path d="M37.96 44.7019C41.6106 44.7019 44.57 43.5199 44.57 42.0619C44.57 40.6038 41.6106 39.4219 37.96 39.4219C34.3094 39.4219 31.35 40.6038 31.35 42.0619C31.35 43.5199 34.3094 44.7019 37.96 44.7019Z" fill="#FFD56C"/>
<path d="M37.96 43.9192C35.03 43.9192 33.2 43.0992 32.44 42.4592C32.24 42.2892 32.24 41.8192 32.44 41.6592C33.2 41.0192 35.04 40.1992 37.96 40.1992C40.88 40.1992 42.72 41.0192 43.48 41.6592C43.68 41.8292 43.68 42.2992 43.48 42.4592C42.72 43.0992 40.88 43.9192 37.96 43.9192Z" fill="#FFC34A"/>
<path d="M44.56 39.1211V41.6311C44.56 43.0911 41.6 44.2711 37.95 44.2711C34.3 44.2711 31.34 43.0911 31.34 41.6311V39.1211H44.56Z" fill="#FFB533"/>
<path d="M37.96 41.7605C41.6106 41.7605 44.57 40.5785 44.57 39.1205C44.57 37.6624 41.6106 36.4805 37.96 36.4805C34.3094 36.4805 31.35 37.6624 31.35 39.1205C31.35 40.5785 34.3094 41.7605 37.96 41.7605Z" fill="#FFD56C"/>
<path d="M37.96 40.9817C35.03 40.9817 33.2 40.1617 32.44 39.5217C32.24 39.3517 32.24 38.8817 32.44 38.7217C33.2 38.0817 35.04 37.2617 37.96 37.2617C40.88 37.2617 42.72 38.0817 43.48 38.7217C43.68 38.8917 43.68 39.3617 43.48 39.5217C42.72 40.1617 40.88 40.9817 37.96 40.9817Z" fill="#FFC34A"/>
<path d="M44.56 36.2109V38.7209C44.56 40.1809 41.6 41.3609 37.95 41.3609C34.3 41.3609 31.34 40.1809 31.34 38.7209V36.2109H44.56Z" fill="#FFB533"/>
<path d="M44.56 36.2103C44.56 37.3003 42.88 38.2503 40.49 38.6403C39.7 38.7803 38.84 38.8503 37.95 38.8503C34.3 38.8503 31.34 37.6603 31.34 36.2103C31.34 34.7603 34.3 33.5703 37.95 33.5703C38.92 33.5703 39.84 33.6503 40.66 33.8103C42.96 34.2103 44.56 35.1403 44.56 36.2103Z" fill="#FFD56C"/>
<path d="M37.96 38.0716C35.03 38.0716 33.2 37.2516 32.44 36.6116C32.24 36.4416 32.24 35.9716 32.44 35.8116C33.2 35.1716 35.04 34.3516 37.96 34.3516C40.88 34.3516 42.72 35.1716 43.48 35.8116C43.68 35.9816 43.68 36.4516 43.48 36.6116C42.72 37.2516 40.88 38.0716 37.96 38.0716Z" fill="#FFC34A"/>
<path opacity="0.2" d="M39.69 50.1218L35.38 51.3918L31.75 49.8418L31.86 49.3918C35.22 49.2618 37.85 48.1418 37.85 46.7618V44.2418C37.85 44.1818 37.84 44.1118 37.83 44.0518C37.84 43.9818 37.85 43.9118 37.85 43.8518V41.3418C37.85 41.2618 37.84 41.1918 37.82 41.1218C37.84 41.0518 37.85 40.9818 37.85 40.9118V38.4018C37.85 38.3318 37.84 38.2618 37.83 38.2018C37.84 38.1318 37.85 38.0618 37.85 38.0018V35.4918C37.85 35.4118 37.83 35.3418 37.81 35.2618C37.84 35.1718 37.85 35.0718 37.85 34.9718V33.5718C37.85 33.5718 39 33.4818 40.91 33.8618C39.86 35.9618 39.54 38.8118 39.54 38.8118C39.54 38.8118 39.55 39.6418 39.58 41.3418L39.69 50.1218Z" fill="#232323"/>
<path d="M37.85 44.25V46.76C37.85 48.22 34.89 49.4 31.24 49.4C27.59 49.4 24.63 48.22 24.63 46.76V44.25H37.85Z" fill="#FFB533"/>
<path d="M31.24 46.8894C34.8906 46.8894 37.85 45.7074 37.85 44.2494C37.85 42.7913 34.8906 41.6094 31.24 41.6094C27.5894 41.6094 24.63 42.7913 24.63 44.2494C24.63 45.7074 27.5894 46.8894 31.24 46.8894Z" fill="#FFD56C"/>
<path d="M31.2399 46.1106C28.3099 46.1106 26.4799 45.2906 25.7199 44.6506C25.5199 44.4806 25.5199 44.0106 25.7199 43.8506C26.4799 43.2106 28.3199 42.3906 31.2399 42.3906C34.1599 42.3906 35.9999 43.2106 36.7599 43.8506C36.9599 44.0206 36.9599 44.4906 36.7599 44.6506C35.9999 45.2906 34.1599 46.1106 31.2399 46.1106Z" fill="#FFC34A"/>
<path d="M37.85 41.34V43.85C37.85 45.31 34.89 46.49 31.24 46.49C27.59 46.49 24.63 45.31 24.63 43.85V41.34H37.85Z" fill="#FFB533"/>
<path d="M31.24 43.9792C34.8906 43.9792 37.85 42.7972 37.85 41.3392C37.85 39.8812 34.8906 38.6992 31.24 38.6992C27.5894 38.6992 24.63 39.8812 24.63 41.3392C24.63 42.7972 27.5894 43.9792 31.24 43.9792Z" fill="#FFD56C"/>
<path d="M31.2399 43.2005C28.3099 43.2005 26.4799 42.3805 25.7199 41.7405C25.5199 41.5705 25.5199 41.1005 25.7199 40.9405C26.4799 40.3005 28.3199 39.4805 31.2399 39.4805C34.1599 39.4805 35.9999 40.3005 36.7599 40.9405C36.9599 41.1105 36.9599 41.5805 36.7599 41.7405C35.9999 42.3805 34.1599 43.2005 31.2399 43.2005Z" fill="#FFC34A"/>
<path d="M37.85 38.3984V40.9084C37.85 42.3684 34.89 43.5484 31.24 43.5484C27.59 43.5484 24.63 42.3684 24.63 40.9084V38.3984H37.85Z" fill="#FFB533"/>
<path d="M31.24 41.0417C34.8906 41.0417 37.85 39.8598 37.85 38.4017C37.85 36.9437 34.8906 35.7617 31.24 35.7617C27.5894 35.7617 24.63 36.9437 24.63 38.4017C24.63 39.8598 27.5894 41.0417 31.24 41.0417Z" fill="#FFD56C"/>
<path d="M31.2399 40.2591C28.3099 40.2591 26.4799 39.4391 25.7199 38.7991C25.5199 38.6291 25.5199 38.1591 25.7199 37.9991C26.4799 37.3591 28.3199 36.5391 31.2399 36.5391C34.1599 36.5391 35.9999 37.3591 36.7599 37.9991C36.9599 38.1691 36.9599 38.6391 36.7599 38.7991C35.9999 39.4391 34.1599 40.2591 31.2399 40.2591Z" fill="#FFC34A"/>
<path d="M37.85 35.4883V37.9983C37.85 39.4583 34.89 40.6383 31.24 40.6383C27.59 40.6383 24.63 39.4583 24.63 37.9983V35.4883H37.85Z" fill="#FFB533"/>
<path d="M37.85 35.4916C37.85 36.5816 36.17 37.5316 33.78 37.9216C32.99 38.0616 32.13 38.1316 31.24 38.1316C27.59 38.1316 24.63 36.9416 24.63 35.4916C24.63 34.0416 27.59 32.8516 31.24 32.8516C32.21 32.8516 33.13 32.9316 33.95 33.0916C36.25 33.4916 37.85 34.4216 37.85 35.4916Z" fill="#FFD56C"/>
<path d="M31.2399 37.3489C28.3099 37.3489 26.4799 36.5289 25.7199 35.8889C25.5199 35.7189 25.5199 35.2489 25.7199 35.0889C26.4799 34.4489 28.3199 33.6289 31.2399 33.6289C34.1599 33.6289 35.9999 34.4489 36.7599 35.0889C36.9599 35.2589 36.9599 35.7289 36.7599 35.8889C35.9999 36.5289 34.1599 37.3489 31.2399 37.3489Z" fill="#FFC34A"/>
<path d="M37.85 32.4609V34.9709C37.85 36.4309 34.89 37.6109 31.24 37.6109C27.59 37.6109 24.63 36.4309 24.63 34.9709V32.4609H37.85Z" fill="#FFB533"/>
<path d="M37.85 32.4681C37.85 33.5581 36.17 34.5081 33.78 34.8981C32.99 35.0381 32.13 35.1081 31.24 35.1081C27.59 35.1081 24.63 33.9181 24.63 32.4681C24.63 31.0181 27.59 29.8281 31.24 29.8281C32.21 29.8281 33.13 29.9081 33.95 30.0681C36.25 30.4681 37.85 31.3981 37.85 32.4681Z" fill="#FFD56C"/>
<path d="M31.2399 34.3294C28.3099 34.3294 26.4799 33.5094 25.7199 32.8694C25.5199 32.6994 25.5199 32.2294 25.7199 32.0694C26.4799 31.4294 28.3199 30.6094 31.2399 30.6094C34.1599 30.6094 35.9999 31.4294 36.7599 32.0694C36.9599 32.2394 36.9599 32.7094 36.7599 32.8694C35.9999 33.5094 34.1599 34.3294 31.2399 34.3294Z" fill="#FFC34A"/>
<path d="M37.85 29.3594V31.8694C37.85 33.3294 34.89 34.5094 31.24 34.5094C27.59 34.5094 24.63 33.3294 24.63 31.8694V29.3594H37.85Z" fill="#FFB533"/>
<path d="M37.85 29.3705C37.85 30.4605 36.17 31.4105 33.78 31.8005C32.99 31.9405 32.13 32.0105 31.24 32.0105C27.59 32.0105 24.63 30.8205 24.63 29.3705C24.63 27.9205 27.59 26.7305 31.24 26.7305C32.21 26.7305 33.13 26.8105 33.95 26.9705C36.25 27.3705 37.85 28.3005 37.85 29.3705Z" fill="#FFD56C"/>
<path d="M31.2399 31.2317C28.3099 31.2317 26.4799 30.4117 25.7199 29.7717C25.5199 29.6017 25.5199 29.1317 25.7199 28.9717C26.4799 28.3317 28.3199 27.5117 31.2399 27.5117C34.1599 27.5117 35.9999 28.3317 36.7599 28.9717C36.9599 29.1417 36.9599 29.6117 36.7599 29.7717C35.9999 30.4117 34.1599 31.2317 31.2399 31.2317Z" fill="#FFC34A"/>
</g>
</g>
<defs>
<clipPath id="clip0_17347_21792">
<rect width="48" height="48" fill="white"/>
</clipPath>
</defs>
</svg>
