<svg width="352" height="198" viewBox="0 0 352 198" fill="none" xmlns="http://www.w3.org/2000/svg">
<g clip-path="url(#clip0_15027_156025)">
<mask id="mask0_15027_156025" style="mask-type:luminance" maskUnits="userSpaceOnUse" x="21" y="0" width="309" height="198">
<path d="M330 0H21V198H330V0Z" fill="white"/>
</mask>
<g mask="url(#mask0_15027_156025)">
<path d="M38.4 24.3337C43.4033 17.2579 47.6892 12.1661 69.9794 8.70411C105.29 3.21757 257.303 3.46052 285.62 10.3541C301.979 14.3425 317.611 14.9296 319.276 43.8706C320.586 66.5861 323.016 128.274 317.2 142.345C311.383 156.416 306.81 170.476 279.804 171.721C252.797 172.966 101.147 175.861 76.2168 174.616C51.2862 173.371 38.4096 162.621 33.4254 150.2C28.4412 137.79 30.5171 71.1717 30.5171 71.1717C30.5171 71.1717 30.5649 35.4282 38.4096 24.3236L38.4 24.3337Z" fill="#EBEBF2"/>
<mask id="mask1_15027_156025" style="mask-type:luminance" maskUnits="userSpaceOnUse" x="30" y="5" width="291" height="171">
<path d="M38.3116 24.4743C43.315 17.3985 47.6008 12.3067 69.891 8.84473C105.201 3.35819 257.215 3.60114 285.532 10.4948C301.891 14.4831 317.523 15.0702 319.187 44.0112C320.498 66.7267 322.928 128.415 317.111 142.486C311.295 156.556 306.722 170.617 279.715 171.862C252.709 173.107 101.059 176.002 76.1284 174.757C51.1978 173.512 38.3212 162.761 33.337 150.341C28.3528 137.93 30.4287 71.3124 30.4287 71.3124C30.4287 71.3124 30.4766 35.5689 38.3212 24.4642L38.3116 24.4743Z" fill="white"/>
</mask>
<g mask="url(#mask1_15027_156025)">
<path d="M29.9996 -6.55273H248.118V127.067H29.9996V-6.55273Z" stroke="white" stroke-width="1.33277" stroke-miterlimit="10" stroke-linecap="round" stroke-linejoin="round"/>
<path d="M30 19.9883H248.119" stroke="white" stroke-width="1.33277" stroke-miterlimit="10" stroke-linecap="round" stroke-linejoin="round"/>
<path d="M30 42.4199H248.119" stroke="white" stroke-width="1.33277" stroke-miterlimit="10" stroke-linecap="round" stroke-linejoin="round"/>
<path d="M30 64.8516H248.119" stroke="white" stroke-width="1.33277" stroke-miterlimit="10" stroke-linecap="round" stroke-linejoin="round"/>
<path d="M30 87.2852H248.119" stroke="white" stroke-width="1.33277" stroke-miterlimit="10" stroke-linecap="round" stroke-linejoin="round"/>
<path d="M30 109.717H248.119" stroke="white" stroke-width="1.33277" stroke-miterlimit="10" stroke-linecap="round" stroke-linejoin="round"/>
<path d="M72.498 20.3359V109.816" stroke="white" stroke-width="1.33277" stroke-miterlimit="10" stroke-linecap="round" stroke-linejoin="round"/>
<path d="M102.171 20.3359V109.816" stroke="white" stroke-width="1.33277" stroke-miterlimit="10" stroke-linecap="round" stroke-linejoin="round"/>
<path d="M131.845 20.3359V109.816" stroke="white" stroke-width="1.33277" stroke-miterlimit="10" stroke-linecap="round" stroke-linejoin="round"/>
<path d="M161.518 20.3359V109.816" stroke="white" stroke-width="1.33277" stroke-miterlimit="10" stroke-linecap="round" stroke-linejoin="round"/>
<path d="M191.191 20.3359V109.816" stroke="white" stroke-width="1.33277" stroke-miterlimit="10" stroke-linecap="round" stroke-linejoin="round"/>
<path fill-rule="evenodd" clip-rule="evenodd" d="M78.0967 126.926C78.0967 128.195 79.1242 129.225 80.3897 129.225H197.728C198.994 129.225 200.021 128.195 200.021 126.926C200.021 125.657 198.994 124.627 197.728 124.627H80.3897C79.1242 124.627 78.0967 125.657 78.0967 126.926Z" fill="white"/>
<path d="M38.2049 94.9371C38.2049 93.5432 39.3323 92.4132 40.723 92.4132C42.1138 92.4132 43.2412 93.5432 43.2412 94.9371C43.2412 96.331 42.1138 97.4609 40.723 97.4609C39.3323 97.4609 38.2049 96.331 38.2049 94.9371Z" stroke="white" stroke-width="0.53394" stroke-miterlimit="10"/>
<path d="M46.7251 93.7773H54.1537" stroke="white" stroke-width="0.53394" stroke-miterlimit="10" stroke-linecap="round" stroke-linejoin="round"/>
<path d="M46.7251 96.873H58.7845" stroke="white" stroke-width="0.53163" stroke-miterlimit="10" stroke-linecap="round" stroke-linejoin="round"/>
<path d="M38.2049 103.531C38.2049 102.137 39.3323 101.007 40.723 101.007C42.1138 101.007 43.2412 102.137 43.2412 103.531C43.2412 104.925 42.1138 106.055 40.723 106.055C39.3323 106.055 38.2049 104.925 38.2049 103.531Z" stroke="white" stroke-width="0.53394" stroke-miterlimit="10"/>
<path d="M45.1812 102.373H52.6097" stroke="white" stroke-width="0.53394" stroke-miterlimit="10" stroke-linecap="round" stroke-linejoin="round"/>
<path d="M45.1812 105.467H58.7842" stroke="white" stroke-width="0.534497" stroke-miterlimit="10" stroke-linecap="round" stroke-linejoin="round"/>
<path d="M205.112 48.5293H241.735" stroke="white" stroke-width="1.16614" stroke-miterlimit="10" stroke-linecap="round"/>
<path d="M205.112 53.334H241.735" stroke="white" stroke-width="1.16614" stroke-miterlimit="10" stroke-linecap="round"/>
<path d="M205.112 58.1387H241.735" stroke="white" stroke-width="1.16614" stroke-miterlimit="10" stroke-linecap="round"/>
<path d="M200.635 48.5293H196.221" stroke="white" stroke-width="1.16614" stroke-miterlimit="10" stroke-linecap="round"/>
<path d="M200.635 53.334H196.221" stroke="white" stroke-width="1.16614" stroke-miterlimit="10" stroke-linecap="round"/>
<path d="M200.635 58.1387H196.221" stroke="white" stroke-width="1.16614" stroke-miterlimit="10" stroke-linecap="round"/>
<path d="M42.907 148.162L56.4201 148.183L56.8207 148.184L54.9533 148.181L42.907 148.162ZM59.6151 194.171C59.6371 194.75 59.6648 195.307 59.6977 195.849L59.6875 195.85C59.6524 195.31 59.6239 194.75 59.6008 194.171L59.6151 194.171ZM59.8223 197.568C59.7992 197.325 59.7787 197.074 59.7593 196.824L59.7643 196.824C59.7829 197.074 59.8012 197.326 59.8223 197.568ZM74.1488 227.499C74.7124 227.501 75.1724 227.035 75.1677 226.47C75.0505 209.942 71.7418 206.815 71.1551 194.786L71.1563 194.421L71.1399 194.422C71.1057 193.632 71.0811 192.808 71.0711 191.937C71.0649 191.378 70.618 190.921 70.0594 190.921C67.8852 190.918 62.7651 190.91 60.5757 190.906C60.012 190.905 59.5533 191.366 59.56 191.932C59.5655 192.318 59.5727 192.695 59.5813 193.067L59.5649 193.068C59.5553 192.696 59.5471 192.319 59.5426 191.932C59.5349 191.367 59.9957 190.905 60.5603 190.907L66.7059 190.916C67.2675 190.916 67.7227 190.462 67.7229 189.899L67.7269 186.038L68.0901 186.047L68.0919 184.903L67.7274 184.911L67.7416 169.63C67.7418 169.067 68.197 168.611 68.7586 168.613L70.4313 168.615C70.9929 168.616 71.4492 168.161 71.4494 167.598L71.4562 159.43C71.4574 158.867 71.0023 158.411 70.4407 158.41L67.3012 158.404C66.7406 158.404 66.2855 157.947 66.2857 157.385L66.2927 149.493C66.2938 148.778 66.8733 148.199 67.5868 148.2C68.3013 148.201 68.8808 147.622 68.8809 146.906L68.8879 139.015C68.8891 138.453 68.4341 137.996 67.8724 137.995L60.1348 137.983L28.9507 137.935C28.389 137.934 27.9338 138.39 27.9326 138.952L27.9255 146.817C27.9253 147.379 27.47 147.835 26.9084 147.834L25.3253 147.833L25.3378 148.403L25.3304 157.322C25.3302 157.885 25.7842 158.341 26.3459 158.341L33.9572 158.353L27.9157 158.344L27.9156 158.358L27.9014 158.358L27.9149 158.928L27.9111 163.179L27.911 164.02L27.907 167.531C27.9068 168.094 28.3619 168.55 28.9236 168.551L29.9082 168.553C30.4698 168.554 30.9239 169.01 30.9237 169.573L30.906 189.842C30.9048 190.405 31.3599 190.861 31.9215 190.863L47.9993 190.887L28.3589 190.857C27.7943 190.855 27.3331 191.323 27.3399 191.888C27.3787 195.609 27.6476 198.565 28.0304 201.176L28.0296 201.746L28.1144 201.744C29.2768 209.228 31.3399 214.004 31.4369 226.415C31.441 226.975 31.8918 227.434 32.4503 227.435L62.6192 227.482C63.1829 227.483 63.6419 227.017 63.6381 226.453C63.6241 224.462 63.5634 222.665 63.4668 221.024C63.5722 222.67 63.6401 224.466 63.6556 226.465C63.6607 227.025 64.1115 227.484 64.67 227.485L74.1488 227.499Z" fill="white"/>
<path d="M34.0586 147.713L60.5574 147.617" stroke="#EBEBF2" stroke-width="1.06506" stroke-miterlimit="10" stroke-linecap="round"/>
<path d="M17.4712 151.6L43.97 151.504" stroke="#EBEBF2" stroke-width="1.06506" stroke-miterlimit="10" stroke-linecap="round"/>
<path d="M30.8384 157.691L64.3386 158.62" stroke="#EBEBF2" stroke-width="1.06506" stroke-miterlimit="10" stroke-linecap="round"/>
<path d="M30.5464 161.689L47.3098 161.965" stroke="#EBEBF2" stroke-width="1.06506" stroke-miterlimit="10" stroke-linecap="round"/>
<path d="M54.9941 160.996L73.3117 161.32" stroke="#EBEBF2" stroke-width="1.06506" stroke-miterlimit="10" stroke-linecap="round"/>
<path d="M32.4976 169.053L66.5619 170.018" stroke="#EBEBF2" stroke-width="1.06506" stroke-miterlimit="10" stroke-linecap="round"/>
<path d="M42.4604 165.184L65.8456 165.88" stroke="#EBEBF2" stroke-width="1.06506" stroke-miterlimit="10" stroke-linecap="round"/>
<path d="M47.9038 153.836L69.6505 154.412" stroke="#EBEBF2" stroke-width="1.06506" stroke-miterlimit="10" stroke-linecap="round"/>
<path d="M38.0308 174.095L68.1418 175.044" stroke="#EBEBF2" stroke-width="1.06506" stroke-miterlimit="10" stroke-linecap="round"/>
<path d="M258.462 45.5885C258.462 59.1114 269.398 70.0735 282.888 70.0735C296.378 70.0735 307.316 59.1114 307.316 45.5885C307.316 32.0655 296.378 21.1035 282.888 21.1035C269.398 21.1035 258.462 32.0655 258.462 45.5885Z" fill="white"/>
<path d="M282.889 65.493C293.838 65.493 302.746 56.5632 302.746 45.5873C302.746 34.6114 293.838 25.6816 282.889 25.6816C271.94 25.6816 263.032 34.6114 263.032 45.5873C263.032 56.5632 271.94 65.493 282.889 65.493Z" fill="#EBEBF2"/>
<path d="M282.665 49.2544C282.812 49.2961 282.976 49.2673 283.103 49.1684L296.005 39.1322C296.221 38.9638 296.26 38.6516 296.092 38.4336C295.924 38.2169 295.611 38.177 295.395 38.3454L282.806 48.1383L273.669 40.654C273.456 40.4798 273.143 40.5112 272.969 40.7249C272.795 40.9373 272.827 41.2503 273.039 41.4245L282.484 49.1597C282.539 49.2055 282.6 49.2367 282.665 49.2544Z" fill="white" stroke="white" stroke-width="1.33261" stroke-miterlimit="2" stroke-linejoin="round"/>
<path fill-rule="evenodd" clip-rule="evenodd" d="M300.186 143.428C300.896 143.428 301.57 143.74 302.03 144.282C302.491 144.822 302.691 145.539 302.579 146.242C300.79 157.429 294.276 198.144 294.276 198.144H278.794C278.794 198.144 271.598 157.526 269.605 146.282C269.48 145.574 269.674 144.848 270.134 144.296C270.595 143.746 271.275 143.428 271.992 143.428H300.186Z" fill="white"/>
<mask id="mask2_15027_156025" style="mask-type:luminance" maskUnits="userSpaceOnUse" x="269" y="143" width="34" height="56">
<path d="M300.186 143.428C300.896 143.428 301.57 143.74 302.03 144.282C302.491 144.822 302.691 145.539 302.579 146.242C300.79 157.429 294.276 198.144 294.276 198.144H278.794C278.794 198.144 271.598 157.526 269.605 146.282C269.48 145.574 269.674 144.848 270.134 144.296C270.595 143.746 271.275 143.428 271.992 143.428H300.186Z" fill="white"/>
</mask>
<g mask="url(#mask2_15027_156025)">
<path fill-rule="evenodd" clip-rule="evenodd" d="M300.186 143.428C300.896 143.428 301.57 143.74 302.03 144.282C302.491 144.822 302.691 145.539 302.579 146.242C300.79 157.429 294.276 198.144 294.276 198.144H278.794C278.794 198.144 271.598 157.526 269.605 146.282C269.48 145.574 269.674 144.848 270.134 144.296C270.595 143.746 271.275 143.428 271.992 143.428H300.186Z" fill="white"/>
<path d="M304.241 158.004H267.888V160.433H304.241V158.004Z" fill="#EBEBF2"/>
<path d="M304.241 153.146H267.888V155.576H304.241V153.146Z" fill="#EBEBF2"/>
<path d="M304.241 148.287H267.888V150.717H304.241V148.287Z" fill="#EBEBF2"/>
</g>
<path d="M275.968 136.013C275.968 136.013 260.111 132.871 255.686 121.78C251.261 110.69 267.44 102.372 275.968 108.328C285.091 114.699 275.968 136.013 275.968 136.013Z" fill="white"/>
<path d="M275.584 135.746C275.584 135.746 284.67 153.543 288.914 163.552" stroke="white" stroke-width="1.07" stroke-miterlimit="1.5" stroke-linecap="round" stroke-linejoin="round"/>
<path d="M262.255 107.939C262.255 107.939 271.341 125.736 275.585 135.746" stroke="#EBEBF2" stroke-width="1.07" stroke-miterlimit="1.5" stroke-linecap="round" stroke-linejoin="round"/>
<path d="M255.259 114.512C255.259 114.512 266.041 120.831 275.974 136.009" stroke="#EBEBF2" stroke-width="1.07" stroke-miterlimit="1.5" stroke-linecap="round" stroke-linejoin="round"/>
<path d="M254.308 122.043C258.934 123.966 267.141 128.112 275.974 136.005" stroke="#EBEBF2" stroke-width="1.07" stroke-miterlimit="1.5" stroke-linecap="round" stroke-linejoin="round"/>
<path d="M271.481 106.379C271.481 106.379 270.031 118.814 276.151 135.904" stroke="#EBEBF2" stroke-width="1.07" stroke-miterlimit="1.5" stroke-linecap="round" stroke-linejoin="round"/>
<path d="M278.057 110.146C276.806 115.009 275.171 124.077 276.143 135.904" stroke="#EBEBF2" stroke-width="1.07" stroke-miterlimit="1.5" stroke-linecap="round" stroke-linejoin="round"/>
<path d="M295.839 137.128C295.839 137.128 311.696 133.986 316.121 122.895C320.546 111.805 304.367 103.487 295.839 109.443C286.716 115.814 295.839 137.128 295.839 137.128Z" fill="white"/>
<path d="M296.223 136.861C296.223 136.861 287.137 154.658 282.893 164.668" stroke="white" stroke-width="1.07" stroke-miterlimit="1.5" stroke-linecap="round" stroke-linejoin="round"/>
<path d="M309.552 109.055C309.552 109.055 300.466 126.852 296.222 136.861" stroke="#EBEBF2" stroke-width="1.07" stroke-miterlimit="1.5" stroke-linecap="round" stroke-linejoin="round"/>
<path d="M316.548 115.627C316.548 115.627 305.766 121.946 295.833 137.125" stroke="#EBEBF2" stroke-width="1.07" stroke-miterlimit="1.5" stroke-linecap="round" stroke-linejoin="round"/>
<path d="M317.499 123.158C312.873 125.081 304.667 129.227 295.833 137.12" stroke="#EBEBF2" stroke-width="1.07" stroke-miterlimit="1.5" stroke-linecap="round" stroke-linejoin="round"/>
<path d="M300.326 107.494C300.326 107.494 301.776 119.929 295.656 137.019" stroke="#EBEBF2" stroke-width="1.07" stroke-miterlimit="1.5" stroke-linecap="round" stroke-linejoin="round"/>
<path d="M293.75 111.262C295.001 116.124 296.636 125.192 295.664 137.019" stroke="#EBEBF2" stroke-width="1.07" stroke-miterlimit="1.5" stroke-linecap="round" stroke-linejoin="round"/>
<path d="M286.583 113.48C286.583 113.48 273.574 103.839 274.293 91.9192C275.011 80.0005 293.19 79.424 298.37 88.4643C303.911 98.1346 286.583 113.48 286.583 113.48Z" fill="white"/>
<path d="M286.326 113.078C286.326 113.078 286.969 133.061 286.546 143.928" stroke="white" stroke-width="1.07" stroke-miterlimit="1.5" stroke-linecap="round" stroke-linejoin="round"/>
<path d="M286.128 82.2285C286.128 82.2285 286.771 102.211 286.348 113.078" stroke="#EBEBF2" stroke-width="1.07" stroke-miterlimit="1.5" stroke-linecap="round" stroke-linejoin="round"/>
<path d="M277.002 85.1699C277.002 85.1699 284.064 95.5058 286.587 113.485" stroke="#EBEBF2" stroke-width="1.07" stroke-miterlimit="1.5" stroke-linecap="round" stroke-linejoin="round"/>
<path d="M272.935 91.5684C276.3 95.2918 281.957 102.561 286.586 113.486" stroke="#EBEBF2" stroke-width="1.07" stroke-miterlimit="1.5" stroke-linecap="round" stroke-linejoin="round"/>
<path d="M295.144 84.7715C295.144 84.7715 288.534 95.3915 286.784 113.464" stroke="#EBEBF2" stroke-width="1.07" stroke-miterlimit="1.5" stroke-linecap="round" stroke-linejoin="round"/>
<path d="M299.474 90.9922C296.274 94.8527 290.939 102.352 286.785 113.464" stroke="#EBEBF2" stroke-width="1.07" stroke-miterlimit="1.5" stroke-linecap="round" stroke-linejoin="round"/>
<path d="M202.46 118.76C200.197 117.533 184.581 109.832 184.581 109.832H173.809C173.809 109.832 160.826 115.849 158.564 117.076C156.301 118.303 160.544 178.313 160.544 178.313L174.908 176.881L180.817 175.681L197.939 171.167C197.939 171.167 202.964 122.188 200.702 120.96" fill="#FFC7A1"/>
<path d="M182.403 115.663L177.299 116.963C175.358 117.456 173.383 116.279 172.891 114.333L169.924 102.616C169.43 100.67 170.604 98.6915 172.546 98.1969L177.65 96.8975C179.592 96.4042 181.567 97.5812 182.059 99.5278L185.027 111.244C185.519 113.191 184.345 115.169 182.403 115.663Z" fill="#FFC7A1"/>
<path d="M182.059 99.5278C181.566 97.5812 179.593 96.4042 177.651 96.8975L172.547 98.1969C170.605 98.6915 169.43 100.67 169.923 102.616L171.753 109.839C176.319 110.133 180.741 108.226 183.682 105.935L182.059 99.5278Z" fill="#EA989D"/>
<path d="M158.925 141.985C156.081 133.731 150.364 139.165 149.894 139.692C147.388 142.495 144.565 153.05 142.102 166.818C142.102 166.818 140.415 174.736 153.075 168.859C153.075 168.859 160.136 145.503 158.925 141.985Z" fill="#FFC7A1"/>
<path d="M160.542 117.604C160.542 117.604 154.696 118.493 153.021 119.837C147.098 124.587 140.717 151.531 140.717 151.531C140.717 151.531 149.232 157.481 157.64 156.111L164.264 135.747C164.264 135.747 166.51 120.45 160.542 117.604Z" fill="#0049CD"/>
<path d="M171.829 110.035C171.829 110.035 175.841 115.111 176.495 120.987L175.084 156.189L172.771 196.315C172.771 196.315 152.645 195.339 153.377 188.579C154.718 176.187 156.648 169.63 155.905 158.777C154.256 134.658 154.811 118.894 154.811 118.894C154.811 118.894 157.13 115.824 170.083 111.222" fill="#0049CD"/>
<path d="M154.811 177.634C155.154 170.237 156.52 163.9 156.241 158.807C155.859 151.834 155.744 140.647 157 132.764" stroke="#00338F" stroke-width="1.9957" stroke-miterlimit="2" stroke-linecap="round" stroke-linejoin="bevel"/>
<path d="M185.638 108.869C185.638 108.869 176.353 120.719 176.496 120.647L172.364 172.545C172.364 172.545 172.198 196.221 172.77 196.316C190.117 199.166 214.376 188.289 214.376 188.289C214.376 188.289 203.28 170.115 202.906 162.392C201.738 138.298 204.563 114.787 204.563 114.787C204.563 114.787 198.496 110.206 189.774 109.468" fill="#0049CD"/>
<path d="M176.496 121.359C176.496 121.359 173.851 137.641 173.651 145.282C173.397 154.99 172.35 193.191 172.35 193.191" stroke="#00338F" stroke-width="1.99913" stroke-miterlimit="1.5" stroke-linecap="round" stroke-linejoin="round"/>
<path d="M170.921 110.035C170.921 110.035 166.471 113.793 167.523 124.61C167.523 124.61 171.201 118.699 172.697 118.24C174.192 117.782 175.552 119.744 176.496 121.859" stroke="#00338F" stroke-width="1.99913" stroke-miterlimit="1.5" stroke-linecap="round" stroke-linejoin="round"/>
<path d="M222.385 163.153C221.524 154.247 211.876 133.631 211.876 133.631C211.876 133.631 198.509 126.294 201.266 141.952L207.981 162.408C207.981 162.408 219.321 175.501 222.385 163.153Z" fill="#FFC7A1"/>
<path d="M203.07 113.101C207.001 114.84 208.77 116.451 209.778 118C210.786 119.549 221.091 140.129 221.951 142.186C222.81 144.243 212.883 154.589 202.561 150.47L195.122 130.464C195.122 130.464 192.994 108.644 203.07 113.101Z" fill="#0049CD"/>
<path d="M220.696 144.968C217.759 148.55 210.269 153.545 202.559 150.469L195.592 134.779" stroke="#00338F" stroke-width="2.0023" stroke-miterlimit="2" stroke-linecap="round" stroke-linejoin="round"/>
<path d="M185.976 108.869C185.976 108.869 189.713 113.794 187.165 124.611C187.165 124.611 182.594 119.807 180.655 118.973C178.83 118.189 177.501 120.061 176.495 121.943" stroke="#00338F" stroke-width="1.99913" stroke-miterlimit="1.5" stroke-linecap="round" stroke-linejoin="round"/>
<path fill-rule="evenodd" clip-rule="evenodd" d="M178.527 124.612L179.026 156.873L173.475 163.126L169.346 156.873L173.623 124.111L178.527 124.612Z" fill="#21B531"/>
<path d="M178.527 124.611L179.026 156.873L173.538 163.126" stroke="white" stroke-width="1.33413" stroke-miterlimit="1.5" stroke-linecap="round" stroke-linejoin="round"/>
<path fill-rule="evenodd" clip-rule="evenodd" d="M178.528 124.611C177.778 125.512 174.259 125.155 173.623 124.361C172.794 123.325 172.723 118.672 172.789 119.109C172.789 119.109 176.256 117.773 180.523 119.859C180.523 119.859 180.005 122.834 178.528 124.611Z" fill="#21B531"/>
<path d="M180.274 120.609C180.274 120.609 180.005 122.835 178.528 124.611C178.18 125.029 177.239 125.176 176.264 125.135" stroke="white" stroke-width="1.33413" stroke-miterlimit="1.5" stroke-linecap="round" stroke-linejoin="round"/>
<path d="M235.815 124.498C233.977 131.861 232.385 139.295 230.297 146.59C226.018 161.541 222.788 163.934 221.547 166.389C220.298 168.86 214.221 168.589 212.758 166.108C207.946 157.955 219.673 137.845 227.763 123.47C231.689 120.318 236.043 123.588 235.815 124.498Z" fill="#FFC7A1"/>
<path d="M225.182 126.609C225.302 126.428 225.487 126.305 225.701 126.263C225.915 126.222 226.133 126.265 226.313 126.388C226.495 126.509 226.618 126.694 226.659 126.908C226.702 127.123 226.657 127.34 226.536 127.521C224.107 131.145 216.328 145.335 214.095 156.595C214.009 157.025 213.591 157.313 213.159 157.239L213.149 157.237L213.095 157.224C212.898 157.175 212.73 157.057 212.617 156.887C212.496 156.706 212.452 156.487 212.494 156.274C213.545 150.974 215.733 145.15 218.049 140.014C220.821 133.866 223.776 128.704 225.182 126.609Z" fill="#EA989D"/>
<path d="M202.364 128.746C202.292 129.552 202.625 130.341 203.253 130.85C203.881 131.359 204.721 131.521 205.493 131.282C212.032 129.256 225.987 124.932 230.651 123.487C231.591 123.195 232.262 122.364 232.35 121.382C232.947 114.73 235.213 89.4641 236.062 80.0024C236.134 79.1961 235.801 78.4072 235.173 77.8982C234.545 77.3892 233.705 77.2274 232.933 77.4666C226.394 79.4927 212.439 83.8167 207.775 85.2618C206.835 85.5531 206.164 86.3846 206.076 87.3663C205.479 94.0181 203.213 119.284 202.364 128.746Z" fill="#FFB35C"/>
<path d="M205.794 124.447C205.722 125.253 206.055 126.042 206.683 126.551C207.311 127.06 208.151 127.222 208.923 126.983C214.325 125.309 224.561 122.138 228.452 120.932C229.392 120.641 230.064 119.809 230.152 118.827C230.66 113.158 232.365 94.1529 233.083 86.1451C233.155 85.3388 232.822 84.5498 232.194 84.0407C231.566 83.5317 230.726 83.3697 229.954 83.6089C224.552 85.2827 214.316 88.4542 210.425 89.6595C209.485 89.9508 208.813 90.7826 208.725 91.7646C208.217 97.4334 206.513 116.439 205.794 124.447Z" stroke="#FF8E43" stroke-width="1.33232" stroke-miterlimit="10" stroke-linecap="round" stroke-linejoin="round"/>
<path d="M212.726 78.4952L241.633 69.7955C239.634 71.2069 239.204 75.5815 239.204 75.5815L208.63 84.9878C208.73 79.3759 212.726 78.4952 212.726 78.4952Z" fill="white"/>
<path d="M231.215 76.3575L230.96 79.2239L211.591 85.2112L211.846 82.3449L231.215 76.3575Z" fill="#FF8E43"/>
<path d="M235.451 125.916C233.078 128.127 229.08 126.635 227.625 124.485C225.929 121.98 226.861 118.929 228.173 116.233C227.741 115.993 227.312 115.751 226.881 115.515C225.764 114.905 224.642 114.296 223.524 113.687C222.646 113.206 221.694 112.432 222.115 111.246C222.498 110.174 223.639 109.696 224.658 109.675C225.783 109.655 226.936 109.948 227.984 110.25C228.093 110.282 230.536 111.498 230.643 111.532C230.607 111.4 229.271 107.433 227.733 105.33C227.016 104.349 226.588 103.086 227.383 101.948C228.116 100.894 229.359 100.417 230.45 100.905C230.32 100.388 230.215 99.8519 230.327 99.3081C230.479 98.5598 231.001 97.978 231.724 97.7206C232.573 97.417 233.317 97.6017 233.94 98.0153C233.945 97.8872 233.956 97.7576 233.977 97.6248C234.11 96.8143 234.543 96.0279 235.306 95.6163C235.931 95.2806 236.656 95.279 237.267 95.5174C238.615 96.0474 239.567 97.2495 240.178 98.5016C242.751 103.777 243.385 110.859 240.403 117.087C239.393 119.197 238.223 121.238 237.169 123.33C236.661 124.337 236.16 125.254 235.451 125.916Z" fill="#FFC7A1"/>
<path d="M234.55 114.031C232.831 112.755 230.987 111.641 229.037 110.714C228.117 110.276 227.176 109.841 226.197 109.526C225.316 109.243 224.327 109.108 223.391 109.467C222.441 109.833 221.614 110.684 221.539 111.713C221.493 112.367 222.504 112.387 222.551 111.731C222.6 111.055 223.21 110.531 223.844 110.352C224.64 110.127 225.446 110.357 226.161 110.615C227.947 111.263 229.652 112.132 231.263 113.101C232.192 113.658 233.09 114.262 233.957 114.906C234.46 115.279 235.052 114.404 234.55 114.031Z" fill="#EA989D" stroke="#EA989D" stroke-width="0.59871" stroke-miterlimit="2" stroke-linejoin="round"/>
<path d="M236.765 113.788C236.772 111.349 236.292 108.977 235.356 106.805C234.887 105.719 234.305 104.692 233.633 103.732C232.958 102.769 232.187 101.83 231.275 101.084C230.284 100.275 228.837 99.9317 227.647 100.843C227.106 101.258 227.748 101.988 228.287 101.576C229.143 100.919 230.216 101.53 230.823 102.084C231.597 102.789 232.272 103.62 232.869 104.48C234.049 106.174 234.903 108.127 235.36 110.186C235.618 111.35 235.756 112.553 235.753 113.769C235.751 114.043 235.912 114.281 236.206 114.287C236.457 114.292 236.764 114.063 236.765 113.788Z" fill="#EA989D" stroke="#EA989D" stroke-width="0.59871" stroke-miterlimit="2" stroke-linejoin="round"/>
<path d="M240.909 112.471C241.084 109.254 240.31 106.128 238.853 103.405C238.08 101.961 237.131 100.619 236.051 99.4002C235.045 98.2626 233.764 97.0487 232.034 97.301C231.225 97.4194 230.417 97.9165 230.018 98.6691C229.622 99.4172 229.674 100.34 230.221 100.918C230.65 101.371 231.444 100.667 231.013 100.211C230.672 99.8533 230.709 99.2699 231.054 98.8608C231.442 98.4013 232.071 98.2385 232.615 98.2946C234.003 98.4359 234.973 99.7345 235.775 100.709C237.512 102.819 238.862 105.296 239.499 108.026C239.834 109.46 239.979 110.946 239.897 112.452C239.862 113.106 240.873 113.127 240.909 112.471Z" fill="#EA989D" stroke="#EA989D" stroke-width="0.59871" stroke-miterlimit="2" stroke-linejoin="round"/>
<path d="M231.302 111.706C231.106 109.759 230.467 107.909 229.436 106.312C228.645 105.088 226.846 103.277 228.107 101.617C228.519 101.075 227.692 100.557 227.28 101.098C226.702 101.858 226.578 102.838 226.762 103.696C226.984 104.728 227.616 105.554 228.207 106.379C229.37 108.004 230.089 109.894 230.295 111.946C230.361 112.591 231.367 112.348 231.302 111.706Z" fill="#EA989D" stroke="#EA989D" stroke-width="0.59871" stroke-miterlimit="2" stroke-linejoin="round"/>
<path d="M241.928 114.792C243.16 111.449 243.018 107.915 242.426 104.61C242.106 102.817 241.702 101.01 240.986 99.3604C240.29 97.7571 239.187 95.9687 237.461 95.3556C236.654 95.0689 235.629 95.1003 234.843 95.6124C234.035 96.1367 233.525 97.0498 233.643 97.9708C233.725 98.6127 234.732 98.3695 234.65 97.7299C234.574 97.1394 235.02 96.5581 235.575 96.3298C236.207 96.0691 236.915 96.1974 237.457 96.499C238.837 97.2631 239.678 98.8666 240.238 100.299C240.818 101.778 241.159 103.366 241.437 104.949C241.696 106.421 241.872 107.923 241.855 109.444C241.836 111.15 241.585 112.864 240.976 114.516C240.743 115.145 241.694 115.424 241.928 114.792Z" fill="#EA989D" stroke="#EA989D" stroke-width="0.59871" stroke-miterlimit="2" stroke-linejoin="round"/>
<path d="M216.041 80.199C215.289 79.1353 214.023 78.381 212.726 78.4869L241.63 69.7913C242.021 69.5844 242.443 69.4492 242.889 69.4128C244.185 69.3065 245.452 70.0612 246.204 71.1249C246.956 72.1882 247.254 73.5163 247.314 74.8186L246.916 78.8648L245.296 100.656L215.14 109.993C215.14 109.993 217.273 86.5159 217.152 83.8927C217.091 82.5904 216.793 81.2623 216.041 80.199Z" fill="#B2C8F0"/>
<path d="M238.402 97.6992L223.487 102.318" stroke="white" stroke-width="1.33195" stroke-miterlimit="10" stroke-linecap="round"/>
<path d="M244.026 90.9379L220.729 98.1509" stroke="white" stroke-width="1.33195" stroke-miterlimit="10" stroke-linecap="round"/>
<path d="M244.026 90.9379L220.729 98.1509" stroke="white" stroke-width="1.33195" stroke-miterlimit="10" stroke-linecap="round"/>
<path d="M244.336 85.3187L221.039 92.5317" stroke="white" stroke-width="1.33195" stroke-miterlimit="10" stroke-linecap="round"/>
<path d="M244.647 79.7015L221.35 86.9146" stroke="white" stroke-width="1.33195" stroke-miterlimit="10" stroke-linecap="round"/>
<path d="M242.59 74.6429L219.294 81.856" stroke="white" stroke-width="1.33195" stroke-miterlimit="10" stroke-linecap="round"/>
<path d="M192.305 76.299C192.305 76.299 190.816 71.9709 188.658 69.3468C190.842 69.4134 192.737 68.8501 192.737 68.8501C188.219 67.9163 185.149 66.4261 183.152 65.2739C182.525 64.86 179.18 63.1861 179.18 63.1861L179.187 63.1936C177.183 62.1415 176.762 61.2253 174.097 60.7638C168.757 59.839 164.357 64.3108 164.357 64.3108C164.357 64.3108 159.887 63.9539 159.056 64.4955C158.659 64.7541 155.876 67.0751 154.102 70.2632L154.102 70.261C154.102 70.261 150.91 75.4965 148.985 76.6295C148.985 76.6295 150.362 76.6188 151.77 76.2821C150.975 79.4032 151.738 83.2879 151.91 88.2074C152.085 93.2048 159.947 98.818 159.947 98.818L185.458 97.378C185.458 97.378 195.543 87.5532 192.305 76.299Z" fill="#12161C"/>
<path d="M181.599 73.8555L159.836 75.2976L155.743 80.537C154.008 85.0345 155.113 90.1585 156.6 94.8291C157.784 98.5454 157.837 103.162 161.317 104.703C169.883 108.499 178.056 106.486 181.581 102.322C182.682 101.021 184.154 99.2753 184.852 97.6867C186.159 95.2251 186.527 91.2473 186.626 89.5567C187.025 83.8643 185.482 77.9014 181.599 73.8555Z" fill="#FFC7A1"/>
<path d="M183.012 90.3701C182.886 86.7854 186.411 84.8687 187.906 85.245C191.277 86.0925 192.824 88.7353 192.163 91.6364C191.47 94.6738 188.3 96.5687 185.301 95.7284C184.539 95.5155 183.065 91.8981 183.012 90.3701Z" fill="#FFC7A1"/>
<path d="M183.026 90.8209C182.769 90.8298 182.554 90.6288 182.545 90.3722C182.462 88.0017 183.817 86.5439 184.631 85.8865C185.736 84.994 187.097 84.5503 188.017 84.7817C188.265 84.8444 188.417 85.0971 188.354 85.3451C188.292 85.5943 188.04 85.7458 187.79 85.6832C187.25 85.5472 186.192 85.8212 185.216 86.6093C184.536 87.1578 183.406 88.3728 183.475 90.3398C183.484 90.5963 183.283 90.8119 183.026 90.8209Z" fill="#EA989D" stroke="#EA989D" stroke-width="0.399029" stroke-miterlimit="2" stroke-linejoin="round"/>
<path d="M185.922 89.7639C186.902 88.1644 188.582 87.2394 190.451 87.2077C191.522 87.1891 191.457 88.8516 190.387 88.87C189.108 88.8921 187.999 89.5585 187.337 90.6413C186.775 91.5549 185.361 90.6787 185.922 89.7639Z" fill="#EA989D"/>
<path d="M169.585 74.9308C170.5 76.3524 174.52 80.3245 174.52 80.3245C174.52 80.3245 177.999 84.4561 182.819 85.7197L182.708 82.5532C182.68 81.7353 183.12 84.8848 185.775 86.878C185.775 86.878 187.423 76.7752 185.316 73.765C182.394 69.5899 172.849 67.3536 169.301 69.5354C167.97 70.3535 168.841 73.7766 169.585 74.9308Z" fill="#12161C"/>
<path d="M155.92 80.0776C155.92 80.0776 155.308 85.9013 157.234 90.1141C157.234 90.1141 154.269 89.4501 154.186 84.3038C154.186 84.3038 153.787 77.4143 155.92 80.0776Z" fill="#12161C"/>
<path d="M162.289 75.4355C162.289 75.4355 161.455 68.8145 164.174 68.0107C167.63 66.9891 170.336 76.3617 175.174 82.1803C175.174 82.1803 169.885 82.213 168.351 78.7526C168.351 78.7526 169.806 81.8623 170.234 82.9188C170.234 82.9188 165.464 83.1419 163.892 75.5301L162.289 75.4355Z" fill="#12161C"/>
<path d="M159.624 75.531L162.851 71.9771L163.89 75.5328L159.624 75.531Z" fill="#595C60"/>
<path d="M166.658 95.7593C166.658 95.7593 164.411 92.2634 168.266 93.3834" stroke="#12161C" stroke-width="1.33647" stroke-miterlimit="10" stroke-linecap="round"/>
<path d="M171.5 88.6161C171.735 90.2671 172.576 91.5958 173.398 92.3163C174.229 93.0541 175.04 93.183 175.435 92.8491C176.214 92.0989 175.609 90.1168 175.345 88.0306L175.344 88.0261C175.296 87.7623 175.091 87.5541 174.827 87.5069L173.56 87.2833L174.775 86.249C174.944 86.1049 175.026 85.8819 174.99 85.662C174.813 84.5647 174.577 83.6962 173.994 83.405C173.518 83.2028 172.782 83.5672 172.208 84.5189C171.639 85.4514 171.232 86.971 171.5 88.6161Z" fill="#12161C"/>
<path d="M159.109 91.9501C159.344 93.6011 160.186 94.9297 161.008 95.6503C161.839 96.3881 162.65 96.517 163.045 96.1831C163.824 95.4329 163.219 93.4508 162.955 91.3646L162.954 91.36C162.906 91.0963 162.701 90.8881 162.437 90.8408L161.17 90.6173L162.385 89.583C162.554 89.4389 162.636 89.2159 162.6 88.996C162.423 87.8987 162.187 87.0302 161.604 86.739C161.128 86.5368 160.392 86.9012 159.818 87.8529C159.248 88.7854 158.842 90.305 159.109 91.9501Z" fill="#12161C"/>
<path d="M174.406 102.083C172.768 102.477 171.17 101.672 170.836 100.286C170.502 98.8996 171.558 97.4566 173.196 97.0627C174.834 96.6689 176.432 97.4734 176.766 98.8596C177.1 100.246 176.043 101.689 174.406 102.083Z" fill="white" stroke="#12161C" stroke-width="1.21353" stroke-miterlimit="1.5" stroke-linecap="round" stroke-linejoin="round"/>
<path d="M169.57 82.8815C169.67 82.4541 169.936 81.9594 170.327 81.4805C171.955 79.4909 175.76 77.7739 178.905 82.2512" stroke="#12161C" stroke-width="1.33647" stroke-miterlimit="10" stroke-linecap="round"/>
<path d="M154.534 86.6592C154.534 86.6592 158.738 86.5383 161.941 83.439" stroke="#12161C" stroke-width="1.29856" stroke-miterlimit="1.5" stroke-linecap="round" stroke-linejoin="round"/>
</g>
<path fill-rule="evenodd" clip-rule="evenodd" d="M120.822 96.8026V113.691C120.822 115.688 119.199 117.311 117.2 117.311H66.091C64.0921 117.311 62.4692 115.688 62.4692 113.691V96.8026C62.4692 94.8057 64.0921 93.1836 66.091 93.1836H117.2C119.199 93.1836 120.822 94.8057 120.822 96.8026Z" fill="#F9EBEB"/>
<path fill-rule="evenodd" clip-rule="evenodd" d="M121.47 96.8019V113.691C121.47 116.046 119.557 117.958 117.2 117.958H66.0912C63.7346 117.958 61.8203 116.046 61.8203 113.691V96.8019C61.8203 94.4468 63.7346 92.5352 66.0912 92.5352H117.2C119.557 92.5352 121.47 94.4468 121.47 96.8019ZM120.822 96.8019C120.822 94.8049 119.199 93.1829 117.2 93.1829H66.0912C64.0923 93.1829 62.4694 94.8049 62.4694 96.8019V113.691C62.4694 115.688 64.0923 117.31 66.0912 117.31H117.2C119.199 117.31 120.822 115.688 120.822 113.691V96.8019Z" fill="#EB5757"/>
<path d="M73.5446 112.284C77.4387 112.284 80.5956 109.13 80.5956 105.239C80.5956 101.348 77.4387 98.1934 73.5446 98.1934C69.6505 98.1934 66.4937 101.348 66.4937 105.239C66.4937 109.13 69.6505 112.284 73.5446 112.284Z" fill="#EB5757"/>
<path d="M75.8419 102.42C75.9873 102.42 76.1153 102.468 76.2157 102.568C76.3164 102.669 76.3649 102.797 76.3649 102.943C76.3649 103.088 76.3164 103.216 76.2157 103.316L74.2927 105.238L76.2157 107.16C76.3164 107.26 76.3649 107.388 76.3649 107.534C76.3649 107.679 76.3164 107.807 76.2157 107.907C76.1153 108.008 75.9873 108.056 75.8419 108.056C75.6964 108.056 75.5681 108.008 75.4675 107.907L73.5444 105.986L71.6215 107.907C71.5209 108.008 71.3926 108.056 71.2472 108.056C71.1017 108.056 70.9735 108.008 70.8728 107.907C70.7724 107.807 70.7241 107.679 70.7241 107.534C70.7241 107.388 70.7724 107.26 70.8728 107.16L72.7959 105.238L70.8728 103.316C70.7724 103.216 70.7241 103.088 70.7241 102.943C70.7241 102.797 70.7724 102.669 70.8728 102.568C70.9735 102.468 71.1017 102.42 71.2472 102.42C71.3926 102.42 71.5209 102.468 71.6215 102.568L73.5444 104.49L75.4675 102.568C75.5681 102.468 75.6964 102.42 75.8419 102.42Z" fill="white" stroke="white" stroke-width="0.20247"/>
<path fill-rule="evenodd" clip-rule="evenodd" d="M116.826 99.8196C116.826 100.596 116.194 101.227 115.417 101.227H86.0395C85.2623 101.227 84.6309 100.596 84.6309 99.8196C84.6309 99.0426 85.2623 98.4121 86.0395 98.4121H115.417C116.194 98.4121 116.826 99.0426 116.826 99.8196Z" fill="#EB5757"/>
<path fill-rule="evenodd" clip-rule="evenodd" d="M109.403 105.247C109.403 106.024 108.772 106.655 107.994 106.655H86.039C85.2619 106.655 84.6309 106.024 84.6309 105.247C84.6309 104.47 85.2619 103.84 86.039 103.84H107.994C108.772 103.84 109.403 104.47 109.403 105.247Z" fill="#EB5757"/>
<path fill-rule="evenodd" clip-rule="evenodd" d="M109.403 110.677C109.403 111.454 108.772 112.085 107.994 112.085H86.039C85.2619 112.085 84.6309 111.454 84.6309 110.677C84.6309 109.9 85.2619 109.27 86.039 109.27H107.994C108.772 109.27 109.403 109.9 109.403 110.677Z" fill="#EB5757"/>
<path fill-rule="evenodd" clip-rule="evenodd" d="M159.724 31.6562V48.545C159.724 50.542 158.101 52.1641 156.103 52.1641H66.0909C64.0926 52.1641 62.4697 50.542 62.4697 48.545V31.6562C62.4697 29.6592 64.0926 28.0371 66.0909 28.0371H156.103C158.101 28.0371 159.724 29.6592 159.724 31.6562Z" fill="#F9EBEB"/>
<path fill-rule="evenodd" clip-rule="evenodd" d="M160.372 31.6554V48.5443C160.372 50.8994 158.459 52.811 156.102 52.811H66.0906C63.7338 52.811 61.8213 50.8994 61.8213 48.5443V31.6554C61.8213 29.3003 63.7338 27.3887 66.0906 27.3887H156.102C158.459 27.3887 160.372 29.3003 160.372 31.6554ZM159.724 31.6554C159.724 29.6585 158.101 28.0364 156.102 28.0364H66.0906C64.0924 28.0364 62.4695 29.6585 62.4695 31.6554V48.5443C62.4695 50.5413 64.0924 52.1633 66.0906 52.1633H156.102C158.101 52.1633 159.724 50.5413 159.724 48.5443V31.6554Z" fill="#EB5757"/>
<path d="M73.5306 47.1376C77.42 47.1376 80.5729 43.9833 80.5729 40.0922C80.5729 36.2012 77.42 33.0469 73.5306 33.0469C69.6412 33.0469 66.4883 36.2012 66.4883 40.0922C66.4883 43.9833 69.6412 47.1376 73.5306 47.1376Z" fill="#EB5757"/>
<path d="M75.8253 37.2734C75.9706 37.2734 76.0985 37.3216 76.1988 37.422C76.2993 37.5226 76.3477 37.6507 76.3477 37.7961C76.3477 37.9414 76.2993 38.0696 76.1988 38.1699L74.278 40.0915L76.1988 42.013C76.2993 42.1136 76.3477 42.2415 76.3477 42.3871C76.3477 42.5325 76.2993 42.6604 76.1988 42.7607C76.0985 42.8613 75.9706 42.9098 75.8253 42.9098C75.68 42.9098 75.552 42.8613 75.4514 42.7607L73.5307 40.8391L71.6102 42.7607C71.5096 42.8613 71.3816 42.9098 71.2363 42.9098C71.091 42.9098 70.9629 42.8613 70.8624 42.7607C70.7621 42.6604 70.7139 42.5325 70.7139 42.3871C70.7139 42.2415 70.7621 42.1136 70.8624 42.013L72.7831 40.0915L70.8624 38.1699C70.7621 38.0696 70.7139 37.9414 70.7139 37.7961C70.7139 37.6507 70.7621 37.5226 70.8624 37.422C70.9629 37.3216 71.091 37.2734 71.2363 37.2734C71.3816 37.2734 71.5096 37.3216 71.6102 37.422L73.5307 39.3436L75.4514 37.422C75.552 37.3216 75.68 37.2734 75.8253 37.2734Z" fill="white" stroke="white" stroke-width="0.202346"/>
<path fill-rule="evenodd" clip-rule="evenodd" d="M155.643 34.6731C155.643 35.4497 155.012 36.0807 154.235 36.0807H86.0114C85.2337 36.0807 84.603 35.4497 84.603 34.6731C84.603 33.8961 85.2337 33.2656 86.0114 33.2656H154.235C155.012 33.2656 155.643 33.8961 155.643 34.6731Z" fill="#EB5757"/>
<path fill-rule="evenodd" clip-rule="evenodd" d="M139.265 40.1009C139.265 40.8774 138.634 41.5084 137.855 41.5084H86.0108C85.234 41.5084 84.603 40.8774 84.603 40.1009C84.603 39.3238 85.234 38.6934 86.0108 38.6934H137.855C138.634 38.6934 139.265 39.3238 139.265 40.1009Z" fill="#EB5757"/>
<path fill-rule="evenodd" clip-rule="evenodd" d="M139.265 45.5306C139.265 46.3071 138.634 46.9381 137.855 46.9381H86.0108C85.234 46.9381 84.603 46.3071 84.603 45.5306C84.603 44.7535 85.234 44.123 86.0108 44.123H137.855C138.634 44.123 139.265 44.7535 139.265 45.5306Z" fill="#EB5757"/>
<path fill-rule="evenodd" clip-rule="evenodd" d="M135.41 64.455V81.3438C135.41 83.3408 133.787 84.9629 131.789 84.9629H66.0912C64.0926 84.9629 62.4697 83.3408 62.4697 81.3438V64.455C62.4697 62.458 64.0926 60.8359 66.0912 60.8359H131.789C133.787 60.8359 135.41 62.458 135.41 64.455Z" fill="#F9EBEB"/>
<path fill-rule="evenodd" clip-rule="evenodd" d="M136.058 64.4543V81.3431C136.058 83.6983 134.146 85.6099 131.788 85.6099H66.091C63.7338 85.6099 61.8213 83.6983 61.8213 81.3431V64.4543C61.8213 62.0991 63.7338 60.1875 66.091 60.1875H131.788C134.146 60.1875 136.058 62.0991 136.058 64.4543ZM135.41 64.4543C135.41 62.4573 133.787 60.8352 131.788 60.8352H66.091C64.0923 60.8352 62.4695 62.4573 62.4695 64.4543V81.3431C62.4695 83.3401 64.0923 84.9622 66.091 84.9622H131.788C133.787 84.9622 135.41 83.3401 135.41 81.3431V64.4543Z" fill="#EB5757"/>
<path d="M73.5446 79.9364C77.4387 79.9364 80.5956 76.7821 80.5956 72.8911C80.5956 69 77.4387 65.8457 73.5446 65.8457C69.6505 65.8457 66.4937 69 66.4937 72.8911C66.4937 76.7821 69.6505 79.9364 73.5446 79.9364Z" fill="#EB5757"/>
<path d="M75.8419 70.0723C75.9873 70.0723 76.1153 70.1205 76.2157 70.2208C76.3164 70.3214 76.3649 70.4495 76.3649 70.5949C76.3649 70.7403 76.3164 70.8684 76.2157 70.9687L74.2927 72.8903L76.2157 74.8119C76.3164 74.9125 76.3649 75.0404 76.3649 75.186C76.3649 75.3313 76.3164 75.4592 76.2157 75.5595C76.1153 75.6601 75.9873 75.7086 75.8419 75.7086C75.6964 75.7086 75.5681 75.6601 75.4675 75.5595L73.5444 73.638L71.6215 75.5595C71.5209 75.6601 71.3926 75.7086 71.2472 75.7086C71.1017 75.7086 70.9735 75.6601 70.8728 75.5595C70.7724 75.4592 70.7241 75.3313 70.7241 75.186C70.7241 75.0404 70.7724 74.9125 70.8728 74.8119L72.7959 72.8903L70.8728 70.9687C70.7724 70.8684 70.7241 70.7403 70.7241 70.5949C70.7241 70.4495 70.7724 70.3214 70.8728 70.2208C70.9735 70.1205 71.1017 70.0723 71.2472 70.0723C71.3926 70.0723 71.5209 70.1205 71.6215 70.2208L73.5444 72.1424L75.4675 70.2208C75.5681 70.1205 75.6964 70.0723 75.8419 70.0723Z" fill="white" stroke="white" stroke-width="0.20247"/>
<path fill-rule="evenodd" clip-rule="evenodd" d="M131.414 67.472C131.414 68.2485 130.782 68.8795 130.006 68.8795H86.0393C85.2612 68.8795 84.6309 68.2485 84.6309 67.472C84.6309 66.6949 85.2612 66.0645 86.0393 66.0645H130.006C130.782 66.0645 131.414 66.6949 131.414 67.472Z" fill="#EB5757"/>
<path fill-rule="evenodd" clip-rule="evenodd" d="M120.628 72.8997C120.628 73.6762 119.997 74.3072 119.22 74.3072H86.0392C85.2624 74.3072 84.6309 73.6762 84.6309 72.8997C84.6309 72.1227 85.2624 71.4922 86.0392 71.4922H119.22C119.997 71.4922 120.628 72.1227 120.628 72.8997Z" fill="#EB5757"/>
<path fill-rule="evenodd" clip-rule="evenodd" d="M120.628 78.3294C120.628 79.1059 119.997 79.7369 119.22 79.7369H86.0392C85.2624 79.7369 84.6309 79.1059 84.6309 78.3294C84.6309 77.5523 85.2624 76.9219 86.0392 76.9219H119.22C119.997 76.9219 120.628 77.5523 120.628 78.3294Z" fill="#EB5757"/>
<path d="M207.674 177.103C207.999 177.623 214.102 182.182 214.561 182.546C215.627 183.39 216.724 184.191 217.631 185.222C218.578 186.302 218.416 186.905 217.02 187.254C216.565 187.369 179.924 188.511 179.075 188.418C178.152 188.319 177.42 187.838 177.29 186.784C178.257 184.96 184.254 182.793 187.288 181.24C187.789 180.984 193.421 177.317 193.946 177.103C195.134 177.03 206.553 177.093 207.674 177.103Z" fill="#B2C8F0"/>
<path d="M183.516 185.919L212.233 185.088" stroke="white" stroke-miterlimit="10" stroke-linecap="round" stroke-linejoin="round"/>
<path d="M188.392 182.917L209.559 182.303" stroke="white" stroke-miterlimit="10" stroke-linecap="round" stroke-linejoin="round"/>
<path d="M189.043 178.085C188.26 178.788 183.045 181.666 182.121 182.118C179.198 183.545 176.311 185.038 173.49 186.662C173.443 186.689 173.409 186.744 173.367 186.785C170.149 188.437 170.988 188.221 167.355 187.997C164.462 187.821 161.573 187.56 158.682 187.338C157.295 187.231 155.908 187.14 154.52 187.07C152.747 186.981 150.984 186.797 149.221 186.597C147.869 186.442 146.509 186.357 145.155 186.23C144.359 186.154 143.571 186.029 142.802 185.812C142.659 185.773 142.516 185.731 142.38 185.675C141.144 185.158 141.018 184.416 142.076 183.579C143.358 182.565 144.819 181.829 146.24 181.031C146.755 180.742 147.271 180.449 147.79 180.163C147.951 180.074 151.781 178.085 153.743 178.085C155.704 177.104 188.489 177.598 189.043 178.085Z" fill="#B2C8F0"/>
<path d="M148.449 182.883L169.835 185.089" stroke="white" stroke-miterlimit="10" stroke-linecap="round" stroke-linejoin="round"/>
<path d="M152.371 179.936L173.758 182.143" stroke="white" stroke-miterlimit="10" stroke-linecap="round" stroke-linejoin="round"/>
<path d="M185.543 175.032L148.216 174.899C148.216 174.899 141.262 173.206 142.187 166.67C142.945 161.307 148.326 160.758 148.326 160.758L187.5 167.498L185.543 175.032Z" fill="#FFC7A1"/>
<path d="M184.689 168.126C183.743 168.517 182.895 169.24 183.061 170.374C183.097 170.622 183.17 170.869 183.257 171.111C183.1 171.564 183.287 172.187 183.428 172.589C183.888 173.89 184.932 174.946 186.246 175.381C187.05 175.644 187.919 175.645 188.754 175.65C189.723 175.65 190.689 175.647 191.658 175.648H196.779C197.49 175.913 198.181 176.226 198.856 176.577C199.721 177.033 200.697 177.866 201.723 177.832C202.573 177.804 203.04 177.054 202.978 176.268C203.136 176.394 203.299 176.524 203.449 176.662C204.109 177.256 204.783 177.975 205.71 178.072C206.246 178.132 206.837 177.97 207.22 177.582C207.641 177.643 208.069 177.613 208.436 177.402C208.956 177.118 209.075 176.657 209.015 176.185C209.711 176.693 210.562 177.272 211.364 176.875C212.348 176.38 212.232 175.102 211.669 174.328C210.327 172.489 207.917 171.42 205.835 170.749C200.237 168.947 194.054 166.353 188.151 167.259C186.99 167.441 185.782 167.681 184.689 168.126Z" fill="#FFC89E"/>
<path d="M198.445 171.845C199.612 172.246 200.58 172.995 201.485 173.818C202.387 174.636 203.508 175.574 203.505 176.903C203.503 177.446 202.661 177.47 202.663 176.925C202.666 175.83 201.563 175.021 200.824 174.356C200.058 173.665 199.229 173.003 198.242 172.664C197.734 172.49 197.932 171.669 198.445 171.845Z" fill="#EA989D" stroke="#EA989D" stroke-width="0.532806" stroke-miterlimit="2" stroke-linejoin="round"/>
<path d="M201.813 170.996C204.688 171.881 206.988 174.262 207.743 177.188C207.878 177.713 207.07 177.952 206.935 177.425C206.256 174.795 204.207 172.615 201.61 171.815C201.095 171.657 201.294 170.836 201.813 170.996Z" fill="#EA989D" stroke="#EA989D" stroke-width="0.532806" stroke-miterlimit="2" stroke-linejoin="round"/>
<path d="M204.365 170.355C206.108 170.812 207.634 171.927 208.626 173.434C209.093 174.144 209.512 175.008 209.618 175.86C209.751 176.924 208.93 177.415 208.006 177.587C207.478 177.686 207.237 176.876 207.769 176.777C208.065 176.722 208.52 176.671 208.711 176.403C208.909 176.124 208.735 175.686 208.643 175.397C208.425 174.716 208.083 174.08 207.651 173.511C206.787 172.371 205.543 171.536 204.163 171.175C203.639 171.037 203.84 170.218 204.365 170.355Z" fill="#EA989D" stroke="#EA989D" stroke-width="0.532806" stroke-miterlimit="2" stroke-linejoin="round"/>
<path d="M197.563 55.6535C205.804 55.6535 212.485 48.9563 212.485 40.6949C212.485 32.4335 205.804 25.7363 197.563 25.7363C189.321 25.7363 182.641 32.4335 182.641 40.6949C182.641 48.9563 189.321 55.6535 197.563 55.6535Z" fill="#0049CD"/>
<path fill-rule="evenodd" clip-rule="evenodd" d="M199.297 54.1348L189.707 62.0317L194.135 52.8502L199.297 54.1348Z" fill="#0049CD"/>
<path d="M192.127 34.1115C192.125 39.5051 192.735 44.0951 189.869 48.5003L201.77 48.495C204.635 44.0903 204.025 39.5001 204.027 34.1064L192.127 34.1115Z" fill="white"/>
<path d="M193.666 38.0937C194.132 37.8839 194.598 37.6745 195.064 37.4647C195.431 37.3002 195.916 37.1563 196.187 37.4533C196.315 37.5945 196.351 37.8001 196.472 37.9474C196.694 38.2172 197.121 38.1982 197.44 38.0564C197.759 37.9146 198.034 37.6783 198.365 37.5679C198.79 37.4261 199.252 37.5092 199.698 37.5493C200.763 37.6452 202.678 37.6207 202.678 37.6207" stroke="#B2C8F0" stroke-width="0.667466" stroke-miterlimit="10" stroke-linecap="round" stroke-linejoin="round"/>
<path d="M202.283 39.875H193.795" stroke="#B2C8F0" stroke-width="0.667466" stroke-miterlimit="10" stroke-linecap="round" stroke-linejoin="round"/>
<path d="M201.945 42.2207H193.457" stroke="#B2C8F0" stroke-width="0.667466" stroke-miterlimit="10" stroke-linecap="round" stroke-linejoin="round"/>
<path d="M201.22 44.9336H196.976" stroke="#B2C8F0" stroke-width="0.667466" stroke-miterlimit="10" stroke-linecap="round" stroke-linejoin="round"/>
<path d="M206.698 36.2824C211.223 37.4994 215.873 34.8118 217.083 30.2796C218.293 25.7473 215.605 21.0866 211.08 19.8696C206.555 18.6526 201.905 21.3401 200.695 25.8724C199.485 30.4047 202.173 35.0654 206.698 36.2824Z" fill="#EB5757"/>
<path d="M208.174 33.6638C207.877 33.616 207.634 33.4782 207.444 33.2506C207.253 33.023 207.185 32.7364 207.241 32.391C207.289 32.0845 207.437 31.8438 207.684 31.669C207.931 31.4943 208.21 31.4317 208.521 31.4818C208.827 31.5311 209.068 31.6771 209.243 31.9197C209.419 32.1627 209.482 32.4372 209.434 32.7438C209.379 33.0844 209.227 33.3342 208.978 33.4937C208.728 33.6531 208.46 33.7099 208.174 33.6638ZM205.892 25.0938C205.965 24.6317 206.188 24.1873 206.56 23.7606C206.932 23.3339 207.427 23.0106 208.044 22.7906C208.662 22.5708 209.35 22.5217 210.108 22.6435C210.812 22.7568 211.413 22.987 211.911 23.3339C212.408 23.6809 212.769 24.1018 212.991 24.5966C213.214 25.0915 213.283 25.6016 213.2 26.127C213.134 26.5406 212.992 26.8896 212.775 27.1739C212.558 27.4584 212.316 27.6951 212.049 27.8842C211.783 28.0733 211.308 28.3874 210.625 28.8265C210.436 28.9507 210.283 29.0621 210.165 29.1603C210.047 29.2587 209.956 29.3513 209.892 29.4383C209.829 29.5254 209.776 29.6142 209.734 29.7048C209.692 29.7954 209.626 29.9556 209.535 30.1854C209.362 30.6765 209.032 30.8829 208.547 30.8048C208.294 30.7642 208.095 30.6474 207.949 30.4542C207.802 30.2611 207.756 30.0015 207.807 29.6755C207.873 29.2669 207.992 28.9231 208.166 28.6442C208.34 28.3653 208.549 28.1295 208.794 27.937C209.039 27.7443 209.364 27.5209 209.768 27.2665C210.122 27.0441 210.379 26.8747 210.54 26.7583C210.7 26.6419 210.842 26.5063 210.963 26.3511C211.085 26.1961 211.162 26.0189 211.194 25.8194C211.256 25.4302 211.163 25.0786 210.917 24.7645C210.671 24.4506 210.319 24.2567 209.863 24.1833C209.328 24.0973 208.913 24.169 208.618 24.3984C208.322 24.6278 208.045 24.9911 207.787 25.4885C207.534 26.0117 207.177 26.2361 206.716 26.1619C206.444 26.1181 206.229 25.9852 206.073 25.7629C205.917 25.5407 205.856 25.3177 205.892 25.0938Z" fill="white"/>
</g>
</g>
<defs>
<clipPath id="clip0_15027_156025">
<rect width="309" height="198" fill="white" transform="translate(21)"/>
</clipPath>
</defs>
</svg>
