<svg width="48" height="48" viewBox="0 0 48 48" fill="none" xmlns="http://www.w3.org/2000/svg">
<g clip-path="url(#clip0_17379_23778)">
<mask id="mask0_17379_23778" style="mask-type:luminance" maskUnits="userSpaceOnUse" x="0" y="0" width="48" height="48">
<path d="M48 24C48 24.22 48 24.44 47.98 24.66C47.64 37.6 37.03 48 24 48C10.97 48 0.36 37.6 0.02 24.66C0 24.44 0 24.22 0 24C0 10.74 10.74 0 24 0C37.26 0 48 10.74 48 24Z" fill="white"/>
</mask>
<g mask="url(#mask0_17379_23778)">
<path d="M48 24C48 24.22 48 24.44 47.98 24.66C47.64 37.6 37.03 48 24 48C10.97 48 0.36 37.6 0.02 24.66C0 24.44 0 24.22 0 24C0 10.74 10.74 0 24 0C37.26 0 48 10.74 48 24Z" fill="#B6C7ED"/>
<path d="M0 24.75H48" stroke="white" stroke-width="0.87" stroke-miterlimit="10"/>
<path opacity="0.2" d="M0 19.3789H48" stroke="white" stroke-width="0.87" stroke-miterlimit="10"/>
<path opacity="0.2" d="M0 14.0117H48" stroke="white" stroke-width="0.87" stroke-miterlimit="10"/>
<path opacity="0.2" d="M0 8.64062H48" stroke="white" stroke-width="0.87" stroke-miterlimit="10"/>
<path opacity="0.2" d="M0 3.26953H48" stroke="white" stroke-width="0.87" stroke-miterlimit="10"/>
<path opacity="0.2" d="M4.19043 0V45.92" stroke="white" stroke-width="0.85" stroke-miterlimit="10"/>
<path opacity="0.2" d="M19.5596 0V45.92" stroke="white" stroke-width="0.85" stroke-miterlimit="10"/>
<path opacity="0.2" d="M34.9297 0V45.92" stroke="white" stroke-width="0.85" stroke-miterlimit="10"/>
<path d="M47.9795 24.6609C47.6395 37.6009 37.0295 48.0009 23.9995 48.0009C10.9695 48.0009 0.359531 37.6009 0.0195312 24.6609C5.97953 21.7709 14.5195 19.9609 23.9995 19.9609C33.4795 19.9609 42.0195 21.7709 47.9795 24.6609Z" fill="#EBEBF1"/>
<path d="M34.8202 49.5397L7.24023 51.5397L3.24023 14.4297L30.8202 12.4297L34.8202 49.5397Z" fill="#2E5ACB"/>
<path d="M37.51 51.1608L9.91996 53.1608L6.95996 25.6508L14.49 15.4308H14.5L33.51 14.0508L37.51 51.1608Z" fill="#87A3E1"/>
<path d="M15.62 24.6197L6.95996 25.6497L14.49 15.4297H14.5L15.62 24.6197Z" fill="#597FD5"/>
<path d="M27.3876 22.1927C26.8381 22.1305 26.2782 22.1201 25.708 22.1616C25.5628 22.1616 25.4177 22.1823 25.2726 22.2031C25.1378 22.2238 25.003 22.2445 24.8682 22.2653C24.7853 22.2756 24.7023 22.286 24.6298 22.3067C24.3291 22.3586 24.0388 22.4312 23.7589 22.5141C23.707 22.5245 23.6656 22.5452 23.6137 22.5556C23.3753 22.6281 23.1368 22.7111 22.9087 22.794C22.8258 22.8251 22.7428 22.8666 22.6495 22.8977C22.5666 22.9288 22.4733 22.9599 22.3903 23.0014C22.3385 23.0221 22.2866 23.0636 22.2244 23.0843C21.8927 23.2398 21.5713 23.4161 21.2602 23.6131C21.2084 23.6442 21.1566 23.6753 21.1047 23.7064C20.7522 23.9345 20.4205 24.1833 20.1094 24.4529C20.0783 24.484 20.0369 24.5047 20.0058 24.5254C19.9435 24.5773 19.8917 24.6395 19.8295 24.7017C19.6533 24.8572 19.4874 25.0231 19.3215 25.1993C19.2282 25.2927 19.1349 25.3963 19.0416 25.5C18.8757 25.6866 18.7202 25.8732 18.575 26.0702C18.5024 26.1635 18.4195 26.2568 18.3573 26.3605C18.1707 26.6197 17.9944 26.8893 17.8389 27.1692C17.8182 27.2107 17.7871 27.2418 17.7663 27.2833C17.5797 27.6047 17.4242 27.9364 17.2687 28.2786C17.2272 28.3822 17.1857 28.4859 17.1443 28.5896C17.051 28.8384 16.9576 29.0769 16.8747 29.3361C16.8332 29.4708 16.8021 29.5953 16.7607 29.73C16.6985 29.9685 16.6362 30.2069 16.5844 30.4558C16.5533 30.5906 16.5326 30.7253 16.5015 30.8705C16.46 31.1297 16.4289 31.3889 16.4082 31.6584C16.3978 31.7828 16.3771 31.9073 16.3771 32.0317C16.3563 32.4256 16.3459 32.8092 16.3771 33.2136C16.5118 35.7744 17.5279 38.0449 19.0934 39.7556C19.4874 40.1807 19.9124 40.5747 20.3686 40.9168C21.281 41.6114 22.3074 42.1506 23.4167 42.4823C23.9662 42.6482 24.5468 42.7726 25.1378 42.8348L26.9729 43.0318C22.2659 42.5238 18.4817 38.5219 18.2121 33.4106C18.1914 33.0166 18.1914 32.6226 18.2121 32.2287C18.2121 32.1042 18.2329 31.9798 18.2432 31.8554C18.264 31.5859 18.2951 31.3267 18.3365 31.0675C18.3573 30.9327 18.3884 30.7875 18.4195 30.6528C18.4713 30.4143 18.5232 30.1655 18.5957 29.927C18.6372 29.7922 18.6683 29.6678 18.7098 29.533C18.7927 29.2842 18.886 29.0354 18.9793 28.7866C19.0208 28.6829 19.0519 28.5792 19.1038 28.4755C19.2489 28.1334 19.4148 27.8016 19.6014 27.4802C19.6221 27.4388 19.6533 27.3973 19.674 27.3662C19.8399 27.0863 20.0058 26.8167 20.1924 26.5575C20.2649 26.4538 20.3375 26.3605 20.4101 26.2672C20.5552 26.0702 20.7108 25.8836 20.8766 25.697C20.97 25.5933 21.0633 25.5 21.1566 25.3963C21.3225 25.2201 21.4883 25.0646 21.6646 24.8987C21.7579 24.8157 21.8512 24.7328 21.9445 24.6499C22.2659 24.3803 22.5977 24.1315 22.9398 23.9034C22.9917 23.8723 23.0435 23.8412 23.0953 23.8101C23.4064 23.6131 23.7278 23.4472 24.0595 23.2813C24.1943 23.2191 24.3395 23.1465 24.4742 23.0843C24.5572 23.0532 24.6401 23.0118 24.7334 22.9807C24.9615 22.8873 25.2 22.8044 25.4384 22.7422C25.4903 22.7318 25.5317 22.7111 25.5836 22.7007C25.8739 22.6178 26.1642 22.5556 26.4545 22.4934C26.5374 22.483 26.6204 22.4726 26.6929 22.4519C26.9729 22.4104 27.2528 22.369 27.5327 22.3482C28.1029 22.3067 28.6628 22.3171 29.2123 22.3793L27.3772 22.1823L27.3876 22.1927Z" fill="#B8B9BB"/>
<path d="M27.533 22.355C32.9864 21.9714 37.6726 26.2947 37.9836 31.997C38.2946 37.6992 34.1165 42.655 28.663 43.0386C23.1993 43.4222 18.5234 39.0988 18.2124 33.3862C17.9013 27.6736 22.0692 22.7386 27.533 22.355ZM32.6546 33.718C33.3596 33.6662 33.8987 33.0337 33.8676 32.2872C33.8365 31.5408 33.2145 30.9913 32.5095 31.0328L29.3058 31.2608L29.1192 27.9121C29.0777 27.176 28.4661 26.6161 27.761 26.6576C27.056 26.6991 26.5169 27.3522 26.548 28.0883L26.7346 31.4371L23.531 31.6652C22.8156 31.717 22.2869 32.3598 22.318 33.0959C22.3491 33.832 22.9608 34.3919 23.6762 34.3504L26.8798 34.1223L27.0664 37.4815C27.1079 38.2176 27.7092 38.7774 28.4246 38.736C29.14 38.6945 29.6687 38.0413 29.6376 37.3052L29.451 33.9461L32.6546 33.718Z" fill="white"/>
<path d="M27.7712 26.6676C28.4762 26.6157 29.0879 27.186 29.1294 27.9221L29.316 31.2708L32.5196 31.0428C33.2246 30.9909 33.8363 31.5611 33.8778 32.2973C33.9193 33.0334 33.3698 33.6762 32.6648 33.728L29.4612 33.9561L29.6478 37.3152C29.6892 38.0513 29.1398 38.6941 28.4348 38.746C27.7297 38.7978 27.1181 38.2276 27.0766 37.4915L26.89 34.1323L23.6863 34.3604C22.971 34.4123 22.3696 33.8524 22.3282 33.1059C22.2867 32.3595 22.8258 31.727 23.5412 31.6752L26.7448 31.4471L26.5582 28.0983C26.5167 27.3622 27.0558 26.7194 27.7712 26.6676Z" fill="#FFA700"/>
</g>
</g>
<defs>
<clipPath id="clip0_17379_23778">
<rect width="48" height="48" fill="white"/>
</clipPath>
</defs>
</svg>
