<svg width="352" height="198" viewBox="0 0 352 198" fill="none" xmlns="http://www.w3.org/2000/svg">
<g clip-path="url(#clip0_15819_88456)">
<mask id="mask0_15819_88456" style="mask-type:luminance" maskUnits="userSpaceOnUse" x="21" y="0" width="310" height="199">
<path d="M331 0H21V198H331V0Z" fill="white"/>
</mask>
<g mask="url(#mask0_15819_88456)">
<path d="M38.4562 24.3337C43.4757 17.2579 47.7754 12.1661 70.1378 8.70411C105.562 3.21757 258.068 3.46052 286.477 10.3541C302.888 14.3425 318.571 14.9296 320.241 43.8706C321.556 66.5861 323.993 128.274 318.158 142.345C312.323 156.416 307.735 170.476 280.641 171.721C253.547 172.966 101.407 175.861 76.3954 174.616C51.3841 173.371 38.4658 162.621 33.4655 150.2C28.4651 137.79 30.5478 71.1717 30.5478 71.1717C30.5478 71.1717 30.5958 35.4282 38.4658 24.3236L38.4562 24.3337Z" fill="#EBEBF2"/>
<mask id="mask1_15819_88456" style="mask-type:luminance" maskUnits="userSpaceOnUse" x="30" y="4" width="292" height="171">
<path d="M38.4562 24.3337C43.4757 17.2579 47.7754 12.1661 70.1378 8.70411C105.562 3.21757 258.068 3.46052 286.477 10.3541C302.888 14.3425 318.571 14.9296 320.241 43.8706C321.556 66.5861 323.993 128.274 318.158 142.345C312.323 156.416 307.735 170.476 280.641 171.721C253.547 172.966 101.407 175.861 76.3954 174.616C51.3841 173.371 38.4658 162.621 33.4655 150.2C28.4651 137.79 30.5478 71.1717 30.5478 71.1717C30.5478 71.1717 30.5958 35.4282 38.4658 24.3236L38.4562 24.3337Z" fill="white"/>
</mask>
<g mask="url(#mask1_15819_88456)">
<path d="M30.1174 -6.69336H248.942V126.926H30.1174V-6.69336Z" stroke="white" stroke-width="1.33277" stroke-miterlimit="10" stroke-linecap="round" stroke-linejoin="round"/>
<path d="M30.1177 19.8477H248.942" stroke="white" stroke-width="1.33277" stroke-miterlimit="10" stroke-linecap="round" stroke-linejoin="round"/>
<path d="M30.1177 42.2793H248.942" stroke="white" stroke-width="1.33277" stroke-miterlimit="10" stroke-linecap="round" stroke-linejoin="round"/>
<path d="M30.1177 64.7109H248.942" stroke="white" stroke-width="1.33277" stroke-miterlimit="10" stroke-linecap="round" stroke-linejoin="round"/>
<path d="M30.1177 87.1445H248.942" stroke="white" stroke-width="1.33277" stroke-miterlimit="10" stroke-linecap="round" stroke-linejoin="round"/>
<path d="M30.1177 109.576H248.942" stroke="white" stroke-width="1.33277" stroke-miterlimit="10" stroke-linecap="round" stroke-linejoin="round"/>
<path d="M72.7534 20.1953V109.676" stroke="white" stroke-width="1.33277" stroke-miterlimit="10" stroke-linecap="round" stroke-linejoin="round"/>
<path d="M102.523 20.1953V109.676" stroke="white" stroke-width="1.33277" stroke-miterlimit="10" stroke-linecap="round" stroke-linejoin="round"/>
<path d="M132.292 20.1953V109.676" stroke="white" stroke-width="1.33277" stroke-miterlimit="10" stroke-linecap="round" stroke-linejoin="round"/>
<path d="M162.062 20.1953V109.676" stroke="white" stroke-width="1.33277" stroke-miterlimit="10" stroke-linecap="round" stroke-linejoin="round"/>
<path d="M191.831 20.1953V109.676" stroke="white" stroke-width="1.33277" stroke-miterlimit="10" stroke-linecap="round" stroke-linejoin="round"/>
<path fill-rule="evenodd" clip-rule="evenodd" d="M78.3701 126.785C78.3701 128.054 79.4009 129.084 80.6705 129.084H198.389C199.658 129.084 200.689 128.054 200.689 126.785C200.689 125.516 199.658 124.486 198.389 124.486H80.6705C79.4009 124.486 78.3701 125.516 78.3701 126.785Z" fill="white"/>
<path d="M38.3487 94.7964C38.3487 93.4025 39.4798 92.2726 40.875 92.2726C42.2703 92.2726 43.4014 93.4025 43.4014 94.7964C43.4014 96.1903 42.2703 97.3203 40.875 97.3203C39.4798 97.3203 38.3487 96.1903 38.3487 94.7964Z" stroke="white" stroke-width="0.53394" stroke-miterlimit="10"/>
<path d="M46.8965 93.6367H54.3491" stroke="white" stroke-width="0.53394" stroke-miterlimit="10" stroke-linecap="round" stroke-linejoin="round"/>
<path d="M46.8965 96.7324H58.9949" stroke="white" stroke-width="0.53163" stroke-miterlimit="10" stroke-linecap="round" stroke-linejoin="round"/>
<path d="M38.3487 103.392C38.3487 101.998 39.4798 100.868 40.875 100.868C42.2703 100.868 43.4014 101.998 43.4014 103.392C43.4014 104.786 42.2703 105.916 40.875 105.916C39.4798 105.916 38.3487 104.786 38.3487 103.392Z" stroke="white" stroke-width="0.53394" stroke-miterlimit="10"/>
<path d="M45.3481 102.232H52.8007" stroke="white" stroke-width="0.53394" stroke-miterlimit="10" stroke-linecap="round" stroke-linejoin="round"/>
<path d="M45.3481 105.328H58.9952" stroke="white" stroke-width="0.534497" stroke-miterlimit="10" stroke-linecap="round" stroke-linejoin="round"/>
<path d="M205.797 48.3887H242.538" stroke="white" stroke-width="1.16614" stroke-miterlimit="10" stroke-linecap="round"/>
<path d="M205.797 53.1934H242.538" stroke="white" stroke-width="1.16614" stroke-miterlimit="10" stroke-linecap="round"/>
<path d="M205.797 57.9982H242.538" stroke="white" stroke-width="1.16614" stroke-miterlimit="10" stroke-linecap="round"/>
<path d="M201.305 48.3887H196.877" stroke="white" stroke-width="1.16614" stroke-miterlimit="10" stroke-linecap="round"/>
<path d="M201.305 53.1934H196.877" stroke="white" stroke-width="1.16614" stroke-miterlimit="10" stroke-linecap="round"/>
<path d="M201.305 57.9981H196.877" stroke="white" stroke-width="1.16614" stroke-miterlimit="10" stroke-linecap="round"/>
<path d="M259.319 45.4479C259.319 58.9708 270.29 69.9328 283.823 69.9328C297.357 69.9328 308.33 58.9708 308.33 45.4479C308.33 31.9249 297.357 20.9629 283.823 20.9629C270.29 20.9629 259.319 31.9249 259.319 45.4479Z" fill="white"/>
<path d="M283.824 65.3523C294.809 65.3523 303.746 56.4226 303.746 45.4467C303.746 34.4707 294.809 25.541 283.824 25.541C272.84 25.541 263.903 34.4707 263.903 45.4467C263.903 56.4226 272.84 65.3523 283.824 65.3523Z" fill="#EBEBF2"/>
<path d="M283.597 49.1183C283.745 49.1599 283.91 49.1311 284.037 49.0321L296.983 38.985C297.199 38.8164 297.239 38.5039 297.071 38.2859C296.902 38.0692 296.588 38.0294 296.371 38.198L283.739 48.0015L274.577 40.5168C274.364 40.3426 274.05 40.3742 273.875 40.5881C273.701 40.8007 273.733 41.1138 273.945 41.288L283.416 49.0237C283.471 49.0694 283.532 49.1006 283.597 49.1183Z" fill="white" stroke="white" stroke-width="1.33261" stroke-miterlimit="2" stroke-linejoin="round"/>
<path d="M43.1112 148.056L56.6598 148.071L57.0614 148.072L55.1891 148.07L43.1112 148.056ZM59.8434 194.068C59.8653 194.647 59.8928 195.205 59.9256 195.746L59.9153 195.748C59.8804 195.207 59.852 194.647 59.8291 194.068L59.8434 194.068ZM60.0498 197.466C60.0267 197.223 60.0063 196.972 59.9869 196.721L59.992 196.722C60.0104 196.971 60.0287 197.224 60.0498 197.466ZM74.4011 227.397C74.9662 227.399 75.4277 226.933 75.4232 226.368C75.3127 209.836 71.9967 206.71 71.4136 194.679L71.4149 194.313L71.3985 194.314C71.3645 193.524 71.3402 192.7 71.3306 191.829C71.3246 191.269 70.8768 190.813 70.3167 190.813C68.1367 190.811 63.0032 190.805 60.808 190.802C60.2428 190.801 59.7827 191.263 59.7892 191.828C59.7946 192.215 59.8016 192.592 59.8101 192.964L59.7937 192.964C59.7842 192.593 59.7761 192.215 59.7718 191.829C59.7643 191.264 60.2265 190.801 60.7926 190.802L66.9543 190.809C67.5174 190.809 67.974 190.354 67.9745 189.791L67.9801 185.93L68.3443 185.939L68.3466 184.794L67.981 184.803L68.0018 169.518C68.0023 168.955 68.4589 168.499 69.022 168.5L70.6991 168.501C71.2622 168.503 71.7199 168.047 71.7203 167.484L71.7306 159.314C71.7321 158.751 71.276 158.295 70.7129 158.295L67.5652 158.29C67.003 158.29 66.547 157.834 66.5474 157.271L66.5578 149.377C66.5592 148.663 67.1404 148.083 67.8559 148.083C68.5723 148.084 69.1535 147.505 69.1539 146.789L69.1644 138.896C69.1657 138.334 68.7098 137.877 68.1466 137.876L60.3886 137.867L29.1224 137.833C28.5593 137.833 28.1027 138.289 28.1013 138.85L28.0908 146.717C28.0903 147.28 27.6337 147.736 27.0706 147.735L25.4833 147.735L25.4956 148.305L25.4844 157.226C25.4839 157.788 25.939 158.245 26.5021 158.245L34.1334 158.254L28.076 158.247L28.076 158.261L28.0616 158.261L28.075 158.831L28.0693 163.083L28.0689 163.924L28.0634 167.436C28.0629 167.999 28.519 168.455 29.0822 168.456L30.0694 168.457C30.6325 168.458 31.0876 168.914 31.0871 169.477L31.0607 189.75C31.0593 190.313 31.5153 190.769 32.0784 190.771L48.1985 190.788L28.5065 190.767C27.9404 190.765 27.4778 191.233 27.4843 191.798C27.5217 195.52 27.79 198.477 28.1726 201.088L28.1717 201.658L28.2566 201.656C29.4189 209.141 31.4854 213.917 31.5773 226.331C31.5812 226.891 32.033 227.35 32.593 227.351L62.8412 227.385C63.4064 227.386 63.8668 226.92 63.8633 226.356C63.8501 224.364 63.7899 222.567 63.6938 220.925C63.7988 222.571 63.8661 224.368 63.8808 226.367C63.8857 226.927 64.3374 227.386 64.8975 227.387L74.4011 227.397Z" fill="white"/>
<path d="M34.2148 147.609L60.7994 147.513" stroke="#EBEBF2" stroke-width="1.06506" stroke-miterlimit="10" stroke-linecap="round"/>
<path d="M17.5732 151.498L44.1578 151.402" stroke="#EBEBF2" stroke-width="1.06506" stroke-miterlimit="10" stroke-linecap="round"/>
<path d="M30.9839 157.59L64.5925 158.518" stroke="#EBEBF2" stroke-width="1.06506" stroke-miterlimit="10" stroke-linecap="round"/>
<path d="M30.6909 161.588L47.5085 161.863" stroke="#EBEBF2" stroke-width="1.06506" stroke-miterlimit="10" stroke-linecap="round"/>
<path d="M55.2178 160.895L73.5946 161.219" stroke="#EBEBF2" stroke-width="1.06506" stroke-miterlimit="10" stroke-linecap="round"/>
<path d="M32.6489 168.951L66.8235 169.917" stroke="#EBEBF2" stroke-width="1.06506" stroke-miterlimit="10" stroke-linecap="round"/>
<path d="M42.644 165.08L66.1049 165.777" stroke="#EBEBF2" stroke-width="1.06506" stroke-miterlimit="10" stroke-linecap="round"/>
<path d="M48.1045 153.734L69.9215 154.311" stroke="#EBEBF2" stroke-width="1.06506" stroke-miterlimit="10" stroke-linecap="round"/>
<path d="M38.1997 173.991L68.4082 174.941" stroke="#EBEBF2" stroke-width="1.06506" stroke-miterlimit="10" stroke-linecap="round"/>
<path d="M276.882 135.87C276.882 135.87 260.973 132.728 256.534 121.637C252.094 110.548 268.326 102.229 276.882 108.186C286.034 114.557 276.882 135.87 276.882 135.87Z" fill="white"/>
<path d="M276.497 135.604C276.497 135.604 285.612 153.4 289.87 163.41" stroke="white" stroke-width="1.07" stroke-miterlimit="1.5" stroke-linecap="round" stroke-linejoin="round"/>
<path d="M263.125 107.797C263.125 107.797 272.24 125.594 276.497 135.603" stroke="#EBEBF2" stroke-width="1.07" stroke-miterlimit="1.5" stroke-linecap="round" stroke-linejoin="round"/>
<path d="M256.105 114.363C256.105 114.363 266.921 120.686 276.887 135.869" stroke="#EBEBF2" stroke-width="1.07" stroke-miterlimit="1.5" stroke-linecap="round" stroke-linejoin="round"/>
<path d="M255.151 121.891C259.792 123.818 268.024 127.971 276.887 135.874" stroke="#EBEBF2" stroke-width="1.07" stroke-miterlimit="1.5" stroke-linecap="round" stroke-linejoin="round"/>
<path d="M272.383 106.236C272.383 106.236 270.926 118.672 277.062 135.762" stroke="#EBEBF2" stroke-width="1.07" stroke-miterlimit="1.5" stroke-linecap="round" stroke-linejoin="round"/>
<path d="M278.97 110.004C277.717 114.866 276.082 123.934 277.064 135.761" stroke="#EBEBF2" stroke-width="1.07" stroke-miterlimit="1.5" stroke-linecap="round" stroke-linejoin="round"/>
<path d="M296.817 136.986C296.817 136.986 312.725 133.843 317.165 122.752C321.604 111.663 305.373 103.345 296.817 109.301C287.664 115.672 296.817 136.986 296.817 136.986Z" fill="white"/>
<path d="M297.201 136.719C297.201 136.719 288.086 154.516 283.829 164.525" stroke="white" stroke-width="1.07" stroke-miterlimit="1.5" stroke-linecap="round" stroke-linejoin="round"/>
<path d="M310.574 108.912C310.574 108.912 301.459 126.709 297.201 136.718" stroke="#EBEBF2" stroke-width="1.07" stroke-miterlimit="1.5" stroke-linecap="round" stroke-linejoin="round"/>
<path d="M317.593 115.479C317.593 115.479 306.777 121.801 296.811 136.984" stroke="#EBEBF2" stroke-width="1.07" stroke-miterlimit="1.5" stroke-linecap="round" stroke-linejoin="round"/>
<path d="M318.547 123.006C313.907 124.933 305.675 129.086 296.811 136.989" stroke="#EBEBF2" stroke-width="1.07" stroke-miterlimit="1.5" stroke-linecap="round" stroke-linejoin="round"/>
<path d="M301.315 107.352C301.315 107.352 302.772 119.787 296.636 136.877" stroke="#EBEBF2" stroke-width="1.07" stroke-miterlimit="1.5" stroke-linecap="round" stroke-linejoin="round"/>
<path d="M294.729 111.119C295.981 115.981 297.616 125.049 296.634 136.876" stroke="#EBEBF2" stroke-width="1.07" stroke-miterlimit="1.5" stroke-linecap="round" stroke-linejoin="round"/>
<path d="M287.515 113.343C287.515 113.343 274.48 103.712 275.212 91.788C275.944 79.8655 294.174 79.2712 299.36 88.3087C304.907 97.9762 287.515 113.343 287.515 113.343Z" fill="white"/>
<path d="M287.289 112.934C287.289 112.934 287.914 132.916 287.48 143.783" stroke="white" stroke-width="1.07" stroke-miterlimit="1.5" stroke-linecap="round" stroke-linejoin="round"/>
<path d="M287.09 82.084C287.09 82.084 287.716 102.066 287.282 112.933" stroke="#EBEBF2" stroke-width="1.07" stroke-miterlimit="1.5" stroke-linecap="round" stroke-linejoin="round"/>
<path d="M277.935 85.0254C277.935 85.0254 285.007 95.3579 287.52 113.34" stroke="#EBEBF2" stroke-width="1.07" stroke-miterlimit="1.5" stroke-linecap="round" stroke-linejoin="round"/>
<path d="M273.853 91.4258C277.223 95.1484 282.888 102.416 287.52 113.344" stroke="#EBEBF2" stroke-width="1.07" stroke-miterlimit="1.5" stroke-linecap="round" stroke-linejoin="round"/>
<path d="M296.126 84.627C296.126 84.627 289.49 95.2481 287.729 113.319" stroke="#EBEBF2" stroke-width="1.07" stroke-miterlimit="1.5" stroke-linecap="round" stroke-linejoin="round"/>
<path d="M300.473 90.8496C297.259 94.7106 291.901 102.21 287.728 113.322" stroke="#EBEBF2" stroke-width="1.07" stroke-miterlimit="1.5" stroke-linecap="round" stroke-linejoin="round"/>
<path fill-rule="evenodd" clip-rule="evenodd" d="M301.178 143.285C301.89 143.285 302.566 143.597 303.028 144.139C303.49 144.68 303.691 145.396 303.578 146.1C301.783 157.286 295.249 198.001 295.249 198.001H279.717C279.717 198.001 272.497 157.383 270.498 146.14C270.372 145.432 270.567 144.705 271.028 144.154C271.491 143.603 272.173 143.285 272.892 143.285H301.178Z" fill="white"/>
<mask id="mask2_15819_88456" style="mask-type:luminance" maskUnits="userSpaceOnUse" x="270" y="143" width="34" height="56">
<path d="M301.178 143.285C301.89 143.285 302.566 143.597 303.028 144.139C303.49 144.68 303.691 145.396 303.578 146.1C301.783 157.286 295.249 198.001 295.249 198.001H279.717C279.717 198.001 272.497 157.383 270.498 146.14C270.372 145.432 270.567 144.705 271.028 144.154C271.491 143.603 272.173 143.285 272.892 143.285H301.178Z" fill="white"/>
</mask>
<g mask="url(#mask2_15819_88456)">
<path fill-rule="evenodd" clip-rule="evenodd" d="M301.178 143.285C301.89 143.285 302.566 143.597 303.028 144.139C303.49 144.68 303.691 145.396 303.578 146.1C301.783 157.286 295.249 198.001 295.249 198.001H279.717C279.717 198.001 272.497 157.383 270.498 146.14C270.372 145.432 270.567 144.705 271.028 144.154C271.491 143.603 272.173 143.285 272.892 143.285H301.178Z" fill="white"/>
<path d="M305.245 157.861H268.775V160.291H305.245V157.861Z" fill="#EBEBF2"/>
<path d="M305.245 153.004H268.775V155.433H305.245V153.004Z" fill="#EBEBF2"/>
<path d="M305.245 148.145H268.775V150.574H305.245V148.145Z" fill="#EBEBF2"/>
</g>
</g>
<path d="M220.74 93.0165C218.159 91.6202 200.343 82.8633 200.343 82.8633H188.053C188.053 82.8633 173.242 89.7056 170.661 91.1005C168.08 92.4968 172.92 160.738 172.92 160.738L189.307 159.11L196.048 157.746L215.582 152.612C215.582 152.612 221.315 96.9146 218.734 95.5183" fill="#FFC7A1"/>
<path fill-rule="evenodd" clip-rule="evenodd" d="M220.485 166.016L226.04 198.002H167.953V166.016H220.485Z" fill="#21B531"/>
<path d="M187.452 198.002V191.59L183.491 189.447" stroke="#115B19" stroke-width="2.09241" stroke-miterlimit="1.5" stroke-linecap="round" stroke-linejoin="round"/>
<path d="M196.454 90.8836L190.448 90.9113C188.163 90.9206 186.302 89.0777 186.294 86.7938L186.239 73.0463C186.229 70.7621 188.073 68.9025 190.359 68.8918L196.365 68.8641C198.65 68.8547 200.511 70.6977 200.519 72.9816L200.576 86.7294C200.584 89.0133 198.74 90.8729 196.454 90.8836Z" fill="#FFC7A1"/>
<path d="M200.519 72.9803C200.51 70.6959 198.65 68.8532 196.365 68.8626L190.358 68.8903C188.073 68.901 186.227 70.7603 186.236 73.0447L186.271 81.5204C191.244 83.1026 196.664 82.2167 200.55 80.4987L200.519 72.9803Z" fill="#EA989D"/>
<path d="M157.587 119.543C164.092 112.041 155.479 109.482 154.691 109.317C150.503 108.435 138.499 111.647 123.536 117.042C123.536 117.042 114.778 119.877 127.788 129.044C127.788 129.044 154.814 122.741 157.587 119.543Z" fill="#FFC7A1"/>
<path d="M172.892 91.6991C172.892 91.6991 166.229 92.705 164.319 94.2318C157.572 99.6311 150.323 130.278 150.323 130.278C150.323 130.278 160.035 137.054 169.618 135.503L177.151 112.342C177.151 112.342 179.697 94.9422 172.892 91.6991Z" fill="#0049CD"/>
<path d="M185.794 83.0957C185.794 83.0957 190.371 88.8684 191.117 95.5494L189.507 135.581L186.868 181.211C186.868 181.211 163.908 180.101 164.743 172.414C166.273 158.323 168.474 150.865 167.627 138.523C165.746 111.096 166.379 93.1703 166.379 93.1703C166.379 93.1703 169.025 89.6789 183.802 84.4451" fill="#0049CD"/>
<path d="M166.379 159.968C166.771 151.558 168.329 144.351 168.011 138.559C167.575 130.63 167.444 117.908 168.877 108.943" stroke="#00338F" stroke-width="1.99713" stroke-miterlimit="2" stroke-linecap="round" stroke-linejoin="bevel"/>
<path d="M201.548 81.7676C201.548 81.7676 190.955 95.2427 191.118 95.1614L186.404 154.178C186.404 154.178 186.215 181.102 186.868 181.21C206.658 184.451 226.039 177.607 226.039 177.607C226.039 177.607 221.675 151.415 221.249 142.633C219.916 115.233 223.138 88.4969 223.138 88.4969C223.138 88.4969 216.218 83.2879 206.266 82.4485" fill="#0049CD"/>
<path d="M191.118 95.9708C191.118 95.9708 188.101 114.486 187.873 123.175C187.583 134.214 186.389 177.656 186.389 177.656" stroke="#00338F" stroke-width="1.99943" stroke-miterlimit="1.5" stroke-linecap="round" stroke-linejoin="round"/>
<path d="M184.759 83.0957C184.759 83.0957 179.682 87.3688 180.882 99.6693C180.882 99.6693 185.078 92.9478 186.784 92.4265C188.49 91.905 190.041 94.1369 191.118 96.5409" stroke="#00338F" stroke-width="1.99944" stroke-miterlimit="1.5" stroke-linecap="round" stroke-linejoin="round"/>
<path d="M242.257 138.646C241.269 128.519 230.255 109.928 230.255 109.928C230.255 109.928 215.008 101.575 218.163 119.382L229.481 142.648C229.481 142.648 238.771 145.398 242.257 138.646Z" fill="#FFC7A1"/>
<path d="M221.447 86.5766C225.929 88.553 227.945 90.3844 229.094 92.1459C230.243 93.9075 241.986 117.312 242.965 119.651C243.944 121.991 232.62 133.763 220.85 129.082L212.376 106.329C212.376 106.329 209.958 81.5116 221.447 86.5766Z" fill="#0049CD"/>
<path d="M241.541 122.817C238.19 126.892 229.645 132.58 220.851 129.083L212.912 111.234" stroke="#00338F" stroke-width="1.99772" stroke-miterlimit="2" stroke-linecap="round" stroke-linejoin="round"/>
<path d="M201.933 81.7676C201.933 81.7676 206.197 87.368 203.29 99.6688C203.29 99.6688 198.075 94.2058 195.863 93.2579C193.781 92.3654 192.265 94.495 191.117 96.6348" stroke="#00338F" stroke-width="1.99944" stroke-miterlimit="1.5" stroke-linecap="round" stroke-linejoin="round"/>
<path fill-rule="evenodd" clip-rule="evenodd" d="M193.436 99.6684L194.005 136.356L187.672 143.466L182.962 136.356L187.841 99.0996L193.436 99.6684Z" fill="#21B531"/>
<path d="M193.436 99.6699L194.005 136.357L187.744 143.467" stroke="white" stroke-width="1.33218" stroke-miterlimit="1.5" stroke-linecap="round" stroke-linejoin="round"/>
<path fill-rule="evenodd" clip-rule="evenodd" d="M193.436 99.6692C192.581 100.694 188.566 100.288 187.841 99.3848C186.895 98.2071 186.814 92.9159 186.89 93.4124C186.89 93.4124 190.845 91.8937 195.713 94.2656C195.713 94.2656 195.121 97.6494 193.436 99.6692Z" fill="#21B531"/>
<path d="M195.428 95.1191C195.428 95.1191 195.121 97.6497 193.436 99.6695C193.04 100.144 191.965 100.312 190.854 100.266" stroke="white" stroke-width="1.33218" stroke-miterlimit="1.5" stroke-linecap="round" stroke-linejoin="round"/>
<path d="M213.133 42.2818C213.133 42.2818 211.446 37.3782 209.001 34.4052C211.476 34.4807 213.623 33.8425 213.623 33.8425C208.504 32.7846 205.026 31.0962 202.763 29.7909C202.053 29.3219 198.263 27.4255 198.263 27.4255L198.271 27.4339C196.002 26.242 195.525 25.2039 192.504 24.6811C186.455 23.6333 181.47 28.6996 181.47 28.6996C181.47 28.6996 176.406 28.2953 175.465 28.9089C175.015 29.2019 171.863 31.8314 169.852 35.4435L169.852 35.441C169.852 35.441 166.237 41.3725 164.055 42.6561C164.055 42.6561 165.615 42.644 167.211 42.2626C166.311 45.7986 167.174 50.1998 167.369 55.7734C167.567 61.4352 176.474 67.7947 176.474 67.7947L205.376 66.1633C205.376 66.1633 216.801 55.0322 213.133 42.2818Z" fill="#12161C"/>
<path d="M201.004 39.5111L176.349 41.145L171.712 47.0809C169.746 52.1763 170.998 57.9817 172.683 63.2732C174.024 67.4836 174.084 72.7136 178.026 74.4604C187.731 78.7611 196.99 76.4797 200.983 71.7626C202.231 70.289 203.899 68.3106 204.69 66.5108C206.17 63.7219 206.587 59.2153 206.699 57.2998C207.151 50.8506 205.404 44.0949 201.004 39.5111Z" fill="#FFC7A1"/>
<path d="M202.604 58.2077C202.462 54.1464 206.454 51.9748 208.148 52.4012C211.968 53.3614 213.72 56.3556 212.971 59.6424C212.186 63.0835 208.595 65.2304 205.197 64.2784C204.334 64.0372 202.664 59.9388 202.604 58.2077Z" fill="#FFC7A1"/>
<path d="M202.623 58.7333C202.332 58.7434 202.088 58.5156 202.077 58.225C201.983 55.5394 203.519 53.8877 204.441 53.1429C205.693 52.1317 207.235 51.629 208.277 51.8912C208.559 51.9622 208.73 52.2485 208.659 52.5296C208.588 52.8119 208.303 52.9835 208.019 52.9125C207.408 52.7585 206.209 53.0689 205.104 53.9618C204.333 54.5832 203.053 55.9598 203.131 58.1882C203.142 58.4789 202.914 58.7232 202.623 58.7333Z" fill="#EA989D" stroke="#EA989D" stroke-width="0.399029" stroke-miterlimit="2" stroke-linejoin="round"/>
<path d="M205.903 57.5358C207.013 55.7236 208.916 54.6757 211.033 54.6397C212.247 54.6186 212.173 56.5022 210.961 56.523C209.513 56.5481 208.256 57.303 207.505 58.5297C206.87 59.5648 205.267 58.5721 205.903 57.5358Z" fill="#EA989D"/>
<path d="M187.391 40.7309C188.428 42.3414 192.982 46.8417 192.982 46.8417C192.982 46.8417 196.923 51.5226 202.384 52.9542L202.259 49.3668C202.226 48.4401 202.725 52.0083 205.733 54.2666C205.733 54.2666 207.6 42.8205 205.213 39.4101C201.902 34.68 191.089 32.1463 187.07 34.6181C185.561 35.545 186.548 39.4233 187.391 40.7309Z" fill="#12161C"/>
<path d="M171.91 46.5585C171.91 46.5585 171.218 53.1564 173.4 57.9293C173.4 57.9293 170.041 57.1771 169.947 51.3465C169.947 51.3465 169.494 43.5411 171.91 46.5585Z" fill="#12161C"/>
<path d="M179.125 41.2994C179.125 41.2994 178.181 33.7981 181.261 32.8874C185.176 31.73 188.242 42.3488 193.723 48.9409C193.723 48.9409 187.731 48.978 185.993 45.0574C185.993 45.0574 187.641 48.5806 188.126 49.7776C188.126 49.7776 182.723 50.0304 180.941 41.4066L179.125 41.2994Z" fill="#12161C"/>
<path d="M176.107 41.406L179.763 37.3796L180.94 41.408L176.107 41.406Z" fill="#595C60"/>
<path d="M184.077 64.3349C184.077 64.3349 181.532 60.3742 185.899 61.6432" stroke="#12161C" stroke-width="1.33647" stroke-miterlimit="10" stroke-linecap="round"/>
<path d="M189.563 56.2459C189.829 58.1164 190.782 59.6217 191.713 60.4381C192.655 61.274 193.574 61.42 194.021 61.0417C194.904 60.1918 194.218 57.9462 193.919 55.5826L193.918 55.5774C193.864 55.2786 193.632 55.0428 193.332 54.9892L191.898 54.736L193.273 53.5641C193.465 53.4009 193.558 53.1482 193.517 52.8991C193.317 51.6559 193.05 50.6719 192.389 50.342C191.849 50.1129 191.016 50.5258 190.366 51.604C189.72 52.6605 189.259 54.3821 189.563 56.2459Z" fill="#12161C"/>
<path d="M175.526 60.0174C175.792 61.8879 176.745 63.3932 177.677 64.2096C178.618 65.0455 179.537 65.1915 179.984 64.8132C180.867 63.9633 180.182 61.7176 179.882 59.3541L179.882 59.3489C179.828 59.0501 179.595 58.8143 179.296 58.7607L177.861 58.5075L179.237 57.3356C179.428 57.1724 179.522 56.9197 179.481 56.6706C179.28 55.4274 179.013 54.4434 178.352 54.1135C177.813 53.8844 176.979 54.2973 176.329 55.3755C175.684 56.432 175.223 58.1536 175.526 60.0174Z" fill="#12161C"/>
<path d="M192.852 71.5052C190.997 71.9514 189.186 71.04 188.808 69.4694C188.429 67.8989 189.626 66.2639 191.482 65.8177C193.337 65.3715 195.148 66.283 195.526 67.8535C195.905 69.4241 194.707 71.059 192.852 71.5052Z" fill="white" stroke="#12161C" stroke-width="1.21353" stroke-miterlimit="1.5" stroke-linecap="round" stroke-linejoin="round"/>
<path d="M187.375 49.7398C187.488 49.2556 187.789 48.6951 188.233 48.1525C190.076 45.8984 194.388 43.9532 197.95 49.0257" stroke="#12161C" stroke-width="1.33647" stroke-miterlimit="10" stroke-linecap="round"/>
<path d="M170.34 54.0176C170.34 54.0176 175.103 53.8806 178.731 50.3692" stroke="#12161C" stroke-width="1.29856" stroke-miterlimit="1.5" stroke-linecap="round" stroke-linejoin="round"/>
<path opacity="0.3" d="M148.373 147.626C128.284 147.626 112 131.368 112 111.313C112 91.2578 128.284 75 148.373 75C168.461 75 184.746 91.2578 184.746 111.313C184.746 131.368 168.461 147.626 148.373 147.626Z" fill="#111111"/>
<path d="M146.627 144.626C126.539 144.626 110.254 128.368 110.254 108.313C110.254 88.2578 126.539 72 146.627 72C166.715 72 183 88.2578 183 108.313C183 128.368 166.715 144.626 146.627 144.626Z" fill="white"/>
<path d="M145.971 128.94C144.713 128.76 143.535 128.26 142.556 127.48C141.757 126.96 141.238 126.1 141.158 125.14C141.158 124.14 142.076 123.68 142.935 123.48C145.632 123.26 148.328 123.26 151.025 123.48C151.884 123.68 152.802 124.14 152.802 125.14C152.723 126.1 152.223 126.96 151.424 127.48C150.426 128.26 149.247 128.76 148.009 128.94C147.669 128.98 147.33 129 146.99 129C146.65 129 146.331 128.98 145.991 128.94H145.971ZM137.542 120.5C135.325 120.3 133.268 119.3 131.75 117.68C130.631 116.34 130.012 114.66 130.012 112.92C129.912 111.26 130.432 109.6 131.47 108.3C132.928 106.78 133.707 104.72 133.587 102.6V101.74C133.448 98.94 134.366 96.18 136.144 94.02C138.841 90.86 142.776 89 146.91 89H147.09C151.324 89 155.339 90.94 158.016 94.24C159.693 96.36 160.552 99.02 160.413 101.74V102.6C160.313 104.7 161.092 106.76 162.53 108.3C163.568 109.6 164.088 111.24 163.988 112.92C163.988 114.66 163.389 116.36 162.27 117.68C160.752 119.3 158.695 120.3 156.478 120.5C153.342 120.76 150.206 121 147.01 121C143.854 121 140.698 120.84 137.542 120.5Z" fill="#EB5757"/>
<path d="M115.969 117.201C116.248 118.402 114.966 119.727 113.106 120.159C111.244 120.592 109.509 119.968 109.228 118.769C108.95 117.566 110.232 116.242 112.093 115.808C113.953 115.377 115.689 115.999 115.969 117.201Z" fill="#FFC7A1"/>
<path d="M109.228 118.767C108.948 117.566 110.23 116.241 112.092 115.808C113.953 115.375 115.689 115.998 115.969 117.2C116.249 118.401 114.967 119.726 113.106 120.159C111.244 120.592 109.508 119.969 109.228 118.767Z" stroke="#EA989D" stroke-width="1.32979" stroke-miterlimit="10"/>
<path d="M116.843 122.803C117.122 124.004 115.84 125.329 113.98 125.76C112.118 126.193 110.383 125.569 110.103 124.37C109.824 123.168 111.106 121.844 112.967 121.41C114.827 120.978 116.563 121.6 116.843 122.803Z" fill="#FFC7A1"/>
<path d="M110.102 124.369C109.822 123.168 111.104 121.843 112.966 121.41C114.827 120.977 116.563 121.6 116.843 122.801C117.123 124.003 115.841 125.327 113.98 125.76C112.118 126.193 110.382 125.57 110.102 124.369Z" stroke="#EA989D" stroke-width="1.32979" stroke-miterlimit="10"/>
<path d="M118.622 126.922C118.901 128.123 117.619 129.448 115.758 129.879C113.897 130.312 112.162 129.689 111.881 128.489C111.602 127.287 112.884 125.963 114.746 125.529C116.606 125.097 118.342 125.72 118.622 126.922Z" fill="#FFC7A1"/>
<path d="M111.881 128.488C111.601 127.287 112.883 125.962 114.744 125.529C116.606 125.096 118.342 125.719 118.622 126.921C118.902 128.122 117.62 129.447 115.758 129.879C113.897 130.312 112.161 129.689 111.881 128.488Z" stroke="#EA989D" stroke-width="1.32979" stroke-miterlimit="10"/>
<path d="M119.623 132.659C119.902 133.86 118.62 135.185 116.759 135.618C114.898 136.049 113.163 135.426 112.882 134.226C112.603 133.024 113.885 131.7 115.746 131.266C117.607 130.834 119.343 131.457 119.623 132.659Z" fill="#FFC7A1"/>
<path d="M112.882 134.226C112.602 133.025 113.884 131.7 115.745 131.267C117.607 130.834 119.343 131.457 119.623 132.659C119.903 133.86 118.621 135.185 116.759 135.618C114.898 136.051 113.162 135.428 112.882 134.226Z" stroke="#EA989D" stroke-width="1.32979" stroke-miterlimit="10"/>
<path d="M235.837 130.274C235.837 130.274 239.923 132.179 240.178 133.135C240.213 133.276 241.938 135.552 241.978 135.707C242.004 135.822 242.03 135.936 242.054 136.056C242.105 136.272 242.153 136.502 242.206 136.747C242.692 139.055 242.741 140.881 241.349 142.786C240.067 144.545 238.048 145.653 235.95 146.223C231.728 147.37 227.431 147.02 223.246 145.999C217.98 144.712 212.839 142.956 207.728 141.158C203.217 139.572 197.789 137.827 193.305 136.17C190.291 135.057 186.015 134.888 185.464 131.131C185.414 130.773 185.401 130.397 185.542 130.066C185.694 129.706 186.001 129.442 186.312 129.207C187.552 128.267 189.003 127.772 190.473 127.317C191.72 126.927 193.383 125.872 194.619 125.737C196.292 125.561 198.023 126.573 199.59 126.999C203.705 128.119 207.825 128.672 212.004 128.904C214.208 129.026 216.429 129.064 218.672 129.045C222.509 129.011 226.357 128.937 230.18 129.313C231.799 129.474 233.411 129.713 234.998 130.072C235.277 130.137 235.557 130.203 235.837 130.274Z" fill="#FFC7A1"/>
<path d="M230.494 129.19C230.494 129.19 208.129 129.806 200.73 127.275" stroke="#EA989D" stroke-width="2.00143" stroke-miterlimit="1.5" stroke-linecap="round" stroke-linejoin="round"/>
<path d="M181.229 126.813C179.203 126.363 177.465 125.336 176.037 123.875C174.635 122.441 172.695 121.57 171.227 120.153C170.036 119.004 168.133 117.287 168.109 115.5C168.082 113.386 170.124 114.371 171.081 115.089C172.816 116.391 174.53 118.007 176.442 119.006C177.872 119.752 179.347 120.408 180.859 120.97C182.157 121.453 183.719 121.615 184.901 122.337C185.659 122.8 186.267 123.615 186.23 124.502C186.194 125.347 185.581 126.084 184.841 126.49C183.757 127.085 182.435 127.082 181.229 126.813Z" fill="#FFC7A1"/>
<path d="M184.406 124.976C182.38 124.525 180.641 123.498 179.213 122.037C177.811 120.603 175.871 119.732 174.403 118.315C173.213 117.166 171.309 115.449 171.286 113.662C171.258 111.548 173.3 112.533 174.257 113.251C175.992 114.553 177.706 116.169 179.619 117.168C181.048 117.914 182.523 118.57 184.035 119.132C185.333 119.615 186.895 119.778 188.077 120.499C188.835 120.962 189.443 121.777 189.406 122.664C189.37 123.509 188.758 124.246 188.017 124.652C186.933 125.247 185.612 125.244 184.406 124.976Z" fill="#FFC7A1"/>
<path d="M177.722 126.16C176.919 127.17 175.497 127.55 174.743 128.596C174.585 128.817 174.457 129.075 174.466 129.346C174.507 130.513 178.297 131.529 179.215 131.907C181.102 132.684 183.012 133.406 184.941 134.073C187.78 135.055 192.551 137.294 195.214 134.86C195.95 134.188 196.299 133.175 196.365 132.181C196.464 130.711 196.17 128.775 195.25 127.574C194.924 127.148 194.488 126.822 194.058 126.502C192.129 125.065 190.085 124.072 188.504 122.278C188.41 122.171 188.313 122.062 188.187 121.995C187.987 121.892 187.748 121.913 187.524 121.931C184.393 122.196 181.712 121.119 178.685 120.802C176.826 120.607 174.555 122.292 175.823 124.154C176.303 124.86 176.945 125.455 177.685 125.882L177.722 126.16Z" fill="#FFC7A1"/>
<path d="M184.783 121.721C186.202 121.053 187.395 119.367 186.475 117.879C186.082 117.244 185.582 116.712 185.053 116.192C184.299 115.45 183.618 114.591 183.531 113.479C183.491 112.958 183.784 111.493 184.582 111.773C184.839 111.864 185.021 112.088 185.193 112.3C186.391 113.784 188.216 114.904 189.966 115.625C192.011 116.468 193.198 117.936 194.008 119.956C194.5 121.182 194.824 122.463 195.215 123.723C195.408 124.346 195.617 124.969 195.845 125.579C196.038 126.091 196.444 126.447 196.684 126.946C196.9 127.394 196.98 127.933 196.782 128.389C196.59 128.832 196.166 129.136 195.717 129.312C194.586 129.756 193.314 129.504 192.138 129.202C190.11 128.682 188.1 128.024 186.283 126.986C185.257 126.4 184.083 125.662 183.361 124.705C182.859 124.04 181.962 122.808 182.922 122.172C183.499 121.789 184.156 122.017 184.783 121.721Z" fill="#FFC7A1"/>
<path d="M186.13 127.911C186.332 128.157 186.505 128.445 186.528 128.763C186.566 129.287 186.19 129.755 185.764 130.063C182.993 132.068 177.677 130.97 174.769 129.885C173.506 129.413 172.217 128.817 171.13 128.013C170.622 127.637 170.052 127.183 169.828 126.569C169.389 125.36 170.237 125.04 171.254 125.491C173.67 126.563 176.299 127.07 178.941 127.009C181.299 126.953 184.328 125.715 186.13 127.911Z" fill="#FFC7A1"/>
<path d="M172.812 124.031C171.567 123.116 170.403 122.091 169.355 120.954C168.696 120.24 166.938 118.713 167.379 117.599C168.159 115.631 171.537 118.541 172.329 119.194C173.885 120.475 175.617 121.539 177.464 122.345C179.236 123.118 181.188 123.405 182.902 124.29C183.793 124.75 184.695 125.452 184.826 126.447C184.868 126.761 184.827 127.081 184.766 127.393C184.698 127.735 184.593 128.094 184.33 128.324C184.126 128.504 183.853 128.581 183.585 128.631C181.687 128.984 179.966 127.98 178.298 127.216C176.373 126.334 174.519 125.287 172.812 124.031Z" fill="#FFC7A1"/>
<path d="M180.249 127.956C180.249 127.956 179.162 127.657 176.774 127.037C175.212 126.631 173.062 125.829 171.761 125.322" stroke="#EA989D" stroke-width="1.3318" stroke-miterlimit="1.5" stroke-linecap="round" stroke-linejoin="round"/>
<path d="M180.357 123.676C179.292 123.381 178.242 123.018 177.239 122.6C175.229 121.761 173.718 120.911 172.481 119.924C172.269 119.754 172.058 119.581 171.849 119.409C171.435 119.067 171.007 118.715 170.569 118.397C170.048 118.02 169.349 117.564 168.575 117.389" stroke="#EA989D" stroke-width="1.33182" stroke-miterlimit="2" stroke-linecap="round" stroke-linejoin="round"/>
<path d="M183.534 121.838C182.468 121.543 181.418 121.181 180.416 120.762C178.406 119.924 176.894 119.074 175.658 118.086C175.445 117.916 175.235 117.743 175.025 117.571C174.611 117.23 174.184 116.877 173.746 116.56C173.224 116.182 172.526 115.726 171.752 115.551" stroke="#EA989D" stroke-width="1.33182" stroke-miterlimit="2" stroke-linecap="round" stroke-linejoin="round"/>
<path d="M104.158 89.2414L92.3701 86.6773L97.0655 75.9607L107.369 81.5904L104.158 89.2414Z" fill="#EB5757"/>
<path d="M117.635 72.4625L100.926 52.9471L118.89 42.8124L128.533 65.3067L117.635 72.4625Z" fill="#EB5757"/>
<path d="M142.518 61.8954L147.1 50.6972L156.281 53.82L149.69 65.6672L142.518 61.8954Z" fill="#EB5757"/>
</g>
</g>
<defs>
<clipPath id="clip0_15819_88456">
<rect width="310" height="198" fill="white" transform="translate(21)"/>
</clipPath>
</defs>
</svg>
