<svg width="48" height="48" viewBox="0 0 48 48" fill="none" xmlns="http://www.w3.org/2000/svg">
<g clip-path="url(#clip0_17347_21557)">
<mask id="mask0_17347_21557" style="mask-type:luminance" maskUnits="userSpaceOnUse" x="0" y="0" width="49" height="48">
<path d="M48.0649 24C48.0649 24.22 48.0649 24.44 48.0449 24.66C47.7049 37.6 37.0949 48 24.0649 48C11.0349 48 0.424941 37.6 0.0849414 24.66C0.0649414 24.44 0.0649414 24.22 0.0649414 24C0.0649414 10.74 10.8049 0 24.0649 0C37.3249 0 48.0649 10.74 48.0649 24Z" fill="white"/>
</mask>
<g mask="url(#mask0_17347_21557)">
<path d="M48.0649 24C48.0649 24.22 48.0649 24.44 48.0449 24.66C47.7049 37.6 37.0949 48 24.0649 48C11.0349 48 0.424941 37.6 0.0849414 24.66C0.0649414 24.44 0.0649414 24.22 0.0649414 24C0.0649414 10.74 10.8049 0 24.0649 0C37.3249 0 48.0649 10.74 48.0649 24Z" fill="#B6C7ED"/>
<path d="M0.0649414 24.75H48.0649" stroke="white" stroke-width="0.87" stroke-miterlimit="10"/>
<path opacity="0.2" d="M0.0649414 19.38H48.0649" stroke="white" stroke-width="0.87" stroke-miterlimit="10"/>
<path opacity="0.2" d="M0.0649414 14.01H48.0649" stroke="white" stroke-width="0.87" stroke-miterlimit="10"/>
<path opacity="0.2" d="M0.0649414 8.63965H48.0649" stroke="white" stroke-width="0.87" stroke-miterlimit="10"/>
<path opacity="0.2" d="M0.0649414 3.26953H48.0649" stroke="white" stroke-width="0.87" stroke-miterlimit="10"/>
<path opacity="0.2" d="M4.25494 0V45.92" stroke="white" stroke-width="0.85" stroke-miterlimit="10"/>
<path opacity="0.2" d="M19.6249 0V45.92" stroke="white" stroke-width="0.85" stroke-miterlimit="10"/>
<path opacity="0.2" d="M34.9949 0V45.92" stroke="white" stroke-width="0.85" stroke-miterlimit="10"/>
<path d="M48.0449 24.66C47.7049 37.6 37.0949 48 24.0649 48C11.0349 48 0.42493 37.6 0.0849304 24.66C6.04493 21.77 14.5849 19.96 24.0649 19.96C33.5449 19.96 42.0849 21.77 48.0449 24.66Z" fill="#EBEBF1"/>
<path d="M34.8852 49.5397L7.30518 51.5397L3.30518 14.4297L30.8852 12.4297L34.8852 49.5397Z" fill="#2E5ACB"/>
<path d="M37.5749 51.16L9.98493 53.16L7.02493 25.65L14.5549 15.43H14.5649L33.5749 14.05L37.5749 51.16Z" fill="#87A3E1"/>
<path d="M15.6849 24.6197L7.0249 25.6497L14.5549 15.4297H14.5649L15.6849 24.6197Z" fill="#597FD5"/>
<g opacity="0.2">
<path d="M29.7125 27.7063L11.5898 29.2695L11.7617 31.2621L29.8844 29.6989L29.7125 27.7063Z" fill="#232323"/>
</g>
<path d="M30.2145 26.7073L12.0918 28.2705L12.2637 30.2631L30.3864 28.6999L30.2145 26.7073Z" fill="#EBEBF1"/>
<g opacity="0.2">
<path d="M30.2251 32.9928L12.1024 34.5561L12.2742 36.5487L30.3969 34.9854L30.2251 32.9928Z" fill="#232323"/>
</g>
<path d="M30.7273 31.9936L12.6046 33.5568L12.7765 35.5494L30.8992 33.9862L30.7273 31.9936Z" fill="#EBEBF1"/>
<g opacity="0.2">
<path d="M30.776 38.0364L12.6533 39.5996L12.8252 41.5922L30.9479 40.029L30.776 38.0364Z" fill="#232323"/>
</g>
<path d="M31.2784 37.0277L13.1557 38.5909L13.3275 40.5835L31.4503 39.0203L31.2784 37.0277Z" fill="#EBEBF1"/>
<g opacity="0.2">
<path d="M22.6866 44.1218L13.2417 44.9365L13.4136 46.9291L22.8585 46.1144L22.6866 44.1218Z" fill="#232323"/>
</g>
<path d="M23.1891 43.113L13.7441 43.9277L13.916 45.9203L23.3609 45.1056L23.1891 43.113Z" fill="#EBEBF1"/>
<mask id="mask1_17347_21557" style="mask-type:luminance" maskUnits="userSpaceOnUse" x="44" y="41" width="3" height="1">
<path d="M46.495 41.8301L44.535 41.8901C44.405 41.8901 44.275 41.8901 44.145 41.8901L46.105 41.8301C46.235 41.8301 46.365 41.8401 46.495 41.8301Z" fill="white"/>
</mask>
<g mask="url(#mask1_17347_21557)">
<path d="M46.495 41.8301L44.535 41.8901C44.405 41.8901 44.275 41.8901 44.145 41.8901L46.105 41.8301C46.235 41.8301 46.365 41.8401 46.495 41.8301Z" fill="#858585"/>
</g>
<path d="M29.1749 41.9004C25.5149 41.9004 23.6349 37.9504 24.8049 35.1904C26.4449 30.9504 29.1849 24.4204 32.0649 19.6204C32.1649 19.4804 32.2649 19.3404 32.3749 19.2004C32.4449 19.1104 32.5149 19.0304 32.5849 18.9504C32.6549 18.8704 32.7149 18.8004 32.7849 18.7304C32.8649 18.6504 32.9349 18.5804 33.0149 18.5004C33.0849 18.4304 33.1649 18.3604 33.2349 18.3004C33.3149 18.2304 33.4049 18.1704 33.4849 18.1004C33.5649 18.0404 33.6449 17.9804 33.7249 17.9204C33.8149 17.8604 33.9049 17.8104 33.9949 17.7504C34.0749 17.7004 34.1449 17.6604 34.2249 17.6104C34.4749 17.4704 34.7349 17.3604 34.9949 17.2604C35.0449 17.2404 35.1049 17.2204 35.1549 17.2104C35.4249 17.1204 35.7049 17.0404 35.9849 17.0004C36.1849 16.9704 36.3949 16.9504 36.5949 16.9404L34.6349 17.0004C34.4349 17.0004 34.2249 17.0304 34.0249 17.0604C33.7449 17.1004 33.4649 17.1804 33.1949 17.2704C33.1449 17.2904 33.0849 17.3004 33.0349 17.3204C32.7749 17.4204 32.5149 17.5304 32.2649 17.6704C32.2449 17.6704 32.2249 17.6804 32.2149 17.6904C32.1549 17.7204 32.0949 17.7704 32.0349 17.8004C31.9449 17.8604 31.8549 17.9104 31.7649 17.9704C31.6849 18.0304 31.6049 18.0804 31.5249 18.1404C31.4349 18.2004 31.3549 18.2704 31.2749 18.3404C31.1949 18.4004 31.1249 18.4704 31.0549 18.5404C30.9749 18.6104 30.8949 18.6904 30.8249 18.7704C30.7549 18.8404 30.6849 18.9204 30.6249 18.9904C30.5549 19.0704 30.4849 19.1604 30.4149 19.2404C30.3949 19.2704 30.3649 19.3004 30.3449 19.3304C30.2649 19.4404 30.1849 19.5504 30.1149 19.6604C27.2349 24.4704 24.5049 31.0004 22.8549 35.2304C21.6749 37.9804 23.5649 41.9304 27.2249 41.9404L29.1849 41.8804L29.1749 41.9004Z" fill="#B8B9BB"/>
<path d="M37.0449 34.2604C37.1049 34.2604 37.1549 34.2404 37.2149 34.2404C38.2449 34.1704 39.1249 35.0204 39.1749 36.0804C39.2249 37.0504 38.5749 37.8504 37.6949 37.9804C37.6249 37.9904 37.5449 38.0004 37.4749 38.0004C36.4849 38.0404 35.6049 37.2904 35.5149 36.2504C35.4249 35.2804 36.1049 34.4004 37.0449 34.2504V34.2604Z" fill="#FFB533"/>
<path d="M35.745 23.7408C35.745 23.7408 35.775 23.7408 35.785 23.7408C36.185 23.6908 36.575 23.6308 36.965 23.5908C37.785 23.4908 38.495 24.1708 38.515 25.0708C38.575 27.1508 38.605 29.3408 38.605 31.4708C38.605 32.2608 38.095 32.9108 37.405 33.0208C37.365 33.0208 37.325 33.0308 37.285 33.0308C37.175 33.0308 37.065 33.0508 36.955 33.0508C36.195 33.1008 35.525 32.5208 35.405 31.7008C35.095 29.6308 34.785 27.5108 34.495 25.5108C34.375 24.6508 34.945 23.8508 35.745 23.7308V23.7408Z" fill="#FFB533"/>
<path d="M49.3849 33.9004C51.0749 37.0304 50.0249 41.3004 46.9649 41.7804C46.6949 41.8204 46.4049 41.8404 46.0949 41.8204C40.5949 41.8004 34.8349 42.0104 29.1749 41.9004C25.5149 41.9004 23.6349 37.9504 24.8049 35.1904C26.4449 30.9504 29.1849 24.4204 32.0649 19.6204C32.9949 18.2004 34.4649 17.2504 35.9849 17.0104C37.3549 16.7904 38.7649 17.1604 39.8449 18.2904C43.5749 22.5204 46.9549 28.8904 49.3749 33.9104L49.3849 33.9004ZM38.5249 25.0604C38.5049 24.1504 37.7849 23.4804 36.9749 23.5804C36.5849 23.6204 36.1949 23.6804 35.7949 23.7304C35.7749 23.7304 35.7649 23.7304 35.7549 23.7304C34.9649 23.8604 34.3949 24.6504 34.5049 25.5104C34.7949 27.5104 35.1049 29.6304 35.4149 31.7004C35.5349 32.5204 36.2149 33.0904 36.9649 33.0504C37.0749 33.0504 37.1849 33.0304 37.2949 33.0304C37.3349 33.0304 37.3749 33.0304 37.4149 33.0204C38.1049 32.9104 38.6249 32.2604 38.6149 31.4704C38.6149 29.3404 38.5849 27.1504 38.5249 25.0704M39.1749 36.0804C39.1249 35.0204 38.2449 34.1704 37.2149 34.2404C37.1549 34.2404 37.0949 34.2404 37.0449 34.2604C36.1049 34.4104 35.4249 35.2904 35.5149 36.2604C35.6049 37.2904 36.4849 38.0404 37.4749 38.0104C37.5549 38.0104 37.6249 38.0104 37.6949 37.9904C38.5749 37.8504 39.2249 37.0604 39.1749 36.0904" fill="white"/>
</g>
</g>
<defs>
<clipPath id="clip0_17347_21557">
<rect width="48" height="48" fill="white"/>
</clipPath>
</defs>
</svg>
