<svg width="352" height="198" viewBox="0 0 352 198" fill="none" xmlns="http://www.w3.org/2000/svg">
<g clip-path="url(#clip0_21458_3022)">
<mask id="mask0_21458_3022" style="mask-type:luminance" maskUnits="userSpaceOnUse" x="21" y="0" width="310" height="198">
<path d="M331 0H21V198H331V0Z" fill="white"/>
</mask>
<g mask="url(#mask0_21458_3022)">
<path d="M38.4562 24.3337C43.4757 17.2579 47.7754 12.1661 70.1378 8.70411C105.562 3.21757 258.068 3.46052 286.477 10.3541C302.888 14.3425 318.571 14.9296 320.241 43.8706C321.556 66.5861 323.993 128.274 318.158 142.345C312.323 156.416 307.735 170.476 280.641 171.721C253.547 172.966 101.407 175.861 76.3954 174.616C51.3841 173.371 38.4658 162.621 33.4655 150.2C28.4651 137.79 30.5478 71.1717 30.5478 71.1717C30.5478 71.1717 30.5958 35.4282 38.4658 24.3236L38.4562 24.3337Z" fill="#EBEBF2"/>
<mask id="mask1_21458_3022" style="mask-type:luminance" maskUnits="userSpaceOnUse" x="30" y="4" width="292" height="171">
<path d="M38.4562 24.3337C43.4757 17.2579 47.7754 12.1661 70.1378 8.70411C105.562 3.21757 258.068 3.46052 286.477 10.3541C302.888 14.3425 318.571 14.9296 320.241 43.8706C321.556 66.5861 323.993 128.274 318.158 142.345C312.323 156.416 307.735 170.476 280.641 171.721C253.547 172.966 101.407 175.861 76.3954 174.616C51.3841 173.371 38.4658 162.621 33.4655 150.2C28.4651 137.79 30.5478 71.1717 30.5478 71.1717C30.5478 71.1717 30.5958 35.4282 38.4658 24.3236L38.4562 24.3337Z" fill="white"/>
</mask>
<g mask="url(#mask1_21458_3022)">
<path d="M30.1174 -6.69336H248.942V126.926H30.1174V-6.69336Z" stroke="white" stroke-width="1.33277" stroke-miterlimit="10" stroke-linecap="round" stroke-linejoin="round"/>
<path d="M30.1177 19.8477H248.942" stroke="white" stroke-width="1.33277" stroke-miterlimit="10" stroke-linecap="round" stroke-linejoin="round"/>
<path d="M30.1177 42.2793H248.942" stroke="white" stroke-width="1.33277" stroke-miterlimit="10" stroke-linecap="round" stroke-linejoin="round"/>
<path d="M30.1177 64.7109H248.942" stroke="white" stroke-width="1.33277" stroke-miterlimit="10" stroke-linecap="round" stroke-linejoin="round"/>
<path d="M30.1177 87.1445H248.942" stroke="white" stroke-width="1.33277" stroke-miterlimit="10" stroke-linecap="round" stroke-linejoin="round"/>
<path d="M30.1177 109.576H248.942" stroke="white" stroke-width="1.33277" stroke-miterlimit="10" stroke-linecap="round" stroke-linejoin="round"/>
<path d="M72.7534 20.1953V109.676" stroke="white" stroke-width="1.33277" stroke-miterlimit="10" stroke-linecap="round" stroke-linejoin="round"/>
<path d="M102.523 20.1953V109.676" stroke="white" stroke-width="1.33277" stroke-miterlimit="10" stroke-linecap="round" stroke-linejoin="round"/>
<path d="M132.292 20.1953V109.676" stroke="white" stroke-width="1.33277" stroke-miterlimit="10" stroke-linecap="round" stroke-linejoin="round"/>
<path d="M162.062 20.1953V109.676" stroke="white" stroke-width="1.33277" stroke-miterlimit="10" stroke-linecap="round" stroke-linejoin="round"/>
<path d="M191.831 20.1953V109.676" stroke="white" stroke-width="1.33277" stroke-miterlimit="10" stroke-linecap="round" stroke-linejoin="round"/>
<path fill-rule="evenodd" clip-rule="evenodd" d="M78.3701 126.785C78.3701 128.054 79.4009 129.084 80.6705 129.084H198.389C199.658 129.084 200.689 128.054 200.689 126.785C200.689 125.516 199.658 124.486 198.389 124.486H80.6705C79.4009 124.486 78.3701 125.516 78.3701 126.785Z" fill="white"/>
<path d="M38.3482 94.7964C38.3482 93.4025 39.4793 92.2726 40.8746 92.2726C42.2698 92.2726 43.4009 93.4025 43.4009 94.7964C43.4009 96.1903 42.2698 97.3203 40.8746 97.3203C39.4793 97.3203 38.3482 96.1903 38.3482 94.7964Z" stroke="white" stroke-width="0.53394" stroke-miterlimit="10"/>
<path d="M46.896 93.6387H54.3486" stroke="white" stroke-width="0.53394" stroke-miterlimit="10" stroke-linecap="round" stroke-linejoin="round"/>
<path d="M46.896 96.7324H58.9944" stroke="white" stroke-width="0.53163" stroke-miterlimit="10" stroke-linecap="round" stroke-linejoin="round"/>
<path d="M38.3482 103.392C38.3482 101.998 39.4793 100.868 40.8746 100.868C42.2698 100.868 43.4009 101.998 43.4009 103.392C43.4009 104.786 42.2698 105.916 40.8746 105.916C39.4793 105.916 38.3482 104.786 38.3482 103.392Z" stroke="white" stroke-width="0.53394" stroke-miterlimit="10"/>
<path d="M45.3477 102.234H52.8003" stroke="white" stroke-width="0.53394" stroke-miterlimit="10" stroke-linecap="round" stroke-linejoin="round"/>
<path d="M45.3477 105.328H58.9947" stroke="white" stroke-width="0.534497" stroke-miterlimit="10" stroke-linecap="round" stroke-linejoin="round"/>
<path d="M205.797 48.3887H242.538" stroke="white" stroke-width="1.16614" stroke-miterlimit="10" stroke-linecap="round"/>
<path d="M205.797 53.1934H242.538" stroke="white" stroke-width="1.16614" stroke-miterlimit="10" stroke-linecap="round"/>
<path d="M205.797 57.998H242.538" stroke="white" stroke-width="1.16614" stroke-miterlimit="10" stroke-linecap="round"/>
<path d="M201.305 48.3887H196.877" stroke="white" stroke-width="1.16614" stroke-miterlimit="10" stroke-linecap="round"/>
<path d="M201.305 53.1934H196.877" stroke="white" stroke-width="1.16614" stroke-miterlimit="10" stroke-linecap="round"/>
<path d="M201.305 57.998H196.877" stroke="white" stroke-width="1.16614" stroke-miterlimit="10" stroke-linecap="round"/>
<path d="M259.319 45.4479C259.319 58.9708 270.29 69.9328 283.823 69.9328C297.357 69.9328 308.33 58.9708 308.33 45.4479C308.33 31.9249 297.357 20.9629 283.823 20.9629C270.29 20.9629 259.319 31.9249 259.319 45.4479Z" fill="white"/>
<path d="M283.824 65.3523C294.809 65.3523 303.746 56.4226 303.746 45.4467C303.746 34.4707 294.809 25.541 283.824 25.541C272.84 25.541 263.903 34.4707 263.903 45.4467C263.903 56.4226 272.84 65.3523 283.824 65.3523Z" fill="#EBEBF2"/>
<path d="M283.597 49.1183C283.745 49.1599 283.91 49.1311 284.037 49.0321L296.983 38.985C297.199 38.8164 297.239 38.5039 297.071 38.2859C296.902 38.0692 296.588 38.0294 296.371 38.198L283.739 48.0015L274.577 40.5168C274.364 40.3426 274.05 40.3742 273.875 40.5881C273.701 40.8007 273.733 41.1138 273.945 41.288L283.416 49.0237C283.471 49.0694 283.532 49.1006 283.597 49.1183Z" fill="white" stroke="white" stroke-width="1.33261" stroke-miterlimit="2" stroke-linejoin="round"/>
<path d="M43.1112 148.056L56.6598 148.071L57.0614 148.072L55.1891 148.07L43.1112 148.056ZM59.8434 194.068C59.8653 194.647 59.8928 195.205 59.9256 195.746L59.9153 195.748C59.8804 195.207 59.852 194.647 59.8291 194.068L59.8434 194.068ZM60.0498 197.466C60.0267 197.223 60.0063 196.972 59.9869 196.721L59.992 196.722C60.0104 196.971 60.0287 197.224 60.0498 197.466ZM74.4011 227.397C74.9662 227.399 75.4277 226.933 75.4232 226.368C75.3127 209.836 71.9967 206.71 71.4136 194.679L71.4149 194.313L71.3985 194.314C71.3645 193.524 71.3402 192.7 71.3306 191.829C71.3246 191.269 70.8768 190.813 70.3167 190.813C68.1367 190.811 63.0032 190.805 60.808 190.802C60.2428 190.801 59.7827 191.263 59.7892 191.828C59.7946 192.215 59.8016 192.592 59.8101 192.964L59.7937 192.964C59.7842 192.593 59.7761 192.215 59.7718 191.829C59.7643 191.264 60.2265 190.801 60.7926 190.803L66.9543 190.809C67.5174 190.809 67.974 190.354 67.9745 189.791L67.9801 185.93L68.3443 185.939L68.3466 184.794L67.981 184.803L68.0018 169.518C68.0023 168.955 68.4589 168.499 69.022 168.5L70.6991 168.502C71.2622 168.503 71.7199 168.047 71.7203 167.484L71.7306 159.314C71.7321 158.751 71.276 158.295 70.7129 158.295L67.5652 158.29C67.003 158.29 66.547 157.834 66.5474 157.271L66.5578 149.377C66.5592 148.663 67.1404 148.083 67.8559 148.083C68.5723 148.085 69.1535 147.505 69.1539 146.789L69.1644 138.896C69.1657 138.334 68.7098 137.877 68.1466 137.876L60.3886 137.868L29.1224 137.833C28.5593 137.833 28.1027 138.289 28.1013 138.85L28.0908 146.717C28.0903 147.28 27.6337 147.736 27.0706 147.735L25.4833 147.735L25.4956 148.305L25.4844 157.226C25.4839 157.788 25.939 158.245 26.5021 158.245L34.1334 158.254L28.076 158.247L28.076 158.261L28.0616 158.261L28.075 158.831L28.0693 163.083L28.0689 163.924L28.0634 167.436C28.0629 167.999 28.519 168.455 29.0822 168.456L30.0694 168.457C30.6325 168.458 31.0876 168.914 31.0871 169.477L31.0607 189.75C31.0593 190.313 31.5153 190.769 32.0784 190.771L48.1985 190.788L28.5065 190.767C27.9404 190.765 27.4778 191.233 27.4843 191.798C27.5217 195.52 27.79 198.477 28.1726 201.088L28.1717 201.658L28.2566 201.656C29.4189 209.141 31.4854 213.917 31.5773 226.331C31.5812 226.891 32.033 227.35 32.593 227.352L62.8412 227.385C63.4064 227.386 63.8668 226.92 63.8633 226.356C63.8501 224.364 63.7899 222.567 63.6938 220.925C63.7988 222.571 63.8661 224.368 63.8808 226.367C63.8857 226.927 64.3374 227.386 64.8975 227.387L74.4011 227.397Z" fill="white"/>
<path d="M34.2163 148.142C33.9222 148.143 33.6829 147.905 33.6818 147.611C33.6808 147.317 33.9183 147.078 34.2124 147.077L34.2144 147.609L34.2163 148.142ZM60.797 146.981C61.0911 146.98 61.3304 147.217 61.3315 147.512C61.3325 147.806 61.095 148.045 60.8009 148.046L60.7989 147.513L60.797 146.981ZM34.2144 147.609L34.2124 147.077L60.797 146.981L60.7989 147.513L60.8009 148.046L34.2163 148.142L34.2144 147.609Z" fill="#EBEBF2"/>
<path d="M17.5752 152.031C17.2811 152.032 17.0418 151.794 17.0407 151.5C17.0396 151.206 17.2772 150.967 17.5713 150.966L17.5732 151.498L17.5752 152.031ZM44.1559 150.87C44.45 150.869 44.6893 151.106 44.6904 151.4C44.6914 151.694 44.4539 151.934 44.1598 151.935L44.1578 151.402L44.1559 150.87ZM17.5732 151.498L17.5713 150.966L44.1559 150.87L44.1578 151.402L44.1598 151.935L17.5752 152.031L17.5732 151.498Z" fill="#EBEBF2"/>
<path d="M30.9692 158.122C30.6752 158.114 30.4434 157.869 30.4516 157.575C30.4597 157.281 30.7046 157.049 30.9986 157.058L30.9839 157.59L30.9692 158.122ZM64.6072 157.986C64.9012 157.994 65.1329 158.239 65.1248 158.533C65.1167 158.827 64.8717 159.058 64.5778 159.05L64.5925 158.518L64.6072 157.986ZM30.9839 157.59L30.9986 157.058L64.6072 157.986L64.5925 158.518L64.5778 159.05L30.9692 158.122L30.9839 157.59Z" fill="#EBEBF2"/>
<path d="M30.6822 162.12C30.3881 162.116 30.1536 161.873 30.1585 161.579C30.1633 161.285 30.4056 161.051 30.6997 161.055L30.6909 161.588L30.6822 162.12ZM47.5173 161.331C47.8114 161.336 48.0458 161.578 48.041 161.872C48.0362 162.166 47.7939 162.401 47.4998 162.396L47.5085 161.863L47.5173 161.331ZM30.6909 161.588L30.6997 161.055L47.5173 161.331L47.5085 161.863L47.4998 162.396L30.6822 162.12L30.6909 161.588Z" fill="#EBEBF2"/>
<path d="M55.2084 161.427C54.9143 161.422 54.6801 161.179 54.6853 160.885C54.6905 160.591 54.9331 160.357 55.2272 160.362L55.2178 160.895L55.2084 161.427ZM73.6041 160.686C73.8981 160.692 74.1323 160.934 74.1271 161.228C74.1219 161.522 73.8793 161.757 73.5852 161.751L73.5946 161.219L73.6041 160.686ZM55.2178 160.895L55.2272 160.362L73.6041 160.686L73.5946 161.219L73.5852 161.751L55.2084 161.427L55.2178 160.895Z" fill="#EBEBF2"/>
<path d="M32.6334 169.483C32.3394 169.475 32.1078 169.23 32.1161 168.936C32.1244 168.642 32.3695 168.411 32.6635 168.419L32.6484 168.951L32.6334 169.483ZM66.8381 169.384C67.1321 169.393 67.3637 169.638 67.3554 169.932C67.3471 170.226 67.102 170.457 66.808 170.449L66.8231 169.917L66.8381 169.384ZM32.6484 168.951L32.6635 168.419L66.8381 169.384L66.8231 169.917L66.808 170.449L32.6334 169.483L32.6484 168.951Z" fill="#EBEBF2"/>
<path d="M42.6277 165.612C42.3337 165.604 42.1025 165.358 42.1113 165.064C42.12 164.77 42.3654 164.539 42.6594 164.548L42.6436 165.08L42.6277 165.612ZM66.1202 165.244C66.4142 165.253 66.6454 165.499 66.6367 165.793C66.6279 166.087 66.3825 166.318 66.0885 166.309L66.1044 165.777L66.1202 165.244ZM42.6436 165.08L42.6594 164.548L66.1202 165.244L66.1044 165.777L66.0885 166.309L42.6277 165.612L42.6436 165.08Z" fill="#EBEBF2"/>
<path d="M48.0904 154.267C47.7964 154.259 47.5644 154.014 47.5721 153.72C47.5799 153.426 47.8246 153.194 48.1186 153.202L48.1045 153.734L48.0904 154.267ZM69.9356 153.778C70.2296 153.786 70.4617 154.031 70.4539 154.325C70.4461 154.619 70.2015 154.851 69.9075 154.843L69.9215 154.311L69.9356 153.778ZM48.1045 153.734L48.1186 153.202L69.9356 153.778L69.9215 154.311L69.9075 154.843L48.0904 154.267L48.1045 153.734Z" fill="#EBEBF2"/>
<path d="M38.183 174.523C37.889 174.514 37.6582 174.268 37.6675 173.974C37.6767 173.68 37.9225 173.45 38.2165 173.459L38.1997 173.991L38.183 174.523ZM68.4249 174.409C68.7189 174.418 68.9497 174.664 68.9405 174.958C68.9312 175.252 68.6854 175.482 68.3914 175.473L68.4082 174.941L68.4249 174.409ZM38.1997 173.991L38.2165 173.459L68.4249 174.409L68.4082 174.941L68.3914 175.473L38.183 174.523L38.1997 173.991Z" fill="#EBEBF2"/>
<path d="M276.882 135.87C276.882 135.87 260.973 132.728 256.534 121.637C252.094 110.548 268.326 102.229 276.882 108.186C286.034 114.557 276.882 135.87 276.882 135.87Z" fill="white"/>
<path d="M276.497 135.604C276.497 135.604 285.612 153.4 289.87 163.41" stroke="white" stroke-width="1.07" stroke-miterlimit="1.5" stroke-linecap="round" stroke-linejoin="round"/>
<path d="M263.125 107.797C263.125 107.797 272.24 125.594 276.497 135.603" stroke="#EBEBF2" stroke-width="1.07" stroke-miterlimit="1.5" stroke-linecap="round" stroke-linejoin="round"/>
<path d="M256.375 113.901C256.12 113.752 255.793 113.838 255.644 114.093C255.494 114.348 255.58 114.676 255.836 114.825L256.105 114.363L256.375 113.901ZM276.44 136.163C276.602 136.41 276.934 136.479 277.181 136.316C277.428 136.154 277.496 135.823 277.334 135.576L276.887 135.869L276.44 136.163ZM256.105 114.363C255.836 114.825 255.835 114.825 255.835 114.825C255.835 114.825 255.835 114.825 255.835 114.825C255.836 114.825 255.836 114.825 255.836 114.826C255.837 114.826 255.839 114.827 255.841 114.828C255.846 114.831 255.853 114.835 255.862 114.841C255.881 114.852 255.911 114.87 255.95 114.894C256.028 114.942 256.146 115.016 256.3 115.115C256.609 115.313 257.064 115.615 257.642 116.025C258.797 116.845 260.446 118.098 262.405 119.824C266.325 123.276 271.487 128.617 276.44 136.163L276.887 135.869L277.334 135.576C272.321 127.938 267.092 122.526 263.112 119.021C261.122 117.268 259.444 115.992 258.261 115.152C257.669 114.732 257.201 114.421 256.879 114.215C256.718 114.111 256.594 114.034 256.509 113.982C256.466 113.956 256.434 113.936 256.411 113.923C256.4 113.916 256.392 113.911 256.386 113.907C256.383 113.906 256.38 113.904 256.379 113.903C256.378 113.903 256.377 113.902 256.376 113.902C256.376 113.902 256.376 113.902 256.376 113.902C256.376 113.902 256.375 113.901 256.105 114.363Z" fill="#EBEBF2"/>
<path d="M255.356 121.397C255.083 121.283 254.77 121.413 254.657 121.685C254.544 121.958 254.673 122.271 254.946 122.385L255.151 121.891L255.356 121.397ZM276.531 136.273C276.752 136.469 277.09 136.45 277.287 136.23C277.483 136.009 277.464 135.671 277.243 135.474L276.887 135.874L276.531 136.273ZM255.151 121.891L254.946 122.385C259.543 124.294 267.721 128.418 276.531 136.273L276.887 135.874L277.243 135.474C268.326 127.524 260.04 123.342 255.356 121.397L255.151 121.891Z" fill="#EBEBF2"/>
<path d="M271.852 106.174C271.886 105.881 272.152 105.671 272.446 105.705C272.739 105.739 272.949 106.005 272.915 106.298L272.383 106.236L271.852 106.174ZM277.566 135.581C277.666 135.859 277.521 136.165 277.243 136.265C276.965 136.365 276.658 136.22 276.559 135.942L277.062 135.761L277.566 135.581ZM272.383 106.236C272.915 106.298 272.915 106.298 272.915 106.298C272.915 106.298 272.915 106.298 272.915 106.298C272.915 106.299 272.915 106.299 272.915 106.299C272.915 106.3 272.914 106.302 272.914 106.305C272.914 106.31 272.913 106.318 272.911 106.329C272.909 106.351 272.906 106.386 272.901 106.431C272.892 106.523 272.88 106.661 272.866 106.844C272.839 107.209 272.807 107.754 272.787 108.462C272.746 109.877 272.756 111.947 272.955 114.549C273.355 119.754 274.517 127.087 277.566 135.581L277.062 135.761L276.559 135.942C273.472 127.346 272.294 119.917 271.888 114.631C271.685 111.988 271.675 109.881 271.717 108.431C271.737 107.706 271.771 107.146 271.799 106.764C271.813 106.574 271.826 106.428 271.836 106.329C271.84 106.279 271.844 106.242 271.847 106.216C271.849 106.203 271.85 106.193 271.85 106.186C271.851 106.182 271.851 106.18 271.851 106.178C271.851 106.177 271.852 106.176 271.852 106.175C271.852 106.175 271.852 106.175 271.852 106.175C271.852 106.174 271.852 106.174 272.383 106.236Z" fill="#EBEBF2"/>
<path d="M278.451 109.87C278.525 109.584 278.817 109.412 279.103 109.486C279.389 109.56 279.562 109.851 279.488 110.137L278.97 110.004L278.451 109.87ZM277.598 135.717C277.622 136.011 277.403 136.27 277.109 136.294C276.814 136.318 276.556 136.1 276.531 135.805L277.064 135.761L277.598 135.717ZM278.97 110.004L279.488 110.137C278.247 114.954 276.622 123.961 277.598 135.717L277.064 135.761L276.531 135.805C275.543 123.907 277.187 114.778 278.451 109.87L278.97 110.004Z" fill="#EBEBF2"/>
<path d="M296.817 136.986C296.817 136.986 312.725 133.843 317.165 122.752C321.604 111.663 305.373 103.345 296.817 109.301C287.664 115.672 296.817 136.986 296.817 136.986Z" fill="white"/>
<path d="M297.201 136.719C297.201 136.719 288.086 154.516 283.829 164.525" stroke="white" stroke-width="1.07" stroke-miterlimit="1.5" stroke-linecap="round" stroke-linejoin="round"/>
<path d="M310.574 108.912C310.574 108.912 301.459 126.709 297.201 136.718" stroke="#EBEBF2" stroke-width="1.07" stroke-miterlimit="1.5" stroke-linecap="round" stroke-linejoin="round"/>
<path d="M317.323 115.017C317.578 114.868 317.906 114.953 318.055 115.208C318.204 115.464 318.118 115.791 317.863 115.94L317.593 115.479L317.323 115.017ZM297.258 137.278C297.096 137.525 296.765 137.594 296.518 137.432C296.271 137.27 296.202 136.938 296.364 136.691L296.811 136.984L297.258 137.278ZM317.593 115.479C317.863 115.94 317.863 115.94 317.863 115.94C317.863 115.94 317.863 115.94 317.863 115.94C317.863 115.94 317.862 115.941 317.862 115.941C317.861 115.941 317.859 115.942 317.857 115.944C317.853 115.946 317.846 115.95 317.836 115.956C317.817 115.968 317.787 115.985 317.748 116.009C317.67 116.057 317.552 116.131 317.398 116.23C317.089 116.428 316.635 116.73 316.057 117.14C314.901 117.96 313.252 119.213 311.293 120.939C307.374 124.391 302.212 129.732 297.258 137.278L296.811 136.984L296.364 136.691C301.377 129.053 306.606 123.641 310.586 120.136C312.576 118.383 314.254 117.107 315.438 116.267C316.029 115.847 316.498 115.537 316.819 115.33C316.98 115.226 317.105 115.149 317.189 115.097C317.232 115.071 317.264 115.051 317.287 115.038C317.298 115.031 317.307 115.026 317.313 115.023C317.316 115.021 317.318 115.02 317.32 115.019C317.321 115.018 317.321 115.018 317.322 115.017C317.322 115.017 317.322 115.017 317.322 115.017C317.323 115.017 317.323 115.017 317.593 115.479Z" fill="#EBEBF2"/>
<path d="M318.342 122.512C318.615 122.399 318.928 122.528 319.041 122.801C319.154 123.073 319.025 123.386 318.752 123.5L318.547 123.006L318.342 122.512ZM297.167 137.388C296.947 137.585 296.608 137.565 296.412 137.345C296.215 137.124 296.234 136.786 296.455 136.59L296.811 136.989L297.167 137.388ZM318.547 123.006L318.752 123.5C314.155 125.409 305.977 129.533 297.167 137.388L296.811 136.989L296.455 136.59C305.372 128.64 313.658 124.457 318.342 122.512L318.547 123.006Z" fill="#EBEBF2"/>
<path d="M301.847 107.289C301.812 106.996 301.546 106.786 301.253 106.82C300.959 106.855 300.749 107.12 300.783 107.414L301.315 107.352L301.847 107.289ZM296.132 136.696C296.032 136.974 296.177 137.28 296.455 137.38C296.733 137.48 297.04 137.335 297.14 137.057L296.636 136.877L296.132 136.696ZM301.315 107.352C300.783 107.414 300.783 107.414 300.783 107.414C300.783 107.414 300.783 107.414 300.783 107.414C300.783 107.414 300.783 107.414 300.783 107.415C300.784 107.416 300.784 107.418 300.784 107.42C300.785 107.425 300.786 107.433 300.787 107.444C300.789 107.467 300.793 107.501 300.797 107.547C300.806 107.638 300.818 107.776 300.832 107.959C300.859 108.325 300.892 108.869 300.912 109.577C300.952 110.993 300.943 113.062 300.743 115.665C300.343 120.869 299.182 128.203 296.132 136.696L296.636 136.877L297.14 137.057C300.226 128.461 301.404 121.032 301.81 115.746C302.013 113.104 302.023 110.996 301.982 109.547C301.961 108.822 301.928 108.261 301.899 107.88C301.885 107.689 301.872 107.543 301.863 107.444C301.858 107.395 301.854 107.357 301.851 107.331C301.85 107.318 301.849 107.308 301.848 107.301C301.847 107.298 301.847 107.295 301.847 107.293C301.847 107.292 301.847 107.291 301.847 107.291C301.847 107.29 301.847 107.29 301.847 107.29C301.847 107.29 301.847 107.289 301.315 107.352Z" fill="#EBEBF2"/>
<path d="M295.247 110.986C295.173 110.7 294.881 110.528 294.595 110.601C294.309 110.675 294.137 110.967 294.21 111.253L294.729 111.119L295.247 110.986ZM296.1 136.832C296.076 137.127 296.295 137.385 296.59 137.409C296.884 137.434 297.143 137.215 297.167 136.92L296.634 136.876L296.1 136.832ZM294.729 111.119L294.21 111.253C295.451 116.069 297.077 125.076 296.1 136.832L296.634 136.876L297.167 136.92C298.155 125.022 296.511 115.894 295.247 110.986L294.729 111.119Z" fill="#EBEBF2"/>
<path d="M287.514 113.343C287.514 113.343 274.478 103.712 275.211 91.788C275.942 79.8656 294.173 79.2712 299.358 88.3088C304.905 97.9762 287.514 113.343 287.514 113.343Z" fill="white"/>
<path d="M287.823 112.919C287.814 112.623 287.567 112.392 287.272 112.401C286.976 112.41 286.744 112.657 286.754 112.953L287.289 112.936L287.823 112.919ZM286.945 143.764C286.933 144.059 287.163 144.308 287.458 144.319C287.754 144.331 288.003 144.101 288.015 143.806L287.48 143.785L286.945 143.764ZM287.289 112.936C286.754 112.953 286.754 112.953 286.754 112.953C286.754 112.953 286.754 112.953 286.754 112.953C286.754 112.954 286.754 112.955 286.754 112.956C286.754 112.958 286.754 112.962 286.754 112.967C286.754 112.976 286.755 112.991 286.755 113.01C286.757 113.048 286.758 113.105 286.761 113.179C286.765 113.328 286.772 113.547 286.78 113.831C286.796 114.398 286.819 115.22 286.844 116.241C286.896 118.283 286.961 121.119 287.012 124.294C287.114 130.647 287.161 138.347 286.945 143.764L287.48 143.785L288.015 143.806C288.232 138.356 288.184 130.631 288.082 124.276C288.031 121.097 287.966 118.258 287.914 116.214C287.889 115.192 287.866 114.368 287.85 113.8C287.841 113.516 287.835 113.296 287.83 113.146C287.828 113.072 287.826 113.015 287.825 112.977C287.825 112.957 287.824 112.943 287.824 112.933C287.824 112.928 287.824 112.925 287.824 112.922C287.824 112.921 287.824 112.92 287.824 112.92C287.823 112.919 287.823 112.919 287.823 112.919C287.823 112.919 287.823 112.919 287.289 112.936Z" fill="white"/>
<path d="M287.625 82.069C287.616 81.7737 287.369 81.542 287.073 81.5514C286.778 81.5607 286.546 81.8077 286.555 82.1029L287.09 82.0859L287.625 82.069ZM286.746 112.914C286.735 113.21 286.964 113.458 287.26 113.47C287.555 113.482 287.804 113.252 287.816 112.957L287.281 112.935L286.746 112.914ZM287.09 82.0859C286.555 82.1029 286.555 82.103 286.555 82.1031C286.555 82.1033 286.555 82.1035 286.555 82.1038C286.555 82.1044 286.555 82.1053 286.555 82.1065C286.555 82.1089 286.555 82.1125 286.555 82.1173C286.556 82.1269 286.556 82.1412 286.557 82.1602C286.558 82.1983 286.56 82.2549 286.562 82.3293C286.566 82.4781 286.573 82.6978 286.581 82.9813C286.597 83.5484 286.62 84.3708 286.646 85.3918C286.698 87.4337 286.762 90.2693 286.813 93.4443C286.915 99.7978 286.963 107.497 286.746 112.914L287.281 112.935L287.816 112.957C288.033 107.506 287.985 99.7809 287.883 93.4266C287.832 90.2476 287.768 87.4085 287.716 85.3641C287.69 84.3419 287.667 83.5183 287.651 82.9502C287.643 82.6662 287.636 82.4459 287.632 82.2967C287.629 82.2221 287.628 82.1652 287.627 82.1269C287.626 82.1078 287.625 82.0934 287.625 82.0837C287.625 82.0788 287.625 82.0751 287.625 82.0727C287.625 82.0715 287.625 82.0705 287.625 82.0699C287.625 82.0696 287.625 82.0694 287.625 82.0692C287.625 82.069 287.625 82.069 287.09 82.0859Z" fill="#EBEBF2"/>
<path d="M278.377 84.7252C278.21 84.4815 277.877 84.4191 277.633 84.586C277.389 84.7528 277.326 85.0857 277.493 85.3295L277.935 85.0273L278.377 84.7252ZM286.99 113.417C287.03 113.709 287.301 113.913 287.594 113.872C287.886 113.831 288.09 113.561 288.05 113.268L287.52 113.342L286.99 113.417ZM277.935 85.0273C277.493 85.3295 277.493 85.3294 277.493 85.3293C277.493 85.3293 277.493 85.3293 277.493 85.3294C277.493 85.3295 277.494 85.3298 277.494 85.3302C277.494 85.3311 277.495 85.3326 277.497 85.3348C277.5 85.3391 277.504 85.3458 277.511 85.3551C277.523 85.3737 277.542 85.4023 277.567 85.4407C277.618 85.5177 277.693 85.6342 277.79 85.7897C277.984 86.1007 278.266 86.5675 278.613 87.1849C279.307 88.4196 280.26 90.2564 281.293 92.6532C283.359 97.447 285.741 104.48 286.99 113.417L287.52 113.342L288.05 113.268C286.786 104.223 284.375 97.0977 282.276 92.2296C281.227 89.7955 280.256 87.9252 279.546 86.6607C279.191 86.0284 278.9 85.5475 278.698 85.2232C278.597 85.061 278.517 84.938 278.463 84.8548C278.436 84.8132 278.415 84.7816 278.4 84.7599C278.393 84.7491 278.387 84.7408 278.383 84.735C278.382 84.7321 278.38 84.7299 278.379 84.7282C278.378 84.7274 278.378 84.7268 278.378 84.7263C278.377 84.726 278.377 84.7258 278.377 84.7256C278.377 84.7254 278.377 84.7252 277.935 85.0273Z" fill="#EBEBF2"/>
<path d="M274.25 91.0668C274.052 90.8478 273.714 90.831 273.495 91.0293C273.275 91.2275 273.258 91.5658 273.457 91.7848L273.854 91.4258L274.25 91.0668ZM287.027 113.553C287.143 113.825 287.457 113.952 287.729 113.836C288.001 113.721 288.128 113.407 288.013 113.135L287.52 113.344L287.027 113.553ZM273.854 91.4258L273.457 91.7848C276.795 95.4724 282.424 102.691 287.027 113.553L287.52 113.344L288.013 113.135C283.354 102.142 277.652 94.8244 274.25 91.0668L273.854 91.4258Z" fill="#EBEBF2"/>
<path d="M295.671 84.3457C295.828 84.0952 296.158 84.0189 296.408 84.1752C296.659 84.3316 296.736 84.6615 296.579 84.9121L296.125 84.6289L295.671 84.3457ZM288.26 113.373C288.232 113.667 287.97 113.882 287.676 113.853C287.381 113.825 287.166 113.563 287.195 113.269L287.728 113.321L288.26 113.373ZM296.125 84.6289C296.579 84.9121 296.579 84.912 296.579 84.9119C296.579 84.9119 296.579 84.9119 296.579 84.912C296.579 84.9121 296.579 84.9124 296.579 84.9129C296.578 84.9138 296.577 84.9153 296.576 84.9175C296.573 84.9219 296.569 84.9289 296.563 84.9385C296.551 84.9575 296.533 84.9869 296.51 85.0264C296.463 85.1053 296.392 85.2249 296.302 85.3844C296.121 85.7033 295.859 86.1815 295.538 86.813C294.896 88.0758 294.019 89.9511 293.087 92.3892C291.222 97.2656 289.136 104.392 288.26 113.373L287.728 113.321L287.195 113.269C288.081 104.179 290.193 96.9595 292.087 92.0075C293.034 89.5315 293.926 87.622 294.583 86.3287C294.912 85.682 295.182 85.1893 295.371 84.8568C295.465 84.6905 295.539 84.5643 295.59 84.4788C295.616 84.4361 295.635 84.4036 295.649 84.3814C295.656 84.3703 295.661 84.3617 295.665 84.3558C295.667 84.3528 295.668 84.3505 295.669 84.3488C295.67 84.348 295.67 84.3473 295.67 84.3468C295.671 84.3465 295.671 84.3463 295.671 84.3461C295.671 84.3459 295.671 84.3457 296.125 84.6289Z" fill="#EBEBF2"/>
<path d="M300.06 90.5057C300.249 90.2785 300.586 90.2476 300.813 90.4364C301.041 90.6253 301.072 90.9625 300.883 91.1897L300.471 90.8477L300.06 90.5057ZM288.227 113.508C288.123 113.784 287.815 113.924 287.538 113.82C287.262 113.717 287.121 113.408 287.225 113.132L287.726 113.32L288.227 113.508ZM300.471 90.8477L300.883 91.1897C297.7 95.0144 292.375 102.463 288.227 113.508L287.726 113.32L287.225 113.132C291.424 101.954 296.816 94.4029 300.06 90.5057L300.471 90.8477Z" fill="#EBEBF2"/>
<path fill-rule="evenodd" clip-rule="evenodd" d="M301.178 143.285C301.89 143.285 302.566 143.597 303.028 144.139C303.49 144.68 303.691 145.396 303.578 146.1C301.783 157.286 295.249 198.001 295.249 198.001H279.717C279.717 198.001 272.497 157.383 270.498 146.14C270.372 145.432 270.567 144.705 271.028 144.154C271.491 143.603 272.173 143.285 272.892 143.285H301.178Z" fill="white"/>
<mask id="mask2_21458_3022" style="mask-type:luminance" maskUnits="userSpaceOnUse" x="270" y="143" width="34" height="56">
<path d="M301.178 143.285C301.89 143.285 302.566 143.597 303.028 144.139C303.49 144.68 303.691 145.396 303.578 146.1C301.783 157.286 295.249 198.001 295.249 198.001H279.717C279.717 198.001 272.497 157.383 270.498 146.14C270.372 145.432 270.567 144.705 271.028 144.154C271.491 143.603 272.173 143.285 272.892 143.285H301.178Z" fill="white"/>
</mask>
<g mask="url(#mask2_21458_3022)">
<path fill-rule="evenodd" clip-rule="evenodd" d="M301.178 143.285C301.89 143.285 302.566 143.597 303.028 144.139C303.49 144.68 303.691 145.396 303.578 146.1C301.783 157.286 295.249 198.001 295.249 198.001H279.717C279.717 198.001 272.497 157.383 270.498 146.14C270.372 145.432 270.567 144.705 271.028 144.154C271.491 143.603 272.173 143.285 272.892 143.285H301.178Z" fill="white"/>
<path d="M305.245 157.861H268.775V160.291H305.245V157.861Z" fill="#EBEBF2"/>
<path d="M305.245 153.004H268.775V155.433H305.245V153.004Z" fill="#EBEBF2"/>
<path d="M305.245 148.145H268.775V150.574H305.245V148.145Z" fill="#EBEBF2"/>
</g>
</g>
<path d="M220.741 93.0165C218.16 91.6202 200.344 82.8633 200.344 82.8633H188.054C188.054 82.8633 173.243 89.7056 170.662 91.1005C168.081 92.4968 172.921 160.738 172.921 160.738L189.308 159.11L196.049 157.746L215.583 152.612C215.583 152.612 221.316 96.9146 218.735 95.5183" fill="#FFC7A1"/>
<path fill-rule="evenodd" clip-rule="evenodd" d="M220.486 166.016L226.041 198.002H167.954V166.016H220.486Z" fill="#21B531"/>
<path d="M187.453 198.002V191.59L183.492 189.447" stroke="#115B19" stroke-width="2.09241" stroke-miterlimit="1.5" stroke-linecap="round" stroke-linejoin="round"/>
<path d="M196.456 90.8815L190.45 90.9092C188.165 90.9186 186.304 89.0757 186.295 86.7918L186.24 73.0443C186.23 70.76 188.075 68.9005 190.36 68.8898L196.367 68.8621C198.652 68.8527 200.512 70.6956 200.521 72.9795L200.577 86.7274C200.586 89.0112 198.741 90.8708 196.456 90.8815Z" fill="#FFC7A1"/>
<path d="M200.52 72.9782C200.511 70.6939 198.651 68.8512 196.366 68.8605L190.359 68.8882C188.074 68.899 186.228 70.7583 186.237 73.0427L186.272 81.5184C191.245 83.1005 196.665 82.2147 200.551 80.4967L200.52 72.9782Z" fill="#EA989D"/>
<path d="M171.074 119.425C167.83 110.039 161.308 116.22 160.771 116.819C157.913 120.006 154.692 132.009 151.881 147.666C151.881 147.666 149.957 156.67 164.4 149.986C164.4 149.986 172.456 123.426 171.074 119.425Z" fill="#FFC7A1"/>
<path d="M172.892 91.6991C172.892 91.6991 166.229 92.705 164.32 94.2318C157.572 99.6311 150.323 130.278 150.323 130.278C150.323 130.278 160.036 137.054 169.619 135.503L177.152 112.342C177.152 112.342 179.698 94.9422 172.892 91.6991Z" fill="#0049CD"/>
<path d="M185.795 83.0957C185.795 83.0957 190.372 88.8684 191.119 95.5494L189.509 135.581L186.87 181.211C186.87 181.211 163.91 180.101 164.744 172.414C166.274 158.323 168.476 150.865 167.629 138.523C165.747 111.096 166.38 93.1703 166.38 93.1703C166.38 93.1703 169.026 89.6789 183.803 84.4451" fill="#0049CD"/>
<path d="M166.38 159.968C166.772 151.558 168.331 144.351 168.012 138.559C167.576 130.63 167.445 117.908 168.879 108.943" stroke="#00338F" stroke-width="1.99713" stroke-miterlimit="2" stroke-linecap="round" stroke-linejoin="bevel"/>
<path d="M201.55 81.7676C201.55 81.7676 190.957 95.2427 191.119 95.1614L186.406 154.178C186.406 154.178 186.217 181.102 186.869 181.21C206.659 184.451 226.041 177.607 226.041 177.607C226.041 177.607 221.676 151.415 221.25 142.633C219.917 115.233 223.14 88.4969 223.14 88.4969C223.14 88.4969 216.219 83.2879 206.268 82.4485" fill="#0049CD"/>
<path d="M191.12 95.9707C191.12 95.9707 188.102 114.486 187.874 123.175C187.585 134.214 186.39 177.656 186.39 177.656" stroke="#00338F" stroke-width="1.99943" stroke-miterlimit="1.5" stroke-linecap="round" stroke-linejoin="round"/>
<path d="M184.76 83.0957C184.76 83.0957 179.683 87.3688 180.883 99.6693C180.883 99.6693 185.079 92.9478 186.785 92.4265C188.491 91.905 190.042 94.1369 191.119 96.5409" stroke="#00338F" stroke-width="1.99944" stroke-miterlimit="1.5" stroke-linecap="round" stroke-linejoin="round"/>
<path d="M242.259 138.646C241.27 128.519 230.256 109.928 230.256 109.928C230.256 109.928 215.01 101.575 218.164 119.382L229.483 142.648C229.483 142.648 238.773 145.398 242.259 138.646Z" fill="#FFC7A1"/>
<path d="M221.448 86.5784C225.93 88.5548 227.946 90.3861 229.095 92.1477C230.244 93.9092 241.987 117.314 242.966 119.653C243.945 121.992 232.621 133.765 220.851 129.084L212.377 106.331C212.377 106.331 209.959 81.5134 221.448 86.5784Z" fill="#0049CD"/>
<path d="M242.313 123.453C242.663 123.027 242.602 122.397 242.176 122.047C241.75 121.697 241.12 121.758 240.77 122.184L241.541 122.819L242.313 123.453ZM220.851 129.085L219.939 129.491C220.045 129.729 220.24 129.917 220.482 130.013L220.851 129.085ZM213.824 110.83C213.6 110.326 213.01 110.099 212.506 110.324C212.002 110.548 211.775 111.138 211.999 111.642L212.912 111.236L213.824 110.83ZM241.541 122.819L240.77 122.184C239.195 124.1 236.354 126.438 232.859 127.867C229.38 129.289 225.32 129.787 221.221 128.157L220.851 129.085L220.482 130.013C225.176 131.88 229.785 131.282 233.615 129.716C237.43 128.156 240.537 125.613 242.313 123.453L241.541 122.819ZM220.851 129.085L221.764 128.679L213.824 110.83L212.912 111.236L211.999 111.642L219.939 129.491L220.851 129.085Z" fill="#00338F"/>
<path d="M201.935 81.7676C201.935 81.7676 206.199 87.368 203.291 99.6688C203.291 99.6688 198.076 94.2058 195.865 93.2579C193.783 92.3654 192.266 94.495 191.119 96.6348" stroke="#00338F" stroke-width="1.99944" stroke-miterlimit="1.5" stroke-linecap="round" stroke-linejoin="round"/>
<path fill-rule="evenodd" clip-rule="evenodd" d="M193.438 99.6684L194.007 136.356L187.674 143.466L182.963 136.356L187.842 99.0996L193.438 99.6684Z" fill="#21B531"/>
<path d="M193.438 99.6699L194.007 136.357L187.745 143.467" stroke="white" stroke-width="1.33218" stroke-miterlimit="1.5" stroke-linecap="round" stroke-linejoin="round"/>
<path fill-rule="evenodd" clip-rule="evenodd" d="M193.437 99.6692C192.582 100.694 188.568 100.288 187.842 99.3848C186.896 98.2071 186.816 92.9159 186.891 93.4124C186.891 93.4124 190.846 91.8937 195.714 94.2656C195.714 94.2656 195.123 97.6494 193.437 99.6692Z" fill="#21B531"/>
<path d="M195.43 95.1191C195.43 95.1191 195.123 97.6497 193.437 99.6695C193.041 100.144 191.967 100.312 190.856 100.266" stroke="white" stroke-width="1.33218" stroke-miterlimit="1.5" stroke-linecap="round" stroke-linejoin="round"/>
<path d="M216.351 49.3165C216.351 49.3165 215.544 44.1946 213.654 40.8426C216.077 41.3458 218.302 41.0893 218.302 41.0893C213.446 39.1602 210.315 36.8945 208.313 35.2166C207.696 34.6316 204.294 32.107 204.294 32.107L204.3 32.1166C202.273 30.5493 201.984 29.4443 199.101 28.4059C193.327 26.3254 187.536 30.4514 187.536 30.4514C187.536 30.4514 182.62 29.1754 181.587 29.6167C181.092 29.8273 177.531 31.8709 174.922 35.08L174.923 35.0776C174.923 35.0776 170.33 40.293 167.959 41.1792C167.959 41.1792 169.497 41.4377 171.135 41.3386C169.633 44.6653 169.718 49.1497 168.94 54.6731C168.15 60.2839 175.814 68.0913 175.814 68.0913L204.558 71.4937C204.558 71.4937 217.745 62.5106 216.351 49.3165Z" fill="#12161C"/>
<path d="M204.893 44.4753L180.331 41.8114L174.732 46.8541C171.909 51.5319 172.132 57.4667 172.871 62.9704C173.459 67.3497 172.608 72.5112 176.186 74.9149C184.994 80.8327 194.508 80.1905 199.261 76.2366C200.746 75.0014 202.733 73.342 203.825 71.7064C205.768 69.2162 206.962 64.8498 207.406 62.9827C208.973 56.709 208.427 49.7525 204.893 44.4753Z" fill="#FFC7A1"/>
<path d="M203.218 63.1732C203.785 59.1483 208.094 57.7014 209.687 58.4149C213.281 60.0226 214.485 63.2754 213.176 66.383C211.805 69.6364 207.895 71.1285 204.715 69.602C203.908 69.2149 202.976 64.8887 203.218 63.1732Z" fill="#FFC7A1"/>
<path d="M203.142 63.696C202.854 63.6556 202.653 63.3889 202.694 63.1008C203.068 60.4394 204.867 59.0786 205.905 58.5048C207.315 57.7258 208.92 57.4979 209.901 57.9367C210.165 58.0554 210.285 58.3671 210.166 58.6316C210.047 58.8974 209.736 59.017 209.469 58.8979C208.894 58.6403 207.659 58.7383 206.416 59.4263C205.549 59.9047 204.049 61.0388 203.738 63.2473C203.697 63.5353 203.43 63.7364 203.142 63.696Z" fill="#EA989D" stroke="#EA989D" stroke-width="0.399029" stroke-miterlimit="2" stroke-linejoin="round"/>
<path d="M206.582 63.0888C207.99 61.4972 210.047 60.7951 212.139 61.1263C213.338 61.3156 212.938 63.157 211.74 62.9676C210.309 62.7415 208.94 63.2671 207.987 64.3446C207.18 65.2535 205.775 63.9989 206.582 63.0888Z" fill="#EA989D"/>
<path d="M191.274 43.3202C192.015 45.0862 195.716 50.3077 195.716 50.3077C195.716 50.3077 198.782 55.6007 203.91 57.9569L204.411 54.4018C204.54 53.4835 204.41 57.0842 206.98 59.8297C206.98 59.8297 210.81 48.8795 209.053 45.107C206.617 39.8746 196.41 35.5056 192.022 37.244C190.376 37.8955 190.672 41.8864 191.274 43.3202Z" fill="#12161C"/>
<path d="M175.015 46.3736C175.015 46.3736 173.186 52.7516 174.503 57.8302C174.503 57.8302 171.327 56.5073 172.249 50.7487C172.249 50.7487 173.161 42.9832 175.015 46.3736Z" fill="#12161C"/>
<path d="M183.035 42.4495C183.035 42.4495 183.41 34.8977 186.602 34.5344C190.658 34.0726 191.829 45.0625 196.079 52.5048C196.079 52.5048 190.172 51.5032 189.144 47.3408C189.144 47.3408 190.153 51.0963 190.422 52.3592C190.422 52.3592 185.058 51.6721 184.804 42.8696L183.035 42.4495Z" fill="#12161C"/>
<path d="M180.042 42.0273L184.342 38.6951L184.801 42.867L180.042 42.0273Z" fill="#595C60"/>
<path d="M185.895 65.478C186.037 65.8182 186.429 65.9786 186.769 65.8361C187.11 65.6936 187.271 65.3022 187.128 64.9619L186.511 65.2199L185.895 65.478ZM188.478 63.4845C188.81 63.6474 189.21 63.5112 189.374 63.1802C189.537 62.8492 189.401 62.4488 189.069 62.2859L188.774 62.8852L188.478 63.4845ZM186.511 65.2199C187.128 64.9619 187.128 64.9621 187.128 64.9623C187.128 64.9623 187.128 64.9624 187.128 64.9625C187.128 64.9626 187.128 64.9627 187.128 64.9627C187.128 64.9627 187.128 64.9624 187.128 64.9619C187.128 64.9609 187.127 64.9589 187.126 64.9559C187.123 64.95 187.119 64.9403 187.114 64.9271C187.104 64.9006 187.088 64.8604 187.07 64.809C187.032 64.7057 186.982 64.5595 186.934 64.3903C186.834 64.0359 186.76 63.6448 186.78 63.3439C186.8 63.0447 186.882 63.0458 186.897 63.0413C187.035 62.9985 187.478 62.9922 188.478 63.4845L188.774 62.8852L189.069 62.2859C188.03 61.7746 187.17 61.5584 186.502 61.7651C185.71 62.0103 185.481 62.7204 185.446 63.2558C185.41 63.7895 185.535 64.3585 185.648 64.7554C185.707 64.962 185.767 65.1393 185.813 65.2656C185.836 65.329 185.856 65.3801 185.87 65.4163C185.877 65.4344 185.883 65.4488 185.887 65.4592C185.889 65.4644 185.891 65.4686 185.892 65.4717C185.893 65.4733 185.893 65.4746 185.894 65.4756C185.894 65.4761 185.894 65.4766 185.894 65.477C185.894 65.4772 185.894 65.4774 185.894 65.4775C185.895 65.4778 185.895 65.478 186.511 65.2199Z" fill="#12161C"/>
<path d="M194.518 58.4175C194.455 60.3059 195.131 61.9537 195.905 62.9191C196.687 63.9055 197.566 64.2086 198.072 63.9135C199.089 63.2293 198.804 60.8987 198.921 58.5189L198.921 58.5137C198.92 58.21 198.732 57.9375 198.447 57.8328L197.079 57.3348L198.636 56.4189C198.853 56.2914 198.989 56.0587 198.992 55.8062C199.011 54.547 198.92 53.5316 198.327 53.0921C197.835 52.773 196.943 53.0352 196.116 53.9846C195.297 54.9133 194.544 56.5292 194.518 58.4175Z" fill="#12161C"/>
<path d="M178.842 59.4858C178.778 61.3743 179.455 63.022 180.229 63.9875C181.011 64.9739 181.89 65.277 182.395 64.9818C183.412 64.2977 183.128 61.9671 183.245 59.5873L183.245 59.582C183.244 59.2783 183.056 59.0058 182.77 58.9011L181.402 58.4031L182.96 57.4873C183.177 57.3597 183.313 57.127 183.316 56.8745C183.335 55.6154 183.243 54.5999 182.65 54.1605C182.159 53.8413 181.267 54.1036 180.44 55.053C179.62 55.9817 178.867 57.5975 178.842 59.4858Z" fill="#12161C"/>
<path d="M182.808 52.5851C183.04 52.8724 183.461 52.9175 183.748 52.6859C184.036 52.4543 184.081 52.0337 183.849 51.7464L183.329 52.1658L182.808 52.5851ZM176.353 52.9989C176.177 53.3229 176.296 53.7287 176.62 53.9054C176.944 54.082 177.35 53.9626 177.527 53.6387L176.94 53.3188L176.353 52.9989ZM183.329 52.1658C183.849 51.7464 183.849 51.7461 183.849 51.7458C183.849 51.7457 183.848 51.7454 183.848 51.7452C183.848 51.7447 183.847 51.7441 183.847 51.7435C183.846 51.7423 183.845 51.7408 183.843 51.7391C183.84 51.7356 183.837 51.7311 183.832 51.7256C183.823 51.7147 183.811 51.7 183.795 51.6819C183.763 51.6456 183.719 51.5956 183.662 51.5354C183.549 51.4153 183.386 51.2528 183.181 51.077C182.775 50.7306 182.175 50.3068 181.444 50.0756C180.697 49.8393 179.809 49.8047 178.89 50.2555C177.988 50.6984 177.132 51.5724 176.353 52.9989L176.94 53.3188L177.527 53.6387C178.225 52.3589 178.907 51.7356 179.479 51.4549C180.035 51.1821 180.56 51.1975 181.041 51.3496C181.537 51.5066 181.98 51.8094 182.312 52.0926C182.474 52.2315 182.602 52.3595 182.689 52.4512C182.732 52.4969 182.764 52.5331 182.784 52.5566C182.794 52.5684 182.802 52.5769 182.806 52.5818C182.808 52.5842 182.809 52.5858 182.809 52.5863C182.81 52.5866 182.81 52.5867 182.81 52.5865C182.809 52.5864 182.809 52.5862 182.809 52.586C182.809 52.5859 182.809 52.5856 182.809 52.5856C182.809 52.5854 182.808 52.5851 183.329 52.1658Z" fill="#12161C"/>
<path d="M196.314 67.6888C196.63 68.1603 196.691 69.2749 196.157 70.4038C195.639 71.5076 194.422 72.9915 191.537 73.8506C188.704 74.6926 187.012 74.0648 186.03 73.4566C183.769 72.0554 184.582 69.8142 185.514 69.3147C186.506 68.7845 188.017 69.8417 190.006 69.2659C191.441 68.8506 192.832 67.1782 193.385 66.9424C194.611 66.4363 195.652 66.6931 196.314 67.6888Z" fill="#12161C"/>
<mask id="mask3_21458_3022" style="mask-type:luminance" maskUnits="userSpaceOnUse" x="184" y="66" width="13" height="9">
<path d="M193.384 66.9423C192.832 67.1781 191.441 68.8505 190.006 69.2658C189.077 69.5351 188.251 69.4473 187.535 69.3313C186.719 69.2002 186.042 69.0319 185.514 69.3146C184.582 69.8128 183.769 72.0553 186.031 73.4564C187.012 74.0648 188.705 74.6924 191.537 73.8507C194.422 72.9916 195.639 71.5076 196.157 70.4028C196.692 69.2736 196.63 68.1602 196.313 67.6877C195.74 66.8261 194.883 66.5183 193.867 66.7801C193.711 66.8204 193.549 66.8741 193.384 66.9423Z" fill="white"/>
</mask>
<g mask="url(#mask3_21458_3022)">
<path d="M196.505 74.6956C196.738 76.5559 195.123 78.2893 192.897 78.569C190.671 78.8467 188.678 77.5651 188.444 75.7049C188.212 73.8445 189.826 72.1101 192.052 71.8314C194.279 71.5526 196.271 72.8343 196.505 74.6956Z" fill="#EB5757"/>
<path d="M183.361 69.6481C183.361 69.6481 186.575 71.9224 190.652 70.6331C194.729 69.3425 197.68 65.3379 197.68 65.3379C197.68 65.3379 188.988 64.842 183.361 69.6481Z" fill="white"/>
</g>
<path d="M193.385 66.9422C192.832 67.1781 191.441 68.8504 190.006 69.2658C189.077 69.535 188.251 69.4473 187.536 69.3313C186.719 69.2001 186.042 69.0319 185.514 69.3146C184.582 69.8128 183.769 72.0552 186.031 73.4562C187.012 74.0647 188.705 74.6922 191.537 73.8505C194.422 72.9914 195.639 71.5075 196.157 70.4027C196.692 69.2734 196.63 68.1601 196.313 67.6876C195.74 66.8261 194.883 66.5183 193.867 66.78C193.711 66.8204 193.55 66.8741 193.385 66.9422Z" stroke="#12161C" stroke-width="1.00241" stroke-miterlimit="2" stroke-linejoin="round"/>
<path d="M192.911 51.6844C192.766 52.0237 192.373 52.1812 192.034 52.0361C191.694 51.891 191.537 51.4984 191.682 51.1591L192.297 51.4218L192.911 51.6844ZM193.417 50.0062L192.981 49.5003L192.981 49.5002L193.417 50.0062ZM203.439 52.2683C203.596 52.6026 203.451 53.0003 203.117 53.1566C202.782 53.3129 202.385 53.1687 202.228 52.8345L202.834 52.5514L203.439 52.2683ZM192.297 51.4218L191.682 51.1591C191.93 50.5794 192.4 50.0008 192.981 49.5003L193.417 50.0062L193.854 50.5121C193.372 50.9273 193.055 51.349 192.911 51.6844L192.297 51.4218ZM193.417 50.0062L192.981 49.5002C194.186 48.4621 196.059 47.6005 198.035 47.7947C200.066 47.9942 202.048 49.292 203.439 52.2683L202.834 52.5514L202.228 52.8345C200.994 50.1945 199.373 49.2689 197.903 49.1245C196.379 48.9747 194.856 49.6486 193.854 50.5123L193.417 50.0062Z" fill="#12161C"/>
<path fill-rule="evenodd" clip-rule="evenodd" d="M166.216 80.6776L176.866 148.59C177.385 151.898 175.12 155.003 171.811 155.52L123.851 163.015C120.543 163.532 117.435 161.267 116.917 157.96L106.266 90.047C105.748 86.7398 108.013 83.6349 111.322 83.1177L159.281 75.6223C162.59 75.1051 165.697 77.3705 166.216 80.6776Z" fill="#FFB35C"/>
<path fill-rule="evenodd" clip-rule="evenodd" d="M161.823 85.3031L171.244 145.375C171.676 148.132 169.788 150.719 167.031 151.15L127.065 157.396C124.308 157.827 121.719 155.939 121.286 153.183L111.866 93.1109C111.433 90.3546 113.321 87.7673 116.078 87.3364L156.044 81.0902C158.801 80.6593 161.391 82.5469 161.823 85.3031Z" fill="white"/>
<path fill-rule="evenodd" clip-rule="evenodd" d="M157.034 88.5786L158.834 100.048C159.047 101.404 158.118 102.678 156.761 102.89L122.074 108.311C120.717 108.523 119.443 107.594 119.23 106.237L117.431 94.7682C117.218 93.4121 118.146 92.1384 119.503 91.9264L154.191 86.5051C155.547 86.2931 156.821 87.2225 157.034 88.5786Z" fill="#E9F8EA"/>
<path fill-rule="evenodd" clip-rule="evenodd" d="M157.675 88.4795L159.475 99.9485C159.743 101.658 158.572 103.263 156.862 103.531L122.174 108.952C120.464 109.219 118.858 108.048 118.589 106.338L116.79 94.8694C116.522 93.1597 117.692 91.5545 119.403 91.2872L154.09 85.8659C155.801 85.5986 157.407 86.7699 157.675 88.4795ZM157.034 88.5797C156.821 87.2236 155.547 86.2942 154.191 86.5062L119.503 91.9274C118.146 92.1394 117.218 93.4131 117.431 94.7692L119.23 106.238C119.443 107.594 120.717 108.524 122.074 108.312L156.761 102.891C158.118 102.678 159.047 101.405 158.834 100.049L157.034 88.5797Z" fill="#21B531"/>
<path d="M126.59 104.111C123.951 104.523 121.475 102.719 121.061 100.08C120.647 97.4412 122.451 94.9677 125.09 94.5553C127.73 94.1429 130.205 95.9477 130.619 98.5865C131.033 101.225 129.229 103.699 126.59 104.111Z" fill="#21B531"/>
<path d="M124.099 99.676C123.886 99.4793 123.554 99.4922 123.358 99.7049C123.161 99.9177 123.174 100.25 123.387 100.446L123.743 100.061L124.099 99.676ZM125.502 101.687L125.146 102.072C125.264 102.181 125.425 102.23 125.584 102.206C125.742 102.181 125.881 102.085 125.959 101.945L125.502 101.687ZM128.316 97.771C128.459 97.5189 128.37 97.1987 128.118 97.0558C127.866 96.913 127.546 97.0015 127.403 97.2536L127.86 97.5123L128.316 97.771ZM123.743 100.061L123.387 100.446L125.146 102.072L125.502 101.687L125.858 101.302L124.099 99.676L123.743 100.061ZM125.502 101.687C125.959 101.945 125.959 101.945 125.959 101.945C125.959 101.945 125.959 101.945 125.959 101.945C125.96 101.945 125.96 101.945 125.96 101.945C125.96 101.944 125.96 101.943 125.961 101.943C125.962 101.941 125.964 101.938 125.966 101.934C125.97 101.927 125.976 101.916 125.984 101.902C126 101.874 126.023 101.832 126.053 101.78C126.113 101.674 126.198 101.522 126.301 101.34C126.508 100.974 126.785 100.483 127.068 99.9822C127.634 98.9797 128.223 97.9364 128.316 97.771L127.86 97.5123L127.403 97.2536C127.309 97.4197 126.719 98.4639 126.154 99.4659C125.871 99.9671 125.594 100.458 125.387 100.823C125.284 101.006 125.199 101.158 125.139 101.263C125.109 101.316 125.086 101.358 125.07 101.386C125.062 101.4 125.056 101.411 125.052 101.418C125.049 101.422 125.048 101.424 125.047 101.426C125.046 101.427 125.046 101.428 125.046 101.428C125.046 101.429 125.045 101.429 125.045 101.429C125.045 101.429 125.045 101.429 125.045 101.429C125.045 101.429 125.045 101.429 125.502 101.687Z" fill="white"/>
<path fill-rule="evenodd" clip-rule="evenodd" d="M154.645 91.0502C154.728 91.5777 154.366 92.0734 153.839 92.1559L133.899 95.2746C133.371 95.3571 132.875 94.9955 132.793 94.4679C132.71 93.94 133.071 93.4447 133.599 93.3622L153.539 90.2435C154.067 90.161 154.562 90.5223 154.645 91.0502Z" fill="#21B531"/>
<path fill-rule="evenodd" clip-rule="evenodd" d="M150.184 95.524C150.267 96.0515 149.906 96.5472 149.378 96.6297L134.475 98.9602C133.948 99.0426 133.452 98.681 133.37 98.1534C133.287 97.6256 133.648 97.1303 134.175 97.0478L149.078 94.7174C149.606 94.6348 150.101 94.9961 150.184 95.524Z" fill="#21B531"/>
<path fill-rule="evenodd" clip-rule="evenodd" d="M150.762 99.2096C150.844 99.7371 150.483 100.233 149.955 100.315L135.053 102.646C134.526 102.728 134.03 102.367 133.947 101.839C133.865 101.311 134.226 100.816 134.753 100.733L149.655 98.4029C150.183 98.3204 150.679 98.6817 150.762 99.2096Z" fill="#21B531"/>
<path fill-rule="evenodd" clip-rule="evenodd" d="M160.457 110.415L162.256 121.884C162.469 123.24 161.54 124.514 160.184 124.726L125.496 130.147C124.139 130.359 122.865 129.429 122.652 128.073L120.853 116.604C120.64 115.248 121.569 113.974 122.925 113.762L157.613 108.341C158.97 108.129 160.244 109.058 160.457 110.415Z" fill="#E9F8EA"/>
<path fill-rule="evenodd" clip-rule="evenodd" d="M161.097 110.315L162.897 121.784C163.165 123.494 161.995 125.099 160.284 125.367L125.597 130.788C123.886 131.055 122.28 129.884 122.012 128.174L120.212 116.705C119.944 114.996 121.115 113.39 122.825 113.123L157.512 107.702C159.223 107.435 160.829 108.606 161.097 110.315ZM160.457 110.416C160.244 109.059 158.97 108.13 157.613 108.342L122.925 113.763C121.569 113.975 120.64 115.249 120.853 116.605L122.653 128.074C122.865 129.43 124.14 130.36 125.496 130.148L160.184 124.726C161.54 124.514 162.469 123.241 162.256 121.885L160.457 110.416Z" fill="#21B531"/>
<path d="M130.012 125.947C127.373 126.359 124.898 124.555 124.483 121.916C124.069 119.277 125.873 116.804 128.513 116.391C131.152 115.979 133.627 117.784 134.041 120.422C134.455 123.061 132.652 125.535 130.012 125.947Z" fill="#21B531"/>
<path d="M127.522 121.512C127.309 121.315 126.977 121.328 126.78 121.541C126.583 121.754 126.596 122.086 126.809 122.282L127.165 121.897L127.522 121.512ZM128.925 123.523L128.569 123.908C128.686 124.017 128.848 124.066 129.006 124.042C129.165 124.017 129.303 123.921 129.382 123.781L128.925 123.523ZM131.739 119.606C131.882 119.354 131.792 119.034 131.54 118.891C131.288 118.749 130.967 118.838 130.825 119.09L131.282 119.348L131.739 119.606ZM127.165 121.897L126.809 122.282L128.569 123.908L128.925 123.523L129.281 123.138L127.522 121.512L127.165 121.897ZM128.925 123.523L129.382 123.781L131.739 119.606L131.282 119.348L130.825 119.09L128.468 123.265L128.925 123.523Z" fill="white"/>
<path fill-rule="evenodd" clip-rule="evenodd" d="M158.068 112.886C158.15 113.414 157.789 113.909 157.261 113.992L137.321 117.111C136.793 117.193 136.298 116.831 136.215 116.304C136.132 115.776 136.494 115.281 137.021 115.198L156.961 112.079C157.489 111.997 157.985 112.358 158.068 112.886Z" fill="#21B531"/>
<path fill-rule="evenodd" clip-rule="evenodd" d="M153.606 117.36C153.689 117.887 153.328 118.383 152.8 118.466L137.898 120.796C137.37 120.879 136.875 120.517 136.792 119.989C136.709 119.462 137.07 118.966 137.598 118.884L152.5 116.553C153.028 116.471 153.524 116.832 153.606 117.36Z" fill="#21B531"/>
<path fill-rule="evenodd" clip-rule="evenodd" d="M154.184 121.045C154.267 121.573 153.906 122.069 153.378 122.151L138.475 124.482C137.948 124.564 137.452 124.202 137.37 123.675C137.287 123.147 137.648 122.652 138.175 122.569L153.078 120.239C153.606 120.156 154.101 120.518 154.184 121.045Z" fill="#21B531"/>
<path fill-rule="evenodd" clip-rule="evenodd" d="M163.878 132.25L165.678 143.72C165.891 145.076 164.962 146.349 163.606 146.562L128.918 151.983C127.561 152.195 126.287 151.265 126.074 149.909L124.275 138.44C124.062 137.084 124.991 135.81 126.347 135.598L161.035 130.177C162.391 129.965 163.666 130.894 163.878 132.25Z" fill="#E9F8EA"/>
<path fill-rule="evenodd" clip-rule="evenodd" d="M164.519 132.151L166.319 143.62C166.587 145.33 165.416 146.935 163.706 147.203L129.019 152.624C127.308 152.891 125.702 151.72 125.434 150.01L123.634 138.541C123.366 136.832 124.536 135.226 126.247 134.959L160.934 129.538C162.645 129.27 164.251 130.442 164.519 132.151ZM163.878 132.252C163.666 130.895 162.391 129.966 161.035 130.178L126.347 135.599C124.991 135.811 124.062 137.085 124.275 138.441L126.074 149.91C126.287 151.266 127.561 152.196 128.918 151.984L163.606 146.562C164.962 146.35 165.891 145.077 165.678 143.721L163.878 132.252Z" fill="#21B531"/>
<path d="M133.434 147.783C130.795 148.195 128.319 146.391 127.905 143.752C127.491 141.113 129.295 138.64 131.934 138.227C134.574 137.815 137.049 139.62 137.463 142.258C137.877 144.897 136.073 147.371 133.434 147.783Z" fill="#21B531"/>
<path d="M130.943 143.348C130.731 143.151 130.399 143.164 130.202 143.377C130.005 143.59 130.018 143.922 130.231 144.118L130.587 143.733L130.943 143.348ZM132.347 145.359L131.99 145.744C132.108 145.853 132.269 145.902 132.428 145.877C132.586 145.853 132.725 145.757 132.804 145.617L132.347 145.359ZM135.161 141.442C135.303 141.19 135.214 140.87 134.962 140.727C134.709 140.585 134.389 140.674 134.247 140.926L134.704 141.184L135.161 141.442ZM130.587 143.733L130.231 144.118L131.99 145.744L132.347 145.359L132.703 144.974L130.943 143.348L130.587 143.733ZM132.347 145.359L132.804 145.617L135.161 141.442L134.704 141.184L134.247 140.926L131.89 145.101L132.347 145.359Z" fill="white"/>
<path fill-rule="evenodd" clip-rule="evenodd" d="M161.489 134.722C161.572 135.25 161.211 135.745 160.683 135.828L140.743 138.946C140.215 139.029 139.719 138.667 139.637 138.14C139.554 137.612 139.915 137.117 140.443 137.034L160.383 133.915C160.911 133.833 161.407 134.194 161.489 134.722Z" fill="#21B531"/>
<path fill-rule="evenodd" clip-rule="evenodd" d="M157.028 139.196C157.111 139.723 156.75 140.219 156.222 140.302L141.32 142.632C140.792 142.715 140.297 142.353 140.214 141.825C140.131 141.297 140.492 140.802 141.02 140.72L155.922 138.389C156.45 138.307 156.946 138.668 157.028 139.196Z" fill="#21B531"/>
<path fill-rule="evenodd" clip-rule="evenodd" d="M157.606 142.881C157.689 143.409 157.328 143.905 156.8 143.987L141.897 146.318C141.37 146.4 140.874 146.038 140.792 145.511C140.709 144.983 141.07 144.488 141.597 144.405L156.5 142.075C157.028 141.992 157.523 142.354 157.606 142.881Z" fill="#21B531"/>
<path d="M154.982 74.2511L115.007 80.502L115.634 84.4988L155.608 78.2479L154.982 74.2511Z" fill="#FF9246"/>
<path d="M112.969 120.201C113.248 121.402 111.966 122.727 110.106 123.159C108.244 123.592 106.509 122.968 106.228 121.769C105.95 120.566 107.232 119.242 109.093 118.808C110.953 118.377 112.689 118.999 112.969 120.201Z" fill="#FFC7A1"/>
<path d="M106.228 121.767C105.948 120.566 107.23 119.241 109.092 118.808C110.953 118.375 112.689 118.998 112.969 120.2C113.249 121.401 111.967 122.726 110.106 123.159C108.244 123.592 106.508 122.969 106.228 121.767Z" stroke="#EA989D" stroke-width="1.32979" stroke-miterlimit="10"/>
<path d="M113.844 125.803C114.123 127.004 112.841 128.329 110.98 128.76C109.119 129.193 107.384 128.569 107.103 127.37C106.824 126.168 108.106 124.844 109.967 124.41C111.828 123.978 113.564 124.6 113.844 125.803Z" fill="#FFC7A1"/>
<path d="M107.103 127.369C106.823 126.168 108.105 124.843 109.966 124.41C111.828 123.977 113.564 124.6 113.844 125.801C114.124 127.003 112.842 128.327 110.98 128.76C109.119 129.193 107.383 128.57 107.103 127.369Z" stroke="#EA989D" stroke-width="1.32979" stroke-miterlimit="10"/>
<path d="M115.622 129.922C115.901 131.123 114.619 132.448 112.758 132.879C110.897 133.312 109.162 132.689 108.881 131.489C108.602 130.287 109.884 128.963 111.746 128.529C113.606 128.097 115.342 128.72 115.622 129.922Z" fill="#FFC7A1"/>
<path d="M108.881 131.488C108.601 130.287 109.883 128.962 111.744 128.529C113.606 128.096 115.342 128.719 115.622 129.921C115.902 131.122 114.62 132.447 112.758 132.879C110.897 133.312 109.161 132.689 108.881 131.488Z" stroke="#EA989D" stroke-width="1.32979" stroke-miterlimit="10"/>
<path d="M116.623 135.659C116.902 136.86 115.62 138.185 113.759 138.618C111.898 139.049 110.163 138.426 109.882 137.226C109.603 136.024 110.885 134.7 112.746 134.266C114.607 133.834 116.343 134.457 116.623 135.659Z" fill="#FFC7A1"/>
<path d="M109.882 137.226C109.602 136.025 110.884 134.7 112.745 134.267C114.607 133.834 116.343 134.457 116.623 135.659C116.903 136.86 115.621 138.185 113.759 138.618C111.898 139.051 110.162 138.428 109.882 137.226Z" stroke="#EA989D" stroke-width="1.32979" stroke-miterlimit="10"/>
<path d="M228.727 137.033C228.727 137.033 228.734 141.541 229.493 142.175C229.607 142.266 230.944 144.79 231.068 144.891C231.161 144.963 231.254 145.035 231.353 145.107C231.526 145.244 231.715 145.385 231.915 145.536C233.803 146.949 235.439 147.762 237.753 147.302C239.888 146.88 241.744 145.515 243.145 143.853C245.963 140.507 247.456 136.462 248.292 132.236C249.343 126.918 249.916 121.516 250.438 116.123C250.9 111.364 251.603 105.706 251.989 100.941C252.248 97.7387 253.897 93.7898 250.722 91.7068C250.418 91.5109 250.082 91.3403 249.723 91.3288C249.332 91.3158 248.963 91.4823 248.619 91.6651C247.244 92.394 246.184 93.5017 245.152 94.6436C244.273 95.61 242.616 96.6744 241.973 97.7387C241.109 99.1818 241.297 101.178 241.024 102.778C240.306 106.983 239.073 110.952 237.522 114.84C236.706 116.89 235.804 118.921 234.842 120.948C233.195 124.412 231.507 127.872 230.238 131.497C229.702 133.034 229.24 134.597 228.897 136.187C228.838 136.467 228.78 136.749 228.727 137.033Z" fill="#FFC7A1"/>
<path d="M229.995 131.731C229.995 131.731 239.974 111.705 240.795 103.93" stroke="#EA989D" stroke-width="2.00143" stroke-miterlimit="1.5" stroke-linecap="round" stroke-linejoin="round"/>
<path d="M249.859 83.3305C250.303 81.3031 250.104 79.2939 249.381 77.3833C248.671 75.5075 248.698 73.3815 248.031 71.4535C247.49 69.8894 246.734 67.4398 245.124 66.6656C243.218 65.7502 243.251 68.0175 243.499 69.1878C243.95 71.3099 244.694 73.5448 244.794 75.7C244.868 77.3107 244.842 78.9254 244.715 80.5329C244.606 81.9139 244.096 83.3991 244.252 84.7747C244.353 85.6577 244.836 86.5519 245.656 86.892C246.437 87.2156 247.364 86.9701 248.045 86.4698C249.041 85.7375 249.594 84.5371 249.859 83.3305Z" fill="#FFC7A1"/>
<path d="M249.475 82.5922C250.729 82.2891 251.673 81.1598 252.94 80.9168C253.206 80.8663 253.494 80.8592 253.736 80.9815C254.778 81.5102 254.103 85.3756 254.059 86.3676C253.969 88.406 253.82 90.442 253.612 92.4726C253.306 95.4611 253.328 100.731 249.999 102.122C249.08 102.506 248.013 102.396 247.084 102.037C245.709 101.508 244.077 100.426 243.375 99.085C243.126 98.6099 243.014 98.0772 242.905 97.5524C242.414 95.1983 242.375 92.9255 241.413 90.7364C241.355 90.6062 241.298 90.472 241.291 90.3292C241.281 90.1043 241.4 89.8967 241.512 89.701C243.071 86.9736 243.223 84.0876 244.21 81.2088C244.816 79.441 247.302 78.0908 248.456 80.025C248.894 80.7582 249.163 81.5907 249.239 82.4414L249.475 82.5922Z" fill="#FFC7A1"/>
<path d="M243.153 86.8552C243.154 86.942 242.743 87.0336 242.788 87.1077C242.942 87.3587 243.33 87.1969 243.551 87.0028C245.459 85.3242 246.166 82.9843 246.812 80.6247C246.898 80.3122 246.984 79.9792 246.89 79.6683C246.816 79.4205 246.636 79.22 246.456 79.033C245.353 77.8832 244.087 76.9133 242.656 76.2441C242.314 76.0839 241.962 75.9402 241.601 75.8163C241.042 75.6238 240.205 75.4352 239.615 75.4738C238.324 75.5575 236.57 77.5486 235.344 78.9675C234.774 79.6264 233.975 80.3525 233.705 81.2056C233.569 81.6325 233.643 82.1597 233.997 82.4335C234.228 82.6119 234.535 82.656 234.826 82.6521C235.612 82.641 236.371 82.3222 237.007 81.8629C237.781 81.3058 238.28 80.3722 239.136 79.9516C239.958 79.5467 240.763 80.1733 241.42 80.6263C241.869 80.9364 242.293 81.2813 242.689 81.657C242.877 81.8361 243.702 82.5148 243.661 82.7413C243.276 84.8744 243.144 85.3921 243.153 86.8552Z" fill="#FFC7A1"/>
<path d="M242.475 87.1271C241.272 88.1325 239.24 88.5042 238.277 87.0434C237.867 86.4192 237.596 85.7413 237.346 85.0421C236.991 84.0462 236.499 83.0668 235.527 82.5199C235.072 82.2642 233.619 81.913 233.537 82.7543C233.511 83.0258 233.637 83.2854 233.757 83.53C234.599 85.2418 234.846 87.3693 234.763 89.2602C234.667 91.4699 235.497 93.1642 236.989 94.7504C237.893 95.7124 238.919 96.5466 239.897 97.4312C240.381 97.8684 240.858 98.3206 241.314 98.7847C241.698 99.1753 241.85 99.6938 242.201 100.122C242.516 100.506 242.971 100.806 243.469 100.818C243.951 100.831 244.405 100.574 244.755 100.241C245.634 99.4026 245.941 98.1423 246.162 96.9483C246.544 94.8901 246.794 92.7901 246.618 90.7044C246.519 89.5269 246.344 88.1522 245.781 87.0939C245.389 86.3584 244.649 85.0263 243.668 85.6284C243.078 85.9907 243.008 86.6828 242.475 87.1271Z" fill="#FFC7A1"/>
<path d="M248.784 88.235C248.923 88.5215 249.111 88.8 249.389 88.9547C249.848 89.2096 250.431 89.066 250.89 88.8095C253.876 87.1404 255.119 81.8569 255.359 78.7626C255.464 77.4179 255.466 75.9974 255.194 74.6731C255.067 74.0544 254.897 73.3458 254.433 72.8841C253.522 71.9766 252.874 72.6111 252.855 73.7238C252.81 76.3667 252.162 78.9646 250.994 81.3345C249.95 83.4503 247.552 85.6757 248.784 88.235Z" fill="#FFC7A1"/>
<path d="M250.876 74.5221C250.57 73.0077 250.13 71.5201 249.541 70.0909C249.171 69.1921 248.526 66.9548 247.33 66.8853C245.216 66.7638 246.433 71.0529 246.692 72.0465C247.199 73.9973 247.434 76.0168 247.387 78.0315C247.342 79.9634 246.78 81.8551 246.861 83.783C246.902 84.7845 247.159 85.898 248.006 86.4362C248.274 86.6059 248.582 86.7037 248.89 86.7795C249.228 86.8623 249.598 86.9184 249.918 86.7771C250.167 86.6674 250.352 86.452 250.509 86.2302C251.629 84.6574 251.444 82.6742 251.453 80.8394C251.464 78.7221 251.296 76.5992 250.876 74.5221Z" fill="#FFC7A1"/>
<path d="M251.302 82.9208C251.302 82.9208 251.489 81.8096 251.932 79.3817C252.222 77.794 252.4 75.5066 252.488 74.1133" stroke="#EA989D" stroke-width="1.3318" stroke-miterlimit="1.5" stroke-linecap="round" stroke-linejoin="round"/>
<path d="M247.375 81.2146C247.556 80.124 247.67 79.0192 247.712 77.9333C247.798 75.7575 247.664 74.0285 247.289 72.4912C247.225 72.2268 247.156 71.9632 247.088 71.7004C246.953 71.1812 246.814 70.6453 246.71 70.1142C246.588 69.4821 246.468 68.6566 246.636 67.8809" stroke="#EA989D" stroke-width="1.33182" stroke-miterlimit="2" stroke-linecap="round" stroke-linejoin="round"/>
<path d="M245.027 80.4125V77.9043" stroke="#EA989D" stroke-width="1.3318" stroke-miterlimit="1.5" stroke-linecap="round" stroke-linejoin="round"/>
<path d="M235.672 82.0799C235.55 82.0089 235.413 81.9931 235.286 82.0317C235.083 82.0949 234.925 82.1091 234.717 82.0862C234.55 82.0657 234.355 81.997 234.209 81.9079C233.966 81.7611 233.66 81.8281 233.505 82.0578C233.429 82.173 233.401 82.319 233.432 82.4579C233.463 82.5944 233.543 82.7089 233.658 82.7783C233.991 82.9827 234.373 83.0987 234.756 83.1208C235.027 83.1358 235.297 83.105 235.553 83.0253C235.825 82.9409 235.98 82.6868 235.923 82.4216C235.894 82.2827 235.8 82.1541 235.672 82.0799Z" fill="#EA989D"/>
<path d="M90.1578 93.2434L78.3701 90.6793L83.0655 79.9627L93.3693 85.5924L90.1578 93.2434Z" fill="#21B531"/>
<path d="M99.6349 76.4625L82.926 56.9471L100.889 46.8124L110.533 69.3067L99.6349 76.4625Z" fill="#21B531"/>
<path d="M120.518 67.9012L125.1 56.7031L134.281 59.8259L127.69 71.6731L120.518 67.9012Z" fill="#21B531"/>
</g>
</g>
<defs>
<clipPath id="clip0_21458_3022">
<rect width="310" height="198" fill="white" transform="translate(21)"/>
</clipPath>
</defs>
</svg>
