<svg width="48" height="48" viewBox="0 0 48 48" fill="none" xmlns="http://www.w3.org/2000/svg">
<g clip-path="url(#clip0_17347_22083)">
<mask id="mask0_17347_22083" style="mask-type:luminance" maskUnits="userSpaceOnUse" x="0" y="0" width="48" height="48">
<path d="M48 24C48 24.22 48 24.44 47.98 24.66C47.64 37.6 37.03 48 24 48C10.97 48 0.36 37.6 0.02 24.66C0 24.44 0 24.22 0 24C0 10.74 10.74 0 24 0C37.26 0 48 10.74 48 24Z" fill="white"/>
</mask>
<g mask="url(#mask0_17347_22083)">
<path d="M48 24C48 24.22 48 24.44 47.98 24.66C47.64 37.6 37.03 48 24 48C10.97 48 0.36 37.6 0.02 24.66C0 24.44 0 24.22 0 24C0 10.74 10.74 0 24 0C37.26 0 48 10.74 48 24Z" fill="#B6C7ED"/>
<path d="M0 24.75H48" stroke="white" stroke-width="0.87" stroke-miterlimit="10"/>
<path opacity="0.2" d="M0 19.3789H48" stroke="white" stroke-width="0.87" stroke-miterlimit="10"/>
<path opacity="0.2" d="M0 14.0117H48" stroke="white" stroke-width="0.87" stroke-miterlimit="10"/>
<path opacity="0.2" d="M0 8.64062H48" stroke="white" stroke-width="0.87" stroke-miterlimit="10"/>
<path opacity="0.2" d="M0 3.26953H48" stroke="white" stroke-width="0.87" stroke-miterlimit="10"/>
<path opacity="0.2" d="M4.19 0V45.92" stroke="white" stroke-width="0.85" stroke-miterlimit="10"/>
<path opacity="0.2" d="M19.56 0V45.92" stroke="white" stroke-width="0.85" stroke-miterlimit="10"/>
<path opacity="0.2" d="M34.9301 0V45.92" stroke="white" stroke-width="0.85" stroke-miterlimit="10"/>
<path d="M47.98 24.6609C47.64 37.6009 37.03 48.0009 24 48.0009C10.97 48.0009 0.36002 37.6009 0.0200195 24.6609C5.98002 21.7709 14.52 19.9609 24 19.9609C33.48 19.9609 42.02 21.7709 47.98 24.6609Z" fill="#EBEBF1"/>
<path d="M17.3801 39.5195V42.3595C17.3801 44.0095 14.0301 45.3395 9.91005 45.3395C5.79005 45.3395 2.43005 44.0095 2.43005 42.3595V39.5195H17.3701H17.3801Z" fill="#FFB533"/>
<path d="M9.90994 42.4991C14.0355 42.4991 17.3799 41.1649 17.3799 39.5191C17.3799 37.8733 14.0355 36.5391 9.90994 36.5391C5.78437 36.5391 2.43994 37.8733 2.43994 39.5191C2.43994 41.1649 5.78437 42.4991 9.90994 42.4991Z" fill="#FFD56C"/>
<path d="M9.91006 41.6284C6.60006 41.6284 4.53006 40.6984 3.67006 39.9684C3.44006 39.7784 3.44006 39.2484 3.67006 39.0584C4.53006 38.3384 6.60006 37.3984 9.91006 37.3984C13.2201 37.3984 15.2901 38.3284 16.1501 39.0584C16.3801 39.2484 16.3801 39.7784 16.1501 39.9684C15.2901 40.6884 13.2201 41.6284 9.91006 41.6284Z" fill="#FFC34A"/>
<path d="M17.3801 36.2305V39.0705C17.3801 40.7205 14.0301 42.0505 9.91005 42.0505C5.79005 42.0505 2.43005 40.7205 2.43005 39.0705V36.2305H17.3701H17.3801Z" fill="#FFB533"/>
<path d="M9.91 39.21C14.0356 39.21 17.38 37.8758 17.38 36.23C17.38 34.5842 14.0356 33.25 9.91 33.25C5.78444 33.25 2.44 34.5842 2.44 36.23C2.44 37.8758 5.78444 39.21 9.91 39.21Z" fill="#FFD56C"/>
<path d="M9.91006 38.3394C6.60006 38.3394 4.53006 37.4094 3.67006 36.6794C3.44006 36.4894 3.44006 35.9594 3.67006 35.7694C4.53006 35.0494 6.60006 34.1094 9.91006 34.1094C13.2201 34.1094 15.2901 35.0394 16.1501 35.7694C16.3801 35.9594 16.3801 36.4894 16.1501 36.6794C15.2901 37.3994 13.2201 38.3394 9.91006 38.3394Z" fill="#FFC34A"/>
<path d="M17.38 32.91V35.75C17.38 37.4 14.03 38.73 9.90999 38.73C5.78999 38.73 2.42999 37.4 2.42999 35.75V32.91H17.37H17.38Z" fill="#FFB533"/>
<path d="M9.90994 35.8819C14.0355 35.8819 17.3799 34.5477 17.3799 32.9019C17.3799 31.2561 14.0355 29.9219 9.90994 29.9219C5.78437 29.9219 2.43994 31.2561 2.43994 32.9019C2.43994 34.5477 5.78437 35.8819 9.90994 35.8819Z" fill="#FFD56C"/>
<path d="M9.91006 35.0112C6.60006 35.0112 4.53006 34.0812 3.67006 33.3512C3.44006 33.1612 3.44006 32.6312 3.67006 32.4412C4.53006 31.7212 6.60006 30.7812 9.91006 30.7812C13.2201 30.7812 15.2901 31.7112 16.1501 32.4412C16.3801 32.6312 16.3801 33.1612 16.1501 33.3512C15.2901 34.0712 13.2201 35.0112 9.91006 35.0112Z" fill="#FFC34A"/>
<path d="M17.3801 29.6211V32.4611C17.3801 34.1111 14.0301 35.4411 9.91005 35.4411C5.79005 35.4411 2.43005 34.1111 2.43005 32.4611V29.6211H17.3701H17.3801Z" fill="#FFB533"/>
<path d="M17.3799 29.6184C17.3799 30.8484 15.4799 31.9284 12.7799 32.3684C11.8899 32.5284 10.9199 32.6084 9.90994 32.6084C5.77994 32.6084 2.43994 31.2584 2.43994 29.6284C2.43994 27.9984 5.77994 26.6484 9.90994 26.6484C10.9999 26.6484 12.0499 26.7384 12.9799 26.9184C15.5799 27.3684 17.3899 28.4184 17.3899 29.6284L17.3799 29.6184Z" fill="#FFD56C"/>
<path d="M9.91006 31.7183C6.60006 31.7183 4.53006 30.7883 3.67006 30.0583C3.44006 29.8683 3.44006 29.3383 3.67006 29.1483C4.53006 28.4283 6.60006 27.4883 9.91006 27.4883C13.2201 27.4883 15.2901 28.4183 16.1501 29.1483C16.3801 29.3383 16.3801 29.8683 16.1501 30.0583C15.2901 30.7783 13.2201 31.7183 9.91006 31.7183Z" fill="#FFC34A"/>
<path d="M17.3801 26.1992V29.0392C17.3801 30.6892 14.0301 32.0192 9.91005 32.0192C5.79005 32.0192 2.43005 30.6892 2.43005 29.0392V26.1992H17.3701H17.3801Z" fill="#FFB533"/>
<path d="M17.3799 26.2005C17.3799 27.4305 15.4799 28.5105 12.7799 28.9505C11.8899 29.1105 10.9199 29.1905 9.90994 29.1905C5.77994 29.1905 2.43994 27.8405 2.43994 26.2105C2.43994 24.5805 5.77994 23.2305 9.90994 23.2305C10.9999 23.2305 12.0499 23.3205 12.9799 23.5005C15.5799 23.9505 17.3899 25.0005 17.3899 26.2105L17.3799 26.2005Z" fill="#FFD56C"/>
<path d="M9.91006 28.3081C6.60006 28.3081 4.53006 27.3781 3.67006 26.6481C3.44006 26.4581 3.44006 25.9281 3.67006 25.7381C4.53006 25.0181 6.60006 24.0781 9.91006 24.0781C13.2201 24.0781 15.2901 25.0081 16.1501 25.7381C16.3801 25.9281 16.3801 26.4581 16.1501 26.6481C15.2901 27.3681 13.2201 28.3081 9.91006 28.3081Z" fill="#FFC34A"/>
<path d="M17.3801 22.6914V25.5314C17.3801 27.1814 14.0301 28.5114 9.91005 28.5114C5.79005 28.5114 2.43005 27.1814 2.43005 25.5314V22.6914H17.3701H17.3801Z" fill="#FFB533"/>
<path d="M17.3799 22.7005C17.3799 23.9305 15.4799 25.0105 12.7799 25.4505C11.8899 25.6105 10.9199 25.6905 9.90994 25.6905C5.77994 25.6905 2.43994 24.3405 2.43994 22.7105C2.43994 21.0805 5.77994 19.7305 9.90994 19.7305C10.9999 19.7305 12.0499 19.8205 12.9799 20.0005C15.5799 20.4505 17.3899 21.5005 17.3899 22.7105L17.3799 22.7005Z" fill="#FFD56C"/>
<path d="M9.91006 24.8003C6.60006 24.8003 4.53006 23.8703 3.67006 23.1403C3.44006 22.9503 3.44006 22.4203 3.67006 22.2303C4.53006 21.5103 6.60006 20.5703 9.91006 20.5703C13.2201 20.5703 15.2901 21.5003 16.1501 22.2303C16.3801 22.4203 16.3801 22.9503 16.1501 23.1403C15.2901 23.8603 13.2201 24.8003 9.91006 24.8003Z" fill="#FFC34A"/>
<path d="M43.25 35.9414V38.7114C43.25 40.3214 39.98 41.6214 35.96 41.6214C31.94 41.6214 28.66 40.3214 28.66 38.7114V35.9414H43.25Z" fill="#FFB533"/>
<path d="M35.96 38.8512C39.9917 38.8512 43.26 37.5484 43.26 35.9412C43.26 34.3341 39.9917 33.0312 35.96 33.0312C31.9284 33.0312 28.66 34.3341 28.66 35.9412C28.66 37.5484 31.9284 38.8512 35.96 38.8512Z" fill="#FFD56C"/>
<path d="M35.9599 38.0011C32.7299 38.0011 30.7099 37.0911 29.8599 36.3811C29.6399 36.1911 29.6399 35.6811 29.8599 35.4911C30.6999 34.7811 32.7299 33.8711 35.9599 33.8711C39.1899 33.8711 41.2099 34.7811 42.0599 35.4911C42.2799 35.6811 42.2799 36.1911 42.0599 36.3811C41.2199 37.0911 39.1899 38.0011 35.9599 38.0011Z" fill="#FFC34A"/>
<path d="M43.25 32.7305V35.5005C43.25 37.1105 39.98 38.4105 35.96 38.4105C31.94 38.4105 28.66 37.1105 28.66 35.5005V32.7305H43.25Z" fill="#FFB533"/>
<path d="M35.96 35.6403C39.9917 35.6403 43.26 34.3375 43.26 32.7303C43.26 31.1232 39.9917 29.8203 35.96 29.8203C31.9284 29.8203 28.66 31.1232 28.66 32.7303C28.66 34.3375 31.9284 35.6403 35.96 35.6403Z" fill="#FFD56C"/>
<path d="M35.96 34.79C32.73 34.79 30.71 33.88 29.86 33.17C29.64 32.98 29.64 32.47 29.86 32.28C30.7 31.57 32.73 30.66 35.96 30.66C39.19 30.66 41.21 31.57 42.06 32.28C42.28 32.47 42.28 32.98 42.06 33.17C41.22 33.88 39.19 34.79 35.96 34.79Z" fill="#FFC34A"/>
<path d="M43.25 29.4805V32.2505C43.25 33.8605 39.98 35.1605 35.96 35.1605C31.94 35.1605 28.66 33.8605 28.66 32.2505V29.4805H43.25Z" fill="#FFB533"/>
<path d="M35.96 32.3903C39.9917 32.3903 43.26 31.0875 43.26 29.4803C43.26 27.8732 39.9917 26.5703 35.96 26.5703C31.9284 26.5703 28.66 27.8732 28.66 29.4803C28.66 31.0875 31.9284 32.3903 35.96 32.3903Z" fill="#FFD56C"/>
<path d="M35.96 31.54C32.73 31.54 30.71 30.63 29.86 29.92C29.64 29.73 29.64 29.22 29.86 29.03C30.7 28.32 32.73 27.41 35.96 27.41C39.19 27.41 41.21 28.32 42.06 29.03C42.28 29.22 42.28 29.73 42.06 29.92C41.22 30.63 39.19 31.54 35.96 31.54Z" fill="#FFC34A"/>
<path d="M43.25 26.2695V29.0395C43.25 30.6495 39.98 31.9495 35.96 31.9495C31.94 31.9495 28.66 30.6495 28.66 29.0395V26.2695H43.25Z" fill="#FFB533"/>
<path d="M43.25 26.2694C43.25 27.4694 41.39 28.5194 38.76 28.9494C37.89 29.0994 36.94 29.1794 35.95 29.1794C31.92 29.1794 28.65 27.8694 28.65 26.2694C28.65 24.6694 31.91 23.3594 35.95 23.3594C37.02 23.3594 38.04 23.4494 38.94 23.6194C41.48 24.0594 43.24 25.0894 43.24 26.2694H43.25Z" fill="#FFD56C"/>
<path d="M35.9599 28.3292C32.7299 28.3292 30.7099 27.4192 29.8599 26.7092C29.6399 26.5192 29.6399 26.0092 29.8599 25.8192C30.6999 25.1092 32.7299 24.1992 35.9599 24.1992C39.1899 24.1992 41.2099 25.1092 42.0599 25.8192C42.2799 26.0092 42.2799 26.5192 42.0599 26.7092C41.2199 27.4192 39.1899 28.3292 35.9599 28.3292Z" fill="#FFC34A"/>
<path d="M43.25 22.9297V25.6997C43.25 27.3097 39.98 28.6097 35.96 28.6097C31.94 28.6097 28.66 27.3097 28.66 25.6997V22.9297H43.25Z" fill="#FFB533"/>
<path d="M43.25 22.9295C43.25 24.1295 41.39 25.1795 38.76 25.6095C37.89 25.7595 36.94 25.8395 35.95 25.8395C31.92 25.8395 28.65 24.5295 28.65 22.9295C28.65 21.3295 31.91 20.0195 35.95 20.0195C37.02 20.0195 38.04 20.1095 38.94 20.2795C41.48 20.7195 43.24 21.7495 43.24 22.9295H43.25Z" fill="#FFD56C"/>
<path d="M35.9599 24.9894C32.7299 24.9894 30.7099 24.0794 29.8599 23.3694C29.6399 23.1794 29.6399 22.6694 29.8599 22.4794C30.6999 21.7694 32.7299 20.8594 35.9599 20.8594C39.1899 20.8594 41.2099 21.7694 42.0599 22.4794C42.2799 22.6694 42.2799 23.1794 42.0599 23.3694C41.2199 24.0794 39.1899 24.9894 35.9599 24.9894Z" fill="#FFC34A"/>
<path d="M43.25 19.5117V22.2817C43.25 23.8917 39.98 25.1917 35.96 25.1917C31.94 25.1917 28.66 23.8917 28.66 22.2817V19.5117H43.25Z" fill="#FFB533"/>
<path d="M43.25 19.5116C43.25 20.7116 41.39 21.7616 38.76 22.1916C37.89 22.3416 36.94 22.4216 35.95 22.4216C31.92 22.4216 28.65 21.1116 28.65 19.5116C28.65 17.9116 31.91 16.6016 35.95 16.6016C37.02 16.6016 38.04 16.6916 38.94 16.8616C41.48 17.3016 43.24 18.3316 43.24 19.5116H43.25Z" fill="#FFD56C"/>
<path d="M35.9599 21.5714C32.7299 21.5714 30.7099 20.6614 29.8599 19.9514C29.6399 19.7614 29.6399 19.2514 29.8599 19.0614C30.6999 18.3514 32.7299 17.4414 35.9599 17.4414C39.1899 17.4414 41.2099 18.3514 42.0599 19.0614C42.2799 19.2514 42.2799 19.7614 42.0599 19.9514C41.2199 20.6614 39.1899 21.5714 35.9599 21.5714Z" fill="#FFC34A"/>
<path opacity="0.2" d="M21.91 39.0087C20.33 39.0087 18.75 38.8087 17.39 38.4187C15.22 37.7987 13.64 36.6888 13.64 35.1088V32.3487C13.64 32.2687 13.64 32.1988 13.65 32.1288C13.64 32.0588 13.64 31.9788 13.64 31.9088V29.1488C13.64 29.0688 13.64 28.9888 13.65 28.9088C13.64 28.8288 13.64 28.7488 13.64 28.6688V25.9088C13.64 25.8388 13.64 25.7588 13.65 25.6888C13.64 25.6188 13.64 25.5487 13.64 25.4688L10.76 19.7188C12.69 19.8088 14.32 20.2888 14.64 20.3888V22.1388C14.64 22.2387 14.65 22.3288 14.67 22.4188C14.65 22.5188 14.63 22.6087 14.63 22.7087V25.4587C14.63 25.5387 14.64 25.6088 14.65 25.6788C14.64 25.7588 14.63 25.8288 14.63 25.8988V28.6588C14.63 28.7388 14.64 28.8188 14.66 28.8988C14.64 28.9788 14.63 29.0588 14.63 29.1388V31.8988C14.63 31.9688 14.64 32.0487 14.65 32.1187C14.64 32.1887 14.63 32.2588 14.63 32.3388V35.0987C14.63 36.0287 15.7 36.8487 17.38 37.3687C18.62 37.7687 20.19 37.9988 21.9 37.9988" fill="#232323"/>
<path d="M29.17 32.34V35.1C29.17 36.71 25.91 38.01 21.9 38.01C17.89 38.01 14.62 36.71 14.62 35.1V32.34H29.16H29.17Z" fill="#FFB533"/>
<path d="M21.9 35.2414C25.9151 35.2414 29.17 33.943 29.17 32.3414C29.17 30.7398 25.9151 29.4414 21.9 29.4414C17.8849 29.4414 14.63 30.7398 14.63 32.3414C14.63 33.943 17.8849 35.2414 21.9 35.2414Z" fill="#FFD56C"/>
<path d="M21.9 34.4008C18.68 34.4008 16.66 33.4908 15.82 32.7908C15.6 32.6108 15.6 32.0908 15.82 31.9108C16.66 31.2108 18.68 30.3008 21.9 30.3008C25.12 30.3008 27.14 31.2108 27.98 31.9108C28.2 32.0908 28.2 32.6108 27.98 32.7908C27.14 33.4908 25.12 34.4008 21.9 34.4008Z" fill="#FFC34A"/>
<path d="M29.17 29.1406V31.9006C29.17 33.5106 25.91 34.8106 21.9 34.8106C17.89 34.8106 14.62 33.5106 14.62 31.9006V29.1406H29.16H29.17Z" fill="#FFB533"/>
<path d="M21.9 32.0383C25.9151 32.0383 29.17 30.7399 29.17 29.1383C29.17 27.5367 25.9151 26.2383 21.9 26.2383C17.8849 26.2383 14.63 27.5367 14.63 29.1383C14.63 30.7399 17.8849 32.0383 21.9 32.0383Z" fill="#FFD56C"/>
<path d="M21.9 31.19C18.68 31.19 16.66 30.28 15.82 29.58C15.6 29.4 15.6 28.88 15.82 28.7C16.66 28 18.68 27.09 21.9 27.09C25.12 27.09 27.14 28 27.98 28.7C28.2 28.88 28.2 29.4 27.98 29.58C27.14 30.28 25.12 31.19 21.9 31.19Z" fill="#FFC34A"/>
<path d="M29.17 25.91V28.67C29.17 30.28 25.91 31.58 21.9 31.58C17.89 31.58 14.62 30.28 14.62 28.67V25.91H29.16H29.17Z" fill="#FFB533"/>
<path d="M21.9 28.8117C25.9151 28.8117 29.17 27.5133 29.17 25.9117C29.17 24.3101 25.9151 23.0117 21.9 23.0117C17.8849 23.0117 14.63 24.3101 14.63 25.9117C14.63 27.5133 17.8849 28.8117 21.9 28.8117Z" fill="#FFD56C"/>
<path d="M21.9 27.9594C18.68 27.9594 16.66 27.0494 15.82 26.3494C15.6 26.1694 15.6 25.6494 15.82 25.4694C16.66 24.7694 18.68 23.8594 21.9 23.8594C25.12 23.8594 27.14 24.7694 27.98 25.4694C28.2 25.6494 28.2 26.1694 27.98 26.3494C27.14 27.0494 25.12 27.9594 21.9 27.9594Z" fill="#FFC34A"/>
<path d="M29.17 22.7109V25.4709C29.17 27.0809 25.91 28.3809 21.9 28.3809C17.89 28.3809 14.62 27.0809 14.62 25.4709V22.7109H29.16H29.17Z" fill="#FFB533"/>
<path d="M29.18 22.7091C29.18 23.9091 27.33 24.9491 24.7 25.3791C23.83 25.5291 22.89 25.6091 21.9 25.6091C17.88 25.6091 14.63 24.2991 14.63 22.6991C14.63 21.0991 17.88 19.7891 21.9 19.7891C22.96 19.7891 23.98 19.8791 24.88 20.0491C27.41 20.4891 29.17 21.5091 29.17 22.6891L29.18 22.7091Z" fill="#FFD56C"/>
<path d="M21.9 24.76C18.68 24.76 16.66 23.85 15.82 23.15C15.6 22.97 15.6 22.45 15.82 22.27C16.66 21.57 18.68 20.66 21.9 20.66C25.12 20.66 27.14 21.57 27.98 22.27C28.2 22.45 28.2 22.97 27.98 23.15C27.14 23.85 25.12 24.76 21.9 24.76Z" fill="#FFC34A"/>
<path d="M29.17 19.3789V22.1389C29.17 23.7489 25.91 25.0489 21.9 25.0489C17.89 25.0489 14.62 23.7489 14.62 22.1389V19.3789H29.16H29.17Z" fill="#FFB533"/>
<path d="M29.18 19.3809C29.18 20.5809 27.33 21.6209 24.7 22.0509C23.83 22.2009 22.89 22.2809 21.9 22.2809C17.88 22.2809 14.63 20.9709 14.63 19.3709C14.63 17.7709 17.88 16.4609 21.9 16.4609C22.96 16.4609 23.98 16.5509 24.88 16.7209C27.41 17.1609 29.17 18.1809 29.17 19.3609L29.18 19.3809Z" fill="#FFD56C"/>
<path d="M21.9 21.4281C18.68 21.4281 16.66 20.5181 15.82 19.8181C15.6 19.6381 15.6 19.1181 15.82 18.9381C16.66 18.2381 18.68 17.3281 21.9 17.3281C25.12 17.3281 27.14 18.2381 27.98 18.9381C28.2 19.1181 28.2 19.6381 27.98 19.8181C27.14 20.5181 25.12 21.4281 21.9 21.4281Z" fill="#FFC34A"/>
<path d="M29.17 15.9688V18.7287C29.17 20.3387 25.91 21.6387 21.9 21.6387C17.89 21.6387 14.62 20.3387 14.62 18.7287V15.9688H29.16H29.17Z" fill="#FFB533"/>
<path d="M29.18 15.9708C29.18 17.1708 27.33 18.2108 24.7 18.6408C23.83 18.7908 22.89 18.8708 21.9 18.8708C17.88 18.8708 14.63 17.5608 14.63 15.9608C14.63 14.3608 17.88 13.0508 21.9 13.0508C22.96 13.0508 23.98 13.1408 24.88 13.3108C27.41 13.7508 29.17 14.7708 29.17 15.9508L29.18 15.9708Z" fill="#FFD56C"/>
<path d="M21.9 18.0219C18.68 18.0219 16.66 17.1119 15.82 16.4119C15.6 16.2319 15.6 15.7119 15.82 15.5319C16.66 14.8319 18.68 13.9219 21.9 13.9219C25.12 13.9219 27.14 14.8319 27.98 15.5319C28.2 15.7119 28.2 16.2319 27.98 16.4119C27.14 17.1119 25.12 18.0219 21.9 18.0219Z" fill="#FFC34A"/>
<path d="M37.97 44.0581C27.15 45.5981 19.03 53.8781 8.36002 53.8481C7.38002 53.8481 6.51002 52.9781 6.45002 52.0081C6.15002 47.3081 5.79002 42.6281 5.37002 37.9681C5.28002 36.9981 5.90002 36.2981 6.73002 36.3081C15.79 36.5081 23.02 30.4081 32.86 30.8381C33.77 30.8781 34.77 31.5481 35.08 32.2481C36.53 35.6281 37.93 39.0681 39.29 42.5681C39.57 43.2881 38.96 43.9281 37.96 44.0681L37.97 44.0581Z" fill="#4EA13F"/>
<path d="M33.93 33.4306C34.98 36.0406 36 38.6806 36.99 41.3606C36.01 41.4606 35.46 42.2206 35.72 42.9806C26.44 44.8006 19.06 51.2806 9.95999 52.0006C9.85999 51.0306 9.02999 50.3106 8.08999 50.3106C7.79999 46.7906 7.46999 43.2806 7.10999 39.7906C7.96999 39.7906 8.55999 38.9606 8.44999 38.0106C16.47 37.5606 23.18 32.5406 31.77 32.1406C32.05 32.8806 33 33.4206 33.93 33.4306Z" fill="#57B246"/>
<path d="M23.6901 40.4687C23.0901 38.1087 21.5901 36.5787 20.3601 37.0387C19.1301 37.4987 18.5601 39.8787 19.0501 42.3887C19.5401 44.9087 21.0101 46.4987 22.3401 45.8787C23.6701 45.2687 24.2901 42.8187 23.6901 40.4587V40.4687Z" fill="#4EA13F"/>
<path d="M31.24 37.9483C30.98 37.1783 30.05 36.6883 29.19 36.9083C28.33 37.1283 27.84 37.9983 28.08 38.8183C28.32 39.6383 29.21 40.0483 30.09 39.7883C30.97 39.5283 31.5 38.7183 31.24 37.9483Z" fill="#4EA13F"/>
<path d="M14.73 43.9289C14.58 42.9889 13.79 42.4289 12.96 42.6189C12.13 42.8189 11.55 43.7089 11.67 44.6689C11.79 45.6289 12.6 46.2789 13.46 46.0589C14.32 45.8389 14.88 44.8589 14.73 43.9189V43.9289Z" fill="#4EA13F"/>
<path d="M48.9599 34.6306C49.43 35.3906 49.2999 36.7206 48.57 37.4606C47.54 38.5006 46.3899 39.3106 45.16 39.9606C36.9 44.2606 24.7 41.2606 19.12 49.1906C18.52 50.0306 17.8799 49.9906 17.5699 48.9306C16.9799 46.9006 16.3999 44.9106 15.8199 42.9406C14.9399 39.9706 14.0799 37.0606 13.1999 34.1906C12.9099 33.2006 13.1199 31.9106 13.7499 31.4306C20.5399 26.1006 33.9399 31.5406 40.2599 24.0606C40.8399 23.3606 41.63 23.2506 42.11 23.9706C44.43 27.4706 46.7299 31.0306 48.97 34.6406L48.9599 34.6306Z" fill="#4EA13F"/>
<path d="M41.9599 26.6795C43.6499 29.3295 45.3099 32.0195 46.9499 34.7295C46.2599 35.4695 45.9899 36.5395 46.4199 37.2995C38.8899 43.0895 26.2799 39.5895 19.7399 46.0295C19.4499 45.0695 18.6499 44.7795 18.0399 45.5295C16.9699 41.9095 15.8899 38.3595 14.8199 34.8795C15.4399 34.3295 15.7699 33.2195 15.4799 32.3095C22.1299 28.2895 33.5599 31.9995 39.9799 26.5195C40.4299 27.2495 41.3499 27.3995 41.9599 26.6895V26.6795Z" fill="#57B246"/>
<path d="M33.0499 35.3684C32.0599 33.2384 30.0599 31.6284 28.5899 31.7184C27.1199 31.8084 26.6699 33.6784 27.5499 35.9284C28.4299 38.1684 30.3799 39.8184 31.9599 39.6184C33.5399 39.4284 34.0399 37.5084 33.0499 35.3684Z" fill="#4EA13F"/>
<path d="M41.09 33.2697C40.66 32.5197 39.68 32.2597 38.83 32.5797C37.99 32.8997 37.58 33.6997 37.98 34.4697C38.37 35.2297 39.44 35.6497 40.31 35.3197C41.19 34.9897 41.51 34.0297 41.09 33.2797V33.2697Z" fill="#4EA13F"/>
<path d="M22.6999 36.7486C22.3999 35.8986 21.4399 35.3586 20.6099 35.6286C19.7799 35.8986 19.3899 36.9186 19.6799 37.8186C19.9699 38.7286 20.8399 39.1286 21.6899 38.8086C22.5299 38.4886 23.0099 37.5986 22.7099 36.7486H22.6999Z" fill="#4EA13F"/>
<path d="M54.88 37.8193C55.37 38.5993 55.2299 39.9693 54.47 40.7393C53.41 41.8093 52.2199 42.6493 50.9599 43.3093C42.4599 47.7393 29.8899 44.6493 24.14 52.8093C23.53 53.6693 22.86 53.6293 22.54 52.5393C21.94 50.4493 21.34 48.3993 20.74 46.3693C19.84 43.3093 18.95 40.3093 18.04 37.3493C17.74 36.3293 17.95 34.9993 18.6 34.5093C25.59 29.0193 39.4 34.6193 45.91 26.9193C46.51 26.1993 47.32 26.0893 47.82 26.8293C50.2099 30.4293 52.58 34.0993 54.88 37.8193Z" fill="#4EA13F"/>
<path d="M47.66 29.6409C49.4 32.3709 51.12 35.1409 52.8 37.9309C52.09 38.6909 51.81 39.8009 52.26 40.5809C44.5 46.5409 31.52 42.9409 24.78 49.5709C24.48 48.5809 23.65 48.2809 23.03 49.0509C21.93 45.3209 20.82 41.6609 19.71 38.0809C20.35 37.5109 20.69 36.3809 20.39 35.4309C27.24 31.2909 39.01 35.1109 45.62 29.4609C46.08 30.2109 47.03 30.3709 47.66 29.6409Z" fill="#57B246"/>
<path d="M38.49 38.58C37.47 36.38 35.41 34.73 33.89 34.82C32.37 34.91 31.91 36.84 32.82 39.15C33.73 41.46 35.74 43.15 37.37 42.95C39 42.75 39.51 40.77 38.49 38.57V38.58Z" fill="#4EA13F"/>
<path d="M46.77 36.4186C46.33 35.6486 45.31 35.3786 44.44 35.7086C43.57 36.0386 43.16 36.8686 43.56 37.6486C43.96 38.4286 45.06 38.8686 45.96 38.5186C46.87 38.1786 47.2 37.1886 46.76 36.4186H46.77Z" fill="#4EA13F"/>
<path d="M27.83 40.0008C27.52 39.1208 26.53 38.5708 25.67 38.8508C24.81 39.1208 24.41 40.1708 24.71 41.1108C25.01 42.0508 25.91 42.4608 26.78 42.1308C27.65 41.8008 28.14 40.8808 27.83 40.0008Z" fill="#4EA13F"/>
</g>
</g>
<defs>
<clipPath id="clip0_17347_22083">
<rect width="48" height="48" fill="white"/>
</clipPath>
</defs>
</svg>
