<svg width="48" height="48" viewBox="0 0 48 48" fill="none" xmlns="http://www.w3.org/2000/svg">
<g clip-path="url(#clip0_17347_21652)">
<mask id="mask0_17347_21652" style="mask-type:luminance" maskUnits="userSpaceOnUse" x="0" y="0" width="48" height="48">
<path d="M48 24C48 24.22 48 24.44 47.98 24.66C47.64 37.6 37.03 48 24 48C10.97 48 0.36 37.6 0.02 24.66C0 24.44 0 24.22 0 24C0 10.74 10.74 0 24 0C37.26 0 48 10.74 48 24Z" fill="white"/>
</mask>
<g mask="url(#mask0_17347_21652)">
<path d="M48 24C48 24.22 48 24.44 47.98 24.66C47.64 37.6 37.03 48 24 48C10.97 48 0.36 37.6 0.02 24.66C0 24.44 0 24.22 0 24C0 10.74 10.74 0 24 0C37.26 0 48 10.74 48 24Z" fill="#B6C7ED"/>
<path d="M0 24.75H48" stroke="white" stroke-width="0.87" stroke-miterlimit="10"/>
<path opacity="0.2" d="M0 19.3789H48" stroke="white" stroke-width="0.87" stroke-miterlimit="10"/>
<path opacity="0.2" d="M0 14.0117H48" stroke="white" stroke-width="0.87" stroke-miterlimit="10"/>
<path opacity="0.2" d="M0 8.64062H48" stroke="white" stroke-width="0.87" stroke-miterlimit="10"/>
<path opacity="0.2" d="M0 3.26953H48" stroke="white" stroke-width="0.87" stroke-miterlimit="10"/>
<path opacity="0.2" d="M4.19 0V45.92" stroke="white" stroke-width="0.85" stroke-miterlimit="10"/>
<path opacity="0.2" d="M19.56 0V45.92" stroke="white" stroke-width="0.85" stroke-miterlimit="10"/>
<path opacity="0.2" d="M34.93 0V45.92" stroke="white" stroke-width="0.85" stroke-miterlimit="10"/>
<path d="M47.98 24.6609C47.64 37.6009 37.03 48.0009 24 48.0009C10.97 48.0009 0.36002 37.6009 0.0200195 24.6609C5.98002 21.7709 14.52 19.9609 24 19.9609C33.48 19.9609 42.02 21.7709 47.98 24.6609Z" fill="#EBEBF1"/>
<path d="M34.82 49.5397L7.23999 51.5397L3.23999 14.4297L30.82 12.4297L34.82 49.5397Z" fill="#2E5ACB"/>
<path d="M37.51 51.1608L9.91996 53.1608L6.95996 25.6508L14.49 15.4308H14.5L33.51 14.0508L37.51 51.1608Z" fill="#87A3E1"/>
<path d="M15.62 24.6197L6.95996 25.6497L14.49 15.4297H14.5L15.62 24.6197Z" fill="#597FD5"/>
<g opacity="0.2">
<path d="M29.6474 27.7063L11.5247 29.2695L11.6965 31.2621L29.8192 29.6989L29.6474 27.7063Z" fill="#232323"/>
</g>
<path d="M30.1496 26.7063L12.0269 28.2695L12.1987 30.2621L30.3214 28.6989L30.1496 26.7063Z" fill="#EBEBF1"/>
<g opacity="0.2">
<path d="M30.1602 32.9915L12.0375 34.5547L12.2094 36.5473L30.3321 34.9841L30.1602 32.9915Z" fill="#232323"/>
</g>
<path d="M30.6624 31.9954L12.5397 33.5586L12.7116 35.5512L30.8343 33.988L30.6624 31.9954Z" fill="#EBEBF1"/>
<g opacity="0.2">
<path d="M30.7112 38.0344L12.5885 39.5977L12.7604 41.5903L30.8831 40.027L30.7112 38.0344Z" fill="#232323"/>
</g>
<path d="M31.2134 37.0266L13.0907 38.5898L13.2626 40.5824L31.3853 39.0192L31.2134 37.0266Z" fill="#EBEBF1"/>
<g opacity="0.2">
<path d="M22.6219 44.123L13.177 44.9377L13.3489 46.9303L22.7938 46.1156L22.6219 44.123Z" fill="#232323"/>
</g>
<path d="M23.1241 43.1111L13.6792 43.9258L13.8511 45.9184L23.296 45.1037L23.1241 43.1111Z" fill="#EBEBF1"/>
<path d="M42.61 50.87C46.2606 50.87 49.22 49.688 49.22 48.23C49.22 46.772 46.2606 45.59 42.61 45.59C38.9594 45.59 36 46.772 36 48.23C36 49.688 38.9594 50.87 42.61 50.87Z" fill="#FFD56C"/>
<path d="M42.6099 50.0989C39.6799 50.0989 37.8499 49.2789 37.0899 48.6389C36.8899 48.4689 36.8899 47.9989 37.0899 47.8389C37.8499 47.1989 39.6899 46.3789 42.6099 46.3789C45.5299 46.3789 47.3699 47.1989 48.1299 47.8389C48.3299 48.0089 48.3299 48.4789 48.1299 48.6389C47.3699 49.2789 45.5299 50.0989 42.6099 50.0989Z" fill="#FFC34A"/>
<path d="M49.21 45.3281V47.8381C49.21 49.2981 46.25 50.4781 42.6 50.4781C38.95 50.4781 35.99 49.2981 35.99 47.8381V45.3281H49.21Z" fill="#FFB533"/>
<path d="M42.61 47.9714C46.2606 47.9714 49.22 46.7894 49.22 45.3314C49.22 43.8734 46.2606 42.6914 42.61 42.6914C38.9594 42.6914 36 43.8734 36 45.3314C36 46.7894 38.9594 47.9714 42.61 47.9714Z" fill="#FFD56C"/>
<path d="M42.6099 47.1887C39.6799 47.1887 37.8499 46.3687 37.0899 45.7287C36.8899 45.5587 36.8899 45.0887 37.0899 44.9287C37.8499 44.2887 39.6899 43.4688 42.6099 43.4688C45.5299 43.4688 47.3699 44.2887 48.1299 44.9287C48.3299 45.0987 48.3299 45.5687 48.1299 45.7287C47.3699 46.3687 45.5299 47.1887 42.6099 47.1887Z" fill="#FFC34A"/>
<path d="M49.21 42.3906V44.9006C49.21 46.3606 46.25 47.5406 42.6 47.5406C38.95 47.5406 35.99 46.3606 35.99 44.9006V42.3906H49.21Z" fill="#FFB533"/>
<path d="M42.61 45.03C46.2606 45.03 49.22 43.848 49.22 42.39C49.22 40.932 46.2606 39.75 42.61 39.75C38.9594 39.75 36 40.932 36 42.39C36 43.848 38.9594 45.03 42.61 45.03Z" fill="#FFD56C"/>
<path d="M42.6099 44.2513C39.6799 44.2513 37.8499 43.4313 37.0899 42.7913C36.8899 42.6213 36.8899 42.1513 37.0899 41.9913C37.8499 41.3513 39.6899 40.5312 42.6099 40.5312C45.5299 40.5312 47.3699 41.3513 48.1299 41.9913C48.3299 42.1613 48.3299 42.6313 48.1299 42.7913C47.3699 43.4313 45.5299 44.2513 42.6099 44.2513Z" fill="#FFC34A"/>
<path d="M49.21 39.4805V41.9905C49.21 43.4505 46.25 44.6305 42.6 44.6305C38.95 44.6305 35.99 43.4505 35.99 41.9905V39.4805H49.21Z" fill="#FFB533"/>
<path d="M49.21 39.48C49.21 40.57 47.53 41.52 45.14 41.91C44.35 42.05 43.49 42.12 42.6 42.12C38.95 42.12 35.99 40.93 35.99 39.48C35.99 38.03 38.95 36.84 42.6 36.84C43.57 36.84 44.49 36.92 45.31 37.08C47.61 37.48 49.21 38.41 49.21 39.48Z" fill="#FFD56C"/>
<path d="M42.6099 41.3411C39.6799 41.3411 37.8499 40.5211 37.0899 39.8811C36.8899 39.7111 36.8899 39.2411 37.0899 39.0811C37.8499 38.4411 39.6899 37.6211 42.6099 37.6211C45.5299 37.6211 47.3699 38.4411 48.1299 39.0811C48.3299 39.2511 48.3299 39.7211 48.1299 39.8811C47.3699 40.5211 45.5299 41.3411 42.6099 41.3411Z" fill="#FFC34A"/>
<path d="M49.21 36.4492V38.9592C49.21 40.4192 46.25 41.5992 42.6 41.5992C38.95 41.5992 35.99 40.4192 35.99 38.9592V36.4492H49.21Z" fill="#FFB533"/>
<path d="M49.21 36.4603C49.21 37.5503 47.53 38.5003 45.14 38.8903C44.35 39.0303 43.49 39.1003 42.6 39.1003C38.95 39.1003 35.99 37.9103 35.99 36.4603C35.99 35.0103 38.95 33.8203 42.6 33.8203C43.57 33.8203 44.49 33.9003 45.31 34.0603C47.61 34.4603 49.21 35.3903 49.21 36.4603Z" fill="#FFD56C"/>
<path d="M42.6099 38.3216C39.6799 38.3216 37.8499 37.5016 37.0899 36.8616C36.8899 36.6916 36.8899 36.2216 37.0899 36.0616C37.8499 35.4216 39.6899 34.6016 42.6099 34.6016C45.5299 34.6016 47.3699 35.4216 48.1299 36.0616C48.3299 36.2316 48.3299 36.7016 48.1299 36.8616C47.3699 37.5016 45.5299 38.3216 42.6099 38.3216Z" fill="#FFC34A"/>
<path d="M49.21 33.3516V35.8616C49.21 37.3216 46.25 38.5016 42.6 38.5016C38.95 38.5016 35.99 37.3216 35.99 35.8616V33.3516H49.21Z" fill="#FFB533"/>
<path d="M49.21 33.3588C49.21 34.4488 47.53 35.3988 45.14 35.7888C44.35 35.9288 43.49 35.9988 42.6 35.9988C38.95 35.9988 35.99 34.8088 35.99 33.3588C35.99 31.9088 38.95 30.7188 42.6 30.7188C43.57 30.7188 44.49 30.7987 45.31 30.9587C47.61 31.3587 49.21 32.2888 49.21 33.3588Z" fill="#FFD56C"/>
<path d="M42.61 35.22C39.68 35.22 37.85 34.4 37.09 33.76C36.89 33.59 36.89 33.12 37.09 32.96C37.85 32.32 39.69 31.5 42.61 31.5C45.53 31.5 47.37 32.32 48.13 32.96C48.33 33.13 48.33 33.6 48.13 33.76C47.37 34.4 45.53 35.22 42.61 35.22Z" fill="#FFC34A"/>
<path opacity="0.2" d="M41.91 33.8603C41.91 33.9603 41.91 34.0503 41.9 34.1503C41.91 34.2303 41.91 34.3203 41.91 34.4103V36.7403C41.91 36.8203 41.91 36.9003 41.9 36.9903C41.91 37.0603 41.91 37.1303 41.91 37.2103V47.6503C41.91 49.9703 39.47 51.2903 36.51 51.7503C36.34 51.6003 36.22 51.4303 36.13 51.2603L30.77 51.6503C30.77 51.6503 30.74 51.6503 30.73 51.6503L37.51 51.1603L35.05 28.3203C35.61 28.3603 36.15 28.4203 36.65 28.5103C38.91 28.9103 40.48 29.8103 40.54 30.8603C40.94 30.8003 41.36 30.7703 41.79 30.7503C41.87 31.0003 41.91 31.2703 41.91 31.5503V33.8703V33.8603Z" fill="#232323"/>
<path d="M40.5399 45.7812V48.2913C40.5399 49.7513 37.5799 50.9313 33.9299 50.9313C30.2799 50.9313 27.3199 49.7513 27.3199 48.2913V45.7812H40.5399Z" fill="#FFB533"/>
<path d="M33.9299 48.4206C37.5805 48.4206 40.5399 47.2387 40.5399 45.7806C40.5399 44.3226 37.5805 43.1406 33.9299 43.1406C30.2793 43.1406 27.3199 44.3226 27.3199 45.7806C27.3199 47.2387 30.2793 48.4206 33.9299 48.4206Z" fill="#FFD56C"/>
<path d="M33.93 47.6497C31 47.6497 29.17 46.8297 28.41 46.1897C28.21 46.0197 28.21 45.5497 28.41 45.3897C29.17 44.7497 31.01 43.9297 33.93 43.9297C36.85 43.9297 38.69 44.7497 39.45 45.3897C39.65 45.5597 39.65 46.0297 39.45 46.1897C38.69 46.8297 36.85 47.6497 33.93 47.6497Z" fill="#FFC34A"/>
<path d="M40.5399 42.8711V45.3811C40.5399 46.8411 37.5799 48.0211 33.9299 48.0211C30.2799 48.0211 27.3199 46.8411 27.3199 45.3811V42.8711H40.5399Z" fill="#FFB533"/>
<path d="M33.9299 45.5105C37.5805 45.5105 40.5399 44.3285 40.5399 42.8705C40.5399 41.4124 37.5805 40.2305 33.9299 40.2305C30.2793 40.2305 27.3199 41.4124 27.3199 42.8705C27.3199 44.3285 30.2793 45.5105 33.9299 45.5105Z" fill="#FFD56C"/>
<path d="M33.93 44.7395C31 44.7395 29.17 43.9195 28.41 43.2795C28.21 43.1095 28.21 42.6395 28.41 42.4795C29.17 41.8395 31.01 41.0195 33.93 41.0195C36.85 41.0195 38.69 41.8395 39.45 42.4795C39.65 42.6495 39.65 43.1195 39.45 43.2795C38.69 43.9195 36.85 44.7395 33.93 44.7395Z" fill="#FFC34A"/>
<path d="M40.5399 39.9297V42.4397C40.5399 43.8997 37.5799 45.0797 33.9299 45.0797C30.2799 45.0797 27.3199 43.8997 27.3199 42.4397V39.9297H40.5399Z" fill="#FFB533"/>
<path d="M33.9299 42.5691C37.5805 42.5691 40.5399 41.3871 40.5399 39.9291C40.5399 38.471 37.5805 37.2891 33.9299 37.2891C30.2793 37.2891 27.3199 38.471 27.3199 39.9291C27.3199 41.3871 30.2793 42.5691 33.9299 42.5691Z" fill="#FFD56C"/>
<path d="M33.93 41.7981C31 41.7981 29.17 40.9781 28.41 40.3381C28.21 40.1681 28.21 39.6981 28.41 39.5381C29.17 38.8981 31.01 38.0781 33.93 38.0781C36.85 38.0781 38.69 38.8981 39.45 39.5381C39.65 39.7081 39.65 40.1781 39.45 40.3381C38.69 40.9781 36.85 41.7981 33.93 41.7981Z" fill="#FFC34A"/>
<path d="M40.5399 37.0195V39.5295C40.5399 40.9895 37.5799 42.1695 33.9299 42.1695C30.2799 42.1695 27.3199 40.9895 27.3199 39.5295V37.0195H40.5399Z" fill="#FFB533"/>
<path d="M40.5399 37.0306C40.5399 38.1206 38.8599 39.0706 36.4699 39.4606C35.6799 39.6006 34.8199 39.6706 33.9299 39.6706C30.2799 39.6706 27.3199 38.4806 27.3199 37.0306C27.3199 35.5806 30.2799 34.3906 33.9299 34.3906C34.8999 34.3906 35.8199 34.4706 36.6399 34.6306C38.9399 35.0306 40.5399 35.9606 40.5399 37.0306Z" fill="#FFD56C"/>
<path d="M33.93 38.8919C31 38.8919 29.17 38.0719 28.41 37.4319C28.21 37.2619 28.21 36.7919 28.41 36.6319C29.17 35.9919 31.01 35.1719 33.93 35.1719C36.85 35.1719 38.69 35.9919 39.45 36.6319C39.65 36.8019 39.65 37.2719 39.45 37.4319C38.69 38.0719 36.85 38.8919 33.93 38.8919Z" fill="#FFC34A"/>
<path d="M40.54 34V36.51C40.54 37.97 37.58 39.15 33.93 39.15C30.28 39.15 27.32 37.97 27.32 36.51V34H40.54Z" fill="#FFB533"/>
<path d="M40.5399 33.9994C40.5399 35.0894 38.8599 36.0394 36.4699 36.4294C35.6799 36.5694 34.8199 36.6394 33.9299 36.6394C30.2799 36.6394 27.3199 35.4494 27.3199 33.9994C27.3199 32.5494 30.2799 31.3594 33.9299 31.3594C34.8999 31.3594 35.8199 31.4394 36.6399 31.5994C38.9399 31.9994 40.5399 32.9294 40.5399 33.9994Z" fill="#FFD56C"/>
<path d="M33.93 35.8606C31 35.8606 29.17 35.0406 28.41 34.4006C28.21 34.2306 28.21 33.7606 28.41 33.6006C29.17 32.9606 31.01 32.1406 33.93 32.1406C36.85 32.1406 38.69 32.9606 39.45 33.6006C39.65 33.7706 39.65 34.2406 39.45 34.4006C38.69 35.0406 36.85 35.8606 33.93 35.8606Z" fill="#FFC34A"/>
<path d="M40.5399 30.8984V33.4084C40.5399 34.8684 37.5799 36.0484 33.9299 36.0484C30.2799 36.0484 27.3199 34.8684 27.3199 33.4084V30.8984H40.5399Z" fill="#FFB533"/>
<path d="M40.5399 30.9017C40.5399 31.9917 38.8599 32.9417 36.4699 33.3317C35.6799 33.4717 34.8199 33.5417 33.9299 33.5417C30.2799 33.5417 27.3199 32.3517 27.3199 30.9017C27.3199 29.4517 30.2799 28.2617 33.9299 28.2617C34.8999 28.2617 35.8199 28.3417 36.6399 28.5017C38.9399 28.9017 40.5399 29.8317 40.5399 30.9017Z" fill="#FFD56C"/>
<path d="M33.93 32.7708C31 32.7708 29.17 31.9508 28.41 31.3108C28.21 31.1408 28.21 30.6708 28.41 30.5108C29.17 29.8708 31.01 29.0508 33.93 29.0508C36.85 29.0508 38.69 29.8708 39.45 30.5108C39.65 30.6808 39.65 31.1508 39.45 31.3108C38.69 31.9508 36.85 32.7708 33.93 32.7708Z" fill="#FFC34A"/>
</g>
</g>
<defs>
<clipPath id="clip0_17347_21652">
<rect width="48" height="48" fill="white"/>
</clipPath>
</defs>
</svg>
