<svg width="352" height="198" viewBox="0 0 352 198" fill="none" xmlns="http://www.w3.org/2000/svg">
<g clip-path="url(#clip0_21506_17569)">
<mask id="mask0_21506_17569" style="mask-type:luminance" maskUnits="userSpaceOnUse" x="21" y="0" width="310" height="198">
<path d="M331 0H21V198H331V0Z" fill="white"/>
</mask>
<g mask="url(#mask0_21506_17569)">
<path d="M38.4557 24.3337C43.4752 17.2579 47.7749 12.1661 70.1373 8.70411C105.562 3.21757 258.067 3.46052 286.476 10.3541C302.888 14.3425 318.57 14.9296 320.24 43.8706C321.555 66.5861 323.993 128.274 318.158 142.345C312.322 156.416 307.735 170.476 280.641 171.721C253.547 172.966 101.406 175.861 76.3949 174.616C51.3836 173.371 38.4653 162.621 33.465 150.2C28.4646 137.79 30.5473 71.1717 30.5473 71.1717C30.5473 71.1717 30.5953 35.4282 38.4653 24.3236L38.4557 24.3337Z" fill="#EBEBF2"/>
<path d="M38.4557 24.3337C43.4752 17.2579 47.7749 12.1661 70.1373 8.70411C105.562 3.21757 258.067 3.46052 286.476 10.3541C302.888 14.3425 318.57 14.9296 320.24 43.8706C321.555 66.5861 323.993 128.274 318.158 142.345C312.322 156.416 307.735 170.476 280.641 171.721C253.547 172.966 101.406 175.861 76.3949 174.616C51.3836 173.371 38.4653 162.621 33.465 150.2C28.4646 137.79 30.5473 71.1717 30.5473 71.1717C30.5473 71.1717 30.5953 35.4282 38.4653 24.3236L38.4557 24.3337Z" fill="#EBEBF2"/>
<mask id="mask1_21506_17569" style="mask-type:luminance" maskUnits="userSpaceOnUse" x="30" y="4" width="292" height="171">
<path d="M38.4557 24.3337C43.4752 17.2579 47.7749 12.1661 70.1373 8.70411C105.562 3.21757 258.067 3.46052 286.476 10.3541C302.888 14.3425 318.57 14.9296 320.24 43.8706C321.555 66.5861 323.993 128.274 318.158 142.345C312.322 156.416 307.735 170.476 280.641 171.721C253.547 172.966 101.406 175.861 76.3949 174.616C51.3836 173.371 38.4653 162.621 33.465 150.2C28.4646 137.79 30.5473 71.1717 30.5473 71.1717C30.5473 71.1717 30.5953 35.4282 38.4653 24.3236L38.4557 24.3337Z" fill="white"/>
</mask>
<g mask="url(#mask1_21506_17569)">
<path fill-rule="evenodd" clip-rule="evenodd" d="M231.063 124.878C230.51 136.853 229.048 139.882 218.92 146.706H263.817C253.69 139.882 252.228 136.853 251.676 124.878L241.369 123.904L231.063 124.878Z" fill="#0049CD"/>
<path d="M252.018 126.23H230.706V130.025H252.018V126.23Z" fill="#00338F"/>
<path fill-rule="evenodd" clip-rule="evenodd" d="M303.065 38.374V122.554C303.065 125.135 300.968 127.231 298.385 127.231H184.353C181.77 127.231 179.673 125.135 179.673 122.554V38.374C179.673 35.7929 181.77 33.6973 184.353 33.6973H298.385C300.968 33.6973 303.065 35.7929 303.065 38.374Z" fill="#0049CD"/>
<path fill-rule="evenodd" clip-rule="evenodd" d="M299.113 40.8694V103.731C299.113 105.659 297.547 107.224 295.618 107.224H187.118C185.189 107.224 183.623 105.659 183.623 103.731V40.8694C183.623 38.9419 185.189 37.377 187.118 37.377H295.618C297.547 37.377 299.113 38.9419 299.113 40.8694Z" fill="white"/>
<path d="M241.369 117.861C243.058 117.861 244.428 116.493 244.428 114.805C244.428 113.117 243.058 111.748 241.369 111.748C239.679 111.748 238.31 113.117 238.31 114.805C238.31 116.493 239.679 117.861 241.369 117.861Z" fill="white"/>
<path d="M251.954 67.1701H247.005V57.3759C247.005 54.2707 244.476 51.7445 241.368 51.7445C238.261 51.7445 235.732 54.2707 235.732 57.3759V67.1701H230.782V57.3759C230.782 51.5434 235.531 46.7986 241.368 46.7986C247.205 46.7986 251.954 51.5434 251.954 57.3759V67.1701Z" fill="#B2C8F0"/>
<path d="M236.582 54.4051C237.476 52.9724 238.996 51.9679 240.756 51.7771C240.758 51.7771 240.761 51.7775 240.763 51.7779C239 51.9671 237.478 52.9711 236.582 54.4051Z" fill="#99B5F0"/>
<path d="M235.736 57.1564C235.776 56.1499 236.08 55.2105 236.582 54.406C236.08 55.2101 235.776 56.1499 235.736 57.1564Z" fill="#8DA8F5"/>
<path d="M251.652 84.6784H231.085C229.197 84.6784 227.666 83.1488 227.666 81.2619V67.1169C227.666 65.2305 229.197 63.7009 231.085 63.7009H251.652C253.54 63.7009 255.071 65.2305 255.071 67.1169V81.2619C255.071 83.1488 253.54 84.6784 251.652 84.6784Z" fill="#FFC107"/>
<path d="M244.44 71.5476C244.44 69.8524 243.065 68.4783 241.369 68.4783C239.672 68.4783 238.297 69.8524 238.297 71.5476C238.297 72.6432 238.875 73.5973 239.739 74.1406V79.3144C239.739 80.2134 240.469 80.9425 241.369 80.9425C242.268 80.9425 242.998 80.2134 242.998 79.3144V74.1406C243.862 73.5973 244.44 72.6432 244.44 71.5476Z" fill="#00163E"/>
<path d="M256.481 100.285H226.256C223.272 100.285 220.854 97.8686 220.854 94.887C220.854 91.905 223.272 89.488 226.256 89.488H256.481C259.465 89.488 261.884 91.905 261.884 94.887C261.884 97.8686 259.465 100.285 256.481 100.285Z" fill="#0049CD"/>
<path d="M227.345 97.3837L227.549 95.4713L226.013 96.6608L225.472 95.7145L227.163 94.8634L225.432 94.0592L225.979 93.1199L227.542 94.255L227.345 92.3904H228.427L228.265 94.2352L229.794 93.0725L230.341 94.0118L228.603 94.8634L230.341 95.7619L229.794 96.7082L228.265 95.5055L228.427 97.3837H227.345Z" fill="#FFC107"/>
<path d="M236.333 97.3837L236.537 95.4713L235.002 96.6608L234.461 95.7145L236.151 94.8634L234.42 94.0592L234.968 93.1199L236.53 94.255L236.333 92.3904H237.415L237.253 94.2352L238.782 93.0725L239.329 94.0118L237.592 94.8634L239.329 95.7619L238.782 96.7082L237.253 95.5055L237.415 97.3837H236.333Z" fill="#FFC107"/>
<path d="M245.322 97.3837L245.525 95.4713L243.99 96.6608L243.449 95.7145L245.139 94.8634L243.408 94.0592L243.956 93.1199L245.518 94.255L245.322 92.3904H246.404L246.242 94.2352L247.77 93.0725L248.318 94.0118L246.58 94.8634L248.318 95.7619L247.77 96.7082L246.242 95.5055L246.404 97.3837H245.322Z" fill="#FFC107"/>
<path d="M254.309 97.3837L254.512 95.4713L252.977 96.6608L252.436 95.7145L254.127 94.8634L252.396 94.0592L252.943 93.1199L254.505 94.255L254.309 92.3904H255.391L255.229 94.2352L256.757 93.0725L257.305 94.0118L255.567 94.8634L257.305 95.7619L256.757 96.7082L255.229 95.5055L255.391 97.3837H254.309Z" fill="#FFC107"/>
<path d="M211.694 68.8902C205.316 68.8902 200.145 63.7237 200.145 57.3504C200.145 50.9771 205.316 45.8105 211.694 45.8105C218.073 45.8105 223.243 50.9771 223.243 57.3504C223.243 63.7237 218.073 68.8902 211.694 68.8902Z" fill="#21B531"/>
<path d="M211.694 68.8902C205.316 68.8902 200.145 63.7237 200.145 57.3504C200.145 50.9771 205.316 45.8105 211.694 45.8105C218.073 45.8105 223.243 50.9771 223.243 57.3504C223.243 63.7237 218.073 68.8902 211.694 68.8902Z" fill="#21B531"/>
<path d="M206.479 58.2934L210.026 62.7745L217.132 53.801" stroke="white" stroke-width="1.9711" stroke-miterlimit="1.5" stroke-linecap="round" stroke-linejoin="round"/>
<path d="M267.728 85.6902C264.371 85.6902 261.65 82.9709 261.65 79.6166C261.65 76.2622 264.371 73.543 267.728 73.543C271.085 73.543 273.807 76.2622 273.807 79.6166C273.807 82.9709 271.085 85.6902 267.728 85.6902Z" fill="#21B531"/>
<path d="M267.728 85.6902C264.371 85.6902 261.65 82.9709 261.65 79.6166C261.65 76.2622 264.371 73.543 267.728 73.543C271.085 73.543 273.807 76.2622 273.807 79.6166C273.807 82.9709 271.085 85.6902 267.728 85.6902Z" fill="#21B531"/>
<path d="M264.983 80.1124L266.851 82.4709L270.59 77.748" stroke="white" stroke-width="1.31839" stroke-miterlimit="1.5" stroke-linecap="round" stroke-linejoin="round"/>
<path fill-rule="evenodd" clip-rule="evenodd" d="M210.683 76.7441L211.671 79.781L213.573 78.8426L213.268 80.941H216.464L213.879 82.8178L215.36 84.3362L213.268 84.6945L214.256 87.7313L211.671 85.8546L210.683 87.7313L209.695 85.8546L207.11 87.7313L208.098 84.6945L206.006 84.3362L207.487 82.8178L204.902 80.941H208.098L207.793 78.8426L209.695 79.781L210.683 76.7441Z" fill="#FFD451"/>
<path fill-rule="evenodd" clip-rule="evenodd" d="M271.773 47.377L273.155 51.6285L275.819 50.3148L275.391 53.2526H279.865L276.247 55.88L278.321 58.0058L275.391 58.5075L276.774 62.759L273.155 60.1316L271.773 62.759L270.39 60.1316L266.771 62.759L268.154 58.5075L265.224 58.0058L267.298 55.88L263.68 53.2526H268.154L267.726 50.3148L270.39 51.6285L271.773 47.377Z" fill="#FFD451"/>
<path d="M293.738 153.055H188.998V181.088H293.738V153.055Z" fill="#21B531"/>
<path fill-rule="evenodd" clip-rule="evenodd" d="M303.09 148.604C303.09 151.183 300.995 153.276 298.415 153.276H184.322C181.742 153.276 179.646 151.183 179.646 148.604C179.646 146.025 181.742 143.932 184.322 143.932H298.415C300.995 143.932 303.09 146.025 303.09 148.604Z" fill="#21B531"/>
<path d="M196.041 153.275H286.695" stroke="#115B19" stroke-width="2.00008" stroke-miterlimit="1.5" stroke-linecap="round" stroke-linejoin="round"/>
</g>
<path d="M83.7782 107.955C85.9226 106.521 100.797 97.3902 100.797 97.3902L111.556 96.3805C111.556 96.3805 125.086 101.155 127.46 102.164C129.834 103.174 133.596 184.402 133.596 184.402L94.8176 188.041C94.8176 188.041 81.3256 109.92 83.47 108.486" fill="#FFC7A1"/>
<path fill-rule="evenodd" clip-rule="evenodd" d="M89.6886 169.873L87.3877 198.001H140.748L135.884 169.873H89.6886Z" fill="#21B531"/>
<path d="M118.737 198.001V192.363L122.22 190.479" stroke="#115B19" stroke-width="2.09" stroke-miterlimit="1.5" stroke-linecap="round" stroke-linejoin="round"/>
<path d="M103.521 102.99L108.74 103.806C110.726 104.115 112.588 102.759 112.897 100.774L114.761 88.8303C115.072 86.8458 113.714 84.9861 111.728 84.6756L106.509 83.8598C104.523 83.5505 102.662 84.9074 102.353 86.8918L100.487 98.8358C100.178 100.82 101.536 102.68 103.521 102.99Z" fill="#FFC7A1"/>
<path d="M102.354 86.892C102.664 84.9075 104.525 83.5507 106.51 83.86L111.73 84.6757C113.715 84.9863 115.075 86.8459 114.764 88.8305L113.615 96.1941C109.081 96.914 104.486 95.4296 101.334 93.424L102.354 86.892Z" fill="#EA989D"/>
<path d="M130.496 124.071C129.379 115.41 139.894 116.522 140.552 116.785C144.049 118.181 149.027 124.786 159.542 134.948C159.542 134.948 164.398 142.889 150.409 143.257C150.409 143.257 130.972 127.762 130.496 124.071Z" fill="#FFC7A1"/>
<path d="M122.649 102.163C122.649 102.163 128.352 100.555 130.436 101.087C137.803 102.967 154.746 124.89 154.746 124.89C154.746 124.89 147.651 137.482 139.412 139.711L124.669 126.317C124.669 126.317 118.376 107.227 122.649 102.163Z" fill="#0049CD"/>
<path d="M113.554 96.3943C113.554 96.3943 110.024 101.824 109.921 107.735L114.63 142.652L120.7 182.386C120.7 182.386 140.704 179.53 139.34 172.868C136.839 160.656 134.298 154.308 134.022 143.432C133.408 119.264 131.375 101.191 131.375 101.191C131.375 101.191 128.773 99.5662 115.408 97.4122" fill="#0049CD"/>
<path d="M137.871 161.964C137.948 162.509 137.568 163.014 137.022 163.091C136.477 163.168 135.972 162.788 135.895 162.242L136.883 162.103L137.871 161.964ZM133.691 143.493L134.689 143.454L134.689 143.454L133.691 143.493ZM129.528 117.884C129.39 117.35 129.711 116.806 130.245 116.669C130.779 116.531 131.323 116.852 131.46 117.386L130.494 117.635L129.528 117.884ZM136.883 162.103L135.895 162.242C135.383 158.617 134.643 155.278 133.996 152.163C133.354 149.071 132.797 146.175 132.694 143.532L133.691 143.493L134.689 143.454C134.784 145.909 135.305 148.651 135.95 151.757C136.59 154.84 137.347 158.258 137.871 161.964L136.883 162.103ZM133.691 143.493L132.694 143.532C132.423 136.571 131.493 125.509 129.528 117.884L130.494 117.635L131.46 117.386C133.48 125.224 134.416 136.458 134.689 143.454L133.691 143.493Z" fill="#00338F"/>
<path d="M99.6483 96.5267C99.6483 96.5267 110.031 107.455 109.882 107.397L118.873 158.683C118.873 158.683 121.258 182.241 120.695 182.389C103.641 186.851 85.4382 179.448 85.4382 179.448C85.4382 179.448 87.7425 158.835 87.3929 151.111C86.3006 127.011 82.1835 99.3374 82.1835 99.3374" fill="#0049CD"/>
<path d="M110.922 107.854C110.783 107.319 110.237 106.999 109.703 107.139C109.169 107.278 108.848 107.824 108.988 108.358L109.955 108.106L110.922 107.854ZM115.035 131.657L114.043 131.776L114.043 131.776L115.035 131.657ZM119.829 179.355C119.896 179.903 120.394 180.293 120.942 180.226C121.49 180.159 121.88 179.661 121.814 179.113L120.821 179.234L119.829 179.355ZM109.955 108.106C108.988 108.358 108.988 108.358 108.988 108.358C108.988 108.358 108.988 108.358 108.988 108.359C108.988 108.359 108.988 108.36 108.989 108.361C108.989 108.362 108.99 108.365 108.991 108.369C108.993 108.377 108.996 108.388 109 108.403C109.007 108.433 109.019 108.478 109.034 108.537C109.065 108.655 109.11 108.83 109.168 109.054C109.283 109.504 109.449 110.156 109.651 110.961C110.054 112.573 110.602 114.8 111.179 117.263C112.335 122.206 113.593 128.044 114.043 131.776L115.035 131.657L116.028 131.537C115.563 127.681 114.28 121.743 113.125 116.808C112.546 114.332 111.995 112.094 111.59 110.476C111.387 109.666 111.22 109.011 111.104 108.558C111.046 108.332 111.001 108.156 110.97 108.037C110.954 107.977 110.942 107.931 110.935 107.901C110.931 107.885 110.927 107.873 110.925 107.866C110.924 107.862 110.924 107.859 110.923 107.857C110.923 107.856 110.923 107.855 110.922 107.854C110.922 107.854 110.922 107.854 110.922 107.854C110.922 107.854 110.922 107.854 109.955 108.106ZM115.035 131.657L114.043 131.776C114.624 136.598 116.071 148.493 117.372 159.182C118.023 164.526 118.637 169.569 119.089 173.277C119.314 175.13 119.499 176.65 119.628 177.706C119.693 178.234 119.743 178.646 119.777 178.926C119.794 179.066 119.807 179.173 119.816 179.246C119.82 179.282 119.824 179.309 119.826 179.327C119.827 179.336 119.828 179.343 119.828 179.348C119.829 179.35 119.829 179.352 119.829 179.353C119.829 179.353 119.829 179.354 119.829 179.354C119.829 179.355 119.829 179.355 120.821 179.234C121.814 179.113 121.814 179.113 121.814 179.113C121.813 179.112 121.813 179.112 121.813 179.111C121.813 179.11 121.813 179.109 121.813 179.106C121.812 179.102 121.811 179.095 121.81 179.086C121.808 179.067 121.805 179.04 121.8 179.004C121.792 178.932 121.778 178.825 121.761 178.685C121.727 178.405 121.677 177.992 121.613 177.464C121.484 176.408 121.299 174.889 121.073 173.035C120.621 169.328 120.007 164.285 119.357 158.94C118.055 148.251 116.609 136.357 116.028 131.537L115.035 131.657Z" fill="#00338F"/>
<path d="M100.164 97.0876C100.456 96.619 100.312 96.0026 99.8436 95.7107C99.375 95.4188 98.7585 95.562 98.4668 96.0306L99.3153 96.5591L100.164 97.0876ZM99.6028 112.344L98.6559 112.664C98.7732 113.011 99.0713 113.266 99.4326 113.329C99.7938 113.391 100.16 113.251 100.387 112.964L99.6028 112.344ZM105.576 106.121L106.054 106.999L106.054 106.999L105.576 106.121ZM109.176 109.24C109.481 109.7 110.102 109.826 110.562 109.521C111.022 109.215 111.147 108.595 110.842 108.135L110.009 108.688L109.176 109.24ZM99.3153 96.5591C98.4668 96.0306 98.4664 96.0312 98.466 96.0318C98.4659 96.032 98.4655 96.0327 98.4652 96.0331C98.4646 96.0341 98.464 96.0351 98.4633 96.0362C98.462 96.0384 98.4604 96.0409 98.4587 96.0437C98.4552 96.0494 98.451 96.0564 98.4461 96.0647C98.4362 96.0814 98.4235 96.1033 98.4082 96.1304C98.3777 96.1848 98.3369 96.2601 98.2885 96.3565C98.1916 96.5493 98.064 96.8263 97.926 97.1875C97.6498 97.9103 97.3323 98.9686 97.1347 100.362C96.7388 103.153 96.8287 107.257 98.6559 112.664L99.6028 112.344L100.55 112.024C98.8179 106.9 98.7641 103.111 99.1141 100.643C99.2895 99.4063 99.5675 98.4929 99.7935 97.9015C99.9066 97.6056 100.007 97.3899 100.075 97.2543C100.109 97.1865 100.135 97.1387 100.151 97.1109C100.159 97.097 100.164 97.0881 100.166 97.0842C100.167 97.0823 100.168 97.0816 100.167 97.0821C100.167 97.0824 100.167 97.083 100.166 97.0839C100.166 97.0844 100.166 97.0849 100.165 97.0855C100.165 97.0858 100.165 97.0863 100.165 97.0865C100.164 97.087 100.164 97.0876 99.3153 96.5591ZM99.6028 112.344C100.387 112.964 100.387 112.964 100.387 112.964C100.387 112.964 100.387 112.964 100.387 112.964C100.388 112.963 100.388 112.963 100.388 112.963C100.388 112.963 100.389 112.962 100.39 112.961C100.392 112.958 100.394 112.955 100.398 112.95C100.405 112.941 100.417 112.927 100.432 112.908C100.461 112.871 100.505 112.815 100.562 112.745C100.677 112.603 100.842 112.398 101.047 112.149C101.457 111.65 102.022 110.977 102.642 110.273C103.265 109.568 103.935 108.842 104.557 108.236C105.2 107.608 105.721 107.18 106.054 106.999L105.576 106.121L105.098 105.243C104.502 105.567 103.812 106.17 103.161 106.804C102.489 107.46 101.782 108.226 101.143 108.95C100.503 109.676 99.9224 110.369 99.5027 110.879C99.2927 111.134 99.1223 111.345 99.0041 111.492C98.945 111.565 98.899 111.623 98.8675 111.663C98.8517 111.682 98.8396 111.698 98.8313 111.708C98.8272 111.713 98.824 111.717 98.8218 111.72C98.8207 111.721 98.8199 111.722 98.8193 111.723C98.819 111.724 98.8188 111.724 98.8186 111.724C98.8185 111.724 98.8184 111.724 98.8184 111.724C98.8183 111.724 98.8182 111.725 99.6028 112.344ZM105.576 106.121L106.054 106.999C106.314 106.857 106.52 106.834 106.702 106.86C106.899 106.887 107.137 106.984 107.419 107.189C108.005 107.614 108.593 108.361 109.176 109.24L110.009 108.688L110.842 108.135C110.244 107.235 109.49 106.222 108.592 105.571C108.132 105.237 107.592 104.966 106.979 104.88C106.35 104.792 105.713 104.908 105.098 105.243L105.576 106.121Z" fill="#00338F"/>
<path d="M113.892 97.1299C113.438 96.8154 113.325 96.1926 113.639 95.739C113.954 95.2853 114.577 95.1725 115.03 95.487L114.461 96.3084L113.892 97.1299ZM119.221 110.501L120.22 110.505C120.219 110.933 119.945 111.312 119.539 111.449C119.133 111.585 118.686 111.448 118.426 111.107L119.221 110.501ZM113.457 104.644L113.256 105.623L113.255 105.623L113.457 104.644ZM110.948 108.924C110.771 109.447 110.203 109.727 109.68 109.549C109.158 109.372 108.878 108.804 109.055 108.281L110.002 108.603L110.948 108.924ZM114.461 96.3084C115.03 95.487 115.031 95.4874 115.032 95.4878C115.032 95.488 115.033 95.4885 115.033 95.4888C115.034 95.4895 115.035 95.4902 115.036 95.491C115.038 95.4926 115.041 95.4943 115.044 95.4963C115.049 95.5003 115.056 95.5052 115.064 95.5109C115.08 95.5224 115.1 95.5374 115.124 95.556C115.173 95.5934 115.238 95.6453 115.317 95.713C115.475 95.8484 115.689 96.0465 115.941 96.316C116.444 96.8553 117.093 97.6782 117.732 98.8506C119.014 101.201 120.239 104.918 120.22 110.505L119.221 110.501L118.221 110.497C118.239 105.216 117.084 101.836 115.977 99.8076C115.422 98.7904 114.874 98.1029 114.479 97.6793C114.281 97.4673 114.121 97.3209 114.017 97.232C113.965 97.1875 113.927 97.1574 113.906 97.1408C113.895 97.1324 113.888 97.1274 113.886 97.1257C113.885 97.1248 113.884 97.1247 113.885 97.1254C113.886 97.1257 113.887 97.1263 113.888 97.1271C113.888 97.1274 113.889 97.1278 113.89 97.1283C113.89 97.1286 113.89 97.1289 113.891 97.1291C113.891 97.1295 113.892 97.1299 114.461 96.3084ZM119.221 110.501C118.426 111.107 118.426 111.107 118.426 111.107C118.426 111.107 118.426 111.107 118.426 111.107C118.426 111.107 118.426 111.107 118.426 111.107C118.425 111.106 118.424 111.105 118.424 111.104C118.422 111.102 118.419 111.098 118.415 111.093C118.408 111.083 118.396 111.068 118.381 111.049C118.351 111.009 118.306 110.951 118.248 110.877C118.131 110.728 117.963 110.514 117.756 110.255C117.342 109.738 116.775 109.048 116.163 108.35C115.548 107.649 114.903 106.957 114.329 106.428C114.041 106.163 113.787 105.954 113.577 105.809C113.346 105.649 113.246 105.622 113.256 105.623L113.457 104.644L113.658 103.665C114.051 103.746 114.42 103.961 114.714 104.165C115.029 104.383 115.358 104.659 115.683 104.958C116.333 105.557 117.032 106.309 117.666 107.033C118.304 107.759 118.89 108.474 119.316 109.005C119.529 109.272 119.703 109.493 119.824 109.648C119.885 109.725 119.932 109.787 119.964 109.829C119.981 109.85 119.993 109.866 120.002 109.877C120.006 109.883 120.009 109.887 120.011 109.89C120.013 109.891 120.013 109.893 120.014 109.893C120.014 109.894 120.015 109.894 120.015 109.894C120.015 109.894 120.015 109.895 120.015 109.895C120.015 109.895 120.015 109.895 119.221 110.501ZM113.457 104.644L113.255 105.623C113.058 105.583 112.725 105.64 112.226 106.291C111.745 106.918 111.307 107.867 110.948 108.924L110.002 108.603L109.055 108.281C109.441 107.145 109.963 105.957 110.639 105.074C111.297 104.215 112.319 103.39 113.658 103.665L113.457 104.644Z" fill="#00338F"/>
<path fill-rule="evenodd" clip-rule="evenodd" d="M108.229 111.531L110.754 143.699L116.883 149.404L120.419 142.793L113.079 110.574L108.229 111.531Z" fill="#21B531"/>
<path d="M108.894 111.479C108.865 111.112 108.544 110.838 108.176 110.866C107.809 110.895 107.535 111.216 107.564 111.583L108.229 111.531L108.894 111.479ZM110.753 143.699L110.088 143.751C110.101 143.916 110.175 144.071 110.296 144.185L110.753 143.699ZM116.361 149.895C116.629 150.148 117.051 150.135 117.304 149.867C117.556 149.599 117.544 149.177 117.275 148.924L116.818 149.41L116.361 149.895ZM108.229 111.531L107.564 111.583L110.088 143.751L110.753 143.699L111.418 143.647L108.894 111.479L108.229 111.531ZM110.753 143.699L110.296 144.185L116.361 149.895L116.818 149.41L117.275 148.924L111.21 143.213L110.753 143.699Z" fill="white"/>
<path fill-rule="evenodd" clip-rule="evenodd" d="M108.229 111.533C109.063 112.361 112.543 111.676 113.104 110.825C113.835 109.716 113.469 105.076 113.444 105.517C113.444 105.517 109.857 104.512 105.79 106.989C105.79 106.989 106.588 109.903 108.229 111.533Z" fill="#21B531"/>
<path d="M106.761 107.569C106.683 107.209 106.327 106.981 105.967 107.059C105.607 107.137 105.379 107.493 105.458 107.853L106.109 107.711L106.761 107.569ZM108.228 111.532L108.698 111.058L108.698 111.058L108.228 111.532ZM110.628 112.502C110.993 112.453 111.248 112.117 111.199 111.752C111.149 111.387 110.813 111.131 110.448 111.181L110.538 111.841L110.628 112.502ZM106.109 107.711C105.458 107.853 105.458 107.853 105.458 107.853C105.458 107.853 105.458 107.853 105.458 107.854C105.458 107.854 105.458 107.854 105.458 107.855C105.458 107.855 105.458 107.856 105.459 107.857C105.459 107.859 105.46 107.862 105.46 107.865C105.462 107.871 105.464 107.879 105.466 107.89C105.471 107.91 105.478 107.939 105.487 107.975C105.506 108.046 105.533 108.148 105.572 108.273C105.648 108.524 105.767 108.872 105.941 109.274C106.286 110.074 106.858 111.111 107.758 112.005L108.228 111.532L108.698 111.058C107.957 110.323 107.469 109.449 107.166 108.746C107.015 108.396 106.912 108.095 106.848 107.884C106.816 107.779 106.793 107.696 106.779 107.642C106.772 107.615 106.767 107.595 106.764 107.582C106.763 107.576 106.762 107.572 106.761 107.57C106.761 107.568 106.761 107.568 106.761 107.568C106.761 107.568 106.761 107.568 106.761 107.568C106.761 107.568 106.761 107.568 106.761 107.568C106.761 107.569 106.761 107.569 106.761 107.569C106.761 107.569 106.761 107.569 106.109 107.711ZM108.228 111.532L107.758 112.005C108.116 112.36 108.64 112.492 109.09 112.543C109.568 112.597 110.107 112.573 110.628 112.502L110.538 111.841L110.448 111.181C109.999 111.242 109.576 111.255 109.239 111.217C108.872 111.176 108.727 111.087 108.698 111.058L108.228 111.532Z" fill="white"/>
<path d="M57.1703 143.588C59.7146 135.008 73.14 116.597 73.14 116.597C73.14 116.597 87.6976 111.926 82.0011 126.775L71.4934 145.585C71.4934 145.585 57.8357 156.291 57.1703 143.588Z" fill="#FFC7A1"/>
<path d="M85.8271 99.8169C82.1004 97.6567 79.4495 100.31 78.163 101.639C76.8765 102.969 62.8268 121.223 61.5905 123.08C60.3543 124.937 68.1638 136.988 79.1071 134.905L94.448 121.038C94.448 121.038 99.0909 107.503 85.8271 99.8169Z" fill="#0049CD"/>
<path d="M61.4127 126.525C61.1491 126.039 61.3294 125.432 61.8155 125.168C62.3016 124.904 62.9093 125.084 63.1729 125.57L62.2928 126.048L61.4127 126.525ZM79.1089 134.903L79.7798 135.646C79.6435 135.769 79.476 135.852 79.2956 135.887L79.1089 134.903ZM93.5722 120.492C93.9827 120.121 94.6158 120.153 94.9863 120.563C95.3569 120.974 95.3245 121.607 94.9141 121.977L94.2432 121.235L93.5722 120.492ZM62.2928 126.048L63.1729 125.57C64.2035 127.47 66.2519 129.946 69.0122 131.75C71.7586 133.545 75.1491 134.638 78.9221 133.92L79.1089 134.903L79.2956 135.887C74.8923 136.725 70.9807 135.429 67.9162 133.426C64.8655 131.432 62.5941 128.703 61.4127 126.525L62.2928 126.048ZM79.1089 134.903L78.4379 134.161L93.5722 120.492L94.2432 121.235L94.9141 121.977L79.7798 135.646L79.1089 134.903Z" fill="#00338F"/>
<path d="M160.148 91.9725C160.957 99.8834 160.83 108.305 161.351 116.244C162.419 132.513 161.128 136.071 160.737 138.944C160.344 141.837 153.854 143.847 151.391 141.962C143.296 135.767 148.139 111.645 151.293 94.5117C154.248 89.9493 160.148 91.9725 160.148 91.9725Z" fill="#FFC7A1"/>
<path d="M151.378 96.5714C151.378 96.5714 148.541 91.2641 147.702 88.0018C147.094 85.639 146.552 81.9736 146.57 81.4616C146.709 77.5842 145.434 71.2022 146.875 70.4685C150.825 68.4554 151.198 73.5816 152.314 79.2508L159.199 75.3708C159.199 75.3708 166.512 72.8084 167.005 76.1773C167.23 77.7087 165.177 78.5484 165.177 78.5484C165.177 78.5484 167.147 78.2529 167.887 80.046C168.904 82.5121 165.325 83.343 165.325 83.343C165.325 83.343 167.52 82.9793 168.009 84.9586C168.527 87.0496 165.435 87.6193 165.435 87.6193C165.435 87.6193 170.144 87.8547 168.721 90.534C167.683 92.4891 158.648 93.605 158.648 93.605L151.378 96.5714Z" fill="#FFC7A1"/>
<path d="M162.885 74.0303C163.253 73.949 163.624 74.1753 163.715 74.536C163.805 74.8966 163.581 75.2549 163.214 75.3363L163.05 74.6833L162.885 74.0303ZM158.647 76.2586L158.372 75.6402L158.373 75.6399L158.647 76.2586ZM156.907 77.3066L156.396 76.8513L156.396 76.8503L156.907 77.3066ZM156.484 79.1775L157.111 78.9221L157.112 78.9222L156.484 79.1775ZM160.185 79.872L159.974 79.2312L159.974 79.2311L160.185 79.872ZM165.178 77.8144C165.538 77.7077 165.924 77.9081 166.041 78.2621C166.157 78.616 165.96 78.9895 165.6 79.0962L165.389 78.4553L165.178 77.8144ZM163.05 74.6833L163.214 75.3363C161.705 75.6706 160.451 76.2555 158.921 76.8774L158.647 76.2586L158.373 75.6399C159.826 75.0492 161.23 74.397 162.885 74.0303L163.05 74.6833ZM158.647 76.2586L158.922 76.8771C158.284 77.1374 157.77 77.3852 157.418 77.763L156.907 77.3066L156.396 76.8503C156.968 76.2377 157.739 75.8989 158.372 75.6402L158.647 76.2586ZM156.907 77.3066L157.418 77.762C157.071 78.1359 156.974 78.611 157.111 78.9221L156.484 79.1775L155.856 79.4329C155.436 78.4844 155.822 77.4688 156.396 76.8513L156.907 77.3066ZM156.484 79.1775L157.112 78.9222C157.25 79.2344 157.675 79.5038 158.207 79.5438L158.169 80.2112L158.13 80.8786C157.284 80.8151 156.271 80.3705 155.856 79.4327L156.484 79.1775ZM158.169 80.2112L158.207 79.5438C158.748 79.5843 159.298 79.4318 159.974 79.2312L160.185 79.872L160.397 80.5128C159.762 80.7012 158.968 80.9415 158.13 80.8786L158.169 80.2112ZM160.185 79.872L159.974 79.2311C160.941 78.9445 161.776 78.7289 162.6 78.5162C163.424 78.3033 164.237 78.0932 165.178 77.8144L165.389 78.4553L165.6 79.0962C164.633 79.3828 163.798 79.5983 162.975 79.811C162.15 80.024 161.337 80.234 160.396 80.5129L160.185 79.872Z" fill="#EA989D"/>
<path d="M163.384 78.3666C163.744 78.2604 164.13 78.4613 164.246 78.8154C164.362 79.1695 164.164 79.5427 163.804 79.6489L163.594 79.0077L163.384 78.3666ZM158.879 80.7547L158.604 80.1363L158.605 80.1359L158.879 80.7547ZM157.14 81.8033L157.651 82.2586L157.65 82.2596L157.14 81.8033ZM156.716 83.6745L157.343 83.4191L157.343 83.4192L156.716 83.6745ZM160.417 84.369L160.629 85.0098L160.628 85.0098L160.417 84.369ZM165.409 82.3105C165.769 82.2037 166.155 82.4039 166.272 82.7578C166.389 83.1117 166.192 83.4853 165.832 83.5921L165.621 82.9513L165.409 82.3105ZM163.594 79.0077L163.804 79.6489C162.315 80.088 160.652 80.7637 159.153 81.3735L158.879 80.7547L158.605 80.1359C160.089 79.5324 161.817 78.8286 163.384 78.3666L163.594 79.0077ZM158.879 80.7547L159.154 81.3732C158.516 81.6335 158.002 81.8812 157.651 82.2586L157.14 81.8033L156.628 81.3479C157.199 80.7339 157.97 80.3949 158.604 80.1363L158.879 80.7547ZM157.14 81.8033L157.65 82.2596C157.303 82.632 157.205 83.1078 157.343 83.4191L156.716 83.6745L156.088 83.9299C155.668 82.9817 156.053 81.9649 156.629 81.3469L157.14 81.8033ZM156.716 83.6745L157.343 83.4192C157.481 83.7303 157.906 83.9999 158.439 84.0399L158.4 84.7073L158.362 85.3747C157.516 85.3112 156.503 84.8668 156.088 83.9298L156.716 83.6745ZM158.4 84.7073L158.439 84.0399C158.979 84.0804 159.532 83.9282 160.206 83.7282L160.417 84.369L160.628 85.0098C159.994 85.1981 159.199 85.4375 158.362 85.3747L158.4 84.7073ZM160.417 84.369L160.206 83.7282C161.173 83.4411 162.008 83.2255 162.831 83.0128C163.656 82.7998 164.469 82.5898 165.409 82.3105L165.621 82.9513L165.832 83.5921C164.865 83.8793 164.03 84.0949 163.206 84.3076C162.382 84.5205 161.569 84.7305 160.629 85.0098L160.417 84.369Z" fill="#EA989D"/>
<path d="M163.994 82.7875C164.361 82.7062 164.733 82.9326 164.823 83.2932C164.914 83.6538 164.69 84.0121 164.323 84.0935L164.158 83.4405L163.994 82.7875ZM159.111 85.2508L158.836 84.6323L158.837 84.632L159.111 85.2508ZM157.372 86.2993L157.883 86.7547L157.882 86.7556L157.372 86.2993ZM156.948 88.1706L157.575 87.9152L157.575 87.9153L156.948 88.1706ZM160.649 88.8651L160.861 89.5059L160.86 89.5059L160.649 88.8651ZM165.941 86.6634C166.301 86.5565 166.688 86.7568 166.804 87.1107C166.921 87.4646 166.724 87.8381 166.364 87.945L166.153 87.3042L165.941 86.6634ZM164.158 83.4405L164.323 84.0935C162.813 84.4279 160.911 85.249 159.385 85.8695L159.111 85.2508L158.837 84.632C160.294 84.0391 162.34 83.154 163.994 82.7875L164.158 83.4405ZM159.111 85.2508L159.386 85.8692C158.748 86.1296 158.234 86.3772 157.883 86.7547L157.372 86.2993L156.86 85.844C157.431 85.23 158.202 84.8909 158.836 84.6323L159.111 85.2508ZM157.372 86.2993L157.882 86.7556C157.535 87.1281 157.437 87.6038 157.575 87.9152L156.948 88.1706L156.32 88.426C155.9 87.4778 156.285 86.4609 156.861 85.843L157.372 86.2993ZM156.948 88.1706L157.575 87.9153C157.713 88.2264 158.138 88.496 158.671 88.5359L158.632 89.2034L158.594 89.8708C157.748 89.8073 156.735 89.3628 156.32 88.4258L156.948 88.1706ZM158.632 89.2034L158.671 88.5359C159.211 88.5765 159.764 88.4243 160.438 88.2242L160.649 88.8651L160.86 89.5059C160.226 89.6942 159.431 89.9336 158.594 89.8708L158.632 89.2034ZM160.649 88.8651L160.438 88.2243C161.399 87.939 162.304 87.6887 163.202 87.4403C164.102 87.1914 164.995 86.9445 165.941 86.6634L166.153 87.3042L166.364 87.945C165.403 88.2303 164.498 88.4806 163.6 88.729C162.7 88.9778 161.807 89.2248 160.861 89.5059L160.649 88.8651Z" fill="#EA989D"/>
<path d="M165.13 86.9707C165.497 86.8894 165.869 87.1158 165.959 87.4764C166.05 87.837 165.826 88.1953 165.459 88.2767L165.294 87.6237L165.13 86.9707ZM161.253 89.0707L161.527 89.6893L161.526 89.6897L161.253 89.0707ZM159.655 90.0324L160.167 90.4879L160.166 90.4886L159.655 90.0324ZM159.266 91.7499L158.639 92.0059L158.638 92.005L159.266 91.7499ZM160.813 92.6984L160.774 93.3659L160.774 93.3658L160.813 92.6984ZM162.664 92.3874L162.453 91.7468L162.453 91.7467L162.664 92.3874ZM167.231 90.4454C167.591 90.3387 167.977 90.5392 168.094 90.8931C168.21 91.2471 168.013 91.6205 167.653 91.7272L167.442 91.0863L167.231 90.4454ZM165.294 87.6237L165.459 88.2767C164.079 88.5822 162.934 89.1161 161.527 89.6893L161.253 89.0707L160.978 88.4521C162.309 87.9098 163.604 87.3087 165.13 86.9707L165.294 87.6237ZM161.253 89.0707L161.526 89.6897C160.942 89.9268 160.48 90.1506 160.167 90.4879L159.655 90.0324L159.144 89.5769C159.677 89.003 160.396 88.6881 160.979 88.4517L161.253 89.0707ZM159.655 90.0324L160.166 90.4886C159.857 90.8204 159.779 91.2349 159.894 91.4948L159.266 91.7499L158.638 92.005C158.242 91.1088 158.607 90.1536 159.145 89.5761L159.655 90.0324ZM159.266 91.7499L159.894 91.4939C160.009 91.7549 160.376 91.9951 160.852 92.0311L160.813 92.6984L160.774 93.3658C159.985 93.3062 159.032 92.8907 158.639 92.0059L159.266 91.7499ZM160.813 92.6984L160.851 92.031C161.336 92.0673 161.833 91.9314 162.453 91.7468L162.664 92.3874L162.876 93.0281C162.294 93.2014 161.556 93.4243 160.774 93.3659L160.813 92.6984ZM162.664 92.3874L162.453 91.7467C163.342 91.4824 164.11 91.2842 164.866 91.089C165.623 90.8935 166.368 90.7011 167.231 90.4454L167.442 91.0863L167.653 91.7272C166.764 91.9907 165.997 92.1886 165.241 92.3838C164.484 92.5792 163.738 92.7719 162.876 93.0282L162.664 92.3874Z" fill="#EA989D"/>
<path d="M155.626 87.3677C155.574 87.7336 155.226 87.9825 154.851 87.9236C154.475 87.8647 154.214 87.5204 154.266 87.1545L154.946 87.2611L155.626 87.3677ZM151.717 80.7267L151.445 81.3372C151.107 81.1882 150.944 80.808 151.075 80.4749L151.717 80.7267ZM150.651 74.5813C150.512 74.2338 150.685 73.8477 151.038 73.7188C151.391 73.5899 151.79 73.7671 151.929 74.1145L151.29 74.3479L150.651 74.5813ZM154.946 87.2611L154.266 87.1545C154.413 86.1358 154.2 84.8807 153.678 83.761C153.154 82.6369 152.365 81.7433 151.445 81.3372L151.717 80.7267L151.989 80.1161C153.321 80.7042 154.314 81.9131 154.926 83.2254C155.539 84.542 155.815 86.057 155.626 87.3677L154.946 87.2611ZM151.717 80.7267L151.075 80.4749C151.37 79.7263 151.443 78.6816 151.34 77.5715C151.239 76.4721 150.972 75.3826 150.651 74.5813L151.29 74.3479L151.929 74.1145C152.302 75.0469 152.596 76.2632 152.708 77.4779C152.819 78.6821 152.759 79.9599 152.358 80.9784L151.717 80.7267Z" fill="#EA989D"/>
<path d="M124.73 52.2441C124.73 52.2441 123.093 50.4313 120.129 48.5844C122.279 47.9314 123.027 47.1041 123.027 47.1041C119.143 46.6636 115.407 45.9797 113.082 45.5138C112.336 45.3153 111.556 45.1511 110.748 45.0212C110.719 45.0146 110.693 45.0083 110.693 45.0083L110.703 45.014C108.405 44.6458 105.871 44.5771 103.124 45.0025C97.6185 45.8541 96.0578 52.2223 96.0578 52.2223C96.0578 52.2223 91.586 53.342 90.9559 54.1429C90.6539 54.526 89.2741 56.4451 88.5946 60.1347L88.5935 60.1316C88.5935 60.1316 87.2062 66.2791 85.7035 68.0153C85.7035 68.0153 87.0411 67.5521 88.304 66.762C88.5547 70.063 89.3732 74.0492 91.1578 78.7843C92.9714 83.5945 103.678 86.0295 103.678 86.0295L127.709 76.7262C127.709 76.7262 133.382 58.5039 124.73 52.2441Z" fill="#12161C"/>
<path fill-rule="evenodd" clip-rule="evenodd" d="M97.8828 86.1133L101.089 90.8267L105.297 85.4872L99.0601 86.2966" fill="#12161C"/>
<path d="M116.956 55.658L98.3829 62.6465L93.9686 70.6529C93.7581 75.604 95.3169 80.6845 98.3018 84.7463C100.677 87.9779 104.247 91.1693 107.345 92.3646C114.196 95.0075 124.886 90.3307 126.95 85.1172C127.594 83.4891 127.592 81.6293 127.749 79.854C128.212 77.0266 127.475 70.9819 127.016 69.3027C125.533 63.6271 122.069 58.324 116.956 55.658Z" fill="#FFC7A1"/>
<path d="M93.1414 74.2471C88.9464 75.422 88.9681 80.5455 91.0518 83.6378C93.2335 86.8764 97.7958 87.6648 100.921 85.3293C100.99 85.2776 101.001 85.1566 100.988 85.0052C101.126 84.0957 101.203 81.3523 98.1702 77.8583C98.1702 77.8583 96.016 73.2172 93.1414 74.2471Z" fill="#FFC7A1"/>
<path d="M97.5076 78.653C95.6367 77.2258 93.2564 76.9013 91.0575 77.7062C89.7974 78.1674 90.6231 80.0808 91.8835 79.6209C93.3876 79.0705 94.9862 79.3501 96.2495 80.3163C97.3182 81.1325 98.5749 79.4694 97.5076 78.653Z" fill="#EA989D"/>
<path d="M116.739 79.5924C116.664 79.9515 116.311 80.1816 115.952 80.1061C115.592 80.0307 115.362 79.6783 115.437 79.3191L116.088 79.4557L116.739 79.5924ZM114.149 78.344C113.856 78.5652 113.439 78.5071 113.217 78.2143C112.996 77.9214 113.054 77.5047 113.347 77.2834L113.748 77.8137L114.149 78.344ZM116.088 79.4557C115.437 79.3191 115.437 79.3193 115.437 79.3195C115.437 79.3195 115.437 79.3197 115.437 79.3198C115.437 79.3199 115.437 79.32 115.437 79.32C115.437 79.3201 115.437 79.3199 115.437 79.3195C115.437 79.3187 115.438 79.3169 115.438 79.3143C115.439 79.3091 115.441 79.3003 115.443 79.2883C115.448 79.2644 115.454 79.2278 115.462 79.181C115.477 79.0869 115.496 78.9543 115.509 78.8024C115.537 78.4822 115.535 78.1428 115.471 77.8993C115.44 77.7811 115.406 77.7298 115.393 77.7147C115.392 77.7139 115.401 77.716 115.386 77.7144C115.292 77.7039 114.93 77.7546 114.149 78.344L113.748 77.8137L113.347 77.2834C114.162 76.6682 114.89 76.322 115.533 76.3934C116.305 76.4792 116.635 77.0936 116.758 77.5633C116.881 78.0315 116.866 78.5543 116.834 78.9183C116.817 79.1087 116.794 79.2737 116.775 79.3918C116.766 79.4511 116.757 79.4991 116.751 79.5333C116.748 79.5504 116.745 79.5641 116.743 79.5741C116.742 79.579 116.741 79.5831 116.74 79.5861C116.74 79.5877 116.74 79.589 116.74 79.59C116.74 79.5905 116.739 79.591 116.739 79.5914C116.739 79.5916 116.739 79.5918 116.739 79.5919C116.739 79.5921 116.739 79.5924 116.088 79.4557Z" fill="#12161C"/>
<path d="M106.663 83.6981C106.497 84.1692 106.69 85.132 107.393 85.9761C108.077 86.8022 109.44 87.7986 112.086 87.896C114.682 87.9906 115.985 87.0841 116.687 86.3502C118.304 84.6598 117.118 82.9298 116.215 82.7094C115.254 82.4757 114.2 83.7082 112.38 83.6549C111.067 83.6166 109.515 82.4981 108.992 82.4187C107.837 82.2571 107.006 82.7048 106.663 83.6981Z" fill="#12161C"/>
<mask id="mask2_21506_17569" style="mask-type:luminance" maskUnits="userSpaceOnUse" x="106" y="82" width="12" height="6">
<path d="M108.992 82.4184C109.514 82.4978 111.066 83.6164 112.38 83.6547C113.229 83.6799 113.913 83.4237 114.497 83.1676C115.163 82.8764 115.703 82.5842 116.214 82.7091C117.117 82.9286 118.303 84.6595 116.686 86.35C115.984 87.0838 114.681 87.9904 112.085 87.8958C109.439 87.7983 108.077 86.8019 107.393 85.9749C106.689 85.1308 106.497 84.169 106.662 83.6969C106.961 82.8372 107.622 82.3868 108.545 82.3864C108.687 82.3863 108.836 82.3967 108.992 82.4184Z" fill="white"/>
</mask>
<g mask="url(#mask2_21506_17569)">
<path d="M108.041 89.7062C108.252 91.3416 110.008 92.4627 111.965 92.2118C113.921 91.9591 115.336 90.4298 115.126 88.7943C114.914 87.159 113.158 86.0369 111.202 86.2887C109.244 86.5406 107.831 88.0698 108.041 89.7062Z" fill="#EB5757"/>
<path d="M118.12 82.5199C118.12 82.5199 115.884 85.1633 112.13 84.9611C108.374 84.758 104.981 81.9957 104.981 81.9957C104.981 81.9957 112.272 79.6629 118.12 82.5199Z" fill="white"/>
</g>
<path d="M108.992 82.4184C109.514 82.4978 111.066 83.6164 112.38 83.6547C113.229 83.6799 113.913 83.4237 114.497 83.1676C115.163 82.8764 115.703 82.5842 116.214 82.7091C117.117 82.9286 118.303 84.6595 116.686 86.35C115.984 87.0838 114.681 87.9904 112.085 87.8958C109.439 87.7983 108.077 86.8019 107.393 85.9749C106.689 85.1308 106.497 84.169 106.662 83.6969C106.961 82.8372 107.622 82.3868 108.545 82.3864C108.687 82.3863 108.836 82.3967 108.992 82.4184Z" stroke="#12161C" stroke-width="0.99851" stroke-miterlimit="2" stroke-linejoin="round"/>
<path d="M108.031 74.7902C108.398 76.4107 108.087 77.9457 107.577 78.9078C107.065 79.8892 106.356 80.2965 105.87 80.1254C104.878 79.703 104.738 77.6431 104.243 75.6071L104.243 75.6026C104.193 75.3401 104.31 75.0737 104.54 74.936L105.639 74.2793L104.142 73.7464C103.933 73.6722 103.777 73.4937 103.733 73.2761C103.508 72.1918 103.42 71.2996 103.859 70.8219C104.231 70.4649 105.045 70.5436 105.917 71.2265C106.778 71.8929 107.696 73.1637 108.031 74.7902Z" fill="#12161C"/>
<path d="M121.747 73.1203C122.114 74.7408 121.802 76.2758 121.293 77.2379C120.781 78.2192 120.072 78.6266 119.586 78.4554C118.594 78.0331 118.454 75.9732 117.959 73.9372L117.958 73.9327C117.909 73.6702 118.026 73.4038 118.256 73.2661L119.355 72.6094L117.858 72.0764C117.649 72.0022 117.493 71.8238 117.449 71.6062C117.224 70.5219 117.135 69.6297 117.575 69.152C117.947 68.795 118.761 68.8737 119.633 69.5566C120.494 70.223 121.412 71.4937 121.747 73.1203Z" fill="#12161C"/>
<path d="M120.85 67.9926C121.016 68.3204 121.415 68.4524 121.744 68.2873C122.072 68.1222 122.204 67.7226 122.038 67.3948L121.444 67.6937L120.85 67.9926ZM115.235 67.0719C114.995 67.35 115.027 67.7697 115.305 68.0091C115.584 68.2485 116.004 68.2171 116.243 67.9389L115.739 67.5054L115.235 67.0719ZM121.444 67.6937C122.038 67.3948 122.038 67.3945 122.038 67.3942C122.038 67.394 122.038 67.3937 122.038 67.3934C122.037 67.3929 122.037 67.3923 122.037 67.3916C122.036 67.3903 122.035 67.3887 122.034 67.3868C122.032 67.3831 122.03 67.3784 122.027 67.3726C122.021 67.3612 122.013 67.3458 122.002 67.3269C121.981 67.289 121.952 67.2369 121.914 67.1737C121.838 67.0476 121.726 66.8753 121.579 66.6836C121.292 66.3064 120.847 65.8223 120.248 65.4813C119.635 65.1321 118.858 64.9328 117.962 65.1564C117.084 65.3758 116.174 65.9815 115.235 67.0719L115.739 67.5054L116.243 67.9389C117.074 66.9746 117.762 66.5765 118.285 66.4459C118.791 66.3197 119.218 66.4243 119.589 66.6358C119.975 66.8555 120.293 67.1891 120.522 67.4893C120.634 67.6362 120.719 67.7676 120.775 67.8605C120.803 67.9067 120.823 67.9429 120.836 67.966C120.842 67.9776 120.847 67.9858 120.849 67.9904C120.85 67.9927 120.851 67.994 120.851 67.9944C120.851 67.9946 120.851 67.9946 120.851 67.9943C120.851 67.9941 120.851 67.9939 120.851 67.9936C120.851 67.9935 120.851 67.9932 120.851 67.9932C120.85 67.9929 120.85 67.9926 121.444 67.6937Z" fill="#12161C"/>
<path d="M107.307 68.8816C107.564 69.1443 107.985 69.1494 108.248 68.8931C108.51 68.6367 108.515 68.216 108.259 67.9533L107.783 68.4174L107.307 68.8816ZM106.415 67.6121L106.638 66.9862L106.638 66.9861L106.415 67.6121ZM98.8353 72.6389C98.8102 73.0051 99.0869 73.3223 99.4534 73.3474C99.8198 73.3725 100.137 73.0961 100.162 72.7299L99.4988 72.6844L98.8353 72.6389ZM107.783 68.4174L108.259 67.9533C107.861 67.5457 107.28 67.2149 106.638 66.9862L106.415 67.6121L106.192 68.2381C106.711 68.4232 107.094 68.6631 107.307 68.8816L107.783 68.4174ZM106.415 67.6121L106.638 66.9861C105.306 66.5118 103.474 66.3963 101.892 67.1937C100.26 68.0158 99.0341 69.7361 98.8353 72.6389L99.4988 72.6844L100.162 72.7299C100.336 70.1956 101.361 68.95 102.491 68.3805C103.67 67.7862 105.11 67.8531 106.192 68.2381L106.415 67.6121Z" fill="#12161C"/>
<path d="M106.934 58.9447C108.293 60.0288 112.652 62.9032 112.652 62.9032C112.652 62.9032 117.399 65.7859 122.509 65.4332C122.509 65.4332 121.657 63.173 121.36 62.386C121.063 61.5983 122.527 64.5226 125.769 65.5923C125.769 65.5923 124.052 55.2095 121.01 52.9702C116.791 49.8619 106.759 50.8174 104.021 54.1062C102.994 55.3411 105.829 58.0643 106.934 58.9447Z" fill="#12161C"/>
<path d="M94.1683 67.5976C95.1624 69.5573 96.1182 74.5511 98.171 78.4365C98.171 78.4365 94.1871 76.4335 92.4132 71.4481C92.4132 71.4481 91.2143 65.7031 94.1683 67.5976Z" fill="#12161C"/>
<path d="M98.3833 62.6488C98.3833 62.6488 97.2322 55.4263 100.086 54.8371C107.308 53.3444 108.357 61.7029 114.083 66.9685C114.083 66.9685 108.032 67.819 105.994 64.5038C105.994 64.5038 107.688 68.1381 108.269 69.1569C108.269 69.1569 105.26 68.7434 102.615 61.2048L98.3833 62.6488Z" fill="#12161C"/>
<path d="M98.3835 62.6498L101.525 56.9409L102.615 61.2058L98.3835 62.6498Z" fill="#595C60"/>
<path d="M74.6272 117.867C74.6272 120.048 72.8589 121.815 70.6765 121.815C68.4959 121.815 66.7275 120.048 66.7275 117.867C66.7275 115.688 68.4959 113.919 70.6765 113.919C72.8589 113.919 74.6272 115.688 74.6272 117.867ZM69.8205 244.92C72.2164 246.166 74.9369 246.868 77.8246 246.868H81.7587V171.248H82.5684C84.7325 171.248 86.5042 169.48 86.5042 167.317C86.5042 166.391 86.1631 165.545 85.62 164.872C96.4935 159.517 103.976 148.337 103.976 135.404C103.976 117.268 89.2627 102.566 71.1137 102.566C52.963 102.566 38.248 117.268 38.248 135.404C38.248 148.337 45.7322 159.517 56.604 164.872C56.061 165.545 55.7215 166.391 55.7215 167.317C55.7215 169.48 57.4932 171.248 59.6573 171.248H60.4653V195.519L64.8631 198.306L60.4653 203.128V216.343L65.0949 223.281L60.4653 228.46V229.525C60.4653 236.219 64.262 242.028 69.8205 244.92Z" fill="#FFBB59"/>
<path d="M75.9336 247.273V179.227C75.9336 177.509 74.5278 176.105 72.8091 176.105C71.0904 176.105 69.6847 177.509 69.6847 179.227V245.366" stroke="white" stroke-width="2.00216" stroke-miterlimit="10" stroke-linecap="round" stroke-linejoin="round"/>
<path d="M81.7598 171.25H59.9647" stroke="#FB9243" stroke-width="2.00216" stroke-miterlimit="10" stroke-linecap="round" stroke-linejoin="round"/>
<path d="M85.6211 164.871H57.4198" stroke="white" stroke-width="2.00216" stroke-miterlimit="10" stroke-linecap="round" stroke-linejoin="round"/>
<path d="M93.8544 131.984C93.8544 144.731 83.513 155.064 70.7563 155.064C57.9996 155.064 47.6582 144.731 47.6582 131.984C47.6582 119.237 57.9996 108.904 70.7563 108.904C83.513 108.904 93.8544 119.237 93.8544 131.984Z" stroke="#FB9243" stroke-width="2.00256" stroke-miterlimit="10"/>
<path d="M53.3012 111.151C52.636 112.008 51.0198 111.871 49.6923 110.843C48.3633 109.815 47.8259 108.287 48.4885 107.429C49.1544 106.572 50.7699 106.71 52.0997 107.737C53.4271 108.765 53.9662 110.292 53.3012 111.151Z" fill="#FFC7A1"/>
<path d="M48.4892 107.428C49.1538 106.57 50.7698 106.708 52.0988 107.736C53.4278 108.764 53.9664 110.292 53.3019 111.15C52.6373 112.008 51.0213 111.87 49.6923 110.843C48.3634 109.815 47.8247 108.286 48.4892 107.428Z" stroke="#EA989D" stroke-width="1.33778" stroke-miterlimit="10"/>
<path d="M49.9643 114.856C49.2991 115.713 47.6829 115.576 46.3554 114.548C45.0264 113.52 44.4889 111.992 45.1516 111.134C45.8175 110.277 47.433 110.415 48.7628 111.442C50.0902 112.47 50.6292 113.998 49.9643 114.856Z" fill="#FFC7A1"/>
<path d="M45.1523 111.133C45.8169 110.276 47.4329 110.413 48.7619 111.441C50.0908 112.469 50.6295 113.997 49.965 114.855C49.3004 115.713 47.6844 115.575 46.3554 114.548C45.0264 113.52 44.4878 111.991 45.1523 111.133Z" stroke="#EA989D" stroke-width="1.33778" stroke-miterlimit="10"/>
<path d="M48.1391 118.356C47.4739 119.213 45.8577 119.076 44.5302 118.048C43.2012 117.02 42.6637 115.492 43.3264 114.634C43.9923 113.777 45.6078 113.915 46.9376 114.942C48.265 115.97 48.804 117.498 48.1391 118.356Z" fill="#FFC7A1"/>
<path d="M43.3271 114.633C43.9917 113.776 45.6077 113.913 46.9367 114.941C48.2656 115.969 48.8043 117.497 48.1398 118.355C47.4752 119.213 45.8592 119.075 44.5302 118.048C43.2012 117.02 42.6626 115.491 43.3271 114.633Z" stroke="#EA989D" stroke-width="1.33778" stroke-miterlimit="10"/>
<path d="M44.7804 122.222C44.1152 123.079 42.499 122.942 41.1708 121.915C39.8425 120.886 39.3051 119.358 39.9678 118.501C40.6336 117.643 42.2492 117.781 43.5789 118.808C44.9063 119.836 45.4454 121.364 44.7804 122.222Z" fill="#FFC7A1"/>
<path d="M39.9678 118.501C40.6323 117.643 42.2483 117.78 43.5773 118.808C44.9063 119.836 45.4449 121.364 44.7804 122.222C44.1159 123.08 42.4998 122.943 41.1708 121.915C39.8419 120.887 39.3032 119.359 39.9678 118.501Z" stroke="#EA989D" stroke-width="1.33778" stroke-miterlimit="10"/>
<path d="M174.567 45.1228L168.155 46.4546L168.11 40.1032L174.465 40.6194L174.567 45.1228Z" fill="#B2C8F0"/>
<path d="M175.552 34.7065L162.947 28.7213L169.611 19.7267L179.372 28.7503L175.552 34.7065Z" fill="#B2C8F0"/>
<path d="M184.013 25.8463L183.805 19.2812L189.049 18.8022L188.404 26.1329L184.013 25.8463Z" fill="#B2C8F0"/>
<path d="M56.3395 84.207L52.9366 86.9437L52.2386 91.1858L49.5033 87.8711L45.2288 87.2202L48.617 84.4751L49.3305 80.2416L52.0558 83.5704L56.3395 84.207Z" fill="white"/>
<path d="M144.977 52.4768L142.615 54.3765L142.13 57.3212L140.231 55.0203L137.264 54.5684L139.616 52.6629L140.111 49.7242L142.003 52.0349L144.977 52.4768Z" fill="white"/>
<path d="M124.186 25.6754L122.565 25.6003L121.316 26.6029L121.386 25.0174L120.368 23.7922L121.987 23.8614L123.238 22.8649L123.162 24.4519L124.186 25.6754Z" fill="white"/>
<path d="M165.253 156.404L162.533 156.375L160.474 158.114L160.536 155.476L158.786 153.502L161.503 153.521L163.565 151.791L163.493 154.432L165.253 156.404Z" fill="white"/>
<path d="M244.109 20.6714L241.081 20.5295L238.767 22.414L238.869 19.4329L236.946 17.1289L239.971 17.2597L242.289 15.3868L242.175 18.3707L244.109 20.6714Z" fill="white"/>
<path d="M63.0143 60.6035C56.5954 60.6035 51.3918 55.404 51.3918 48.9902C51.3918 42.5764 56.5954 37.377 63.0143 37.377C69.4332 37.377 74.6367 42.5764 74.6367 48.9902C74.6367 55.404 69.4332 60.6035 63.0143 60.6035Z" fill="#21B531"/>
<path fill-rule="evenodd" clip-rule="evenodd" d="M69.8584 52.2639L77.7122 60.6041L69.1294 56.9864L69.8584 52.2639Z" fill="#21B531"/>
<path d="M57.7656 49.9391L61.3359 54.4487L68.4868 45.4182" stroke="white" stroke-width="2.63108" stroke-miterlimit="1.5" stroke-linecap="round" stroke-linejoin="round"/>
</g>
</g>
<defs>
<clipPath id="clip0_21506_17569">
<rect width="310" height="198" fill="white" transform="translate(21)"/>
</clipPath>
</defs>
</svg>
