<svg width="352" height="198" viewBox="0 0 352 198" fill="none" xmlns="http://www.w3.org/2000/svg">
<g clip-path="url(#clip0_20327_122639)">
<mask id="mask0_20327_122639" style="mask-type:luminance" maskUnits="userSpaceOnUse" x="21" y="0" width="310" height="198">
<path d="M331 0H21V198H331V0Z" fill="white"/>
</mask>
<g mask="url(#mask0_20327_122639)">
<path d="M38.4562 24.3337C43.4757 17.2579 47.7754 12.1661 70.1378 8.70411C105.562 3.21757 258.068 3.46052 286.477 10.3541C302.888 14.3425 318.571 14.9296 320.241 43.8706C321.556 66.5861 323.993 128.274 318.158 142.345C312.323 156.416 307.735 170.476 280.641 171.721C253.547 172.966 101.407 175.861 76.3954 174.616C51.3841 173.371 38.4658 162.621 33.4655 150.2C28.4651 137.79 30.5478 71.1717 30.5478 71.1717C30.5478 71.1717 30.5958 35.4282 38.4658 24.3236L38.4562 24.3337Z" fill="#EBEBF2"/>
<path d="M38.4562 24.3337C43.4757 17.2579 47.7754 12.1661 70.1378 8.70411C105.562 3.21757 258.068 3.46052 286.477 10.3541C302.888 14.3425 318.571 14.9296 320.241 43.8706C321.556 66.5861 323.993 128.274 318.158 142.345C312.323 156.416 307.735 170.476 280.641 171.721C253.547 172.966 101.407 175.861 76.3954 174.616C51.3841 173.371 38.4658 162.621 33.4655 150.2C28.4651 137.79 30.5478 71.1717 30.5478 71.1717C30.5478 71.1717 30.5958 35.4282 38.4658 24.3236L38.4562 24.3337Z" fill="#EBEBF2"/>
<mask id="mask1_20327_122639" style="mask-type:luminance" maskUnits="userSpaceOnUse" x="30" y="4" width="292" height="171">
<path d="M38.4562 24.3337C43.4757 17.2579 47.7754 12.1661 70.1378 8.70411C105.562 3.21757 258.068 3.46052 286.477 10.3541C302.888 14.3425 318.571 14.9296 320.241 43.8706C321.556 66.5861 323.993 128.274 318.158 142.345C312.323 156.416 307.735 170.476 280.641 171.721C253.547 172.966 101.407 175.861 76.3954 174.616C51.3841 173.371 38.4658 162.621 33.4655 150.2C28.4651 137.79 30.5478 71.1717 30.5478 71.1717C30.5478 71.1717 30.5958 35.4282 38.4658 24.3236L38.4562 24.3337Z" fill="white"/>
</mask>
<g mask="url(#mask1_20327_122639)">
<path fill-rule="evenodd" clip-rule="evenodd" d="M231.063 124.878C230.51 136.853 229.048 139.882 218.92 146.706H263.818C253.691 139.882 252.228 136.853 251.676 124.878L241.369 123.904L231.063 124.878Z" fill="#0049CD"/>
<path d="M252.018 126.23H230.706V130.025H252.018V126.23Z" fill="#00338F"/>
<path fill-rule="evenodd" clip-rule="evenodd" d="M303.065 38.374V122.554C303.065 125.135 300.968 127.231 298.385 127.231H184.353C181.77 127.231 179.673 125.135 179.673 122.554V38.374C179.673 35.7929 181.77 33.6973 184.353 33.6973H298.385C300.968 33.6973 303.065 35.7929 303.065 38.374Z" fill="#0049CD"/>
<path fill-rule="evenodd" clip-rule="evenodd" d="M299.114 40.8694V103.731C299.114 105.659 297.548 107.224 295.619 107.224H187.119C185.19 107.224 183.624 105.659 183.624 103.731V40.8694C183.624 38.9419 185.19 37.377 187.119 37.377H295.619C297.548 37.377 299.114 38.9419 299.114 40.8694Z" fill="white"/>
<path d="M241.369 117.861C243.058 117.861 244.428 116.493 244.428 114.805C244.428 113.117 243.058 111.748 241.369 111.748C239.679 111.748 238.31 113.117 238.31 114.805C238.31 116.493 239.679 117.861 241.369 117.861Z" fill="white"/>
<path d="M251.955 67.1703H247.005V57.376C247.005 54.2708 244.477 51.7447 241.369 51.7447C238.261 51.7447 235.733 54.2708 235.733 57.376V67.1703H230.783V57.376C230.783 51.5435 235.532 46.7987 241.369 46.7987C247.206 46.7987 251.955 51.5435 251.955 57.376V67.1703Z" fill="#B2C8F0"/>
<path d="M236.582 54.4052C237.476 52.9725 238.996 51.9681 240.756 51.7772C240.758 51.7772 240.761 51.7776 240.763 51.778C239 51.9672 237.478 52.9713 236.582 54.4052Z" fill="#99B5F0"/>
<path d="M235.737 57.1565C235.776 56.15 236.08 55.2107 236.582 54.4061C236.08 55.2103 235.776 56.15 235.737 57.1565Z" fill="#8DA8F5"/>
<path d="M251.652 84.6785H231.085C229.197 84.6785 227.667 83.149 227.667 81.2621V67.1171C227.667 65.2306 229.197 63.701 231.085 63.701H251.652C253.54 63.701 255.071 65.2306 255.071 67.1171V81.2621C255.071 83.149 253.54 84.6785 251.652 84.6785Z" fill="#FFC107"/>
<path d="M244.441 71.5478C244.441 69.8525 243.065 68.4784 241.369 68.4784C239.673 68.4784 238.297 69.8525 238.297 71.5478C238.297 72.6433 238.876 73.5975 239.74 74.1407V79.3146C239.74 80.2135 240.469 80.9426 241.369 80.9426C242.269 80.9426 242.999 80.2135 242.999 79.3146V74.1407C243.862 73.5975 244.441 72.6433 244.441 71.5478Z" fill="#00163E"/>
<path d="M256.481 100.286H226.257C223.273 100.286 220.854 97.8687 220.854 94.8871C220.854 91.9051 223.273 89.4882 226.257 89.4882H256.481C259.465 89.4882 261.884 91.9051 261.884 94.8871C261.884 97.8687 259.465 100.286 256.481 100.286Z" fill="#0049CD"/>
<path d="M227.346 97.3839L227.549 95.4714L226.014 96.6609L225.473 95.7146L227.164 94.8635L225.432 94.0594L225.98 93.12L227.542 94.2551L227.346 92.3905H228.428L228.266 94.2353L229.794 93.0726L230.342 94.012L228.604 94.8635L230.342 95.762L229.794 96.7083L228.266 95.5056L228.428 97.3839H227.346Z" fill="#FFC107"/>
<path d="M236.334 97.3839L236.537 95.4714L235.002 96.6609L234.461 95.7146L236.151 94.8635L234.42 94.0594L234.968 93.12L236.53 94.2551L236.334 92.3905H237.416L237.254 94.2353L238.782 93.0726L239.33 94.012L237.592 94.8635L239.33 95.762L238.782 96.7083L237.254 95.5056L237.416 97.3839H236.334Z" fill="#FFC107"/>
<path d="M245.321 97.3839L245.524 95.4714L243.99 96.6609L243.449 95.7146L245.139 94.8635L243.408 94.0594L243.956 93.12L245.518 94.2551L245.321 92.3905H246.403L246.241 94.2353L247.77 93.0726L248.317 94.012L246.58 94.8635L248.317 95.762L247.77 96.7083L246.241 95.5056L246.403 97.3839H245.321Z" fill="#FFC107"/>
<path d="M254.309 97.3839L254.512 95.4714L252.977 96.6609L252.436 95.7146L254.127 94.8635L252.396 94.0594L252.944 93.12L254.506 94.2551L254.309 92.3905H255.391L255.229 94.2353L256.757 93.0726L257.305 94.012L255.567 94.8635L257.305 95.762L256.757 96.7083L255.229 95.5056L255.391 97.3839H254.309Z" fill="#FFC107"/>
<path d="M211.694 68.8903C205.316 68.8903 200.145 63.7237 200.145 57.3505C200.145 50.9772 205.316 45.8106 211.694 45.8106C218.073 45.8106 223.243 50.9772 223.243 57.3505C223.243 63.7237 218.073 68.8903 211.694 68.8903Z" fill="#21B531"/>
<path d="M211.694 68.8903C205.316 68.8903 200.145 63.7237 200.145 57.3505C200.145 50.9772 205.316 45.8106 211.694 45.8106C218.073 45.8106 223.243 50.9772 223.243 57.3505C223.243 63.7237 218.073 68.8903 211.694 68.8903Z" fill="#21B531"/>
<path d="M206.479 58.2933L210.027 62.7744L217.132 53.801" stroke="white" stroke-width="1.9711" stroke-miterlimit="1.5" stroke-linecap="round" stroke-linejoin="round"/>
<path d="M267.729 85.6902C264.372 85.6902 261.651 82.9709 261.651 79.6166C261.651 76.2622 264.372 73.543 267.729 73.543C271.086 73.543 273.807 76.2622 273.807 79.6166C273.807 82.9709 271.086 85.6902 267.729 85.6902Z" fill="#21B531"/>
<path d="M267.729 85.6902C264.372 85.6902 261.651 82.9709 261.651 79.6166C261.651 76.2622 264.372 73.543 267.729 73.543C271.086 73.543 273.807 76.2622 273.807 79.6166C273.807 82.9709 271.086 85.6902 267.729 85.6902Z" fill="#21B531"/>
<path d="M264.984 80.1124L266.851 82.4709L270.591 77.748" stroke="white" stroke-width="1.31839" stroke-miterlimit="1.5" stroke-linecap="round" stroke-linejoin="round"/>
<path fill-rule="evenodd" clip-rule="evenodd" d="M210.683 76.7441L211.671 79.781L213.573 78.8426L213.268 80.941H216.464L213.879 82.8178L215.361 84.3362L213.268 84.6945L214.256 87.7313L211.671 85.8546L210.683 87.7313L209.695 85.8546L207.111 87.7313L208.098 84.6945L206.006 84.3362L207.487 82.8178L204.903 80.941H208.098L207.793 78.8426L209.695 79.781L210.683 76.7441Z" fill="#FFD451"/>
<path fill-rule="evenodd" clip-rule="evenodd" d="M271.773 47.377L273.156 51.6285L275.82 50.3148L275.392 53.2526H279.866L276.247 55.88L278.322 58.0058L275.392 58.5075L276.775 62.759L273.156 60.1316L271.773 62.759L270.39 60.1316L266.772 62.759L268.154 58.5075L265.225 58.0058L267.299 55.88L263.68 53.2526H268.154L267.727 50.3148L270.39 51.6285L271.773 47.377Z" fill="#FFD451"/>
<path d="M293.739 153.055H188.999V181.088H293.739V153.055Z" fill="#21B531"/>
<path fill-rule="evenodd" clip-rule="evenodd" d="M303.091 148.604C303.091 151.183 300.996 153.276 298.415 153.276H184.323C181.742 153.276 179.647 151.183 179.647 148.604C179.647 146.025 181.742 143.932 184.323 143.932H298.415C300.996 143.932 303.091 146.025 303.091 148.604Z" fill="#21B531"/>
<path d="M196.042 153.275H286.696" stroke="#115B19" stroke-width="2.00008" stroke-miterlimit="1.5" stroke-linecap="round" stroke-linejoin="round"/>
</g>
<path d="M83.7787 107.955C85.9231 106.521 100.798 97.3899 100.798 97.3899L111.556 96.3803C111.556 96.3803 125.086 101.154 127.46 102.164C129.835 103.174 133.597 184.402 133.597 184.402L94.8181 188.041C94.8181 188.041 81.3261 109.92 83.4705 108.486" fill="#FFC7A1"/>
<path fill-rule="evenodd" clip-rule="evenodd" d="M89.6891 169.873L87.3882 198.001H140.748L135.885 169.873H89.6891Z" fill="#21B531"/>
<path d="M118.738 198.001V192.363L122.221 190.479" stroke="#115B19" stroke-width="2.09" stroke-miterlimit="1.5" stroke-linecap="round" stroke-linejoin="round"/>
<path d="M103.522 102.99L108.741 103.806C110.727 104.116 112.588 102.759 112.897 100.774L114.762 88.8304C115.072 86.8459 113.714 84.9862 111.729 84.6756L106.51 83.8599C104.524 83.5506 102.662 84.9075 102.353 86.8919L100.487 98.8359C100.178 100.82 101.536 102.68 103.522 102.99Z" fill="#FFC7A1"/>
<path d="M102.355 86.8921C102.665 84.9075 104.525 83.5507 106.511 83.86L111.73 84.6758C113.716 84.9863 115.075 86.846 114.765 88.8306L113.615 96.1941C109.081 96.914 104.486 95.4297 101.335 93.424L102.355 86.8921Z" fill="#EA989D"/>
<path d="M130.497 124.07C129.38 115.41 139.895 116.522 140.553 116.785C144.05 118.181 149.028 124.786 159.543 134.948C159.543 134.948 164.399 142.889 150.41 143.256C150.41 143.256 130.973 127.762 130.497 124.07Z" fill="#FFC7A1"/>
<path d="M122.65 102.163C122.65 102.163 128.353 100.555 130.437 101.087C137.803 102.967 154.746 124.89 154.746 124.89C154.746 124.89 147.652 137.482 139.413 139.711L124.669 126.317C124.669 126.317 118.377 107.227 122.65 102.163Z" fill="#0049CD"/>
<path d="M113.554 96.3943C113.554 96.3943 110.024 101.824 109.922 107.735L114.63 142.652L120.701 182.386C120.701 182.386 140.704 179.53 139.34 172.868C136.84 160.656 134.298 154.308 134.022 143.432C133.409 119.264 131.376 101.191 131.376 101.191C131.376 101.191 128.774 99.5662 115.409 97.4122" fill="#0049CD"/>
<path d="M137.872 161.964C137.949 162.509 137.569 163.014 137.024 163.091C136.478 163.168 135.973 162.788 135.896 162.242L136.884 162.103L137.872 161.964ZM133.693 143.493L134.69 143.454L134.69 143.454L133.693 143.493ZM129.529 117.884C129.391 117.35 129.712 116.806 130.246 116.669C130.78 116.531 131.324 116.852 131.461 117.386L130.495 117.635L129.529 117.884ZM136.884 162.103L135.896 162.242C135.384 158.617 134.644 155.278 133.997 152.163C133.355 149.071 132.798 146.175 132.696 143.532L133.693 143.493L134.69 143.454C134.785 145.909 135.306 148.651 135.951 151.757C136.592 154.84 137.349 158.258 137.872 161.964L136.884 162.103ZM133.693 143.493L132.696 143.532C132.424 136.571 131.494 125.509 129.529 117.884L130.495 117.635L131.461 117.386C133.481 125.224 134.417 136.458 134.69 143.454L133.693 143.493Z" fill="#00338F"/>
<path d="M99.648 96.5268C99.648 96.5268 110.031 107.455 109.882 107.397L118.872 158.683C118.872 158.683 121.257 182.241 120.695 182.389C103.64 186.851 85.438 179.448 85.438 179.448C85.438 179.448 87.7423 158.835 87.3927 151.111C86.3004 127.011 82.1832 99.3375 82.1832 99.3375" fill="#0049CD"/>
<path d="M110.922 107.853C110.783 107.319 110.237 106.999 109.703 107.138C109.169 107.278 108.848 107.824 108.988 108.358L109.955 108.106L110.922 107.853ZM115.035 131.657L114.043 131.776L114.043 131.776L115.035 131.657ZM119.829 179.355C119.896 179.903 120.394 180.293 120.942 180.226C121.49 180.159 121.88 179.661 121.814 179.113L120.821 179.234L119.829 179.355ZM109.955 108.106C108.988 108.358 108.988 108.358 108.988 108.358C108.988 108.358 108.988 108.358 108.988 108.358C108.988 108.359 108.988 108.36 108.989 108.361C108.989 108.362 108.99 108.365 108.991 108.369C108.993 108.376 108.996 108.388 109 108.403C109.007 108.433 109.019 108.478 109.034 108.537C109.065 108.655 109.11 108.829 109.168 109.054C109.283 109.504 109.449 110.156 109.651 110.961C110.054 112.573 110.602 114.8 111.179 117.263C112.335 122.206 113.593 128.044 114.043 131.776L115.035 131.657L116.028 131.537C115.563 127.681 114.28 121.743 113.125 116.808C112.546 114.332 111.995 112.094 111.59 110.476C111.387 109.666 111.22 109.011 111.104 108.558C111.046 108.332 111.001 108.156 110.97 108.037C110.954 107.977 110.942 107.931 110.935 107.9C110.931 107.885 110.927 107.873 110.925 107.866C110.924 107.862 110.924 107.859 110.923 107.857C110.923 107.856 110.923 107.855 110.922 107.854C110.922 107.854 110.922 107.854 110.922 107.854C110.922 107.854 110.922 107.853 109.955 108.106ZM115.035 131.657L114.043 131.776C114.624 136.598 116.071 148.493 117.372 159.181C118.023 164.526 118.637 169.569 119.089 173.276C119.314 175.13 119.499 176.65 119.628 177.706C119.693 178.234 119.743 178.646 119.777 178.926C119.794 179.066 119.807 179.173 119.816 179.245C119.82 179.282 119.824 179.309 119.826 179.327C119.827 179.336 119.828 179.343 119.828 179.348C119.829 179.35 119.829 179.352 119.829 179.353C119.829 179.353 119.829 179.354 119.829 179.354C119.829 179.354 119.829 179.355 120.821 179.234C121.814 179.113 121.814 179.113 121.814 179.113C121.813 179.112 121.813 179.112 121.813 179.111C121.813 179.11 121.813 179.109 121.813 179.106C121.812 179.102 121.811 179.095 121.81 179.086C121.808 179.067 121.805 179.04 121.8 179.004C121.792 178.932 121.778 178.825 121.761 178.685C121.727 178.405 121.677 177.992 121.613 177.464C121.484 176.408 121.299 174.889 121.073 173.035C120.621 169.328 120.007 164.285 119.357 158.94C118.055 148.251 116.609 136.357 116.028 131.537L115.035 131.657Z" fill="#00338F"/>
<path d="M100.164 97.0876C100.456 96.619 100.313 96.0026 99.8441 95.7107C99.3755 95.4188 98.759 95.562 98.4673 96.0306L99.3158 96.5591L100.164 97.0876ZM99.6033 112.344L98.6563 112.664C98.7737 113.011 99.0718 113.266 99.4331 113.329C99.7943 113.391 100.161 113.251 100.388 112.964L99.6033 112.344ZM105.576 106.121L106.055 106.999L106.055 106.999L105.576 106.121ZM109.176 109.24C109.482 109.7 110.102 109.826 110.562 109.521C111.022 109.215 111.147 108.595 110.842 108.135L110.009 108.688L109.176 109.24ZM99.3158 96.5591C98.4673 96.0306 98.4669 96.0312 98.4665 96.0318C98.4664 96.032 98.466 96.0327 98.4657 96.0331C98.4651 96.0341 98.4645 96.0351 98.4638 96.0362C98.4625 96.0384 98.4609 96.0409 98.4592 96.0437C98.4557 96.0494 98.4515 96.0564 98.4466 96.0647C98.4367 96.0814 98.424 96.1033 98.4087 96.1304C98.3782 96.1848 98.3374 96.2601 98.289 96.3565C98.1921 96.5493 98.0645 96.8263 97.9265 97.1875C97.6503 97.9103 97.3328 98.9686 97.1352 100.362C96.7393 103.153 96.8292 107.257 98.6563 112.664L99.6033 112.344L100.55 112.024C98.8184 106.9 98.7645 103.111 99.1146 100.643C99.29 99.4063 99.568 98.4929 99.794 97.9015C99.9071 97.6056 100.007 97.3899 100.075 97.2543C100.11 97.1865 100.136 97.1387 100.151 97.1109C100.159 97.097 100.164 97.0881 100.167 97.0842C100.168 97.0823 100.168 97.0816 100.168 97.0821C100.168 97.0824 100.167 97.083 100.167 97.0839C100.166 97.0844 100.166 97.0849 100.166 97.0855C100.165 97.0858 100.165 97.0863 100.165 97.0865C100.165 97.087 100.164 97.0876 99.3158 96.5591ZM99.6033 112.344C100.388 112.964 100.388 112.964 100.388 112.964C100.388 112.964 100.388 112.964 100.388 112.964C100.388 112.963 100.388 112.963 100.388 112.963C100.389 112.963 100.389 112.962 100.39 112.961C100.392 112.958 100.395 112.955 100.399 112.95C100.406 112.941 100.417 112.927 100.432 112.908C100.462 112.871 100.506 112.815 100.563 112.745C100.677 112.603 100.843 112.398 101.047 112.149C101.457 111.65 102.022 110.977 102.643 110.273C103.265 109.568 103.935 108.842 104.557 108.236C105.201 107.608 105.721 107.18 106.055 106.999L105.576 106.121L105.098 105.243C104.502 105.567 103.812 106.17 103.161 106.804C102.489 107.46 101.782 108.226 101.143 108.95C100.503 109.676 99.9229 110.369 99.5032 110.879C99.2932 111.134 99.1228 111.345 99.0046 111.492C98.9455 111.565 98.8995 111.623 98.868 111.663C98.8522 111.682 98.8401 111.698 98.8318 111.708C98.8277 111.713 98.8245 111.717 98.8223 111.72C98.8212 111.721 98.8204 111.722 98.8198 111.723C98.8195 111.724 98.8192 111.724 98.8191 111.724C98.819 111.724 98.8189 111.724 98.8189 111.724C98.8188 111.724 98.8187 111.725 99.6033 112.344ZM105.576 106.121L106.055 106.999C106.314 106.857 106.521 106.834 106.702 106.86C106.9 106.887 107.137 106.984 107.419 107.189C108.005 107.614 108.593 108.361 109.176 109.24L110.009 108.688L110.842 108.135C110.245 107.235 109.491 106.222 108.593 105.571C108.133 105.237 107.593 104.966 106.98 104.88C106.35 104.792 105.713 104.908 105.098 105.243L105.576 106.121Z" fill="#00338F"/>
<path d="M113.893 97.1296C113.439 96.8151 113.326 96.1924 113.64 95.7387C113.955 95.285 114.578 95.1722 115.031 95.4867L114.462 96.3082L113.893 97.1296ZM119.222 110.501L120.221 110.504C120.22 110.932 119.946 111.312 119.54 111.448C119.134 111.585 118.687 111.447 118.427 111.107L119.222 110.501ZM113.458 104.644L113.256 105.623L113.256 105.623L113.458 104.644ZM110.949 108.924C110.772 109.447 110.204 109.727 109.681 109.549C109.159 109.371 108.879 108.804 109.056 108.281L110.003 108.603L110.949 108.924ZM114.462 96.3082C115.031 95.4867 115.032 95.4871 115.033 95.4876C115.033 95.4878 115.034 95.4882 115.034 95.4886C115.035 95.4893 115.036 95.49 115.037 95.4908C115.039 95.4923 115.042 95.4941 115.045 95.4961C115.05 95.5001 115.057 95.5049 115.065 95.5107C115.081 95.5221 115.101 95.5371 115.125 95.5558C115.174 95.5931 115.239 95.6451 115.318 95.7128C115.476 95.8481 115.69 96.0463 115.942 96.3157C116.445 96.8551 117.094 97.678 117.733 98.8503C119.015 101.201 120.24 104.917 120.221 110.504L119.222 110.501L118.222 110.497C118.24 105.216 117.085 101.836 115.978 99.8073C115.423 98.7901 114.875 98.1026 114.48 97.6791C114.282 97.467 114.122 97.3206 114.018 97.2317C113.966 97.1873 113.928 97.1572 113.907 97.1405C113.896 97.1322 113.889 97.1272 113.887 97.1254C113.885 97.1245 113.885 97.1244 113.886 97.1252C113.887 97.1255 113.888 97.1261 113.889 97.1268C113.889 97.1272 113.89 97.1276 113.891 97.1281C113.891 97.1283 113.891 97.1287 113.892 97.1288C113.892 97.1292 113.893 97.1296 114.462 96.3082ZM119.222 110.501C118.427 111.107 118.427 111.107 118.427 111.107C118.427 111.107 118.427 111.107 118.427 111.107C118.427 111.107 118.427 111.107 118.426 111.106C118.426 111.106 118.425 111.105 118.425 111.104C118.423 111.101 118.42 111.098 118.416 111.093C118.409 111.083 118.397 111.068 118.382 111.049C118.352 111.009 118.307 110.951 118.249 110.876C118.132 110.727 117.964 110.513 117.757 110.255C117.343 109.738 116.776 109.048 116.164 108.35C115.549 107.648 114.904 106.957 114.33 106.428C114.042 106.163 113.788 105.954 113.578 105.808C113.347 105.649 113.247 105.621 113.256 105.623L113.458 104.644L113.659 103.665C114.052 103.746 114.421 103.961 114.715 104.165C115.03 104.383 115.359 104.659 115.684 104.958C116.334 105.556 117.033 106.309 117.667 107.032C118.305 107.759 118.891 108.474 119.317 109.005C119.53 109.271 119.704 109.492 119.825 109.648C119.886 109.725 119.933 109.786 119.965 109.828C119.982 109.849 119.994 109.866 120.003 109.877C120.007 109.882 120.01 109.887 120.012 109.89C120.014 109.891 120.014 109.892 120.015 109.893C120.015 109.894 120.016 109.894 120.016 109.894C120.016 109.894 120.016 109.894 120.016 109.894C120.016 109.894 120.016 109.895 119.222 110.501ZM113.458 104.644L113.256 105.623C113.059 105.583 112.726 105.64 112.227 106.29C111.746 106.918 111.308 107.867 110.949 108.924L110.003 108.603L109.056 108.281C109.442 107.145 109.964 105.956 110.64 105.074C111.298 104.215 112.32 103.389 113.659 103.665L113.458 104.644Z" fill="#00338F"/>
<path fill-rule="evenodd" clip-rule="evenodd" d="M108.23 111.531L110.755 143.699L116.884 149.404L120.42 142.793L113.08 110.574L108.23 111.531Z" fill="#21B531"/>
<path d="M108.895 111.479C108.866 111.112 108.545 110.838 108.177 110.866C107.81 110.895 107.536 111.216 107.565 111.583L108.23 111.531L108.895 111.479ZM110.754 143.699L110.089 143.751C110.102 143.916 110.176 144.071 110.297 144.185L110.754 143.699ZM116.362 149.895C116.63 150.148 117.052 150.135 117.305 149.867C117.557 149.599 117.545 149.177 117.276 148.924L116.819 149.41L116.362 149.895ZM108.23 111.531L107.565 111.583L110.089 143.751L110.754 143.699L111.419 143.647L108.895 111.479L108.23 111.531ZM110.754 143.699L110.297 144.185L116.362 149.895L116.819 149.41L117.276 148.924L111.211 143.213L110.754 143.699Z" fill="white"/>
<path fill-rule="evenodd" clip-rule="evenodd" d="M108.23 111.533C109.064 112.361 112.544 111.676 113.105 110.825C113.836 109.716 113.47 105.076 113.445 105.517C113.445 105.517 109.858 104.512 105.791 106.989C105.791 106.989 106.588 109.903 108.23 111.533Z" fill="#21B531"/>
<path d="M106.763 107.569C106.684 107.209 106.329 106.981 105.969 107.059C105.609 107.137 105.381 107.493 105.459 107.853L106.111 107.711L106.763 107.569ZM108.23 111.532L108.7 111.058L108.7 111.058L108.23 111.532ZM110.629 112.502C110.994 112.453 111.25 112.117 111.2 111.752C111.15 111.387 110.814 111.131 110.449 111.181L110.539 111.841L110.629 112.502ZM106.111 107.711C105.459 107.853 105.459 107.853 105.459 107.853C105.459 107.853 105.459 107.853 105.459 107.854C105.459 107.854 105.459 107.854 105.459 107.855C105.46 107.855 105.46 107.856 105.46 107.857C105.46 107.859 105.461 107.862 105.462 107.865C105.463 107.871 105.465 107.879 105.468 107.89C105.472 107.91 105.479 107.939 105.489 107.975C105.507 108.046 105.535 108.148 105.573 108.273C105.649 108.524 105.769 108.872 105.942 109.274C106.288 110.074 106.859 111.111 107.76 112.005L108.23 111.532L108.7 111.058C107.959 110.323 107.471 109.449 107.167 108.746C107.016 108.396 106.914 108.095 106.849 107.884C106.817 107.779 106.795 107.696 106.781 107.642C106.774 107.615 106.769 107.595 106.766 107.582C106.764 107.576 106.763 107.572 106.763 107.57C106.762 107.568 106.762 107.568 106.762 107.568C106.762 107.568 106.762 107.568 106.762 107.568C106.762 107.568 106.762 107.568 106.762 107.568C106.763 107.569 106.763 107.569 106.763 107.569C106.763 107.569 106.763 107.569 106.111 107.711ZM108.23 111.532L107.76 112.005C108.117 112.36 108.642 112.492 109.091 112.543C109.57 112.597 110.108 112.573 110.629 112.502L110.539 111.841L110.449 111.181C110.001 111.242 109.578 111.255 109.24 111.217C108.874 111.176 108.729 111.087 108.7 111.058L108.23 111.532Z" fill="white"/>
<path d="M57.1708 143.588C59.7151 135.008 73.1405 116.597 73.1405 116.597C73.1405 116.597 87.698 111.926 82.0016 126.775L71.4939 145.585C71.4939 145.585 57.8362 156.291 57.1708 143.588Z" fill="#FFC7A1"/>
<path d="M85.8276 99.8169C82.1009 97.6568 79.45 100.31 78.1635 101.639C76.8769 102.969 62.8273 121.223 61.591 123.08C60.3548 124.937 68.1643 136.988 79.1076 134.905L94.4485 121.039C94.4485 121.039 99.0914 107.503 85.8276 99.8169Z" fill="#0049CD"/>
<path d="M61.4132 126.525C61.1496 126.039 61.3299 125.432 61.816 125.168C62.3021 124.904 62.9098 125.084 63.1734 125.57L62.2933 126.048L61.4132 126.525ZM79.1094 134.903L79.7803 135.646C79.644 135.769 79.4765 135.852 79.2961 135.887L79.1094 134.903ZM93.5727 120.492C93.9831 120.121 94.6163 120.153 94.9868 120.563C95.3573 120.974 95.325 121.607 94.9146 121.977L94.2437 121.235L93.5727 120.492ZM62.2933 126.048L63.1734 125.57C64.2039 127.47 66.2524 129.946 69.0127 131.75C71.7591 133.545 75.1496 134.638 78.9226 133.92L79.1094 134.903L79.2961 135.887C74.8928 136.725 70.9812 135.429 67.9166 133.426C64.866 131.432 62.5946 128.703 61.4132 126.525L62.2933 126.048ZM79.1094 134.903L78.4384 134.161L93.5727 120.492L94.2437 121.235L94.9146 121.977L79.7803 135.646L79.1094 134.903Z" fill="#00338F"/>
<path d="M160.149 91.9723C160.958 99.8831 160.832 108.305 161.353 116.243C162.42 132.513 161.129 136.071 160.739 138.944C160.346 141.836 153.855 143.847 151.392 141.962C143.297 135.767 148.14 111.645 151.295 94.5114C154.249 89.9491 160.149 91.9723 160.149 91.9723Z" fill="#FFC7A1"/>
<path d="M151.38 96.5712C151.38 96.5712 148.543 91.2638 147.703 88.0016C147.096 85.6388 146.554 81.9733 146.571 81.4614C146.71 77.5839 145.436 71.202 146.877 70.4683C150.826 68.4551 151.2 73.5813 152.315 79.2506L159.201 75.3705C159.201 75.3705 166.513 72.8082 167.007 76.1771C167.231 77.7084 165.179 78.5482 165.179 78.5482C165.179 78.5482 167.149 78.2526 167.888 80.0457C168.905 82.5118 165.327 83.3427 165.327 83.3427C165.327 83.3427 167.521 82.979 168.011 84.9583C168.528 87.0493 165.437 87.6191 165.437 87.6191C165.437 87.6191 170.146 87.8545 168.722 90.5338C167.685 92.4889 158.649 93.6047 158.649 93.6047L151.38 96.5712Z" fill="#FFC7A1"/>
<path d="M162.887 74.0301C163.254 73.9487 163.625 74.1751 163.716 74.5357C163.807 74.8963 163.583 75.2546 163.216 75.336L163.051 74.683L162.887 74.0301ZM158.649 76.2584L158.374 75.6399L158.375 75.6396L158.649 76.2584ZM156.908 77.3064L156.397 76.8511L156.398 76.8501L156.908 77.3064ZM156.485 79.1772L157.113 78.9218L157.113 78.9219L156.485 79.1772ZM160.187 79.8717L159.976 79.2309L159.976 79.2308L160.187 79.8717ZM165.18 77.8141C165.54 77.7074 165.926 77.9079 166.042 78.2618C166.159 78.6158 165.961 78.9892 165.602 79.0959L165.391 78.455L165.18 77.8141ZM163.051 74.683L163.216 75.336C161.707 75.6703 160.452 76.2553 158.923 76.8772L158.649 76.2584L158.375 75.6396C159.827 75.049 161.232 74.3967 162.887 74.0301L163.051 74.683ZM158.649 76.2584L158.924 76.8769C158.286 77.1371 157.771 77.385 157.419 77.7627L156.908 77.3064L156.398 76.8501C156.969 76.2375 157.74 75.8986 158.374 75.6399L158.649 76.2584ZM156.908 77.3064L157.42 77.7617C157.073 78.1356 156.975 78.6108 157.113 78.9218L156.485 79.1772L155.858 79.4326C155.437 78.4842 155.824 77.4686 156.397 76.8511L156.908 77.3064ZM156.485 79.1772L157.113 78.9219C157.251 79.2342 157.676 79.5036 158.209 79.5435L158.17 80.211L158.132 80.8784C157.286 80.8149 156.273 80.3703 155.857 79.4325L156.485 79.1772ZM158.17 80.211L158.209 79.5435C158.749 79.5841 159.3 79.4316 159.976 79.2309L160.187 79.8717L160.398 80.5125C159.764 80.701 158.97 80.9412 158.132 80.8784L158.17 80.211ZM160.187 79.8717L159.976 79.2308C160.943 78.9442 161.778 78.7286 162.601 78.516C163.426 78.303 164.239 78.093 165.18 77.8141L165.391 78.455L165.602 79.0959C164.635 79.3825 163.8 79.5981 162.976 79.8108C162.152 80.0237 161.339 80.2338 160.398 80.5126L160.187 79.8717Z" fill="#EA989D"/>
<path d="M163.386 78.3663C163.746 78.2601 164.132 78.4611 164.248 78.8152C164.364 79.1693 164.166 79.5424 163.806 79.6486L163.596 79.0075L163.386 78.3663ZM158.881 80.7545L158.606 80.136L158.607 80.1357L158.881 80.7545ZM157.142 81.803L157.653 82.2584L157.652 82.2593L157.142 81.803ZM156.718 83.6743L157.345 83.4189L157.345 83.419L156.718 83.6743ZM160.419 84.3688L160.631 85.0096L160.63 85.0096L160.419 84.3688ZM165.411 82.3103C165.771 82.2034 166.157 82.4037 166.274 82.7576C166.391 83.1115 166.194 83.485 165.834 83.5919L165.623 82.9511L165.411 82.3103ZM163.596 79.0075L163.806 79.6486C162.317 80.0878 160.654 80.7635 159.155 81.3733L158.881 80.7545L158.607 80.1357C160.091 79.5321 161.819 78.8283 163.386 78.3663L163.596 79.0075ZM158.881 80.7545L159.155 81.373C158.518 81.6333 158.004 81.8809 157.653 82.2584L157.142 81.803L156.63 81.3477C157.201 80.7337 157.972 80.3946 158.606 80.136L158.881 80.7545ZM157.142 81.803L157.652 82.2593C157.305 82.6318 157.207 83.1075 157.345 83.4189L156.718 83.6743L156.09 83.9297C155.67 82.9815 156.055 81.9646 156.631 81.3467L157.142 81.803ZM156.718 83.6743L157.345 83.419C157.483 83.7301 157.908 83.9997 158.441 84.0396L158.402 84.707L158.364 85.3744C157.518 85.311 156.505 84.8665 156.09 83.9295L156.718 83.6743ZM158.402 84.707L158.441 84.0396C158.981 84.0802 159.534 83.9279 160.208 83.7279L160.419 84.3688L160.63 85.0096C159.996 85.1978 159.201 85.4373 158.364 85.3744L158.402 84.707ZM160.419 84.3688L160.208 83.728C161.175 83.4408 162.01 83.2252 162.833 83.0125C163.658 82.7996 164.471 82.5896 165.411 82.3103L165.623 82.9511L165.834 83.5919C164.867 83.879 164.032 84.0946 163.208 84.3073C162.384 84.5203 161.571 84.7303 160.631 85.0096L160.419 84.3688Z" fill="#EA989D"/>
<path d="M163.996 82.7873C164.363 82.7059 164.735 82.9323 164.825 83.2929C164.916 83.6536 164.692 84.0119 164.325 84.0932L164.16 83.4403L163.996 82.7873ZM159.113 85.2505L158.838 84.632L158.839 84.6317L159.113 85.2505ZM157.374 86.2991L157.885 86.7544L157.884 86.7554L157.374 86.2991ZM156.95 88.1703L157.577 87.9149L157.577 87.9151L156.95 88.1703ZM160.651 88.8648L160.863 89.5056L160.862 89.5057L160.651 88.8648ZM165.943 86.6632C166.303 86.5563 166.69 86.7566 166.806 87.1105C166.923 87.4644 166.726 87.8379 166.366 87.9448L166.155 87.304L165.943 86.6632ZM164.16 83.4403L164.325 84.0932C162.815 84.4277 160.913 85.2488 159.387 85.8693L159.113 85.2505L158.839 84.6317C160.296 84.0389 162.342 83.1538 163.996 82.7873L164.16 83.4403ZM159.113 85.2505L159.387 85.869C158.75 86.1293 158.236 86.377 157.885 86.7544L157.374 86.2991L156.862 85.8437C157.433 85.2297 158.204 84.8906 158.838 84.632L159.113 85.2505ZM157.374 86.2991L157.884 86.7554C157.537 87.1278 157.439 87.6036 157.577 87.9149L156.95 88.1703L156.322 88.4257C155.902 87.4775 156.287 86.4607 156.863 85.8427L157.374 86.2991ZM156.95 88.1703L157.577 87.9151C157.715 88.2262 158.14 88.4957 158.673 88.5357L158.634 89.2031L158.596 89.8705C157.75 89.8071 156.737 89.3626 156.322 88.4256L156.95 88.1703ZM158.634 89.2031L158.673 88.5357C159.213 88.5763 159.766 88.424 160.44 88.224L160.651 88.8648L160.862 89.5057C160.228 89.6939 159.433 89.9334 158.596 89.8705L158.634 89.2031ZM160.651 88.8648L160.44 88.224C161.401 87.9387 162.306 87.6884 163.204 87.44C164.104 87.1912 164.997 86.9442 165.943 86.6632L166.155 87.304L166.366 87.9448C165.405 88.2301 164.5 88.4804 163.602 88.7288C162.702 88.9776 161.809 89.2245 160.863 89.5056L160.651 88.8648Z" fill="#EA989D"/>
<path d="M165.131 86.9705C165.499 86.8891 165.87 87.1155 165.961 87.4762C166.051 87.8368 165.827 88.1951 165.46 88.2764L165.296 87.6234L165.131 86.9705ZM161.254 89.0704L161.529 89.689L161.528 89.6894L161.254 89.0704ZM159.657 90.0321L160.168 90.4876L160.168 90.4884L159.657 90.0321ZM159.268 91.7497L158.64 92.0056L158.64 92.0047L159.268 91.7497ZM160.814 92.6982L160.776 93.3656L160.775 93.3656L160.814 92.6982ZM162.666 92.3872L162.454 91.7465L162.454 91.7464L162.666 92.3872ZM167.232 90.4452C167.592 90.3385 167.979 90.5389 168.095 90.8929C168.212 91.2468 168.014 91.6203 167.654 91.727L167.443 91.0861L167.232 90.4452ZM165.296 87.6234L165.46 88.2764C164.081 88.5819 162.935 89.1159 161.529 89.689L161.254 89.0704L160.98 88.4518C162.31 87.9095 163.606 87.3084 165.131 86.9705L165.296 87.6234ZM161.254 89.0704L161.528 89.6894C160.943 89.9266 160.482 90.1504 160.168 90.4876L159.657 90.0321L159.146 89.5766C159.679 89.0027 160.398 88.6879 160.981 88.4514L161.254 89.0704ZM159.657 90.0321L160.168 90.4884C159.858 90.8201 159.78 91.2347 159.895 91.4946L159.268 91.7497L158.64 92.0047C158.243 91.1086 158.608 90.1534 159.146 89.5759L159.657 90.0321ZM159.268 91.7497L159.895 91.4937C160.011 91.7547 160.377 91.9949 160.853 92.0308L160.814 92.6982L160.775 93.3656C159.986 93.306 159.033 92.8904 158.64 92.0056L159.268 91.7497ZM160.814 92.6982L160.852 92.0308C161.337 92.067 161.834 91.9311 162.454 91.7465L162.666 92.3872L162.878 93.0278C162.296 93.2011 161.558 93.4241 160.776 93.3656L160.814 92.6982ZM162.666 92.3872L162.454 91.7464C163.344 91.4822 164.111 91.2839 164.867 91.0887C165.625 90.8932 166.37 90.7009 167.232 90.4452L167.443 91.0861L167.654 91.727C166.766 91.9905 165.998 92.1884 165.242 92.3835C164.485 92.5789 163.74 92.7716 162.877 93.0279L162.666 92.3872Z" fill="#EA989D"/>
<path d="M155.628 87.3675C155.576 87.7333 155.228 87.9822 154.853 87.9233C154.477 87.8645 154.216 87.5201 154.268 87.1543L154.948 87.2609L155.628 87.3675ZM151.719 80.7264L151.447 81.337C151.109 81.1879 150.946 80.8077 151.077 80.4746L151.719 80.7264ZM150.653 74.581C150.514 74.2336 150.687 73.8474 151.04 73.7185C151.393 73.5897 151.792 73.7669 151.931 74.1143L151.292 74.3477L150.653 74.581ZM154.948 87.2609L154.268 87.1543C154.415 86.1355 154.202 84.8804 153.68 83.7607C153.156 82.6367 152.367 81.7431 151.447 81.337L151.719 80.7264L151.991 80.1158C153.323 80.704 154.316 81.9129 154.928 83.2251C155.541 84.5417 155.817 86.0567 155.628 87.3675L154.948 87.2609ZM151.719 80.7264L151.077 80.4746C151.372 79.726 151.445 78.6813 151.342 77.5713C151.241 76.4718 150.974 75.3824 150.653 74.581L151.292 74.3477L151.931 74.1143C152.304 75.0466 152.598 76.263 152.71 77.4777C152.821 78.6818 152.761 79.9597 152.36 80.9782L151.719 80.7264Z" fill="#EA989D"/>
<path d="M124.731 52.2441C124.731 52.2441 123.094 50.4313 120.129 48.5844C122.28 47.9314 123.028 47.1041 123.028 47.1041C119.144 46.6636 115.408 45.9797 113.083 45.5138C112.337 45.3153 111.557 45.1511 110.749 45.0212C110.72 45.0146 110.694 45.0083 110.694 45.0083L110.704 45.014C108.406 44.6458 105.872 44.5771 103.124 45.0025C97.6195 45.8541 96.0588 52.2223 96.0588 52.2223C96.0588 52.2223 91.587 53.342 90.9569 54.1429C90.6549 54.526 89.2751 56.4451 88.5956 60.1347L88.5945 60.1316C88.5945 60.1316 87.2072 66.2791 85.7044 68.0153C85.7044 68.0153 87.0421 67.5521 88.305 66.762C88.5557 70.063 89.3741 74.0492 91.1588 78.7843C92.9724 83.5945 103.679 86.0295 103.679 86.0295L127.71 76.7262C127.71 76.7262 133.383 58.5039 124.731 52.2441Z" fill="#12161C"/>
<path fill-rule="evenodd" clip-rule="evenodd" d="M97.884 86.113L101.09 90.8264L105.298 85.4869L99.0613 86.2963" fill="#12161C"/>
<path d="M116.958 55.6576L98.3841 62.6462L93.9698 70.6526C93.7594 75.6037 95.3181 80.6842 98.303 84.746C100.678 87.9776 104.248 91.169 107.346 92.3643C114.197 95.0072 124.887 90.3304 126.951 85.1169C127.595 83.4888 127.593 81.629 127.75 79.8537C128.213 77.0263 127.476 70.9816 127.018 69.3024C125.534 63.6268 122.071 58.3237 116.958 55.6576Z" fill="#FFC7A1"/>
<path d="M93.1422 74.2468C88.9471 75.4217 88.9688 80.5452 91.0525 83.6375C93.2342 86.8761 97.7965 87.6645 100.921 85.329C100.991 85.2773 101.002 85.1563 100.989 85.0049C101.127 84.0953 101.204 81.352 98.1709 77.858C98.1709 77.858 96.0168 73.2169 93.1422 74.2468Z" fill="#FFC7A1"/>
<path d="M97.5083 78.6527C95.6374 77.2255 93.2572 76.901 91.0583 77.7059C89.7981 78.1671 90.6238 80.0805 91.8842 79.6206C93.3883 79.0702 94.987 79.3498 96.2503 80.316C97.3189 81.1322 98.5756 79.4691 97.5083 78.6527Z" fill="#EA989D"/>
<path d="M116.74 79.5924C116.665 79.9515 116.312 80.1816 115.953 80.1061C115.593 80.0307 115.363 79.6783 115.439 79.3191L116.089 79.4557L116.74 79.5924ZM114.15 78.344C113.857 78.5652 113.44 78.5071 113.218 78.2143C112.997 77.9214 113.055 77.5047 113.348 77.2834L113.749 77.8137L114.15 78.344ZM116.089 79.4557C115.439 79.3191 115.439 79.3193 115.438 79.3195C115.438 79.3195 115.438 79.3197 115.438 79.3198C115.438 79.3199 115.438 79.32 115.438 79.32C115.438 79.3201 115.438 79.3199 115.438 79.3195C115.439 79.3187 115.439 79.3169 115.44 79.3143C115.441 79.3091 115.442 79.3003 115.445 79.2883C115.449 79.2644 115.456 79.2278 115.463 79.181C115.478 79.0869 115.497 78.9543 115.51 78.8024C115.538 78.4822 115.536 78.1428 115.473 77.8993C115.442 77.7811 115.407 77.7298 115.394 77.7147C115.393 77.7139 115.402 77.716 115.388 77.7144C115.293 77.7039 114.931 77.7546 114.15 78.344L113.749 77.8137L113.348 77.2834C114.163 76.6682 114.891 76.322 115.535 76.3934C116.306 76.4792 116.637 77.0936 116.76 77.5633C116.882 78.0315 116.867 78.5543 116.835 78.9183C116.819 79.1087 116.795 79.2737 116.777 79.3918C116.767 79.4511 116.758 79.4991 116.752 79.5333C116.749 79.5504 116.746 79.5641 116.744 79.5741C116.743 79.579 116.742 79.5831 116.742 79.5861C116.741 79.5877 116.741 79.589 116.741 79.59C116.741 79.5905 116.741 79.591 116.741 79.5914C116.741 79.5916 116.741 79.5918 116.74 79.5919C116.74 79.5921 116.74 79.5924 116.089 79.4557Z" fill="#12161C"/>
<path d="M106.664 83.6981C106.499 84.1692 106.692 85.132 107.395 85.9761C108.079 86.8022 109.442 87.7986 112.087 87.896C114.684 87.9906 115.986 87.0841 116.689 86.3502C118.306 84.6598 117.12 82.9298 116.216 82.7094C115.256 82.4757 114.202 83.7082 112.382 83.6549C111.068 83.6166 109.516 82.4981 108.994 82.4187C107.839 82.2571 107.008 82.7048 106.664 83.6981Z" fill="#12161C"/>
<mask id="mask2_20327_122639" style="mask-type:luminance" maskUnits="userSpaceOnUse" x="106" y="82" width="12" height="6">
<path d="M108.994 82.4184C109.516 82.4978 111.068 83.6164 112.382 83.6547C113.232 83.6799 113.915 83.4237 114.499 83.1676C115.166 82.8764 115.705 82.5842 116.216 82.7091C117.119 82.9286 118.306 84.6595 116.688 86.35C115.986 87.0838 114.683 87.9904 112.087 87.8958C109.442 87.7983 108.079 86.8019 107.395 85.9749C106.691 85.1308 106.499 84.169 106.664 83.6969C106.963 82.8372 107.624 82.3868 108.547 82.3864C108.689 82.3863 108.838 82.3967 108.994 82.4184Z" fill="white"/>
</mask>
<g mask="url(#mask2_20327_122639)">
<path d="M108.043 89.7062C108.254 91.3416 110.011 92.4627 111.967 92.2118C113.923 91.9591 115.338 90.4298 115.128 88.7943C114.916 87.159 113.16 86.0369 111.204 86.2887C109.247 86.5406 107.833 88.0698 108.043 89.7062Z" fill="#EB5757"/>
<path d="M118.122 82.5199C118.122 82.5199 115.886 85.1633 112.132 84.9611C108.376 84.758 104.983 81.9957 104.983 81.9957C104.983 81.9957 112.274 79.6629 118.122 82.5199Z" fill="white"/>
</g>
<path d="M108.994 82.4184C109.516 82.4978 111.068 83.6164 112.382 83.6547C113.232 83.6799 113.915 83.4237 114.499 83.1676C115.166 82.8764 115.705 82.5842 116.216 82.7091C117.119 82.9286 118.306 84.6595 116.688 86.35C115.986 87.0838 114.683 87.9904 112.087 87.8958C109.442 87.7983 108.079 86.8019 107.395 85.9749C106.691 85.1308 106.499 84.169 106.665 83.6969C106.963 82.8372 107.624 82.3868 108.547 82.3864C108.689 82.3863 108.838 82.3967 108.994 82.4184Z" stroke="#12161C" stroke-width="0.99851" stroke-miterlimit="2" stroke-linejoin="round"/>
<path d="M108.032 74.7902C108.399 76.4107 108.088 77.9457 107.578 78.9078C107.066 79.8892 106.357 80.2965 105.871 80.1254C104.879 79.703 104.739 77.6431 104.245 75.6071L104.244 75.6026C104.195 75.3401 104.312 75.0737 104.541 74.936L105.641 74.2793L104.143 73.7464C103.934 73.6722 103.779 73.4937 103.734 73.2761C103.509 72.1918 103.421 71.2996 103.86 70.8219C104.232 70.4649 105.046 70.5436 105.918 71.2265C106.78 71.8929 107.698 73.1637 108.032 74.7902Z" fill="#12161C"/>
<path d="M121.748 73.1203C122.115 74.7408 121.804 76.2758 121.294 77.2379C120.782 78.2192 120.073 78.6266 119.587 78.4554C118.595 78.0331 118.455 75.9732 117.961 73.9372L117.96 73.9327C117.91 73.6702 118.027 73.4038 118.257 73.2661L119.356 72.6094L117.859 72.0764C117.65 72.0022 117.494 71.8238 117.45 71.6062C117.225 70.5219 117.137 69.6297 117.576 69.152C117.948 68.795 118.762 68.8737 119.634 69.5566C120.495 70.223 121.413 71.4937 121.748 73.1203Z" fill="#12161C"/>
<path d="M120.852 67.9926C121.017 68.3204 121.417 68.4524 121.745 68.2873C122.073 68.1222 122.205 67.7226 122.04 67.3948L121.446 67.6937L120.852 67.9926ZM115.237 67.0719C114.997 67.35 115.028 67.7697 115.307 68.0091C115.585 68.2485 116.005 68.2171 116.245 67.9389L115.741 67.5054L115.237 67.0719ZM121.446 67.6937C122.04 67.3948 122.04 67.3945 122.04 67.3942C122.04 67.394 122.039 67.3937 122.039 67.3934C122.039 67.3929 122.039 67.3923 122.038 67.3916C122.038 67.3903 122.037 67.3887 122.036 67.3868C122.034 67.3831 122.032 67.3784 122.029 67.3726C122.023 67.3612 122.014 67.3458 122.004 67.3269C121.983 67.289 121.954 67.2369 121.915 67.1737C121.839 67.0476 121.727 66.8753 121.581 66.6836C121.293 66.3064 120.848 65.8223 120.25 65.4813C119.637 65.1321 118.86 64.9328 117.964 65.1564C117.085 65.3758 116.176 65.9815 115.237 67.0719L115.741 67.5054L116.245 67.9389C117.075 66.9746 117.764 66.5765 118.287 66.4459C118.792 66.3197 119.22 66.4243 119.591 66.6358C119.977 66.8555 120.294 67.1891 120.523 67.4893C120.635 67.6362 120.721 67.7676 120.777 67.8605C120.805 67.9067 120.825 67.9429 120.838 67.966C120.844 67.9776 120.848 67.9858 120.851 67.9904C120.852 67.9927 120.853 67.994 120.853 67.9944C120.853 67.9946 120.853 67.9946 120.853 67.9943C120.853 67.9941 120.853 67.9939 120.853 67.9936C120.852 67.9935 120.852 67.9932 120.852 67.9932C120.852 67.9929 120.852 67.9926 121.446 67.6937Z" fill="#12161C"/>
<path d="M107.309 68.8816C107.565 69.1443 107.986 69.1494 108.249 68.8931C108.512 68.6367 108.517 68.216 108.261 67.9533L107.785 68.4174L107.309 68.8816ZM106.417 67.6121L106.64 66.9862L106.64 66.9861L106.417 67.6121ZM98.837 72.6389C98.8119 73.0051 99.0886 73.3223 99.4551 73.3474C99.8215 73.3725 100.139 73.0961 100.164 72.7299L99.5005 72.6844L98.837 72.6389ZM107.785 68.4174L108.261 67.9533C107.862 67.5457 107.282 67.2149 106.64 66.9862L106.417 67.6121L106.193 68.2381C106.713 68.4232 107.095 68.6631 107.309 68.8816L107.785 68.4174ZM106.417 67.6121L106.64 66.9861C105.308 66.5118 103.476 66.3963 101.894 67.1937C100.262 68.0158 99.0358 69.7361 98.837 72.6389L99.5005 72.6844L100.164 72.7299C100.338 70.1956 101.363 68.95 102.493 68.3805C103.672 67.7862 105.112 67.8531 106.194 68.2381L106.417 67.6121Z" fill="#12161C"/>
<path d="M106.934 58.9447C108.294 60.0288 112.652 62.9032 112.652 62.9032C112.652 62.9032 117.399 65.7859 122.51 65.4332C122.51 65.4332 121.658 63.173 121.36 62.386C121.064 61.5983 122.528 64.5226 125.769 65.5923C125.769 65.5923 124.052 55.2095 121.011 52.9702C116.792 49.8619 106.76 50.8174 104.021 54.1062C102.994 55.3411 105.83 58.0643 106.934 58.9447Z" fill="#12161C"/>
<path d="M94.1688 67.5976C95.1629 69.5573 96.1186 74.5511 98.1715 78.4365C98.1715 78.4365 94.1875 76.4335 92.4137 71.4481C92.4137 71.4481 91.2147 65.7031 94.1688 67.5976Z" fill="#12161C"/>
<path d="M98.3842 62.6488C98.3842 62.6488 97.2332 55.4263 100.087 54.8371C107.309 53.3444 108.358 61.7029 114.084 66.9685C114.084 66.9685 108.033 67.819 105.995 64.5038C105.995 64.5038 107.689 68.1381 108.27 69.1569C108.27 69.1569 105.261 68.7434 102.616 61.2048L98.3842 62.6488Z" fill="#12161C"/>
<path d="M98.3844 62.6498L101.526 56.9409L102.616 61.2058L98.3844 62.6498Z" fill="#595C60"/>
<path d="M74.6282 117.867C74.6282 120.048 72.8598 121.815 70.6775 121.815C68.4969 121.815 66.7285 120.048 66.7285 117.867C66.7285 115.688 68.4969 113.919 70.6775 113.919C72.8598 113.919 74.6282 115.688 74.6282 117.867ZM69.8215 244.92C72.2174 246.166 74.9378 246.868 77.8255 246.868H81.7597V171.248H82.5693C84.7335 171.248 86.5051 169.48 86.5051 167.317C86.5051 166.391 86.1641 165.545 85.621 164.872C96.4945 159.517 103.977 148.337 103.977 135.404C103.977 117.268 89.2637 102.566 71.1146 102.566C52.964 102.566 38.249 117.268 38.249 135.404C38.249 148.337 45.7332 159.517 56.605 164.872C56.0619 165.545 55.7225 166.391 55.7225 167.317C55.7225 169.48 57.4942 171.248 59.6583 171.248H60.4663V195.519L64.8641 198.306L60.4663 203.128V216.343L65.0959 223.281L60.4663 228.46V229.525C60.4663 236.219 64.263 242.028 69.8215 244.92Z" fill="#FFBB59"/>
<path d="M75.9351 247.273V179.227C75.9351 177.509 74.5293 176.105 72.8106 176.105C71.0919 176.105 69.6861 177.509 69.6861 179.227V245.366" stroke="white" stroke-width="2.00216" stroke-miterlimit="10" stroke-linecap="round" stroke-linejoin="round"/>
<path d="M81.7603 171.25H59.9652" stroke="#FB9243" stroke-width="2.00216" stroke-miterlimit="10" stroke-linecap="round" stroke-linejoin="round"/>
<path d="M85.6216 164.871H57.4203" stroke="white" stroke-width="2.00216" stroke-miterlimit="10" stroke-linecap="round" stroke-linejoin="round"/>
<path d="M93.8558 131.984C93.8558 144.731 83.5145 155.064 70.7577 155.064C58.001 155.064 47.6597 144.731 47.6597 131.984C47.6597 119.237 58.001 108.904 70.7577 108.904C83.5145 108.904 93.8558 119.237 93.8558 131.984Z" stroke="#FB9243" stroke-width="2.00256" stroke-miterlimit="10"/>
<path d="M53.3024 111.151C52.6372 112.008 51.021 111.87 49.6935 110.842C48.3645 109.815 47.8271 108.287 48.4898 107.429C49.1556 106.571 50.7712 106.71 52.1009 107.736C53.4284 108.764 53.9674 110.292 53.3024 111.151Z" fill="#FFC7A1"/>
<path d="M48.4905 107.428C49.155 106.57 50.771 106.708 52.1 107.736C53.429 108.763 53.9676 110.292 53.3031 111.15C52.6386 112.008 51.0225 111.87 49.6935 110.842C48.3646 109.815 47.8259 108.286 48.4905 107.428Z" stroke="#EA989D" stroke-width="1.33778" stroke-miterlimit="10"/>
<path d="M49.9655 114.856C49.3003 115.713 47.6841 115.575 46.3566 114.548C45.0276 113.52 44.4902 111.992 45.1529 111.134C45.8187 110.276 47.4343 110.415 48.764 111.442C50.0914 112.47 50.6305 113.997 49.9655 114.856Z" fill="#FFC7A1"/>
<path d="M45.1535 111.133C45.8181 110.275 47.4341 110.413 48.7631 111.441C50.0921 112.469 50.6307 113.997 49.9662 114.855C49.3016 115.713 47.6856 115.575 46.3566 114.548C45.0277 113.52 44.489 111.991 45.1535 111.133Z" stroke="#EA989D" stroke-width="1.33778" stroke-miterlimit="10"/>
<path d="M48.1408 118.356C47.4756 119.213 45.8594 119.075 44.5319 118.048C43.2029 117.02 42.6655 115.492 43.3281 114.634C43.994 113.776 45.6095 113.915 46.9393 114.942C48.2667 115.97 48.8058 117.497 48.1408 118.356Z" fill="#FFC7A1"/>
<path d="M43.3288 114.633C43.9934 113.775 45.6094 113.913 46.9384 114.941C48.2674 115.969 48.806 117.497 48.1415 118.355C47.4769 119.213 45.8609 119.075 44.5319 118.048C43.203 117.02 42.6643 115.491 43.3288 114.633Z" stroke="#EA989D" stroke-width="1.33778" stroke-miterlimit="10"/>
<path d="M44.7821 122.222C44.1169 123.079 42.5007 122.942 41.1725 121.915C39.8442 120.886 39.3068 119.358 39.9695 118.501C40.6353 117.643 42.2509 117.781 43.5806 118.808C44.9081 119.836 45.4471 121.364 44.7821 122.222Z" fill="#FFC7A1"/>
<path d="M39.9695 118.501C40.634 117.643 42.25 117.78 43.579 118.808C44.908 119.836 45.4466 121.364 44.7821 122.222C44.1176 123.08 42.5015 122.942 41.1725 121.915C39.8436 120.887 39.3049 119.358 39.9695 118.501Z" stroke="#EA989D" stroke-width="1.33778" stroke-miterlimit="10"/>
<path d="M174.568 45.1228L168.156 46.4546L168.111 40.1032L174.466 40.6194L174.568 45.1228Z" fill="#B2C8F0"/>
<path d="M175.553 34.7065L162.948 28.7213L169.612 19.7267L179.373 28.7503L175.553 34.7065Z" fill="#B2C8F0"/>
<path d="M184.014 25.8463L183.806 19.2812L189.05 18.8022L188.405 26.1329L184.014 25.8463Z" fill="#B2C8F0"/>
<path d="M56.3399 84.2069L52.937 86.9436L52.2391 91.1858L49.5038 87.8711L45.2293 87.2201L48.6175 84.4751L49.331 80.2416L52.0563 83.5703L56.3399 84.2069Z" fill="white"/>
<path d="M144.977 52.4766L142.614 54.3764L142.13 57.3211L140.231 55.0202L137.264 54.5683L139.616 52.6628L140.111 49.7241L142.003 52.0348L144.977 52.4766Z" fill="white"/>
<path d="M124.186 25.6754L122.565 25.6003L121.316 26.6029L121.387 25.0174L120.369 23.7922L121.988 23.8614L123.239 22.8649L123.162 24.4519L124.186 25.6754Z" fill="white"/>
<path d="M165.254 156.404L162.533 156.375L160.475 158.114L160.537 155.476L158.787 153.502L161.503 153.521L163.566 151.792L163.494 154.432L165.254 156.404Z" fill="white"/>
<path d="M244.11 20.6714L241.081 20.5295L238.767 22.414L238.87 19.4329L236.947 17.1289L239.971 17.2597L242.29 15.3868L242.175 18.3707L244.11 20.6714Z" fill="white"/>
<path d="M63.0148 60.6035C56.5959 60.6035 51.3923 55.404 51.3923 48.9902C51.3923 42.5764 56.5959 37.377 63.0148 37.377C69.4337 37.377 74.6372 42.5764 74.6372 48.9902C74.6372 55.404 69.4337 60.6035 63.0148 60.6035Z" fill="#21B531"/>
<path fill-rule="evenodd" clip-rule="evenodd" d="M69.8589 52.2638L77.7127 60.6039L69.1299 56.9863L69.8589 52.2638Z" fill="#21B531"/>
<path d="M57.7666 49.9391L61.3368 54.4487L68.4877 45.4182" stroke="white" stroke-width="2.63108" stroke-miterlimit="1.5" stroke-linecap="round" stroke-linejoin="round"/>
</g>
</g>
<defs>
<clipPath id="clip0_20327_122639">
<rect width="310" height="198" fill="white" transform="translate(21)"/>
</clipPath>
</defs>
</svg>
