<svg width="352" height="198" viewBox="0 0 352 198" fill="none" xmlns="http://www.w3.org/2000/svg">
<mask id="mask0_21458_24911" style="mask-type:luminance" maskUnits="userSpaceOnUse" x="21" y="0" width="310" height="198">
<path d="M330.5 0H21.5V198H330.5V0Z" fill="white"/>
</mask>
<g mask="url(#mask0_21458_24911)">
<path d="M38.9 24.3337C43.9033 17.2579 48.1892 12.1661 70.4794 8.70411C105.79 3.21757 257.803 3.46052 286.12 10.3541C302.479 14.3425 318.111 14.9296 319.776 43.8706C321.086 66.5861 323.516 128.274 317.7 142.345C311.883 156.416 307.31 170.476 280.304 171.721C253.297 172.966 101.647 175.861 76.7168 174.616C51.7862 173.371 38.9096 162.621 33.9254 150.2C28.9412 137.79 31.0171 71.1717 31.0171 71.1717C31.0171 71.1717 31.0649 35.4282 38.9096 24.3236L38.9 24.3337Z" fill="#EBEBF2"/>
<mask id="mask1_21458_24911" style="mask-type:luminance" maskUnits="userSpaceOnUse" x="30" y="4" width="292" height="171">
<path d="M38.9 24.3337C43.9033 17.2579 48.1892 12.1661 70.4794 8.70411C105.79 3.21757 257.803 3.46052 286.12 10.3541C302.479 14.3425 318.111 14.9296 319.776 43.8706C321.086 66.5861 323.516 128.274 317.7 142.345C311.883 156.416 307.31 170.476 280.304 171.721C253.297 172.966 101.647 175.861 76.7168 174.616C51.7862 173.371 38.9096 162.621 33.9254 150.2C28.9412 137.79 31.0171 71.1717 31.0171 71.1717C31.0171 71.1717 31.0649 35.4282 38.9096 24.3236L38.9 24.3337Z" fill="white"/>
</mask>
<g mask="url(#mask1_21458_24911)">
<path d="M30.588 -6.69336H248.707V126.926H30.588V-6.69336Z" stroke="white" stroke-width="1.33277" stroke-miterlimit="10" stroke-linecap="round" stroke-linejoin="round"/>
<path d="M30.5884 19.8477H248.707" stroke="white" stroke-width="1.33277" stroke-miterlimit="10" stroke-linecap="round" stroke-linejoin="round"/>
<path d="M30.5884 42.2793H248.707" stroke="white" stroke-width="1.33277" stroke-miterlimit="10" stroke-linecap="round" stroke-linejoin="round"/>
<path d="M30.5884 64.7109H248.707" stroke="white" stroke-width="1.33277" stroke-miterlimit="10" stroke-linecap="round" stroke-linejoin="round"/>
<path d="M30.5884 87.1445H248.707" stroke="white" stroke-width="1.33277" stroke-miterlimit="10" stroke-linecap="round" stroke-linejoin="round"/>
<path d="M30.5884 109.576H248.707" stroke="white" stroke-width="1.33277" stroke-miterlimit="10" stroke-linecap="round" stroke-linejoin="round"/>
<path d="M73.0864 20.1953V109.676" stroke="white" stroke-width="1.33277" stroke-miterlimit="10" stroke-linecap="round" stroke-linejoin="round"/>
<path d="M102.76 20.1953V109.676" stroke="white" stroke-width="1.33277" stroke-miterlimit="10" stroke-linecap="round" stroke-linejoin="round"/>
<path d="M132.433 20.1953V109.676" stroke="white" stroke-width="1.33277" stroke-miterlimit="10" stroke-linecap="round" stroke-linejoin="round"/>
<path d="M162.106 20.1953V109.676" stroke="white" stroke-width="1.33277" stroke-miterlimit="10" stroke-linecap="round" stroke-linejoin="round"/>
<path d="M191.78 20.1953V109.676" stroke="white" stroke-width="1.33277" stroke-miterlimit="10" stroke-linecap="round" stroke-linejoin="round"/>
<path fill-rule="evenodd" clip-rule="evenodd" d="M78.6851 126.785C78.6851 128.054 79.7126 129.084 80.9781 129.084H198.316C199.582 129.084 200.609 128.054 200.609 126.785C200.609 125.516 199.582 124.486 198.316 124.486H80.9781C79.7126 124.486 78.6851 125.516 78.6851 126.785Z" fill="white"/>
<path d="M38.7932 94.7984C38.7932 93.4045 39.9207 92.2745 41.3114 92.2745C42.7022 92.2745 43.8296 93.4045 43.8296 94.7984C43.8296 96.1923 42.7022 97.3223 41.3114 97.3223C39.9207 97.3223 38.7932 96.1923 38.7932 94.7984Z" stroke="white" stroke-width="0.53394" stroke-miterlimit="10"/>
<path d="M47.3135 93.6387H54.742" stroke="white" stroke-width="0.53394" stroke-miterlimit="10" stroke-linecap="round" stroke-linejoin="round"/>
<path d="M47.3135 96.7344H59.3729" stroke="white" stroke-width="0.53163" stroke-miterlimit="10" stroke-linecap="round" stroke-linejoin="round"/>
<path d="M38.7932 103.392C38.7932 101.998 39.9207 100.868 41.3114 100.868C42.7022 100.868 43.8296 101.998 43.8296 103.392C43.8296 104.786 42.7022 105.916 41.3114 105.916C39.9207 105.916 38.7932 104.786 38.7932 103.392Z" stroke="white" stroke-width="0.53394" stroke-miterlimit="10"/>
<path d="M45.7695 102.234H53.1981" stroke="white" stroke-width="0.53394" stroke-miterlimit="10" stroke-linecap="round" stroke-linejoin="round"/>
<path d="M45.7695 105.328H59.3725" stroke="white" stroke-width="0.534497" stroke-miterlimit="10" stroke-linecap="round" stroke-linejoin="round"/>
<path d="M205.701 48.3887H242.323" stroke="white" stroke-width="1.16614" stroke-miterlimit="10" stroke-linecap="round"/>
<path d="M205.701 53.1934H242.323" stroke="white" stroke-width="1.16614" stroke-miterlimit="10" stroke-linecap="round"/>
<path d="M205.701 57.998H242.323" stroke="white" stroke-width="1.16614" stroke-miterlimit="10" stroke-linecap="round"/>
<path d="M201.224 48.3887H196.81" stroke="white" stroke-width="1.16614" stroke-miterlimit="10" stroke-linecap="round"/>
<path d="M201.224 53.1934H196.81" stroke="white" stroke-width="1.16614" stroke-miterlimit="10" stroke-linecap="round"/>
<path d="M201.224 57.998H196.81" stroke="white" stroke-width="1.16614" stroke-miterlimit="10" stroke-linecap="round"/>
<path d="M43.4954 148.021L57.0085 148.042L57.4091 148.043L55.5417 148.04L43.4954 148.021ZM60.2034 194.031C60.2255 194.609 60.2532 195.167 60.2861 195.708L60.2758 195.71C60.2408 195.169 60.2123 194.609 60.1892 194.031L60.2034 194.031ZM60.4107 197.427C60.3876 197.185 60.3671 196.934 60.3476 196.683L60.3527 196.684C60.3712 196.933 60.3895 197.186 60.4107 197.427ZM74.7372 227.358C75.3008 227.36 75.7608 226.895 75.7561 226.33C75.6389 209.801 72.3302 206.674 71.7435 194.646L71.7446 194.28L71.7283 194.281C71.694 193.491 71.6695 192.667 71.6595 191.796C71.6533 191.237 71.2064 190.781 70.6478 190.78C68.4736 190.777 63.3535 190.769 61.1641 190.765C60.6004 190.764 60.1417 191.226 60.1484 191.791C60.1539 192.177 60.1611 192.555 60.1697 192.926L60.1533 192.927C60.1437 192.556 60.1355 192.178 60.131 191.792C60.1233 191.227 60.5841 190.764 61.1487 190.766L67.2942 190.775C67.8559 190.776 68.3111 190.321 68.3113 189.758L68.3152 185.897L68.6785 185.907L68.6803 184.762L68.3157 184.771L68.3299 169.489C68.3301 168.926 68.7854 168.471 69.347 168.472L71.0197 168.474C71.5813 168.476 72.0376 168.02 72.0378 167.457L72.0446 159.289C72.0458 158.726 71.5907 158.27 71.0291 158.27L67.8896 158.264C67.329 158.263 66.8739 157.807 66.8741 157.244L66.8811 149.352C66.8822 148.638 67.4616 148.058 68.1752 148.059C68.8897 148.061 69.4692 147.481 69.4693 146.766L69.4763 138.874C69.4775 138.312 69.0225 137.855 68.4608 137.854L60.7231 137.842L29.539 137.794C28.9774 137.794 28.5221 138.249 28.521 138.811L28.5139 146.676C28.5137 147.239 28.0584 147.694 27.4968 147.694L25.9137 147.692L25.9262 148.262L25.9188 157.181C25.9186 157.744 26.3726 158.2 26.9343 158.201L34.5455 158.213L28.504 158.203L28.504 158.217L28.4897 158.217L28.5033 158.787L28.4995 163.038L28.4994 163.879L28.4954 167.391C28.4952 167.953 28.9503 168.41 29.5119 168.41L30.4965 168.412C31.0582 168.413 31.5123 168.869 31.5121 169.432L31.4944 189.701C31.4932 190.264 31.9483 190.72 32.5099 190.722L48.5876 190.746L28.9473 190.717C28.3827 190.715 27.9215 191.182 27.9282 191.747C27.9671 195.469 28.236 198.425 28.6187 201.035L28.618 201.605L28.7028 201.603C29.8652 209.087 31.9283 213.863 32.0253 226.274C32.0294 226.834 32.4802 227.294 33.0387 227.295L63.2076 227.341C63.7712 227.342 64.2303 226.877 64.2265 226.313C64.2125 224.321 64.1517 222.524 64.0552 220.883C64.1606 222.529 64.2285 224.325 64.244 226.324C64.2491 226.884 64.6999 227.343 65.2584 227.345L74.7372 227.358Z" fill="white"/>
<path d="M34.6489 148.105C34.3548 148.106 34.1155 147.868 34.1145 147.574C34.1134 147.28 34.351 147.041 34.6451 147.04L34.647 147.572L34.6489 148.105ZM61.1439 146.944C61.438 146.943 61.6773 147.18 61.6783 147.474C61.6794 147.769 61.4418 148.008 61.1477 148.009L61.1458 147.476L61.1439 146.944ZM34.647 147.572L34.6451 147.04L61.1439 146.944L61.1458 147.476L61.1477 148.009L34.6489 148.105L34.647 147.572Z" fill="#EBEBF2"/>
<path d="M18.0615 151.992C17.7674 151.993 17.5281 151.755 17.5271 151.461C17.526 151.167 17.7636 150.928 18.0577 150.926L18.0596 151.459L18.0615 151.992ZM44.5565 150.831C44.8506 150.829 45.0899 151.067 45.0909 151.361C45.092 151.655 44.8544 151.895 44.5603 151.896L44.5584 151.363L44.5565 150.831ZM18.0596 151.459L18.0577 150.926L44.5565 150.831L44.5584 151.363L44.5603 151.896L18.0615 151.992L18.0596 151.459Z" fill="#EBEBF2"/>
<path d="M31.4121 158.083C31.1181 158.075 30.8863 157.83 30.8944 157.536C30.9025 157.242 31.1474 157.01 31.4414 157.018L31.4268 157.551L31.4121 158.083ZM64.9416 157.947C65.2356 157.955 65.4674 158.2 65.4592 158.494C65.4511 158.788 65.2062 159.019 64.9123 159.011L64.9269 158.479L64.9416 157.947ZM31.4268 157.551L31.4414 157.018L64.9416 157.947L64.9269 158.479L64.9123 159.011L31.4121 158.083L31.4268 157.551Z" fill="#EBEBF2"/>
<path d="M31.1261 162.081C30.832 162.076 30.5975 161.834 30.6023 161.54C30.6071 161.246 30.8494 161.012 31.1435 161.016L31.1348 161.549L31.1261 162.081ZM47.9069 161.292C48.2009 161.297 48.4354 161.539 48.4306 161.833C48.4258 162.127 48.1835 162.362 47.8894 162.357L47.8981 161.824L47.9069 161.292ZM31.1348 161.549L31.1435 161.016L47.9069 161.292L47.8981 161.824L47.8894 162.357L31.1261 162.081L31.1348 161.549Z" fill="#EBEBF2"/>
<path d="M55.5731 161.388C55.2791 161.383 55.0449 161.14 55.0501 160.846C55.0553 160.552 55.2978 160.318 55.5919 160.323L55.5825 160.855L55.5731 161.388ZM73.9095 160.647C74.2036 160.653 74.4377 160.895 74.4326 161.189C74.4274 161.483 74.1848 161.717 73.8907 161.712L73.9001 161.18L73.9095 160.647ZM55.5825 160.855L55.5919 160.323L73.9095 160.647L73.9001 161.18L73.8907 161.712L55.5731 161.388L55.5825 160.855Z" fill="#EBEBF2"/>
<path d="M33.0709 169.444C32.7769 169.436 32.5453 169.191 32.5536 168.897C32.5619 168.603 32.807 168.371 33.101 168.38L33.0859 168.912L33.0709 169.444ZM67.1653 169.345C67.4593 169.354 67.6909 169.599 67.6826 169.893C67.6743 170.187 67.4293 170.418 67.1353 170.41L67.1503 169.878L67.1653 169.345ZM33.0859 168.912L33.101 168.38L67.1653 169.345L67.1503 169.878L67.1353 170.41L33.0709 169.444L33.0859 168.912Z" fill="#EBEBF2"/>
<path d="M43.033 165.575C42.7391 165.567 42.5078 165.321 42.5165 165.027C42.5253 164.733 42.7706 164.502 43.0646 164.511L43.0488 165.043L43.033 165.575ZM66.4498 165.207C66.7437 165.216 66.975 165.462 66.9663 165.756C66.9575 166.049 66.7122 166.281 66.4182 166.272L66.434 165.74L66.4498 165.207ZM43.0488 165.043L43.0646 164.511L66.4498 165.207L66.434 165.74L66.4182 166.272L43.033 165.575L43.0488 165.043Z" fill="#EBEBF2"/>
<path d="M48.4781 154.228C48.1841 154.22 47.9521 153.975 47.9599 153.681C47.9676 153.387 48.2122 153.155 48.5062 153.163L48.4922 153.695L48.4781 154.228ZM70.2529 153.739C70.5469 153.747 70.7789 153.992 70.7712 154.286C70.7634 154.58 70.5188 154.812 70.2248 154.804L70.2389 154.272L70.2529 153.739ZM48.4922 153.695L48.5062 153.163L70.2529 153.739L70.2389 154.272L70.2248 154.804L48.4781 154.228L48.4922 153.695Z" fill="#EBEBF2"/>
<path d="M38.6025 174.486C38.3085 174.477 38.0777 174.231 38.0869 173.937C38.0961 173.643 38.3419 173.413 38.6359 173.422L38.6192 173.954L38.6025 174.486ZM68.7469 174.372C69.0408 174.381 69.2717 174.627 69.2624 174.921C69.2532 175.215 69.0074 175.445 68.7135 175.436L68.7302 174.904L68.7469 174.372ZM38.6192 173.954L38.6359 173.422L68.7469 174.372L68.7302 174.904L68.7135 175.436L38.6025 174.486L38.6192 173.954Z" fill="#EBEBF2"/>
<path d="M259.051 45.4479C259.051 58.9708 269.986 69.9328 283.476 69.9328C296.966 69.9328 307.904 58.9708 307.904 45.4479C307.904 31.9249 296.966 20.9629 283.476 20.9629C269.986 20.9629 259.051 31.9249 259.051 45.4479Z" fill="white"/>
<path d="M283.477 65.3523C294.426 65.3523 303.334 56.4226 303.334 45.4467C303.334 34.4707 294.426 25.541 283.477 25.541C272.528 25.541 263.62 34.4707 263.62 45.4467C263.62 56.4226 272.528 65.3523 283.477 65.3523Z" fill="#EBEBF2"/>
<path d="M283.253 49.1143C283.4 49.1559 283.564 49.1272 283.691 49.0283L296.593 38.9921C296.809 38.8237 296.849 38.5114 296.681 38.2935C296.512 38.0768 296.2 38.0369 295.983 38.2053L283.394 47.9982L274.257 40.5138C274.045 40.3396 273.731 40.3711 273.557 40.5848C273.384 40.7972 273.415 41.1102 273.628 41.2843L283.072 49.0196C283.127 49.0653 283.188 49.0965 283.253 49.1143Z" fill="white" stroke="white" stroke-width="1.33261" stroke-miterlimit="2" stroke-linejoin="round"/>
<path fill-rule="evenodd" clip-rule="evenodd" d="M300.774 143.287C301.485 143.287 302.158 143.599 302.618 144.141C303.079 144.682 303.279 145.398 303.167 146.102C301.378 157.288 294.865 198.003 294.865 198.003H279.382C279.382 198.003 272.186 157.385 270.193 146.142C270.068 145.434 270.262 144.707 270.722 144.156C271.183 143.605 271.863 143.287 272.58 143.287H300.774Z" fill="white"/>
<mask id="mask2_21458_24911" style="mask-type:luminance" maskUnits="userSpaceOnUse" x="270" y="143" width="34" height="56">
<path d="M300.774 143.287C301.485 143.287 302.158 143.599 302.618 144.141C303.079 144.682 303.279 145.398 303.167 146.102C301.378 157.288 294.865 198.003 294.865 198.003H279.382C279.382 198.003 272.186 157.385 270.193 146.142C270.068 145.434 270.262 144.707 270.722 144.156C271.183 143.605 271.863 143.287 272.58 143.287H300.774Z" fill="white"/>
</mask>
<g mask="url(#mask2_21458_24911)">
<path fill-rule="evenodd" clip-rule="evenodd" d="M300.774 143.287C301.485 143.287 302.158 143.599 302.618 144.141C303.079 144.682 303.279 145.398 303.167 146.102C301.378 157.288 294.865 198.003 294.865 198.003H279.382C279.382 198.003 272.186 157.385 270.193 146.142C270.068 145.434 270.262 144.707 270.722 144.156C271.183 143.605 271.863 143.287 272.58 143.287H300.774Z" fill="white"/>
<path d="M304.829 157.863H268.476V160.293H304.829V157.863Z" fill="#EBEBF2"/>
<path d="M304.829 153.006H268.476V155.435H304.829V153.006Z" fill="#EBEBF2"/>
<path d="M304.829 148.146H268.476V150.576H304.829V148.146Z" fill="#EBEBF2"/>
</g>
<path d="M276.557 135.872C276.557 135.872 260.699 132.73 256.274 121.639C251.849 110.55 268.028 102.231 276.557 108.187C285.68 114.559 276.557 135.872 276.557 135.872Z" fill="white"/>
<path d="M276.173 135.605C276.173 135.605 285.259 153.402 289.502 163.412" stroke="white" stroke-width="1.07" stroke-miterlimit="1.5" stroke-linecap="round" stroke-linejoin="round"/>
<path d="M262.844 107.799C262.844 107.799 271.93 125.596 276.173 135.605" stroke="#EBEBF2" stroke-width="1.07" stroke-miterlimit="1.5" stroke-linecap="round" stroke-linejoin="round"/>
<path d="M256.118 113.909C255.864 113.76 255.536 113.846 255.386 114.101C255.237 114.356 255.322 114.683 255.577 114.833L255.848 114.371L256.118 113.909ZM276.114 136.162C276.276 136.409 276.608 136.478 276.855 136.316C277.102 136.154 277.172 135.823 277.01 135.576L276.562 135.869L276.114 136.162ZM255.848 114.371C255.577 114.833 255.577 114.833 255.577 114.833C255.577 114.833 255.577 114.833 255.577 114.833C255.577 114.833 255.577 114.833 255.578 114.833C255.579 114.834 255.58 114.835 255.582 114.836C255.587 114.839 255.594 114.843 255.603 114.849C255.623 114.86 255.652 114.878 255.691 114.902C255.769 114.95 255.887 115.023 256.04 115.122C256.348 115.32 256.801 115.622 257.377 116.032C258.529 116.851 260.172 118.104 262.126 119.829C266.032 123.279 271.178 128.618 276.114 136.162L276.562 135.869L277.01 135.576C272.013 127.941 266.802 122.531 262.834 119.027C260.851 117.275 259.178 115.999 257.998 115.16C257.408 114.74 256.941 114.429 256.62 114.222C256.46 114.119 256.336 114.042 256.251 113.99C256.209 113.964 256.177 113.944 256.154 113.931C256.143 113.924 256.135 113.919 256.129 113.915C256.126 113.914 256.123 113.912 256.121 113.911C256.121 113.911 256.12 113.91 256.119 113.91C256.119 113.91 256.119 113.91 256.119 113.91C256.119 113.91 256.118 113.909 255.848 114.371Z" fill="#EBEBF2"/>
<path d="M255.102 121.408C254.83 121.295 254.517 121.424 254.403 121.697C254.289 121.97 254.418 122.284 254.691 122.397L254.896 121.902L255.102 121.408ZM276.206 136.264C276.426 136.461 276.764 136.441 276.961 136.221C277.157 136 277.139 135.661 276.918 135.465L276.562 135.864L276.206 136.264ZM254.896 121.902L254.691 122.397C259.273 124.302 267.426 128.418 276.206 136.264L276.562 135.864L276.918 135.465C268.032 127.524 259.772 123.349 255.102 121.408L254.896 121.902Z" fill="#EBEBF2"/>
<path d="M271.539 106.176C271.573 105.882 271.838 105.672 272.131 105.706C272.424 105.741 272.634 106.007 272.6 106.301L272.069 106.238L271.539 106.176ZM277.243 135.583C277.343 135.861 277.198 136.168 276.92 136.268C276.643 136.367 276.337 136.223 276.237 135.944L276.74 135.763L277.243 135.583ZM272.069 106.238C272.6 106.301 272.6 106.301 272.6 106.3C272.6 106.3 272.6 106.3 272.6 106.301C272.6 106.301 272.6 106.301 272.6 106.302C272.6 106.303 272.6 106.304 272.599 106.307C272.599 106.312 272.598 106.32 272.597 106.331C272.594 106.354 272.591 106.388 272.586 106.433C272.578 106.525 272.565 106.663 272.552 106.846C272.525 107.211 272.492 107.756 272.473 108.464C272.433 109.879 272.443 111.949 272.642 114.551C273.042 119.756 274.201 127.089 277.243 135.583L276.74 135.763L276.237 135.944C273.158 127.347 271.982 119.918 271.577 114.633C271.374 111.99 271.364 109.883 271.404 108.433C271.425 107.708 271.458 107.147 271.486 106.766C271.5 106.575 271.513 106.43 271.523 106.331C271.527 106.281 271.531 106.243 271.534 106.218C271.535 106.205 271.536 106.195 271.537 106.188C271.538 106.184 271.538 106.182 271.538 106.18C271.538 106.179 271.538 106.178 271.538 106.177C271.538 106.177 271.539 106.177 271.539 106.176C271.539 106.176 271.539 106.176 272.069 106.238Z" fill="#EBEBF2"/>
<path d="M278.128 109.873C278.202 109.586 278.493 109.413 278.779 109.487C279.065 109.561 279.237 109.853 279.163 110.139L278.646 110.006L278.128 109.873ZM277.264 135.719C277.288 136.013 277.07 136.272 276.775 136.297C276.481 136.321 276.223 136.102 276.199 135.808L276.732 135.763L277.264 135.719ZM278.646 110.006L279.163 110.139C277.923 114.956 276.298 123.963 277.264 135.719L276.732 135.763L276.199 135.808C275.221 123.91 276.865 114.781 278.128 109.873L278.646 110.006Z" fill="#EBEBF2"/>
<path d="M296.427 136.987C296.427 136.987 312.285 133.845 316.71 122.754C321.135 111.665 304.956 103.347 296.427 109.303C287.304 115.674 296.427 136.987 296.427 136.987Z" fill="white"/>
<path d="M296.811 136.721C296.811 136.721 287.725 154.518 283.482 164.527" stroke="white" stroke-width="1.07" stroke-miterlimit="1.5" stroke-linecap="round" stroke-linejoin="round"/>
<path d="M310.14 108.914C310.14 108.914 301.054 126.711 296.811 136.72" stroke="#EBEBF2" stroke-width="1.07" stroke-miterlimit="1.5" stroke-linecap="round" stroke-linejoin="round"/>
<path d="M316.866 115.025C317.12 114.875 317.448 114.961 317.598 115.216C317.747 115.471 317.662 115.799 317.407 115.948L317.136 115.486L316.866 115.025ZM296.869 137.277C296.708 137.524 296.376 137.594 296.129 137.432C295.882 137.27 295.812 136.938 295.974 136.691L296.422 136.984L296.869 137.277ZM317.136 115.486C317.407 115.948 317.407 115.948 317.407 115.948C317.407 115.948 317.407 115.948 317.407 115.948C317.407 115.948 317.407 115.948 317.406 115.948C317.405 115.949 317.404 115.95 317.401 115.951C317.397 115.954 317.39 115.958 317.38 115.964C317.361 115.975 317.332 115.993 317.293 116.017C317.215 116.065 317.097 116.138 316.943 116.237C316.636 116.435 316.183 116.737 315.607 117.147C314.455 117.967 312.811 119.219 310.858 120.944C306.951 124.395 301.806 129.734 296.869 137.277L296.422 136.984L295.974 136.691C300.97 129.056 306.182 123.646 310.15 120.142C312.133 118.39 313.806 117.114 314.986 116.275C315.576 115.855 316.043 115.544 316.364 115.338C316.524 115.234 316.648 115.157 316.733 115.105C316.775 115.079 316.807 115.059 316.83 115.046C316.841 115.039 316.849 115.034 316.855 115.031C316.858 115.029 316.861 115.028 316.862 115.027C316.863 115.026 316.864 115.026 316.864 115.025C316.865 115.025 316.865 115.025 316.865 115.025C316.865 115.025 316.866 115.025 317.136 115.486Z" fill="#EBEBF2"/>
<path d="M317.882 122.523C318.154 122.41 318.467 122.539 318.581 122.812C318.695 123.086 318.566 123.399 318.293 123.512L318.087 123.018L317.882 122.523ZM296.778 137.379C296.558 137.576 296.22 137.557 296.023 137.336C295.826 137.115 295.845 136.777 296.065 136.58L296.422 136.98L296.778 137.379ZM318.087 123.018L318.293 123.512C313.71 125.417 305.558 129.533 296.778 137.379L296.422 136.98L296.065 136.58C304.952 128.639 313.212 124.464 317.882 122.523L318.087 123.018Z" fill="#EBEBF2"/>
<path d="M301.445 107.291C301.411 106.997 301.146 106.787 300.853 106.822C300.559 106.856 300.35 107.122 300.384 107.416L300.915 107.354L301.445 107.291ZM295.741 136.698C295.641 136.976 295.786 137.283 296.063 137.383C296.341 137.483 296.647 137.338 296.747 137.059L296.244 136.879L295.741 136.698ZM300.915 107.354C300.384 107.416 300.384 107.416 300.384 107.416C300.384 107.416 300.384 107.416 300.384 107.416C300.384 107.416 300.384 107.416 300.384 107.417C300.384 107.418 300.384 107.42 300.385 107.422C300.385 107.427 300.386 107.436 300.387 107.447C300.39 107.469 300.393 107.503 300.397 107.549C300.406 107.64 300.418 107.778 300.432 107.961C300.459 108.327 300.491 108.871 300.511 109.579C300.551 110.994 300.541 113.064 300.342 115.666C299.942 120.871 298.783 128.204 295.741 136.698L296.244 136.879L296.747 137.059C299.825 128.463 301.001 121.033 301.407 115.748C301.61 113.105 301.62 110.998 301.58 109.548C301.559 108.823 301.526 108.263 301.498 107.881C301.484 107.691 301.471 107.545 301.461 107.446C301.457 107.396 301.453 107.359 301.45 107.333C301.448 107.32 301.447 107.31 301.447 107.303C301.446 107.299 301.446 107.297 301.446 107.295C301.446 107.294 301.446 107.293 301.445 107.292C301.445 107.292 301.445 107.292 301.445 107.292C301.445 107.291 301.445 107.291 300.915 107.354Z" fill="#EBEBF2"/>
<path d="M294.856 110.988C294.782 110.701 294.491 110.529 294.205 110.602C293.919 110.676 293.747 110.968 293.821 111.254L294.338 111.121L294.856 110.988ZM295.72 136.834C295.695 137.129 295.914 137.388 296.208 137.412C296.503 137.437 296.761 137.218 296.785 136.923L296.252 136.878L295.72 136.834ZM294.338 111.121L293.821 111.254C295.061 116.071 296.686 125.078 295.72 136.834L296.252 136.878L296.785 136.923C297.763 125.025 296.119 115.896 294.856 110.988L294.338 111.121Z" fill="#EBEBF2"/>
<path d="M287.171 113.34C287.171 113.34 274.163 103.699 274.882 91.7786C275.6 79.8599 293.779 79.2834 298.959 88.3237C304.5 97.994 287.171 113.34 287.171 113.34Z" fill="white"/>
<path d="M287.449 112.921C287.439 112.625 287.192 112.393 286.897 112.402C286.602 112.411 286.371 112.658 286.38 112.954L286.915 112.938L287.449 112.921ZM286.601 143.765C286.589 144.061 286.819 144.31 287.114 144.322C287.409 144.334 287.657 144.104 287.669 143.809L287.135 143.787L286.601 143.765ZM286.915 112.938C286.38 112.954 286.38 112.954 286.38 112.954C286.38 112.954 286.38 112.955 286.38 112.955C286.38 112.955 286.38 112.956 286.38 112.958C286.381 112.96 286.381 112.964 286.381 112.968C286.381 112.978 286.382 112.992 286.382 113.011C286.383 113.049 286.385 113.106 286.387 113.18C286.392 113.329 286.399 113.549 286.407 113.832C286.424 114.399 286.447 115.222 286.474 116.243C286.528 118.285 286.595 121.121 286.649 124.295C286.756 130.649 286.811 138.348 286.601 143.765L287.135 143.787L287.669 143.809C287.881 138.359 287.825 130.633 287.718 124.279C287.664 121.1 287.596 118.261 287.543 116.216C287.516 115.194 287.492 114.37 287.476 113.802C287.467 113.518 287.461 113.298 287.456 113.149C287.454 113.074 287.452 113.017 287.451 112.979C287.45 112.96 287.45 112.945 287.449 112.936C287.449 112.931 287.449 112.927 287.449 112.925C287.449 112.924 287.449 112.923 287.449 112.922C287.449 112.922 287.449 112.921 287.449 112.921C287.449 112.921 287.449 112.921 286.915 112.938Z" fill="white"/>
<path d="M287.251 82.0714C287.241 81.7758 286.994 81.5436 286.699 81.5527C286.404 81.5617 286.173 81.8087 286.182 82.1043L286.716 82.0879L287.251 82.0714ZM286.402 112.916C286.391 113.211 286.621 113.461 286.916 113.472C287.211 113.484 287.459 113.255 287.47 112.959L286.936 112.937L286.402 112.916ZM286.716 82.0879C286.182 82.1043 286.182 82.1044 286.182 82.1045C286.182 82.1047 286.182 82.1049 286.182 82.1052C286.182 82.1058 286.182 82.1067 286.182 82.1079C286.182 82.1103 286.182 82.1139 286.183 82.1187C286.183 82.1283 286.183 82.1426 286.184 82.1617C286.185 82.1997 286.187 82.2563 286.189 82.3307C286.194 82.4795 286.2 82.6992 286.209 82.9828C286.226 83.5499 286.249 84.3723 286.276 85.3933C286.329 87.4352 286.396 90.2709 286.45 93.4459C286.558 99.7995 286.613 107.499 286.402 112.916L286.936 112.937L287.47 112.959C287.682 107.509 287.627 99.7837 287.519 93.4293C287.465 90.2502 287.398 87.4111 287.344 85.3667C287.318 84.3445 287.294 83.5209 287.277 82.9527C287.269 82.6686 287.262 82.4484 287.258 82.2992C287.255 82.2246 287.254 82.1677 287.252 82.1294C287.252 82.1103 287.251 82.0958 287.251 82.0861C287.251 82.0813 287.251 82.0776 287.251 82.0752C287.251 82.0739 287.251 82.073 287.251 82.0724C287.251 82.0721 287.251 82.0718 287.251 82.0717C287.251 82.0715 287.251 82.0714 286.716 82.0879Z" fill="#EBEBF2"/>
<path d="M278.031 84.7273C277.864 84.4831 277.532 84.4203 277.288 84.5871C277.045 84.7539 276.983 85.0871 277.149 85.3313L277.59 85.0293L278.031 84.7273ZM286.646 113.418C286.687 113.711 286.958 113.915 287.25 113.875C287.542 113.834 287.746 113.563 287.705 113.271L287.175 113.344L286.646 113.418ZM277.59 85.0293C277.149 85.3313 277.149 85.3312 277.149 85.3311C277.149 85.3312 277.149 85.3311 277.149 85.3312C277.149 85.3313 277.15 85.3316 277.15 85.3321C277.15 85.3329 277.152 85.3345 277.153 85.3366C277.156 85.3409 277.16 85.3477 277.167 85.357C277.179 85.3755 277.198 85.4041 277.223 85.4426C277.273 85.5195 277.348 85.6361 277.445 85.7916C277.639 86.1027 277.921 86.5696 278.267 87.1871C278.96 88.4221 279.914 90.2591 280.946 92.6561C283.011 97.4503 285.392 104.483 286.646 113.418L287.175 113.344L287.705 113.271C286.436 104.227 284.024 97.1017 281.928 92.2331C280.879 89.7988 279.909 87.9281 279.199 86.6633C278.844 86.0309 278.554 85.5498 278.352 85.2254C278.251 85.0632 278.172 84.9402 278.117 84.857C278.09 84.8153 278.069 84.7837 278.055 84.762C278.047 84.7512 278.042 84.7429 278.038 84.7371C278.036 84.7342 278.034 84.732 278.033 84.7303C278.033 84.7295 278.032 84.7288 278.032 84.7283C278.032 84.7281 278.032 84.7278 278.032 84.7277C278.031 84.7275 278.031 84.7273 277.59 85.0293Z" fill="#EBEBF2"/>
<path d="M273.92 91.0687C273.721 90.8494 273.383 90.8323 273.164 91.0306C272.946 91.2288 272.929 91.5674 273.127 91.7867L273.523 91.4277L273.92 91.0687ZM286.682 113.554C286.797 113.827 287.111 113.954 287.383 113.839C287.655 113.724 287.782 113.41 287.666 113.137L287.174 113.346L286.682 113.554ZM273.523 91.4277L273.127 91.7867C276.461 95.4752 282.081 102.694 286.682 113.554L287.174 113.346L287.666 113.137C283.01 102.146 277.316 94.8272 273.92 91.0687L273.523 91.4277Z" fill="#EBEBF2"/>
<path d="M295.279 84.3472C295.435 84.0963 295.765 84.0198 296.015 84.1765C296.266 84.3331 296.342 84.6636 296.186 84.9145L295.732 84.6309L295.279 84.3472ZM287.904 113.375C287.876 113.669 287.614 113.885 287.321 113.856C287.027 113.828 286.812 113.566 286.84 113.271L287.372 113.323L287.904 113.375ZM295.732 84.6309C296.186 84.9145 296.186 84.9144 296.186 84.9143C296.186 84.9144 296.186 84.9144 296.186 84.9144C296.186 84.9145 296.186 84.9148 296.185 84.9153C296.185 84.9162 296.184 84.9178 296.182 84.92C296.18 84.9244 296.175 84.9313 296.17 84.9409C296.158 84.96 296.14 84.9893 296.117 85.0288C296.07 85.1077 296 85.2273 295.91 85.3867C295.73 85.7056 295.468 86.1838 295.149 86.8152C294.509 88.0779 293.636 89.953 292.708 92.3911C290.851 97.2673 288.774 104.393 287.904 113.375L287.372 113.323L286.84 113.271C287.721 104.181 289.824 96.9606 291.709 92.0087C292.652 89.5327 293.541 87.6233 294.196 86.3301C294.523 85.6834 294.792 85.1908 294.98 84.8582C295.074 84.692 295.148 84.5657 295.199 84.4803C295.224 84.4376 295.244 84.4051 295.257 84.3829C295.264 84.3718 295.269 84.3632 295.273 84.3573C295.275 84.3543 295.276 84.352 295.277 84.3503C295.278 84.3495 295.278 84.3488 295.278 84.3483C295.279 84.348 295.279 84.3478 295.279 84.3476C295.279 84.3474 295.279 84.3472 295.732 84.6309Z" fill="#EBEBF2"/>
<path d="M299.651 90.5094C299.84 90.2819 300.177 90.2507 300.404 90.4397C300.631 90.6286 300.662 90.9662 300.474 91.1937L300.062 90.8516L299.651 90.5094ZM287.874 113.511C287.771 113.788 287.463 113.929 287.186 113.825C286.91 113.721 286.77 113.413 286.873 113.136L287.374 113.324L287.874 113.511ZM300.062 90.8516L300.474 91.1937C297.304 95.0179 292.003 102.466 287.874 113.511L287.374 113.324L286.873 113.136C291.051 101.957 296.421 94.4063 299.651 90.5094L300.062 90.8516Z" fill="#EBEBF2"/>
<path d="M203.048 118.62C200.786 117.392 185.169 109.691 185.169 109.691H174.397C174.397 109.691 161.414 115.708 159.152 116.935C156.89 118.163 161.133 178.172 161.133 178.172L175.496 176.741L181.405 175.541L198.527 171.027C198.527 171.027 203.552 122.048 201.29 120.82" fill="#FFC7A1"/>
<path d="M182.992 115.523L177.888 116.822C175.946 117.316 173.971 116.139 173.479 114.192L170.512 102.476C170.019 100.529 171.193 98.5508 173.135 98.0563L178.239 96.7569C180.18 96.2636 182.155 97.4405 182.647 99.3872L185.616 111.103C186.108 113.05 184.934 115.028 182.992 115.523Z" fill="#FFC7A1"/>
<path d="M182.648 99.3872C182.154 97.4405 180.181 96.2636 178.239 96.7569L173.135 98.0563C171.193 98.5508 170.018 100.529 170.511 102.476L172.341 109.699C176.908 109.992 181.33 108.085 184.27 105.794L182.648 99.3872Z" fill="#EA989D"/>
<path d="M159.514 141.844C156.67 133.59 150.953 139.025 150.482 139.552C147.977 142.355 145.154 152.91 142.691 166.678C142.691 166.678 141.004 174.596 153.664 168.719C153.664 168.719 160.725 145.363 159.514 141.844Z" fill="#FFC7A1"/>
<path d="M161.131 117.464C161.131 117.464 155.285 118.353 153.609 119.696C147.686 124.447 141.305 151.391 141.305 151.391C141.305 151.391 149.82 157.34 158.228 155.97L164.853 135.606C164.853 135.606 167.099 120.309 161.131 117.464Z" fill="#0049CD"/>
<path d="M172.417 109.895C172.417 109.895 176.429 114.971 177.083 120.846L175.672 156.048L173.359 196.174C173.359 196.174 153.234 195.198 153.965 188.438C155.306 176.047 157.236 169.489 156.494 158.636C154.844 134.517 155.399 118.754 155.399 118.754C155.399 118.754 157.719 115.684 170.671 111.081" fill="#0049CD"/>
<path d="M155.399 177.493C155.742 170.097 157.109 163.76 156.829 158.667C156.447 151.693 156.332 140.507 157.589 132.623" stroke="#00338F" stroke-width="1.9957" stroke-miterlimit="2" stroke-linecap="round" stroke-linejoin="bevel"/>
<path d="M186.227 108.729C186.227 108.729 176.941 120.578 177.084 120.507L172.952 172.404C172.952 172.404 172.787 196.081 173.359 196.175C190.705 199.025 214.965 188.149 214.965 188.149C214.965 188.149 203.868 169.974 203.495 162.252C202.327 138.157 205.151 114.646 205.151 114.646C205.151 114.646 199.085 110.065 190.362 109.327" fill="#0049CD"/>
<path d="M177.084 121.219C177.084 121.219 174.439 137.5 174.239 145.141C173.985 154.849 172.938 193.05 172.938 193.05" stroke="#00338F" stroke-width="1.99913" stroke-miterlimit="1.5" stroke-linecap="round" stroke-linejoin="round"/>
<path d="M171.51 109.895C171.51 109.895 167.06 113.652 168.112 124.469C168.112 124.469 171.79 118.558 173.285 118.1C174.78 117.641 176.14 119.604 177.084 121.718" stroke="#00338F" stroke-width="1.99913" stroke-miterlimit="1.5" stroke-linecap="round" stroke-linejoin="round"/>
<path d="M222.974 163.013C222.112 154.107 212.464 133.491 212.464 133.491C212.464 133.491 199.097 126.154 201.854 141.812L208.57 162.268C208.57 162.268 219.909 175.361 222.974 163.013Z" fill="#FFC7A1"/>
<path d="M203.659 112.96C207.59 114.699 209.358 116.31 210.366 117.859C211.375 119.408 221.68 139.988 222.539 142.045C223.398 144.102 213.471 154.449 203.149 150.33L195.71 130.323C195.71 130.323 193.582 108.504 203.659 112.96Z" fill="#0049CD"/>
<path d="M222.058 145.463C222.409 145.036 222.346 144.405 221.919 144.054C221.491 143.703 220.86 143.765 220.51 144.192L221.284 144.828L222.058 145.463ZM203.147 150.329L202.232 150.734C202.338 150.973 202.534 151.161 202.777 151.258L203.147 150.329ZM197.096 134.233C196.871 133.727 196.28 133.499 195.774 133.723C195.269 133.947 195.041 134.539 195.266 135.044L196.181 134.639L197.096 134.233ZM221.284 144.828L220.51 144.192C219.142 145.861 216.668 147.902 213.626 149.148C210.598 150.388 207.074 150.818 203.518 149.399L203.147 150.329L202.777 151.258C206.931 152.916 211.006 152.385 214.386 151.001C217.75 149.623 220.49 147.376 222.058 145.463L221.284 144.828ZM203.147 150.329L204.062 149.923L197.096 134.233L196.181 134.639L195.266 135.044L202.232 150.734L203.147 150.329Z" fill="#00338F"/>
<path d="M186.564 108.729C186.564 108.729 190.302 113.653 187.753 124.47C187.753 124.47 183.182 119.666 181.243 118.833C179.418 118.048 178.089 119.921 177.084 121.802" stroke="#00338F" stroke-width="1.99913" stroke-miterlimit="1.5" stroke-linecap="round" stroke-linejoin="round"/>
<path fill-rule="evenodd" clip-rule="evenodd" d="M179.116 124.471L179.615 156.733L174.064 162.985L169.935 156.733L174.211 123.971L179.116 124.471Z" fill="#21B531"/>
<path d="M179.116 124.471L179.615 156.733L174.126 162.985" stroke="white" stroke-width="1.33413" stroke-miterlimit="1.5" stroke-linecap="round" stroke-linejoin="round"/>
<path fill-rule="evenodd" clip-rule="evenodd" d="M179.116 124.47C178.366 125.371 174.848 125.014 174.212 124.22C173.382 123.184 173.312 118.531 173.378 118.968C173.378 118.968 176.845 117.632 181.112 119.718C181.112 119.718 180.593 122.694 179.116 124.47Z" fill="#21B531"/>
<path d="M180.862 120.469C180.862 120.469 180.593 122.694 179.116 124.47C178.769 124.888 177.827 125.035 176.853 124.994" stroke="white" stroke-width="1.33413" stroke-miterlimit="1.5" stroke-linecap="round" stroke-linejoin="round"/>
<path d="M192.77 77.3178C192.77 77.3178 191.443 72.957 189.392 70.2695C191.557 70.4116 193.457 69.9165 193.457 69.9165C189.006 68.8301 186.011 67.2399 184.068 66.0235C183.461 65.5896 180.199 63.8071 180.199 63.8071L180.205 63.8147C178.254 62.6977 177.868 61.7709 175.238 61.219C169.971 60.113 165.449 64.4125 165.449 64.4125C165.449 64.4125 161.024 63.9021 160.182 64.4125C159.778 64.6563 156.936 66.8705 155.064 69.9832V69.981C155.064 69.981 151.715 75.0828 149.764 76.144C149.764 76.144 151.131 76.1812 152.541 75.8948C151.644 78.9747 152.265 82.8688 152.265 87.7727C152.265 92.7543 159.873 98.6157 159.873 98.6157L185.242 98.067C185.242 98.067 195.592 88.6351 192.77 77.3178Z" fill="#12161C"/>
<path d="M182.23 74.5098L160.581 75.1907L156.336 80.2651C154.458 84.6827 155.377 89.8228 156.691 94.5245C157.736 98.2656 157.628 102.864 161.029 104.519C169.399 108.596 177.58 106.875 181.223 102.852C182.361 101.595 183.883 99.9072 184.631 98.3498C186.013 95.9442 186.517 91.9966 186.674 90.3168C187.267 84.6631 185.944 78.6727 182.23 74.5098Z" fill="#FFC7A1"/>
<path d="M183.056 90.9887C183.054 87.416 186.618 85.6321 188.09 86.0593C191.408 87.0215 192.853 89.7066 192.098 92.5711C191.306 95.5701 188.094 97.3447 185.145 96.4028C184.396 96.1641 183.056 92.5115 183.056 90.9887Z" fill="#FFC7A1"/>
<path d="M183.057 91.4529C182.802 91.4529 182.595 91.2453 182.595 90.9895C182.595 88.6266 183.991 87.2222 184.822 86.596C185.95 85.7457 187.316 85.3511 188.221 85.6134C188.465 85.6845 188.607 85.9413 188.536 86.1861C188.465 86.432 188.21 86.5741 187.964 86.5031C187.433 86.349 186.373 86.5851 185.378 87.3359C184.683 87.8583 183.52 89.0288 183.52 90.9895C183.52 91.2453 183.313 91.4529 183.057 91.4529Z" fill="#EA989D" stroke="#EA989D" stroke-width="0.395882" stroke-miterlimit="2" stroke-linejoin="round"/>
<path d="M185.967 90.5034C186.996 88.9453 188.696 88.0824 190.552 88.1147C191.616 88.1328 191.493 89.7848 190.431 89.7665C189.161 89.7448 188.036 90.3699 187.34 91.4246C186.751 92.3145 185.378 91.3943 185.967 90.5034Z" fill="#EA989D"/>
<path d="M170.266 75.1637C171.125 76.6107 174.977 80.7048 174.977 80.7048C174.977 80.7048 178.286 84.9388 183.026 86.364V83.2076C183.026 82.3923 183.353 85.5432 185.92 87.6197C185.92 87.6197 187.906 77.6184 185.92 74.5483C183.165 70.2903 173.769 67.7329 170.172 69.7821C168.822 70.5504 169.568 73.9888 170.266 75.1637Z" fill="#12161C"/>
<path d="M156.527 79.8111C156.527 79.8111 155.718 85.5883 157.483 89.8496C157.483 89.8496 154.564 89.0857 154.66 83.9588C154.66 83.9588 154.503 77.0854 156.527 79.8111Z" fill="#12161C"/>
<path d="M163.008 75.412C163.008 75.412 162.41 68.7911 165.137 68.0851C168.602 67.1878 170.962 76.6132 175.562 82.574C175.562 82.574 170.311 82.4232 168.909 78.9247C168.909 78.9247 170.245 82.0712 170.633 83.1379C170.633 83.1379 165.891 83.1948 164.595 75.5618L163.008 75.412Z" fill="#12161C"/>
<path d="M160.36 75.4127L163.687 71.9863L164.595 75.5624L160.36 75.4127Z" fill="#595C60"/>
<path d="M167.544 94.9445C167.689 95.2821 168.08 95.4379 168.417 95.2924C168.753 95.147 168.908 94.7553 168.763 94.4177L168.153 94.6811L167.544 94.9445ZM169.825 93.2075C170.156 93.3665 170.553 93.2266 170.711 92.8951C170.869 92.5637 170.729 92.1661 170.398 92.0071L170.112 92.6073L169.825 93.2075ZM168.153 94.6811C168.763 94.4177 168.763 94.4179 168.763 94.4181C168.763 94.4181 168.763 94.4183 168.763 94.4183C168.763 94.4185 168.763 94.4185 168.763 94.4186C168.763 94.4186 168.763 94.4185 168.763 94.4181C168.762 94.4173 168.762 94.4157 168.761 94.4132C168.759 94.4083 168.755 94.4 168.751 94.3888C168.741 94.3662 168.728 94.3316 168.711 94.2872C168.677 94.198 168.633 94.0717 168.59 93.9255C168.499 93.6172 168.433 93.2843 168.446 93.0331C168.453 92.9112 168.476 92.8542 168.486 92.837C168.487 92.8363 168.478 92.8403 168.492 92.8359C168.582 92.8069 168.945 92.7846 169.825 93.2075L170.112 92.6073L170.398 92.0071C169.479 91.5657 168.699 91.3706 168.084 91.5683C167.347 91.8056 167.146 92.4739 167.12 92.9589C167.094 93.4423 167.213 93.9519 167.316 94.3025C167.371 94.4858 167.426 94.643 167.468 94.755C167.489 94.8113 167.507 94.8567 167.52 94.8889C167.527 94.9051 167.532 94.918 167.536 94.9273C167.538 94.932 167.54 94.9358 167.541 94.9387C167.542 94.9401 167.542 94.9413 167.543 94.9423C167.543 94.9428 167.543 94.9432 167.543 94.9436C167.543 94.9438 167.543 94.944 167.543 94.9441C167.543 94.9443 167.544 94.9445 168.153 94.6811Z" fill="#12161C"/>
<path d="M173.887 88.6327C173.852 90.2933 174.463 91.7356 175.153 92.5772C175.85 93.4373 176.625 93.6957 177.066 93.4317C177.952 92.8211 177.678 90.775 177.755 88.682L177.755 88.6774C177.751 88.4104 177.583 88.1726 177.331 88.0831L176.125 87.6578L177.483 86.8386C177.672 86.7245 177.789 86.5187 177.789 86.2967C177.793 85.1897 177.701 84.2979 177.176 83.917C176.741 83.6409 175.96 83.8795 175.244 84.7216C174.534 85.5453 173.89 86.9726 173.887 88.6327Z" fill="#12161C"/>
<path d="M160.158 89.7264C160.122 91.387 160.733 92.8293 161.424 93.671C162.12 94.531 162.896 94.7894 163.337 94.5254C164.223 93.9148 163.948 91.8687 164.026 89.7757L164.026 89.7711C164.021 89.5042 163.854 89.2663 163.602 89.1769L162.395 88.7515L163.754 87.9323C163.943 87.8182 164.06 87.6124 164.06 87.3905C164.063 86.2835 163.972 85.3917 163.446 85.0108C163.011 84.7346 162.231 84.9733 161.514 85.8153C160.805 86.6391 160.16 88.0663 160.158 89.7264Z" fill="#12161C"/>
<path d="M164.721 83.6593C164.954 83.9431 165.373 83.9841 165.656 83.7508C165.94 83.5175 165.981 83.0983 165.748 82.8145L165.234 83.2369L164.721 83.6593ZM159.06 84.0005C158.889 84.3252 159.012 84.7277 159.337 84.8997C159.661 85.0716 160.063 84.9477 160.235 84.6231L159.648 84.3118L159.06 84.0005ZM165.234 83.2369C165.748 82.8145 165.747 82.8142 165.747 82.8139C165.747 82.8138 165.747 82.8135 165.747 82.8133C165.746 82.8128 165.746 82.8123 165.745 82.8117C165.744 82.8106 165.743 82.8092 165.742 82.8076C165.739 82.8044 165.736 82.8003 165.732 82.7954C165.723 82.7855 165.712 82.7723 165.697 82.7561C165.669 82.7238 165.629 82.6794 165.578 82.6261C165.476 82.5198 165.329 82.3763 165.145 82.2213C164.782 81.9166 164.242 81.5421 163.585 81.341C162.912 81.1351 162.111 81.1121 161.289 81.5284C160.483 81.9367 159.732 82.729 159.06 84.0005L159.648 84.3118L160.235 84.6231C160.829 83.4983 161.41 82.9582 161.889 82.7156C162.352 82.4812 162.79 82.4889 163.197 82.6134C163.62 82.7427 164.002 82.998 164.291 83.2405C164.432 83.3592 164.544 83.4687 164.619 83.547C164.656 83.586 164.684 83.6168 164.701 83.6365C164.71 83.6464 164.716 83.6535 164.72 83.6574C164.721 83.6594 164.722 83.6606 164.722 83.6609C164.723 83.6611 164.723 83.661 164.722 83.6608C164.722 83.6606 164.722 83.6604 164.722 83.6602C164.722 83.6601 164.722 83.6599 164.722 83.6598C164.721 83.6596 164.721 83.6593 165.234 83.2369Z" fill="#12161C"/>
<path d="M177.978 96.7435C178.261 97.1551 178.326 98.1349 177.869 99.1331C177.426 100.109 176.374 101.426 173.854 102.209C171.38 102.977 169.89 102.441 169.024 101.915C167.028 100.705 167.718 98.7255 168.53 98.2772C169.394 97.8013 170.729 98.7167 172.466 98.1912C173.72 97.8121 174.922 96.3278 175.404 96.115C176.473 95.6581 177.389 95.874 177.978 96.7435Z" fill="#12161C"/>
<mask id="mask3_21458_24911" style="mask-type:luminance" maskUnits="userSpaceOnUse" x="167" y="95" width="12" height="8">
<path d="M175.403 96.1127C174.921 96.3255 173.718 97.8097 172.464 98.1888C171.653 98.4346 170.929 98.3654 170.3 98.2703C169.583 98.1628 168.988 98.0213 168.529 98.275C167.717 98.7222 167.026 100.702 169.023 101.913C169.889 102.438 171.379 102.974 173.852 102.206C176.373 101.423 177.424 100.106 177.867 99.1294C178.325 98.1311 178.259 97.1525 177.977 96.74C177.466 95.9878 176.712 95.7254 175.824 95.9654C175.687 96.0024 175.547 96.0512 175.403 96.1127Z" fill="white"/>
</mask>
<g mask="url(#mask3_21458_24911)">
<path d="M178.214 102.901C178.437 104.534 177.039 106.075 175.091 106.342C173.143 106.608 171.383 105.5 171.16 103.866C170.938 102.232 172.335 100.691 174.283 100.425C176.232 100.158 177.99 101.266 178.214 102.901Z" fill="#EB5757"/>
<path d="M166.645 98.5881C166.645 98.5881 169.485 100.557 173.045 99.3839C176.606 98.2093 179.153 94.6586 179.153 94.6586C179.153 94.6586 171.529 94.3065 166.645 98.5881Z" fill="white"/>
</g>
<path d="M175.404 96.1149C174.922 96.3277 173.72 97.8119 172.466 98.1911C171.655 98.4368 170.93 98.3675 170.302 98.2724C169.584 98.1648 168.989 98.0233 168.53 98.2771C167.718 98.7242 167.027 100.704 169.024 101.915C169.89 102.441 171.381 102.976 173.854 102.209C176.374 101.426 177.425 100.109 177.868 99.132C178.326 98.1337 178.261 97.155 177.978 96.7425C177.467 95.9901 176.713 95.7276 175.825 95.9676C175.689 96.0046 175.548 96.0534 175.404 96.1149Z" stroke="#12161C" stroke-width="0.998509" stroke-miterlimit="2" stroke-linejoin="round"/>
<path d="M172.489 82.7543C172.349 83.0935 171.96 83.2542 171.621 83.1133C171.282 82.9723 171.121 82.583 171.261 82.2438L171.875 82.499L172.489 82.7543ZM172.843 81.2466L172.403 80.7474L172.403 80.7473L172.843 81.2466ZM181.723 83.107C181.883 83.4381 181.744 83.8355 181.413 83.9946C181.083 84.1537 180.686 84.0143 180.526 83.6832L181.125 83.3951L181.723 83.107ZM171.875 82.499L171.261 82.2438C171.479 81.7184 171.893 81.1969 172.403 80.7474L172.843 81.2466L173.282 81.7458C172.87 82.1094 172.605 82.4731 172.489 82.7543L171.875 82.499ZM172.843 81.2466L172.403 80.7473C173.46 79.815 175.114 79.0307 176.874 79.1856C178.69 79.3452 180.463 80.4878 181.723 83.107L181.125 83.3951L180.526 83.6832C179.426 81.3973 178.016 80.6213 176.759 80.5108C175.448 80.3954 174.14 80.9894 173.282 81.746L172.843 81.2466Z" fill="#12161C"/>
<path d="M236.404 124.358C234.566 131.72 232.974 139.155 230.886 146.45C226.608 161.401 223.377 163.793 222.136 166.249C220.887 168.72 214.811 168.449 213.347 165.968C208.535 157.815 220.262 137.704 228.353 123.329C232.278 120.178 236.633 123.448 236.404 124.358Z" fill="#FFC7A1"/>
<path d="M225.77 126.47C225.891 126.289 226.076 126.166 226.29 126.124C226.504 126.083 226.722 126.126 226.902 126.249C227.083 126.37 227.207 126.556 227.248 126.769C227.29 126.984 227.246 127.202 227.125 127.383C224.696 131.006 216.917 145.196 214.684 156.456C214.598 156.887 214.18 157.174 213.748 157.1L213.738 157.099L213.684 157.086C213.487 157.036 213.319 156.918 213.206 156.749C213.085 156.567 213.041 156.348 213.083 156.135C214.134 150.836 216.322 145.011 218.638 139.875C221.41 133.727 224.365 128.565 225.77 126.47Z" fill="#EA989D"/>
<path d="M202.953 128.608C202.881 129.414 203.214 130.203 203.842 130.712C204.47 131.221 205.31 131.383 206.082 131.144C212.621 129.117 226.576 124.793 231.24 123.348C232.18 123.057 232.851 122.226 232.939 121.244C233.536 114.592 235.802 89.3259 236.651 79.8642C236.723 79.058 236.39 78.269 235.762 77.76C235.134 77.2511 234.294 77.0892 233.522 77.3284C226.983 79.3546 213.028 83.6786 208.364 85.1236C207.424 85.4149 206.752 86.2465 206.664 87.2281C206.068 93.88 203.802 119.146 202.953 128.608Z" fill="#FFB35C"/>
<path d="M206.383 124.309C206.311 125.115 206.644 125.904 207.272 126.413C207.9 126.922 208.74 127.084 209.512 126.845C214.914 125.171 225.15 121.999 229.041 120.794C229.981 120.503 230.653 119.671 230.741 118.689C231.249 113.02 232.953 94.0147 233.672 86.0069C233.744 85.2006 233.411 84.4116 232.783 83.9025C232.155 83.3935 231.315 83.2316 230.543 83.4707C225.141 85.1445 214.905 88.316 211.014 89.5213C210.074 89.8126 209.402 90.6444 209.314 91.6264C208.806 97.2952 207.102 116.301 206.383 124.309Z" stroke="#FF8E43" stroke-width="1.33232" stroke-miterlimit="10" stroke-linecap="round" stroke-linejoin="round"/>
<path d="M213.315 78.357L242.222 69.6573C240.222 71.0687 239.793 75.4433 239.793 75.4433L209.219 84.8496C209.319 79.2377 213.315 78.357 213.315 78.357Z" fill="white"/>
<path d="M231.804 76.2193L231.549 79.0857L212.18 85.0731L212.435 82.2067L231.804 76.2193Z" fill="#FF8E43"/>
<path d="M236.039 125.777C233.666 127.989 229.669 126.496 228.213 124.347C226.517 121.841 227.45 118.791 228.762 116.095C228.33 115.854 227.9 115.612 227.47 115.376C226.352 114.767 225.23 114.157 224.112 113.548C223.235 113.067 222.283 112.293 222.704 111.107C223.086 110.036 224.228 109.557 225.246 109.537C226.372 109.516 227.524 109.809 228.572 110.111C228.681 110.143 231.124 111.359 231.231 111.393C231.196 111.262 229.859 107.294 228.321 105.192C227.604 104.21 227.176 102.948 227.971 101.809C228.704 100.756 229.947 100.278 231.039 100.766C230.908 100.25 230.804 99.7132 230.915 99.1694C231.067 98.4212 231.589 97.8393 232.313 97.5819C233.162 97.2784 233.905 97.4631 234.528 97.8766C234.534 97.7485 234.544 97.6189 234.566 97.4861C234.699 96.6756 235.131 95.8892 235.894 95.4776C236.519 95.1419 237.244 95.1403 237.856 95.3787C239.204 95.9087 240.155 97.1108 240.766 98.363C243.339 103.638 243.973 110.72 240.992 116.948C239.981 119.059 238.812 121.099 237.757 123.192C237.25 124.199 236.749 125.116 236.039 125.777Z" fill="#FFC7A1"/>
<path d="M235.139 113.891C233.42 112.614 231.575 111.5 229.626 110.574C228.706 110.136 227.765 109.7 226.786 109.386C225.905 109.103 224.916 108.967 223.98 109.326C223.03 109.692 222.203 110.544 222.128 111.573C222.082 112.226 223.093 112.247 223.14 111.591C223.189 110.914 223.799 110.39 224.433 110.211C225.229 109.986 226.035 110.216 226.75 110.474C228.536 111.123 230.241 111.992 231.852 112.96C232.781 113.517 233.678 114.121 234.546 114.765C235.049 115.138 235.641 114.263 235.139 113.891Z" fill="#EA989D" stroke="#EA989D" stroke-width="0.59871" stroke-miterlimit="2" stroke-linejoin="round"/>
<path d="M237.354 113.645C237.36 111.206 236.88 108.834 235.944 106.662C235.476 105.576 234.894 104.549 234.221 103.589C233.547 102.626 232.776 101.687 231.864 100.941C230.873 100.132 229.426 99.7886 228.236 100.7C227.694 101.115 228.337 101.845 228.876 101.433C229.732 100.776 230.805 101.387 231.412 101.941C232.186 102.646 232.861 103.476 233.458 104.337C234.638 106.031 235.492 107.984 235.949 110.042C236.206 111.207 236.345 112.41 236.342 113.626C236.34 113.9 236.501 114.138 236.795 114.144C237.046 114.149 237.353 113.92 237.354 113.645Z" fill="#EA989D" stroke="#EA989D" stroke-width="0.59871" stroke-miterlimit="2" stroke-linejoin="round"/>
<path d="M241.499 112.331C241.673 109.114 240.899 105.987 239.442 103.264C238.67 101.82 237.72 100.478 236.64 99.2595C235.634 98.122 234.354 96.9081 232.623 97.1603C231.814 97.2788 231.006 97.7759 230.608 98.5285C230.211 99.2765 230.263 100.199 230.81 100.777C231.24 101.23 232.033 100.526 231.602 100.071C231.261 99.7126 231.298 99.1293 231.643 98.7202C232.031 98.2607 232.66 98.0979 233.204 98.154C234.592 98.2953 235.563 99.5938 236.364 100.569C238.101 102.679 239.451 105.155 240.088 107.886C240.423 109.319 240.569 110.806 240.487 112.311C240.451 112.965 241.463 112.987 241.499 112.331Z" fill="#EA989D" stroke="#EA989D" stroke-width="0.59871" stroke-miterlimit="2" stroke-linejoin="round"/>
<path d="M231.891 111.563C231.695 109.616 231.055 107.766 230.024 106.169C229.234 104.945 227.435 103.134 228.696 101.474C229.108 100.932 228.28 100.414 227.868 100.955C227.291 101.715 227.166 102.695 227.35 103.553C227.573 104.585 228.205 105.411 228.795 106.236C229.959 107.861 230.677 109.751 230.884 111.803C230.949 112.448 231.956 112.205 231.891 111.563Z" fill="#EA989D" stroke="#EA989D" stroke-width="0.59871" stroke-miterlimit="2" stroke-linejoin="round"/>
<path d="M242.516 114.653C243.749 111.31 243.607 107.776 243.015 104.471C242.695 102.678 242.291 100.871 241.575 99.2213C240.879 97.6179 239.776 95.8296 238.05 95.2164C237.242 94.9298 236.218 94.9612 235.432 95.4732C234.624 95.9975 234.113 96.9107 234.232 97.8316C234.314 98.4736 235.321 98.2303 235.239 97.5908C235.163 97.0002 235.608 96.4189 236.164 96.1906C236.796 95.93 237.504 96.0583 238.046 96.3598C239.426 97.124 240.267 98.7275 240.827 100.16C241.406 101.639 241.748 103.227 242.026 104.81C242.285 106.282 242.461 107.784 242.444 109.305C242.425 111.011 242.174 112.725 241.565 114.377C241.332 115.006 242.283 115.285 242.516 114.653Z" fill="#EA989D" stroke="#EA989D" stroke-width="0.59871" stroke-miterlimit="2" stroke-linejoin="round"/>
<path d="M216.631 80.0564C215.878 78.9928 214.612 78.2384 213.316 78.3443L242.22 69.6487C242.61 69.4418 243.032 69.3067 243.479 69.2702C244.775 69.164 246.041 69.9187 246.793 70.9823C247.546 72.0456 247.843 73.3737 247.904 74.676L247.506 78.7223L245.885 100.513L215.729 109.85C215.729 109.85 217.863 86.3733 217.741 83.7501C217.68 82.4478 217.383 81.1197 216.631 80.0564Z" fill="#B2C8F0"/>
<path d="M238.796 96.922C239.147 96.8133 239.519 97.0101 239.628 97.3616C239.736 97.7132 239.539 98.0864 239.188 98.1951L238.992 97.5586L238.796 96.922ZM224.272 102.814C223.921 102.922 223.549 102.725 223.44 102.374C223.332 102.022 223.529 101.649 223.88 101.54L224.076 102.177L224.272 102.814ZM238.992 97.5586L239.188 98.1951L224.272 102.814L224.076 102.177L223.88 101.54L238.796 96.922L238.992 97.5586Z" fill="white"/>
<path d="M244.419 90.1607C244.771 90.0519 245.143 90.2487 245.251 90.6003C245.36 90.9518 245.163 91.325 244.811 91.4338L244.615 90.7972L244.419 90.1607ZM221.515 98.6468C221.163 98.7556 220.791 98.5588 220.683 98.2072C220.574 97.8556 220.771 97.4825 221.122 97.3737L221.319 98.0103L221.515 98.6468ZM244.615 90.7972L244.811 91.4338L221.515 98.6468L221.319 98.0103L221.122 97.3737L244.419 90.1607L244.615 90.7972Z" fill="white"/>
<path d="M244.419 90.1607C244.771 90.0519 245.143 90.2487 245.251 90.6003C245.36 90.9518 245.163 91.325 244.811 91.4338L244.615 90.7972L244.419 90.1607ZM221.515 98.6468C221.163 98.7556 220.791 98.5588 220.683 98.2072C220.574 97.8556 220.771 97.4825 221.122 97.3737L221.319 98.0103L221.515 98.6468ZM244.615 90.7972L244.811 91.4338L221.515 98.6468L221.319 98.0103L221.122 97.3737L244.419 90.1607L244.615 90.7972Z" fill="white"/>
<path d="M244.729 84.5415C245.081 84.4328 245.453 84.6296 245.561 84.9811C245.67 85.3327 245.473 85.7059 245.122 85.8146L244.925 85.1781L244.729 84.5415ZM221.825 93.0277C221.473 93.1364 221.101 92.9396 220.993 92.5881C220.884 92.2365 221.081 91.8633 221.433 91.7546L221.629 92.3911L221.825 93.0277ZM244.925 85.1781L245.122 85.8146L221.825 93.0277L221.629 92.3911L221.433 91.7546L244.729 84.5415L244.925 85.1781Z" fill="white"/>
<path d="M245.04 78.9243C245.391 78.8156 245.764 79.0124 245.872 79.364C245.98 79.7155 245.783 80.0887 245.432 80.1975L245.236 79.5609L245.04 78.9243ZM222.135 87.4105C221.784 87.5192 221.411 87.3224 221.303 86.9709C221.195 86.6193 221.392 86.2461 221.743 86.1374L221.939 86.7739L222.135 87.4105ZM245.236 79.5609L245.432 80.1975L222.135 87.4105L221.939 86.7739L221.743 86.1374L245.04 78.9243L245.236 79.5609Z" fill="white"/>
<path d="M242.984 73.8658C243.335 73.757 243.708 73.9538 243.816 74.3054C243.924 74.6569 243.727 75.0301 243.376 75.1389L243.18 74.5023L242.984 73.8658ZM220.079 82.3519C219.728 82.4607 219.355 82.2638 219.247 81.9123C219.139 81.5607 219.336 81.1875 219.687 81.0788L219.883 81.7153L220.079 82.3519ZM243.18 74.5023L243.376 75.1389L220.079 82.3519L219.883 81.7153L219.687 81.0788L242.984 73.8658L243.18 74.5023Z" fill="white"/>
</g>
<path d="M320.932 187.903L254.39 188.336L263.039 145.383C263.296 144.111 264.412 143.195 265.708 143.194L329.233 143.141C330.179 143.141 330.893 144.001 330.717 144.932L322.962 186.206C322.778 187.185 321.927 187.897 320.932 187.903Z" fill="#21B531"/>
<path d="M254.391 188.334L237.061 185.948C236.56 185.878 236.194 185.437 236.219 184.929L236.354 182.288C236.369 181.981 236.616 181.738 236.922 181.726L255.868 180.998L254.391 188.334Z" fill="#21B531"/>
<path d="M254.52 188.011C254.5 188.012 254.478 188.011 254.456 188.006C254.31 187.977 254.214 187.833 254.243 187.686L255.569 181.103C255.599 180.956 255.742 180.86 255.89 180.89C256.036 180.92 256.132 181.064 256.103 181.211L254.777 187.794C254.752 187.919 254.644 188.006 254.52 188.011Z" stroke="white" stroke-miterlimit="10"/>
<path d="M237.042 182.607L255.106 184.208" stroke="white" stroke-width="1.5" stroke-miterlimit="2" stroke-linecap="round" stroke-linejoin="round"/>
<path d="M327.837 146.619C327.987 146.618 267.932 146.623 267.932 146.623C267.186 146.622 266.516 147.167 266.359 147.909L258.674 184.209" stroke="white" stroke-width="1.5" stroke-miterlimit="10" stroke-linecap="round" stroke-linejoin="round"/>
<path d="M294.157 170.933C295.742 171.538 297.628 170.451 298.368 168.504C299.11 166.558 298.426 164.489 296.841 163.884C295.256 163.279 293.371 164.367 292.63 166.313C291.889 168.261 292.573 170.328 294.157 170.933Z" fill="white"/>
<path d="M254.52 188.011C254.5 188.012 254.478 188.011 254.456 188.006C254.31 187.977 254.214 187.833 254.243 187.686L255.569 181.103C255.599 180.956 255.742 180.86 255.89 180.89C256.036 180.92 256.132 181.064 256.103 181.211L254.777 187.794C254.752 187.919 254.644 188.006 254.52 188.011Z" fill="white"/>
<path d="M208.262 176.962C208.587 177.482 214.691 182.041 215.15 182.406C216.215 183.25 217.313 184.05 218.219 185.082C219.167 186.162 219.005 186.764 217.609 187.114C217.153 187.228 180.513 188.37 179.663 188.278C178.74 188.178 178.008 187.697 177.878 186.644C178.845 184.819 184.842 182.652 187.877 181.1C188.377 180.843 194.009 177.176 194.534 176.962C195.723 176.89 207.141 176.953 208.262 176.962Z" fill="#B2C8F0"/>
<path d="M184.104 185.778L212.821 184.947" stroke="white" stroke-miterlimit="10" stroke-linecap="round" stroke-linejoin="round"/>
<path d="M188.98 182.777L210.148 182.162" stroke="white" stroke-miterlimit="10" stroke-linecap="round" stroke-linejoin="round"/>
<path d="M189.631 177.944C188.848 178.648 183.633 181.525 182.71 181.977C179.787 183.405 176.899 184.898 174.078 186.522C174.031 186.548 173.997 186.603 173.956 186.644C170.737 188.296 171.576 188.08 167.943 187.857C165.051 187.68 162.162 187.419 159.27 187.197C157.883 187.09 156.497 186.999 155.108 186.93C153.335 186.84 151.572 186.656 149.809 186.456C148.458 186.302 147.097 186.217 145.744 186.089C144.947 186.014 144.16 185.889 143.39 185.671C143.247 185.632 143.104 185.59 142.969 185.534C141.733 185.018 141.607 184.276 142.664 183.439C143.946 182.424 145.408 181.688 146.828 180.89C147.343 180.601 147.859 180.308 148.378 180.023C148.539 179.933 152.369 177.944 154.331 177.944C156.292 176.963 189.077 177.457 189.631 177.944Z" fill="#B2C8F0"/>
<path d="M149.037 182.742L170.424 184.948" stroke="white" stroke-miterlimit="10" stroke-linecap="round" stroke-linejoin="round"/>
<path d="M152.959 179.795L174.346 182.002" stroke="white" stroke-miterlimit="10" stroke-linecap="round" stroke-linejoin="round"/>
<path d="M186.132 174.891L148.804 174.758C148.804 174.758 141.851 173.066 142.775 166.53C143.534 161.166 148.915 160.617 148.915 160.617L188.088 167.357L186.132 174.891Z" fill="#FFC7A1"/>
<path d="M185.278 167.985C184.331 168.376 183.483 169.1 183.649 170.234C183.686 170.481 183.758 170.728 183.846 170.97C183.688 171.423 183.875 172.047 184.016 172.448C184.476 173.749 185.52 174.805 186.834 175.24C187.638 175.504 188.508 175.504 189.342 175.509C190.311 175.51 191.278 175.506 192.246 175.507H197.367C198.078 175.772 198.77 176.085 199.444 176.436C200.309 176.892 201.285 177.725 202.312 177.692C203.162 177.663 203.629 176.913 203.567 176.128C203.724 176.254 203.888 176.383 204.037 176.521C204.697 177.115 205.371 177.834 206.298 177.931C206.835 177.991 207.426 177.829 207.809 177.442C208.23 177.503 208.658 177.473 209.025 177.262C209.545 176.977 209.663 176.516 209.603 176.044C210.299 176.552 211.151 177.131 211.952 176.734C212.936 176.239 212.821 174.961 212.257 174.188C210.916 172.348 208.505 171.28 206.424 170.609C200.825 168.806 194.643 166.212 188.739 167.118C187.578 167.301 186.371 167.54 185.278 167.985Z" fill="#FFC89E"/>
<path d="M199.033 171.704C200.201 172.105 201.168 172.854 202.073 173.677C202.975 174.495 204.097 175.433 204.093 176.762C204.091 177.306 203.249 177.329 203.251 176.785C203.254 175.69 202.151 174.88 201.413 174.215C200.647 173.525 199.818 172.862 198.831 172.524C198.322 172.349 198.52 171.528 199.033 171.704Z" fill="#EA989D" stroke="#EA989D" stroke-width="0.532806" stroke-miterlimit="2" stroke-linejoin="round"/>
<path d="M202.402 170.855C205.276 171.74 207.577 174.121 208.331 177.047C208.467 177.573 207.658 177.811 207.523 177.284C206.845 174.654 204.796 172.474 202.198 171.675C201.683 171.517 201.882 170.695 202.402 170.855Z" fill="#EA989D" stroke="#EA989D" stroke-width="0.532806" stroke-miterlimit="2" stroke-linejoin="round"/>
<path d="M204.954 170.215C206.697 170.671 208.223 171.787 209.214 173.293C209.681 174.003 210.1 174.868 210.206 175.72C210.34 176.783 209.518 177.275 208.595 177.447C208.067 177.545 207.825 176.736 208.358 176.636C208.653 176.581 209.109 176.53 209.3 176.262C209.497 175.984 209.324 175.545 209.232 175.257C209.013 174.576 208.671 173.939 208.239 173.37C207.375 172.23 206.132 171.396 204.751 171.034C204.228 170.896 204.428 170.077 204.954 170.215Z" fill="#EA989D" stroke="#EA989D" stroke-width="0.532806" stroke-miterlimit="2" stroke-linejoin="round"/>
<path d="M132.975 64.9348C139.841 64.9348 145.407 59.3552 145.407 52.4723C145.407 45.5894 139.841 40.0098 132.975 40.0098C126.109 40.0098 120.542 45.5894 120.542 52.4723C120.542 59.3552 126.109 64.9348 132.975 64.9348Z" fill="#0049CD"/>
<path d="M140.586 48.7951C144.356 49.8091 148.229 47.57 149.237 43.794C150.245 40.018 148.006 36.135 144.236 35.121C140.466 34.1071 136.592 36.3462 135.584 40.1222C134.576 43.8982 136.815 47.7812 140.586 48.7951Z" fill="#EB5757"/>
<path fill-rule="evenodd" clip-rule="evenodd" d="M143.779 56.5195L150.794 61.3482L140.395 59.5556L143.779 56.5195Z" fill="#0049CD"/>
<path fill-rule="evenodd" clip-rule="evenodd" d="M129.164 59.5543C128.775 59.5543 128.409 59.3681 128.182 59.0524C127.953 58.7366 127.89 58.3307 128.012 57.9594C128.7 55.8694 130.661 54.3496 132.975 54.3496C135.288 54.3496 137.25 55.8694 137.92 57.9652C138.04 58.3307 137.978 58.7308 137.753 59.042C137.529 59.3519 137.169 59.537 136.786 59.537C134.798 59.5543 131.152 59.5543 129.164 59.5543Z" fill="white"/>
<path d="M132.975 53.483C135.205 53.483 137.013 51.6706 137.013 49.4348C137.013 47.1991 135.205 45.3867 132.975 45.3867C130.745 45.3867 128.937 47.1991 128.937 49.4348C128.937 51.6706 130.745 53.483 132.975 53.483Z" fill="white"/>
<path d="M141.815 46.6139C141.568 46.5741 141.365 46.4594 141.207 46.2697C141.048 46.0801 140.991 45.8413 141.037 45.5535C141.078 45.2982 141.201 45.0977 141.407 44.952C141.613 44.8064 141.845 44.7543 142.104 44.7961C142.359 44.8371 142.56 44.9588 142.706 45.1609C142.852 45.3633 142.905 45.5921 142.864 45.8474C142.819 46.1312 142.693 46.3394 142.485 46.4722C142.277 46.6051 142.053 46.6524 141.815 46.6139ZM139.914 39.474C139.975 39.089 140.161 38.7187 140.47 38.3632C140.78 38.0077 141.192 37.7384 141.707 37.5551C142.222 37.372 142.795 37.331 143.426 37.4326C144.013 37.5269 144.514 37.7188 144.928 38.0078C145.343 38.2969 145.643 38.6475 145.828 39.0598C146.014 39.4721 146.072 39.897 146.002 40.3348C145.947 40.6793 145.829 40.9701 145.648 41.207C145.468 41.444 145.266 41.6412 145.044 41.7988C144.821 41.9563 144.426 42.218 143.857 42.5838C143.7 42.6873 143.572 42.7801 143.474 42.8619C143.376 42.9439 143.3 43.0211 143.247 43.0936C143.194 43.1661 143.15 43.2401 143.115 43.3156C143.08 43.391 143.025 43.5246 142.949 43.7159C142.805 44.1252 142.53 44.2971 142.126 44.232C141.915 44.1982 141.749 44.1008 141.627 43.9399C141.506 43.779 141.466 43.5628 141.51 43.2912C141.564 42.9507 141.663 42.6643 141.808 42.4319C141.953 42.1996 142.128 42.0032 142.332 41.8427C142.536 41.6822 142.806 41.4961 143.143 41.2841C143.438 41.0988 143.652 40.9577 143.786 40.8607C143.92 40.7637 144.037 40.6508 144.139 40.5215C144.24 40.3923 144.304 40.2447 144.331 40.0785C144.382 39.7542 144.306 39.4613 144.1 39.1996C143.895 38.9381 143.602 38.7766 143.222 38.7154C142.777 38.6438 142.431 38.7035 142.185 38.8946C141.939 39.0858 141.708 39.3885 141.492 39.8028C141.282 40.2387 140.984 40.4257 140.6 40.3638C140.373 40.3274 140.195 40.2167 140.065 40.0315C139.934 39.8463 139.884 39.6605 139.914 39.474Z" fill="white"/>
<path d="M198.063 55.6535C206.304 55.6535 212.985 48.9563 212.985 40.6949C212.985 32.4335 206.304 25.7363 198.063 25.7363C189.821 25.7363 183.141 32.4335 183.141 40.6949C183.141 48.9563 189.821 55.6535 198.063 55.6535Z" fill="#0049CD"/>
<path fill-rule="evenodd" clip-rule="evenodd" d="M199.798 54.1348L190.207 62.0317L194.636 52.8502L199.798 54.1348Z" fill="#0049CD"/>
<path d="M192.627 34.1115C192.625 39.5051 193.235 44.0951 190.369 48.5003L202.27 48.495C205.135 44.0903 204.525 39.5001 204.527 34.1064L192.627 34.1115Z" fill="white"/>
<path d="M194.166 38.0937C194.632 37.8839 195.098 37.6745 195.564 37.4647C195.931 37.3002 196.416 37.1563 196.687 37.4533C196.815 37.5945 196.851 37.8001 196.972 37.9474C197.194 38.2172 197.621 38.1982 197.94 38.0564C198.259 37.9146 198.534 37.6783 198.865 37.5679C199.29 37.4261 199.752 37.5092 200.198 37.5493C201.263 37.6452 203.178 37.6207 203.178 37.6207" stroke="#B2C8F0" stroke-width="0.667466" stroke-miterlimit="10" stroke-linecap="round" stroke-linejoin="round"/>
<path d="M202.783 39.875H194.295" stroke="#B2C8F0" stroke-width="0.667466" stroke-miterlimit="10" stroke-linecap="round" stroke-linejoin="round"/>
<path d="M202.445 42.2207H193.957" stroke="#B2C8F0" stroke-width="0.667466" stroke-miterlimit="10" stroke-linecap="round" stroke-linejoin="round"/>
<path d="M201.72 44.9336H197.476" stroke="#B2C8F0" stroke-width="0.667466" stroke-miterlimit="10" stroke-linecap="round" stroke-linejoin="round"/>
<path d="M207.198 36.2824C211.723 37.4994 216.373 34.8118 217.583 30.2796C218.793 25.7473 216.105 21.0866 211.58 19.8696C207.055 18.6526 202.405 21.3401 201.195 25.8724C199.985 30.4047 202.673 35.0654 207.198 36.2824Z" fill="#EB5757"/>
<path d="M208.674 33.6638C208.377 33.616 208.134 33.4782 207.944 33.2506C207.753 33.023 207.685 32.7364 207.741 32.391C207.789 32.0845 207.937 31.8438 208.184 31.669C208.431 31.4943 208.71 31.4317 209.021 31.4818C209.327 31.5311 209.568 31.6771 209.743 31.9197C209.919 32.1627 209.982 32.4372 209.934 32.7438C209.879 33.0844 209.727 33.3342 209.478 33.4937C209.228 33.6531 208.96 33.7099 208.674 33.6638ZM206.392 25.0938C206.465 24.6317 206.688 24.1873 207.06 23.7606C207.432 23.3339 207.927 23.0106 208.544 22.7906C209.162 22.5708 209.85 22.5217 210.608 22.6435C211.312 22.7568 211.913 22.987 212.411 23.3339C212.908 23.6809 213.269 24.1018 213.491 24.5966C213.714 25.0915 213.783 25.6016 213.7 26.127C213.634 26.5406 213.492 26.8896 213.275 27.1739C213.058 27.4584 212.816 27.6951 212.549 27.8842C212.283 28.0733 211.808 28.3874 211.125 28.8265C210.936 28.9507 210.783 29.0621 210.665 29.1603C210.547 29.2587 210.456 29.3513 210.392 29.4383C210.329 29.5254 210.276 29.6142 210.234 29.7048C210.192 29.7954 210.126 29.9556 210.035 30.1854C209.862 30.6765 209.532 30.8829 209.047 30.8048C208.794 30.7642 208.595 30.6474 208.449 30.4542C208.302 30.2611 208.256 30.0015 208.307 29.6755C208.373 29.2669 208.492 28.9231 208.666 28.6442C208.84 28.3653 209.049 28.1295 209.294 27.937C209.539 27.7443 209.864 27.5209 210.268 27.2665C210.622 27.0441 210.879 26.8747 211.04 26.7583C211.2 26.6419 211.342 26.5063 211.463 26.3511C211.585 26.1961 211.662 26.0189 211.694 25.8194C211.756 25.4302 211.663 25.0786 211.417 24.7645C211.171 24.4506 210.819 24.2567 210.363 24.1833C209.828 24.0973 209.413 24.169 209.118 24.3984C208.822 24.6278 208.545 24.9911 208.287 25.4885C208.034 26.0117 207.677 26.2361 207.216 26.1619C206.944 26.1181 206.729 25.9852 206.573 25.7629C206.417 25.5407 206.356 25.3177 206.392 25.0938Z" fill="white"/>
<path fill-rule="evenodd" clip-rule="evenodd" d="M95.232 190.715C95.232 190.715 123.231 193.014 126.679 198.003C129.161 201.596 94.368 216.502 80.0256 216.224C52.9814 215.699 59.8861 193.307 59.8861 193.307L95.232 190.715Z" fill="#0049CD"/>
<path d="M64.282 155.557L61.653 174.899C53.5969 183.293 57.8654 192.341 60.349 193.222L98.8833 192.549C102.538 193.846 100.301 186.534 99.8233 184.478C98.1261 177.182 104.277 167.023 105.327 162.661C105.562 161.684 105.729 160.946 105.807 160.531C106.033 159.322 101.739 148.073 99.4283 145.575C99.0752 145.194 93.7992 135.818 92.6986 135.654C95.4768 138.868 98.1783 143.681 91.8618 143.475C85.1734 143.258 80.0603 140.003 74.7104 136.867C71.4544 137.86 70.5951 137.715 69.8979 138.164C65.2248 141.175 64.282 155.557 64.282 155.557Z" fill="#FFB35C"/>
<path d="M100.042 145.287C99.8939 144.951 99.5014 144.799 99.1656 144.947C98.8297 145.096 98.6777 145.489 98.826 145.826L99.4341 145.557L100.042 145.287ZM103.824 158.914C103.907 159.272 104.264 159.495 104.622 159.412C104.98 159.329 105.202 158.971 105.119 158.612L104.472 158.763L103.824 158.914ZM99.4341 145.557C98.826 145.826 98.826 145.826 98.826 145.826C98.826 145.826 98.826 145.826 98.8261 145.826C98.8262 145.827 98.8264 145.827 98.8266 145.828C98.8271 145.829 98.8279 145.83 98.8288 145.833C98.8308 145.837 98.8337 145.844 98.8376 145.853C98.8455 145.87 98.8571 145.897 98.8724 145.932C98.903 146.002 98.948 146.105 99.0056 146.237C99.1209 146.502 99.2868 146.886 99.4885 147.357C99.8921 148.301 100.439 149.597 101.013 151.009C102.168 153.854 103.406 157.106 103.824 158.914L104.472 158.763L105.119 158.612C104.673 156.682 103.391 153.33 102.244 150.507C101.667 149.085 101.116 147.78 100.711 146.832C100.508 146.357 100.341 145.972 100.224 145.704C100.166 145.571 100.121 145.467 100.09 145.396C100.074 145.361 100.063 145.334 100.055 145.315C100.05 145.306 100.047 145.299 100.045 145.295C100.044 145.292 100.044 145.29 100.043 145.289C100.043 145.289 100.043 145.288 100.042 145.288C100.042 145.288 100.042 145.288 100.042 145.287C100.042 145.287 100.042 145.287 99.4341 145.557Z" fill="#FF9246"/>
<path d="M71.1017 135.644C76.4488 138.778 85.1954 143.247 91.8801 143.463C98.1929 143.669 95.4924 138.373 92.7156 135.162C89.017 134.609 91.1599 135.202 91.1599 135.202L78.2669 133.532C78.2669 133.532 74.7018 134.546 71.1017 135.644Z" fill="white"/>
<path d="M79.2047 135.627C79.2047 135.627 85.3593 140.704 90.3801 139.975C92.2443 139.704 91.7541 137.873 91.7541 137.873L93.3592 130.328L93.8022 128.235L83.089 120.297L79.2047 135.627Z" fill="#FFC7A1"/>
<path d="M81.9703 130.938C81.5501 130.461 81.1561 129.956 80.7815 129.435L82.6681 121.873C84.1779 122.396 85.665 122.988 87.1136 123.66C88.9237 124.503 90.6837 125.455 92.3762 126.507C92.9209 126.847 93.4557 127.244 94.0145 127.576L92.4097 135.12C91.6651 135.555 90.8233 135.791 89.8938 135.796C86.5973 135.818 84.0059 133.248 81.9703 130.938Z" fill="#EA989D"/>
<path d="M93.3015 137.922C93.2063 137.567 92.8415 137.356 92.4867 137.45C92.1318 137.545 91.9213 137.91 92.0164 138.265L92.659 138.094L93.3015 137.922ZM91.2859 140.192L91.1896 139.533L91.1894 139.533L91.2859 140.192ZM81.3656 137.067L81.0212 137.636L81.0213 137.636L81.3656 137.067ZM79.2036 135.636L79.6013 135.103C79.4574 134.995 79.2764 134.95 79.0992 134.978L79.2036 135.636ZM74.2561 137.459C74.0427 137.758 74.1121 138.173 74.4112 138.387C74.7102 138.601 75.1257 138.532 75.3391 138.233L74.7976 137.846L74.2561 137.459ZM92.659 138.094C92.0164 138.265 92.0164 138.265 92.0163 138.265C92.0162 138.264 92.0162 138.264 92.0161 138.264C92.016 138.264 92.0159 138.263 92.0159 138.263C92.0157 138.262 92.0156 138.262 92.0154 138.261C92.0152 138.261 92.0151 138.26 92.0151 138.26C92.0151 138.26 92.0155 138.261 92.0161 138.264C92.0175 138.27 92.0201 138.282 92.0232 138.298C92.0296 138.331 92.0381 138.382 92.0442 138.446C92.0567 138.577 92.0569 138.739 92.022 138.894C91.988 139.046 91.9253 139.173 91.8231 139.272C91.7239 139.368 91.5417 139.482 91.1896 139.533L91.2859 140.192L91.3822 140.851C91.9614 140.767 92.4166 140.551 92.7494 140.229C93.0793 139.909 93.2435 139.528 93.3199 139.189C93.3954 138.853 93.3896 138.541 93.3686 138.321C93.3578 138.209 93.3426 138.115 93.3295 138.047C93.3229 138.013 93.3168 137.985 93.3119 137.964C93.3094 137.953 93.3073 137.945 93.3055 137.938C93.3046 137.934 93.3038 137.931 93.3032 137.928C93.3028 137.927 93.3025 137.926 93.3022 137.925C93.3021 137.924 93.302 137.924 93.3018 137.923C93.3018 137.923 93.3017 137.923 93.3016 137.923C93.3016 137.922 93.3015 137.922 92.659 138.094ZM91.2859 140.192L91.1894 139.533C89.7102 139.748 87.9749 139.386 86.2572 138.749C84.5518 138.117 82.9318 137.239 81.7099 136.498L81.3656 137.067L81.0213 137.636C82.2831 138.402 83.9827 139.325 85.7963 139.998C87.5976 140.666 89.5806 141.113 91.3823 140.851L91.2859 140.192ZM81.3656 137.067L81.71 136.498C81.065 136.106 80.535 135.756 80.1672 135.503C79.9834 135.377 79.8404 135.276 79.7441 135.207C79.6959 135.172 79.6594 135.145 79.6354 135.128C79.6234 135.119 79.6144 135.112 79.6087 135.108C79.6059 135.106 79.6038 135.105 79.6026 135.104C79.6019 135.103 79.6015 135.103 79.6013 135.103C79.6012 135.103 79.6011 135.103 79.6011 135.103C79.6011 135.103 79.6011 135.103 79.6012 135.103C79.6012 135.103 79.6012 135.103 79.6012 135.103C79.6012 135.103 79.6013 135.103 79.2036 135.636C78.806 136.169 78.806 136.169 78.8061 136.169C78.8061 136.169 78.8061 136.169 78.8062 136.169C78.8062 136.169 78.8063 136.169 78.8064 136.169C78.8066 136.17 78.8069 136.17 78.8072 136.17C78.8078 136.17 78.8086 136.171 78.8096 136.172C78.8117 136.173 78.8145 136.175 78.8182 136.178C78.8255 136.184 78.8361 136.191 78.8498 136.201C78.8772 136.222 78.9172 136.251 78.969 136.288C79.0726 136.362 79.2236 136.469 79.4159 136.601C79.8005 136.865 80.3515 137.23 81.0212 137.636L81.3656 137.067ZM79.2036 135.636C79.0992 134.978 79.0991 134.978 79.0989 134.978C79.0988 134.978 79.0986 134.978 79.0985 134.978C79.0982 134.978 79.0979 134.978 79.0975 134.978C79.0967 134.979 79.0957 134.979 79.0945 134.979C79.0922 134.979 79.0891 134.98 79.0852 134.98C79.0775 134.982 79.0667 134.984 79.0532 134.986C79.026 134.991 78.9875 134.998 78.9389 135.007C78.8417 135.025 78.7038 135.053 78.5354 135.093C78.1996 135.171 77.7376 135.293 77.2332 135.474C76.256 135.823 74.989 136.432 74.2561 137.459L74.7976 137.846L75.3391 138.233C75.8249 137.553 76.7609 137.057 77.682 136.728C78.1268 136.569 78.5378 136.459 78.8377 136.39C78.9871 136.355 79.1078 136.33 79.1897 136.315C79.2306 136.307 79.2617 136.301 79.2819 136.298C79.292 136.296 79.2993 136.295 79.3037 136.294C79.3059 136.294 79.3074 136.294 79.3081 136.293C79.3085 136.293 79.3086 136.293 79.3086 136.293C79.3086 136.293 79.3085 136.293 79.3084 136.293C79.3084 136.293 79.3083 136.293 79.3083 136.293C79.3081 136.293 79.308 136.293 79.2036 135.636Z" fill="#B2C8F0"/>
<path d="M91.4972 139.563C91.1497 139.444 90.7722 139.63 90.6539 139.979C90.5357 140.327 90.7215 140.706 91.069 140.824L91.2831 140.194L91.4972 139.563ZM92.5808 143.855C92.5457 144.221 92.8134 144.547 93.1788 144.582C93.5442 144.617 93.8688 144.349 93.9039 143.983L93.2423 143.919L92.5808 143.855ZM91.2831 140.194C91.069 140.824 91.0686 140.824 91.0683 140.824C91.0682 140.824 91.0678 140.824 91.0676 140.824C91.0672 140.824 91.0668 140.824 91.0664 140.823C91.0656 140.823 91.065 140.823 91.0646 140.823C91.0636 140.822 91.0631 140.822 91.0632 140.822C91.0632 140.822 91.0652 140.823 91.069 140.824C91.0766 140.827 91.0913 140.833 91.1121 140.842C91.1538 140.861 91.219 140.892 91.2992 140.938C91.4606 141.03 91.6761 141.18 91.8843 141.402C92.2841 141.83 92.7034 142.574 92.5808 143.855L93.2423 143.919L93.9039 143.983C94.0645 142.305 93.5042 141.186 92.8536 140.491C92.5366 140.152 92.2092 139.925 91.9589 139.781C91.8333 139.709 91.7255 139.657 91.6457 139.622C91.6057 139.604 91.5725 139.591 91.5474 139.581C91.5349 139.576 91.5243 139.572 91.5159 139.569C91.5117 139.568 91.508 139.567 91.5049 139.565C91.5033 139.565 91.5019 139.564 91.5006 139.564C91.5 139.564 91.4994 139.564 91.4988 139.563C91.4985 139.563 91.4981 139.563 91.498 139.563C91.4976 139.563 91.4972 139.563 91.2831 140.194Z" fill="#B2C8F0"/>
<path d="M85.3463 140.235C85.6594 140.043 85.7576 139.633 85.5658 139.319C85.374 139.005 84.9647 138.906 84.6517 139.097L84.999 139.666L85.3463 140.235ZM82.1403 141.848C81.9807 142.18 82.1192 142.578 82.4498 142.739C82.7804 142.899 83.1778 142.761 83.3375 142.43L82.7389 142.139L82.1403 141.848ZM84.999 139.666C84.6517 139.097 84.6516 139.097 84.6514 139.097C84.6513 139.098 84.6512 139.098 84.6511 139.098C84.6508 139.098 84.6506 139.098 84.6503 139.098C84.6497 139.099 84.649 139.099 84.6483 139.099C84.6468 139.1 84.6449 139.102 84.6426 139.103C84.6382 139.106 84.6323 139.109 84.625 139.114C84.6104 139.123 84.5904 139.136 84.5654 139.153C84.5156 139.186 84.4459 139.233 84.3611 139.295C84.1918 139.417 83.9602 139.596 83.7036 139.827C83.1958 140.285 82.564 140.97 82.1403 141.848L82.7389 142.139L83.3375 142.43C83.6592 141.763 84.1575 141.212 84.5934 140.819C84.8087 140.625 85.0023 140.475 85.1403 140.376C85.2091 140.326 85.2636 140.289 85.2995 140.265C85.3175 140.253 85.3307 140.245 85.3387 140.24C85.3427 140.237 85.3454 140.235 85.3467 140.235C85.3473 140.234 85.3476 140.234 85.3476 140.234C85.3475 140.234 85.3474 140.234 85.3472 140.234C85.3471 140.234 85.347 140.234 85.3468 140.234C85.3468 140.234 85.3466 140.235 85.3466 140.235C85.3465 140.235 85.3463 140.235 84.999 139.666Z" fill="#B2C8F0"/>
<path d="M81.9609 138.219C82.3278 138.232 82.6355 137.945 82.6481 137.577C82.6608 137.209 82.3737 136.9 82.0068 136.887L81.9839 137.553L81.9609 138.219ZM78.0697 140.385C77.8967 140.71 78.0188 141.114 78.3426 141.288C78.6663 141.462 79.069 141.34 79.242 141.015L78.6559 140.7L78.0697 140.385ZM81.9839 137.553C82.0068 136.887 82.0062 136.887 82.0055 136.887C82.0053 136.887 82.0046 136.887 82.0042 136.887C82.0032 136.887 82.0023 136.887 82.0013 136.887C81.9993 136.887 81.9973 136.887 81.9951 136.887C81.9908 136.886 81.9861 136.886 81.9809 136.886C81.9706 136.886 81.9587 136.886 81.9451 136.887C81.9181 136.888 81.8847 136.889 81.8454 136.893C81.7667 136.901 81.6646 136.917 81.5426 136.947C81.2977 137.008 80.9778 137.128 80.6093 137.359C79.8712 137.82 78.9667 138.704 78.0697 140.385L78.6559 140.7L79.242 141.015C80.056 139.49 80.8155 138.801 81.3136 138.49C81.5633 138.334 81.7547 138.268 81.8663 138.24C81.9227 138.226 81.9603 138.221 81.9768 138.22C81.985 138.219 81.988 138.219 81.9855 138.219C81.9842 138.219 81.9816 138.219 81.9775 138.219C81.9754 138.219 81.973 138.219 81.9703 138.219C81.9689 138.219 81.9674 138.219 81.9659 138.219C81.9651 138.219 81.9643 138.219 81.9635 138.219C81.9631 138.219 81.9624 138.219 81.9622 138.219C81.9616 138.219 81.9609 138.219 81.9839 137.553Z" fill="#B2C8F0"/>
<path d="M88.9115 140.32C89.0597 139.984 88.9073 139.591 88.5711 139.442C88.2349 139.293 87.8422 139.445 87.694 139.781L88.3027 140.051L88.9115 140.32ZM86.3664 143.965C86.2809 144.322 86.5012 144.682 86.8586 144.768C87.2159 144.854 87.5749 144.634 87.6604 144.277L87.0134 144.121L86.3664 143.965ZM88.3027 140.051C87.694 139.781 87.6939 139.782 87.6939 139.782C87.6939 139.782 87.6938 139.782 87.6938 139.782C87.6937 139.782 87.6937 139.782 87.6936 139.782C87.6934 139.783 87.6932 139.783 87.6929 139.784C87.6924 139.785 87.6917 139.787 87.6908 139.789C87.6891 139.792 87.6868 139.798 87.6838 139.805C87.6778 139.819 87.6694 139.839 87.6586 139.864C87.637 139.916 87.6061 139.99 87.5675 140.087C87.4902 140.281 87.382 140.564 87.255 140.925C87.0011 141.648 86.6719 142.688 86.3664 143.965L87.0134 144.121L87.6604 144.277C87.9537 143.05 88.2692 142.055 88.5103 141.368C88.6308 141.025 88.7326 140.76 88.8035 140.582C88.839 140.493 88.8667 140.426 88.8852 140.382C88.8945 140.36 88.9014 140.343 88.9059 140.333C88.9081 140.328 88.9097 140.324 88.9106 140.322C88.9111 140.321 88.9114 140.32 88.9116 140.32C88.9116 140.32 88.9117 140.32 88.9116 140.32C88.9116 140.32 88.9116 140.32 88.9116 140.32C88.9116 140.32 88.9116 140.32 88.9116 140.32C88.9115 140.32 88.9115 140.32 88.3027 140.051Z" fill="#B2C8F0"/>
<path fill-rule="evenodd" clip-rule="evenodd" d="M95.4204 101.284C95.4204 101.284 109.675 126.808 89.4481 129.452C69.2216 132.096 68.9094 116.95 67.7001 105.221C66.4907 93.4928 86.693 88.3015 95.4204 101.284Z" fill="#FFC7A1"/>
<path d="M101.043 113.014C100.977 113.377 100.631 113.617 100.27 113.551C99.9083 113.485 99.669 113.138 99.7351 112.775L100.389 112.895L101.043 113.014ZM98.6481 111.982C98.3609 112.212 97.9425 112.165 97.7135 111.877C97.4846 111.59 97.5318 111.17 97.8189 110.94L98.2335 111.461L98.6481 111.982ZM100.389 112.895C99.7351 112.775 99.7351 112.776 99.7351 112.776C99.735 112.776 99.735 112.776 99.735 112.776C99.735 112.776 99.735 112.776 99.7349 112.776C99.7349 112.776 99.7349 112.776 99.735 112.776C99.7351 112.775 99.7354 112.774 99.7358 112.772C99.7366 112.767 99.7379 112.759 99.7396 112.749C99.743 112.727 99.748 112.694 99.7536 112.652C99.7649 112.568 99.7784 112.448 99.7867 112.312C99.8044 112.023 99.7943 111.724 99.734 111.515C99.7049 111.414 99.6762 111.378 99.6729 111.375C99.6728 111.375 99.6746 111.376 99.6784 111.379C99.6822 111.382 99.6872 111.385 99.693 111.388C99.7061 111.395 99.7135 111.395 99.7082 111.394C99.6483 111.389 99.3389 111.43 98.6481 111.982L98.2335 111.461L97.8189 110.94C98.5433 110.361 99.2111 110.014 99.8207 110.066C100.559 110.128 100.886 110.709 101.012 111.143C101.136 111.576 101.135 112.06 101.114 112.393C101.104 112.568 101.086 112.72 101.072 112.829C101.065 112.883 101.058 112.928 101.053 112.959C101.05 112.975 101.048 112.988 101.046 112.997C101.046 113.002 101.045 113.006 101.044 113.008C101.044 113.01 101.044 113.011 101.044 113.012C101.044 113.013 101.044 113.013 101.044 113.013C101.044 113.014 101.044 113.014 101.044 113.014C101.043 113.014 101.043 113.014 100.389 112.895Z" fill="#12161C"/>
<path d="M90.1192 102.05C90.0103 102.401 89.6373 102.598 89.2862 102.49C88.9351 102.382 88.7387 102.009 88.8476 101.657L89.4834 101.854L90.1192 102.05ZM95.0298 97.5984C95.377 97.7188 95.5605 98.0981 95.4396 98.4458C95.3188 98.7934 94.9394 98.9776 94.5921 98.8573L94.811 98.2278L95.0298 97.5984ZM89.4834 101.854C88.8476 101.657 88.8477 101.657 88.8478 101.657C88.8478 101.657 88.8479 101.656 88.848 101.656C88.8481 101.656 88.8483 101.655 88.8485 101.654C88.8489 101.653 88.8494 101.652 88.85 101.65C88.8511 101.646 88.8527 101.641 88.8547 101.635C88.8586 101.623 88.864 101.606 88.8711 101.586C88.8852 101.544 88.9057 101.485 88.9328 101.412C88.9869 101.267 89.0677 101.064 89.177 100.825C89.3939 100.352 89.7305 99.7231 90.2043 99.1313C90.6766 98.5412 91.3092 97.9581 92.125 97.623C92.9574 97.2812 93.9325 97.2181 95.0298 97.5984L94.811 98.2278L94.5921 98.8573C93.7912 98.5796 93.1512 98.6407 92.6288 98.8553C92.0898 99.0767 91.6278 99.4822 91.2428 99.9631C90.8592 100.442 90.5757 100.967 90.387 101.379C90.2934 101.583 90.2249 101.756 90.1804 101.875C90.1583 101.935 90.1421 101.981 90.132 102.011C90.1269 102.026 90.1233 102.037 90.1212 102.044C90.1201 102.047 90.1194 102.049 90.1191 102.05C90.1189 102.051 90.1188 102.051 90.1188 102.051C90.1189 102.051 90.1189 102.051 90.1189 102.051C90.119 102.05 90.119 102.05 90.119 102.05C90.1191 102.05 90.1192 102.05 89.4834 101.854Z" fill="#12161C"/>
<path d="M91.8926 115.393C92.6231 115.415 97.7892 115.703 97.772 116.014C97.7538 116.324 97.7833 117.334 96.5625 119.774C95.1565 122.584 91.8926 115.393 91.8926 115.393Z" fill="white" stroke="#12161C" stroke-width="1.33642" stroke-miterlimit="10" stroke-linecap="round" stroke-linejoin="round"/>
<path d="M96.8207 106.485C97.1906 107.946 96.9438 109.347 96.5045 110.233C96.0634 111.136 95.4303 111.523 94.9863 111.38C94.078 111.021 93.9037 109.155 93.4088 107.32L93.4079 107.316C93.3572 107.079 93.4571 106.834 93.6618 106.704L94.6426 106.081L93.2739 105.634C93.0832 105.572 92.9378 105.414 92.8928 105.218C92.664 104.239 92.5632 103.432 92.9503 102.988C93.2788 102.654 94.0182 102.706 94.8235 103.304C95.6192 103.887 96.48 105.017 96.8207 106.485Z" fill="#12161C"/>
<path d="M94.4429 102.889C94.0803 102.825 93.7337 103.067 93.6688 103.43C93.6039 103.793 93.8453 104.139 94.2079 104.204L94.3254 103.547L94.4429 102.889ZM98.007 102.002C98.0842 101.641 97.8548 101.287 97.4946 101.21C97.1344 101.134 96.7798 101.364 96.7026 101.724L97.3548 101.863L98.007 102.002ZM94.3254 103.547C94.2079 104.204 94.2082 104.204 94.2085 104.204C94.2086 104.204 94.2089 104.204 94.2091 104.204C94.2096 104.204 94.2101 104.204 94.2106 104.204C94.2116 104.204 94.2128 104.205 94.2142 104.205C94.2169 104.205 94.2202 104.206 94.2242 104.207C94.2321 104.208 94.2425 104.209 94.2553 104.211C94.2807 104.215 94.3155 104.22 94.3586 104.225C94.4445 104.235 94.5643 104.246 94.7082 104.251C94.9928 104.262 95.3883 104.252 95.81 104.159C96.2311 104.067 96.7058 103.887 97.1181 103.538C97.5398 103.182 97.8624 102.678 98.007 102.002L97.3548 101.863L96.7026 101.724C96.6182 102.118 96.4477 102.359 96.2585 102.519C96.0598 102.687 95.8057 102.794 95.5268 102.855C95.2484 102.916 94.9724 102.925 94.7605 102.917C94.6562 102.913 94.5715 102.905 94.515 102.899C94.4869 102.896 94.466 102.893 94.4536 102.891C94.4474 102.89 94.4433 102.889 94.4414 102.889C94.4405 102.889 94.4402 102.889 94.4404 102.889C94.4405 102.889 94.4408 102.889 94.4412 102.889C94.4414 102.889 94.4417 102.889 94.442 102.889C94.4421 102.889 94.4423 102.889 94.4424 102.889C94.4427 102.889 94.4429 102.889 94.3254 103.547Z" fill="#12161C"/>
<path fill-rule="evenodd" clip-rule="evenodd" d="M77.0035 87.9384C77.0035 87.9384 89.601 76.5028 103.517 93.2717C114.229 106.179 98.9693 106.156 93.7242 99.5215C88.7335 93.2088 82.2234 97.5063 78.9372 100.218C75.651 102.929 66.8298 89.7921 77.0035 87.9384Z" fill="#12161C"/>
<path fill-rule="evenodd" clip-rule="evenodd" d="M86.7753 98.1173C86.7917 98.4375 90.1036 106.918 85.5543 108.775C82.4226 110.054 79.0638 113.408 85.0172 118.158C92.6308 124.234 89.3815 140.127 85.7044 142.822C70.726 153.806 48.157 138.592 57.5669 130.528C62.9346 125.928 63.4828 119.832 62.4738 118.182C55.2074 106.294 57.3317 93.3384 74.2567 88.6581C88.5804 84.6983 86.7753 98.1173 86.7753 98.1173Z" fill="#12161C"/>
<path d="M85.59 111.658C84.7918 108.178 80.9173 107.246 79.5785 107.995C76.5592 109.682 75.7521 112.623 77.1299 115.243C78.5735 117.985 82.1022 118.987 84.7658 117.404C85.4426 117.002 85.9308 113.141 85.59 111.658Z" fill="#FFC7A1"/>
<path d="M84.6755 115.039C84.7901 115.022 84.8993 114.979 84.9975 114.907C85.2367 114.733 85.3472 114.429 85.2747 114.142C85.2483 114.037 84.6108 111.59 82.5354 110.568C81.2546 109.938 79.7488 109.992 78.0627 110.73C77.6961 110.891 77.5269 111.319 77.6871 111.689C77.8478 112.056 78.2727 112.228 78.6434 112.065C79.9179 111.507 81.0084 111.444 81.8873 111.872C82.4344 112.14 82.8476 112.569 83.1513 113.003C82.258 112.827 81.1705 112.865 80.2021 113.614C79.8842 113.859 79.8248 114.316 80.0693 114.635C80.3138 114.953 80.7677 115.015 81.0885 114.768C82.3384 113.803 84.1651 114.925 84.1833 114.936C84.3325 115.03 84.5074 115.065 84.6755 115.039Z" fill="#EA989D"/>
<path d="M111.482 171.271L98.8102 155.849C98.8102 155.849 84.964 152.512 87.6319 165.107L102.664 180.224C102.664 180.224 111.215 181.273 111.482 171.271Z" fill="#FFC7A1"/>
<path d="M87.8918 169.599C86.237 167.016 83.5823 162.057 82.7683 159.931C81.6583 157.028 78.7386 151.455 78.6357 149.641C78.379 145.123 83.7234 140.192 88.2255 142.191C88.2255 142.191 92.964 142.682 99.6239 151.884C100.811 153.524 101.827 154.925 102.7 156.129C103.237 155.163 104.061 154.262 105.091 154.983C106.975 156.302 109.602 161.134 109.602 161.134L91.3584 176.989C91.3584 176.989 86.5716 173.601 86.0815 171.349C85.8266 170.18 86.8493 169.747 87.8918 169.599Z" fill="#B2C8F0"/>
<path d="M89.0818 170.929C89.1763 170.91 89.2686 170.866 89.3465 170.798L103.719 158.146C103.956 157.938 103.979 157.577 103.771 157.339C103.563 157.102 103.203 157.078 102.967 157.286L88.5941 169.938C88.357 170.146 88.3342 170.508 88.542 170.745C88.6806 170.905 88.8886 170.967 89.0818 170.929Z" fill="white"/>
<path d="M120.662 149.827C120.662 149.827 118.358 145.87 115.76 139.916C114.969 136.765 115.415 138.254 115.028 136.981C114.918 136.621 112.314 132.742 113.891 132.567C116.023 132.33 115.696 133.145 118.404 136.018C119.983 137.693 121.23 139.148 122.258 137.166C122.09 137.43 120.662 149.827 120.662 149.827Z" fill="#FFC7A1"/>
<path d="M119.85 138.843L122.677 127.26C122.677 127.26 123.316 122.544 125.345 122.417C127.291 122.295 126.136 126.14 125.685 128.68C125.478 129.757 123.982 138.895 123.703 139.087C121.801 140.396 119.85 138.843 119.85 138.843Z" fill="#FFC7A1"/>
<path d="M124.914 131.301C124.914 131.301 127.783 130.191 128.482 132.93C129.09 132.38 131.599 132.381 132.055 134.817C132.223 134.682 135.417 134.545 134.801 138.202C133.789 144.225 132.639 147.444 128.279 152.026C128.264 151.808 120.171 149.769 120.171 149.769C120.171 149.769 120.394 135.174 124.914 131.301Z" fill="#FFC7A1"/>
<path d="M125.873 131.187C125.971 130.833 125.763 130.466 125.409 130.368C125.056 130.271 124.69 130.479 124.593 130.833L125.233 131.01L125.873 131.187ZM122.686 137.768C122.589 138.123 122.797 138.489 123.15 138.587C123.504 138.685 123.869 138.477 123.967 138.122L123.327 137.945L122.686 137.768ZM125.233 131.01L124.593 130.833L122.686 137.768L123.327 137.945L123.967 138.122L125.873 131.187L125.233 131.01Z" fill="#EA989D"/>
<path d="M129.173 133.353C129.243 132.992 129.007 132.642 128.647 132.572C128.287 132.503 127.939 132.739 127.869 133.1L128.521 133.226L129.173 133.353ZM126.719 139.063C126.649 139.424 126.885 139.773 127.245 139.843C127.605 139.913 127.953 139.677 128.023 139.316L127.371 139.189L126.719 139.063ZM128.521 133.226L127.869 133.1L126.719 139.063L127.371 139.189L128.023 139.316L129.173 133.353L128.521 133.226Z" fill="#EA989D"/>
<path d="M132.507 135.261C132.59 134.903 132.368 134.545 132.01 134.462C131.653 134.378 131.296 134.601 131.213 134.959L131.86 135.11L132.507 135.261ZM130.212 139.278C130.129 139.637 130.352 139.994 130.709 140.078C131.066 140.161 131.423 139.938 131.506 139.58L130.859 139.429L130.212 139.278ZM131.86 135.11L131.213 134.959L130.212 139.278L130.859 139.429L131.506 139.58L132.507 135.261L131.86 135.11Z" fill="#EA989D"/>
<path d="M121.168 147.166C116.232 152.924 102.906 172.32 101.622 174.755C100.329 177.205 104.051 182.019 106.915 181.782C116.325 181.006 121.742 166.794 128.784 151.867C129.088 146.835 121.168 147.166 121.168 147.166Z" fill="#FFC7A1"/>
<path d="M104.104 169.663C103.891 169.962 103.959 170.378 104.258 170.592C104.556 170.806 104.971 170.738 105.184 170.439L104.644 170.051L104.104 169.663ZM120.386 149.167C120.599 148.869 120.531 148.453 120.232 148.238C119.934 148.024 119.519 148.093 119.306 148.392L119.846 148.78L120.386 149.167ZM104.644 170.051L105.184 170.439L120.386 149.167L119.846 148.78L119.306 148.392L104.104 169.663L104.644 170.051Z" fill="#EA989D"/>
<path d="M73.0869 67.4954C66.3129 67.4954 60.8214 61.9905 60.8214 55.1998C60.8214 48.4092 66.3129 42.9043 73.0869 42.9043C79.861 42.9043 85.3525 48.4092 85.3525 55.1998C85.3525 61.9905 79.861 67.4954 73.0869 67.4954Z" fill="#21B531"/>
<path fill-rule="evenodd" clip-rule="evenodd" d="M73.0865 66.7945L77.4735 74.3162L78.0679 64.9347L73.0865 66.7945Z" fill="#21B531"/>
<path d="M67.5483 56.2045L71.3161 60.979L78.8627 51.418" stroke="white" stroke-width="2.62523" stroke-miterlimit="1.5" stroke-linecap="round" stroke-linejoin="round"/>
<path d="M33.085 96.8769C26.6868 96.8769 21.5 91.6775 21.5 85.2636C21.5 78.8498 26.6868 73.6504 33.085 73.6504C39.4832 73.6504 44.6699 78.8498 44.6699 85.2636C44.6699 91.6775 39.4832 96.8769 33.085 96.8769Z" fill="#21B531"/>
<path fill-rule="evenodd" clip-rule="evenodd" d="M43.1999 85.2623L53.4537 87.6992L42.4754 89.9838L43.1999 85.2623Z" fill="#21B531"/>
<path d="M27.8535 86.2123L31.4122 90.7219L38.5401 81.6914" stroke="white" stroke-width="2.63108" stroke-miterlimit="1.5" stroke-linecap="round" stroke-linejoin="round"/>
</g>
</svg>
