<svg width="352" height="198" viewBox="0 0 352 198" fill="none" xmlns="http://www.w3.org/2000/svg">
<g clip-path="url(#clip0_17347_28244)">
<mask id="mask0_17347_28244" style="mask-type:luminance" maskUnits="userSpaceOnUse" x="21" y="0" width="310" height="199">
<path d="M331 0H21V198H331V0Z" fill="white"/>
</mask>
<g mask="url(#mask0_17347_28244)">
<path d="M38.4557 24.3337C43.4752 17.2579 47.7749 12.1661 70.1373 8.70411C105.562 3.21757 258.067 3.46052 286.476 10.3541C302.888 14.3425 318.57 14.9296 320.24 43.8706C321.555 66.5861 323.993 128.274 318.158 142.345C312.322 156.416 307.735 170.476 280.641 171.721C253.547 172.966 101.406 175.861 76.3949 174.616C51.3836 173.371 38.4653 162.621 33.465 150.2C28.4646 137.79 30.5473 71.1717 30.5473 71.1717C30.5473 71.1717 30.5953 35.4282 38.4653 24.3236L38.4557 24.3337Z" fill="#EBEBF2"/>
<path d="M38.4557 24.3337C43.4752 17.2579 47.7749 12.1661 70.1373 8.70411C105.562 3.21757 258.067 3.46052 286.476 10.3541C302.888 14.3425 318.57 14.9296 320.24 43.8706C321.555 66.5861 323.993 128.274 318.158 142.345C312.322 156.416 307.735 170.476 280.641 171.721C253.547 172.966 101.406 175.861 76.3949 174.616C51.3836 173.371 38.4653 162.621 33.465 150.2C28.4646 137.79 30.5473 71.1717 30.5473 71.1717C30.5473 71.1717 30.5953 35.4282 38.4653 24.3236L38.4557 24.3337Z" fill="#EBEBF2"/>
<mask id="mask1_17347_28244" style="mask-type:luminance" maskUnits="userSpaceOnUse" x="30" y="4" width="292" height="171">
<path d="M38.4557 24.3337C43.4752 17.2579 47.7749 12.1661 70.1373 8.70411C105.562 3.21757 258.067 3.46052 286.476 10.3541C302.888 14.3425 318.57 14.9296 320.24 43.8706C321.555 66.5861 323.993 128.274 318.158 142.345C312.322 156.416 307.735 170.476 280.641 171.721C253.547 172.966 101.406 175.861 76.3949 174.616C51.3836 173.371 38.4653 162.621 33.465 150.2C28.4646 137.79 30.5473 71.1717 30.5473 71.1717C30.5473 71.1717 30.5953 35.4282 38.4653 24.3236L38.4557 24.3337Z" fill="white"/>
</mask>
<g mask="url(#mask1_17347_28244)">
<path fill-rule="evenodd" clip-rule="evenodd" d="M231.063 124.878C230.51 136.853 229.048 139.882 218.92 146.706H263.817C253.69 139.882 252.228 136.853 251.676 124.878L241.369 123.904L231.063 124.878Z" fill="#0049CD"/>
<path d="M252.018 126.23H230.706V130.025H252.018V126.23Z" fill="#00338F"/>
<path fill-rule="evenodd" clip-rule="evenodd" d="M303.065 38.374V122.554C303.065 125.135 300.968 127.231 298.385 127.231H184.353C181.77 127.231 179.673 125.135 179.673 122.554V38.374C179.673 35.7929 181.77 33.6973 184.353 33.6973H298.385C300.968 33.6973 303.065 35.7929 303.065 38.374Z" fill="#0049CD"/>
<path fill-rule="evenodd" clip-rule="evenodd" d="M299.113 40.8694V103.731C299.113 105.659 297.547 107.224 295.618 107.224H187.118C185.189 107.224 183.623 105.659 183.623 103.731V40.8694C183.623 38.9419 185.189 37.377 187.118 37.377H295.618C297.547 37.377 299.113 38.9419 299.113 40.8694Z" fill="white"/>
<path d="M241.369 117.861C243.058 117.861 244.428 116.493 244.428 114.805C244.428 113.117 243.058 111.748 241.369 111.748C239.679 111.748 238.31 113.117 238.31 114.805C238.31 116.493 239.679 117.861 241.369 117.861Z" fill="white"/>
<path d="M251.954 67.1704H247.005V57.3762C247.005 54.2709 244.476 51.7448 241.368 51.7448C238.261 51.7448 235.732 54.2709 235.732 57.3762V67.1704H230.782V57.3762C230.782 51.5436 235.531 46.7988 241.368 46.7988C247.205 46.7988 251.954 51.5436 251.954 57.3762V67.1704Z" fill="#B2C8F0"/>
<path d="M236.582 54.4053C237.476 52.9726 238.995 51.9682 240.756 51.7773C240.758 51.7773 240.761 51.7778 240.763 51.7782C239 51.9674 237.478 52.9714 236.582 54.4053Z" fill="#99B5F0"/>
<path d="M235.736 57.1566C235.776 56.1501 236.08 55.2108 236.582 54.4062C236.08 55.2104 235.776 56.1501 235.736 57.1566Z" fill="#8DA8F5"/>
<path d="M251.652 84.6786H231.085C229.197 84.6786 227.666 83.1491 227.666 81.2622V67.1172C227.666 65.2307 229.197 63.7012 231.085 63.7012H251.652C253.54 63.7012 255.071 65.2307 255.071 67.1172V81.2622C255.071 83.1491 253.54 84.6786 251.652 84.6786Z" fill="#FFC107"/>
<path d="M244.44 71.5479C244.44 69.8527 243.065 68.4785 241.369 68.4785C239.672 68.4785 238.297 69.8527 238.297 71.5479C238.297 72.6434 238.875 73.5976 239.739 74.1408V79.3147C239.739 80.2136 240.469 80.9427 241.369 80.9427C242.268 80.9427 242.998 80.2136 242.998 79.3147V74.1408C243.862 73.5976 244.44 72.6434 244.44 71.5479Z" fill="#00163E"/>
<path d="M256.481 100.286H226.256C223.272 100.286 220.854 97.8688 220.854 94.8872C220.854 91.9052 223.272 89.4883 226.256 89.4883H256.481C259.465 89.4883 261.884 91.9052 261.884 94.8872C261.884 97.8688 259.465 100.286 256.481 100.286Z" fill="#0049CD"/>
<path d="M227.345 97.384L227.549 95.4715L226.013 96.661L225.472 95.7147L227.163 94.8636L225.432 94.0595L225.979 93.1202L227.542 94.2552L227.345 92.3906H228.427L228.265 94.2355L229.794 93.0728L230.341 94.0121L228.603 94.8636L230.341 95.7621L229.794 96.7084L228.265 95.5058L228.427 97.384H227.345Z" fill="#FFC107"/>
<path d="M236.333 97.384L236.537 95.4715L235.002 96.661L234.461 95.7147L236.151 94.8636L234.42 94.0595L234.968 93.1202L236.53 94.2552L236.333 92.3906H237.415L237.253 94.2355L238.782 93.0728L239.329 94.0121L237.592 94.8636L239.329 95.7621L238.782 96.7084L237.253 95.5058L237.415 97.384H236.333Z" fill="#FFC107"/>
<path d="M245.322 97.384L245.525 95.4715L243.99 96.661L243.449 95.7147L245.139 94.8636L243.408 94.0595L243.956 93.1202L245.518 94.2552L245.322 92.3906H246.404L246.242 94.2355L247.77 93.0728L248.318 94.0121L246.58 94.8636L248.318 95.7621L247.77 96.7084L246.242 95.5058L246.404 97.384H245.322Z" fill="#FFC107"/>
<path d="M254.309 97.384L254.512 95.4715L252.977 96.661L252.436 95.7147L254.127 94.8636L252.396 94.0595L252.943 93.1202L254.505 94.2552L254.309 92.3906H255.391L255.229 94.2355L256.757 93.0728L257.305 94.0121L255.567 94.8636L257.305 95.7621L256.757 96.7084L255.229 95.5058L255.391 97.384H254.309Z" fill="#FFC107"/>
<path d="M211.694 68.8903C218.072 68.8903 223.242 63.7238 223.242 57.3505C223.242 50.9772 218.072 45.8107 211.694 45.8107C205.315 45.8107 200.145 50.9772 200.145 57.3505C200.145 63.7238 205.315 68.8903 211.694 68.8903Z" fill="#EB5757"/>
<path d="M215.457 52.7347C215.695 52.7347 215.905 52.8137 216.069 52.9781C216.234 53.1428 216.313 53.3527 216.313 53.5908C216.313 53.8289 216.234 54.0387 216.069 54.2031L212.919 57.3505L216.069 60.4979C216.234 60.6626 216.313 60.8721 216.313 61.1106C216.313 61.3487 216.234 61.5582 216.069 61.7225C215.905 61.8873 215.695 61.9666 215.457 61.9666C215.218 61.9666 215.008 61.8873 214.844 61.7225L211.694 58.5751L208.544 61.7225C208.379 61.8873 208.169 61.9666 207.931 61.9666C207.693 61.9666 207.483 61.8873 207.318 61.7225C207.153 61.5582 207.074 61.3487 207.074 61.1106C207.074 60.8721 207.153 60.6626 207.318 60.4979L210.468 57.3505L207.318 54.2031C207.153 54.0387 207.074 53.8289 207.074 53.5908C207.074 53.3527 207.153 53.1428 207.318 52.9781C207.483 52.8137 207.693 52.7347 207.931 52.7347C208.169 52.7347 208.379 52.8137 208.544 52.9781L211.694 56.1255L214.844 52.9781C215.008 52.8137 215.218 52.7347 215.457 52.7347Z" fill="white" stroke="white" stroke-width="0.331631"/>
<path d="M267.729 85.6902C271.086 85.6902 273.807 82.9709 273.807 79.6166C273.807 76.2622 271.086 73.543 267.729 73.543C264.372 73.543 261.65 76.2622 261.65 79.6166C261.65 82.9709 264.372 85.6902 267.729 85.6902Z" fill="#EB5757"/>
<path d="M269.709 77.1875C269.834 77.1875 269.944 77.2291 270.031 77.3156C270.118 77.4023 270.16 77.5127 270.16 77.638C270.16 77.7633 270.118 77.8738 270.031 77.9603L268.373 79.6168L270.031 81.2734C270.118 81.3601 270.16 81.4703 270.16 81.5958C270.16 81.7212 270.118 81.8314 270.031 81.9179C269.944 82.0046 269.834 82.0464 269.709 82.0464C269.583 82.0464 269.473 82.0046 269.386 81.9179L267.728 80.2614L266.071 81.9179C265.984 82.0046 265.873 82.0464 265.748 82.0464C265.622 82.0464 265.512 82.0046 265.425 81.9179C265.338 81.8314 265.297 81.7212 265.297 81.5958C265.297 81.4703 265.338 81.3601 265.425 81.2734L267.083 79.6168L265.425 77.9603C265.338 77.8738 265.297 77.7633 265.297 77.638C265.297 77.5127 265.338 77.4023 265.425 77.3156C265.512 77.2291 265.622 77.1875 265.748 77.1875C265.873 77.1875 265.984 77.2291 266.071 77.3156L267.728 78.9721L269.386 77.3156C269.473 77.2291 269.583 77.1875 269.709 77.1875Z" fill="white" stroke="white" stroke-width="0.174543"/>
<path fill-rule="evenodd" clip-rule="evenodd" d="M268.978 50.4081C269.429 49.7322 270.189 49.3262 271.001 49.3262C271.814 49.3262 272.574 49.7322 273.024 50.4081C274.619 52.7978 276.851 56.1431 278.561 58.7069C279.059 59.4524 279.105 60.4108 278.682 61.2008C278.259 61.9908 277.435 62.4839 276.538 62.4839C273.231 62.4839 268.772 62.4839 265.465 62.4839C264.568 62.4839 263.744 61.9908 263.321 61.2008C262.898 60.4108 262.944 59.4524 263.442 58.7069C265.152 56.1431 267.384 52.7978 268.978 50.4081Z" fill="#FF8E43"/>
<path fill-rule="evenodd" clip-rule="evenodd" d="M271.758 52.2866V57.7003C271.758 58.1172 271.419 58.4557 271.002 58.4557C270.585 58.4557 270.246 58.1172 270.246 57.7003V52.2866C270.246 51.8698 270.585 51.5312 271.002 51.5312C271.419 51.5312 271.758 51.8698 271.758 52.2866Z" fill="white"/>
<path d="M271.002 60.9737C271.42 60.9737 271.758 60.6355 271.758 60.2183C271.758 59.8011 271.42 59.4629 271.002 59.4629C270.585 59.4629 270.246 59.8011 270.246 60.2183C270.246 60.6355 270.585 60.9737 271.002 60.9737Z" fill="white"/>
<path fill-rule="evenodd" clip-rule="evenodd" d="M210.058 78.4095C210.336 77.9927 210.804 77.7423 211.306 77.7423C211.807 77.7423 212.275 77.9927 212.553 78.4095C213.537 79.8833 214.913 81.9463 215.968 83.5274C216.275 83.9871 216.303 84.5782 216.042 85.0654C215.781 85.5526 215.273 85.8567 214.72 85.8567C212.681 85.8567 209.93 85.8567 207.891 85.8567C207.338 85.8567 206.83 85.5526 206.569 85.0654C206.308 84.5782 206.337 83.9871 206.643 83.5274C207.698 81.9463 209.075 79.8833 210.058 78.4095Z" fill="#FF8E43"/>
<path fill-rule="evenodd" clip-rule="evenodd" d="M211.771 79.5677V82.9063C211.771 83.1634 211.562 83.3721 211.305 83.3721C211.048 83.3721 210.839 83.1634 210.839 82.9063V79.5677C210.839 79.3106 211.048 79.1018 211.305 79.1018C211.562 79.1018 211.771 79.3106 211.771 79.5677Z" fill="white"/>
<path d="M211.305 84.9261C211.563 84.9261 211.771 84.7175 211.771 84.4602C211.771 84.203 211.563 83.9944 211.305 83.9944C211.048 83.9944 210.839 84.203 210.839 84.4602C210.839 84.7175 211.048 84.9261 211.305 84.9261Z" fill="white"/>
<path d="M293.738 153.055H188.998V181.088H293.738V153.055Z" fill="#21B531"/>
<path fill-rule="evenodd" clip-rule="evenodd" d="M303.09 148.604C303.09 151.183 300.995 153.276 298.415 153.276H184.322C181.742 153.276 179.646 151.183 179.646 148.604C179.646 146.025 181.742 143.932 184.322 143.932H298.415C300.995 143.932 303.09 146.025 303.09 148.604Z" fill="#21B531"/>
<path d="M196.041 153.275H286.695" stroke="#115B19" stroke-width="2.00008" stroke-miterlimit="1.5" stroke-linecap="round" stroke-linejoin="round"/>
</g>
<path d="M72.3385 105.68C74.6082 104.453 90.275 96.752 90.275 96.752H101.082C101.082 96.752 114.107 102.769 116.377 103.996C118.646 105.223 114.78 186.443 114.78 186.443H75.8261C75.8261 186.443 69.7122 107.408 71.9819 106.18" fill="#FFC7A1"/>
<path fill-rule="evenodd" clip-rule="evenodd" d="M72.5616 169.873L70.2607 198.001H123.621L118.757 169.873H72.5616Z" fill="#21B531"/>
<path d="M101.61 198.002V192.363L105.093 190.479" stroke="#115B19" stroke-width="2.09" stroke-miterlimit="1.5" stroke-linecap="round" stroke-linejoin="round"/>
<path d="M92.4607 102.583L97.5811 103.883C99.5293 104.376 101.51 103.199 102.004 101.252L104.981 89.5362C105.476 87.5895 104.298 85.6114 102.35 85.1168L97.2293 83.8174C95.2811 83.3241 93.3001 84.5011 92.8064 86.4477L89.8283 98.164C89.3346 100.111 90.5125 102.089 92.4607 102.583Z" fill="#FFC7A1"/>
<path d="M92.8053 86.4477C93.3002 84.5011 95.2799 83.3241 97.2281 83.8174L102.349 85.1168C104.297 85.6114 105.476 87.5895 104.981 89.5362L103.146 96.7592C98.5637 97.0525 94.1275 95.1459 91.1773 92.855L92.8053 86.4477Z" fill="#EA989D"/>
<path d="M116.314 129.431C118.876 121.082 124.797 126.314 125.288 126.824C127.898 129.538 129.704 137.605 135.086 151.194C135.086 151.194 138.446 161.431 125.548 156C125.548 156 115.222 132.989 116.314 129.431Z" fill="#FFC7A1"/>
<path d="M114.415 104.521C114.415 104.521 120.274 105.406 121.953 106.748C127.887 111.496 134.262 138.446 134.262 138.446C134.262 138.446 125.72 144.405 117.294 143.041L110.669 122.674C110.669 122.674 108.43 107.373 114.415 104.521Z" fill="#0049CD"/>
<path d="M103.069 96.9551C103.069 96.9551 99.0436 102.031 98.3873 107.907L99.803 143.109L102.124 183.235C102.124 183.235 122.314 182.259 121.58 175.499C120.235 163.107 118.299 156.55 119.044 145.697C120.698 121.578 120.141 105.814 120.141 105.814C120.141 105.814 117.815 102.744 104.82 98.1417" fill="#0049CD"/>
<path d="M120.142 164.554C119.797 157.157 118.426 150.82 118.707 145.727C119.09 138.754 119.205 127.567 117.945 119.684" stroke="#00338F" stroke-width="1.9957" stroke-miterlimit="2" stroke-linecap="round" stroke-linejoin="bevel"/>
<path d="M89.2152 95.7891C89.2152 95.7891 98.5304 107.639 98.3873 107.567L102.532 159.465C102.532 159.465 102.699 183.141 102.125 183.236C84.722 186.085 69.891 177.26 69.891 177.26C69.891 177.26 70.4781 167.592 70.8541 159.87C72.026 135.775 70.3434 106.028 70.3434 106.028C70.3434 106.028 71.2193 103.732 84.9658 98.88" fill="#0049CD"/>
<path d="M98.3867 108.279C98.3867 108.279 101.04 124.561 101.241 132.202C101.495 141.91 102.546 180.111 102.546 180.111" stroke="#00338F" stroke-width="1.99913" stroke-miterlimit="1.5" stroke-linecap="round" stroke-linejoin="round"/>
<path d="M88.8764 95.7871C88.8764 95.7871 85.1266 100.712 87.6836 111.529C87.6836 111.529 92.2694 106.725 94.2141 105.891C96.045 105.107 97.3785 106.979 98.3875 108.861" stroke="#00338F" stroke-width="1.99913" stroke-miterlimit="1.5" stroke-linecap="round" stroke-linejoin="round"/>
<path d="M103.979 96.9551C103.979 96.9551 108.444 100.713 107.388 111.529C107.388 111.529 103.698 105.619 102.198 105.16C100.698 104.702 99.3341 106.664 98.387 108.778" stroke="#00338F" stroke-width="1.99913" stroke-miterlimit="1.5" stroke-linecap="round" stroke-linejoin="round"/>
<path fill-rule="evenodd" clip-rule="evenodd" d="M96.3482 111.529L95.8477 143.791L101.417 150.044L105.559 143.791L101.268 111.029L96.3482 111.529Z" fill="#21B531"/>
<path d="M96.3482 111.529L95.8477 143.791L101.354 150.043" stroke="white" stroke-width="1.33413" stroke-miterlimit="1.5" stroke-linecap="round" stroke-linejoin="round"/>
<path fill-rule="evenodd" clip-rule="evenodd" d="M96.348 111.529C97.1001 112.43 100.63 112.073 101.268 111.278C102.1 110.243 102.171 105.59 102.105 106.027C102.105 106.027 98.6267 104.691 94.3457 106.777C94.3457 106.777 94.8661 109.752 96.348 111.529Z" fill="#21B531"/>
<path d="M94.5957 107.527C94.5957 107.527 94.8658 109.752 96.3477 111.529C96.6961 111.946 97.6407 112.094 98.6181 112.053" stroke="white" stroke-width="1.33413" stroke-miterlimit="1.5" stroke-linecap="round" stroke-linejoin="round"/>
<path d="M60.3583 156.37C60.0253 147.428 66.8598 125.697 66.8598 125.697C66.8598 125.697 79.1622 116.625 78.5131 132.514L74.5713 153.691C74.5713 153.691 65.0519 168.195 60.3583 156.37Z" fill="#FFC7A1"/>
<path d="M72.841 104.166C69.169 106.415 67.6284 108.248 66.8349 109.919C66.0414 111.589 58.5704 133.368 57.9933 135.522C57.4162 137.676 68.6721 146.604 78.3748 141.14L83.0751 120.314C83.0751 120.314 82.2545 98.4003 72.841 104.166Z" fill="#0049CD"/>
<path d="M59.6055 138.11C63.0062 141.269 71.1237 145.221 78.3735 141.139L83.1865 124.648" stroke="#00338F" stroke-width="2.00231" stroke-miterlimit="2" stroke-linecap="round" stroke-linejoin="round"/>
<path d="M61.2451 163.018C62.9242 161.625 65.4144 161.856 66.8085 163.534C68.2015 165.211 67.9706 167.699 66.2915 169.092C64.6138 170.484 62.1223 170.254 60.7292 168.577C59.3351 166.899 59.5673 164.41 61.2451 163.018ZM162.147 85.5637C161.575 82.9258 160.378 80.3861 158.533 78.1658L156.02 75.1409L97.7931 123.44L97.2759 122.817C95.8934 121.153 93.3998 120.92 91.7348 122.302C91.0214 122.893 90.5883 123.696 90.4167 124.543C79.3469 119.603 65.959 120.991 56.0006 129.251C42.0357 140.835 40.1144 161.538 51.7082 175.492C63.3031 189.448 84.0234 191.372 97.9883 179.788C107.947 171.528 111.774 158.633 108.952 146.853C109.818 146.841 110.686 146.562 111.399 145.97C113.064 144.589 113.294 142.097 111.912 140.433L111.396 139.812L130.084 124.31L129.42 119.149L135.943 119.45L146.118 111.01L148.503 103.018L155.448 103.27L156.269 102.59C161.423 98.3141 163.471 91.6847 162.147 85.5637Z" fill="#FFBB59"/>
<path d="M160.055 79.3577L107.657 122.821C106.335 123.918 106.151 125.896 107.249 127.218C108.347 128.539 110.327 128.723 111.649 127.626L162.578 85.381" stroke="white" stroke-width="2.00216" stroke-miterlimit="10" stroke-linecap="round" stroke-linejoin="round"/>
<path d="M97.7939 123.44L111.715 140.196" stroke="#FB9243" stroke-width="2.00216" stroke-miterlimit="10" stroke-linecap="round" stroke-linejoin="round"/>
<path d="M90.417 124.543L108.43 146.225" stroke="white" stroke-width="2.00216" stroke-miterlimit="10" stroke-linecap="round" stroke-linejoin="round"/>
<path d="M59.8304 139.22C69.645 131.078 84.2073 132.43 92.3562 142.238C100.505 152.046 99.1548 166.597 89.3402 174.738C79.5256 182.879 64.9633 181.528 56.8144 171.72C48.6655 161.911 50.0158 147.361 59.8304 139.22Z" stroke="#FB9243" stroke-width="2.00255" stroke-miterlimit="10"/>
<path d="M152.336 116.79C149.801 118.825 145.916 117.048 144.621 114.799C143.112 112.177 144.27 109.2 145.781 106.605C145.367 106.334 144.956 106.062 144.543 105.796C143.471 105.107 142.395 104.418 141.323 103.73C140.482 103.186 139.587 102.346 140.096 101.193C140.558 100.151 141.734 99.7559 142.754 99.8091C143.88 99.8698 145.01 100.245 146.035 100.621C146.141 100.661 148.493 102.05 148.597 102.092C148.572 101.959 147.53 97.9037 146.149 95.6954C145.505 94.6645 145.171 93.374 146.05 92.2953C146.86 91.2971 148.138 90.9106 149.193 91.4755C149.101 90.9511 149.036 90.4083 149.188 89.8738C149.395 89.1382 149.96 88.5952 150.702 88.3905C151.573 88.1489 152.303 88.3867 152.894 88.8442C152.91 88.7168 152.93 88.5882 152.961 88.4573C153.154 87.6583 153.645 86.9048 154.438 86.5491C155.087 86.2592 155.812 86.3098 156.405 86.5917C157.713 87.2177 158.575 88.4855 159.093 89.7788C161.273 95.2271 161.382 102.339 157.941 108.338C156.774 110.371 155.454 112.322 154.245 114.334C153.663 115.302 153.095 116.181 152.336 116.79Z" fill="#FFC7A1"/>
<path d="M152.32 104.869C150.695 103.469 148.932 102.223 147.05 101.156C146.163 100.652 145.254 100.149 144.298 99.7641C143.438 99.4179 142.458 99.2109 141.494 99.5025C140.517 99.7994 139.626 100.591 139.475 101.614C139.38 102.264 140.39 102.357 140.486 101.705C140.585 101.033 141.234 100.553 141.882 100.419C142.695 100.252 143.485 100.54 144.18 100.849C145.919 101.626 147.561 102.618 149.1 103.702C149.988 104.326 150.842 104.994 151.662 105.7C152.137 106.109 152.794 105.277 152.32 104.869Z" fill="#EA989D" stroke="#EA989D" stroke-width="0.598711" stroke-miterlimit="2" stroke-linejoin="round"/>
<path d="M154.547 104.786C154.734 102.352 154.431 99.9503 153.656 97.715C153.269 96.5971 152.763 95.5304 152.162 94.5237C151.559 93.5141 150.858 92.5216 150.003 91.7121C149.072 90.8328 147.65 90.3864 146.393 91.2101C145.821 91.5852 146.41 92.3603 146.979 91.9881C147.883 91.3937 148.91 92.0805 149.476 92.6777C150.197 93.4367 150.81 94.3139 151.344 95.2153C152.397 96.9912 153.106 99.0018 153.409 101.089C153.581 102.27 153.629 103.48 153.536 104.694C153.514 104.967 153.657 105.217 153.95 105.244C154.201 105.266 154.525 105.06 154.547 104.786Z" fill="#EA989D" stroke="#EA989D" stroke-width="0.598711" stroke-miterlimit="2" stroke-linejoin="round"/>
<path d="M158.786 103.774C159.199 100.576 158.658 97.4003 157.404 94.5777C156.739 93.0808 155.889 91.6735 154.901 90.3794C153.979 89.1717 152.789 87.8681 151.041 87.9955C150.223 88.0555 149.378 88.4936 148.924 89.2161C148.472 89.9342 148.455 90.859 148.959 91.4747C149.355 91.9577 150.201 91.3126 149.803 90.8268C149.489 90.4449 149.57 89.8653 149.945 89.4819C150.367 89.0511 151.008 88.9339 151.548 89.029C152.925 89.2698 153.798 90.6356 154.527 91.6661C156.107 93.897 157.272 96.4657 157.706 99.2366C157.934 100.691 157.97 102.186 157.776 103.682C157.692 104.332 158.701 104.427 158.786 103.774Z" fill="#EA989D" stroke="#EA989D" stroke-width="0.598711" stroke-miterlimit="2" stroke-linejoin="round"/>
<path d="M149.235 102.311C149.184 100.354 148.682 98.4622 147.771 96.795C147.071 95.5171 145.408 93.5805 146.792 92.0151C147.244 91.5044 146.455 90.9275 146.004 91.4383C145.37 92.1541 145.173 93.1231 145.293 93.9928C145.439 95.0386 146.009 95.9078 146.537 96.773C147.579 98.4784 148.157 100.416 148.211 102.478C148.229 103.126 149.252 102.956 149.235 102.311Z" fill="#EA989D" stroke="#EA989D" stroke-width="0.598711" stroke-miterlimit="2" stroke-linejoin="round"/>
<path d="M159.632 106.166C161.112 102.919 161.232 99.3832 160.887 96.0435C160.7 94.2311 160.431 92.3996 159.838 90.702C159.261 89.0523 158.292 87.1886 156.613 86.4528C155.827 86.1087 154.801 86.0664 153.977 86.5208C153.131 86.9858 152.553 87.8602 152.603 88.7876C152.638 89.434 153.662 89.2637 153.627 88.6197C153.595 88.025 154.084 87.4771 154.656 87.2892C155.307 87.0746 156.004 87.2535 156.524 87.5933C157.846 88.455 158.567 90.1153 159.021 91.585C159.49 93.1022 159.713 94.7114 159.873 96.3101C160.022 97.7975 160.087 99.3091 159.957 100.825C159.811 102.526 159.433 104.218 158.702 105.823C158.423 106.434 159.352 106.781 159.632 106.166Z" fill="#EA989D" stroke="#EA989D" stroke-width="0.598711" stroke-miterlimit="2" stroke-linejoin="round"/>
<path d="M152.825 115.384C150.444 122.595 148.303 129.897 145.677 137.023C140.296 151.627 136.892 153.781 135.47 156.141C134.04 158.516 127.99 157.807 126.711 155.227C122.508 146.748 135.711 127.534 144.858 113.778C149.013 110.917 153.12 114.493 152.825 115.384Z" fill="#FFC7A1"/>
<path d="M142.034 116.718C142.168 116.546 142.362 116.437 142.578 116.41C142.796 116.385 143.01 116.444 143.181 116.579C143.353 116.713 143.462 116.907 143.488 117.123C143.514 117.34 143.454 117.554 143.319 117.726C140.626 121.165 131.807 134.757 128.745 145.827C128.627 146.249 128.188 146.506 127.761 146.401L127.752 146.399L127.699 146.382C127.506 146.319 127.347 146.188 127.247 146.012C127.139 145.822 127.111 145.6 127.169 145.391C128.611 140.181 131.227 134.53 133.919 129.574C137.142 123.642 140.476 118.706 142.034 116.718Z" fill="#EA989D" stroke="#EA989D" stroke-width="0.528861" stroke-miterlimit="2" stroke-linejoin="round"/>
<path d="M118.327 54.0473C118.327 54.0473 116.867 52.0893 114.088 49.9731C116.29 49.5241 117.112 48.7705 117.112 48.7705C113.287 47.9686 109.631 46.9381 107.36 46.2567C106.635 45.9893 105.874 45.7528 105.082 45.5479C105.054 45.5385 105.028 45.5298 105.028 45.5298L105.037 45.5364C102.784 44.9549 100.268 44.6494 97.4925 44.8158C91.932 45.1487 89.7823 51.343 89.7823 51.343C89.7823 51.343 85.2253 52.0394 84.5231 52.7777C84.1865 53.1309 82.6332 54.9125 81.6114 58.5224L81.6106 58.5192C81.6106 58.5192 79.6542 64.51 77.9956 66.0979C77.9956 66.0979 79.3707 65.7618 80.702 65.0934C80.6428 68.4034 81.0847 72.4487 82.4184 77.33C83.774 82.2888 94.2056 85.7148 94.2056 85.7148L119.002 78.7008C119.002 78.7008 126.355 61.0892 118.327 54.0473Z" fill="#12161C"/>
<path fill-rule="evenodd" clip-rule="evenodd" d="M88.4277 85.252L91.1787 90.2447L95.8679 85.3223L89.5827 85.5446" fill="#12161C"/>
<path d="M110.267 56.7134L91.121 61.9334L85.9769 69.4916C85.3041 74.4014 86.3807 79.6054 88.9725 83.9287C91.0346 87.3683 94.2907 90.8797 97.2629 92.3596C103.837 95.632 114.917 91.9759 117.46 86.9783C118.254 85.4177 118.425 83.5658 118.748 81.813C119.474 79.0413 119.305 72.9542 119.006 71.2394C118.06 65.4499 115.108 59.8461 110.267 56.7134Z" fill="#FFC7A1"/>
<path d="M84.8173 72.994C80.5308 73.7713 80.073 78.8743 81.8583 82.1479C83.7273 85.5764 88.1958 86.7882 91.5255 84.7554C91.5993 84.7103 91.6214 84.5909 91.6228 84.439C91.8451 83.5463 92.1789 80.8223 89.4861 77.0598C89.4861 77.0598 87.7756 72.2376 84.8173 72.994Z" fill="#FFC7A1"/>
<path d="M88.7517 77.7879C87.0226 76.1917 84.6832 75.6458 82.4187 76.2415C81.1209 76.5828 81.764 78.5653 83.0619 78.2254C84.6108 77.8181 86.1763 78.2461 87.3436 79.3264C88.3312 80.2391 89.738 78.7007 88.7517 77.7879Z" fill="#EA989D"/>
<path d="M108.391 80.3257C108.391 80.3257 109.617 76.3721 106.214 78.472" stroke="#12161C" stroke-width="1.32967" stroke-miterlimit="10" stroke-linecap="round"/>
<path d="M97.4409 77.9532C97.4409 77.9532 95.3817 73.3166 98.5868 72.4316C101.791 71.5468 101.608 76.0276 101.608 76.0276" stroke="#12161C" stroke-width="1.32508" stroke-miterlimit="1.5" stroke-linecap="round" stroke-linejoin="round"/>
<path d="M114.003 74.6641C114.003 74.6641 114.456 70.8483 112.005 70.8326C109.555 70.817 110.54 75.0925 110.54 75.0925" stroke="#12161C" stroke-width="1.32861" stroke-miterlimit="1.5" stroke-linecap="round" stroke-linejoin="round"/>
<path d="M117.537 68.7383C117.537 68.7383 114.853 70.182 110.317 67.942" stroke="#12161C" stroke-width="1.32967" stroke-miterlimit="10" stroke-linecap="round"/>
<path d="M102.763 64.0383C102.763 64.0383 97.1146 68.0196 92.4307 69.93" stroke="#12161C" stroke-width="1.32967" stroke-miterlimit="10" stroke-linecap="round"/>
<mask id="mask2_17347_28244" style="mask-type:luminance" maskUnits="userSpaceOnUse" x="101" y="84" width="9" height="6">
<path d="M108.395 84.2514L109.007 88.634L101.202 89.2252L101.141 84.863L108.395 84.2514Z" fill="white"/>
</mask>
<g mask="url(#mask2_17347_28244)">
<path d="M109.006 88.635L108.394 84.252L101.14 84.8637L101.201 89.2266L109.006 88.635Z" fill="#12161C"/>
<path d="M106.859 89.2816C106.72 87.737 105.354 86.5969 103.809 86.7354C102.264 86.8739 101.123 88.2385 101.262 89.7831C101.402 91.3278 102.767 92.4678 104.313 92.3293C105.858 92.1908 106.998 90.8262 106.859 89.2816Z" fill="#EB5757"/>
<path d="M108.528 85.6364L108.394 84.2514L101.14 84.8632L101.156 86.4861L108.528 85.6364Z" fill="white"/>
</g>
<path d="M109.007 88.6349L108.395 84.2519L101.141 84.8636L101.202 89.2265L109.007 88.6349Z" stroke="#12161C" stroke-width="1.06833" stroke-miterlimit="10" stroke-linecap="round" stroke-linejoin="round"/>
<path d="M99.982 59.055C101.234 60.2615 105.304 63.531 105.304 63.531C105.304 63.531 109.76 66.8452 114.881 66.9722C114.881 66.9722 114.245 64.6422 114.022 63.8308C113.801 63.0189 114.985 66.0673 118.112 67.4356C118.112 67.4356 117.374 56.9378 114.555 54.4238C110.646 50.9345 100.569 50.9471 97.5343 53.9652C96.3962 55.0986 98.9646 58.0751 99.982 59.055Z" fill="#12161C"/>
<path d="M86.461 66.4768C87.2673 68.5208 87.7516 73.5821 89.4318 77.6424C89.4318 77.6424 85.6529 75.2754 84.3534 70.1461C84.3534 70.1461 83.6973 64.3143 86.461 66.4768Z" fill="#12161C"/>
<path d="M91.1221 61.942C91.1221 61.942 90.6519 54.6437 93.5485 54.3241C100.878 53.5136 101.14 61.9334 106.349 67.7115C106.349 67.7115 100.245 67.9922 98.526 64.5009C98.526 64.5009 99.8726 68.2777 100.355 69.3464C100.355 69.3464 97.3987 68.6532 95.4701 60.9003L91.1221 61.942Z" fill="#12161C"/>
<path d="M91.1224 61.942L94.7842 56.5519L95.4708 60.9002L91.1224 61.942Z" fill="#595C60"/>
<path d="M54.7295 133.212C54.3514 134.228 52.768 134.581 51.1934 133.997C49.6174 133.413 48.647 132.116 49.0226 131.1C49.4011 130.083 50.9841 129.731 52.5605 130.314C54.1351 130.898 55.107 132.194 54.7295 133.212Z" fill="#FFC7A1"/>
<path d="M49.023 131.099C49.4002 130.082 50.9835 129.73 52.5595 130.313C54.1354 130.896 55.1071 132.194 54.7299 133.211C54.3527 134.228 52.7693 134.58 51.1934 133.997C49.6175 133.414 48.6457 132.116 49.023 131.099Z" stroke="#EA989D" stroke-width="1.33776" stroke-miterlimit="10"/>
<path d="M52.6543 137.745C52.2762 138.762 50.6928 139.114 49.1182 138.53C47.5422 137.947 46.5718 136.649 46.9474 135.633C47.3259 134.616 48.9089 134.265 50.4853 134.847C52.0599 135.431 53.0318 136.727 52.6543 137.745Z" fill="#FFC7A1"/>
<path d="M46.9478 135.632C47.325 134.615 48.9083 134.263 50.4843 134.846C52.0602 135.43 53.0319 136.727 52.6547 137.744C52.2775 138.761 50.6941 139.113 49.1182 138.53C47.5423 137.947 46.5706 136.649 46.9478 135.632Z" stroke="#EA989D" stroke-width="1.33776" stroke-miterlimit="10"/>
<path d="M51.9619 141.63C51.5838 142.646 50.0004 142.999 48.4258 142.415C46.8498 141.831 45.8794 140.534 46.255 139.518C46.6336 138.501 48.2165 138.149 49.793 138.732C51.3675 139.316 52.3394 140.612 51.9619 141.63Z" fill="#FFC7A1"/>
<path d="M46.2554 139.517C46.6326 138.5 48.216 138.148 49.7919 138.731C51.3678 139.314 52.3396 140.612 51.9623 141.629C51.5851 142.646 50.0018 142.998 48.4258 142.415C46.8499 141.831 45.8782 140.534 46.2554 139.517Z" stroke="#EA989D" stroke-width="1.33776" stroke-miterlimit="10"/>
<path d="M49.9155 146.322C49.5373 147.339 47.9539 147.691 46.379 147.108C44.8033 146.524 43.8329 145.226 44.2085 144.21C44.5871 143.193 46.1701 142.842 47.7465 143.424C49.321 144.008 50.2929 145.304 49.9155 146.322Z" fill="#FFC7A1"/>
<path d="M44.2085 144.21C44.5857 143.193 46.1691 142.841 47.745 143.425C49.3209 144.008 50.2927 145.305 49.9155 146.322C49.5382 147.339 47.9549 147.691 46.379 147.108C44.803 146.525 43.8313 145.227 44.2085 144.21Z" stroke="#EA989D" stroke-width="1.33776" stroke-miterlimit="10"/>
<path fill-rule="evenodd" clip-rule="evenodd" d="M71.7763 41.9115C71.7763 41.9115 63.1232 56.9678 70.984 58.2419C78.631 59.4809 72.6011 47.5945 71.7763 41.9115Z" fill="#B2C8F0"/>
<path d="M69.7674 48.8984C69.2665 50.6902 68.9201 53.1913 69.6264 55.8795" stroke="white" stroke-width="0.67" stroke-miterlimit="1.5" stroke-linecap="round" stroke-linejoin="round"/>
<path fill-rule="evenodd" clip-rule="evenodd" d="M79.0702 33.6888C79.0702 33.6888 70.4172 48.7452 78.278 50.0193C85.925 51.2583 79.8951 39.3719 79.0702 33.6888Z" fill="#B2C8F0"/>
<path d="M77.0613 40.6777C76.5605 42.4695 76.214 44.9706 76.9203 47.6588" stroke="white" stroke-width="0.67" stroke-miterlimit="1.5" stroke-linecap="round" stroke-linejoin="round"/>
<path fill-rule="evenodd" clip-rule="evenodd" d="M87.4481 35.756C87.4481 35.756 80.9702 47.0276 86.855 47.9814C92.5798 48.9089 88.0656 40.0104 87.4481 35.756Z" fill="#B2C8F0"/>
<path d="M85.9439 40.9844C85.569 42.3257 85.3096 44.1981 85.8384 46.2106" stroke="white" stroke-width="0.666277" stroke-miterlimit="1.5" stroke-linecap="round" stroke-linejoin="round"/>
<path d="M174.568 45.1208L168.156 46.4526L168.111 40.1013L174.466 40.6174L174.568 45.1208Z" fill="#B2C8F0"/>
<path d="M175.553 34.7046L162.948 28.7194L169.612 19.7248L179.373 28.7483L175.553 34.7046Z" fill="#B2C8F0"/>
<path d="M184.014 25.8443L183.806 19.2793L189.05 18.8003L188.405 26.1309L184.014 25.8443Z" fill="#B2C8F0"/>
<path d="M56.3395 84.207L52.9366 86.9437L52.2386 91.1858L49.5033 87.8711L45.2288 87.2202L48.617 84.4751L49.3305 80.2416L52.0558 83.5704L56.3395 84.207Z" fill="white"/>
<path d="M144.976 52.4763L142.614 54.376L142.129 57.3207L140.23 55.0198L137.263 54.5679L139.615 52.6624L140.11 49.7237L142.002 52.0344L144.976 52.4763Z" fill="white"/>
<path d="M124.186 25.6734L122.565 25.5983L121.316 26.601L121.386 25.0154L120.368 23.7902L121.987 23.8594L123.238 22.8629L123.162 24.45L124.186 25.6734Z" fill="white"/>
<path d="M165.253 156.404L162.533 156.375L160.474 158.114L160.536 155.476L158.786 153.502L161.503 153.521L163.565 151.791L163.493 154.432L165.253 156.404Z" fill="white"/>
<path d="M244.109 20.6714L241.081 20.5295L238.767 22.414L238.869 19.4329L236.946 17.1289L239.971 17.2597L242.289 15.3868L242.175 18.3707L244.109 20.6714Z" fill="white"/>
</g>
</g>
<defs>
<clipPath id="clip0_17347_28244">
<rect width="310" height="198" fill="white" transform="translate(21)"/>
</clipPath>
</defs>
</svg>
