<svg width="352" height="198" viewBox="0 0 352 198" fill="none" xmlns="http://www.w3.org/2000/svg">
<g clip-path="url(#clip0_15304_143222)">
<mask id="mask0_15304_143222" style="mask-type:luminance" maskUnits="userSpaceOnUse" x="21" y="0" width="310" height="199">
<path d="M331 0H21V198H331V0Z" fill="white"/>
</mask>
<g mask="url(#mask0_15304_143222)">
<path d="M38.4557 24.3337C43.4752 17.2579 47.7749 12.1661 70.1373 8.70411C105.562 3.21757 258.067 3.46052 286.476 10.3541C302.888 14.3425 318.57 14.9296 320.24 43.8706C321.555 66.5861 323.993 128.274 318.158 142.345C312.322 156.416 307.735 170.476 280.641 171.721C253.547 172.966 101.406 175.861 76.3949 174.616C51.3836 173.371 38.4653 162.621 33.465 150.2C28.4646 137.79 30.5473 71.1717 30.5473 71.1717C30.5473 71.1717 30.5953 35.4282 38.4653 24.3236L38.4557 24.3337Z" fill="#EBEBF2"/>
<mask id="mask1_15304_143222" style="mask-type:luminance" maskUnits="userSpaceOnUse" x="30" y="4" width="292" height="171">
<path d="M38.4557 24.3337C43.4752 17.2579 47.7749 12.1661 70.1373 8.70411C105.562 3.21757 258.067 3.46052 286.476 10.3541C302.888 14.3425 318.57 14.9296 320.24 43.8706C321.555 66.5861 323.993 128.274 318.158 142.345C312.322 156.416 307.735 170.476 280.641 171.721C253.547 172.966 101.406 175.861 76.3949 174.616C51.3836 173.371 38.4653 162.621 33.465 150.2C28.4646 137.79 30.5473 71.1717 30.5473 71.1717C30.5473 71.1717 30.5953 35.4282 38.4653 24.3236L38.4557 24.3337Z" fill="white"/>
</mask>
<g mask="url(#mask1_15304_143222)">
<path d="M30.1169 -6.69336H248.941V126.926H30.1169V-6.69336Z" stroke="white" stroke-width="1.33277" stroke-miterlimit="10" stroke-linecap="round" stroke-linejoin="round"/>
<path d="M30.1172 19.8477H248.942" stroke="white" stroke-width="1.33277" stroke-miterlimit="10" stroke-linecap="round" stroke-linejoin="round"/>
<path d="M30.1172 42.2793H248.942" stroke="white" stroke-width="1.33277" stroke-miterlimit="10" stroke-linecap="round" stroke-linejoin="round"/>
<path d="M30.1172 64.7109H248.942" stroke="white" stroke-width="1.33277" stroke-miterlimit="10" stroke-linecap="round" stroke-linejoin="round"/>
<path d="M30.1172 87.1445H248.942" stroke="white" stroke-width="1.33277" stroke-miterlimit="10" stroke-linecap="round" stroke-linejoin="round"/>
<path d="M30.1172 109.576H248.942" stroke="white" stroke-width="1.33277" stroke-miterlimit="10" stroke-linecap="round" stroke-linejoin="round"/>
<path d="M72.7529 20.1953V109.676" stroke="white" stroke-width="1.33277" stroke-miterlimit="10" stroke-linecap="round" stroke-linejoin="round"/>
<path d="M102.522 20.1953V109.676" stroke="white" stroke-width="1.33277" stroke-miterlimit="10" stroke-linecap="round" stroke-linejoin="round"/>
<path d="M132.291 20.1953V109.676" stroke="white" stroke-width="1.33277" stroke-miterlimit="10" stroke-linecap="round" stroke-linejoin="round"/>
<path d="M162.061 20.1953V109.676" stroke="white" stroke-width="1.33277" stroke-miterlimit="10" stroke-linecap="round" stroke-linejoin="round"/>
<path d="M191.83 20.1953V109.676" stroke="white" stroke-width="1.33277" stroke-miterlimit="10" stroke-linecap="round" stroke-linejoin="round"/>
<path fill-rule="evenodd" clip-rule="evenodd" d="M78.3687 126.785C78.3687 128.054 79.3994 129.084 80.6691 129.084H198.387C199.657 129.084 200.688 128.054 200.688 126.785C200.688 125.516 199.657 124.486 198.387 124.486H80.6691C79.3994 124.486 78.3687 125.516 78.3687 126.785Z" fill="white"/>
<path d="M38.3477 94.7964C38.3477 93.4025 39.4788 92.2726 40.8741 92.2726C42.2693 92.2726 43.4004 93.4025 43.4004 94.7964C43.4004 96.1903 42.2693 97.3203 40.8741 97.3203C39.4788 97.3203 38.3477 96.1903 38.3477 94.7964Z" stroke="white" stroke-width="0.53394" stroke-miterlimit="10"/>
<path d="M46.8955 93.6367H54.3481" stroke="white" stroke-width="0.53394" stroke-miterlimit="10" stroke-linecap="round" stroke-linejoin="round"/>
<path d="M46.8955 96.7324H58.9939" stroke="white" stroke-width="0.53163" stroke-miterlimit="10" stroke-linecap="round" stroke-linejoin="round"/>
<path d="M38.3477 103.392C38.3477 101.998 39.4788 100.868 40.8741 100.868C42.2693 100.868 43.4004 101.998 43.4004 103.392C43.4004 104.786 42.2693 105.916 40.8741 105.916C39.4788 105.916 38.3477 104.786 38.3477 103.392Z" stroke="white" stroke-width="0.53394" stroke-miterlimit="10"/>
<path d="M45.3467 102.232H52.7993" stroke="white" stroke-width="0.53394" stroke-miterlimit="10" stroke-linecap="round" stroke-linejoin="round"/>
<path d="M45.3467 105.328H58.9937" stroke="white" stroke-width="0.534497" stroke-miterlimit="10" stroke-linecap="round" stroke-linejoin="round"/>
<path d="M205.796 48.3887H242.537" stroke="white" stroke-width="1.16614" stroke-miterlimit="10" stroke-linecap="round"/>
<path d="M205.796 53.1934H242.537" stroke="white" stroke-width="1.16614" stroke-miterlimit="10" stroke-linecap="round"/>
<path d="M205.796 57.9982H242.537" stroke="white" stroke-width="1.16614" stroke-miterlimit="10" stroke-linecap="round"/>
<path d="M201.305 48.3887H196.877" stroke="white" stroke-width="1.16614" stroke-miterlimit="10" stroke-linecap="round"/>
<path d="M201.305 53.1934H196.877" stroke="white" stroke-width="1.16614" stroke-miterlimit="10" stroke-linecap="round"/>
<path d="M201.305 57.9982H196.877" stroke="white" stroke-width="1.16614" stroke-miterlimit="10" stroke-linecap="round"/>
<path d="M259.318 45.4479C259.318 58.9708 270.289 69.9328 283.823 69.9328C297.356 69.9328 308.33 58.9708 308.33 45.4479C308.33 31.9249 297.356 20.9629 283.823 20.9629C270.289 20.9629 259.318 31.9249 259.318 45.4479Z" fill="white"/>
<path d="M283.824 65.3523C294.808 65.3523 303.745 56.4226 303.745 45.4467C303.745 34.4707 294.808 25.541 283.824 25.541C272.839 25.541 263.902 34.4707 263.902 45.4467C263.902 56.4226 272.839 65.3523 283.824 65.3523Z" fill="#EBEBF2"/>
<path d="M283.597 49.1183C283.744 49.1599 283.909 49.1311 284.036 49.0321L296.982 38.985C297.199 38.8164 297.239 38.5039 297.07 38.2859C296.902 38.0692 296.588 38.0294 296.371 38.198L283.739 48.0015L274.577 40.5168C274.364 40.3426 274.049 40.3742 273.875 40.5881C273.7 40.8007 273.732 41.1138 273.945 41.288L283.415 49.0237C283.471 49.0694 283.531 49.1006 283.597 49.1183Z" fill="white" stroke="white" stroke-width="1.33261" stroke-miterlimit="2" stroke-linejoin="round"/>
<path d="M43.1112 148.056L56.6598 148.071L57.0614 148.072L55.1891 148.07L43.1112 148.056ZM59.8434 194.068C59.8653 194.647 59.8928 195.205 59.9256 195.746L59.9153 195.748C59.8804 195.207 59.852 194.647 59.8291 194.068L59.8434 194.068ZM60.0498 197.465C60.0267 197.223 60.0063 196.972 59.9869 196.721L59.992 196.722C60.0104 196.971 60.0287 197.224 60.0498 197.465ZM74.4011 227.397C74.9662 227.399 75.4277 226.933 75.4232 226.368C75.3127 209.836 71.9967 206.709 71.4136 194.678L71.4149 194.313L71.3985 194.314C71.3645 193.524 71.3402 192.7 71.3306 191.829C71.3246 191.269 70.8768 190.813 70.3167 190.813C68.1367 190.81 63.0032 190.805 60.808 190.801C60.2428 190.801 59.7827 191.263 59.7892 191.828C59.7946 192.215 59.8016 192.592 59.8101 192.964L59.7937 192.964C59.7842 192.593 59.7761 192.215 59.7718 191.829C59.7643 191.263 60.2265 190.801 60.7926 190.802L66.9543 190.809C67.5174 190.809 67.974 190.354 67.9745 189.791L67.9801 185.93L68.3443 185.939L68.3466 184.794L67.981 184.803L68.0018 169.518C68.0023 168.955 68.4589 168.499 69.022 168.5L70.6991 168.501C71.2622 168.503 71.7199 168.047 71.7203 167.484L71.7306 159.314C71.7321 158.751 71.276 158.295 70.7129 158.295L67.5652 158.29C67.003 158.29 66.547 157.834 66.5474 157.271L66.5578 149.377C66.5592 148.662 67.1404 148.083 67.8559 148.083C68.5723 148.084 69.1535 147.505 69.1539 146.789L69.1644 138.895C69.1657 138.334 68.7098 137.876 68.1466 137.876L60.3886 137.867L29.1224 137.833C28.5593 137.833 28.1027 138.288 28.1013 138.85L28.0908 146.717C28.0903 147.28 27.6337 147.736 27.0706 147.735L25.4833 147.735L25.4956 148.305L25.4844 157.225C25.4839 157.788 25.939 158.244 26.5021 158.245L34.1334 158.253L28.076 158.247L28.076 158.261L28.0616 158.261L28.075 158.831L28.0693 163.083L28.0689 163.924L28.0634 167.436C28.0629 167.999 28.519 168.455 29.0822 168.455L30.0694 168.457C30.6325 168.458 31.0876 168.914 31.0871 169.477L31.0607 189.75C31.0593 190.313 31.5153 190.769 32.0784 190.771L48.1985 190.788L28.5065 190.767C27.9404 190.765 27.4778 191.233 27.4843 191.798C27.5217 195.52 27.79 198.477 28.1726 201.088L28.1717 201.658L28.2566 201.656C29.4189 209.141 31.4854 213.917 31.5773 226.331C31.5812 226.891 32.033 227.35 32.593 227.351L62.8412 227.385C63.4064 227.385 63.8668 226.92 63.8633 226.356C63.8501 224.364 63.7899 222.567 63.6938 220.925C63.7988 222.571 63.8661 224.368 63.8808 226.367C63.8857 226.927 64.3374 227.386 64.8975 227.387L74.4011 227.397Z" fill="white"/>
<path d="M34.2148 147.609L60.7994 147.513" stroke="#EBEBF2" stroke-width="1.06506" stroke-miterlimit="10" stroke-linecap="round"/>
<path d="M17.5732 151.498L44.1578 151.402" stroke="#EBEBF2" stroke-width="1.06506" stroke-miterlimit="10" stroke-linecap="round"/>
<path d="M30.9834 157.59L64.592 158.518" stroke="#EBEBF2" stroke-width="1.06506" stroke-miterlimit="10" stroke-linecap="round"/>
<path d="M30.6904 161.588L47.5081 161.863" stroke="#EBEBF2" stroke-width="1.06506" stroke-miterlimit="10" stroke-linecap="round"/>
<path d="M55.2178 160.895L73.5946 161.219" stroke="#EBEBF2" stroke-width="1.06506" stroke-miterlimit="10" stroke-linecap="round"/>
<path d="M32.6484 168.951L66.8231 169.917" stroke="#EBEBF2" stroke-width="1.06506" stroke-miterlimit="10" stroke-linecap="round"/>
<path d="M42.6436 165.08L66.1044 165.777" stroke="#EBEBF2" stroke-width="1.06506" stroke-miterlimit="10" stroke-linecap="round"/>
<path d="M48.1045 153.734L69.9215 154.311" stroke="#EBEBF2" stroke-width="1.06506" stroke-miterlimit="10" stroke-linecap="round"/>
<path d="M38.1993 173.991L68.4077 174.941" stroke="#EBEBF2" stroke-width="1.06506" stroke-miterlimit="10" stroke-linecap="round"/>
<path d="M276.881 135.87C276.881 135.87 260.972 132.728 256.533 121.637C252.094 110.548 268.325 102.229 276.881 108.186C286.034 114.557 276.881 135.87 276.881 135.87Z" fill="white"/>
<path d="M276.496 135.604C276.496 135.604 285.611 153.4 289.869 163.41" stroke="white" stroke-width="1.07" stroke-miterlimit="1.5" stroke-linecap="round" stroke-linejoin="round"/>
<path d="M263.123 107.797C263.123 107.797 272.238 125.594 276.496 135.603" stroke="#EBEBF2" stroke-width="1.07" stroke-miterlimit="1.5" stroke-linecap="round" stroke-linejoin="round"/>
<path d="M256.104 114.363C256.104 114.363 266.92 120.686 276.886 135.869" stroke="#EBEBF2" stroke-width="1.07" stroke-miterlimit="1.5" stroke-linecap="round" stroke-linejoin="round"/>
<path d="M255.15 121.891C259.791 123.818 268.023 127.971 276.886 135.874" stroke="#EBEBF2" stroke-width="1.07" stroke-miterlimit="1.5" stroke-linecap="round" stroke-linejoin="round"/>
<path d="M272.383 106.236C272.383 106.236 270.926 118.672 277.062 135.762" stroke="#EBEBF2" stroke-width="1.07" stroke-miterlimit="1.5" stroke-linecap="round" stroke-linejoin="round"/>
<path d="M278.969 110.004C277.716 114.866 276.081 123.934 277.063 135.761" stroke="#EBEBF2" stroke-width="1.07" stroke-miterlimit="1.5" stroke-linecap="round" stroke-linejoin="round"/>
<path d="M296.815 136.986C296.815 136.986 312.724 133.843 317.163 122.752C321.603 111.663 305.371 103.345 296.815 109.301C287.663 115.672 296.815 136.986 296.815 136.986Z" fill="white"/>
<path d="M297.2 136.719C297.2 136.719 288.085 154.516 283.828 164.525" stroke="white" stroke-width="1.07" stroke-miterlimit="1.5" stroke-linecap="round" stroke-linejoin="round"/>
<path d="M310.572 108.912C310.572 108.912 301.457 126.709 297.2 136.718" stroke="#EBEBF2" stroke-width="1.07" stroke-miterlimit="1.5" stroke-linecap="round" stroke-linejoin="round"/>
<path d="M317.592 115.479C317.592 115.479 306.776 121.801 296.81 136.984" stroke="#EBEBF2" stroke-width="1.07" stroke-miterlimit="1.5" stroke-linecap="round" stroke-linejoin="round"/>
<path d="M318.546 123.006C313.906 124.933 305.674 129.086 296.81 136.989" stroke="#EBEBF2" stroke-width="1.07" stroke-miterlimit="1.5" stroke-linecap="round" stroke-linejoin="round"/>
<path d="M301.314 107.352C301.314 107.352 302.772 119.787 296.635 136.877" stroke="#EBEBF2" stroke-width="1.07" stroke-miterlimit="1.5" stroke-linecap="round" stroke-linejoin="round"/>
<path d="M294.728 111.119C295.98 115.981 297.615 125.049 296.633 136.876" stroke="#EBEBF2" stroke-width="1.07" stroke-miterlimit="1.5" stroke-linecap="round" stroke-linejoin="round"/>
<path d="M287.513 113.341C287.513 113.341 274.478 103.71 275.21 91.7861C275.942 79.8636 294.172 79.2693 299.358 88.3068C304.905 97.9743 287.513 113.341 287.513 113.341Z" fill="white"/>
<path d="M287.288 112.935C287.288 112.935 287.913 132.918 287.479 143.785" stroke="white" stroke-width="1.07" stroke-miterlimit="1.5" stroke-linecap="round" stroke-linejoin="round"/>
<path d="M287.089 82.0858C287.089 82.0858 287.714 102.068 287.28 112.935" stroke="#EBEBF2" stroke-width="1.07" stroke-miterlimit="1.5" stroke-linecap="round" stroke-linejoin="round"/>
<path d="M277.933 85.0272C277.933 85.0272 285.004 95.3598 287.517 113.342" stroke="#EBEBF2" stroke-width="1.07" stroke-miterlimit="1.5" stroke-linecap="round" stroke-linejoin="round"/>
<path d="M273.852 91.4258C277.222 95.1484 282.887 102.416 287.518 113.344" stroke="#EBEBF2" stroke-width="1.07" stroke-miterlimit="1.5" stroke-linecap="round" stroke-linejoin="round"/>
<path d="M296.124 84.6289C296.124 84.6289 289.488 95.25 287.727 113.321" stroke="#EBEBF2" stroke-width="1.07" stroke-miterlimit="1.5" stroke-linecap="round" stroke-linejoin="round"/>
<path d="M300.471 90.8496C297.257 94.7106 291.899 102.21 287.726 113.322" stroke="#EBEBF2" stroke-width="1.07" stroke-miterlimit="1.5" stroke-linecap="round" stroke-linejoin="round"/>
<path fill-rule="evenodd" clip-rule="evenodd" d="M301.176 143.285C301.889 143.285 302.565 143.597 303.026 144.139C303.489 144.68 303.689 145.396 303.577 146.1C301.782 157.286 295.248 198.001 295.248 198.001H279.715C279.715 198.001 272.495 157.383 270.496 146.14C270.371 145.432 270.566 144.705 271.027 144.154C271.489 143.603 272.171 143.285 272.891 143.285H301.176Z" fill="white"/>
<mask id="mask2_15304_143222" style="mask-type:luminance" maskUnits="userSpaceOnUse" x="270" y="143" width="34" height="56">
<path d="M301.176 143.285C301.889 143.285 302.565 143.597 303.026 144.139C303.489 144.68 303.689 145.396 303.577 146.1C301.782 157.286 295.248 198.001 295.248 198.001H279.715C279.715 198.001 272.495 157.383 270.496 146.14C270.371 145.432 270.566 144.705 271.027 144.154C271.489 143.603 272.171 143.285 272.891 143.285H301.176Z" fill="white"/>
</mask>
<g mask="url(#mask2_15304_143222)">
<path fill-rule="evenodd" clip-rule="evenodd" d="M301.176 143.285C301.889 143.285 302.565 143.597 303.026 144.139C303.489 144.68 303.689 145.396 303.577 146.1C301.782 157.286 295.248 198.001 295.248 198.001H279.715C279.715 198.001 272.495 157.383 270.496 146.14C270.371 145.432 270.566 144.705 271.027 144.154C271.489 143.603 272.171 143.285 272.891 143.285H301.176Z" fill="white"/>
<path d="M305.244 157.861H268.773V160.291H305.244V157.861Z" fill="#EBEBF2"/>
<path d="M305.244 153.004H268.773V155.433H305.244V153.004Z" fill="#EBEBF2"/>
<path d="M305.244 148.145H268.773V150.574H305.244V148.145Z" fill="#EBEBF2"/>
</g>
</g>
<path d="M220.74 93.0165C218.159 91.6202 200.343 82.8633 200.343 82.8633H188.053C188.053 82.8633 173.242 89.7056 170.661 91.1005C168.08 92.4968 172.921 160.738 172.921 160.738L189.307 159.11L196.049 157.746L215.582 152.612C215.582 152.612 221.315 96.9146 218.734 95.5183" fill="#FFC7A1"/>
<path fill-rule="evenodd" clip-rule="evenodd" d="M220.485 166.016L226.04 198.002H167.953V166.016H220.485Z" fill="#21B531"/>
<path d="M187.451 198.002V191.59L183.49 189.447" stroke="#115B19" stroke-width="2.09241" stroke-miterlimit="1.5" stroke-linecap="round" stroke-linejoin="round"/>
<path d="M196.455 90.8835L190.449 90.9112C188.164 90.9206 186.303 89.0776 186.295 86.7937L186.24 73.0462C186.23 70.762 188.074 68.9024 190.36 68.8917L196.366 68.864C198.651 68.8547 200.512 70.6976 200.52 72.9815L200.577 86.7293C200.585 89.0132 198.741 90.8728 196.455 90.8835Z" fill="#FFC7A1"/>
<path d="M200.519 72.9802C200.51 70.6958 198.65 68.8531 196.365 68.8625L190.358 68.8902C188.073 68.9009 186.227 70.7603 186.236 73.0446L186.271 81.5203C191.244 83.1025 196.664 82.2166 200.55 80.4986L200.519 72.9802Z" fill="#EA989D"/>
<path d="M130.033 119.566C138.26 114.004 130.603 109.303 129.884 108.94C126.066 107.004 113.639 106.999 97.7877 108.335C97.7877 108.335 88.5922 108.807 98.786 121.028C98.786 121.028 126.526 121.936 130.033 119.566Z" fill="#FFC7A1"/>
<path d="M157.285 114.148C157.285 114.148 154.589 107.972 152.62 106.522C145.659 101.402 114.18 102.33 114.18 102.33C114.18 102.33 110.148 113.466 114.126 122.321L138.447 123.604C138.447 123.604 155.913 121.561 157.285 114.148Z" fill="#0049CD"/>
<path d="M185.794 83.0957C185.794 83.0957 190.371 88.8684 191.117 95.5494L189.507 135.581L186.868 181.211C186.868 181.211 163.908 180.101 164.743 172.414C166.273 158.323 168.474 150.865 167.627 138.523C165.746 111.096 166.379 93.1703 166.379 93.1703C166.379 93.1703 169.025 89.6789 183.802 84.4451" fill="#0049CD"/>
<path d="M166.379 159.968C166.771 151.558 168.329 144.351 168.011 138.559C167.575 130.63 167.444 117.908 168.877 108.943" stroke="#00338F" stroke-width="1.99713" stroke-miterlimit="2" stroke-linecap="round" stroke-linejoin="bevel"/>
<path d="M201.548 81.7676C201.548 81.7676 190.955 95.2427 191.118 95.1614L186.404 154.178C186.404 154.178 186.215 181.102 186.868 181.21C206.658 184.451 226.039 177.607 226.039 177.607C226.039 177.607 221.675 151.415 221.249 142.633C219.916 115.233 223.138 88.4969 223.138 88.4969C223.138 88.4969 216.218 83.2879 206.266 82.4485" fill="#0049CD"/>
<path d="M191.118 95.9708C191.118 95.9708 188.101 114.486 187.873 123.175C187.583 134.214 186.389 177.656 186.389 177.656" stroke="#00338F" stroke-width="1.99943" stroke-miterlimit="1.5" stroke-linecap="round" stroke-linejoin="round"/>
<path d="M184.759 83.0957C184.759 83.0957 179.682 87.3688 180.882 99.6693C180.882 99.6693 185.078 92.9478 186.784 92.4265C188.49 91.905 190.041 94.1369 191.118 96.5409" stroke="#00338F" stroke-width="1.99944" stroke-miterlimit="1.5" stroke-linecap="round" stroke-linejoin="round"/>
<path d="M242.258 138.646C241.27 128.519 230.256 109.928 230.256 109.928C230.256 109.928 215.009 101.575 218.164 119.382L229.482 142.648C229.482 142.648 238.772 145.398 242.258 138.646Z" fill="#FFC7A1"/>
<path d="M221.447 86.5747C225.929 88.5511 227.945 90.3825 229.094 92.144C230.244 93.9056 241.986 117.31 242.965 119.649C243.944 121.989 232.62 133.761 220.851 129.081L212.376 106.328C212.376 106.328 209.958 81.5097 221.447 86.5747Z" fill="#0049CD"/>
<path d="M241.542 122.817C238.191 126.892 229.645 132.58 220.852 129.083L212.912 111.234" stroke="#00338F" stroke-width="1.99772" stroke-miterlimit="2" stroke-linecap="round" stroke-linejoin="round"/>
<path d="M201.933 81.7676C201.933 81.7676 206.197 87.368 203.29 99.6688C203.29 99.6688 198.075 94.2058 195.863 93.2579C193.781 92.3654 192.265 94.495 191.117 96.6348" stroke="#00338F" stroke-width="1.99944" stroke-miterlimit="1.5" stroke-linecap="round" stroke-linejoin="round"/>
<path fill-rule="evenodd" clip-rule="evenodd" d="M193.437 99.6684L194.006 136.356L187.673 143.466L182.962 136.356L187.841 99.0996L193.437 99.6684Z" fill="#21B531"/>
<path d="M193.437 99.6699L194.006 136.357L187.744 143.467" stroke="white" stroke-width="1.33218" stroke-miterlimit="1.5" stroke-linecap="round" stroke-linejoin="round"/>
<path fill-rule="evenodd" clip-rule="evenodd" d="M193.436 99.6692C192.581 100.694 188.566 100.288 187.841 99.3848C186.895 98.2071 186.814 92.9159 186.89 93.4124C186.89 93.4124 190.845 91.8937 195.713 94.2656C195.713 94.2656 195.121 97.6494 193.436 99.6692Z" fill="#21B531"/>
<path d="M195.428 95.1191C195.428 95.1191 195.121 97.6497 193.435 99.6695C193.039 100.144 191.965 100.312 190.854 100.266" stroke="white" stroke-width="1.33218" stroke-miterlimit="1.5" stroke-linecap="round" stroke-linejoin="round"/>
<path d="M213.133 42.2817C213.133 42.2817 211.446 37.3782 209.001 34.4052C211.476 34.4806 213.623 33.8425 213.623 33.8425C208.504 32.7846 205.026 31.0962 202.763 29.7909C202.053 29.3218 198.263 27.4255 198.263 27.4255L198.271 27.4339C196.002 26.2419 195.525 25.2039 192.504 24.6811C186.455 23.6332 181.47 28.6996 181.47 28.6996C181.47 28.6996 176.406 28.2952 175.465 28.9088C175.015 29.2018 171.863 31.8314 169.852 35.4434L169.852 35.441C169.852 35.441 166.237 41.3724 164.055 42.6561C164.055 42.6561 165.615 42.644 167.211 42.2625C166.311 45.7986 167.174 50.1997 167.369 55.7733C167.567 61.4351 176.474 67.7946 176.474 67.7946L205.376 66.1633C205.376 66.1633 216.801 55.0322 213.133 42.2817Z" fill="#12161C"/>
<path d="M201.004 39.5111L176.348 41.145L171.711 47.0809C169.745 52.1763 170.998 57.9816 172.682 63.2732C174.023 67.4835 174.083 72.7136 178.026 74.4604C187.731 78.7611 196.99 76.4797 200.983 71.7626C202.23 70.2889 203.898 68.3106 204.689 66.5108C206.17 63.7219 206.587 59.2152 206.699 57.2998C207.15 50.8506 205.403 44.0949 201.004 39.5111Z" fill="#FFC7A1"/>
<path d="M202.603 58.2115C202.461 54.1501 206.453 51.9786 208.147 52.4049C211.967 53.3651 213.719 56.3593 212.97 59.6461C212.185 63.0873 208.594 65.2341 205.197 64.2821C204.333 64.041 202.663 59.9426 202.603 58.2115Z" fill="#FFC7A1"/>
<path d="M202.623 58.7333C202.332 58.7434 202.088 58.5156 202.077 58.2249C201.983 55.5393 203.519 53.8877 204.441 53.1429C205.693 52.1317 207.235 51.629 208.277 51.8912C208.559 51.9622 208.73 52.2485 208.659 52.5295C208.588 52.8118 208.303 52.9835 208.019 52.9125C207.408 52.7585 206.209 53.0689 205.104 53.9618C204.333 54.5831 203.053 55.9597 203.131 58.1882C203.142 58.4789 202.914 58.7231 202.623 58.7333Z" fill="#EA989D" stroke="#EA989D" stroke-width="0.399029" stroke-miterlimit="2" stroke-linejoin="round"/>
<path d="M205.903 57.5358C207.014 55.7235 208.916 54.6756 211.034 54.6396C212.247 54.6185 212.174 56.5021 210.962 56.523C209.513 56.548 208.257 57.303 207.506 58.5297C206.87 59.5648 205.268 58.5721 205.903 57.5358Z" fill="#EA989D"/>
<path d="M187.391 40.7309C188.428 42.3414 192.982 46.8417 192.982 46.8417C192.982 46.8417 196.923 51.5225 202.384 52.9541L202.259 49.3667C202.226 48.4401 202.725 52.0083 205.733 54.2665C205.733 54.2665 207.6 42.8205 205.213 39.4101C201.902 34.6799 191.089 32.1462 187.07 34.6181C185.561 35.545 186.548 39.4232 187.391 40.7309Z" fill="#12161C"/>
<path d="M171.91 46.5585C171.91 46.5585 171.218 53.1564 173.4 57.9293C173.4 57.9293 170.041 57.177 169.947 51.3465C169.947 51.3465 169.494 43.541 171.91 46.5585Z" fill="#12161C"/>
<path d="M179.125 41.2994C179.125 41.2994 178.18 33.798 181.261 32.8873C185.175 31.73 188.241 42.3487 193.723 48.9409C193.723 48.9409 187.731 48.9779 185.993 45.0574C185.993 45.0574 187.641 48.5806 188.126 49.7775C188.126 49.7775 182.722 50.0304 180.941 41.4065L179.125 41.2994Z" fill="#12161C"/>
<path d="M176.106 41.406L179.762 37.3796L180.94 41.408L176.106 41.406Z" fill="#595C60"/>
<path d="M184.077 64.3349C184.077 64.3349 181.532 60.3742 185.899 61.6432" stroke="#12161C" stroke-width="1.33647" stroke-miterlimit="10" stroke-linecap="round"/>
<path d="M189.563 56.2459C189.829 58.1164 190.782 59.6217 191.713 60.4381C192.655 61.2739 193.574 61.42 194.021 61.0417C194.904 60.1918 194.218 57.9461 193.919 55.5826L193.918 55.5774C193.864 55.2786 193.632 55.0427 193.332 54.9892L191.898 54.7359L193.273 53.5641C193.465 53.4009 193.558 53.1482 193.517 52.8991C193.317 51.6559 193.05 50.6719 192.389 50.342C191.849 50.1129 191.016 50.5258 190.366 51.604C189.72 52.6604 189.259 54.3821 189.563 56.2459Z" fill="#12161C"/>
<path d="M175.526 60.0174C175.792 61.8879 176.745 63.3932 177.676 64.2095C178.618 65.0454 179.537 65.1915 179.984 64.8132C180.867 63.9632 180.181 61.7176 179.882 59.3541L179.881 59.3489C179.827 59.05 179.595 58.8142 179.295 58.7607L177.86 58.5074L179.236 57.3356C179.428 57.1724 179.521 56.9197 179.48 56.6705C179.28 55.4273 179.013 54.4434 178.352 54.1135C177.812 53.8843 176.978 54.2972 176.329 55.3755C175.683 56.4319 175.222 58.1536 175.526 60.0174Z" fill="#12161C"/>
<path d="M192.852 71.507C190.997 71.9532 189.186 71.0418 188.808 69.4712C188.429 67.9007 189.626 66.2657 191.482 65.8195C193.337 65.3733 195.148 66.2848 195.526 67.8553C195.905 69.4259 194.707 71.0608 192.852 71.507Z" fill="white" stroke="#12161C" stroke-width="1.21353" stroke-miterlimit="1.5" stroke-linecap="round" stroke-linejoin="round"/>
<path d="M187.375 49.7417C187.488 49.2574 187.789 48.6969 188.233 48.1543C190.076 45.9002 194.388 43.955 197.95 49.0276" stroke="#12161C" stroke-width="1.33647" stroke-miterlimit="10" stroke-linecap="round"/>
<path d="M170.34 54.0215C170.34 54.0215 175.103 53.8845 178.731 50.373" stroke="#12161C" stroke-width="1.29856" stroke-miterlimit="1.5" stroke-linecap="round" stroke-linejoin="round"/>
<path d="M93 144.047V84.8846C93 81.6399 95.1267 79.0001 97.7406 79.0001H178.259C180.873 79.0001 183 81.6399 183 84.8846V144.047C183 147.291 180.873 149.931 178.259 149.931H97.7406C95.1267 149.931 93 147.291 93 144.047Z" fill="white"/>
<path fill-rule="evenodd" clip-rule="evenodd" d="M133.58 101.884C134.342 100.741 135.626 100.055 137 100.055C138.374 100.055 139.658 100.741 140.42 101.884C144.623 108.183 151.755 118.873 156.31 125.699C157.15 126.959 157.229 128.58 156.514 129.916C155.798 131.251 154.405 132.085 152.889 132.085C144.125 132.085 129.875 132.085 121.111 132.085C119.595 132.085 118.202 131.251 117.486 129.916C116.771 128.58 116.85 126.959 117.69 125.699C122.245 118.873 129.377 108.183 133.58 101.884Z" fill="#FFB35C"/>
<path fill-rule="evenodd" clip-rule="evenodd" d="M139 109.526V120.472C139 121.314 138.104 121.999 137 121.999C135.896 121.999 135 121.314 135 120.472V109.526C135 108.683 135.896 107.999 137 107.999C138.104 107.999 139 108.683 139 109.526Z" fill="white"/>
<path d="M137.232 128.021C138.337 128.021 139.232 127.126 139.232 126.021C139.232 124.916 138.337 124.021 137.232 124.021C136.128 124.021 135.232 124.916 135.232 126.021C135.232 127.126 136.128 128.021 137.232 128.021Z" fill="white"/>
<path d="M97.7406 79H178.258C180.873 79 183 81.6399 183 84.8846V90.046H93V84.8846C93 81.6399 95.1267 79 97.7406 79Z" fill="#B2C8F0"/>
<path d="M112.17 84.5196C112.17 83.4315 113.054 82.5496 114.144 82.5496C115.233 82.5496 116.117 83.4315 116.117 84.5196C116.117 85.6076 115.233 86.4897 114.144 86.4897C113.054 86.4897 112.17 85.6076 112.17 84.5196Z" fill="#F5F5F7"/>
<path d="M105.322 84.5196C105.322 83.4315 106.205 82.5496 107.296 82.5496C108.385 82.5496 109.269 83.4315 109.269 84.5196C109.269 85.6076 108.385 86.4897 107.296 86.4897C106.205 86.4897 105.322 85.6076 105.322 84.5196Z" fill="#F5F5F7"/>
<path d="M98.4785 84.5195C98.4785 83.4315 99.3617 82.5496 100.451 82.5496C101.541 82.5496 102.425 83.4315 102.425 84.5195C102.425 85.6076 101.541 86.4897 100.451 86.4897C99.3617 86.4897 98.4785 85.6076 98.4785 84.5195Z" fill="#F5F5F7"/>
<path d="M94.9689 117.201C95.2475 118.402 93.9657 119.727 92.1052 120.159C90.2436 120.592 88.5089 119.968 88.228 118.769C87.9491 117.566 89.2312 116.242 91.0924 115.808C92.953 115.377 94.6887 115.999 94.9689 117.201Z" fill="#FFC7A1"/>
<path d="M88.2277 118.767C87.9477 117.566 89.2297 116.241 91.0911 115.808C92.9526 115.375 94.6886 115.998 94.9686 117.2C95.2486 118.401 93.9666 119.726 92.1052 120.159C90.2437 120.592 88.5077 119.969 88.2277 118.767Z" stroke="#EA989D" stroke-width="1.32979" stroke-miterlimit="10"/>
<path d="M95.8429 122.803C96.1215 124.004 94.8398 125.329 92.9792 125.76C91.1176 126.193 89.3829 125.569 89.102 124.37C88.8231 123.168 90.1052 121.844 91.9664 121.41C93.827 120.978 95.5627 121.6 95.8429 122.803Z" fill="#FFC7A1"/>
<path d="M89.1017 124.369C88.8217 123.168 90.1037 121.843 91.9652 121.41C93.8266 120.977 95.5626 121.6 95.8426 122.801C96.1226 124.003 94.8406 125.327 92.9792 125.76C91.1177 126.193 89.3818 125.57 89.1017 124.369Z" stroke="#EA989D" stroke-width="1.32979" stroke-miterlimit="10"/>
<path d="M97.6222 126.922C97.9008 128.123 96.6191 129.448 94.7585 129.879C92.8969 130.312 91.1622 129.689 90.8813 128.489C90.6024 127.287 91.8845 125.963 93.7457 125.529C95.6063 125.097 97.342 125.72 97.6222 126.922Z" fill="#FFC7A1"/>
<path d="M90.881 128.488C90.601 127.287 91.883 125.962 93.7445 125.529C95.6059 125.096 97.3419 125.719 97.6219 126.921C97.9019 128.122 96.6199 129.447 94.7585 129.879C92.897 130.312 91.161 129.689 90.881 128.488Z" stroke="#EA989D" stroke-width="1.32979" stroke-miterlimit="10"/>
<path d="M98.6229 132.659C98.9015 133.86 97.6197 135.185 95.7595 135.618C93.8976 136.049 92.1629 135.426 91.882 134.226C91.6031 133.024 92.8852 131.7 94.7464 131.266C96.607 130.834 98.3427 131.457 98.6229 132.659Z" fill="#FFC7A1"/>
<path d="M91.882 134.226C91.602 133.025 92.884 131.7 94.7454 131.267C96.6069 130.834 98.3429 131.457 98.6229 132.659C98.9029 133.86 97.6209 135.185 95.7595 135.618C93.898 136.051 92.162 135.428 91.882 134.226Z" stroke="#EA989D" stroke-width="1.32979" stroke-miterlimit="10"/>
<path d="M235.837 130.274C235.837 130.274 239.923 132.179 240.177 133.135C240.212 133.276 241.938 135.552 241.977 135.707C242.003 135.822 242.03 135.936 242.054 136.056C242.105 136.272 242.153 136.502 242.205 136.747C242.692 139.055 242.741 140.881 241.349 142.786C240.067 144.545 238.047 145.653 235.949 146.223C231.728 147.37 227.43 147.02 223.245 145.999C217.98 144.712 212.838 142.956 207.727 141.158C203.217 139.572 197.789 137.827 193.304 136.17C190.291 135.057 186.015 134.888 185.463 131.131C185.413 130.773 185.4 130.397 185.541 130.066C185.694 129.706 186 129.442 186.311 129.207C187.551 128.267 189.002 127.772 190.473 127.317C191.719 126.927 193.383 125.872 194.619 125.737C196.292 125.561 198.022 126.573 199.589 126.999C203.705 128.119 207.824 128.672 212.003 128.904C214.207 129.026 216.429 129.064 218.672 129.045C222.508 129.011 226.357 128.937 230.179 129.313C231.798 129.474 233.411 129.713 234.997 130.072C235.277 130.137 235.557 130.203 235.837 130.274Z" fill="#FFC7A1"/>
<path d="M230.494 129.19C230.494 129.19 208.129 129.806 200.73 127.275" stroke="#EA989D" stroke-width="2.00143" stroke-miterlimit="1.5" stroke-linecap="round" stroke-linejoin="round"/>
<path d="M181.229 126.813C179.203 126.363 177.465 125.336 176.037 123.875C174.635 122.441 172.695 121.57 171.227 120.153C170.036 119.004 168.133 117.286 168.109 115.5C168.082 113.386 170.124 114.371 171.081 115.089C172.816 116.391 174.53 118.007 176.442 119.006C177.872 119.751 179.347 120.408 180.859 120.97C182.157 121.452 183.719 121.615 184.901 122.337C185.659 122.8 186.267 123.614 186.23 124.502C186.194 125.347 185.581 126.084 184.841 126.49C183.757 127.085 182.435 127.082 181.229 126.813Z" fill="#FFC7A1"/>
<path d="M184.406 124.975C182.38 124.525 180.642 123.498 179.214 122.037C177.811 120.603 175.872 119.732 174.404 118.315C173.213 117.166 171.31 115.449 171.286 113.662C171.258 111.548 173.301 112.533 174.258 113.251C175.993 114.553 177.707 116.169 179.619 117.168C181.049 117.914 182.524 118.57 184.036 119.132C185.334 119.615 186.896 119.777 188.078 120.499C188.836 120.962 189.444 121.777 189.406 122.664C189.371 123.509 188.758 124.246 188.018 124.652C186.934 125.247 185.612 125.244 184.406 124.975Z" fill="#FFC7A1"/>
<path d="M177.722 126.16C176.919 127.169 175.497 127.55 174.743 128.596C174.585 128.816 174.457 129.075 174.466 129.346C174.507 130.513 178.297 131.529 179.215 131.907C181.102 132.684 183.012 133.406 184.941 134.073C187.78 135.055 192.551 137.294 195.214 134.86C195.95 134.188 196.299 133.175 196.365 132.181C196.464 130.711 196.17 128.775 195.25 127.573C194.924 127.148 194.488 126.822 194.058 126.502C192.129 125.065 190.085 124.072 188.504 122.278C188.41 122.171 188.313 122.062 188.187 121.995C187.987 121.892 187.748 121.913 187.524 121.931C184.393 122.196 181.712 121.119 178.685 120.802C176.826 120.607 174.555 122.292 175.823 124.154C176.303 124.86 176.945 125.455 177.685 125.882L177.722 126.16Z" fill="#FFC7A1"/>
<path d="M184.783 121.721C186.202 121.053 187.394 119.367 186.475 117.879C186.082 117.243 185.581 116.712 185.052 116.191C184.298 115.45 183.617 114.591 183.531 113.479C183.491 112.958 183.784 111.493 184.581 111.773C184.839 111.864 185.021 112.088 185.192 112.3C186.39 113.784 188.216 114.904 189.966 115.625C192.011 116.468 193.197 117.936 194.008 119.956C194.499 121.181 194.824 122.463 195.214 123.723C195.407 124.346 195.616 124.969 195.845 125.579C196.037 126.091 196.444 126.447 196.684 126.946C196.9 127.394 196.98 127.933 196.782 128.389C196.59 128.832 196.165 129.136 195.716 129.312C194.586 129.756 193.313 129.504 192.137 129.202C190.11 128.682 188.1 128.023 186.282 126.986C185.256 126.4 184.083 125.662 183.361 124.705C182.858 124.04 181.962 122.808 182.921 122.172C183.498 121.789 184.156 122.017 184.783 121.721Z" fill="#FFC7A1"/>
<path d="M186.13 127.911C186.331 128.157 186.505 128.445 186.527 128.763C186.565 129.287 186.19 129.755 185.764 130.063C182.992 132.068 177.677 130.97 174.769 129.885C173.505 129.413 172.216 128.817 171.13 128.013C170.622 127.637 170.051 127.183 169.828 126.568C169.388 125.36 170.237 125.039 171.254 125.491C173.67 126.563 176.299 127.07 178.94 127.009C181.299 126.953 184.328 125.715 186.13 127.911Z" fill="#FFC7A1"/>
<path d="M172.811 124.031C171.567 123.116 170.403 122.091 169.355 120.954C168.695 120.24 166.938 118.713 167.379 117.598C168.159 115.63 171.536 118.541 172.328 119.194C173.884 120.475 175.617 121.539 177.464 122.345C179.235 123.118 181.187 123.405 182.902 124.29C183.793 124.75 184.694 125.452 184.826 126.446C184.867 126.761 184.826 127.081 184.765 127.393C184.697 127.735 184.593 128.094 184.33 128.324C184.125 128.504 183.852 128.581 183.585 128.63C181.686 128.984 179.966 127.98 178.298 127.216C176.373 126.334 174.518 125.287 172.811 124.031Z" fill="#FFC7A1"/>
<path d="M180.249 127.956C180.249 127.956 179.162 127.657 176.774 127.036C175.212 126.631 173.062 125.829 171.761 125.322" stroke="#EA989D" stroke-width="1.3318" stroke-miterlimit="1.5" stroke-linecap="round" stroke-linejoin="round"/>
<path d="M180.357 123.676C179.291 123.381 178.241 123.018 177.238 122.6C175.229 121.761 173.717 120.911 172.481 119.924C172.268 119.754 172.058 119.581 171.848 119.409C171.434 119.067 171.007 118.715 170.569 118.397C170.047 118.02 169.349 117.564 168.575 117.389" stroke="#EA989D" stroke-width="1.33182" stroke-miterlimit="2" stroke-linecap="round" stroke-linejoin="round"/>
<path d="M183.533 121.838C182.468 121.543 181.418 121.18 180.415 120.762C178.406 119.923 176.894 119.073 175.658 118.086C175.445 117.916 175.235 117.743 175.025 117.571C174.611 117.229 174.184 116.877 173.746 116.559C173.224 116.182 172.525 115.726 171.751 115.551" stroke="#EA989D" stroke-width="1.33182" stroke-miterlimit="2" stroke-linecap="round" stroke-linejoin="round"/>
<path d="M79.1582 94.2525L67.3705 91.6884L72.066 80.9718L82.3698 86.6016L79.1582 94.2525Z" fill="#FFA700"/>
<path d="M88.6359 77.4716L71.927 57.9562L89.8902 47.8216L99.5337 70.3159L88.6359 77.4716Z" fill="#FFA700"/>
<path d="M109.52 68.9045L114.102 57.7064L123.284 60.8292L116.692 72.6764L109.52 68.9045Z" fill="#FFA700"/>
</g>
</g>
<defs>
<clipPath id="clip0_15304_143222">
<rect width="310" height="198" fill="white" transform="translate(21)"/>
</clipPath>
</defs>
</svg>
