<svg width="352" height="198" viewBox="0 0 352 198" fill="none" xmlns="http://www.w3.org/2000/svg">
<path fill-rule="evenodd" clip-rule="evenodd" d="M34.2973 149.098C29.7903 134.296 31.7636 71.1715 31.7636 71.1715C31.7636 71.1715 31.8116 35.428 39.6816 24.3233L39.672 24.3334C44.6915 17.2576 48.9912 12.1658 71.3536 8.70384C90.4393 5.74799 143.508 4.45532 192.845 4.96955V9.33147H204.472V5.12545C242.164 5.748 275.8 7.46786 287.693 10.3539C304.104 14.3422 319.787 14.9294 321.457 43.8704C322.385 59.911 323.874 95.3873 322.613 119.804H312.256V124.402H322.333C321.76 132.433 320.822 138.854 319.374 142.345C313.539 156.415 308.951 170.476 281.857 171.721C254.763 172.966 102.622 175.861 77.6112 174.616C54.9811 173.49 42.2508 164.582 36.3282 153.695H43.3901V149.098H34.2973ZM60.4315 149.098H45.8614V153.695H60.4315V149.098ZM299.052 80.3752H305.614V75.6114H294.767V80.3752H288.205V85.1379H299.052V80.3752ZM172.07 40.872H177.216V37.1205H168.709V40.872H163.561V44.6235H172.07V40.872ZM309.784 119.804H295.213V124.402H309.784V119.804Z" fill="#EBEBF2"/>
<path fill-rule="evenodd" clip-rule="evenodd" d="M58.246 64.1847H34.0141C32.2568 64.1847 30.8271 62.4097 30.8271 60.2288V20.4561C30.8271 18.2748 32.2568 16.5001 34.0141 16.5001H88.1443C89.9016 16.5001 91.3313 18.2748 91.3313 20.4561V40.7346H62.1316C59.9892 40.7346 58.246 42.8984 58.246 45.5579V64.1847Z" fill="#B2C8F0"/>
<path d="M34.0141 16.5H88.1435C89.9016 16.5 91.3313 18.2747 91.3313 20.456V23.9259H30.8271V20.456C30.8271 18.2747 32.2568 16.5 34.0141 16.5Z" fill="#B2C8F0"/>
<path d="M43.7151 20.213C43.7151 19.4815 44.3096 18.8885 45.042 18.8885C45.7744 18.8885 46.3689 19.4815 46.3689 20.213C46.3689 20.9444 45.7744 21.5374 45.042 21.5374C44.3096 21.5374 43.7151 20.9444 43.7151 20.213Z" fill="#F5F5F7"/>
<path d="M39.1121 20.213C39.1121 19.4815 39.7058 18.8885 40.439 18.8885C41.1713 18.8885 41.7651 19.4815 41.7651 20.213C41.7651 20.9444 41.1713 21.5374 40.439 21.5374C39.7058 21.5374 39.1121 20.9444 39.1121 20.213Z" fill="#F5F5F7"/>
<path d="M34.509 20.2129C34.509 19.4815 35.1028 18.8885 35.8351 18.8885C36.5675 18.8885 37.162 19.4815 37.162 20.2129C37.162 20.9444 36.5675 21.5374 35.8351 21.5374C35.1028 21.5374 34.509 20.9444 34.509 20.2129Z" fill="#F5F5F7"/>
<path d="M91.3316 23.9259H30.8274V26.283H91.3316V23.9259Z" fill="white"/>
<path d="M61.0791 97.1148V48.6221C61.0791 45.9626 62.8223 43.7988 64.9648 43.7988H130.963C133.105 43.7988 134.848 45.9626 134.848 48.6221V97.1148C134.848 99.7738 133.105 101.938 130.963 101.938H64.9648C62.8223 101.938 61.0791 99.7738 61.0791 97.1148Z" fill="white"/>
<path d="M64.9648 43.7987H130.962C133.105 43.7987 134.848 45.9625 134.848 48.6221V52.8527H61.0791V48.6221C61.0791 45.9625 62.8223 43.7987 64.9648 43.7987Z" fill="#B2C8F0"/>
<path d="M76.7927 48.3257C76.7927 47.4338 77.5176 46.7109 78.4105 46.7109C79.3035 46.7109 80.0284 47.4338 80.0284 48.3257C80.0284 49.2175 79.3035 49.9405 78.4105 49.9405C77.5176 49.9405 76.7927 49.2175 76.7927 48.3257Z" fill="#F5F5F7"/>
<path d="M71.1804 48.3257C71.1804 47.4338 71.9043 46.7109 72.7982 46.7109C73.6912 46.7109 74.4151 47.4338 74.4151 48.3257C74.4151 49.2175 73.6912 49.9405 72.7982 49.9405C71.9043 49.9405 71.1804 49.2175 71.1804 48.3257Z" fill="#F5F5F7"/>
<path d="M65.5681 48.3256C65.5681 47.4338 66.292 46.7109 67.185 46.7109C68.0779 46.7109 68.8028 47.4338 68.8028 48.3256C68.8028 49.2175 68.0779 49.9405 67.185 49.9405C66.292 49.9405 65.5681 49.2175 65.5681 48.3256Z" fill="#F5F5F7"/>
<path d="M91.9239 63.215H84.5443C83.4986 63.215 82.6509 64.4009 82.6509 65.8638V89.7511C82.6509 91.214 83.4986 92.4 84.5443 92.4H111.383C112.429 92.4 113.277 91.214 113.277 89.7511V70.3236C113.277 68.8607 112.429 67.6748 111.383 67.6748H95.9839C95.3202 67.6748 94.7054 67.189 94.3638 66.3942L93.5454 64.4956C93.2024 63.7008 92.5876 63.215 91.9239 63.215Z" fill="#FFC107"/>
<path d="M100.091 80.3916L104.264 75.2288C104.741 74.6386 104.574 73.8257 103.891 73.4137L103.115 72.9474C102.432 72.5354 101.491 72.6802 101.013 73.2704L97.6599 77.4184L94.2789 73.2871C93.7979 72.6983 92.8554 72.5591 92.1736 72.9739L91.4026 73.4443C90.7222 73.8591 90.5591 74.672 91.0401 75.2608L95.2479 80.4027L91.0735 85.5654C90.5967 86.1556 90.764 86.9685 91.4486 87.3805L92.2224 87.8468C92.9069 88.2589 93.8481 88.1141 94.3249 87.5239L97.6794 83.3745L101.059 87.5072C101.541 88.096 102.483 88.2352 103.164 87.8204L103.935 87.3499C104.617 86.9351 104.779 86.1208 104.298 85.5334L100.091 80.3916Z" fill="#EB5757"/>
<path d="M133.687 24.4333H128.744V28.7103H133.687V24.4333Z" fill="white"/>
<path d="M113.668 28.7107H108.56V31.2604H113.668V28.7107Z" fill="white"/>
<path d="M98.888 185.117C93.1803 185.117 88.5537 180.498 88.5537 174.8V164.342C88.5537 162.499 90.05 161.004 91.8975 161.004H105.88C107.726 161.004 109.222 162.499 109.222 164.342V174.8C109.222 180.498 104.596 185.117 98.888 185.117Z" fill="#21B531"/>
<path d="M105.857 173.821C105.857 176.341 103.811 178.385 101.286 178.385C98.7611 178.385 96.7159 176.341 96.7159 173.821C96.7159 171.301 98.7611 169.258 101.286 169.258C103.811 169.258 105.857 171.301 105.857 173.821Z" fill="#BCE9C1"/>
<path d="M88.9881 175.852C86.8947 175.852 85.1948 174.156 85.1948 172.064C85.1948 169.974 86.8947 168.277 88.9881 168.277C91.0835 168.277 92.7815 169.974 92.7815 172.064C92.7815 174.156 91.0835 175.852 88.9881 175.852ZM88.9881 165.215C85.1997 165.215 82.1274 168.282 82.1274 172.064C82.1274 175.85 85.1997 178.914 88.9881 178.914C92.7785 178.914 95.8488 175.85 95.8488 172.064C95.8488 168.282 92.7785 165.215 88.9881 165.215Z" fill="#21B531"/>
<path d="M98.7821 153.468C99.331 151.994 100.628 150.768 102.056 150.58C104.635 150.239 106.144 149.654 105.496 148.561C105.207 148.073 104.866 147.557 104.655 147.194C103.933 145.947 103.901 145.224 103.901 145.224C103.887 145.114 103.876 145.002 103.876 144.888C103.876 143.552 104.961 142.469 106.3 142.469C107.53 142.469 108.544 143.385 108.699 144.571C108.714 144.679 108.723 144.782 108.723 144.888C108.723 145.173 108.671 145.444 108.581 145.697C108.541 146.368 108.545 147.236 108.723 148.014C108.97 149.092 109.613 149.97 109.956 150.707C110.112 150.879 110.209 151.105 110.209 151.355C110.209 151.445 110.193 151.529 110.17 151.612C109.883 154.001 107.112 152.968 106.343 155.574C106.07 157.492 104.423 158.967 102.428 158.967C100.241 158.967 98.4673 157.197 98.4673 155.014C98.4673 154.465 98.5804 153.942 98.7821 153.468Z" fill="#B2C8F0"/>
<path d="M91.9287 163.486H106.841" stroke="white" stroke-width="1.5" stroke-miterlimit="10" stroke-linecap="round" stroke-linejoin="round"/>
<path d="M82.9992 172.064C82.9993 171.788 83.2233 171.564 83.4996 171.565C83.7758 171.565 83.9997 171.789 83.9997 172.065L83.4995 172.065L82.9992 172.064ZM85.4602 175.586C85.6556 175.781 85.6557 176.098 85.4604 176.293C85.2651 176.488 84.9484 176.488 84.753 176.293L85.1066 175.939L85.4602 175.586ZM83.4995 172.065L83.9997 172.065C83.9993 173.44 84.5576 174.684 85.4602 175.586L85.1066 175.939L84.753 176.293C83.6707 175.211 82.9988 173.715 82.9992 172.064L83.4995 172.065Z" fill="white"/>
<mask id="mask0_20213_129007" style="mask-type:luminance" maskUnits="userSpaceOnUse" x="38" y="16" width="276" height="161">
<path d="M76.079 20.1251C54.9844 23.3887 50.9284 28.1875 46.1936 34.8562L46.2025 34.8474C38.7791 45.3121 38.7338 79.0016 38.7338 79.0016C38.7338 79.0016 36.7693 141.79 41.4864 153.486C46.2025 165.192 58.3892 175.325 81.9825 176.5C105.575 177.673 249.092 174.944 274.65 173.77C300.208 172.597 304.536 159.344 310.041 146.083C315.545 132.821 313.246 74.6792 312.005 53.2704C310.429 25.9924 295.637 25.4395 280.154 21.6798C265.726 18.1824 217.379 16.501 170.592 16.502C130.477 16.502 91.5052 17.7385 76.079 20.1251Z" fill="white"/>
</mask>
<g mask="url(#mask0_20213_129007)">
<path d="M225.777 168.176C223.371 169.093 222.896 172.548 223.825 174.393C224.908 176.544 226.739 178.619 229.08 178.651C230.055 179.241 230.832 178.884 231.04 179.212C231.817 180.439 232.409 181.265 232.798 182.294C233.081 183.045 233.923 184.66 234.907 184.604C236.765 184.499 236.431 181.794 236.031 180.931C235.993 180.849 233.825 177.028 233.841 176.938C233.918 177.012 236.139 179.436 237.004 181.325C237.409 182.206 238.115 182.979 239.194 182.817C240.191 182.67 240.984 181.94 241.059 180.967C241.364 181.251 241.693 181.523 242.108 181.641C242.678 181.804 243.273 181.637 243.72 181.205C244.247 180.698 244.399 180.09 244.349 179.485C244.439 179.528 244.532 179.568 244.631 179.601C245.237 179.801 245.938 179.774 246.507 179.369C246.971 179.037 247.244 178.51 247.31 177.978C247.451 176.803 246.983 175.671 246.354 174.768C243.7 170.966 239.079 167.913 233.69 167.803C231.863 167.766 230.025 167.87 228.195 167.872C227.314 167.872 226.497 167.901 225.777 168.176Z" fill="#FFC7A1"/>
<path d="M233.18 174.641C234.199 175.991 235.093 177.449 235.842 179.001C236.196 179.732 236.548 180.482 236.806 181.266C237.038 181.973 237.156 182.773 236.886 183.55C236.612 184.338 235.956 185.046 235.151 185.147C234.641 185.211 234.612 184.388 235.125 184.324C235.654 184.257 236.056 183.74 236.189 183.216C236.355 182.559 236.165 181.911 235.955 181.339C235.426 179.91 234.725 178.555 233.948 177.282C233.501 176.548 233.017 175.84 232.503 175.159C232.205 174.764 232.882 174.248 233.18 174.641Z" fill="#EA989D" stroke="#EA989D" stroke-width="1.31078" stroke-miterlimit="2" stroke-linejoin="round"/>
<path d="M234.589 171.66C236.265 172.548 237.712 173.765 238.852 175.241C239.421 175.98 239.908 176.779 240.314 177.619C240.722 178.463 241.077 179.367 241.246 180.303C241.43 181.321 241.123 182.499 240.052 183.032C239.564 183.274 239.304 182.539 239.788 182.298C240.56 181.915 240.544 180.911 240.391 180.266C240.197 179.446 239.881 178.651 239.515 177.901C238.795 176.423 237.775 175.087 236.534 174.001C235.832 173.387 235.058 172.847 234.223 172.404C234.035 172.305 233.931 172.1 234.037 171.885C234.128 171.7 234.4 171.56 234.589 171.66Z" fill="#EA989D" stroke="#EA989D" stroke-width="1.35104" stroke-miterlimit="2" stroke-linejoin="round"/>
<path d="M237.044 169.128C239.316 170.179 241.171 171.885 242.493 173.942C243.194 175.032 243.758 176.214 244.19 177.446C244.593 178.594 244.945 179.97 244.123 181.137C243.739 181.682 243.095 182.088 242.429 182.103C241.767 182.117 241.153 181.742 240.962 181.133C240.813 180.655 241.593 180.334 241.744 180.815C241.862 181.194 242.276 181.381 242.686 181.279C243.147 181.165 243.494 180.767 243.66 180.35C244.083 179.289 243.556 178.108 243.188 177.168C242.392 175.132 241.199 173.243 239.564 171.781C238.707 171.013 237.741 170.363 236.678 169.872C236.216 169.658 236.58 168.914 237.044 169.128Z" fill="#EA989D" stroke="#EA989D" stroke-width="1.35104" stroke-miterlimit="2" stroke-linejoin="round"/>
<path d="M233.97 176.398C235.232 177.253 236.262 178.396 236.971 179.73C237.514 180.753 238.082 182.725 239.694 182.414C240.22 182.313 240.265 183.105 239.739 183.206C239.002 183.348 238.283 183.081 237.763 182.632C237.138 182.093 236.809 181.331 236.464 180.6C235.786 179.159 234.759 177.944 233.428 177.043C233.01 176.76 233.555 176.117 233.97 176.398Z" fill="#EA989D" stroke="#EA989D" stroke-width="1.35104" stroke-miterlimit="2" stroke-linejoin="round"/>
<path d="M235.83 167.536C238.586 167.863 240.957 169.259 243.002 170.899C244.112 171.788 245.2 172.742 246.064 173.867C246.903 174.96 247.716 176.417 247.49 177.897C247.384 178.589 246.978 179.323 246.332 179.708C245.669 180.104 244.852 180.141 244.264 179.718C243.855 179.423 244.399 178.779 244.807 179.073C245.184 179.345 245.75 179.233 246.114 178.913C246.53 178.548 246.707 177.986 246.704 177.482C246.697 176.198 245.912 174.999 245.139 174.068C244.342 173.105 243.38 172.276 242.399 171.494C241.486 170.767 240.522 170.089 239.472 169.545C238.295 168.935 237.024 168.49 235.663 168.329C235.144 168.268 235.309 167.474 235.83 167.536Z" fill="#EA989D" stroke="#EA989D" stroke-width="1.35104" stroke-miterlimit="2" stroke-linejoin="round"/>
<path d="M226.961 168.667C220.886 167.23 214.855 165.575 208.729 164.356C196.174 161.858 193.156 163.419 190.88 163.424C188.59 163.428 186.376 168.214 187.597 170.303C191.609 177.168 210.865 175.929 224.514 175.267C228.36 173.465 227.713 168.843 226.961 168.667Z" fill="#FFC7A1"/>
<path d="M149.927 122.009C152.068 120.851 166.847 113.594 166.847 113.594H177.042C177.042 113.594 189.328 119.265 191.469 120.421C193.61 121.578 189.963 198.129 189.963 198.129H153.217C153.217 198.129 147.45 123.637 149.591 122.479" fill="#FFC7A1"/>
<path d="M168.908 119.09L173.738 120.315C175.576 120.78 177.445 119.67 177.911 117.836L180.719 106.793C181.186 104.958 180.074 103.094 178.237 102.628L173.407 101.403C171.569 100.938 169.7 102.047 169.234 103.882L166.425 114.925C165.959 116.759 167.071 118.624 168.908 119.09Z" fill="#FFC7A1"/>
<path d="M169.234 103.882C169.701 102.047 171.568 100.938 173.406 101.403L178.236 102.628C180.074 103.094 181.186 104.958 180.719 106.793L178.988 113.601C174.666 113.877 170.481 112.08 167.698 109.921L169.234 103.882Z" fill="#EA989D"/>
<path d="M203.824 166.418C199.512 173.435 195.345 167.267 195.018 166.685C193.277 163.595 193.536 155.806 191.837 142.137C191.837 142.137 191.191 132.003 201.678 139.995C201.678 139.995 205.661 163.427 203.824 166.418Z" fill="#FFC7A1"/>
<path d="M190.176 120.329C190.176 120.329 195.651 121.446 197.166 122.792C202.52 127.551 207.195 153.231 207.195 153.231C207.195 153.231 198.858 158.425 190.989 156.731L185.754 137.235C185.754 137.235 184.4 122.722 190.176 120.329Z" fill="#0049CD"/>
<path d="M149.114 122.686C151.256 121.528 165.31 114.505 165.31 114.505L174.281 120.771L179.39 114.258C179.39 114.258 192.244 120.902 194.386 122.061C196.528 123.218 190.043 213.904 190.043 213.904H153.271C153.271 213.904 146.554 125.786 148.696 124.628L149.114 122.686Z" fill="#FFC7A1"/>
<path d="M178.916 113.785C178.916 113.785 175.119 118.57 174.5 124.107L175.835 157.286L181.029 221.705C181.029 221.705 204.624 222.77 204.827 218.531C204.998 215.01 192.536 180.801 193.985 159.725C195.546 136.993 195.021 122.135 195.021 122.135C195.021 122.135 192.826 119.242 180.568 114.904" fill="#0049CD"/>
<path d="M195.021 177.498C194.696 170.526 193.403 164.554 193.667 159.753C194.029 153.181 194.138 142.638 192.949 135.207" stroke="#00338F" stroke-width="1.5" stroke-miterlimit="2" stroke-linecap="round" stroke-linejoin="bevel"/>
<path d="M165.847 112.686C165.847 112.686 174.634 123.854 174.499 123.787L178.409 172.701L181.501 225.31C181.501 225.31 148.138 224.53 147.386 217.889C146.728 212.071 150.218 195.478 151.309 173.083C152.414 150.373 148.045 122.336 148.045 122.336C148.045 122.336 148.871 120.172 161.838 115.599" fill="#0049CD"/>
<path d="M174.499 124.457C174.499 124.457 177.002 139.803 177.191 147.004C177.431 156.154 175.94 179.358 175.94 179.358" stroke="#00338F" stroke-width="1.5" stroke-miterlimit="1.5" stroke-linecap="round" stroke-linejoin="round"/>
<path d="M165.527 112.686C165.527 112.686 161.99 117.327 164.402 127.522C164.402 127.522 168.728 122.995 170.562 122.209C172.289 121.469 173.547 123.234 174.499 125.008" stroke="#00338F" stroke-width="1.5" stroke-miterlimit="1.5" stroke-linecap="round" stroke-linejoin="round"/>
<path d="M179.775 113.785C179.775 113.785 183.986 117.327 182.991 127.522C182.991 127.522 179.51 121.951 178.095 121.519C176.68 121.087 175.393 122.936 174.5 124.929" stroke="#00338F" stroke-width="1.5" stroke-miterlimit="1.5" stroke-linecap="round" stroke-linejoin="round"/>
<path d="M138.627 169.785C138.313 161.357 144.761 140.875 144.761 140.875C144.761 140.875 156.366 132.323 155.752 147.299L152.033 167.259C152.033 167.259 143.053 180.929 138.627 169.785Z" fill="#FFC7A1"/>
<path d="M150.396 120.579C146.933 122.699 145.481 124.426 144.733 126.001C143.985 127.575 136.944 148.102 136.4 150.132C135.856 152.163 146.474 160.581 155.623 155.433L160.051 135.803C160.051 135.803 159.273 115.147 150.396 120.579Z" fill="#0049CD"/>
<path d="M137.407 153.123C137.103 152.841 137.085 152.366 137.367 152.063C137.649 151.76 138.123 151.742 138.427 152.024L137.917 152.573L137.407 153.123ZM155.62 155.431L156.34 155.642C156.286 155.829 156.159 155.988 155.989 156.084L155.62 155.431ZM159.438 139.676C159.554 139.279 159.97 139.051 160.368 139.167C160.766 139.284 160.994 139.7 160.878 140.098L160.158 139.887L159.438 139.676ZM137.917 152.573L138.427 152.024C139.944 153.432 142.551 155.045 145.595 155.836C148.628 156.623 152.042 156.583 155.252 154.777L155.62 155.431L155.989 156.084C152.36 158.126 148.527 158.146 145.22 157.287C141.924 156.431 139.098 154.692 137.407 153.123L137.917 152.573ZM155.62 155.431L154.9 155.22L159.438 139.676L160.158 139.887L160.878 140.098L156.34 155.642L155.62 155.431Z" fill="#00338F"/>
<path d="M203.734 83.4352C203.734 83.4352 203.261 81.1823 201.721 78.2719C203.783 78.7598 204.786 78.4408 204.786 78.4408C201.83 76.2403 199.108 73.9111 197.434 72.4292C196.92 71.9136 196.362 71.4098 195.765 70.9209C195.745 70.9017 195.727 70.8843 195.727 70.8843L195.732 70.8935C194.034 69.5039 192.001 68.2462 189.559 67.2896C184.667 65.3724 180.372 69.819 180.372 69.819C180.372 69.819 176.195 68.6102 175.301 68.9636C174.873 69.1324 172.837 70.0411 170.531 72.724L170.532 72.721C170.532 72.721 166.483 77.0701 164.433 77.7715C164.433 77.7715 165.744 78.0286 167.148 77.984C165.786 80.7916 164.56 84.4264 163.767 89.1296C162.962 93.9076 170.534 100.968 170.534 100.968L194.54 104.788C194.54 104.788 207.816 92.637 203.734 83.4352Z" fill="#12161C"/>
<path fill-rule="evenodd" clip-rule="evenodd" d="M165.763 98.293L166.638 106.046L172.103 101.298L166.635 99.0002" fill="#12161C"/>
<path d="M195.769 82.5305L177.313 79.4116L169.915 83.8385C167.394 87.7713 166.253 92.6487 166.759 97.3729C167.161 101.132 168.557 105.425 170.514 107.868C174.845 113.27 185.778 114.532 189.935 111.265C191.233 110.245 192.113 108.729 193.084 107.357C194.803 105.274 197.071 100.001 197.494 98.416C198.978 93.0896 198.672 87.1275 195.769 82.5305Z" fill="#FFC7A1"/>
<path d="M167.53 86.3829C163.554 85.3496 161.141 89.5325 161.372 93.0394C161.614 96.7119 164.958 99.5184 168.613 99.099C168.694 99.0897 168.76 98.9963 168.821 98.8669C169.365 98.1916 170.73 95.9942 169.916 91.7096C169.916 91.7096 170.362 86.908 167.53 86.3829Z" fill="#FFC7A1"/>
<path d="M169.001 92.0386C168.153 89.9899 166.367 88.5977 164.192 88.2112C162.946 87.9896 162.71 89.9391 163.956 90.1619C165.443 90.4264 166.614 91.4116 167.185 92.797C167.668 93.9681 169.483 93.2092 169.001 92.0386Z" fill="#EA989D"/>
<path d="M185.178 102.315C184.993 102.52 184.677 102.536 184.472 102.351C184.266 102.166 184.25 101.85 184.435 101.645L184.807 101.98L185.178 102.315ZM183.738 100.029C183.464 100.062 183.215 99.8664 183.182 99.5924C183.148 99.3183 183.344 99.0695 183.618 99.0367L183.678 99.5329L183.738 100.029ZM184.807 101.98C184.435 101.645 184.435 101.645 184.435 101.645C184.435 101.645 184.435 101.645 184.435 101.645C184.435 101.645 184.435 101.645 184.435 101.645C184.435 101.645 184.435 101.645 184.435 101.645C184.436 101.644 184.437 101.643 184.439 101.64C184.443 101.636 184.449 101.63 184.456 101.621C184.472 101.602 184.496 101.575 184.525 101.539C184.583 101.468 184.663 101.367 184.748 101.246C184.925 100.995 185.095 100.704 185.165 100.454C185.234 100.205 185.173 100.155 185.137 100.128C185.022 100.043 184.659 99.919 183.738 100.029L183.678 99.5329L183.618 99.0367C184.57 98.9227 185.284 98.993 185.732 99.3249C186.258 99.7148 186.245 100.304 186.129 100.723C186.012 101.141 185.762 101.545 185.566 101.823C185.464 101.967 185.369 102.088 185.299 102.174C185.264 102.216 185.235 102.251 185.214 102.275C185.203 102.287 185.195 102.296 185.189 102.303C185.186 102.307 185.184 102.309 185.182 102.311C185.181 102.312 185.18 102.313 185.179 102.314C185.179 102.314 185.179 102.314 185.179 102.315C185.179 102.315 185.178 102.315 185.178 102.315C185.178 102.315 185.178 102.315 184.807 101.98Z" fill="#12161C"/>
<path d="M181.496 94.8425C181.025 96.3363 180.042 97.439 179.169 97.9811C178.286 98.5378 177.514 98.5335 177.199 98.1639C176.591 97.3499 177.456 95.6058 178.02 93.7133L178.021 93.7091C178.106 93.472 178.328 93.3105 178.581 93.307L179.789 93.2932L178.821 92.1495C178.687 91.9903 178.644 91.771 178.712 91.5729C179.043 90.5832 179.395 89.8145 179.98 89.6337C180.453 89.519 181.08 89.969 181.466 90.9382C181.851 91.8892 181.996 93.3592 181.496 94.8425Z" fill="#12161C"/>
<path d="M193.469 99.9812C192.999 101.475 192.015 102.578 191.143 103.12C190.259 103.677 189.487 103.672 189.173 103.303C188.565 102.489 189.429 100.745 189.994 98.8519L189.995 98.8478C190.08 98.6107 190.302 98.4492 190.554 98.4457L191.763 98.4319L190.795 97.2882C190.66 97.129 190.618 96.9097 190.685 96.7115C191.017 95.7218 191.369 94.9532 191.954 94.7724C192.427 94.6577 193.053 95.1076 193.439 96.0769C193.825 97.0278 193.969 98.4978 193.469 99.9812Z" fill="#12161C"/>
<path d="M180.282 107.849C182.343 108.718 184.275 108.806 184.597 108.046C184.919 107.285 183.509 105.964 181.448 105.095C179.387 104.226 177.455 104.138 177.133 104.899C176.812 105.659 178.221 106.98 180.282 107.849Z" fill="white" stroke="#12161C" stroke-miterlimit="1.5" stroke-linecap="round" stroke-linejoin="round"/>
<path d="M190.856 90.5937C190.582 90.5603 190.386 90.3112 190.42 90.0372C190.453 89.7633 190.703 89.5683 190.977 89.6016L190.917 90.0977L190.856 90.5937ZM199.874 93.0642C200.098 93.2256 200.148 93.538 199.987 93.7618C199.825 93.9856 199.512 94.0362 199.288 93.8748L199.581 93.4695L199.874 93.0642ZM190.917 90.0977C190.977 89.6016 190.977 89.6016 190.977 89.6017C190.978 89.6017 190.978 89.6017 190.978 89.6017C190.978 89.6017 190.979 89.6018 190.979 89.6018C190.98 89.602 190.981 89.6021 190.983 89.6023C190.985 89.6027 190.99 89.6032 190.995 89.6039C191.005 89.6052 191.02 89.6072 191.04 89.6098C191.078 89.6152 191.134 89.6232 191.207 89.6343C191.351 89.6566 191.56 89.6913 191.821 89.7417C192.344 89.8425 193.08 90.0061 193.939 90.2585C195.653 90.7621 197.877 91.6253 199.874 93.0642L199.581 93.4695L199.288 93.8748C197.415 92.5253 195.308 91.7025 193.656 91.2173C192.833 90.9753 192.128 90.8188 191.631 90.723C191.383 90.6752 191.187 90.6425 191.054 90.622C190.987 90.6117 190.936 90.6045 190.903 90.5999C190.886 90.5976 190.874 90.596 190.866 90.595C190.862 90.5945 190.859 90.5941 190.857 90.5939C190.857 90.5938 190.856 90.5937 190.856 90.5937C190.856 90.5937 190.856 90.5937 190.856 90.5937C190.856 90.5937 190.856 90.5937 190.856 90.5937C190.856 90.5937 190.856 90.5937 190.917 90.0977Z" fill="#12161C"/>
<path d="M186.526 87.4123C186.803 87.4111 187.027 87.6339 187.029 87.9099C187.03 88.186 186.807 88.4107 186.53 88.4119L186.528 87.9121L186.526 87.4123ZM177.269 86.0898C177.027 85.9577 176.937 85.6541 177.07 85.4118C177.202 85.1694 177.506 85.08 177.748 85.2121L177.509 85.651L177.269 86.0898ZM186.528 87.9121C186.53 88.4119 186.53 88.4119 186.53 88.4119C186.53 88.4119 186.53 88.4119 186.53 88.4119C186.529 88.4119 186.529 88.4119 186.528 88.4119C186.528 88.4119 186.526 88.4119 186.525 88.4119C186.522 88.4119 186.518 88.4119 186.513 88.4119C186.502 88.4119 186.487 88.4118 186.467 88.4116C186.428 88.4111 186.372 88.4102 186.299 88.4082C186.153 88.4041 185.941 88.3958 185.675 88.3785C185.144 88.3439 184.393 88.2737 183.509 88.1307C181.746 87.8455 179.431 87.2675 177.269 86.0898L177.509 85.651L177.748 85.2121C179.776 86.3167 181.971 86.8692 183.67 87.144C184.517 87.281 185.236 87.3482 185.741 87.381C185.993 87.3974 186.192 87.4052 186.327 87.4089C186.394 87.4108 186.445 87.4116 186.479 87.412C186.496 87.4122 186.508 87.4123 186.516 87.4123C186.52 87.4123 186.523 87.4123 186.525 87.4123C186.526 87.4123 186.526 87.4123 186.526 87.4123C186.527 87.4123 186.527 87.4123 186.527 87.4123C186.527 87.4123 186.527 87.4123 186.527 87.4123C186.526 87.4123 186.526 87.4123 186.528 87.9121Z" fill="#12161C"/>
<path d="M186.048 80.4523C186.642 81.9798 188.83 86.3875 188.83 86.3875C188.83 86.3875 191.33 90.9863 195.663 93.1227C195.663 93.1227 196.042 90.8778 196.173 90.0958C196.305 89.3137 196.111 92.3896 198.245 94.7981C198.245 94.7981 201.774 85.5279 200.358 82.2618C198.394 77.7297 189.764 73.7505 185.97 75.1302C184.547 75.6488 185.566 79.2114 186.048 80.4523Z" fill="#12161C"/>
<path d="M171.528 81.4544C171.408 83.5217 169.817 88.0418 169.645 92.1794C169.645 92.1794 167.35 88.6591 168.27 83.758C168.27 83.758 170.02 78.5109 171.528 81.4544Z" fill="#12161C"/>
<path d="M177.319 79.4168C177.319 79.4168 179.809 72.9891 182.415 73.8627C189.009 76.0715 185.897 83.3759 188.065 90.3797C188.065 90.3797 182.729 88.2028 182.642 84.5367C182.642 84.5367 182.298 88.2998 182.287 89.4048C182.287 89.4048 180.032 87.6414 181.454 80.2475L177.319 79.4168Z" fill="#12161C"/>
<path d="M177.319 79.4191L182.59 76.2588L181.454 80.25L177.319 79.4191Z" fill="#595C60"/>
</g>
<path d="M282.514 187.904L215.757 188.336L224.435 145.383C224.691 144.111 225.811 143.196 227.111 143.195L290.842 143.141C291.791 143.141 292.507 144.001 292.331 144.932L284.551 186.206C284.366 187.186 283.513 187.897 282.514 187.904Z" fill="#21B531"/>
<path d="M215.757 188.335L198.371 185.95C197.868 185.88 197.501 185.438 197.526 184.931L197.661 182.29C197.677 181.983 197.925 181.739 198.232 181.728L217.239 181L215.757 188.335Z" fill="#21B531"/>
<path d="M215.888 188.014C215.867 188.015 215.845 188.013 215.823 188.009C215.676 187.979 215.58 187.835 215.61 187.688L216.94 181.105C216.969 180.958 217.113 180.862 217.262 180.892C217.409 180.922 217.505 181.066 217.475 181.213L216.145 187.796C216.12 187.921 216.011 188.009 215.888 188.014Z" fill="white"/>
<path d="M215.888 188.014C215.867 188.015 215.845 188.013 215.823 188.009C215.676 187.979 215.58 187.835 215.61 187.688L216.94 181.105C216.969 180.958 217.113 180.862 217.262 180.892C217.409 180.922 217.505 181.066 217.475 181.213L216.145 187.796C216.12 187.921 216.011 188.009 215.888 188.014Z" stroke="white" stroke-miterlimit="10"/>
<path d="M198.352 182.607L216.475 184.208" stroke="white" stroke-width="1.5" stroke-miterlimit="2" stroke-linecap="round" stroke-linejoin="round"/>
<path d="M289.443 146.619C289.593 146.618 229.344 146.622 229.344 146.622C228.595 146.621 227.923 147.167 227.766 147.909L220.056 184.209" stroke="white" stroke-width="1.5" stroke-miterlimit="10" stroke-linecap="round" stroke-linejoin="round"/>
<path d="M255.653 170.933C257.243 171.538 259.134 170.451 259.878 168.504C260.621 166.557 259.935 164.489 258.345 163.884C256.756 163.279 254.864 164.367 254.121 166.314C253.377 168.26 254.063 170.328 255.653 170.933Z" fill="white"/>
<path d="M183.595 179.392C183.92 179.912 190.044 184.471 190.504 184.835C191.573 185.679 192.675 186.481 193.584 187.512C194.535 188.591 194.372 189.193 192.971 189.544C192.514 189.658 155.755 190.8 154.903 190.708C153.977 190.608 153.243 190.126 153.112 189.073C154.082 187.25 160.099 185.082 163.142 183.529C163.645 183.273 169.296 179.607 169.822 179.392C171.014 179.319 182.47 179.383 183.595 179.392Z" fill="#B2C8F0"/>
<path d="M164.903 180.375C164.117 181.078 158.885 183.955 157.959 184.406C155.026 185.834 152.129 187.327 149.3 188.951C149.252 188.978 149.217 189.032 149.176 189.073C145.948 190.726 146.788 190.509 143.145 190.286C140.242 190.11 137.344 189.848 134.444 189.626C133.052 189.519 131.661 189.429 130.268 189.359C128.49 189.27 126.72 189.086 124.951 188.886C123.595 188.732 122.231 188.646 120.872 188.519C120.075 188.444 119.285 188.318 118.511 188.101C118.369 188.062 118.225 188.02 118.089 187.964C116.849 187.447 116.723 186.705 117.783 185.869C119.07 184.854 120.536 184.118 121.96 183.32C122.478 183.03 122.995 182.738 123.516 182.452C123.677 182.362 127.521 180.375 129.488 180.375C131.456 179.392 164.347 179.886 164.903 180.375Z" fill="#B2C8F0"/>
<path d="M124.126 185.667C123.851 185.639 123.652 185.393 123.68 185.119C123.708 184.844 123.954 184.644 124.229 184.673L124.177 185.17L124.126 185.667ZM145.684 186.879C145.958 186.908 146.158 187.153 146.13 187.428C146.101 187.703 145.856 187.902 145.581 187.874L145.632 187.377L145.684 186.879ZM124.177 185.17L124.229 184.673L145.684 186.879L145.632 187.377L145.581 187.874L124.126 185.667L124.177 185.17Z" fill="white"/>
<path d="M128.061 182.72C127.786 182.692 127.587 182.446 127.615 182.171C127.643 181.897 127.889 181.697 128.164 181.725L128.112 182.223L128.061 182.72ZM149.619 183.932C149.894 183.96 150.093 184.206 150.065 184.481C150.037 184.755 149.791 184.955 149.516 184.927L149.567 184.43L149.619 183.932ZM128.112 182.223L128.164 181.725L149.619 183.932L149.567 184.43L149.516 184.927L128.061 182.72L128.112 182.223Z" fill="white"/>
<path d="M159.372 188.708C159.096 188.716 158.865 188.498 158.857 188.222C158.849 187.946 159.067 187.716 159.343 187.708L159.357 188.208L159.372 188.708ZM188.153 186.877C188.429 186.869 188.659 187.086 188.667 187.362C188.675 187.638 188.458 187.869 188.182 187.877L188.167 187.377L188.153 186.877ZM159.357 188.208L159.343 187.708L188.153 186.877L188.167 187.377L188.182 187.877L159.372 188.708L159.357 188.208Z" fill="white"/>
<path d="M164.264 185.707C163.988 185.715 163.758 185.498 163.75 185.221C163.742 184.945 163.959 184.715 164.235 184.707L164.25 185.207L164.264 185.707ZM185.471 184.093C185.747 184.085 185.978 184.303 185.986 184.579C185.994 184.855 185.776 185.085 185.5 185.093L185.486 184.593L185.471 184.093ZM164.25 185.207L164.235 184.707L185.471 184.093L185.486 184.593L185.5 185.093L164.264 185.707L164.25 185.207Z" fill="white"/>
<path d="M178.644 170.297C176.238 171.215 175.763 174.67 176.692 176.515C177.774 178.666 179.605 180.741 181.946 180.773C182.922 181.363 183.698 181.006 183.907 181.334C184.683 182.561 185.276 183.387 185.664 184.416C185.948 185.167 186.79 186.782 187.774 186.726C189.631 186.621 189.297 183.916 188.898 183.053C188.859 182.97 186.691 179.15 186.708 179.06C186.785 179.133 189.006 181.558 189.871 183.446C190.275 184.327 190.981 185.101 192.06 184.939C193.057 184.791 193.851 184.061 193.925 183.088C194.231 183.372 194.559 183.645 194.974 183.762C195.544 183.926 196.139 183.759 196.587 183.327C197.114 182.82 197.266 182.211 197.215 181.607C197.305 181.649 197.398 181.689 197.497 181.722C198.103 181.922 198.805 181.895 199.373 181.49C199.838 181.158 200.11 180.632 200.176 180.099C200.318 178.924 199.85 177.792 199.22 176.889C196.567 173.087 191.946 170.034 186.557 169.924C184.73 169.887 182.892 169.992 181.062 169.993C180.181 169.994 179.364 170.023 178.644 170.297Z" fill="#FFC7A1"/>
<path d="M186.047 176.765C187.067 178.114 187.961 179.572 188.71 181.124C189.063 181.855 189.416 182.604 189.673 183.389C189.905 184.095 190.023 184.895 189.754 185.673C189.479 186.461 188.822 187.168 188.018 187.27C187.507 187.334 187.479 186.511 187.992 186.447C188.52 186.38 188.923 185.862 189.056 185.339C189.222 184.682 189.033 184.034 188.822 183.462C188.293 182.033 187.592 180.679 186.815 179.405C186.368 178.671 185.884 177.964 185.37 177.282C185.072 176.888 185.75 176.371 186.047 176.765Z" fill="#EA989D" stroke="#EA989D" stroke-width="0.5" stroke-miterlimit="2" stroke-linejoin="round"/>
<path d="M187.456 173.783C189.131 174.671 190.579 175.888 191.718 177.364C192.288 178.102 192.774 178.901 193.181 179.742C193.588 180.585 193.944 181.49 194.113 182.426C194.297 183.444 193.99 184.622 192.918 185.154C192.431 185.396 192.171 184.661 192.655 184.42C193.427 184.038 193.41 183.034 193.257 182.389C193.064 181.568 192.747 180.773 192.381 180.024C191.661 178.545 190.642 177.209 189.401 176.124C188.698 175.51 187.925 174.969 187.09 174.526C186.901 174.428 186.798 174.223 186.904 174.007C186.994 173.823 187.267 173.683 187.456 173.783Z" fill="#EA989D" stroke="#EA989D" stroke-width="0.5" stroke-miterlimit="2" stroke-linejoin="round"/>
<path d="M189.91 171.251C192.183 172.301 194.038 174.008 195.36 176.064C196.061 177.155 196.625 178.337 197.057 179.568C197.46 180.717 197.812 182.093 196.991 183.259C196.606 183.805 195.962 184.211 195.296 184.225C194.634 184.24 194.021 183.864 193.829 183.255C193.68 182.777 194.46 182.457 194.611 182.937C194.729 183.317 195.143 183.503 195.553 183.402C196.014 183.287 196.361 182.889 196.527 182.473C196.95 181.411 196.423 180.23 196.055 179.29C195.258 177.254 194.066 175.366 192.431 173.904C191.573 173.135 190.608 172.485 189.544 171.994C189.082 171.781 189.447 171.037 189.91 171.251Z" fill="#EA989D" stroke="#EA989D" stroke-width="0.5" stroke-miterlimit="2" stroke-linejoin="round"/>
<path d="M186.837 178.521C188.099 179.376 189.128 180.519 189.837 181.853C190.38 182.876 190.949 184.847 192.56 184.537C193.086 184.436 193.132 185.227 192.606 185.329C191.869 185.471 191.149 185.203 190.629 184.755C190.005 184.216 189.675 183.454 189.331 182.723C188.652 181.282 187.625 180.067 186.295 179.166C185.877 178.883 186.421 178.24 186.837 178.521Z" fill="#EA989D" stroke="#EA989D" stroke-width="0.5" stroke-miterlimit="2" stroke-linejoin="round"/>
<path d="M188.697 169.659C191.452 169.986 193.823 171.382 195.869 173.022C196.979 173.911 198.067 174.866 198.93 175.99C199.769 177.083 200.583 178.54 200.356 180.02C200.25 180.712 199.844 181.446 199.198 181.831C198.536 182.227 197.718 182.264 197.131 181.841C196.721 181.546 197.266 180.902 197.673 181.196C198.05 181.468 198.616 181.356 198.981 181.036C199.396 180.671 199.574 180.109 199.57 179.605C199.563 178.321 198.779 177.123 198.006 176.191C197.208 175.228 196.247 174.399 195.266 173.618C194.353 172.891 193.388 172.213 192.338 171.669C191.161 171.059 189.891 170.614 188.529 170.453C188.011 170.392 188.176 169.598 188.697 169.659Z" fill="#EA989D" stroke="#EA989D" stroke-width="0.5" stroke-miterlimit="2" stroke-linejoin="round"/>
<path d="M179.828 170.789C173.753 169.352 167.722 167.697 161.596 166.479C149.042 163.981 146.023 165.542 143.747 165.547C141.457 165.551 139.243 170.337 140.464 172.426C144.476 179.292 164.676 178.977 178.325 178.316C182.171 176.513 180.58 170.966 179.828 170.789Z" fill="#FFC7A1"/>
<path d="M243.277 114.939C255.879 114.939 266.096 104.739 266.096 92.1569C266.096 79.5748 255.879 69.375 243.277 69.375C230.674 69.375 220.458 79.5748 220.458 92.1569C220.458 104.739 230.674 114.939 243.277 114.939Z" fill="white"/>
<path d="M240.488 107.966C239.71 107.835 239.073 107.469 238.577 106.869C238.082 106.268 237.91 105.515 238.063 104.61C238.198 103.807 238.593 103.179 239.247 102.724C239.901 102.271 240.636 102.112 241.453 102.249C242.257 102.384 242.887 102.771 243.343 103.411C243.799 104.051 243.959 104.773 243.824 105.576C243.674 106.468 243.268 107.121 242.608 107.535C241.948 107.948 241.241 108.092 240.488 107.966ZM234.683 85.4441C234.887 84.2332 235.484 83.0717 236.472 81.9592C237.46 80.8468 238.769 80.008 240.4 79.4424C242.031 78.8772 243.842 78.761 245.832 79.0947C247.682 79.4048 249.258 80.0199 250.56 80.939C251.861 81.8584 252.799 82.9692 253.373 84.2712C253.947 85.5735 254.118 86.9127 253.886 88.2895C253.703 89.373 253.322 90.2858 252.745 91.0277C252.167 91.7698 251.524 92.3862 250.819 92.8774C250.112 93.3685 248.856 94.1836 247.05 95.3227C246.549 95.6451 246.143 95.9344 245.831 96.1898C245.519 96.4456 245.278 96.687 245.108 96.914C244.939 97.1413 244.798 97.3733 244.686 97.6101C244.574 97.8469 244.395 98.2661 244.149 98.867C243.683 100.152 242.812 100.687 241.536 100.474C240.872 100.362 240.351 100.052 239.971 99.5428C239.59 99.0336 239.473 98.3518 239.617 97.4976C239.798 96.427 240.12 95.5273 240.584 94.7991C241.048 94.0707 241.604 93.4562 242.254 92.9556C242.902 92.4547 243.761 91.8746 244.83 91.2149C245.767 90.638 246.448 90.1984 246.873 89.896C247.298 89.5936 247.673 89.2406 247.997 88.8358C248.321 88.4315 248.527 87.9682 248.616 87.4454C248.788 86.4256 248.553 85.5016 247.912 84.6732C247.271 83.8451 246.351 83.3301 245.151 83.129C243.747 82.8937 242.654 83.0742 241.871 83.6704C241.089 84.2667 240.351 85.2146 239.66 86.5143C238.983 87.8822 238.038 88.4641 236.826 88.2609C236.111 88.1412 235.551 87.7885 235.145 87.2026C234.738 86.6167 234.584 86.0306 234.683 85.4441Z" fill="#EB5757"/>
<path fill-rule="evenodd" clip-rule="evenodd" d="M228.436 109.463L215.311 119.878L234.648 112.318L228.436 109.463Z" fill="white"/>
<path d="M214.966 64.2407C222.472 64.2407 228.556 58.1663 228.556 50.6732C228.556 43.1801 222.472 37.1057 214.966 37.1057C207.461 37.1057 201.377 43.1801 201.377 50.6732C201.377 58.1663 207.461 64.2407 214.966 64.2407Z" fill="white"/>
<path d="M213.305 60.0896C212.842 60.0116 212.463 59.7938 212.167 59.4361C211.872 59.0784 211.77 58.63 211.861 58.0909C211.942 57.6127 212.177 57.2384 212.566 56.968C212.956 56.6978 213.394 56.6031 213.88 56.6848C214.359 56.7651 214.734 56.9959 215.006 57.3768C215.277 57.7583 215.373 58.1879 215.292 58.6662C215.203 59.1977 214.961 59.5864 214.568 59.8327C214.175 60.079 213.754 60.1647 213.305 60.0896ZM209.848 46.6769C209.97 45.9558 210.325 45.264 210.914 44.6015C211.502 43.939 212.282 43.4395 213.253 43.1027C214.224 42.766 215.303 42.6969 216.488 42.8956C217.59 43.0803 218.529 43.4466 219.304 43.9939C220.079 44.5415 220.637 45.203 220.979 45.9784C221.321 46.754 221.423 47.5515 221.284 48.3714C221.175 49.0167 220.949 49.5603 220.605 50.0021C220.261 50.4441 219.878 50.8112 219.458 51.1037C219.037 51.3962 218.289 51.8816 217.213 52.56C216.915 52.752 216.673 52.9242 216.487 53.0764C216.302 53.2287 216.158 53.3725 216.057 53.5077C215.956 53.643 215.872 53.7812 215.806 53.9222C215.739 54.0632 215.632 54.3129 215.486 54.6707C215.208 55.4361 214.689 55.7549 213.93 55.6275C213.534 55.5613 213.224 55.3766 212.998 55.0732C212.771 54.7699 212.701 54.364 212.787 53.8552C212.895 53.2177 213.086 52.6819 213.363 52.2481C213.639 51.8144 213.97 51.4484 214.357 51.1503C214.743 50.852 215.255 50.5065 215.891 50.1136C216.45 49.7701 216.855 49.5082 217.108 49.3282C217.361 49.1481 217.584 48.9379 217.777 48.6968C217.97 48.456 218.093 48.1801 218.146 47.8687C218.248 47.2614 218.109 46.7112 217.727 46.2178C217.345 45.7246 216.797 45.4179 216.083 45.2982C215.247 45.158 214.596 45.2655 214.129 45.6206C213.663 45.9757 213.224 46.5402 212.812 47.3142C212.409 48.1289 211.846 48.4754 211.124 48.3544C210.699 48.2831 210.365 48.0731 210.123 47.7241C209.881 47.3752 209.79 47.0262 209.848 46.6769Z" fill="#EB5757"/>
<path fill-rule="evenodd" clip-rule="evenodd" d="M206.128 60.9788L203.978 68.5959L209.827 62.6792L206.128 60.9788Z" fill="white"/>
<path d="M292.566 27.7753C284.856 35.4728 272.662 23.4655 280.455 15.6848C288.217 7.93517 300.489 19.8649 292.566 27.7753ZM301.515 15.6804C301.47 15.5653 301.424 15.4508 301.377 15.3364C300.869 14.1123 301.123 12.7071 302.062 11.7698L302.393 11.4395C303.661 10.1741 303.661 8.12132 302.393 6.85591L301.409 5.87372C300.141 4.60759 298.086 4.60759 296.817 5.87372L296.641 6.04973C295.676 7.01309 294.22 7.25212 292.976 6.69222C292.813 6.61906 292.648 6.54807 292.482 6.47926C291.259 5.9773 290.453 4.80026 290.453 3.48053V3.2415C290.453 1.45096 288.999 0.00012207 287.206 0.00012207H285.815C284.021 0.00012207 282.568 1.45096 282.568 3.2415V3.29583C282.568 4.64815 281.723 5.84692 280.457 6.32715C280.244 6.40828 280.033 6.49302 279.824 6.58284C278.599 7.10798 277.18 6.84795 276.237 5.90632L276.203 5.87372C274.936 4.60759 272.88 4.60759 271.612 5.87372L270.628 6.85591C269.36 8.12132 269.36 10.1741 270.628 11.4395H270.628C271.576 12.3862 271.833 13.8124 271.297 15.0387C270.913 15.9195 270.604 16.8408 270.377 17.7933L270.377 17.794H267.992C266.198 17.794 264.745 19.2449 264.745 21.0354V22.4247C264.745 24.2145 266.198 25.6661 267.992 25.6661H270.448C270.681 26.5679 270.991 27.4385 271.368 28.2722C271.929 29.5115 271.686 30.9638 270.723 31.9257L270.628 32.0199C269.36 33.286 269.36 35.3381 270.628 36.6042L271.612 37.5864C272.88 38.8525 274.936 38.8525 276.203 37.5864L276.453 37.3372C277.389 36.4021 278.795 36.1442 280.019 36.6505C280.159 36.7085 280.299 36.765 280.442 36.8193C281.713 37.3039 282.568 38.499 282.568 39.8572V40.2186C282.568 42.0084 284.021 43.46 285.815 43.46H287.206C288.999 43.46 290.453 42.0084 290.453 40.2186V39.6811C290.453 38.3788 291.234 37.2032 292.435 36.6955L292.873 36.5107C294.092 35.9965 295.5 36.2703 296.434 37.2039L296.817 37.5864C298.086 38.8525 300.141 38.8525 301.409 37.5864L302.393 36.6042C303.661 35.3381 303.661 33.286 302.393 32.0199L301.977 31.6049C301.046 30.6748 300.769 29.2761 301.277 28.0629L301.447 27.6572C301.952 26.4512 303.133 25.6661 304.443 25.6661H305.03C306.822 25.6661 308.276 24.2145 308.276 22.4247V21.0354C308.276 19.2449 306.822 17.794 305.03 17.794H304.555C303.198 17.794 302.006 16.9437 301.515 15.6804Z" fill="#003578"/>
<path d="M314.973 29.7982C321.312 27.1116 325.607 37.0234 319.199 39.7382C312.817 42.4428 308.459 32.5586 314.973 29.7982ZM306.866 34.7664C306.866 34.8446 306.865 34.9228 306.866 35.0003C306.873 35.8377 306.391 36.6004 305.619 36.9271L305.347 37.0422C304.305 37.4841 303.819 38.6857 304.261 39.7266L304.604 40.5342C305.047 41.5751 306.251 42.0604 307.293 41.6185L307.438 41.557C308.231 41.2209 309.141 41.4244 309.737 42.0466C309.815 42.1278 309.895 42.2089 309.976 42.2878C310.572 42.8709 310.765 43.7503 310.453 44.5231L310.396 44.6629C309.972 45.7117 310.48 46.9047 311.529 47.3285L312.344 47.6566C313.394 48.0803 314.589 47.574 315.013 46.5252L315.026 46.4933C315.346 45.7016 316.126 45.1996 316.981 45.217C317.125 45.2199 317.268 45.2199 317.412 45.217C318.253 45.1989 319.023 45.6864 319.352 46.46L319.364 46.4875C319.806 47.5284 321.01 48.0137 322.052 47.5718L322.861 47.2292C323.904 46.7874 324.39 45.5857 323.947 44.5448C323.617 43.7669 323.804 42.8709 324.409 42.2791C324.843 41.8547 325.242 41.3882 325.6 40.8841L326.997 41.4469C328.047 41.8706 329.242 41.3643 329.666 40.3162L329.995 39.5028C330.42 38.4539 329.913 37.261 328.862 36.8372L327.424 36.2578C327.501 35.6747 327.526 35.0909 327.503 34.5143C327.468 33.656 327.954 32.8628 328.747 32.5275L328.824 32.4942C329.867 32.0523 330.353 30.8506 329.91 29.8098L329.567 29.0022C329.125 27.962 327.921 27.476 326.878 27.9178L326.674 28.0047C325.903 28.3314 325.02 28.1503 324.423 27.5644C324.354 27.4977 324.285 27.4318 324.215 27.3659C323.586 26.7821 323.368 25.8803 323.69 25.085L323.775 24.8735C324.2 23.8254 323.693 22.6324 322.642 22.2087L321.828 21.8798C320.778 21.4568 319.583 21.9631 319.158 23.0112L319.031 23.3256C318.723 24.0883 317.987 24.5924 317.163 24.6055L316.863 24.6105C316.028 24.6243 315.268 24.131 314.941 23.3632L314.808 23.0489C314.365 22.008 313.162 21.5227 312.119 21.9646L311.31 22.3072C310.268 22.749 309.782 23.9507 310.224 24.9915L310.369 25.3327C310.694 26.0976 310.525 26.982 309.94 27.5723L309.745 27.7693C309.163 28.3568 308.285 28.5371 307.518 28.2278L307.175 28.0895C306.125 27.6658 304.93 28.1728 304.506 29.2209L304.176 30.0343C303.752 31.0824 304.26 32.2754 305.31 32.6991L305.587 32.8114C306.381 33.1316 306.879 33.9109 306.866 34.7664Z" fill="#B2C8F0"/>
<path d="M72.6605 113.699H64.2063V120.417H72.6605V113.699Z" fill="white"/>
<path d="M90.2954 113.699H81.8745V120.391H90.2954V113.699Z" fill="white"/>
<path d="M62.3626 129.07H58.9668V131.663H62.3626V129.07Z" fill="white"/>
<path fill-rule="evenodd" clip-rule="evenodd" d="M172.576 127.522L172.104 157.929L177.357 163.822L181.265 157.929L177.217 127.051L172.576 127.522Z" fill="#21B531"/>
<path d="M172.576 127.521L172.104 157.929L177.298 163.821" stroke="white" stroke-miterlimit="1.5" stroke-linecap="round" stroke-linejoin="round"/>
<path fill-rule="evenodd" clip-rule="evenodd" d="M172.576 127.522C173.286 128.372 176.616 128.035 177.218 127.286C178.002 126.31 178.069 121.925 178.007 122.336C178.007 122.336 174.726 121.078 170.688 123.043C170.688 123.043 171.178 125.848 172.576 127.522Z" fill="#21B531"/>
<path d="M170.924 123.75C170.924 123.75 171.179 125.847 172.577 127.521C172.905 127.915 173.796 128.054 174.718 128.015" stroke="white" stroke-miterlimit="1.5" stroke-linecap="round" stroke-linejoin="round"/>
</svg>
