<svg width="352" height="198" viewBox="0 0 352 198" fill="none" xmlns="http://www.w3.org/2000/svg">
<g clip-path="url(#clip0_15027_156011)">
<mask id="mask0_15027_156011" style="mask-type:luminance" maskUnits="userSpaceOnUse" x="21" y="0" width="310" height="198">
<path d="M331 0H21V198H331V0Z" fill="white"/>
</mask>
<g mask="url(#mask0_15027_156011)">
<path d="M38.4562 24.3337C43.4757 17.2579 47.7754 12.1661 70.1378 8.70411C105.562 3.21757 258.068 3.46052 286.477 10.3541C302.888 14.3425 318.571 14.9296 320.241 43.8706C321.556 66.5861 323.993 128.274 318.158 142.345C312.323 156.416 307.735 170.476 280.641 171.721C253.547 172.966 101.407 175.861 76.3954 174.616C51.3841 173.371 38.4658 162.621 33.4655 150.2C28.4651 137.79 30.5478 71.1717 30.5478 71.1717C30.5478 71.1717 30.5958 35.4282 38.4658 24.3236L38.4562 24.3337Z" fill="#EBEBF2"/>
<mask id="mask1_15027_156011" style="mask-type:luminance" maskUnits="userSpaceOnUse" x="30" y="4" width="292" height="171">
<path d="M38.4562 24.3337C43.4757 17.2579 47.7754 12.1661 70.1378 8.70411C105.562 3.21757 258.068 3.46052 286.477 10.3541C302.888 14.3425 318.571 14.9296 320.241 43.8706C321.556 66.5861 323.993 128.274 318.158 142.345C312.323 156.416 307.735 170.476 280.641 171.721C253.547 172.966 101.407 175.861 76.3954 174.616C51.3841 173.371 38.4658 162.621 33.4655 150.2C28.4651 137.79 30.5478 71.1717 30.5478 71.1717C30.5478 71.1717 30.5958 35.4282 38.4658 24.3236L38.4562 24.3337Z" fill="white"/>
</mask>
<g mask="url(#mask1_15027_156011)">
<path d="M30.1174 -6.69336H248.942V126.926H30.1174V-6.69336Z" stroke="white" stroke-width="1.33277" stroke-miterlimit="10" stroke-linecap="round" stroke-linejoin="round"/>
<path d="M30.1177 19.8477H248.942" stroke="white" stroke-width="1.33277" stroke-miterlimit="10" stroke-linecap="round" stroke-linejoin="round"/>
<path d="M30.1177 42.2793H248.942" stroke="white" stroke-width="1.33277" stroke-miterlimit="10" stroke-linecap="round" stroke-linejoin="round"/>
<path d="M30.1177 64.7109H248.942" stroke="white" stroke-width="1.33277" stroke-miterlimit="10" stroke-linecap="round" stroke-linejoin="round"/>
<path d="M30.1177 87.1445H248.942" stroke="white" stroke-width="1.33277" stroke-miterlimit="10" stroke-linecap="round" stroke-linejoin="round"/>
<path d="M30.1177 109.576H248.942" stroke="white" stroke-width="1.33277" stroke-miterlimit="10" stroke-linecap="round" stroke-linejoin="round"/>
<path d="M72.7534 20.1953V109.676" stroke="white" stroke-width="1.33277" stroke-miterlimit="10" stroke-linecap="round" stroke-linejoin="round"/>
<path d="M102.523 20.1953V109.676" stroke="white" stroke-width="1.33277" stroke-miterlimit="10" stroke-linecap="round" stroke-linejoin="round"/>
<path d="M132.292 20.1953V109.676" stroke="white" stroke-width="1.33277" stroke-miterlimit="10" stroke-linecap="round" stroke-linejoin="round"/>
<path d="M162.062 20.1953V109.676" stroke="white" stroke-width="1.33277" stroke-miterlimit="10" stroke-linecap="round" stroke-linejoin="round"/>
<path d="M191.831 20.1953V109.676" stroke="white" stroke-width="1.33277" stroke-miterlimit="10" stroke-linecap="round" stroke-linejoin="round"/>
<path fill-rule="evenodd" clip-rule="evenodd" d="M78.3701 126.785C78.3701 128.054 79.4009 129.084 80.6705 129.084H198.389C199.658 129.084 200.689 128.054 200.689 126.785C200.689 125.516 199.658 124.486 198.389 124.486H80.6705C79.4009 124.486 78.3701 125.516 78.3701 126.785Z" fill="white"/>
<path d="M38.3487 94.7964C38.3487 93.4025 39.4798 92.2726 40.875 92.2726C42.2703 92.2726 43.4014 93.4025 43.4014 94.7964C43.4014 96.1903 42.2703 97.3203 40.875 97.3203C39.4798 97.3203 38.3487 96.1903 38.3487 94.7964Z" stroke="white" stroke-width="0.53394" stroke-miterlimit="10"/>
<path d="M46.8965 93.6367H54.3491" stroke="white" stroke-width="0.53394" stroke-miterlimit="10" stroke-linecap="round" stroke-linejoin="round"/>
<path d="M46.8965 96.7324H58.9949" stroke="white" stroke-width="0.53163" stroke-miterlimit="10" stroke-linecap="round" stroke-linejoin="round"/>
<path d="M38.3487 103.392C38.3487 101.998 39.4798 100.868 40.875 100.868C42.2703 100.868 43.4014 101.998 43.4014 103.392C43.4014 104.786 42.2703 105.916 40.875 105.916C39.4798 105.916 38.3487 104.786 38.3487 103.392Z" stroke="white" stroke-width="0.53394" stroke-miterlimit="10"/>
<path d="M45.3481 102.232H52.8007" stroke="white" stroke-width="0.53394" stroke-miterlimit="10" stroke-linecap="round" stroke-linejoin="round"/>
<path d="M45.3481 105.328H58.9952" stroke="white" stroke-width="0.534497" stroke-miterlimit="10" stroke-linecap="round" stroke-linejoin="round"/>
<path d="M205.797 48.3887H242.538" stroke="white" stroke-width="1.16614" stroke-miterlimit="10" stroke-linecap="round"/>
<path d="M205.797 53.1934H242.538" stroke="white" stroke-width="1.16614" stroke-miterlimit="10" stroke-linecap="round"/>
<path d="M205.797 57.998H242.538" stroke="white" stroke-width="1.16614" stroke-miterlimit="10" stroke-linecap="round"/>
<path d="M201.305 48.3887H196.877" stroke="white" stroke-width="1.16614" stroke-miterlimit="10" stroke-linecap="round"/>
<path d="M201.305 53.1934H196.877" stroke="white" stroke-width="1.16614" stroke-miterlimit="10" stroke-linecap="round"/>
<path d="M201.305 57.998H196.877" stroke="white" stroke-width="1.16614" stroke-miterlimit="10" stroke-linecap="round"/>
<path d="M259.319 45.4479C259.319 58.9708 270.29 69.9328 283.823 69.9328C297.357 69.9328 308.33 58.9708 308.33 45.4479C308.33 31.9249 297.357 20.9629 283.823 20.9629C270.29 20.9629 259.319 31.9249 259.319 45.4479Z" fill="white"/>
<path d="M283.824 65.3523C294.809 65.3523 303.746 56.4226 303.746 45.4467C303.746 34.4707 294.809 25.541 283.824 25.541C272.84 25.541 263.903 34.4707 263.903 45.4467C263.903 56.4226 272.84 65.3523 283.824 65.3523Z" fill="#EBEBF2"/>
<path d="M283.597 49.1183C283.745 49.1599 283.91 49.1311 284.037 49.0321L296.983 38.985C297.199 38.8164 297.239 38.5039 297.071 38.2859C296.902 38.0692 296.588 38.0294 296.371 38.198L283.739 48.0015L274.577 40.5168C274.364 40.3426 274.05 40.3742 273.875 40.5881C273.701 40.8007 273.733 41.1138 273.945 41.288L283.416 49.0237C283.471 49.0694 283.532 49.1006 283.597 49.1183Z" fill="white" stroke="white" stroke-width="1.33261" stroke-miterlimit="2" stroke-linejoin="round"/>
<path d="M43.1114 148.056L56.6601 148.071L57.0617 148.072L55.1894 148.07L43.1114 148.056ZM59.8437 194.068C59.8656 194.647 59.8931 195.205 59.9259 195.746L59.9156 195.748C59.8807 195.207 59.8523 194.647 59.8294 194.068L59.8437 194.068ZM60.05 197.466C60.027 197.223 60.0065 196.972 59.9871 196.721L59.9922 196.722C60.0107 196.971 60.0289 197.224 60.05 197.466ZM74.4014 227.397C74.9665 227.399 75.4279 226.933 75.4234 226.368C75.313 209.836 71.9969 206.71 71.4138 194.679L71.4151 194.313L71.3987 194.314C71.3648 193.524 71.3405 192.7 71.3308 191.829C71.3249 191.269 70.877 190.813 70.3169 190.813C68.137 190.811 63.0035 190.805 60.8083 190.802C60.2431 190.801 59.783 191.263 59.7895 191.828C59.7948 192.215 59.8018 192.592 59.8103 192.964L59.7939 192.964C59.7844 192.593 59.7764 192.215 59.772 191.829C59.7645 191.264 60.2267 190.801 60.7929 190.803L66.9545 190.809C67.5177 190.809 67.9742 190.354 67.9747 189.791L67.9803 185.93L68.3445 185.939L68.3468 184.794L67.9813 184.803L68.0021 169.518C68.0025 168.955 68.4592 168.499 69.0222 168.5L70.6994 168.502C71.2625 168.503 71.7201 168.047 71.7205 167.484L71.7309 159.314C71.7323 158.751 71.2763 158.295 70.7131 158.295L67.5654 158.29C67.0033 158.29 66.5472 157.834 66.5477 157.271L66.5581 149.377C66.5595 148.663 67.1407 148.083 67.8561 148.083C68.5725 148.085 69.1537 147.505 69.1542 146.789L69.1646 138.896C69.166 138.334 68.71 137.877 68.1469 137.876L60.3888 137.868L29.1227 137.833C28.5595 137.833 28.1029 138.289 28.1015 138.85L28.091 146.717C28.0906 147.28 27.6339 147.736 27.0708 147.735L25.4835 147.735L25.4959 148.305L25.4846 157.226C25.4841 157.788 25.9392 158.245 26.5023 158.245L34.1336 158.254L28.0762 158.247L28.0762 158.261L28.0619 158.261L28.0752 158.831L28.0696 163.083L28.0691 163.924L28.0636 167.436C28.0632 167.999 28.5193 168.455 29.0824 168.456L30.0696 168.457C30.6328 168.458 31.0878 168.914 31.0874 169.477L31.061 189.75C31.0595 190.313 31.5156 190.769 32.0787 190.771L48.1987 190.788L28.5067 190.767C27.9406 190.765 27.478 191.233 27.4845 191.798C27.5219 195.52 27.7903 198.477 28.1729 201.088L28.1719 201.658L28.2569 201.656C29.4192 209.141 31.4856 213.917 31.5776 226.331C31.5814 226.891 32.0332 227.35 32.5932 227.352L62.8414 227.385C63.4066 227.386 63.867 226.92 63.8635 226.356C63.8503 224.364 63.7902 222.567 63.694 220.925C63.799 222.571 63.8664 224.368 63.881 226.367C63.8859 226.927 64.3377 227.386 64.8977 227.387L74.4014 227.397Z" fill="white"/>
<path d="M34.2148 147.609L60.7994 147.513" stroke="#EBEBF2" stroke-width="1.06506" stroke-miterlimit="10" stroke-linecap="round"/>
<path d="M17.5732 151.498L44.1578 151.402" stroke="#EBEBF2" stroke-width="1.06506" stroke-miterlimit="10" stroke-linecap="round"/>
<path d="M30.9839 157.59L64.5925 158.518" stroke="#EBEBF2" stroke-width="1.06506" stroke-miterlimit="10" stroke-linecap="round"/>
<path d="M30.6909 161.588L47.5085 161.863" stroke="#EBEBF2" stroke-width="1.06506" stroke-miterlimit="10" stroke-linecap="round"/>
<path d="M55.2178 160.895L73.5946 161.219" stroke="#EBEBF2" stroke-width="1.06506" stroke-miterlimit="10" stroke-linecap="round"/>
<path d="M32.6489 168.951L66.8235 169.917" stroke="#EBEBF2" stroke-width="1.06506" stroke-miterlimit="10" stroke-linecap="round"/>
<path d="M42.644 165.08L66.1049 165.777" stroke="#EBEBF2" stroke-width="1.06506" stroke-miterlimit="10" stroke-linecap="round"/>
<path d="M48.1045 153.734L69.9215 154.311" stroke="#EBEBF2" stroke-width="1.06506" stroke-miterlimit="10" stroke-linecap="round"/>
<path d="M38.1997 173.991L68.4082 174.941" stroke="#EBEBF2" stroke-width="1.06506" stroke-miterlimit="10" stroke-linecap="round"/>
<path d="M276.882 135.87C276.882 135.87 260.973 132.728 256.534 121.637C252.094 110.548 268.326 102.229 276.882 108.186C286.034 114.557 276.882 135.87 276.882 135.87Z" fill="white"/>
<path d="M276.497 135.604C276.497 135.604 285.612 153.4 289.87 163.41" stroke="white" stroke-width="1.07" stroke-miterlimit="1.5" stroke-linecap="round" stroke-linejoin="round"/>
<path d="M263.125 107.797C263.125 107.797 272.24 125.594 276.497 135.603" stroke="#EBEBF2" stroke-width="1.07" stroke-miterlimit="1.5" stroke-linecap="round" stroke-linejoin="round"/>
<path d="M256.105 114.363C256.105 114.363 266.921 120.686 276.887 135.869" stroke="#EBEBF2" stroke-width="1.07" stroke-miterlimit="1.5" stroke-linecap="round" stroke-linejoin="round"/>
<path d="M255.151 121.891C259.792 123.818 268.024 127.971 276.887 135.874" stroke="#EBEBF2" stroke-width="1.07" stroke-miterlimit="1.5" stroke-linecap="round" stroke-linejoin="round"/>
<path d="M272.383 106.236C272.383 106.236 270.926 118.672 277.062 135.761" stroke="#EBEBF2" stroke-width="1.07" stroke-miterlimit="1.5" stroke-linecap="round" stroke-linejoin="round"/>
<path d="M278.969 110.004C277.717 114.867 276.082 123.934 277.064 135.762" stroke="#EBEBF2" stroke-width="1.07" stroke-miterlimit="1.5" stroke-linecap="round" stroke-linejoin="round"/>
<path d="M296.817 136.986C296.817 136.986 312.725 133.843 317.165 122.752C321.604 111.663 305.373 103.345 296.817 109.301C287.664 115.672 296.817 136.986 296.817 136.986Z" fill="white"/>
<path d="M297.201 136.719C297.201 136.719 288.086 154.516 283.829 164.525" stroke="white" stroke-width="1.07" stroke-miterlimit="1.5" stroke-linecap="round" stroke-linejoin="round"/>
<path d="M310.574 108.912C310.574 108.912 301.459 126.709 297.201 136.718" stroke="#EBEBF2" stroke-width="1.07" stroke-miterlimit="1.5" stroke-linecap="round" stroke-linejoin="round"/>
<path d="M317.593 115.479C317.593 115.479 306.777 121.801 296.811 136.984" stroke="#EBEBF2" stroke-width="1.07" stroke-miterlimit="1.5" stroke-linecap="round" stroke-linejoin="round"/>
<path d="M318.547 123.006C313.907 124.933 305.675 129.086 296.811 136.989" stroke="#EBEBF2" stroke-width="1.07" stroke-miterlimit="1.5" stroke-linecap="round" stroke-linejoin="round"/>
<path d="M301.315 107.352C301.315 107.352 302.772 119.787 296.636 136.877" stroke="#EBEBF2" stroke-width="1.07" stroke-miterlimit="1.5" stroke-linecap="round" stroke-linejoin="round"/>
<path d="M294.729 111.12C295.982 115.982 297.616 125.049 296.634 136.877" stroke="#EBEBF2" stroke-width="1.07" stroke-miterlimit="1.5" stroke-linecap="round" stroke-linejoin="round"/>
<path d="M287.514 113.341C287.514 113.341 274.479 103.71 275.211 91.7861C275.943 79.8636 294.173 79.2693 299.359 88.3068C304.906 97.9743 287.514 113.341 287.514 113.341Z" fill="white"/>
<path d="M287.288 112.935C287.288 112.935 287.913 132.917 287.479 143.785" stroke="white" stroke-width="1.07" stroke-miterlimit="1.5" stroke-linecap="round" stroke-linejoin="round"/>
<path d="M287.089 82.0854C287.089 82.0854 287.715 102.068 287.281 112.935" stroke="#EBEBF2" stroke-width="1.07" stroke-miterlimit="1.5" stroke-linecap="round" stroke-linejoin="round"/>
<path d="M277.934 85.0273C277.934 85.0273 285.006 95.3599 287.519 113.342" stroke="#EBEBF2" stroke-width="1.07" stroke-miterlimit="1.5" stroke-linecap="round" stroke-linejoin="round"/>
<path d="M273.853 91.4258C277.223 95.1484 282.888 102.416 287.52 113.344" stroke="#EBEBF2" stroke-width="1.07" stroke-miterlimit="1.5" stroke-linecap="round" stroke-linejoin="round"/>
<path d="M296.125 84.6265C296.125 84.6265 289.489 95.2476 287.728 113.319" stroke="#EBEBF2" stroke-width="1.07" stroke-miterlimit="1.5" stroke-linecap="round" stroke-linejoin="round"/>
<path d="M300.472 90.8472C297.258 94.7082 291.9 102.208 287.727 113.319" stroke="#EBEBF2" stroke-width="1.07" stroke-miterlimit="1.5" stroke-linecap="round" stroke-linejoin="round"/>
<path fill-rule="evenodd" clip-rule="evenodd" d="M301.178 143.285C301.89 143.285 302.566 143.597 303.028 144.139C303.49 144.68 303.691 145.396 303.578 146.1C301.783 157.286 295.249 198.001 295.249 198.001H279.717C279.717 198.001 272.497 157.383 270.498 146.14C270.372 145.432 270.567 144.705 271.028 144.154C271.491 143.603 272.173 143.285 272.892 143.285H301.178Z" fill="white"/>
<mask id="mask2_15027_156011" style="mask-type:luminance" maskUnits="userSpaceOnUse" x="270" y="143" width="34" height="56">
<path d="M301.178 143.285C301.89 143.285 302.566 143.597 303.028 144.139C303.49 144.68 303.691 145.396 303.578 146.1C301.783 157.286 295.249 198.001 295.249 198.001H279.717C279.717 198.001 272.497 157.383 270.498 146.14C270.372 145.432 270.567 144.705 271.028 144.154C271.491 143.603 272.173 143.285 272.892 143.285H301.178Z" fill="white"/>
</mask>
<g mask="url(#mask2_15027_156011)">
<path fill-rule="evenodd" clip-rule="evenodd" d="M301.178 143.285C301.89 143.285 302.566 143.597 303.028 144.139C303.49 144.68 303.691 145.396 303.578 146.1C301.783 157.286 295.249 198.001 295.249 198.001H279.717C279.717 198.001 272.497 157.383 270.498 146.14C270.372 145.432 270.567 144.705 271.028 144.154C271.491 143.603 272.173 143.285 272.892 143.285H301.178Z" fill="white"/>
<path d="M305.245 157.861H268.775V160.291H305.245V157.861Z" fill="#EBEBF2"/>
<path d="M305.245 153.004H268.775V155.433H305.245V153.004Z" fill="#EBEBF2"/>
<path d="M305.245 148.145H268.775V150.574H305.245V148.145Z" fill="#EBEBF2"/>
</g>
</g>
<path d="M220.74 93.0165C218.159 91.6202 200.343 82.8633 200.343 82.8633H188.053C188.053 82.8633 173.242 89.7056 170.661 91.1005C168.08 92.4968 172.921 160.738 172.921 160.738L189.307 159.11L196.049 157.746L215.582 152.612C215.582 152.612 221.315 96.9146 218.734 95.5183" fill="#FFC7A1"/>
<path fill-rule="evenodd" clip-rule="evenodd" d="M220.486 166.016L226.041 198.002H167.953V166.016H220.486Z" fill="#21B531"/>
<path d="M187.452 198.002V191.59L183.491 189.447" stroke="#115B19" stroke-width="2.09241" stroke-miterlimit="1.5" stroke-linecap="round" stroke-linejoin="round"/>
<path d="M196.456 90.883L190.45 90.9107C188.165 90.9201 186.304 89.0771 186.295 86.7932L186.24 73.0457C186.23 70.7615 188.075 68.9019 190.36 68.8912L196.367 68.8635C198.652 68.8542 200.512 70.6971 200.521 72.981L200.577 86.7288C200.586 89.0127 198.741 90.8723 196.456 90.883Z" fill="#FFC7A1"/>
<path d="M200.52 72.9821C200.511 70.6978 198.651 68.8551 196.366 68.8644L190.359 68.8922C188.074 68.9029 186.228 70.7622 186.237 73.0466L186.272 81.5223C191.245 83.1044 196.665 82.2186 200.551 80.5006L200.52 72.9821Z" fill="#EA989D"/>
<path d="M171.074 119.425C167.83 110.039 161.308 116.22 160.771 116.819C157.913 120.006 154.692 132.009 151.881 147.666C151.881 147.666 149.957 156.67 164.4 149.986C164.4 149.986 172.456 123.426 171.074 119.425Z" fill="#FFC7A1"/>
<path d="M172.893 91.6991C172.893 91.6991 166.229 92.705 164.32 94.2318C157.573 99.6311 150.323 130.278 150.323 130.278C150.323 130.278 160.036 137.054 169.619 135.503L177.152 112.342C177.152 112.342 179.698 94.9422 172.893 91.6991Z" fill="#0049CD"/>
<path d="M185.794 83.0957C185.794 83.0957 190.371 88.8684 191.118 95.5494L189.508 135.581L186.869 181.211C186.869 181.211 163.909 180.101 164.743 172.414C166.273 158.323 168.475 150.865 167.628 138.523C165.746 111.096 166.379 93.1703 166.379 93.1703C166.379 93.1703 169.025 89.6789 183.802 84.4451" fill="#0049CD"/>
<path d="M166.379 159.968C166.771 151.558 168.33 144.351 168.011 138.559C167.575 130.63 167.444 117.908 168.878 108.943" stroke="#00338F" stroke-width="1.99713" stroke-miterlimit="2" stroke-linecap="round" stroke-linejoin="bevel"/>
<path d="M201.549 81.7676C201.549 81.7676 190.956 95.2427 191.118 95.1614L186.405 154.178C186.405 154.178 186.216 181.102 186.868 181.21C206.658 184.451 226.04 177.607 226.04 177.607C226.04 177.607 221.675 151.415 221.249 142.633C219.916 115.233 223.139 88.4969 223.139 88.4969C223.139 88.4969 216.218 83.2879 206.267 82.4485" fill="#0049CD"/>
<path d="M191.119 95.9707C191.119 95.9707 188.101 114.486 187.873 123.175C187.584 134.214 186.389 177.656 186.389 177.656" stroke="#00338F" stroke-width="1.99943" stroke-miterlimit="1.5" stroke-linecap="round" stroke-linejoin="round"/>
<path d="M184.759 83.0957C184.759 83.0957 179.682 87.3688 180.882 99.6693C180.882 99.6693 185.078 92.9478 186.785 92.4265C188.491 91.905 190.041 94.1369 191.118 96.5409" stroke="#00338F" stroke-width="1.99944" stroke-miterlimit="1.5" stroke-linecap="round" stroke-linejoin="round"/>
<path d="M242.258 138.646C241.269 128.519 230.255 109.928 230.255 109.928C230.255 109.928 215.009 101.575 218.164 119.382L229.482 142.648C229.482 142.648 238.772 145.398 242.258 138.646Z" fill="#FFC7A1"/>
<path d="M221.448 86.5769C225.93 88.5533 227.946 90.3847 229.095 92.1462C230.244 93.9077 241.987 117.312 242.966 119.652C243.945 121.991 232.621 133.763 220.851 129.083L212.377 106.33C212.377 106.33 209.959 81.5119 221.448 86.5769Z" fill="#0049CD"/>
<path d="M241.542 122.817C238.191 126.892 229.646 132.58 220.852 129.083L212.913 111.234" stroke="#00338F" stroke-width="1.99772" stroke-miterlimit="2" stroke-linecap="round" stroke-linejoin="round"/>
<path d="M201.934 81.7676C201.934 81.7676 206.198 87.368 203.291 99.6688C203.291 99.6688 198.076 94.2058 195.864 93.2579C193.782 92.3654 192.266 94.495 191.118 96.6348" stroke="#00338F" stroke-width="1.99944" stroke-miterlimit="1.5" stroke-linecap="round" stroke-linejoin="round"/>
<path fill-rule="evenodd" clip-rule="evenodd" d="M193.437 99.6684L194.006 136.356L187.673 143.466L182.962 136.356L187.841 99.0996L193.437 99.6684Z" fill="#21B531"/>
<path d="M193.437 99.6699L194.006 136.357L187.744 143.467" stroke="white" stroke-width="1.33218" stroke-miterlimit="1.5" stroke-linecap="round" stroke-linejoin="round"/>
<path fill-rule="evenodd" clip-rule="evenodd" d="M193.436 99.6692C192.581 100.694 188.567 100.288 187.841 99.3848C186.895 98.2071 186.815 92.9159 186.89 93.4124C186.89 93.4124 190.845 91.8937 195.713 94.2656C195.713 94.2656 195.122 97.6494 193.436 99.6692Z" fill="#21B531"/>
<path d="M195.429 95.1191C195.429 95.1191 195.122 97.6497 193.436 99.6695C193.04 100.144 191.966 100.312 190.855 100.266" stroke="white" stroke-width="1.33218" stroke-miterlimit="1.5" stroke-linecap="round" stroke-linejoin="round"/>
<path d="M213.133 42.2817C213.133 42.2817 211.447 37.3782 209.002 34.4052C211.476 34.4806 213.623 33.8425 213.623 33.8425C208.505 32.7846 205.027 31.0962 202.763 29.7909C202.054 29.3218 198.264 27.4255 198.264 27.4255L198.271 27.4339C196.002 26.2419 195.525 25.2039 192.505 24.6811C186.456 23.6332 181.471 28.6996 181.471 28.6996C181.471 28.6996 176.406 28.2952 175.466 28.9088C175.016 29.2018 171.863 31.8314 169.853 35.4434L169.853 35.441C169.853 35.441 166.237 41.3724 164.056 42.6561C164.056 42.6561 165.616 42.644 167.212 42.2625C166.311 45.7986 167.174 50.1997 167.37 55.7733C167.568 61.4351 176.475 67.7946 176.475 67.7946L205.377 66.1633C205.377 66.1633 216.801 55.0322 213.133 42.2817Z" fill="#12161C"/>
<path d="M201.005 39.5111L176.349 41.145L171.712 47.0809C169.746 52.1763 170.999 57.9816 172.683 63.2732C174.024 67.4835 174.084 72.7136 178.027 74.4604C187.732 78.7611 196.991 76.4797 200.984 71.7626C202.231 70.2889 203.899 68.3106 204.69 66.5108C206.171 63.7219 206.588 59.2152 206.7 57.2998C207.151 50.8506 205.404 44.0949 201.005 39.5111Z" fill="#FFC7A1"/>
<path d="M202.605 58.2096C202.462 54.1483 206.455 51.9767 208.149 52.4031C211.968 53.3633 213.72 56.3575 212.972 59.6443C212.187 63.0855 208.596 65.2323 205.198 64.2803C204.335 64.0391 202.665 59.9408 202.605 58.2096Z" fill="#FFC7A1"/>
<path d="M202.623 58.7333C202.332 58.7434 202.088 58.5156 202.078 58.2249C201.984 55.5393 203.519 53.8877 204.441 53.1429C205.694 52.1317 207.236 51.629 208.278 51.8912C208.559 51.9622 208.731 52.2485 208.66 52.5295C208.589 52.8118 208.304 52.9835 208.02 52.9125C207.408 52.7585 206.21 53.0689 205.105 53.9618C204.334 54.5831 203.054 55.9597 203.132 58.1882C203.142 58.4789 202.914 58.7231 202.623 58.7333Z" fill="#EA989D" stroke="#EA989D" stroke-width="0.399029" stroke-miterlimit="2" stroke-linejoin="round"/>
<path d="M205.903 57.5358C207.014 55.7235 208.916 54.6756 211.034 54.6396C212.247 54.6185 212.174 56.5021 210.962 56.523C209.513 56.548 208.257 57.303 207.506 58.5297C206.87 59.5648 205.268 58.5721 205.903 57.5358Z" fill="#EA989D"/>
<path d="M187.391 40.7309C188.428 42.3414 192.983 46.8417 192.983 46.8417C192.983 46.8417 196.924 51.5225 202.385 52.9541L202.259 49.3667C202.227 48.4401 202.725 52.0083 205.734 54.2665C205.734 54.2665 207.6 42.8205 205.213 39.4101C201.903 34.6799 191.089 32.1462 187.07 34.6181C185.562 35.545 186.549 39.4232 187.391 40.7309Z" fill="#12161C"/>
<path d="M171.911 46.5585C171.911 46.5585 171.219 53.1564 173.4 57.9293C173.4 57.9293 170.042 57.177 169.947 51.3465C169.947 51.3465 169.495 43.541 171.911 46.5585Z" fill="#12161C"/>
<path d="M179.126 41.2994C179.126 41.2994 178.181 33.798 181.262 32.8873C185.176 31.73 188.242 42.3487 193.724 48.9409C193.724 48.9409 187.731 48.9779 185.994 45.0574C185.994 45.0574 187.642 48.5806 188.127 49.7775C188.127 49.7775 182.723 50.0304 180.942 41.4065L179.126 41.2994Z" fill="#12161C"/>
<path d="M176.107 41.406L179.763 37.3796L180.941 41.408L176.107 41.406Z" fill="#595C60"/>
<path d="M184.077 64.3349C184.077 64.3349 181.533 60.3742 185.9 61.6432" stroke="#12161C" stroke-width="1.33647" stroke-miterlimit="10" stroke-linecap="round"/>
<path d="M189.563 56.2459C189.83 58.1164 190.783 59.6217 191.714 60.4381C192.656 61.2739 193.574 61.42 194.021 61.0417C194.905 60.1918 194.219 57.9461 193.92 55.5826L193.919 55.5774C193.865 55.2786 193.632 55.0427 193.333 54.9892L191.898 54.7359L193.274 53.5641C193.465 53.4009 193.559 53.1482 193.518 52.8991C193.317 51.6559 193.05 50.6719 192.389 50.342C191.85 50.1129 191.016 50.5258 190.366 51.604C189.721 52.6604 189.26 54.3821 189.563 56.2459Z" fill="#12161C"/>
<path d="M175.527 60.0174C175.793 61.8879 176.746 63.3932 177.677 64.2095C178.619 65.0454 179.538 65.1915 179.985 64.8132C180.868 63.9632 180.182 61.7176 179.883 59.3541L179.882 59.3489C179.828 59.05 179.596 58.8142 179.296 58.7607L177.861 58.5074L179.237 57.3356C179.429 57.1724 179.522 56.9197 179.481 56.6705C179.281 55.4273 179.014 54.4434 178.353 54.1135C177.813 53.8843 176.979 54.2972 176.33 55.3755C175.684 56.4319 175.223 58.1536 175.527 60.0174Z" fill="#12161C"/>
<path d="M192.853 71.5072C190.998 71.9534 189.187 71.0419 188.809 69.4713C188.43 67.9008 189.627 66.2659 191.483 65.8197C193.338 65.3734 195.149 66.2849 195.527 67.8555C195.906 69.426 194.708 71.0609 192.853 71.5072Z" fill="white" stroke="#12161C" stroke-width="1.21353" stroke-miterlimit="1.5" stroke-linecap="round" stroke-linejoin="round"/>
<path d="M187.375 49.7414C187.488 49.2572 187.789 48.6967 188.233 48.1541C190.076 45.9 194.388 43.9548 197.95 49.0273" stroke="#12161C" stroke-width="1.33647" stroke-miterlimit="10" stroke-linecap="round"/>
<path d="M170.34 54.0195C170.34 54.0195 175.104 53.8825 178.732 50.3711" stroke="#12161C" stroke-width="1.29856" stroke-miterlimit="1.5" stroke-linecap="round" stroke-linejoin="round"/>
<path fill-rule="evenodd" clip-rule="evenodd" d="M169.217 79.6698L179.868 147.583C180.386 150.89 178.121 153.995 174.813 154.512L126.853 162.007C123.544 162.524 120.437 160.259 119.918 156.952L109.268 89.0392C108.749 85.732 111.014 82.6271 114.323 82.1099L162.283 74.6145C165.592 74.0973 168.699 76.3627 169.217 79.6698Z" fill="#FFB35C"/>
<path fill-rule="evenodd" clip-rule="evenodd" d="M164.825 84.2973L174.245 144.369C174.678 147.126 172.79 149.713 170.033 150.144L130.067 156.39C127.31 156.821 124.72 154.933 124.288 152.177L114.867 92.1051C114.435 89.3488 116.323 86.7615 119.08 86.3305L159.046 80.0843C161.803 79.6534 164.392 81.541 164.825 84.2973Z" fill="white"/>
<path fill-rule="evenodd" clip-rule="evenodd" d="M160.035 87.5669L161.835 99.0361C162.048 100.392 161.119 101.666 159.763 101.878L125.075 107.299C123.718 107.511 122.444 106.582 122.231 105.226L120.432 93.7565C120.219 92.4004 121.148 91.1267 122.504 90.9147L157.192 85.4934C158.548 85.2813 159.823 86.2107 160.035 87.5669Z" fill="#FDEFEF"/>
<path fill-rule="evenodd" clip-rule="evenodd" d="M160.676 87.4678L162.476 98.9368C162.744 100.646 161.573 102.252 159.863 102.519L125.176 107.94C123.465 108.208 121.859 107.036 121.591 105.327L119.791 93.8577C119.523 92.148 120.693 90.5428 122.404 90.2754L157.091 84.8542C158.802 84.5869 160.408 85.7582 160.676 87.4678ZM160.035 87.568C159.823 86.2118 158.548 85.2825 157.192 85.4945L122.504 90.9157C121.148 91.1277 120.219 92.4014 120.432 93.7575L122.231 105.227C122.444 106.583 123.718 107.512 125.075 107.3L159.763 101.879C161.119 101.667 162.048 100.393 161.835 99.037L160.035 87.568Z" fill="#EB5757"/>
<path fill-rule="evenodd" clip-rule="evenodd" d="M157.648 90.0404C157.73 90.568 157.369 91.0637 156.841 91.1462L136.901 94.2648C136.373 94.3473 135.878 93.9857 135.795 93.4582C135.712 92.9303 136.074 92.4349 136.601 92.3524L156.542 89.2338C157.069 89.1513 157.565 89.5125 157.648 90.0404Z" fill="#EB5757"/>
<path fill-rule="evenodd" clip-rule="evenodd" d="M153.186 94.5118C153.269 95.0393 152.908 95.535 152.38 95.6175L137.478 97.948C136.95 98.0304 136.455 97.6688 136.372 97.1412C136.289 96.6134 136.65 96.1181 137.178 96.0356L152.08 93.7052C152.608 93.6226 153.103 93.9839 153.186 94.5118Z" fill="#EB5757"/>
<path d="M129.591 103.109C126.951 103.521 124.476 101.716 124.062 99.0775C123.648 96.4387 125.452 93.9653 128.091 93.5529C130.731 93.1405 133.206 94.9453 133.62 97.584C134.034 100.223 132.23 102.696 129.591 103.109Z" fill="#EB5757"/>
<path d="M127 97.2417L130.83 99.2624" stroke="white" stroke-linecap="round"/>
<path d="M127.81 100.001L130.021 96.5015" stroke="white" stroke-linecap="round"/>
<path fill-rule="evenodd" clip-rule="evenodd" d="M153.764 98.1998C153.847 98.7273 153.486 99.223 152.957 99.3055L138.055 101.636C137.528 101.718 137.032 101.357 136.95 100.829C136.867 100.301 137.228 99.8061 137.755 99.7236L152.658 97.3932C153.186 97.3106 153.681 97.6719 153.764 98.1998Z" fill="#EB5757"/>
<path fill-rule="evenodd" clip-rule="evenodd" d="M163.456 109.413L165.255 120.882C165.468 122.238 164.54 123.512 163.183 123.724L128.495 129.145C127.139 129.357 125.864 128.428 125.652 127.071L123.852 115.602C123.639 114.246 124.568 112.972 125.925 112.76L160.612 107.339C161.969 107.127 163.243 108.056 163.456 109.413Z" fill="#E9F8EA"/>
<path fill-rule="evenodd" clip-rule="evenodd" d="M164.097 109.314L165.896 120.783C166.164 122.492 164.994 124.097 163.283 124.365L128.596 129.786C126.885 130.053 125.279 128.882 125.011 127.172L123.211 115.703C122.943 113.994 124.114 112.388 125.824 112.121L160.512 106.7C162.222 106.433 163.828 107.604 164.097 109.314ZM163.456 109.414C163.243 108.058 161.969 107.128 160.612 107.34L125.925 112.761C124.568 112.973 123.64 114.247 123.852 115.603L125.652 127.072C125.865 128.428 127.139 129.358 128.495 129.146L163.183 123.724C164.54 123.512 165.468 122.239 165.255 120.883L163.456 109.414Z" fill="#21B531"/>
<path d="M133.011 124.943C130.372 125.356 127.897 123.551 127.483 120.912C127.069 118.273 128.872 115.8 131.512 115.387C134.151 114.975 136.626 116.78 137.041 119.418C137.455 122.057 135.651 124.531 133.011 124.943Z" fill="#21B531"/>
<path d="M130.165 120.893L131.924 122.519L134.281 118.344" stroke="white" stroke-width="1.04947" stroke-miterlimit="1.5" stroke-linecap="round" stroke-linejoin="round"/>
<path fill-rule="evenodd" clip-rule="evenodd" d="M161.067 111.884C161.15 112.411 160.789 112.907 160.261 112.989L140.321 116.108C139.793 116.191 139.297 115.829 139.215 115.301C139.132 114.774 139.493 114.278 140.021 114.196L159.961 111.077C160.489 110.995 160.984 111.356 161.067 111.884Z" fill="#21B531"/>
<path fill-rule="evenodd" clip-rule="evenodd" d="M156.607 116.36C156.689 116.887 156.328 117.383 155.8 117.466L140.898 119.796C140.371 119.879 139.875 119.517 139.792 118.989C139.709 118.462 140.071 117.966 140.598 117.884L155.5 115.553C156.028 115.471 156.524 115.832 156.607 116.36Z" fill="#21B531"/>
<path fill-rule="evenodd" clip-rule="evenodd" d="M157.184 120.045C157.267 120.573 156.906 121.069 156.378 121.151L141.476 123.482C140.948 123.564 140.453 123.202 140.37 122.675C140.287 122.147 140.648 121.652 141.176 121.569L156.078 119.239C156.606 119.156 157.102 119.518 157.184 120.045Z" fill="#21B531"/>
<path fill-rule="evenodd" clip-rule="evenodd" d="M166.878 131.249L168.677 142.718C168.89 144.074 167.962 145.348 166.605 145.56L131.917 150.981C130.561 151.193 129.286 150.263 129.074 148.907L127.274 137.438C127.061 136.082 127.99 134.808 129.346 134.596L164.034 129.175C165.391 128.963 166.665 129.892 166.878 131.249Z" fill="#E9F8EA"/>
<path fill-rule="evenodd" clip-rule="evenodd" d="M167.519 131.149L169.318 142.618C169.586 144.328 168.416 145.933 166.705 146.201L132.018 151.622C130.307 151.889 128.701 150.718 128.433 149.008L126.633 137.539C126.365 135.83 127.536 134.224 129.246 133.957L163.934 128.536C165.644 128.269 167.25 129.44 167.519 131.149ZM166.878 131.25C166.665 129.893 165.391 128.964 164.034 129.176L129.347 134.597C127.99 134.809 127.061 136.083 127.274 137.439L129.074 148.908C129.286 150.264 130.561 151.194 131.917 150.982L166.605 145.56C167.961 145.348 168.89 144.075 168.677 142.719L166.878 131.25Z" fill="#21B531"/>
<path d="M136.433 146.779C133.794 147.191 131.319 145.387 130.905 142.748C130.49 140.109 132.294 137.636 134.934 137.223C137.573 136.811 140.048 138.616 140.462 141.254C140.877 143.893 139.073 146.367 136.433 146.779Z" fill="#21B531"/>
<path d="M133.587 142.729L135.346 144.355L137.703 140.18" stroke="white" stroke-width="1.04947" stroke-miterlimit="1.5" stroke-linecap="round" stroke-linejoin="round"/>
<path fill-rule="evenodd" clip-rule="evenodd" d="M164.489 133.72C164.572 134.247 164.21 134.743 163.683 134.825L143.743 137.944C143.215 138.027 142.719 137.665 142.636 137.137C142.554 136.609 142.915 136.114 143.443 136.032L163.383 132.913C163.911 132.83 164.406 133.192 164.489 133.72Z" fill="#21B531"/>
<path fill-rule="evenodd" clip-rule="evenodd" d="M160.029 138.196C160.111 138.723 159.75 139.219 159.222 139.302L144.32 141.632C143.792 141.715 143.297 141.353 143.214 140.825C143.131 140.297 143.493 139.802 144.02 139.72L158.922 137.389C159.45 137.307 159.946 137.668 160.029 138.196Z" fill="#21B531"/>
<path fill-rule="evenodd" clip-rule="evenodd" d="M160.606 141.881C160.689 142.409 160.328 142.905 159.8 142.987L144.897 145.318C144.37 145.4 143.875 145.038 143.792 144.511C143.709 143.983 144.07 143.488 144.598 143.405L159.5 141.075C160.028 140.992 160.523 141.354 160.606 141.881Z" fill="#21B531"/>
<path d="M157.983 73.2452L118.009 79.4961L118.635 83.4929L158.61 77.2421L157.983 73.2452Z" fill="#FF9246"/>
<path d="M115.97 117.201C116.249 118.402 114.967 119.727 113.106 120.159C111.245 120.592 109.51 119.968 109.229 118.769C108.95 117.566 110.232 116.242 112.093 115.808C113.954 115.377 115.69 115.999 115.97 117.201Z" fill="#FFC7A1"/>
<path d="M109.229 118.767C108.949 117.566 110.231 116.241 112.092 115.808C113.954 115.375 115.69 115.998 115.97 117.2C116.25 118.401 114.968 119.726 113.106 120.159C111.245 120.592 109.509 119.969 109.229 118.767Z" stroke="#EA989D" stroke-width="1.32979" stroke-miterlimit="10"/>
<path d="M116.844 122.803C117.122 124.004 115.84 125.329 113.98 125.76C112.118 126.193 110.384 125.569 110.103 124.37C109.824 123.168 111.106 121.844 112.967 121.41C114.828 120.978 116.563 121.6 116.844 122.803Z" fill="#FFC7A1"/>
<path d="M110.102 124.369C109.822 123.168 111.104 121.843 112.966 121.41C114.827 120.977 116.563 121.6 116.843 122.801C117.123 124.003 115.841 125.327 113.98 125.76C112.118 126.193 110.382 125.57 110.102 124.369Z" stroke="#EA989D" stroke-width="1.32979" stroke-miterlimit="10"/>
<path d="M118.622 126.922C118.901 128.123 117.619 129.448 115.759 129.879C113.897 130.312 112.162 129.689 111.882 128.489C111.603 127.287 112.885 125.963 114.746 125.529C116.607 125.097 118.342 125.72 118.622 126.922Z" fill="#FFC7A1"/>
<path d="M111.881 128.488C111.601 127.287 112.883 125.962 114.745 125.529C116.606 125.096 118.342 125.719 118.622 126.921C118.902 128.122 117.62 129.447 115.759 129.879C113.897 130.312 112.161 129.689 111.881 128.488Z" stroke="#EA989D" stroke-width="1.32979" stroke-miterlimit="10"/>
<path d="M119.623 132.659C119.902 133.86 118.62 135.185 116.76 135.618C114.898 136.049 113.163 135.426 112.882 134.226C112.603 133.024 113.885 131.7 115.747 131.266C117.607 130.834 119.343 131.457 119.623 132.659Z" fill="#FFC7A1"/>
<path d="M112.882 134.226C112.602 133.025 113.884 131.7 115.746 131.267C117.607 130.834 119.343 131.457 119.623 132.659C119.903 133.86 118.621 135.185 116.76 135.618C114.898 136.051 113.162 135.428 112.882 134.226Z" stroke="#EA989D" stroke-width="1.32979" stroke-miterlimit="10"/>
<path d="M235.838 130.274C235.838 130.274 239.924 132.179 240.178 133.135C240.213 133.276 241.939 135.552 241.978 135.707C242.004 135.822 242.031 135.936 242.055 136.056C242.106 136.272 242.154 136.502 242.206 136.747C242.693 139.055 242.742 140.881 241.35 142.786C240.068 144.545 238.048 145.653 235.95 146.223C231.729 147.37 227.431 147.02 223.246 145.999C217.981 144.712 212.839 142.956 207.728 141.158C203.218 139.572 197.79 137.827 193.305 136.17C190.292 135.057 186.016 134.888 185.464 131.131C185.414 130.773 185.401 130.397 185.542 130.066C185.695 129.706 186.001 129.442 186.312 129.207C187.552 128.267 189.003 127.772 190.474 127.317C191.72 126.927 193.384 125.872 194.62 125.737C196.293 125.561 198.023 126.573 199.59 126.999C203.706 128.119 207.825 128.672 212.004 128.904C214.208 129.026 216.43 129.064 218.673 129.045C222.509 129.011 226.358 128.937 230.18 129.313C231.799 129.474 233.412 129.713 234.998 130.072C235.278 130.137 235.558 130.203 235.838 130.274Z" fill="#FFC7A1"/>
<path d="M230.495 129.19C230.495 129.19 208.129 129.806 200.731 127.275" stroke="#EA989D" stroke-width="2.00143" stroke-miterlimit="1.5" stroke-linecap="round" stroke-linejoin="round"/>
<path d="M181.23 126.814C179.204 126.363 177.465 125.337 176.037 123.876C174.635 122.442 172.695 121.57 171.227 120.154C170.037 119.004 168.133 117.287 168.11 115.5C168.082 113.386 170.124 114.371 171.081 115.089C172.816 116.391 174.53 118.008 176.442 119.006C177.872 119.752 179.347 120.408 180.859 120.97C182.157 121.453 183.719 121.616 184.901 122.337C185.659 122.801 186.267 123.615 186.23 124.503C186.194 125.347 185.582 126.084 184.841 126.491C183.757 127.086 182.436 127.082 181.23 126.814Z" fill="#FFC7A1"/>
<path d="M184.406 124.976C182.38 124.525 180.641 123.499 179.213 122.038C177.811 120.604 175.872 119.733 174.404 118.316C173.213 117.166 171.31 115.449 171.286 113.663C171.258 111.548 173.301 112.534 174.258 113.251C175.993 114.554 177.706 116.17 179.619 117.168C181.048 117.914 182.524 118.571 184.035 119.132C185.334 119.615 186.896 119.778 188.077 120.499C188.836 120.963 189.443 121.777 189.406 122.665C189.371 123.509 188.758 124.246 188.017 124.653C186.934 125.248 185.612 125.244 184.406 124.976Z" fill="#FFC7A1"/>
<path d="M177.722 126.16C176.919 127.17 175.498 127.55 174.744 128.597C174.586 128.817 174.458 129.076 174.467 129.346C174.508 130.514 178.298 131.529 179.216 131.908C181.103 132.685 183.012 133.407 184.941 134.074C187.78 135.055 192.551 137.294 195.215 134.861C195.95 134.189 196.299 133.175 196.366 132.181C196.464 130.712 196.171 128.776 195.25 127.574C194.924 127.148 194.488 126.822 194.058 126.502C192.13 125.066 190.085 124.073 188.505 122.278C188.411 122.171 188.314 122.062 188.187 121.996C187.987 121.892 187.749 121.913 187.524 121.932C184.394 122.197 181.712 121.12 178.685 120.802C176.827 120.607 174.555 122.293 175.823 124.155C176.304 124.86 176.946 125.455 177.685 125.882L177.722 126.16Z" fill="#FFC7A1"/>
<path d="M184.784 121.722C186.203 121.054 187.395 119.368 186.476 117.88C186.083 117.244 185.582 116.713 185.053 116.192C184.299 115.45 183.618 114.591 183.532 113.479C183.492 112.959 183.785 111.494 184.582 111.774C184.84 111.864 185.022 112.088 185.193 112.3C186.391 113.785 188.217 114.904 189.967 115.626C192.012 116.469 193.198 117.936 194.009 119.957C194.5 121.182 194.825 122.464 195.215 123.723C195.408 124.347 195.617 124.97 195.846 125.579C196.038 126.092 196.445 126.448 196.685 126.947C196.901 127.394 196.981 127.933 196.783 128.39C196.591 128.833 196.166 129.136 195.717 129.313C194.587 129.757 193.314 129.505 192.138 129.202C190.111 128.682 188.101 128.024 186.283 126.987C185.257 126.4 184.084 125.663 183.361 124.706C182.859 124.041 181.963 122.808 182.922 122.172C183.499 121.79 184.157 122.018 184.784 121.722Z" fill="#FFC7A1"/>
<path d="M186.13 127.912C186.332 128.158 186.505 128.446 186.528 128.764C186.566 129.287 186.19 129.755 185.764 130.063C182.993 132.069 177.677 130.971 174.77 129.885C173.506 129.413 172.217 128.817 171.13 128.013C170.623 127.637 170.052 127.184 169.828 126.569C169.389 125.36 170.237 125.04 171.255 125.492C173.671 126.564 176.3 127.071 178.941 127.01C181.3 126.954 184.328 125.716 186.13 127.912Z" fill="#FFC7A1"/>
<path d="M172.812 124.032C171.568 123.116 170.403 122.091 169.355 120.955C168.696 120.24 166.938 118.714 167.379 117.599C168.159 115.631 171.537 118.541 172.329 119.194C173.885 120.476 175.617 121.54 177.465 122.345C179.236 123.118 181.188 123.406 182.903 124.291C183.793 124.751 184.695 125.452 184.827 126.447C184.868 126.761 184.827 127.082 184.766 127.393C184.698 127.735 184.593 128.094 184.33 128.325C184.126 128.504 183.853 128.581 183.585 128.631C181.687 128.984 179.967 127.981 178.298 127.216C176.373 126.335 174.519 125.288 172.812 124.032Z" fill="#FFC7A1"/>
<path d="M180.249 127.956C180.249 127.956 179.163 127.658 176.774 127.037C175.212 126.631 173.062 125.829 171.762 125.322" stroke="#EA989D" stroke-width="1.3318" stroke-miterlimit="1.5" stroke-linecap="round" stroke-linejoin="round"/>
<path d="M180.357 123.677C179.292 123.381 178.242 123.019 177.239 122.6C175.23 121.762 173.718 120.912 172.482 119.924C172.269 119.755 172.059 119.581 171.849 119.409C171.435 119.068 171.008 118.715 170.57 118.398C170.048 118.021 169.349 117.565 168.575 117.39" stroke="#EA989D" stroke-width="1.33182" stroke-miterlimit="2" stroke-linecap="round" stroke-linejoin="round"/>
<path d="M183.534 121.839C182.469 121.543 181.419 121.181 180.416 120.762C178.406 119.924 176.895 119.074 175.658 118.086C175.446 117.917 175.235 117.744 175.026 117.571C174.612 117.23 174.184 116.878 173.746 116.56C173.225 116.183 172.526 115.727 171.752 115.552" stroke="#EA989D" stroke-width="1.33182" stroke-miterlimit="2" stroke-linecap="round" stroke-linejoin="round"/>
<path d="M96.158 93.2473L84.3703 90.6832L89.0657 79.9666L99.3695 85.5963L96.158 93.2473Z" fill="#EB5757"/>
<path d="M105.636 76.4664L88.9267 56.951L106.89 46.8163L116.533 69.3106L105.636 76.4664Z" fill="#EB5757"/>
<path d="M126.52 67.8993L131.102 56.7011L140.284 59.8239L133.693 71.6711L126.52 67.8993Z" fill="#EB5757"/>
</g>
</g>
<defs>
<clipPath id="clip0_15027_156011">
<rect width="310" height="198" fill="white" transform="translate(21)"/>
</clipPath>
</defs>
</svg>
