<svg width="88" height="46" viewBox="0 0 88 46" fill="none" xmlns="http://www.w3.org/2000/svg">
<path fill-rule="evenodd" clip-rule="evenodd" d="M36 0V35H28V13.732L22.418 23.3997L17.964 23.2017L13.51 23.3997L8 13.8567V35H0V0H9.238L17.964 15.1145L26.691 0H36Z" fill="#12161C"/>
<path d="M50 0H42V35H50V0Z" fill="#12161C"/>
<path fill-rule="evenodd" clip-rule="evenodd" d="M45 4L42 18V0H50L45 4Z" fill="#3A7BF6"/>
<path fill-rule="evenodd" clip-rule="evenodd" d="M56 21.9997V0H88V7.99968H64V14H88V35H56V27.0003H80V21.9997H56Z" fill="#12161C"/>
<path d="M36.0352 40.4189C36.3454 40.4189 36.6185 40.4892 36.8535 40.6299C37.0933 40.7657 37.2816 40.9676 37.418 41.2344C37.4305 41.2588 37.4417 41.2841 37.4531 41.3096V40.543H38.1084V43.999C38.1084 44.4743 38.0332 44.8575 37.8828 45.1484C37.7371 45.4443 37.5042 45.6601 37.1846 45.7959C36.8696 45.9317 36.4557 46 35.9434 46C35.7649 46 35.5836 45.9921 35.4004 45.9775C35.2172 45.963 35.0455 45.9442 34.8857 45.9199V45.1992C35.055 45.2235 35.2339 45.2433 35.4219 45.2578C35.6146 45.2772 35.7935 45.2861 35.958 45.2861C36.287 45.2861 36.5506 45.2426 36.748 45.1553C36.9499 45.068 37.0953 44.9322 37.1846 44.748C37.2786 44.5686 37.3262 44.333 37.3262 44.042V43.6855C37.3211 43.6953 37.3168 43.7053 37.3115 43.7148C37.1752 43.9719 36.992 44.1659 36.7617 44.2969C36.5361 44.4278 36.2777 44.4931 35.9863 44.4932C35.7231 44.4932 35.4828 44.4427 35.2666 44.3408C35.0504 44.239 34.8651 44.0954 34.71 43.9111C34.5549 43.7268 34.4352 43.516 34.3506 43.2783C34.266 43.0358 34.2236 42.7785 34.2236 42.5068V42.3691C34.2236 42.0927 34.266 41.8353 34.3506 41.5977C34.4399 41.3602 34.5639 41.154 34.7236 40.9795C34.8835 40.8 35.074 40.6615 35.2949 40.5645C35.5205 40.4675 35.7673 40.419 36.0352 40.4189ZM68.5703 43.6855H68.7217L69.5693 40.543H70.3662L69.167 44.8496C69.0918 45.1211 68.9859 45.342 68.8496 45.5117C68.718 45.6815 68.5486 45.8052 68.3418 45.8828C68.1397 45.9604 67.8951 46 67.6084 46H67.0449V45.25H67.6719C67.8176 45.25 67.9425 45.2312 68.0459 45.1924C68.1493 45.1584 68.234 45.0951 68.2998 45.0029C68.3656 44.9156 68.4196 44.7968 68.4619 44.6465L68.5342 44.377H68.0107L66.7197 40.543H67.5596L68.5703 43.6855ZM31.7607 40.4121C32.1697 40.4121 32.5105 40.5042 32.7832 40.6885C33.0557 40.8727 33.2602 41.1125 33.3965 41.4082C33.5328 41.6992 33.6016 42.015 33.6016 42.3545V42.6963H30.668C30.6828 42.8836 30.7201 43.0558 30.7803 43.2129C30.8602 43.4165 30.9851 43.5789 31.1543 43.7002C31.3235 43.8166 31.5396 43.8749 31.8027 43.875C32.066 43.875 32.2829 43.8166 32.4521 43.7002C32.6212 43.579 32.7241 43.4383 32.7617 43.2783H33.5303C33.4786 43.5451 33.3727 43.7777 33.2129 43.9766C33.0578 44.1754 32.8608 44.3288 32.6211 44.4355C32.3814 44.5422 32.1083 44.5957 31.8027 44.5957C31.4738 44.5957 31.1867 44.5373 30.9424 44.4209C30.6983 44.3046 30.4988 44.1518 30.3438 43.9629C30.1886 43.7689 30.0711 43.5521 29.9912 43.3145C29.9161 43.072 29.8779 42.8244 29.8779 42.5723V42.4346C29.8779 42.1775 29.916 41.9301 29.9912 41.6924C30.0711 41.4499 30.1886 41.2341 30.3438 41.0449C30.4989 40.8509 30.6937 40.6975 30.9287 40.5859C31.1684 40.4696 31.4459 40.4121 31.7607 40.4121ZM53.3252 40.4121C53.6496 40.4121 53.9364 40.4675 54.1855 40.5791C54.4392 40.6906 54.6554 40.8433 54.834 41.0371C55.0126 41.2263 55.147 41.443 55.2363 41.6855C55.3302 41.9279 55.377 42.1777 55.377 42.4346V42.5801C55.3769 42.837 55.3324 43.0867 55.2432 43.3291C55.1539 43.5667 55.0225 43.7806 54.8486 43.9697C54.6748 44.1588 54.4607 44.3113 54.207 44.4277C53.9532 44.5393 53.659 44.5957 53.3252 44.5957C52.9915 44.5957 52.6972 44.5393 52.4434 44.4277C52.1897 44.3114 51.9756 44.1588 51.8018 43.9697C51.6279 43.7806 51.4965 43.5667 51.4072 43.3291C51.318 43.0867 51.2734 42.837 51.2734 42.5801V42.4346C51.2734 42.1776 51.318 41.9279 51.4072 41.6855C51.5012 41.443 51.6356 41.2263 51.8096 41.0371C51.9881 40.8433 52.2043 40.6906 52.458 40.5791C52.7118 40.4676 53.0009 40.4121 53.3252 40.4121ZM64.1914 39C64.5674 39 64.8946 39.0703 65.1719 39.2109C65.4491 39.3467 65.6631 39.5409 65.8135 39.793C65.9686 40.0403 66.0458 40.3364 66.0459 40.6807H65.2139C65.2138 40.5256 65.1758 40.3799 65.1006 40.2441C65.0301 40.1036 64.9198 39.9896 64.7695 39.9023C64.6191 39.8151 64.4264 39.7715 64.1914 39.7715C63.9658 39.7715 63.7774 39.813 63.627 39.8955C63.4814 39.9779 63.3711 40.0849 63.2959 40.2158C63.2208 40.3467 63.1826 40.4874 63.1826 40.6377C63.1827 40.8168 63.2486 40.9767 63.3799 41.1172C63.5114 41.2529 63.7139 41.3331 63.9863 41.3574L64.4941 41.4014C64.8561 41.4305 65.1694 41.5106 65.4326 41.6416C65.7003 41.7676 65.9071 41.9372 66.0527 42.1504C66.2031 42.3638 66.2783 42.6212 66.2783 42.9219C66.2783 43.2517 66.1915 43.5427 66.0176 43.7949C65.8483 44.0472 65.6081 44.2441 65.2979 44.3848C64.9925 44.5252 64.6331 44.5957 64.2197 44.5957C63.7778 44.5957 63.4011 44.5225 63.0908 44.377C62.7855 44.2266 62.5533 44.0226 62.3936 43.7656C62.2337 43.5037 62.1533 43.2077 62.1533 42.8779H62.9854C62.9854 43.0283 63.0256 43.1767 63.1055 43.3223C63.1854 43.4677 63.3147 43.5886 63.4932 43.6855C63.6718 43.7777 63.9142 43.8242 64.2197 43.8242C64.497 43.8242 64.7247 43.7826 64.9033 43.7002C65.0867 43.6177 65.221 43.5089 65.3057 43.373C65.3949 43.2373 65.4395 43.0867 65.4395 42.9219C65.4394 42.7182 65.3548 42.5529 65.1855 42.4268C65.0163 42.2959 64.7622 42.2166 64.4238 42.1875L63.9092 42.1357C63.4347 42.097 63.0564 41.9472 62.7744 41.6855C62.4924 41.4188 62.3507 41.0692 62.3506 40.6377C62.3506 40.3079 62.4257 40.0208 62.5762 39.7783C62.7313 39.5359 62.9483 39.3467 63.2256 39.2109C63.5028 39.0704 63.8249 39 64.1914 39ZM79.5576 40.4121C79.9666 40.4121 80.3074 40.5042 80.5801 40.6885C80.8525 40.8727 81.0571 41.1125 81.1934 41.4082C81.3297 41.6992 81.3975 42.015 81.3975 42.3545V42.6963H78.4648C78.4797 42.8836 78.517 43.0558 78.5771 43.2129C78.6571 43.4166 78.782 43.5789 78.9512 43.7002C79.1204 43.8166 79.3364 43.875 79.5996 43.875C79.8629 43.875 80.0798 43.8166 80.249 43.7002C80.418 43.579 80.521 43.4382 80.5586 43.2783H81.3271C81.2754 43.5451 81.1696 43.7777 81.0098 43.9766C80.8547 44.1754 80.6577 44.3288 80.418 44.4355C80.1782 44.5423 79.9052 44.5957 79.5996 44.5957C79.2706 44.5957 78.9837 44.5373 78.7393 44.4209C78.4951 44.3046 78.2957 44.1518 78.1406 43.9629C77.9855 43.7689 77.868 43.5521 77.7881 43.3145C77.7129 43.072 77.6748 42.8244 77.6748 42.5723V42.4346C77.6748 42.1775 77.7129 41.9301 77.7881 41.6924C77.868 41.4499 77.9855 41.2341 78.1406 41.0449C78.2957 40.851 78.4906 40.6975 78.7256 40.5859C78.9653 40.4696 79.2428 40.4121 79.5576 40.4121ZM72.3955 40.4268C72.8466 40.4268 73.211 40.5308 73.4883 40.7393C73.7655 40.943 73.9086 41.244 73.918 41.6416H73.1641C73.1547 41.4912 73.0859 41.3646 72.959 41.2627C72.8321 41.161 72.6442 41.1104 72.3955 41.1104C72.1606 41.1104 71.9795 41.159 71.8525 41.2559C71.7303 41.3529 71.6689 41.4766 71.6689 41.627C71.669 41.7627 71.7156 41.8697 71.8096 41.9473C71.9036 42.0249 72.057 42.0754 72.2686 42.0996L72.6416 42.1357C73.0693 42.1842 73.4081 42.3081 73.6572 42.5068C73.9111 42.7009 74.0381 42.973 74.0381 43.3223C74.0381 43.5744 73.9702 43.7953 73.834 43.9844C73.6977 44.1734 73.507 44.321 73.2627 44.4277C73.0229 44.5296 72.7425 44.5811 72.4229 44.5811C71.9107 44.581 71.5113 44.4691 71.2246 44.2461C70.9426 44.023 70.7944 43.7151 70.7803 43.3223H71.542C71.5514 43.4677 71.6245 43.6014 71.7607 43.7227C71.8971 43.8437 72.1207 43.9043 72.4307 43.9043C72.6937 43.9042 72.9004 43.8508 73.0508 43.7441C73.2012 43.6374 73.2764 43.5038 73.2764 43.3438C73.2763 43.1984 73.2201 43.0844 73.1074 43.002C72.9993 42.9146 72.8131 42.8563 72.5498 42.8271L72.1768 42.791C71.7868 42.7474 71.4764 42.6284 71.2461 42.4346C71.0204 42.2405 70.9072 41.9783 70.9072 41.6484C70.9073 41.3866 70.9708 41.1657 71.0977 40.9863C71.2245 40.8071 71.3984 40.6692 71.6191 40.5723C71.8448 40.4753 72.104 40.4268 72.3955 40.4268ZM15.9209 40.4922C16.3062 40.4922 16.6261 40.5427 16.8799 40.6445C17.1335 40.7463 17.3212 40.909 17.4434 41.1318C17.5703 41.3501 17.6338 41.6441 17.6338 42.0127V44.4648H16.9785V43.7051C16.9468 43.8094 16.9076 43.905 16.8584 43.9912C16.755 44.1755 16.6089 44.319 16.4209 44.4209C16.2376 44.5178 16.0119 44.5664 15.7441 44.5664C15.4669 44.5664 15.2244 44.5179 15.0176 44.4209C14.8109 44.319 14.6509 44.1735 14.5381 43.9844C14.4253 43.7904 14.3691 43.5597 14.3691 43.293C14.3691 43.0117 14.4327 42.779 14.5596 42.5947C14.6912 42.4104 14.8774 42.2718 15.1172 42.1797C15.3567 42.0877 15.6432 42.042 15.9766 42.042H16.8447V41.9688C16.8447 41.7264 16.7832 41.5421 16.6611 41.416C16.5389 41.2899 16.3578 41.2266 16.1182 41.2266C15.9865 41.2266 15.8405 41.2295 15.6807 41.2344C15.5209 41.2392 15.3631 41.2462 15.208 41.2559C15.0578 41.2607 14.924 41.2677 14.8066 41.2773V40.543C14.9099 40.5333 15.0225 40.5254 15.1445 40.5205C15.2715 40.5108 15.4016 40.5039 15.5332 40.499C15.6694 40.4942 15.7988 40.4922 15.9209 40.4922ZM43.417 40.4922C43.8025 40.4922 44.1221 40.5427 44.376 40.6445C44.6298 40.7464 44.8182 40.9087 44.9404 41.1318C45.0674 41.3501 45.1309 41.6441 45.1309 42.0127V44.4648H44.4746V43.7051C44.4429 43.8094 44.4038 43.905 44.3545 43.9912C44.2511 44.1755 44.1059 44.319 43.918 44.4209C43.7346 44.5179 43.5082 44.5664 43.2402 44.5664C42.9632 44.5664 42.7213 44.5178 42.5146 44.4209C42.3079 44.3191 42.148 44.1734 42.0352 43.9844C41.9223 43.7904 41.8652 43.5598 41.8652 43.293C41.8652 43.0118 41.9289 42.779 42.0557 42.5947C42.1873 42.4104 42.3735 42.2718 42.6133 42.1797C42.853 42.0876 43.14 42.042 43.4736 42.042H44.3408V41.9688C44.3408 41.7263 44.2794 41.5421 44.1572 41.416C44.035 41.2899 43.854 41.2266 43.6143 41.2266C43.4827 41.2266 43.3365 41.2295 43.1768 41.2344C43.0172 41.2392 42.86 41.2462 42.7051 41.2559C42.5546 41.2607 42.4203 41.2676 42.3027 41.2773V40.543C42.4062 40.5333 42.5194 40.5254 42.6416 40.5205C42.7684 40.5108 42.8978 40.5039 43.0293 40.499C43.1656 40.4942 43.2948 40.4922 43.417 40.4922ZM9.64648 40.543H10.8867V41.1758H9.64648V43.1328C9.64648 43.3363 9.69764 43.4939 9.80078 43.6055C9.9089 43.7122 10.0602 43.7656 10.2529 43.7656H10.8867V44.5078H10.3164C10.0016 44.5078 9.73573 44.4642 9.51953 44.377C9.30329 44.2896 9.13821 44.1392 9.02539 43.9258C8.9174 43.7125 8.86332 43.424 8.86328 43.0605V41.1758H8.23535V40.543H8.86328V39.4004H9.64648V40.543ZM28.0322 40.543H29.2734V41.1758H28.0322V43.1328C28.0322 43.3365 28.0841 43.4939 28.1875 43.6055C28.2956 43.7122 28.4459 43.7656 28.6387 43.7656H29.2734V44.5078H28.7021C28.3872 44.5078 28.1215 44.4643 27.9053 44.377C27.689 44.2896 27.524 44.1392 27.4111 43.9258C27.3032 43.7125 27.2491 43.424 27.249 43.0605V41.1758H26.6221V40.543H27.249V39.4004H28.0322V40.543ZM47.1689 40.543H48.4102V41.1758H47.1689V43.1328C47.1689 43.3365 47.2208 43.4939 47.3242 43.6055C47.4323 43.7122 47.5827 43.7656 47.7754 43.7656H48.4102V44.5078H47.8389C47.524 44.5078 47.2582 44.4642 47.042 44.377C46.8257 44.2896 46.6607 44.1392 46.5479 43.9258C46.4399 43.7125 46.3858 43.424 46.3857 43.0605V41.1758H45.7588V40.543H46.3857V39.4004H47.1689V40.543ZM75.8291 40.543H77.0703V41.1758H75.8291V43.1328C75.8291 43.3365 75.881 43.4939 75.9844 43.6055C76.0925 43.7122 76.2428 43.7656 76.4355 43.7656H77.0703V44.5078H76.499C76.1841 44.5078 75.9184 44.4642 75.7021 44.377C75.4859 44.2896 75.3208 44.1392 75.208 43.9258C75.1 43.7125 75.0459 43.424 75.0459 43.0605V41.1758H74.4189V40.543H75.0459V39.4004H75.8291V40.543ZM2.55273 42.5068H2.67285L4.06934 39.1533H5.22559V44.4648H4.38672V40.1475L3.04688 43.373H2.11621L0.776367 40.1807V44.4648H0V39.1533H1.14258L2.55273 42.5068ZM7.52832 44.4648H6.70312V41.1973H6.14551V40.543H7.52832V44.4648ZM13.9668 41.248H13.7129C13.3556 41.248 13.0804 41.348 12.8877 41.5469C12.6997 41.7409 12.6055 42.02 12.6055 42.3838V44.4648H11.7803V40.543H12.4365V41.7471C12.4844 41.3968 12.594 41.1211 12.7676 40.9209C13.0073 40.6396 13.3629 40.499 13.833 40.499H13.9668V41.248ZM21.292 44.4648H20.4453V39.1533H21.292V44.4648ZM24.6016 40.4268C25.0715 40.4268 25.4221 40.5793 25.6523 40.8848C25.8826 41.1903 25.9971 41.6369 25.9971 42.2236V44.4648H25.1729V42.1074C25.1729 41.8358 25.0967 41.6171 24.9463 41.4521C24.7959 41.2826 24.5893 41.1973 24.3262 41.1973C24.0582 41.1973 23.8423 41.2853 23.6777 41.46C23.5133 41.6297 23.4307 41.8574 23.4307 42.1436V44.4648H22.6055V40.543H23.2617V41.4814C23.2817 41.3967 23.3042 41.3164 23.332 41.2412C23.4354 40.9747 23.5903 40.7735 23.7969 40.6377C24.0037 40.497 24.2608 40.4268 24.5664 40.4268H24.6016ZM41.4629 41.248H41.209C40.8518 41.2481 40.5765 41.348 40.3838 41.5469C40.1959 41.7409 40.1016 42.0201 40.1016 42.3838V44.4648H39.2773V40.543H39.9326V41.7471C39.9805 41.3967 40.091 41.1211 40.2646 40.9209C40.5044 40.6398 40.8592 40.499 41.3291 40.499H41.4629V41.248ZM50.3115 44.4648H49.4863V41.1973H48.9297V40.543H50.3115V44.4648ZM58.3154 40.4268C58.7855 40.4268 59.1359 40.5792 59.3662 40.8848C59.5966 41.1904 59.7119 41.6367 59.7119 42.2236V44.4648H58.8867V42.1074C58.8867 41.8358 58.8116 41.6171 58.6611 41.4521C58.5108 41.2825 58.3041 41.1973 58.041 41.1973C57.7731 41.1973 57.5561 41.2853 57.3916 41.46C57.2274 41.6297 57.1455 41.8576 57.1455 42.1436V44.4648H56.3203V40.543H56.9756V41.4814C56.9956 41.3966 57.0191 41.3164 57.0469 41.2412C57.1502 40.9746 57.3051 40.7735 57.5117 40.6377C57.7185 40.4971 57.9748 40.4268 58.2803 40.4268H58.3154ZM84.2129 40.4268C84.509 40.4268 84.7535 40.497 84.9463 40.6377C85.1436 40.7783 85.2898 40.9815 85.3838 41.248C85.3974 41.2849 85.4072 41.3241 85.4189 41.3633C85.4307 41.3242 85.4405 41.2848 85.4541 41.248C85.5528 40.9815 85.7011 40.7783 85.8984 40.6377C86.0959 40.497 86.3404 40.4268 86.6318 40.4268H86.667C86.9631 40.4268 87.2098 40.4971 87.4072 40.6377C87.6045 40.7783 87.7529 40.9815 87.8516 41.248C87.9503 41.5148 88 41.8425 88 42.2305V44.4648H87.1748V42.1074C87.1748 41.8212 87.1039 41.5976 86.9629 41.4375C86.8266 41.2775 86.636 41.1973 86.3916 41.1973C86.1379 41.1973 85.9355 41.2824 85.7852 41.4521C85.6348 41.6171 85.5596 41.8477 85.5596 42.1436V44.4648H84.7275V42.1074C84.7275 41.8212 84.6598 41.5976 84.5234 41.4375C84.3871 41.2775 84.1965 41.1973 83.9521 41.1973C83.6984 41.1973 83.494 41.2825 83.3389 41.4521C83.1884 41.6171 83.1133 41.8477 83.1133 42.1436V44.4648H82.2881V40.543H82.9434V41.4697C82.9615 41.3919 82.9823 41.3176 83.0068 41.248C83.1055 40.9815 83.2518 40.7783 83.4443 40.6377C83.6418 40.497 83.8863 40.4268 84.1777 40.4268H84.2129ZM15.9561 42.6016C15.7069 42.6016 15.5164 42.6649 15.3848 42.791C15.2531 42.9123 15.1875 43.0726 15.1875 43.2715C15.1876 43.4701 15.2533 43.6298 15.3848 43.751C15.5164 43.8674 15.7069 43.9258 15.9561 43.9258C16.1017 43.9258 16.2405 43.899 16.3721 43.8457C16.5035 43.7875 16.6117 43.6933 16.6963 43.5625C16.7856 43.4315 16.8353 43.2465 16.8447 43.0088V42.6016H15.9561ZM43.4521 42.6016C43.203 42.6016 43.0125 42.6649 42.8809 42.791C42.7493 42.9123 42.6836 43.0727 42.6836 43.2715C42.6837 43.4701 42.7495 43.6298 42.8809 43.751C43.0125 43.8674 43.203 43.9258 43.4521 43.9258C43.5979 43.9258 43.7365 43.8991 43.8682 43.8457C43.9997 43.7875 44.1078 43.6933 44.1924 43.5625C44.2817 43.4315 44.3314 43.2465 44.3408 43.0088V42.6016H43.4521ZM53.3252 41.1543C53.0715 41.1543 52.8532 41.2148 52.6699 41.3359C52.4866 41.4524 52.3448 41.6127 52.2461 41.8164C52.1476 42.0199 52.0987 42.2501 52.0986 42.5068C52.0986 42.7591 52.1452 42.9877 52.2393 43.1914C52.3379 43.395 52.4789 43.5575 52.6621 43.6787C52.8454 43.7951 53.0667 43.8535 53.3252 43.8535C53.5837 43.8535 53.8049 43.7951 53.9883 43.6787C54.1715 43.5575 54.3103 43.395 54.4043 43.1914C54.503 42.9877 54.5518 42.7591 54.5518 42.5068C54.5517 42.2501 54.5028 42.0199 54.4043 41.8164C54.3056 41.6128 54.1646 41.4523 53.9814 41.3359C53.7981 41.2147 53.579 41.1543 53.3252 41.1543ZM36.1973 41.125C35.9719 41.1251 35.7724 41.1806 35.5986 41.292C35.4247 41.3987 35.2882 41.5521 35.1895 41.751C35.0955 41.9449 35.0479 42.1728 35.0479 42.4346C35.0479 42.7013 35.0976 42.934 35.1963 43.1328C35.295 43.3268 35.4294 43.4773 35.5986 43.584C35.7725 43.6857 35.9696 43.7373 36.1904 43.7373C36.3973 43.7373 36.5856 43.6908 36.7549 43.5986C36.9287 43.5016 37.0654 43.366 37.1641 43.1914C37.2675 43.0119 37.3184 42.7982 37.3184 42.5508V42.2529C37.3184 42.0104 37.2644 41.8065 37.1562 41.6416C37.0529 41.472 36.9171 41.3432 36.748 41.2559C36.5788 41.1685 36.3947 41.125 36.1973 41.125ZM31.7607 41.1318C31.5164 41.1318 31.312 41.1903 31.1475 41.3066C30.9829 41.4231 30.8602 41.5834 30.7803 41.7871C30.7401 41.8895 30.7104 42.0013 30.6904 42.1221H32.7979C32.7788 41.9801 32.7468 41.8514 32.6982 41.7363C32.6183 41.5423 32.5008 41.3939 32.3457 41.292C32.1906 41.1854 31.9956 41.1318 31.7607 41.1318ZM79.5576 41.1318C79.3133 41.1318 79.1088 41.1903 78.9443 41.3066C78.7798 41.4231 78.6571 41.5834 78.5771 41.7871C78.537 41.8895 78.5073 42.0013 78.4873 42.1221H80.5947C80.5757 41.9801 80.5437 41.8514 80.4951 41.7363C80.4152 41.5423 80.2977 41.3939 80.1426 41.292C79.9875 41.1854 79.7925 41.1319 79.5576 41.1318ZM6.9707 39.0078C7.14464 39.0078 7.27165 39.0563 7.35156 39.1533C7.43606 39.2454 7.47844 39.3615 7.47852 39.502C7.47852 39.6474 7.43608 39.7663 7.35156 39.8584C7.27165 39.9506 7.14464 39.9971 6.9707 39.9971C6.80158 39.997 6.67442 39.9505 6.58984 39.8584C6.51015 39.7663 6.4707 39.6473 6.4707 39.502C6.47077 39.3616 6.51016 39.2454 6.58984 39.1533C6.67442 39.0563 6.80158 39.0079 6.9707 39.0078ZM49.7549 39.0078C49.9286 39.0079 50.0559 39.0564 50.1357 39.1533C50.2201 39.2453 50.2626 39.3616 50.2627 39.502C50.2627 39.6472 50.2201 39.7663 50.1357 39.8584C50.0559 39.9505 49.9286 39.997 49.7549 39.9971C49.5856 39.9971 49.4586 39.9506 49.374 39.8584C49.2942 39.7663 49.2539 39.6474 49.2539 39.502C49.254 39.3615 49.2942 39.2454 49.374 39.1533C49.4586 39.0563 49.5856 39.0078 49.7549 39.0078Z" fill="#888A8D"/>
</svg>
