<svg width="352" height="198" viewBox="0 0 352 198" fill="none" xmlns="http://www.w3.org/2000/svg">
<g clip-path="url(#clip0_15038_54835)">
<mask id="mask0_15038_54835" style="mask-type:luminance" maskUnits="userSpaceOnUse" x="21" y="0" width="310" height="198">
<path d="M331 0H21V198H331V0Z" fill="white"/>
</mask>
<g mask="url(#mask0_15038_54835)">
<path d="M38.4562 24.3337C43.4757 17.2579 47.7754 12.1661 70.1378 8.70411C105.562 3.21757 258.068 3.46052 286.477 10.3541C302.888 14.3425 318.571 14.9296 320.241 43.8706C321.556 66.5861 323.993 128.274 318.158 142.345C312.323 156.416 307.735 170.476 280.641 171.721C253.547 172.966 101.407 175.861 76.3954 174.616C51.3841 173.371 38.4658 162.621 33.4655 150.2C28.4651 137.79 30.5478 71.1717 30.5478 71.1717C30.5478 71.1717 30.5958 35.4282 38.4658 24.3236L38.4562 24.3337Z" fill="#EBEBF2"/>
<mask id="mask1_15038_54835" style="mask-type:luminance" maskUnits="userSpaceOnUse" x="30" y="4" width="292" height="171">
<path d="M38.4562 24.3337C43.4757 17.2579 47.7754 12.1661 70.1378 8.70411C105.562 3.21757 258.068 3.46052 286.477 10.3541C302.888 14.3425 318.571 14.9296 320.241 43.8706C321.556 66.5861 323.993 128.274 318.158 142.345C312.323 156.416 307.735 170.476 280.641 171.721C253.547 172.966 101.407 175.861 76.3954 174.616C51.3841 173.371 38.4658 162.621 33.4655 150.2C28.4651 137.79 30.5478 71.1717 30.5478 71.1717C30.5478 71.1717 30.5958 35.4282 38.4658 24.3236L38.4562 24.3337Z" fill="white"/>
</mask>
<g mask="url(#mask1_15038_54835)">
<path d="M30.1174 -6.69336H248.942V126.926H30.1174V-6.69336Z" stroke="white" stroke-width="1.33277" stroke-miterlimit="10" stroke-linecap="round" stroke-linejoin="round"/>
<path d="M30.1177 19.8477H248.942" stroke="white" stroke-width="1.33277" stroke-miterlimit="10" stroke-linecap="round" stroke-linejoin="round"/>
<path d="M30.1177 42.2793H248.942" stroke="white" stroke-width="1.33277" stroke-miterlimit="10" stroke-linecap="round" stroke-linejoin="round"/>
<path d="M30.1177 64.7109H248.942" stroke="white" stroke-width="1.33277" stroke-miterlimit="10" stroke-linecap="round" stroke-linejoin="round"/>
<path d="M30.1177 87.1445H248.942" stroke="white" stroke-width="1.33277" stroke-miterlimit="10" stroke-linecap="round" stroke-linejoin="round"/>
<path d="M30.1177 109.576H248.942" stroke="white" stroke-width="1.33277" stroke-miterlimit="10" stroke-linecap="round" stroke-linejoin="round"/>
<path d="M72.7534 20.1953V109.676" stroke="white" stroke-width="1.33277" stroke-miterlimit="10" stroke-linecap="round" stroke-linejoin="round"/>
<path d="M102.523 20.1953V109.676" stroke="white" stroke-width="1.33277" stroke-miterlimit="10" stroke-linecap="round" stroke-linejoin="round"/>
<path d="M132.292 20.1953V109.676" stroke="white" stroke-width="1.33277" stroke-miterlimit="10" stroke-linecap="round" stroke-linejoin="round"/>
<path d="M162.062 20.1953V109.676" stroke="white" stroke-width="1.33277" stroke-miterlimit="10" stroke-linecap="round" stroke-linejoin="round"/>
<path d="M191.831 20.1953V109.676" stroke="white" stroke-width="1.33277" stroke-miterlimit="10" stroke-linecap="round" stroke-linejoin="round"/>
<path fill-rule="evenodd" clip-rule="evenodd" d="M78.3701 126.785C78.3701 128.054 79.4009 129.084 80.6705 129.084H198.389C199.658 129.084 200.689 128.054 200.689 126.785C200.689 125.516 199.658 124.486 198.389 124.486H80.6705C79.4009 124.486 78.3701 125.516 78.3701 126.785Z" fill="white"/>
<path d="M38.3487 94.7964C38.3487 93.4025 39.4798 92.2726 40.875 92.2726C42.2703 92.2726 43.4014 93.4025 43.4014 94.7964C43.4014 96.1903 42.2703 97.3203 40.875 97.3203C39.4798 97.3203 38.3487 96.1903 38.3487 94.7964Z" stroke="white" stroke-width="0.53394" stroke-miterlimit="10"/>
<path d="M46.8965 93.6367H54.3491" stroke="white" stroke-width="0.53394" stroke-miterlimit="10" stroke-linecap="round" stroke-linejoin="round"/>
<path d="M46.8965 96.7324H58.9949" stroke="white" stroke-width="0.53163" stroke-miterlimit="10" stroke-linecap="round" stroke-linejoin="round"/>
<path d="M38.3487 103.392C38.3487 101.998 39.4798 100.868 40.875 100.868C42.2703 100.868 43.4014 101.998 43.4014 103.392C43.4014 104.786 42.2703 105.916 40.875 105.916C39.4798 105.916 38.3487 104.786 38.3487 103.392Z" stroke="white" stroke-width="0.53394" stroke-miterlimit="10"/>
<path d="M45.3481 102.232H52.8007" stroke="white" stroke-width="0.53394" stroke-miterlimit="10" stroke-linecap="round" stroke-linejoin="round"/>
<path d="M45.3481 105.328H58.9952" stroke="white" stroke-width="0.534497" stroke-miterlimit="10" stroke-linecap="round" stroke-linejoin="round"/>
<path d="M205.797 48.3887H242.538" stroke="white" stroke-width="1.16614" stroke-miterlimit="10" stroke-linecap="round"/>
<path d="M205.797 53.1934H242.538" stroke="white" stroke-width="1.16614" stroke-miterlimit="10" stroke-linecap="round"/>
<path d="M205.797 57.998H242.538" stroke="white" stroke-width="1.16614" stroke-miterlimit="10" stroke-linecap="round"/>
<path d="M201.305 48.3887H196.877" stroke="white" stroke-width="1.16614" stroke-miterlimit="10" stroke-linecap="round"/>
<path d="M201.305 53.1934H196.877" stroke="white" stroke-width="1.16614" stroke-miterlimit="10" stroke-linecap="round"/>
<path d="M201.305 57.998H196.877" stroke="white" stroke-width="1.16614" stroke-miterlimit="10" stroke-linecap="round"/>
<path d="M259.319 45.4479C259.319 58.9708 270.29 69.9328 283.823 69.9328C297.357 69.9328 308.33 58.9708 308.33 45.4479C308.33 31.9249 297.357 20.9629 283.823 20.9629C270.29 20.9629 259.319 31.9249 259.319 45.4479Z" fill="white"/>
<path d="M283.824 65.3523C294.809 65.3523 303.746 56.4226 303.746 45.4467C303.746 34.4707 294.809 25.541 283.824 25.541C272.84 25.541 263.903 34.4707 263.903 45.4467C263.903 56.4226 272.84 65.3523 283.824 65.3523Z" fill="#EBEBF2"/>
<path d="M283.597 49.1183C283.745 49.1599 283.91 49.1311 284.037 49.0321L296.983 38.985C297.199 38.8164 297.239 38.5039 297.071 38.2859C296.902 38.0692 296.588 38.0294 296.371 38.198L283.739 48.0015L274.577 40.5168C274.364 40.3426 274.05 40.3742 273.875 40.5881C273.701 40.8007 273.733 41.1138 273.945 41.288L283.416 49.0237C283.471 49.0694 283.532 49.1006 283.597 49.1183Z" fill="white" stroke="white" stroke-width="1.33261" stroke-miterlimit="2" stroke-linejoin="round"/>
<path d="M43.1112 148.056L56.6598 148.071L57.0614 148.072L55.1891 148.07L43.1112 148.056ZM59.8434 194.068C59.8653 194.647 59.8928 195.205 59.9256 195.746L59.9153 195.748C59.8804 195.207 59.852 194.647 59.8291 194.068L59.8434 194.068ZM60.0498 197.466C60.0267 197.223 60.0063 196.972 59.9869 196.721L59.992 196.722C60.0104 196.971 60.0287 197.224 60.0498 197.466ZM74.4011 227.397C74.9662 227.399 75.4277 226.933 75.4232 226.368C75.3127 209.836 71.9967 206.71 71.4136 194.679L71.4149 194.313L71.3985 194.314C71.3645 193.524 71.3402 192.7 71.3306 191.829C71.3246 191.269 70.8768 190.813 70.3167 190.813C68.1367 190.811 63.0032 190.805 60.808 190.802C60.2428 190.801 59.7827 191.263 59.7892 191.828C59.7946 192.215 59.8016 192.592 59.8101 192.964L59.7937 192.964C59.7842 192.593 59.7761 192.215 59.7718 191.829C59.7643 191.264 60.2265 190.801 60.7926 190.803L66.9543 190.809C67.5174 190.809 67.974 190.354 67.9745 189.791L67.9801 185.93L68.3443 185.939L68.3466 184.794L67.981 184.803L68.0018 169.518C68.0023 168.955 68.4589 168.499 69.022 168.5L70.6991 168.502C71.2622 168.503 71.7199 168.047 71.7203 167.484L71.7306 159.314C71.7321 158.751 71.276 158.295 70.7129 158.295L67.5652 158.29C67.003 158.29 66.547 157.834 66.5474 157.271L66.5578 149.377C66.5592 148.663 67.1404 148.083 67.8559 148.083C68.5723 148.085 69.1535 147.505 69.1539 146.789L69.1644 138.896C69.1657 138.334 68.7098 137.877 68.1466 137.876L60.3886 137.868L29.1224 137.833C28.5593 137.833 28.1027 138.289 28.1013 138.85L28.0908 146.717C28.0903 147.28 27.6337 147.736 27.0706 147.735L25.4833 147.735L25.4956 148.305L25.4844 157.226C25.4839 157.788 25.939 158.245 26.5021 158.245L34.1334 158.254L28.076 158.247L28.076 158.261L28.0616 158.261L28.075 158.831L28.0693 163.083L28.0689 163.924L28.0634 167.436C28.0629 167.999 28.519 168.455 29.0822 168.456L30.0694 168.457C30.6325 168.458 31.0876 168.914 31.0871 169.477L31.0607 189.75C31.0593 190.313 31.5153 190.769 32.0784 190.771L48.1985 190.788L28.5065 190.767C27.9404 190.765 27.4778 191.233 27.4843 191.798C27.5217 195.52 27.79 198.477 28.1726 201.088L28.1717 201.658L28.2566 201.656C29.4189 209.141 31.4854 213.917 31.5773 226.331C31.5812 226.891 32.033 227.35 32.593 227.352L62.8412 227.385C63.4064 227.386 63.8668 226.92 63.8633 226.356C63.8501 224.364 63.7899 222.567 63.6938 220.925C63.7988 222.571 63.8661 224.368 63.8808 226.367C63.8857 226.927 64.3374 227.386 64.8975 227.387L74.4011 227.397Z" fill="white"/>
<path d="M34.2148 147.609L60.7994 147.513" stroke="#EBEBF2" stroke-width="1.06506" stroke-miterlimit="10" stroke-linecap="round"/>
<path d="M17.5732 151.498L44.1578 151.402" stroke="#EBEBF2" stroke-width="1.06506" stroke-miterlimit="10" stroke-linecap="round"/>
<path d="M30.9839 157.59L64.5925 158.518" stroke="#EBEBF2" stroke-width="1.06506" stroke-miterlimit="10" stroke-linecap="round"/>
<path d="M30.6909 161.588L47.5085 161.863" stroke="#EBEBF2" stroke-width="1.06506" stroke-miterlimit="10" stroke-linecap="round"/>
<path d="M55.2178 160.895L73.5946 161.219" stroke="#EBEBF2" stroke-width="1.06506" stroke-miterlimit="10" stroke-linecap="round"/>
<path d="M32.6489 168.951L66.8235 169.917" stroke="#EBEBF2" stroke-width="1.06506" stroke-miterlimit="10" stroke-linecap="round"/>
<path d="M42.644 165.08L66.1049 165.777" stroke="#EBEBF2" stroke-width="1.06506" stroke-miterlimit="10" stroke-linecap="round"/>
<path d="M48.1045 153.734L69.9215 154.311" stroke="#EBEBF2" stroke-width="1.06506" stroke-miterlimit="10" stroke-linecap="round"/>
<path d="M38.1997 173.991L68.4082 174.941" stroke="#EBEBF2" stroke-width="1.06506" stroke-miterlimit="10" stroke-linecap="round"/>
<path d="M276.882 135.87C276.882 135.87 260.973 132.728 256.534 121.637C252.094 110.548 268.326 102.229 276.882 108.186C286.034 114.557 276.882 135.87 276.882 135.87Z" fill="white"/>
<path d="M276.497 135.604C276.497 135.604 285.612 153.4 289.87 163.41" stroke="white" stroke-width="1.07" stroke-miterlimit="1.5" stroke-linecap="round" stroke-linejoin="round"/>
<path d="M263.125 107.797C263.125 107.797 272.24 125.594 276.497 135.603" stroke="#EBEBF2" stroke-width="1.07" stroke-miterlimit="1.5" stroke-linecap="round" stroke-linejoin="round"/>
<path d="M256.105 114.363C256.105 114.363 266.921 120.686 276.887 135.869" stroke="#EBEBF2" stroke-width="1.07" stroke-miterlimit="1.5" stroke-linecap="round" stroke-linejoin="round"/>
<path d="M255.151 121.891C259.792 123.818 268.024 127.971 276.887 135.874" stroke="#EBEBF2" stroke-width="1.07" stroke-miterlimit="1.5" stroke-linecap="round" stroke-linejoin="round"/>
<path d="M272.383 106.236C272.383 106.236 270.926 118.672 277.062 135.761" stroke="#EBEBF2" stroke-width="1.07" stroke-miterlimit="1.5" stroke-linecap="round" stroke-linejoin="round"/>
<path d="M278.97 110.004C277.717 114.866 276.082 123.934 277.064 135.761" stroke="#EBEBF2" stroke-width="1.07" stroke-miterlimit="1.5" stroke-linecap="round" stroke-linejoin="round"/>
<path d="M296.817 136.986C296.817 136.986 312.725 133.843 317.165 122.752C321.604 111.663 305.373 103.345 296.817 109.301C287.664 115.672 296.817 136.986 296.817 136.986Z" fill="white"/>
<path d="M297.201 136.719C297.201 136.719 288.086 154.516 283.829 164.525" stroke="white" stroke-width="1.07" stroke-miterlimit="1.5" stroke-linecap="round" stroke-linejoin="round"/>
<path d="M310.574 108.912C310.574 108.912 301.459 126.709 297.201 136.718" stroke="#EBEBF2" stroke-width="1.07" stroke-miterlimit="1.5" stroke-linecap="round" stroke-linejoin="round"/>
<path d="M317.593 115.479C317.593 115.479 306.777 121.801 296.811 136.984" stroke="#EBEBF2" stroke-width="1.07" stroke-miterlimit="1.5" stroke-linecap="round" stroke-linejoin="round"/>
<path d="M318.547 123.006C313.907 124.933 305.675 129.086 296.811 136.989" stroke="#EBEBF2" stroke-width="1.07" stroke-miterlimit="1.5" stroke-linecap="round" stroke-linejoin="round"/>
<path d="M301.315 107.352C301.315 107.352 302.772 119.787 296.636 136.877" stroke="#EBEBF2" stroke-width="1.07" stroke-miterlimit="1.5" stroke-linecap="round" stroke-linejoin="round"/>
<path d="M294.729 111.119C295.981 115.981 297.616 125.049 296.634 136.876" stroke="#EBEBF2" stroke-width="1.07" stroke-miterlimit="1.5" stroke-linecap="round" stroke-linejoin="round"/>
<path d="M287.516 113.343C287.516 113.343 274.48 103.712 275.212 91.788C275.944 79.8656 294.175 79.2712 299.36 88.3088C304.907 97.9762 287.516 113.343 287.516 113.343Z" fill="white"/>
<path d="M287.29 112.936C287.29 112.936 287.915 132.918 287.481 143.785" stroke="white" stroke-width="1.07" stroke-miterlimit="1.5" stroke-linecap="round" stroke-linejoin="round"/>
<path d="M287.091 82.0859C287.091 82.0859 287.716 102.068 287.282 112.935" stroke="#EBEBF2" stroke-width="1.07" stroke-miterlimit="1.5" stroke-linecap="round" stroke-linejoin="round"/>
<path d="M277.935 85.0273C277.935 85.0273 285.007 95.3599 287.52 113.342" stroke="#EBEBF2" stroke-width="1.07" stroke-miterlimit="1.5" stroke-linecap="round" stroke-linejoin="round"/>
<path d="M273.853 91.4258C277.223 95.1484 282.888 102.416 287.52 113.344" stroke="#EBEBF2" stroke-width="1.07" stroke-miterlimit="1.5" stroke-linecap="round" stroke-linejoin="round"/>
<path d="M296.125 84.6309C296.125 84.6309 289.49 95.252 287.728 113.323" stroke="#EBEBF2" stroke-width="1.07" stroke-miterlimit="1.5" stroke-linecap="round" stroke-linejoin="round"/>
<path d="M300.473 90.8516C297.259 94.7126 291.901 102.212 287.728 113.324" stroke="#EBEBF2" stroke-width="1.07" stroke-miterlimit="1.5" stroke-linecap="round" stroke-linejoin="round"/>
<path fill-rule="evenodd" clip-rule="evenodd" d="M301.178 143.285C301.89 143.285 302.566 143.597 303.028 144.139C303.49 144.68 303.691 145.396 303.578 146.1C301.783 157.286 295.249 198.001 295.249 198.001H279.717C279.717 198.001 272.497 157.383 270.498 146.14C270.372 145.432 270.567 144.705 271.028 144.154C271.491 143.603 272.173 143.285 272.892 143.285H301.178Z" fill="white"/>
<mask id="mask2_15038_54835" style="mask-type:luminance" maskUnits="userSpaceOnUse" x="270" y="143" width="34" height="56">
<path d="M301.178 143.285C301.89 143.285 302.566 143.597 303.028 144.139C303.49 144.68 303.691 145.396 303.578 146.1C301.783 157.286 295.249 198.001 295.249 198.001H279.717C279.717 198.001 272.497 157.383 270.498 146.14C270.372 145.432 270.567 144.705 271.028 144.154C271.491 143.603 272.173 143.285 272.892 143.285H301.178Z" fill="white"/>
</mask>
<g mask="url(#mask2_15038_54835)">
<path fill-rule="evenodd" clip-rule="evenodd" d="M301.178 143.285C301.89 143.285 302.566 143.597 303.028 144.139C303.49 144.68 303.691 145.396 303.578 146.1C301.783 157.286 295.249 198.001 295.249 198.001H279.717C279.717 198.001 272.497 157.383 270.498 146.14C270.372 145.432 270.567 144.705 271.028 144.154C271.491 143.603 272.173 143.285 272.892 143.285H301.178Z" fill="white"/>
<path d="M305.245 157.861H268.775V160.291H305.245V157.861Z" fill="#EBEBF2"/>
<path d="M305.245 153.004H268.775V155.433H305.245V153.004Z" fill="#EBEBF2"/>
<path d="M305.245 148.145H268.775V150.574H305.245V148.145Z" fill="#EBEBF2"/>
</g>
</g>
<path d="M220.74 93.0165C218.159 91.6202 200.343 82.8633 200.343 82.8633H188.053C188.053 82.8633 173.242 89.7056 170.661 91.1005C168.08 92.4968 172.92 160.738 172.92 160.738L189.307 159.11L196.048 157.746L215.582 152.612C215.582 152.612 221.315 96.9146 218.734 95.5183" fill="#FFC7A1"/>
<path fill-rule="evenodd" clip-rule="evenodd" d="M220.486 166.016L226.041 198.002H167.953V166.016H220.486Z" fill="#21B531"/>
<path d="M187.452 198.002V191.59L183.491 189.447" stroke="#115B19" stroke-width="2.09241" stroke-miterlimit="1.5" stroke-linecap="round" stroke-linejoin="round"/>
<path d="M196.454 90.8837L190.448 90.9114C188.163 90.9208 186.302 89.0779 186.294 86.794L186.239 73.0465C186.229 70.7622 188.073 68.9027 190.359 68.892L196.365 68.8643C198.65 68.8549 200.511 70.6978 200.519 72.9817L200.576 86.7296C200.584 89.0134 198.74 90.873 196.454 90.8837Z" fill="#FFC7A1"/>
<path d="M200.519 72.9804C200.51 70.6961 198.65 68.8534 196.365 68.8627L190.358 68.8904C188.073 68.9012 186.227 70.7605 186.236 73.0449L186.271 81.5206C191.244 83.1027 196.664 82.2169 200.55 80.4989L200.519 72.9804Z" fill="#EA989D"/>
<path d="M171.073 119.425C167.83 110.039 161.308 116.22 160.771 116.819C157.912 120.006 154.692 132.009 151.881 147.666C151.881 147.666 149.957 156.67 164.399 149.986C164.399 149.986 172.455 123.426 171.073 119.425Z" fill="#FFC7A1"/>
<path d="M172.892 91.6991C172.892 91.6991 166.229 92.705 164.319 94.2318C157.572 99.6311 150.323 130.278 150.323 130.278C150.323 130.278 160.035 137.054 169.618 135.503L177.151 112.342C177.151 112.342 179.697 94.9422 172.892 91.6991Z" fill="#0049CD"/>
<path d="M185.794 83.0957C185.794 83.0957 190.371 88.8684 191.118 95.5494L189.508 135.581L186.869 181.211C186.869 181.211 163.909 180.101 164.743 172.414C166.273 158.323 168.475 150.865 167.628 138.523C165.746 111.096 166.379 93.1703 166.379 93.1703C166.379 93.1703 169.025 89.6789 183.802 84.4451" fill="#0049CD"/>
<path d="M166.379 159.968C166.771 151.558 168.33 144.351 168.011 138.559C167.575 130.63 167.444 117.908 168.878 108.943" stroke="#00338F" stroke-width="1.99713" stroke-miterlimit="2" stroke-linecap="round" stroke-linejoin="bevel"/>
<path d="M201.549 81.7676C201.549 81.7676 190.956 95.2427 191.118 95.1614L186.405 154.178C186.405 154.178 186.216 181.102 186.868 181.21C206.658 184.451 226.04 177.607 226.04 177.607C226.04 177.607 221.675 151.415 221.249 142.633C219.916 115.233 223.139 88.4969 223.139 88.4969C223.139 88.4969 216.218 83.2879 206.267 82.4485" fill="#0049CD"/>
<path d="M191.119 95.9707C191.119 95.9707 188.101 114.486 187.873 123.175C187.584 134.214 186.389 177.656 186.389 177.656" stroke="#00338F" stroke-width="1.99943" stroke-miterlimit="1.5" stroke-linecap="round" stroke-linejoin="round"/>
<path d="M184.759 83.0957C184.759 83.0957 179.682 87.3688 180.882 99.6693C180.882 99.6693 185.078 92.9478 186.785 92.4265C188.491 91.905 190.041 94.1369 191.118 96.5409" stroke="#00338F" stroke-width="1.99944" stroke-miterlimit="1.5" stroke-linecap="round" stroke-linejoin="round"/>
<path d="M242.257 138.646C241.269 128.519 230.255 109.928 230.255 109.928C230.255 109.928 215.008 101.575 218.163 119.382L229.481 142.648C229.481 142.648 238.771 145.398 242.257 138.646Z" fill="#FFC7A1"/>
<path d="M221.446 86.5764C225.928 88.5528 227.944 90.3842 229.093 92.1457C230.243 93.9073 241.985 117.312 242.964 119.651C243.944 121.991 232.619 133.763 220.85 129.082L212.375 106.329C212.375 106.329 209.957 81.5114 221.446 86.5764Z" fill="#0049CD"/>
<path d="M241.541 122.816C238.19 126.892 229.644 132.579 220.851 129.083L212.911 111.234" stroke="#00338F" stroke-width="1.99772" stroke-miterlimit="2" stroke-linecap="round" stroke-linejoin="round"/>
<path d="M201.934 81.7673C201.934 81.7673 206.198 87.3677 203.29 99.6686C203.29 99.6686 198.075 94.2055 195.864 93.2576C193.782 92.3652 192.265 94.4948 191.118 96.6346" stroke="#00338F" stroke-width="1.99944" stroke-miterlimit="1.5" stroke-linecap="round" stroke-linejoin="round"/>
<path fill-rule="evenodd" clip-rule="evenodd" d="M193.437 99.6684L194.006 136.356L187.673 143.466L182.962 136.356L187.841 99.0996L193.437 99.6684Z" fill="#21B531"/>
<path d="M193.437 99.6699L194.006 136.357L187.744 143.467" stroke="white" stroke-width="1.33218" stroke-miterlimit="1.5" stroke-linecap="round" stroke-linejoin="round"/>
<path fill-rule="evenodd" clip-rule="evenodd" d="M193.436 99.6692C192.581 100.694 188.567 100.288 187.841 99.3848C186.895 98.2071 186.815 92.9159 186.89 93.4124C186.89 93.4124 190.845 91.8937 195.713 94.2656C195.713 94.2656 195.122 97.6494 193.436 99.6692Z" fill="#21B531"/>
<path d="M195.429 95.1191C195.429 95.1191 195.122 97.6497 193.436 99.6695C193.04 100.144 191.966 100.312 190.855 100.266" stroke="white" stroke-width="1.33218" stroke-miterlimit="1.5" stroke-linecap="round" stroke-linejoin="round"/>
<path d="M213.133 42.2817C213.133 42.2817 211.447 37.3782 209.002 34.4052C211.476 34.4806 213.623 33.8425 213.623 33.8425C208.505 32.7846 205.027 31.0962 202.763 29.7909C202.054 29.3218 198.264 27.4255 198.264 27.4255L198.271 27.4339C196.002 26.2419 195.525 25.2039 192.505 24.6811C186.456 23.6332 181.471 28.6996 181.471 28.6996C181.471 28.6996 176.406 28.2952 175.466 28.9088C175.016 29.2018 171.863 31.8314 169.853 35.4434L169.853 35.441C169.853 35.441 166.237 41.3724 164.056 42.6561C164.056 42.6561 165.616 42.644 167.212 42.2625C166.311 45.7986 167.174 50.1997 167.37 55.7733C167.568 61.4351 176.475 67.7946 176.475 67.7946L205.377 66.1633C205.377 66.1633 216.801 55.0322 213.133 42.2817Z" fill="#12161C"/>
<path d="M201.005 39.5111L176.349 41.145L171.712 47.0809C169.746 52.1763 170.999 57.9816 172.683 63.2732C174.024 67.4835 174.084 72.7136 178.027 74.4604C187.732 78.7611 196.991 76.4797 200.984 71.7626C202.231 70.2889 203.899 68.3106 204.69 66.5108C206.171 63.7219 206.588 59.2152 206.7 57.2998C207.151 50.8506 205.404 44.0949 201.005 39.5111Z" fill="#FFC7A1"/>
<path d="M202.604 58.2116C202.462 54.1503 206.454 51.9787 208.148 52.405C211.968 53.3653 213.72 56.3594 212.971 59.6463C212.186 63.0874 208.595 65.2343 205.197 64.2822C204.334 64.0411 202.664 59.9427 202.604 58.2116Z" fill="#FFC7A1"/>
<path d="M202.623 58.7333C202.332 58.7434 202.088 58.5156 202.078 58.2249C201.984 55.5393 203.519 53.8877 204.441 53.1429C205.694 52.1317 207.236 51.629 208.278 51.8912C208.559 51.9622 208.731 52.2485 208.66 52.5295C208.589 52.8118 208.304 52.9835 208.02 52.9125C207.408 52.7585 206.21 53.0689 205.105 53.9618C204.334 54.5831 203.054 55.9597 203.132 58.1882C203.142 58.4789 202.914 58.7231 202.623 58.7333Z" fill="#EA989D" stroke="#EA989D" stroke-width="0.399029" stroke-miterlimit="2" stroke-linejoin="round"/>
<path d="M205.903 57.5358C207.014 55.7235 208.916 54.6756 211.034 54.6396C212.247 54.6185 212.174 56.5021 210.962 56.523C209.513 56.548 208.257 57.303 207.506 58.5297C206.87 59.5648 205.268 58.5721 205.903 57.5358Z" fill="#EA989D"/>
<path d="M187.391 40.7309C188.428 42.3414 192.983 46.8417 192.983 46.8417C192.983 46.8417 196.924 51.5225 202.385 52.9541L202.259 49.3667C202.227 48.4401 202.725 52.0083 205.734 54.2665C205.734 54.2665 207.6 42.8205 205.213 39.4101C201.903 34.6799 191.089 32.1462 187.07 34.6181C185.562 35.545 186.549 39.4232 187.391 40.7309Z" fill="#12161C"/>
<path d="M171.911 46.5585C171.911 46.5585 171.219 53.1564 173.4 57.9293C173.4 57.9293 170.042 57.177 169.947 51.3465C169.947 51.3465 169.495 43.541 171.911 46.5585Z" fill="#12161C"/>
<path d="M179.126 41.2994C179.126 41.2994 178.181 33.798 181.262 32.8873C185.176 31.73 188.242 42.3487 193.724 48.9409C193.724 48.9409 187.731 48.9779 185.994 45.0574C185.994 45.0574 187.642 48.5806 188.127 49.7775C188.127 49.7775 182.723 50.0304 180.942 41.4065L179.126 41.2994Z" fill="#12161C"/>
<path d="M176.107 41.406L179.763 37.3796L180.941 41.408L176.107 41.406Z" fill="#595C60"/>
<path d="M184.077 64.3349C184.077 64.3349 181.533 60.3742 185.9 61.6432" stroke="#12161C" stroke-width="1.33647" stroke-miterlimit="10" stroke-linecap="round"/>
<path d="M189.563 56.2459C189.83 58.1164 190.783 59.6217 191.714 60.4381C192.656 61.2739 193.574 61.42 194.021 61.0417C194.905 60.1918 194.219 57.9461 193.92 55.5826L193.919 55.5774C193.865 55.2786 193.632 55.0427 193.333 54.9892L191.898 54.7359L193.274 53.5641C193.465 53.4009 193.559 53.1482 193.518 52.8991C193.317 51.6559 193.05 50.6719 192.389 50.342C191.85 50.1129 191.016 50.5258 190.366 51.604C189.721 52.6604 189.26 54.3821 189.563 56.2459Z" fill="#12161C"/>
<path d="M175.527 60.0174C175.793 61.8879 176.746 63.3932 177.677 64.2095C178.619 65.0454 179.538 65.1915 179.985 64.8132C180.868 63.9632 180.182 61.7176 179.883 59.3541L179.882 59.3489C179.828 59.05 179.596 58.8142 179.296 58.7607L177.861 58.5074L179.237 57.3356C179.429 57.1724 179.522 56.9197 179.481 56.6705C179.281 55.4273 179.014 54.4434 178.353 54.1135C177.813 53.8843 176.979 54.2972 176.33 55.3755C175.684 56.4319 175.223 58.1536 175.527 60.0174Z" fill="#12161C"/>
<path d="M192.853 71.5072C190.997 71.9534 189.187 71.0419 188.808 69.4713C188.43 67.9008 189.627 66.2659 191.482 65.8197C193.337 65.3734 195.148 66.2849 195.527 67.8555C195.905 69.426 194.708 71.0609 192.853 71.5072Z" fill="white" stroke="#12161C" stroke-width="1.21353" stroke-miterlimit="1.5" stroke-linecap="round" stroke-linejoin="round"/>
<path d="M187.375 49.7441C187.488 49.2599 187.789 48.6993 188.233 48.1568C190.076 45.9027 194.388 43.9575 197.95 49.03" stroke="#12161C" stroke-width="1.33647" stroke-miterlimit="10" stroke-linecap="round"/>
<path d="M170.34 54.0197C170.34 54.0197 175.104 53.8827 178.732 50.3713" stroke="#12161C" stroke-width="1.29856" stroke-miterlimit="1.5" stroke-linecap="round" stroke-linejoin="round"/>
<path fill-rule="evenodd" clip-rule="evenodd" d="M169.217 79.6698L179.867 147.583C180.386 150.89 178.121 153.995 174.812 154.512L126.852 162.007C123.544 162.524 120.436 160.259 119.918 156.952L109.267 89.0392C108.749 85.732 111.014 82.6271 114.323 82.1099L162.282 74.6145C165.591 74.0973 168.698 76.3627 169.217 79.6698Z" fill="#FFB35C"/>
<path fill-rule="evenodd" clip-rule="evenodd" d="M164.824 84.2973L174.245 144.369C174.677 147.126 172.789 149.713 170.032 150.144L130.066 156.39C127.309 156.821 124.72 154.933 124.287 152.177L114.867 92.1051C114.434 89.3488 116.322 86.7615 119.079 86.3305L159.045 80.0843C161.802 79.6534 164.392 81.541 164.824 84.2973Z" fill="white"/>
<path fill-rule="evenodd" clip-rule="evenodd" d="M160.034 87.5708L161.834 99.04C162.047 100.396 161.118 101.67 159.761 101.882L125.074 107.303C123.717 107.515 122.443 106.586 122.23 105.23L120.431 93.7604C120.218 92.4043 121.146 91.1306 122.503 90.9186L157.191 85.4973C158.547 85.2852 159.821 86.2146 160.034 87.5708Z" fill="#FDEFEF"/>
<path fill-rule="evenodd" clip-rule="evenodd" d="M160.675 87.4717L162.475 98.9407C162.743 100.65 161.572 102.256 159.862 102.523L125.174 107.944C123.464 108.211 121.858 107.04 121.589 105.331L119.79 93.8616C119.522 92.1519 120.692 90.5467 122.403 90.2793L157.09 84.8581C158.801 84.5908 160.407 85.7621 160.675 87.4717ZM160.034 87.5719C159.821 86.2157 158.547 85.2864 157.191 85.4984L122.503 90.9196C121.146 91.1316 120.218 92.4053 120.431 93.7614L122.23 105.23C122.443 106.587 123.717 107.516 125.074 107.304L159.761 101.883C161.118 101.671 162.047 100.397 161.834 99.0409L160.034 87.5719Z" fill="#EB5757"/>
<path fill-rule="evenodd" clip-rule="evenodd" d="M157.646 90.0443C157.729 90.5719 157.367 91.0676 156.84 91.1501L136.9 94.2687C136.372 94.3512 135.876 93.9896 135.793 93.4621C135.711 92.9342 136.072 92.4388 136.6 92.3563L156.54 89.2377C157.068 89.1552 157.563 89.5164 157.646 90.0443Z" fill="#EB5757"/>
<path fill-rule="evenodd" clip-rule="evenodd" d="M153.185 94.5164C153.268 95.044 152.907 95.5396 152.379 95.6222L137.476 97.9526C136.949 98.0351 136.453 97.6734 136.371 97.1459C136.288 96.618 136.649 96.1227 137.176 96.0402L152.079 93.7098C152.607 93.6272 153.102 93.9886 153.185 94.5164Z" fill="#EB5757"/>
<path d="M129.59 103.113C126.951 103.526 124.475 101.721 124.061 99.0821C123.647 96.4434 125.451 93.9699 128.09 93.5575C130.73 93.1451 133.205 94.9499 133.619 97.5887C134.033 100.227 132.229 102.701 129.59 103.113Z" fill="#EB5757"/>
<path d="M126.999 97.2463L130.829 99.2671" stroke="white" stroke-linecap="round"/>
<path d="M127.809 100.006L130.02 96.5061" stroke="white" stroke-linecap="round"/>
<path fill-rule="evenodd" clip-rule="evenodd" d="M153.763 98.2017C153.845 98.7293 153.484 99.2249 152.956 99.3075L138.054 101.638C137.527 101.72 137.031 101.359 136.948 100.831C136.866 100.303 137.227 99.808 137.754 99.7255L152.656 97.3951C153.184 97.3125 153.68 97.6739 153.763 98.2017Z" fill="#EB5757"/>
<path fill-rule="evenodd" clip-rule="evenodd" d="M163.456 109.409L165.256 120.878C165.468 122.234 164.54 123.508 163.183 123.72L128.496 129.141C127.139 129.353 125.865 128.424 125.652 127.067L123.852 115.598C123.64 114.242 124.568 112.968 125.925 112.756L160.612 107.335C161.969 107.123 163.243 108.053 163.456 109.409Z" fill="#FDEFEF"/>
<path fill-rule="evenodd" clip-rule="evenodd" d="M164.097 109.31L165.896 120.779C166.165 122.488 164.994 124.094 163.284 124.361L128.596 129.782C126.886 130.049 125.279 128.878 125.011 127.168L123.212 115.699C122.943 113.99 124.114 112.385 125.825 112.117L160.512 106.696C162.222 106.429 163.829 107.6 164.097 109.31ZM163.456 109.41C163.243 108.054 161.969 107.124 160.612 107.336L125.925 112.757C124.568 112.97 123.64 114.243 123.853 115.599L125.652 127.068C125.865 128.424 127.139 129.354 128.496 129.142L163.183 123.721C164.54 123.509 165.468 122.235 165.256 120.879L163.456 109.41Z" fill="#EB5757"/>
<path fill-rule="evenodd" clip-rule="evenodd" d="M161.068 111.882C161.151 112.41 160.789 112.905 160.262 112.988L140.321 116.107C139.794 116.189 139.298 115.827 139.215 115.3C139.133 114.772 139.494 114.277 140.022 114.194L159.962 111.076C160.489 110.993 160.985 111.354 161.068 111.882Z" fill="#EB5757"/>
<path d="M133.279 125.304C130.64 125.717 128.165 123.912 127.751 121.273C127.336 118.635 129.14 116.161 131.78 115.749C134.419 115.336 136.894 117.141 137.308 119.78C137.723 122.419 135.919 124.892 133.279 125.304Z" fill="#EB5757"/>
<path d="M130.688 119.438L134.519 121.458" stroke="white" stroke-linecap="round"/>
<path d="M131.498 122.197L133.709 118.697" stroke="white" stroke-linecap="round"/>
<path fill-rule="evenodd" clip-rule="evenodd" d="M156.606 116.352C156.689 116.88 156.328 117.375 155.8 117.458L140.897 119.788C140.37 119.871 139.874 119.509 139.792 118.982C139.709 118.454 140.07 117.958 140.597 117.876L155.5 115.546C156.028 115.463 156.523 115.824 156.606 116.352Z" fill="#EB5757"/>
<path fill-rule="evenodd" clip-rule="evenodd" d="M157.184 120.038C157.266 120.565 156.905 121.061 156.377 121.143L141.475 123.474C140.947 123.556 140.452 123.195 140.369 122.667C140.286 122.139 140.648 121.644 141.175 121.561L156.077 119.231C156.605 119.148 157.101 119.51 157.184 120.038Z" fill="#EB5757"/>
<path fill-rule="evenodd" clip-rule="evenodd" d="M166.878 131.243L168.678 142.712C168.891 144.068 167.962 145.342 166.606 145.554L131.918 150.975C130.561 151.187 129.287 150.258 129.074 148.901L127.275 137.432C127.062 136.076 127.991 134.802 129.347 134.59L164.035 129.169C165.391 128.957 166.666 129.887 166.878 131.243Z" fill="#FDEFEF"/>
<path fill-rule="evenodd" clip-rule="evenodd" d="M167.519 131.144L169.319 142.613C169.587 144.322 168.416 145.927 166.706 146.195L132.019 151.616C130.308 151.883 128.702 150.712 128.434 149.002L126.634 137.533C126.366 135.824 127.536 134.219 129.247 133.951L163.934 128.53C165.645 128.263 167.251 129.434 167.519 131.144ZM166.878 131.244C166.666 129.888 165.391 128.958 164.035 129.17L129.347 134.591C127.991 134.803 127.062 136.077 127.275 137.433L129.074 148.902C129.287 150.258 130.561 151.188 131.918 150.976L166.606 145.555C167.962 145.343 168.891 144.069 168.678 142.713L166.878 131.244Z" fill="#EB5757"/>
<path fill-rule="evenodd" clip-rule="evenodd" d="M164.49 133.714C164.573 134.242 164.212 134.738 163.684 134.82L143.744 137.939C143.216 138.021 142.72 137.66 142.638 137.132C142.555 136.604 142.916 136.109 143.444 136.026L163.384 132.908C163.912 132.825 164.408 133.186 164.49 133.714Z" fill="#EB5757"/>
<path fill-rule="evenodd" clip-rule="evenodd" d="M160.029 138.188C160.112 138.716 159.751 139.211 159.223 139.294L144.321 141.624C143.793 141.707 143.298 141.345 143.215 140.818C143.132 140.29 143.493 139.794 144.021 139.712L158.923 137.381C159.451 137.299 159.947 137.66 160.029 138.188Z" fill="#EB5757"/>
<path d="M137.279 146.302C134.639 146.715 132.164 144.91 131.75 142.271C131.336 139.633 133.14 137.159 135.779 136.747C138.418 136.334 140.894 138.139 141.308 140.778C141.722 143.417 139.918 145.89 137.279 146.302Z" fill="#EB5757"/>
<path d="M134.688 140.436L138.518 142.456" stroke="white" stroke-linecap="round"/>
<path d="M135.498 143.195L137.709 139.695" stroke="white" stroke-linecap="round"/>
<path fill-rule="evenodd" clip-rule="evenodd" d="M160.606 141.871C160.689 142.399 160.328 142.895 159.8 142.977L144.898 145.308C144.37 145.39 143.875 145.028 143.792 144.501C143.709 143.973 144.07 143.478 144.598 143.395L159.5 141.065C160.028 140.982 160.524 141.344 160.606 141.871Z" fill="#EB5757"/>
<path d="M157.983 73.2452L118.008 79.4961L118.635 83.4929L158.609 77.2421L157.983 73.2452Z" fill="#FF9246"/>
<path d="M115.969 117.201C116.248 118.402 114.966 119.727 113.106 120.159C111.244 120.592 109.509 119.968 109.228 118.769C108.95 117.566 110.232 116.242 112.093 115.808C113.953 115.377 115.689 115.999 115.969 117.201Z" fill="#FFC7A1"/>
<path d="M109.228 118.767C108.948 117.566 110.23 116.241 112.092 115.808C113.953 115.375 115.689 115.998 115.969 117.2C116.249 118.401 114.967 119.726 113.106 120.159C111.244 120.592 109.508 119.969 109.228 118.767Z" stroke="#EA989D" stroke-width="1.32979" stroke-miterlimit="10"/>
<path d="M116.843 122.803C117.122 124.004 115.84 125.329 113.98 125.76C112.118 126.193 110.383 125.569 110.103 124.37C109.824 123.168 111.106 121.844 112.967 121.41C114.827 120.978 116.563 121.6 116.843 122.803Z" fill="#FFC7A1"/>
<path d="M110.102 124.369C109.822 123.168 111.104 121.843 112.966 121.41C114.827 120.977 116.563 121.6 116.843 122.801C117.123 124.003 115.841 125.327 113.98 125.76C112.118 126.193 110.382 125.57 110.102 124.369Z" stroke="#EA989D" stroke-width="1.32979" stroke-miterlimit="10"/>
<path d="M118.622 126.922C118.901 128.123 117.619 129.448 115.758 129.879C113.897 130.312 112.162 129.689 111.881 128.489C111.602 127.287 112.884 125.963 114.746 125.529C116.606 125.097 118.342 125.72 118.622 126.922Z" fill="#FFC7A1"/>
<path d="M111.881 128.488C111.601 127.287 112.883 125.962 114.744 125.529C116.606 125.096 118.342 125.719 118.622 126.921C118.902 128.122 117.62 129.447 115.758 129.879C113.897 130.312 112.161 129.689 111.881 128.488Z" stroke="#EA989D" stroke-width="1.32979" stroke-miterlimit="10"/>
<path d="M119.623 132.659C119.902 133.86 118.62 135.185 116.759 135.618C114.898 136.049 113.163 135.426 112.882 134.226C112.603 133.024 113.885 131.7 115.746 131.266C117.607 130.834 119.343 131.457 119.623 132.659Z" fill="#FFC7A1"/>
<path d="M112.882 134.226C112.602 133.025 113.884 131.7 115.745 131.267C117.607 130.834 119.343 131.457 119.623 132.659C119.903 133.86 118.621 135.185 116.759 135.618C114.898 136.051 113.162 135.428 112.882 134.226Z" stroke="#EA989D" stroke-width="1.32979" stroke-miterlimit="10"/>
<path d="M235.837 130.274C235.837 130.274 239.923 132.179 240.178 133.135C240.213 133.276 241.938 135.552 241.978 135.707C242.004 135.822 242.03 135.936 242.054 136.056C242.105 136.272 242.153 136.502 242.206 136.747C242.692 139.055 242.741 140.881 241.349 142.786C240.067 144.545 238.048 145.653 235.95 146.223C231.728 147.37 227.431 147.02 223.246 145.999C217.98 144.712 212.839 142.956 207.728 141.158C203.217 139.572 197.789 137.827 193.305 136.17C190.291 135.057 186.015 134.888 185.464 131.131C185.414 130.773 185.401 130.397 185.542 130.066C185.694 129.706 186.001 129.442 186.312 129.207C187.552 128.267 189.003 127.772 190.473 127.317C191.72 126.927 193.383 125.872 194.619 125.737C196.292 125.561 198.023 126.573 199.59 126.999C203.705 128.119 207.825 128.672 212.004 128.904C214.208 129.026 216.429 129.064 218.672 129.045C222.509 129.011 226.357 128.937 230.18 129.313C231.799 129.474 233.411 129.713 234.998 130.072C235.277 130.137 235.557 130.203 235.837 130.274Z" fill="#FFC7A1"/>
<path d="M230.494 129.19C230.494 129.19 208.129 129.806 200.73 127.275" stroke="#EA989D" stroke-width="2.00143" stroke-miterlimit="1.5" stroke-linecap="round" stroke-linejoin="round"/>
<path d="M181.229 126.813C179.203 126.363 177.465 125.336 176.037 123.875C174.635 122.441 172.695 121.57 171.227 120.153C170.036 119.004 168.133 117.287 168.109 115.5C168.082 113.386 170.124 114.371 171.081 115.089C172.816 116.391 174.53 118.007 176.442 119.006C177.872 119.752 179.347 120.408 180.859 120.97C182.157 121.453 183.719 121.615 184.901 122.337C185.659 122.8 186.267 123.615 186.23 124.502C186.194 125.347 185.581 126.084 184.841 126.49C183.757 127.085 182.435 127.082 181.229 126.813Z" fill="#FFC7A1"/>
<path d="M184.406 124.976C182.38 124.525 180.641 123.498 179.213 122.037C177.811 120.603 175.871 119.732 174.403 118.315C173.213 117.166 171.309 115.449 171.286 113.662C171.258 111.548 173.3 112.533 174.257 113.251C175.992 114.553 177.706 116.169 179.619 117.168C181.048 117.914 182.523 118.57 184.035 119.132C185.333 119.615 186.895 119.778 188.077 120.499C188.835 120.962 189.443 121.777 189.406 122.664C189.37 123.509 188.758 124.246 188.017 124.652C186.933 125.247 185.612 125.244 184.406 124.976Z" fill="#FFC7A1"/>
<path d="M177.722 126.159C176.919 127.169 175.497 127.55 174.743 128.596C174.585 128.816 174.457 129.075 174.466 129.346C174.507 130.513 178.297 131.529 179.215 131.907C181.102 132.684 183.012 133.406 184.941 134.073C187.78 135.055 192.551 137.294 195.214 134.86C195.95 134.188 196.299 133.175 196.365 132.181C196.464 130.711 196.17 128.775 195.25 127.573C194.924 127.148 194.488 126.822 194.058 126.502C192.129 125.065 190.085 124.072 188.504 122.278C188.41 122.17 188.313 122.062 188.187 121.995C187.987 121.892 187.748 121.912 187.524 121.931C184.393 122.196 181.712 121.119 178.685 120.802C176.826 120.607 174.555 122.292 175.823 124.154C176.303 124.86 176.945 125.455 177.685 125.882L177.722 126.159Z" fill="#FFC7A1"/>
<path d="M184.783 121.721C186.202 121.053 187.395 119.367 186.475 117.879C186.082 117.243 185.582 116.712 185.053 116.191C184.299 115.449 183.618 114.591 183.531 113.479C183.491 112.958 183.784 111.493 184.582 111.773C184.839 111.864 185.021 112.088 185.193 112.299C186.391 113.784 188.216 114.904 189.966 115.625C192.011 116.468 193.198 117.935 194.008 119.956C194.5 121.181 194.824 122.463 195.215 123.723C195.408 124.346 195.617 124.969 195.845 125.578C196.038 126.091 196.444 126.447 196.684 126.946C196.9 127.394 196.98 127.933 196.782 128.389C196.59 128.832 196.166 129.136 195.717 129.312C194.586 129.756 193.314 129.504 192.138 129.202C190.11 128.681 188.1 128.023 186.283 126.986C185.257 126.4 184.083 125.662 183.361 124.705C182.859 124.04 181.962 122.808 182.922 122.172C183.499 121.789 184.156 122.017 184.783 121.721Z" fill="#FFC7A1"/>
<path d="M186.13 127.911C186.332 128.157 186.505 128.445 186.528 128.763C186.566 129.286 186.19 129.755 185.764 130.063C182.993 132.068 177.677 130.97 174.769 129.885C173.506 129.413 172.217 128.817 171.13 128.012C170.622 127.636 170.052 127.183 169.828 126.568C169.389 125.359 170.237 125.039 171.254 125.491C173.67 126.563 176.299 127.07 178.941 127.009C181.299 126.953 184.328 125.715 186.13 127.911Z" fill="#FFC7A1"/>
<path d="M172.812 124.031C171.567 123.115 170.403 122.091 169.355 120.954C168.696 120.24 166.938 118.713 167.379 117.598C168.159 115.63 171.537 118.541 172.329 119.193C173.885 120.475 175.617 121.539 177.464 122.345C179.236 123.118 181.188 123.405 182.902 124.29C183.793 124.75 184.695 125.452 184.826 126.446C184.868 126.761 184.827 127.081 184.766 127.392C184.698 127.735 184.593 128.094 184.33 128.324C184.126 128.504 183.853 128.58 183.585 128.63C181.687 128.984 179.966 127.98 178.298 127.216C176.373 126.334 174.519 125.287 172.812 124.031Z" fill="#FFC7A1"/>
<path d="M180.249 127.956C180.249 127.956 179.162 127.657 176.774 127.036C175.212 126.631 173.062 125.829 171.761 125.322" stroke="#EA989D" stroke-width="1.3318" stroke-miterlimit="1.5" stroke-linecap="round" stroke-linejoin="round"/>
<path d="M180.357 123.676C179.292 123.38 178.242 123.018 177.239 122.6C175.229 121.761 173.718 120.911 172.481 119.923C172.269 119.754 172.058 119.581 171.849 119.408C171.435 119.067 171.007 118.715 170.569 118.397C170.048 118.02 169.349 117.564 168.575 117.389" stroke="#EA989D" stroke-width="1.33182" stroke-miterlimit="2" stroke-linecap="round" stroke-linejoin="round"/>
<path d="M183.534 121.838C182.468 121.543 181.418 121.18 180.416 120.762C178.406 119.923 176.894 119.073 175.658 118.086C175.445 117.916 175.235 117.743 175.025 117.57C174.611 117.229 174.184 116.877 173.746 116.559C173.224 116.182 172.526 115.726 171.752 115.551" stroke="#EA989D" stroke-width="1.33182" stroke-miterlimit="2" stroke-linecap="round" stroke-linejoin="round"/>
<path d="M96.1578 93.2473L84.3701 90.6832L89.0655 79.9666L99.3693 85.5963L96.1578 93.2473Z" fill="#EB5757"/>
<path d="M105.635 76.4664L88.9265 56.951L106.89 46.8163L116.533 69.3106L105.635 76.4664Z" fill="#EB5757"/>
<path d="M126.52 67.8993L131.102 56.7011L140.284 59.8239L133.692 71.6711L126.52 67.8993Z" fill="#EB5757"/>
</g>
</g>
<defs>
<clipPath id="clip0_15038_54835">
<rect width="310" height="198" fill="white" transform="translate(21)"/>
</clipPath>
</defs>
</svg>
